o
v 81.156433 6.841644 -175.244019
v 33.038868 -115.884590 -112.998718
v -48.350914 2.616271 187.345276
v 47.216431 -205.888351 -81.540611
v 33.038868 -115.884590 -112.998718
v 47.744572 -205.962555 -81.831161
v 33.038868 -115.884590 -112.998718
v -8.004145 -94.129448 71.584229
v -48.350914 2.616271 187.345276
v 47.216431 -205.888351 -81.540611
v -8.004145 -94.129448 71.584229
v 33.038868 -115.884590 -112.998718
v -48.350914 2.616271 187.345276
v 51.243252 2.400377 213.371490
v 48.007126 22.743528 221.674271
v 81.156433 6.841644 -175.244019
v 151.528824 174.237106 -71.817322
v 139.315460 41.641960 -158.040024
v 176.437988 194.250244 11.167534
v 176.793076 194.101089 10.952516
v 151.528824 174.237106 -71.817322
v 81.156433 6.841644 -175.244019
v 139.315460 41.641960 -158.040024
v 139.900818 -75.033203 -168.260529
v 81.156433 6.841644 -175.244019
v 143.207901 -101.610481 -163.323624
v 33.038868 -115.884590 -112.998718
v 81.156433 6.841644 -175.244019
v 139.900818 -75.033203 -168.260529
v 143.207901 -101.610481 -163.323624
v 33.038868 -115.884590 -112.998718
v 143.207901 -101.610481 -163.323624
v 47.744572 -205.962555 -81.831161
v 47.744572 -205.962555 -81.831161
v 143.207901 -101.610481 -163.323624
v 54.217430 -206.166046 -80.317673
v 81.156433 6.841644 -175.244019
v -48.350914 2.616271 187.345276
v 52.825859 113.088287 15.080530
v 81.156433 6.841644 -175.244019
v 52.825859 113.088287 15.080530
v 151.528824 174.237106 -71.817322
v -48.350914 2.616271 187.345276
v 43.769325 107.603722 122.602150
v 52.825859 113.088287 15.080530
v 176.437988 194.250244 11.167534
v 52.825859 113.088287 15.080530
v 43.769325 107.603722 122.602150
v 176.437988 194.250244 11.167534
v 151.528824 174.237106 -71.817322
v 52.825859 113.088287 15.080530
v -48.350914 2.616271 187.345276
v 48.007126 22.743528 221.674271
v 94.668152 66.980911 199.097549
v -48.350914 2.616271 187.345276
v 94.668152 66.980911 199.097549
v 43.769325 107.603722 122.602150
v 143.207901 -101.610481 -163.323624
v 99.845863 -213.993713 -47.904755
v 54.217430 -206.166046 -80.317673
v 48.007126 22.743528 221.674271
v 101.270462 35.365654 214.125946
v 94.668152 66.980911 199.097549
v 176.437988 194.250244 11.167534
v 43.769325 107.603722 122.602150
v 114.320229 73.168404 194.605026
v 94.668152 66.980911 199.097549
v 114.320229 73.168404 194.605026
v 43.769325 107.603722 122.602150
v 101.270462 35.365654 214.125946
v 114.320229 73.168404 194.605026
v 94.668152 66.980911 199.097549
v -48.350914 2.616271 187.345276
v 82.152351 -31.224165 204.073105
v 51.243252 2.400377 213.371490
v 51.243252 2.400377 213.371490
v 82.152351 -31.224165 204.073105
v 48.007126 22.743528 221.674271
v 101.270462 35.365654 214.125946
v 121.964417 56.303471 197.922272
v 114.320229 73.168404 194.605026
v 47.216431 -205.888351 -81.540611
v 47.744572 -205.962555 -81.831161
v 145.871490 -237.011444 3.422953
v 47.744572 -205.962555 -81.831161
v 54.217430 -206.166046 -80.317673
v 145.871490 -237.011444 3.422953
v 99.845863 -213.993713 -47.904755
v 145.871490 -237.011444 3.422953
v 54.217430 -206.166046 -80.317673
v 143.207901 -101.610481 -163.323624
v 145.871490 -237.011444 3.422953
v 99.845863 -213.993713 -47.904755
v 143.207901 -101.610481 -163.323624
v 200.636002 -102.467278 -114.964088
v 145.871490 -237.011444 3.422953
v 176.437988 194.250244 11.167534
v 114.320229 73.168404 194.605026
v 139.247208 69.779060 183.976608
v 121.964417 56.303471 197.922272
v 139.247208 69.779060 183.976608
v 114.320229 73.168404 194.605026
v 139.315460 41.641960 -158.040024
v 205.900330 -79.745201 -116.284218
v 139.900818 -75.033203 -168.260529
v 139.900818 -75.033203 -168.260529
v 205.900330 -79.745201 -116.284218
v 143.207901 -101.610481 -163.323624
v 143.207901 -101.610481 -163.323624
v 205.900330 -79.745201 -116.284218
v 200.636002 -102.467278 -114.964088
v 200.636002 -102.467278 -114.964088
v 203.411316 -102.673447 -111.870430
v 145.871490 -237.011444 3.422953
v 205.900330 -79.745201 -116.284218
v 203.411316 -102.673447 -111.870430
v 200.636002 -102.467278 -114.964088
v 47.216431 -205.888351 -81.540611
v 111.044632 -217.311249 60.360722
v -8.004145 -94.129448 71.584229
v 47.216431 -205.888351 -81.540611
v 145.871490 -237.011444 3.422953
v 111.044632 -217.311249 60.360722
v -8.004145 -94.129448 71.584229
v 111.044632 -217.311249 60.360722
v -48.350914 2.616271 187.345276
v -48.350914 2.616271 187.345276
v 111.044632 -217.311249 60.360722
v 82.152351 -31.224165 204.073105
v 176.793076 194.101089 10.952516
v 200.598312 124.624397 -3.790315
v 151.528824 174.237106 -71.817322
v 112.974365 26.885880 211.825775
v 144.011749 31.618034 197.311646
v 101.270462 35.365654 214.125946
v 101.270462 35.365654 214.125946
v 144.011749 31.618034 197.311646
v 121.964417 56.303471 197.922272
v 121.964417 56.303471 197.922272
v 144.011749 31.618034 197.311646
v 139.247208 69.779060 183.976608
v 82.152351 -31.224165 204.073105
v 146.678802 -12.425088 209.531647
v 48.007126 22.743528 221.674271
v 48.007126 22.743528 221.674271
v 146.678802 -12.425088 209.531647
v 101.270462 35.365654 214.125946
v 112.974365 26.885880 211.825775
v 101.270462 35.365654 214.125946
v 146.678802 -12.425088 209.531647
v 112.974365 26.885880 211.825775
v 146.678802 -12.425088 209.531647
v 144.011749 31.618034 197.311646
v 139.315460 41.641960 -158.040024
v 227.853394 -81.302551 -91.456917
v 205.900330 -79.745201 -116.284218
v 205.900330 -79.745201 -116.284218
v 227.853394 -81.302551 -91.456917
v 203.411316 -102.673447 -111.870430
v 203.411316 -102.673447 -111.870430
v 227.853394 -81.302551 -91.456917
v 219.580643 -98.087227 -94.466972
v 176.793076 194.101089 10.952516
v 218.685394 105.982330 40.591873
v 200.598312 124.624397 -3.790315
v 203.411316 -102.673447 -111.870430
v 190.357971 -141.266220 -74.491562
v 145.871490 -237.011444 3.422953
v 145.871490 -237.011444 3.422953
v 190.357971 -141.266220 -74.491562
v 219.580643 -98.087227 -94.466972
v 203.411316 -102.673447 -111.870430
v 219.580643 -98.087227 -94.466972
v 190.357971 -141.266220 -74.491562
v 176.793076 194.101089 10.952516
v 235.386993 60.709560 118.016541
v 218.685394 105.982330 40.591873
v 176.793076 194.101089 10.952516
v 230.404205 56.123875 130.220596
v 235.386993 60.709560 118.016541
v 235.386993 60.709560 118.016541
v 230.404205 56.123875 130.220596
v 235.303513 58.813301 120.235489
v 176.437988 194.250244 11.167534
v 230.328156 56.111004 130.329346
v 176.793076 194.101089 10.952516
v 176.793076 194.101089 10.952516
v 230.328156 56.111004 130.329346
v 230.404205 56.123875 130.220596
v 176.437988 194.250244 11.167534
v 139.247208 69.779060 183.976608
v 230.328156 56.111004 130.329346
v 144.011749 31.618034 197.311646
v 230.328156 56.111004 130.329346
v 139.247208 69.779060 183.976608
v 146.678802 -12.425088 209.531647
v 230.328156 56.111004 130.329346
v 144.011749 31.618034 197.311646
v 151.528824 174.237106 -71.817322
v 237.888580 -35.255516 -65.333572
v 139.315460 41.641960 -158.040024
v 139.315460 41.641960 -158.040024
v 237.888580 -35.255516 -65.333572
v 227.853394 -81.302551 -91.456917
v 200.598312 124.624397 -3.790315
v 237.888580 -35.255516 -65.333572
v 151.528824 174.237106 -71.817322
v 218.685394 105.982330 40.591873
v 237.888580 -35.255516 -65.333572
v 200.598312 124.624397 -3.790315
v 235.386993 60.709560 118.016541
v 235.303513 58.813301 120.235489
v 236.475037 55.053886 117.867325
v 235.386993 60.709560 118.016541
v 236.475037 55.053886 117.867325
v 236.398346 54.940800 113.799324
v 237.888580 -35.255516 -65.333572
v 240.312119 -66.325493 -58.776524
v 227.853394 -81.302551 -91.456917
v 230.328156 56.111004 130.329346
v 235.306351 45.502441 126.098061
v 230.404205 56.123875 130.220596
v 146.678802 -12.425088 209.531647
v 235.306351 45.502441 126.098061
v 230.328156 56.111004 130.329346
v 230.404205 56.123875 130.220596
v 235.306351 45.502441 126.098061
v 235.303513 58.813301 120.235489
v 235.303513 58.813301 120.235489
v 235.306351 45.502441 126.098061
v 236.475037 55.053886 117.867325
v 145.871490 -237.011444 3.422953
v 152.703354 -195.200455 57.757221
v 111.044632 -217.311249 60.360722
v 235.386993 60.709560 118.016541
v 231.195435 69.805008 50.561600
v 218.685394 105.982330 40.591873
v 235.386993 60.709560 118.016541
v 236.398346 54.940800 113.799324
v 231.195435 69.805008 50.561600
v 218.685394 105.982330 40.591873
v 231.195435 69.805008 50.561600
v 237.888580 -35.255516 -65.333572
v 111.044632 -217.311249 60.360722
v 126.995064 -169.812744 102.661537
v 82.152351 -31.224165 204.073105
v 82.152351 -31.224165 204.073105
v 126.995064 -169.812744 102.661537
v 146.678802 -12.425088 209.531647
v 152.703354 -195.200455 57.757221
v 126.995064 -169.812744 102.661537
v 111.044632 -217.311249 60.360722
v 237.888580 -35.255516 -65.333572
v 246.750443 -61.417191 -30.823650
v 240.312119 -66.325493 -58.776524
v 231.195435 69.805008 50.561600
v 246.750443 -61.417191 -30.823650
v 237.888580 -35.255516 -65.333572
v 145.871490 -237.011444 3.422953
v 219.580643 -98.087227 -94.466972
v 218.298416 -138.562057 -25.195774
v 237.705582 -112.002487 -22.287092
v 218.298416 -138.562057 -25.195774
v 219.580643 -98.087227 -94.466972
v 235.306351 45.502441 126.098061
v 251.116104 -102.191566 1.508126
v 236.475037 55.053886 117.867325
v 227.853394 -81.302551 -91.456917
v 251.116104 -102.191566 1.508126
v 219.580643 -98.087227 -94.466972
v 237.705582 -112.002487 -22.287092
v 219.580643 -98.087227 -94.466972
v 251.116104 -102.191566 1.508126
v 240.312119 -66.325493 -58.776524
v 251.116104 -102.191566 1.508126
v 227.853394 -81.302551 -91.456917
v 246.750443 -61.417191 -30.823650
v 251.116104 -102.191566 1.508126
v 240.312119 -66.325493 -58.776524
v 146.678802 -12.425088 209.531647
v 215.592194 17.395414 144.347061
v 235.306351 45.502441 126.098061
v 126.995064 -169.812744 102.661537
v 171.193314 -49.179707 175.723175
v 146.678802 -12.425088 209.531647
v 146.678802 -12.425088 209.531647
v 171.193314 -49.179707 175.723175
v 215.592194 17.395414 144.347061
v 145.871490 -237.011444 3.422953
v 218.298416 -138.562057 -25.195774
v 226.819855 -138.043793 3.806288
v 237.705582 -112.002487 -22.287092
v 226.819855 -138.043793 3.806288
v 218.298416 -138.562057 -25.195774
v 237.705582 -112.002487 -22.287092
v 251.116104 -102.191566 1.508126
v 226.819855 -138.043793 3.806288
v 235.306351 45.502441 126.098061
v 237.280777 11.700202 108.303429
v 251.116104 -102.191566 1.508126
v 236.475037 55.053886 117.867325
v 238.836502 29.510639 67.839569
v 236.398346 54.940800 113.799324
v 236.398346 54.940800 113.799324
v 238.836502 29.510639 67.839569
v 231.195435 69.805008 50.561600
v 231.195435 69.805008 50.561600
v 238.836502 29.510639 67.839569
v 246.750443 -61.417191 -30.823650
v 251.116104 -102.191566 1.508126
v 238.836502 29.510639 67.839569
v 236.475037 55.053886 117.867325
v 246.750443 -61.417191 -30.823650
v 238.836502 29.510639 67.839569
v 251.116104 -102.191566 1.508126
v 145.871490 -237.011444 3.422953
v 214.454254 -149.799622 35.309750
v 152.703354 -195.200455 57.757221
v 145.871490 -237.011444 3.422953
v 226.819855 -138.043793 3.806288
v 214.454254 -149.799622 35.309750
v 251.116104 -102.191566 1.508126
v 214.454254 -149.799622 35.309750
v 226.819855 -138.043793 3.806288
v 215.592194 17.395414 144.347061
v 216.710266 -8.646895 132.374817
v 235.306351 45.502441 126.098061
v 235.306351 45.502441 126.098061
v 216.710266 -8.646895 132.374817
v 237.280777 11.700202 108.303429
v 171.193314 -49.179707 175.723175
v 216.710266 -8.646895 132.374817
v 215.592194 17.395414 144.347061
v 237.280777 11.700202 108.303429
v 244.966217 -85.852798 30.244080
v 251.116104 -102.191566 1.508126
v 237.280777 11.700202 108.303429
v 236.147903 -94.068413 48.742603
v 244.966217 -85.852798 30.244080
v 251.116104 -102.191566 1.508126
v 236.147903 -94.068413 48.742603
v 214.454254 -149.799622 35.309750
v 244.966217 -85.852798 30.244080
v 236.147903 -94.068413 48.742603
v 251.116104 -102.191566 1.508126
v 236.147903 -94.068413 48.742603
v 217.023407 -129.092545 52.582024
v 214.454254 -149.799622 35.309750
v 152.703354 -195.200455 57.757221
v 180.657394 -119.215553 116.366882
v 126.995064 -169.812744 102.661537
v 126.995064 -169.812744 102.661537
v 180.657394 -119.215553 116.366882
v 171.193314 -49.179707 175.723175
v 214.454254 -149.799622 35.309750
v 180.657394 -119.215553 116.366882
v 152.703354 -195.200455 57.757221
v 217.023407 -129.092545 52.582024
v 180.657394 -119.215553 116.366882
v 214.454254 -149.799622 35.309750
v 180.657394 -119.215553 116.366882
v 194.415222 -90.383530 123.497505
v 171.193314 -49.179707 175.723175
v 216.710266 -8.646895 132.374817
v 214.699509 -88.604935 96.660332
v 237.280777 11.700202 108.303429
v 237.280777 11.700202 108.303429
v 214.699509 -88.604935 96.660332
v 236.147903 -94.068413 48.742603
v 171.193314 -49.179707 175.723175
v 214.699509 -88.604935 96.660332
v 216.710266 -8.646895 132.374817
v 194.415222 -90.383530 123.497505
v 214.699509 -88.604935 96.660332
v 171.193314 -49.179707 175.723175
v 236.147903 -94.068413 48.742603
v 214.699509 -88.604935 96.660332
v 217.023407 -129.092545 52.582024
v 217.023407 -129.092545 52.582024
v 214.699509 -88.604935 96.660332
v 180.657394 -119.215553 116.366882
v 180.657394 -119.215553 116.366882
v 214.699509 -88.604935 96.660332
v 194.415222 -90.383530 123.497505
vn -0.924173 0.196084 -0.327805
vn -0.488375 -0.355479 -0.796947
vn -0.966036 -0.169798 -0.194791
vn -0.958110 -0.216468 -0.187528
vn -0.232644 -0.399003 0.886946
vn -0.082147 0.548612 -0.832032
vn 0.216189 0.932367 -0.289748
vn 0.234948 0.085991 -0.968197
vn -0.362866 -0.304418 -0.880714
vn -0.163649 -0.199817 -0.966070
vn -0.349506 -0.356815 -0.866330
vn 0.144691 -0.687842 -0.711293
vn -0.891519 0.325887 -0.314629
vn -0.715287 0.559452 -0.418781
vn -0.760706 0.648356 -0.031002
vn -0.548929 0.835861 -0.003600
vn -0.549294 0.834834 -0.036455
vn -0.365088 0.698943 0.614971
vn -0.365230 0.699360 0.614413
vn 0.302664 -0.737197 -0.604099
vn 0.024953 0.433429 0.900842
vn -0.116749 0.846594 0.519277
vn -0.139861 0.832942 0.535394
vn 0.066344 0.439638 0.895721
vn -0.226974 -0.447804 0.864844
vn -0.156750 -0.394477 0.905437
vn 0.350713 0.331257 0.875939
vn -0.202813 -0.971778 -0.120477
vn 0.066905 -0.910290 -0.408528
vn 0.299963 -0.740707 -0.601145
vn 0.304281 -0.737103 -0.603400
vn 0.463817 -0.684106 -0.562914
vn 0.352162 0.721861 0.595733
vn 0.407260 0.350484 0.843386
vn 0.620263 0.071537 -0.781125
vn 0.614128 -0.069611 -0.786130
vn 0.630755 -0.189849 -0.752400
vn 0.528576 -0.671784 -0.518954
vn 0.721616 -0.205593 -0.661061
vn -0.684134 -0.684199 0.252651
vn -0.371224 -0.923914 0.092605
vn -0.663633 -0.671419 0.329830
vn -0.255185 -0.615500 0.745682
vn 0.860363 0.369326 -0.351247
vn 0.372786 0.274051 0.886525
vn 0.371463 0.310118 0.875124
vn 0.410812 0.346044 0.843497
vn 0.008381 -0.305261 0.952232
vn 0.133008 0.031145 0.990625
vn 0.364155 0.260029 0.894302
vn 0.374055 0.268911 0.887564
vn 0.741905 0.185296 -0.644393
vn 0.726796 -0.205089 -0.655520
vn 0.741060 -0.253770 -0.621635
vn 0.907661 0.357615 -0.219688
vn 0.583007 -0.658339 -0.476123
vn 0.662347 -0.633382 -0.400154
vn 0.642737 -0.633962 -0.430095
vn 0.891758 0.447200 0.069128
vn 0.589268 0.647112 0.483745
vn 0.692030 0.535714 0.483844
vn 0.573990 0.651660 0.495858
vn 0.585909 0.648139 0.486443
vn 0.445922 0.678018 0.584332
vn 0.514683 0.339391 0.787347
vn 0.546801 0.254429 0.797668
vn 0.767035 0.298621 -0.567876
vn 0.748629 0.196139 -0.633312
vn 0.862463 0.344047 -0.371198
vn 0.919103 0.308649 -0.244919
vn 0.964905 0.180600 0.190637
vn 0.981599 0.189468 -0.023772
vn 0.934718 -0.002090 -0.355384
vn 0.802541 0.145868 0.578490
vn 0.676833 0.024158 0.735740
vn 0.854287 0.209670 0.475639
vn 0.952978 0.122318 0.277258
vn 0.426186 -0.742047 0.517428
vn 0.946270 0.323017 -0.015245
vn 0.979826 0.196881 -0.034338
vn 0.942548 0.272786 -0.192850
vn -0.184006 -0.618529 0.763914
vn 0.096108 -0.567357 0.817845
vn 0.399713 -0.680827 0.613762
vn 0.973045 0.027580 -0.228962
vn 0.976552 0.184529 -0.110881
vn 0.703697 -0.619055 -0.348685
vn 0.785283 -0.540795 -0.301448
vn 0.991053 -0.006378 0.133319
vn 0.875087 -0.376854 -0.303652
vn 0.848299 -0.438066 -0.297468
vn 0.943720 -0.181008 -0.276820
vn 0.974870 -0.064665 -0.213185
vn 0.690459 -0.014720 0.723222
vn 0.239875 -0.565712 0.788942
vn 0.713266 -0.153357 0.683910
vn 0.756967 -0.618325 -0.211364
vn 0.798343 -0.558757 -0.224586
vn 0.800574 -0.556738 -0.221641
vn 0.988205 -0.022055 0.151542
vn 0.990520 0.135525 -0.022441
vn 0.984745 0.169034 -0.041288
vn 0.985149 0.158187 -0.066764
vn 0.995656 0.093104 -0.000539
vn 0.995117 0.098129 -0.010615
vn 0.631632 -0.650769 0.421356
vn 0.772170 -0.631840 0.067312
vn 0.825526 -0.551870 0.118096
vn 0.810832 -0.215375 0.544211
vn 0.826269 -0.223844 0.516888
vn 0.772459 -0.237588 0.588947
vn 0.942735 -0.159936 0.292695
vn 0.915778 -0.204499 0.345732
vn 0.846268 -0.411092 0.338873
vn 0.913645 -0.236994 0.330283
vn 0.831330 -0.413191 0.371703
vn 0.448274 -0.643494 0.620457
vn 0.355078 -0.576027 0.736283
vn 0.624958 -0.607798 0.489908
vn 0.719418 -0.495372 0.486873
vn 0.623433 -0.454780 0.636008
vn 0.829554 -0.245003 0.501810
vn 0.874075 -0.245439 0.419228
vn 0.779488 -0.271710 0.564422
vn 0.774334 -0.281748 0.566591
vn 0.817996 -0.401501 0.411921
vn 0.722682 -0.489630 0.487845
vn 0.718957 -0.469760 0.512275
f 1//1 2//1 3//1
f 4//2 5//2 6//2
f 7//3 8//3 9//3
f 10//4 11//4 12//4
f 13//5 14//5 15//5
f 16//6 17//6 18//6
f 19//7 20//7 21//7
f 22//8 23//8 24//8
f 25//9 26//9 27//9
f 28//10 29//10 30//10
f 31//11 32//11 33//11
f 34//12 35//12 36//12
f 37//13 38//13 39//13
f 40//14 41//14 42//14
f 43//15 44//15 45//15
f 46//16 47//16 48//16
f 49//17 50//17 51//17
f 52//18 53//18 54//18
f 55//19 56//19 57//19
f 58//20 59//20 60//20
f 61//21 62//21 63//21
f 64//22 65//22 66//22
f 67//23 68//23 69//23
f 70//24 71//24 72//24
f 73//25 74//25 75//25
f 76//26 77//26 78//26
f 79//27 80//27 81//27
f 82//28 83//28 84//28
f 85//29 86//29 87//29
f 88//30 89//30 90//30
f 91//31 92//31 93//31
f 94//32 95//32 96//32
f 97//33 98//33 99//33
f 100//34 101//34 102//34
f 103//35 104//35 105//35
f 106//36 107//36 108//36
f 109//37 110//37 111//37
f 112//38 113//38 114//38
f 115//39 116//39 117//39
f 118//40 119//40 120//40
f 121//41 122//41 123//41
f 124//42 125//42 126//42
f 127//43 128//43 129//43
f 130//44 131//44 132//44
f 133//45 134//45 135//45
f 136//46 137//46 138//46
f 139//47 140//47 141//47
f 142//48 143//48 144//48
f 145//49 146//49 147//49
f 148//50 149//50 150//50
f 151//51 152//51 153//51
f 154//52 155//52 156//52
f 157//53 158//53 159//53
f 160//54 161//54 162//54
f 163//55 164//55 165//55
f 166//56 167//56 168//56
f 169//57 170//57 171//57
f 172//58 173//58 174//58
f 175//59 176//59 177//59
f 178//60 179//60 180//60
f 181//61 182//61 183//61
f 184//62 185//62 186//62
f 187//63 188//63 189//63
f 190//64 191//64 192//64
f 193//65 194//65 195//65
f 196//66 197//66 198//66
f 199//67 200//67 201//67
f 202//68 203//68 204//68
f 205//69 206//69 207//69
f 208//70 209//70 210//70
f 211//71 212//71 213//71
f 214//72 215//72 216//72
f 217//73 218//73 219//73
f 220//74 221//74 222//74
f 223//75 224//75 225//75
f 226//76 227//76 228//76
f 229//77 230//77 231//77
f 232//78 233//78 234//78
f 235//79 236//79 237//79
f 238//80 239//80 240//80
f 241//81 242//81 243//81
f 244//82 245//82 246//82
f 247//83 248//83 249//83
f 250//84 251//84 252//84
f 253//85 254//85 255//85
f 256//86 257//86 258//86
f 259//87 260//87 261//87
f 262//88 263//88 264//88
f 265//89 266//89 267//89
f 268//90 269//90 270//90
f 271//91 272//91 273//91
f 274//92 275//92 276//92
f 277//93 278//93 279//93
f 280//94 281//94 282//94
f 283//95 284//95 285//95
f 286//96 287//96 288//96
f 289//97 290//97 291//97
f 292//98 293//98 294//98
f 295//99 296//99 297//99
f 298//100 299//100 300//100
f 301//101 302//101 303//101
f 304//102 305//102 306//102
f 307//103 308//103 309//103
f 310//104 311//104 312//104
f 313//105 314//105 315//105
f 316//106 317//106 318//106
f 319//107 320//107 321//107
f 322//108 323//108 324//108
f 325//109 326//109 327//109
f 328//110 329//110 330//110
f 331//111 332//111 333//111
f 334//112 335//112 336//112
f 337//113 338//113 339//113
f 340//114 341//114 342//114
f 343//115 344//115 345//115
f 346//116 347//116 348//116
f 349//117 350//117 351//117
f 352//118 353//118 354//118
f 355//119 356//119 357//119
f 358//120 359//120 360//120
f 361//121 362//121 363//121
f 364//122 365//122 366//122
f 367//123 368//123 369//123
f 370//124 371//124 372//124
f 373//125 374//125 375//125
f 376//126 377//126 378//126
f 379//127 380//127 381//127
f 382//128 383//128 384//128
