o
v 14.726615 -33.083946 -28.151733
v 28.809250 -1.054620 42.552296
v 4.738895 -21.411570 -16.882376
v 4.738895 -21.411570 -16.882376
v 28.809250 -1.054620 42.552296
v 0.447192 33.827885 0.017137
v 14.726615 -33.083946 -28.151733
v 4.738895 -21.411570 -16.882376
v 10.113683 -5.233746 -37.853027
v 4.738895 -21.411570 -16.882376
v 0.447192 33.827885 0.017137
v 10.113683 -5.233746 -37.853027
v 14.726615 -33.083946 -28.151733
v 43.062176 -2.437658 25.279711
v 28.809250 -1.054620 42.552296
v 0.447192 33.827885 0.017137
v 11.071574 20.033953 -33.409801
v 10.113683 -5.233746 -37.853027
v 0.447192 33.827885 0.017137
v 11.108922 36.819283 -26.612154
v 11.071574 20.033953 -33.409801
v 28.809250 -1.054620 42.552296
v 22.849119 37.491989 15.211992
v 0.447192 33.827885 0.017137
v 43.062176 -2.437658 25.279711
v 46.677616 12.830244 19.519482
v 28.809250 -1.054620 42.552296
v 43.062176 -2.437658 25.279711
v 46.688976 12.842685 19.466698
v 46.677616 12.830244 19.519482
v 0.447192 33.827885 0.017137
v 19.657082 41.084290 -12.589108
v 11.108922 36.819283 -26.612154
v 22.849119 37.491989 15.211992
v 19.657082 41.084290 -12.589108
v 0.447192 33.827885 0.017137
v 11.108922 36.819283 -26.612154
v 20.094160 28.884182 -30.492313
v 11.071574 20.033953 -33.409801
v 28.809250 -1.054620 42.552296
v 38.751831 27.479265 16.415634
v 22.849119 37.491989 15.211992
v 46.677616 12.830244 19.519482
v 38.751831 27.479265 16.415634
v 28.809250 -1.054620 42.552296
v 46.688976 12.842685 19.466698
v 38.751831 27.479265 16.415634
v 46.677616 12.830244 19.519482
v 14.726615 -33.083946 -28.151733
v 36.425827 -12.020181 -2.819437
v 43.062176 -2.437658 25.279711
v 30.253778 -19.076799 -22.821276
v 36.425827 -12.020181 -2.819437
v 14.726615 -33.083946 -28.151733
v 36.425827 -12.020181 -2.819437
v 46.761936 2.692778 -20.253878
v 43.062176 -2.437658 25.279711
v 30.253778 -19.076799 -22.821276
v 46.761936 2.692778 -20.253878
v 36.425827 -12.020181 -2.819437
v 47.568329 5.734151 -21.367702
v 47.890968 11.634572 -22.821030
v 47.746323 6.487126 -21.261833
v 47.890968 11.634572 -22.821030
v 47.970215 11.737820 -22.221670
v 47.746323 6.487126 -21.261833
v 47.568329 5.734151 -21.367702
v 46.761936 2.692778 -20.253878
v 45.332600 3.145780 -22.750694
v 47.568329 5.734151 -21.367702
v 45.332600 3.145780 -22.750694
v 47.890968 11.634572 -22.821030
v 30.253778 -19.076799 -22.821276
v 14.726615 -33.083946 -28.151733
v 45.332600 3.145780 -22.750694
v 30.253778 -19.076799 -22.821276
v 45.332600 3.145780 -22.750694
v 46.761936 2.692778 -20.253878
v 43.062176 -2.437658 25.279711
v 47.609306 5.642291 -11.681597
v 46.688976 12.842685 19.466698
v 47.568329 5.734151 -21.367702
v 47.746323 6.487126 -21.261833
v 47.609306 5.642291 -11.681597
v 47.568329 5.734151 -21.367702
v 47.609306 5.642291 -11.681597
v 46.761936 2.692778 -20.253878
v 47.970215 11.737820 -22.221670
v 47.609306 5.642291 -11.681597
v 47.746323 6.487126 -21.261833
v 47.970215 11.737820 -22.221670
v 46.688976 12.842685 19.466698
v 47.609306 5.642291 -11.681597
v 46.761936 2.692778 -20.253878
v 47.536758 5.458856 -11.554968
v 43.062176 -2.437658 25.279711
v 43.062176 -2.437658 25.279711
v 47.536758 5.458856 -11.554968
v 47.609306 5.642291 -11.681597
v 47.609306 5.642291 -11.681597
v 47.536758 5.458856 -11.554968
v 46.761936 2.692778 -20.253878
v 22.849119 37.491989 15.211992
v 32.515602 34.755920 3.993524
v 19.657082 41.084290 -12.589108
v 38.751831 27.479265 16.415634
v 32.515602 34.755920 3.993524
v 22.849119 37.491989 15.211992
v 45.332600 3.145780 -22.750694
v 45.051811 11.491608 -24.881050
v 47.890968 11.634572 -22.821030
v 46.688976 12.842685 19.466698
v 42.865448 27.833345 -0.873255
v 38.751831 27.479265 16.415634
v 38.751831 27.479265 16.415634
v 42.865448 27.833345 -0.873255
v 32.515602 34.755920 3.993524
v 11.071574 20.033953 -33.409801
v 31.127571 20.179583 -33.976604
v 10.113683 -5.233746 -37.853027
v 20.094160 28.884182 -30.492313
v 31.127571 20.179583 -33.976604
v 11.071574 20.033953 -33.409801
v 45.051811 11.491608 -24.881050
v 31.127571 20.179583 -33.976604
v 47.890968 11.634572 -22.821030
v 47.970215 11.737820 -22.221670
v 45.714092 20.506203 -10.001559
v 46.688976 12.842685 19.466698
v 46.688976 12.842685 19.466698
v 45.714092 20.506203 -10.001559
v 42.865448 27.833345 -0.873255
v 47.890968 11.634572 -22.821030
v 45.714092 20.506203 -10.001559
v 47.970215 11.737820 -22.221670
v 45.714092 20.506203 -10.001559
v 42.542980 27.473257 -5.748633
v 42.865448 27.833345 -0.873255
v 47.890968 11.634572 -22.821030
v 42.542980 27.473257 -5.748633
v 45.714092 20.506203 -10.001559
v 32.515602 34.755920 3.993524
v 33.971676 35.140610 -10.790555
v 19.657082 41.084290 -12.589108
v 29.697657 36.229752 -13.276587
v 19.657082 41.084290 -12.589108
v 33.971676 35.140610 -10.790555
v 42.865448 27.833345 -0.873255
v 33.971676 35.140610 -10.790555
v 32.515602 34.755920 3.993524
v 11.108922 36.819283 -26.612154
v 30.594969 32.234024 -20.462267
v 20.094160 28.884182 -30.492313
v 20.094160 28.884182 -30.492313
v 30.594969 32.234024 -20.462267
v 31.127571 20.179583 -33.976604
v 19.657082 41.084290 -12.589108
v 31.126499 32.580692 -19.604286
v 11.108922 36.819283 -26.612154
v 11.108922 36.819283 -26.612154
v 31.126499 32.580692 -19.604286
v 30.594969 32.234024 -20.462267
v 29.697657 36.229752 -13.276587
v 31.126499 32.580692 -19.604286
v 19.657082 41.084290 -12.589108
v 30.594969 32.234024 -20.462267
v 31.126499 32.580692 -19.604286
v 31.127571 20.179583 -33.976604
v 29.697657 36.229752 -13.276587
v 33.971676 35.140610 -10.790555
v 31.126499 32.580692 -19.604286
v 14.726615 -33.083946 -28.151733
v 10.113683 -5.233746 -37.853027
v 35.874924 11.754315 -31.071541
v 14.726615 -33.083946 -28.151733
v 35.874924 11.754315 -31.071541
v 45.332600 3.145780 -22.750694
v 31.127571 20.179583 -33.976604
v 35.874924 11.754315 -31.071541
v 10.113683 -5.233746 -37.853027
v 45.332600 3.145780 -22.750694
v 35.874924 11.754315 -31.071541
v 45.051811 11.491608 -24.881050
v 45.051811 11.491608 -24.881050
v 35.874924 11.754315 -31.071541
v 31.127571 20.179583 -33.976604
v 42.542980 27.473257 -5.748633
v 37.901737 31.324409 -14.206219
v 42.865448 27.833345 -0.873255
v 42.865448 27.833345 -0.873255
v 37.901737 31.324409 -14.206219
v 33.971676 35.140610 -10.790555
v 47.890968 11.634572 -22.821030
v 37.901737 31.324409 -14.206219
v 42.542980 27.473257 -5.748633
v 31.127571 20.179583 -33.976604
v 37.901737 31.324409 -14.206219
v 47.890968 11.634572 -22.821030
v 31.126499 32.580692 -19.604286
v 37.901737 31.324409 -14.206219
v 31.127571 20.179583 -33.976604
v 33.971676 35.140610 -10.790555
v 37.901737 31.324409 -14.206219
v 31.126499 32.580692 -19.604286
vn -0.424206 -0.790132 0.442426
vn -0.882799 -0.198796 0.425613
vn -0.845950 -0.294888 -0.444309
vn -0.968794 0.000563 -0.247868
vn 0.322131 -0.884810 0.336663
vn -0.936782 0.094746 -0.336843
vn -0.924031 0.145272 -0.353641
vn -0.555108 0.422398 0.716544
vn 0.772293 0.055864 0.632805
vn 0.971386 -0.165902 0.169960
vn -0.380777 0.923382 -0.048726
vn -0.259747 0.953475 0.153026
vn -0.068468 0.374613 -0.924650
vn 0.309189 0.581527 0.752482
vn 0.554706 0.448598 0.700757
vn 0.813404 0.502263 0.293439
vn 0.615678 -0.778780 0.120175
vn 0.656586 -0.751651 0.062576
vn 0.819366 -0.573268 0.001984
vn 0.798280 -0.601315 -0.034186
vn 0.894578 -0.152397 -0.420125
vn 0.990706 -0.064169 -0.119936
vn 0.766845 -0.390005 -0.509750
vn 0.678793 -0.210405 -0.703541
vn 0.602614 -0.406714 -0.686615
vn 0.717832 -0.485490 -0.499016
vn 0.976265 -0.202901 0.075749
vn 0.973358 -0.229205 -0.006292
vn 0.965985 -0.258517 -0.006538
vn 0.999116 -0.040646 0.010705
vn 0.999507 -0.005797 0.030872
vn 0.929371 -0.367569 0.034099
vn 0.938381 -0.343231 0.040411
vn 0.936041 -0.350762 0.028161
vn 0.355797 0.931178 0.079470
vn 0.505470 0.830813 0.232916
vn 0.583422 -0.182390 -0.791425
vn 0.840400 0.499548 0.210191
vn 0.599385 0.784574 0.158683
vn -0.029082 0.174185 -0.984283
vn -0.029035 0.339522 -0.940150
vn 0.582193 0.086748 -0.808409
vn 0.975803 0.217307 0.024231
vn 0.949964 0.308522 0.048807
vn 0.847697 0.492572 -0.196933
vn 0.883814 0.458637 -0.092332
vn 0.835196 0.508303 -0.209943
vn 0.376200 0.924521 0.061108
vn 0.397647 0.865561 -0.304434
vn 0.579396 0.811288 0.078174
vn 0.358903 0.705325 -0.611314
vn 0.361063 0.702946 -0.612780
vn 0.334012 0.825632 -0.454717
vn 0.348949 0.773700 -0.528793
vn 0.377278 0.836575 -0.397244
vn 0.489035 0.660425 -0.569810
vn 0.428463 0.821227 -0.376836
vn 0.393890 -0.243497 -0.886318
vn 0.477999 -0.279673 -0.832647
vn 0.333785 -0.133668 -0.933124
vn 0.545293 -0.190053 -0.816416
vn 0.559568 0.029713 -0.828252
vn 0.735309 0.670585 -0.098163
vn 0.670205 0.740081 -0.055729
vn 0.827986 0.516050 -0.219389
vn 0.637915 0.556527 -0.532298
vn 0.551341 0.631669 -0.544993
vn 0.452592 0.806530 -0.380356
f 1//1 2//1 3//1
f 4//2 5//2 6//2
f 7//3 8//3 9//3
f 10//4 11//4 12//4
f 13//5 14//5 15//5
f 16//6 17//6 18//6
f 19//7 20//7 21//7
f 22//8 23//8 24//8
f 25//9 26//9 27//9
f 28//10 29//10 30//10
f 31//11 32//11 33//11
f 34//12 35//12 36//12
f 37//13 38//13 39//13
f 40//14 41//14 42//14
f 43//15 44//15 45//15
f 46//16 47//16 48//16
f 49//17 50//17 51//17
f 52//18 53//18 54//18
f 55//19 56//19 57//19
f 58//20 59//20 60//20
f 61//21 62//21 63//21
f 64//22 65//22 66//22
f 67//23 68//23 69//23
f 70//24 71//24 72//24
f 73//25 74//25 75//25
f 76//26 77//26 78//26
f 79//27 80//27 81//27
f 82//28 83//28 84//28
f 85//29 86//29 87//29
f 88//30 89//30 90//30
f 91//31 92//31 93//31
f 94//32 95//32 96//32
f 97//33 98//33 99//33
f 100//34 101//34 102//34
f 103//35 104//35 105//35
f 106//36 107//36 108//36
f 109//37 110//37 111//37
f 112//38 113//38 114//38
f 115//39 116//39 117//39
f 118//40 119//40 120//40
f 121//41 122//41 123//41
f 124//42 125//42 126//42
f 127//43 128//43 129//43
f 130//44 131//44 132//44
f 133//45 134//45 135//45
f 136//46 137//46 138//46
f 139//47 140//47 141//47
f 142//48 143//48 144//48
f 145//49 146//49 147//49
f 148//50 149//50 150//50
f 151//51 152//51 153//51
f 154//52 155//52 156//52
f 157//53 158//53 159//53
f 160//54 161//54 162//54
f 163//55 164//55 165//55
f 166//56 167//56 168//56
f 169//57 170//57 171//57
f 172//58 173//58 174//58
f 175//59 176//59 177//59
f 178//60 179//60 180//60
f 181//61 182//61 183//61
f 184//62 185//62 186//62
f 187//63 188//63 189//63
f 190//64 191//64 192//64
f 193//65 194//65 195//65
f 196//66 197//66 198//66
f 199//67 200//67 201//67
f 202//68 203//68 204//68
