o
v 26.487616 29.360197 66.443054
v 52.825859 113.088287 15.080529
v 26.466442 29.359560 66.412209
v 26.466442 29.359560 66.412209
v 52.825859 113.088287 15.080529
v 81.156433 6.841644 -175.244019
v 26.466442 29.359560 66.412209
v 81.156433 6.841644 -175.244019
v 78.508766 -74.641891 -116.649818
v 26.466442 29.359560 66.412209
v 78.508766 -74.641891 -116.649818
v 83.674095 -165.099930 -62.578819
v 81.156433 6.841644 -175.244019
v 83.747093 -165.293030 -62.781342
v 78.508766 -74.641891 -116.649818
v 83.674095 -165.099930 -62.578819
v 78.508766 -74.641891 -116.649818
v 83.747093 -165.293030 -62.781342
v 83.674095 -165.099930 -62.578819
v 83.747093 -165.293030 -62.781342
v 111.044632 -217.311249 60.360722
v 26.487616 29.360197 66.443054
v 26.466442 29.359560 66.412209
v 111.044632 -217.311249 60.360722
v 26.466442 29.359560 66.412209
v 83.674095 -165.099930 -62.578819
v 111.044632 -217.311249 60.360722
v 52.825859 113.088287 15.080529
v 151.528824 174.237091 -71.817322
v 81.156433 6.841644 -175.244019
v 81.156433 6.841644 -175.244019
v 139.584137 -152.660324 -101.952278
v 83.747093 -165.293030 -62.781342
v 83.747093 -165.293030 -62.781342
v 139.584137 -152.660324 -101.952278
v 111.044632 -217.311249 60.360722
v 139.584137 -152.660324 -101.952278
v 139.589508 -152.663620 -101.944717
v 111.044632 -217.311249 60.360722
v 26.487616 29.360197 66.443054
v 111.044632 -217.311249 60.360722
v 145.327774 -11.779231 209.578232
v 26.487616 29.360197 66.443054
v 145.327774 -11.779231 209.578232
v 52.825859 113.088287 15.080529
v 111.044632 -217.311249 60.360722
v 146.678802 -12.425088 209.531647
v 145.327774 -11.779231 209.578232
v 111.044632 -217.311249 60.360722
v 152.683640 -195.201279 57.768600
v 146.678802 -12.425088 209.531647
v 139.589508 -152.663620 -101.944717
v 152.703354 -195.200470 57.757221
v 111.044632 -217.311249 60.360722
v 111.044632 -217.311249 60.360722
v 152.703354 -195.200470 57.757221
v 152.683640 -195.201279 57.768600
v 152.683640 -195.201279 57.768600
v 152.703354 -195.200470 57.757221
v 146.678802 -12.425088 209.531647
v 81.156433 6.841644 -175.244019
v 200.636002 -102.467278 -114.964081
v 139.584137 -152.660324 -101.952278
v 139.584137 -152.660324 -101.952278
v 200.636002 -102.467278 -114.964081
v 139.589508 -152.663620 -101.944717
v 200.636002 -102.467278 -114.964081
v 203.411316 -102.673454 -111.870430
v 139.589508 -152.663620 -101.944717
v 81.156433 6.841644 -175.244019
v 198.650421 -87.039703 -119.711296
v 200.636002 -102.467278 -114.964081
v 151.528824 174.237091 -71.817322
v 205.900330 -79.745201 -116.284218
v 81.156433 6.841644 -175.244019
v 81.156433 6.841644 -175.244019
v 205.900330 -79.745201 -116.284218
v 198.650421 -87.039703 -119.711296
v 200.636002 -102.467278 -114.964081
v 205.900330 -79.745201 -116.284218
v 203.411316 -102.673454 -111.870430
v 198.650421 -87.039703 -119.711296
v 205.900330 -79.745201 -116.284218
v 200.636002 -102.467278 -114.964081
v 205.900330 -79.745201 -116.284218
v 235.231506 -71.791824 -65.489510
v 203.411316 -102.673454 -111.870430
v 203.411316 -102.673454 -111.870430
v 235.231506 -71.791824 -65.489510
v 231.713348 -80.024780 -68.227234
v 151.528824 174.237091 -71.817322
v 235.231506 -71.791824 -65.489510
v 205.900330 -79.745201 -116.284218
v 203.411316 -102.673454 -111.870430
v 231.713348 -80.024780 -68.227234
v 229.238754 -105.505836 -48.855053
v 146.678802 -12.425088 209.531647
v 196.982590 35.617622 157.874329
v 145.327774 -11.779231 209.578232
v 139.589508 -152.663620 -101.944717
v 221.632019 -118.661263 -38.077343
v 152.703354 -195.200470 57.757221
v 203.411316 -102.673454 -111.870430
v 221.632019 -118.661263 -38.077343
v 139.589508 -152.663620 -101.944717
v 203.411316 -102.673454 -111.870430
v 229.238754 -105.505836 -48.855053
v 221.632019 -118.661263 -38.077343
v 235.231506 -71.791824 -65.489510
v 241.079788 -86.810959 -33.292332
v 231.713348 -80.024780 -68.227234
v 231.713348 -80.024780 -68.227234
v 241.079788 -86.810959 -33.292332
v 229.238754 -105.505836 -48.855053
v 221.632019 -118.661263 -38.077343
v 241.079788 -86.810959 -33.292332
v 152.703354 -195.200470 57.757221
v 229.238754 -105.505836 -48.855053
v 241.079788 -86.810959 -33.292332
v 221.632019 -118.661263 -38.077343
v 145.327774 -11.779231 209.578232
v 187.256638 45.114548 151.382706
v 52.825859 113.088287 15.080529
v 196.982590 35.617622 157.874329
v 187.256638 45.114548 151.382706
v 145.327774 -11.779231 209.578232
v 52.825859 113.088287 15.080529
v 187.256638 45.114548 151.382706
v 151.528824 174.237091 -71.817322
v 209.212265 46.197418 144.813782
v 187.256638 45.114548 151.382706
v 196.982590 35.617622 157.874329
v 241.049881 47.604073 104.816734
v 221.529770 67.314072 115.003700
v 209.212265 46.197418 144.813782
v 187.256638 45.114548 151.382706
v 221.529770 67.314072 115.003700
v 151.528824 174.237091 -71.817322
v 209.212265 46.197418 144.813782
v 221.529770 67.314072 115.003700
v 187.256638 45.114548 151.382706
v 235.231506 -71.791824 -65.489510
v 246.750458 -61.417191 -30.823650
v 241.079788 -86.810959 -33.292332
v 146.678802 -12.425088 209.531647
v 215.592194 17.395416 144.347061
v 196.982590 35.617622 157.874329
v 209.212265 46.197418 144.813782
v 196.982590 35.617622 157.874329
v 215.592194 17.395416 144.347061
v 241.049881 47.604073 104.816734
v 209.212265 46.197418 144.813782
v 215.592194 17.395416 144.347061
v 241.049881 47.604073 104.816734
v 215.592194 17.395416 144.347061
v 227.309296 25.912020 125.979546
v 241.049881 47.604073 104.816734
v 231.611694 74.261406 35.363228
v 221.529770 67.314072 115.003700
v 221.529770 67.314072 115.003700
v 231.611694 74.261406 35.363228
v 151.528824 174.237091 -71.817322
v 151.528824 174.237091 -71.817322
v 231.611694 74.261406 35.363228
v 235.231506 -71.791824 -65.489510
v 235.231506 -71.791824 -65.489510
v 231.611694 74.261406 35.363228
v 246.750458 -61.417191 -30.823650
v 246.750458 -61.417191 -30.823650
v 231.611694 74.261406 35.363228
v 241.049881 47.604073 104.816734
v 246.750458 -61.417191 -30.823650
v 237.280762 11.700202 108.303421
v 241.079788 -86.810959 -33.292332
v 246.750458 -61.417191 -30.823650
v 241.049881 47.604073 104.816734
v 237.280762 11.700202 108.303421
v 215.592194 17.395416 144.347061
v 237.280762 11.700202 108.303421
v 227.309296 25.912020 125.979546
v 241.049881 47.604073 104.816734
v 227.309296 25.912020 125.979546
v 237.280762 11.700202 108.303421
v 152.703354 -195.200470 57.757221
v 191.228180 -62.770733 132.191666
v 146.678802 -12.425088 209.531647
v 152.703354 -195.200470 57.757221
v 199.984146 -57.117577 129.140427
v 191.228180 -62.770733 132.191666
v 146.678802 -12.425088 209.531647
v 199.984146 -57.117577 129.140427
v 215.592194 17.395416 144.347061
v 191.228180 -62.770733 132.191666
v 199.984146 -57.117577 129.140427
v 146.678802 -12.425088 209.531647
v 215.592194 17.395416 144.347061
v 199.984146 -57.117577 129.140427
v 237.280762 11.700202 108.303421
v 241.079788 -86.810959 -33.292332
v 221.830353 -48.775742 79.829086
v 152.703354 -195.200470 57.757221
v 152.703354 -195.200470 57.757221
v 221.830353 -48.775742 79.829086
v 199.984146 -57.117577 129.140427
v 237.280762 11.700202 108.303421
v 221.830353 -48.775742 79.829086
v 241.079788 -86.810959 -33.292332
v 199.984146 -57.117577 129.140427
v 221.830353 -48.775742 79.829086
v 237.280762 11.700202 108.303421
vn -0.710929 0.516457 0.477339
vn -0.959489 0.159811 -0.232036
vn -0.970783 -0.118501 -0.208659
vn -0.969427 -0.164298 -0.182255
vn -0.753678 -0.367394 -0.544969
vn -0.967582 -0.167982 -0.188593
vn -0.920245 -0.389340 0.039529
vn -0.787871 -0.283556 0.546677
vn -0.942951 -0.325081 0.071874
vn -0.715287 0.559452 -0.418781
vn -0.418066 -0.501263 -0.757599
vn -0.056061 -0.924128 -0.377947
vn -0.039297 -0.925905 -0.375707
vn -0.776608 -0.280129 0.564277
vn -0.554711 0.554849 0.620030
vn -0.233051 -0.545569 0.805010
vn 0.358078 -0.589466 0.724093
vn 0.439131 -0.858534 -0.264731
vn 0.393161 -0.666121 0.633804
vn 0.428535 -0.568811 0.702005
vn 0.116160 -0.379260 -0.917970
vn 0.428379 -0.676380 -0.599167
vn 0.490034 -0.722467 -0.487759
vn 0.236779 -0.257771 -0.936744
vn 0.553046 0.257140 -0.792476
vn 0.427338 0.000032 -0.904092
vn 0.721615 -0.205593 -0.661062
vn 0.560408 -0.176846 -0.809116
vn 0.863391 -0.184151 -0.469727
vn 0.866648 -0.221716 -0.446950
vn 0.816597 0.264625 -0.512975
vn 0.856544 -0.362468 -0.367355
vn 0.287795 0.545232 0.787335
vn 0.534542 -0.804724 -0.258233
vn 0.557422 -0.772200 -0.304939
vn 0.689202 -0.654015 -0.311872
vn 0.909211 -0.288812 -0.299872
vn 0.898736 -0.317339 -0.302605
vn 0.829172 -0.532050 0.171452
vn 0.855031 -0.517791 -0.028556
vn -0.216491 0.771500 0.598264
vn 0.143098 0.654197 0.742664
vn -0.082765 0.856823 0.508925
vn 0.180883 0.674507 0.715766
vn 0.709027 0.403169 0.578564
vn -0.024856 0.863595 0.503573
vn 0.144424 0.778327 0.611022
vn 0.947684 -0.186438 -0.259105
vn 0.655673 0.115728 0.746123
vn 0.666004 0.135640 0.733512
vn 0.769502 0.160435 0.618165
vn 0.846522 -0.017123 0.532078
vn 0.740270 0.655164 0.150865
vn 0.687638 0.710593 0.149038
vn 0.876345 0.288219 -0.385940
vn 0.881805 0.282582 -0.377581
vn 0.986004 0.147721 -0.077292
vn 0.954810 -0.231357 0.186577
vn 0.988933 -0.092556 0.115954
vn 0.852299 -0.049621 0.520695
vn 0.856223 -0.039866 0.515066
vn 0.542604 -0.525966 0.654936
vn 0.561362 -0.523543 0.640918
vn 0.720863 -0.280353 0.633844
vn 0.557828 -0.511021 0.653977
vn 0.803688 -0.275938 0.527204
vn 0.846682 -0.443936 0.293343
vn 0.844690 -0.443868 0.299132
vn 0.893878 -0.356410 0.271945
vn 0.869766 -0.373857 0.322085
f 1//1 2//1 3//1
f 4//2 5//2 6//2
f 7//3 8//3 9//3
f 10//4 11//4 12//4
f 13//5 14//5 15//5
f 16//6 17//6 18//6
f 19//7 20//7 21//7
f 22//8 23//8 24//8
f 25//9 26//9 27//9
f 28//10 29//10 30//10
f 31//11 32//11 33//11
f 34//12 35//12 36//12
f 37//13 38//13 39//13
f 40//14 41//14 42//14
f 43//15 44//15 45//15
f 46//16 47//16 48//16
f 49//17 50//17 51//17
f 52//18 53//18 54//18
f 55//19 56//19 57//19
f 58//20 59//20 60//20
f 61//21 62//21 63//21
f 64//22 65//22 66//22
f 67//23 68//23 69//23
f 70//24 71//24 72//24
f 73//25 74//25 75//25
f 76//26 77//26 78//26
f 79//27 80//27 81//27
f 82//28 83//28 84//28
f 85//29 86//29 87//29
f 88//30 89//30 90//30
f 91//31 92//31 93//31
f 94//32 95//32 96//32
f 97//33 98//33 99//33
f 100//34 101//34 102//34
f 103//35 104//35 105//35
f 106//36 107//36 108//36
f 109//37 110//37 111//37
f 112//38 113//38 114//38
f 115//39 116//39 117//39
f 118//40 119//40 120//40
f 121//41 122//41 123//41
f 124//42 125//42 126//42
f 127//43 128//43 129//43
f 130//44 131//44 132//44
f 133//45 134//45 135//45
f 136//46 137//46 138//46
f 139//47 140//47 141//47
f 142//48 143//48 144//48
f 145//49 146//49 147//49
f 148//50 149//50 150//50
f 151//51 152//51 153//51
f 154//52 155//52 156//52
f 157//53 158//53 159//53
f 160//54 161//54 162//54
f 163//55 164//55 165//55
f 166//56 167//56 168//56
f 169//57 170//57 171//57
f 172//58 173//58 174//58
f 175//59 176//59 177//59
f 178//60 179//60 180//60
f 181//61 182//61 183//61
f 184//62 185//62 186//62
f 187//63 188//63 189//63
f 190//64 191//64 192//64
f 193//65 194//65 195//65
f 196//66 197//66 198//66
f 199//67 200//67 201//67
f 202//68 203//68 204//68
f 205//69 206//69 207//69
f 208//70 209//70 210//70
