o
v 35.236565 -7.899059 -23.976276
v 36.106773 -8.438324 -23.400837
v 5.603304 -28.474312 -30.803619
v 35.291515 -7.885826 -23.765110
v 36.106773 -8.438324 -23.400837
v 35.236565 -7.899059 -23.976276
v 36.106773 -8.438324 -23.400837
v 36.265366 -8.518663 -23.146448
v 5.603304 -28.474312 -30.803619
v 35.291515 -7.885826 -23.765110
v 36.265366 -8.518663 -23.146448
v 36.106773 -8.438324 -23.400837
v 35.291515 -7.885826 -23.765110
v 35.236565 -7.899059 -23.976276
v 0.318525 2.002301 -13.965052
v 35.236565 -7.899059 -23.976276
v 9.573709 -4.350260 -19.453159
v 0.318525 2.002301 -13.965052
v -15.335081 2.548822 40.965759
v -19.432531 3.085629 31.348919
v -19.573513 2.967205 31.441597
v 0.318525 2.002301 -13.965052
v -19.432531 3.085629 31.348919
v -7.786396 2.238759 33.642235
v -15.335081 2.548822 40.965759
v -7.786396 2.238759 33.642235
v -19.432531 3.085629 31.348919
v 35.236565 -7.899059 -23.976276
v 5.603304 -28.474312 -30.803619
v -18.904202 -15.726937 -25.113537
v 35.236565 -7.899059 -23.976276
v -18.904202 -15.726937 -25.113537
v 9.573709 -4.350260 -19.453159
v 9.573709 -4.350260 -19.453159
v -18.904202 -15.726937 -25.113537
v 0.318525 2.002301 -13.965052
v 35.291515 -7.885826 -23.765110
v 11.425597 -1.187826 31.864346
v 36.265366 -8.518663 -23.146448
v 35.291515 -7.885826 -23.765110
v 0.318525 2.002301 -13.965052
v 11.425597 -1.187826 31.864346
v 0.318525 2.002301 -13.965052
v -7.786396 2.238759 33.642235
v 11.425597 -1.187826 31.864346
v -15.335081 2.548822 40.965759
v 11.425597 -1.187826 31.864346
v -7.786396 2.238759 33.642235
v -15.335081 2.548822 40.965759
v -19.573513 2.967205 31.441597
v -40.636909 -4.718280 14.092845
v -19.432531 3.085629 31.348919
v -40.636909 -4.718280 14.092845
v -19.573513 2.967205 31.441597
v 0.318525 2.002301 -13.965052
v -40.636909 -4.718280 14.092845
v -19.432531 3.085629 31.348919
v -18.904202 -15.726937 -25.113537
v -40.636909 -4.718280 14.092845
v 0.318525 2.002301 -13.965052
v 5.603304 -28.474312 -30.803619
v -26.847738 -20.261131 -18.501356
v -18.904202 -15.726937 -25.113537
v -18.904202 -15.726937 -25.113537
v -26.847738 -20.261131 -18.501356
v -40.636909 -4.718280 14.092845
v 36.265366 -8.518663 -23.146448
v 2.163664 -44.154652 -10.672221
v 5.603304 -28.474312 -30.803619
v -15.335081 2.548822 40.965759
v 6.899656 -12.317522 37.940395
v 11.425597 -1.187826 31.864346
v 11.425597 -1.187826 31.864346
v 12.676669 -10.234626 30.052320
v 36.265366 -8.518663 -23.146448
v 2.163664 -44.154652 -10.672221
v -8.301579 -40.244057 -14.947289
v 5.603304 -28.474312 -30.803619
v 0.950321 -50.239605 0.308726
v 3.914725 -47.611977 -2.526454
v 2.162259 -49.995228 1.076448
v 0.950321 -50.239605 0.308726
v 2.163664 -44.154652 -10.672221
v 3.914725 -47.611977 -2.526454
v 36.265366 -8.518663 -23.146448
v 3.914725 -47.611977 -2.526454
v 2.163664 -44.154652 -10.672221
v 36.265366 -8.518663 -23.146448
v 4.138995 -49.614033 3.228099
v 3.914725 -47.611977 -2.526454
v 3.914725 -47.611977 -2.526454
v 4.138995 -49.614033 3.228099
v 2.162259 -49.995228 1.076448
v 0.950321 -50.239605 0.308726
v 2.162259 -49.995228 1.076448
v -0.272571 -51.580643 10.444532
v 4.138995 -49.614033 3.228099
v -0.272571 -51.580643 10.444532
v 2.162259 -49.995228 1.076448
v 0.950321 -50.239605 0.308726
v -6.979896 -48.760178 -2.621303
v 2.163664 -44.154652 -10.672221
v 5.603304 -28.474312 -30.803619
v -12.660597 -39.543236 -14.181746
v -26.847738 -20.261131 -18.501356
v -8.301579 -40.244057 -14.947289
v -12.660597 -39.543236 -14.181746
v 5.603304 -28.474312 -30.803619
v 2.163664 -44.154652 -10.672221
v -16.912264 -47.659210 -3.149079
v -8.301579 -40.244057 -14.947289
v -6.979896 -48.760178 -2.621303
v -16.912264 -47.659210 -3.149079
v 2.163664 -44.154652 -10.672221
v -12.660597 -39.543236 -14.181746
v -16.912264 -47.659210 -3.149079
v -26.847738 -20.261131 -18.501356
v -8.301579 -40.244057 -14.947289
v -16.912264 -47.659210 -3.149079
v -12.660597 -39.543236 -14.181746
v -15.335081 2.548822 40.965759
v -40.636909 -4.718280 14.092845
v -31.695484 -17.384136 34.944786
v 0.950321 -50.239605 0.308726
v -0.272571 -51.580643 10.444532
v -12.749943 -48.920273 -0.748529
v 0.950321 -50.239605 0.308726
v -12.749943 -48.920273 -0.748529
v -6.979896 -48.760178 -2.621303
v -6.979896 -48.760178 -2.621303
v -12.749943 -48.920273 -0.748529
v -16.912264 -47.659210 -3.149079
v 6.899656 -12.317522 37.940395
v 9.171895 -13.991682 35.085308
v 11.425597 -1.187826 31.864346
v 4.138995 -49.614033 3.228099
v 7.457648 -47.564220 6.214811
v -0.272571 -51.580643 10.444532
v 36.265366 -8.518663 -23.146448
v 7.457648 -47.564220 6.214811
v 4.138995 -49.614033 3.228099
v -15.335081 2.548822 40.965759
v -20.505421 -22.379526 40.029766
v 6.899656 -12.317522 37.940395
v -15.335081 2.548822 40.965759
v -31.695484 -17.384136 34.944786
v -20.505421 -22.379526 40.029766
v -20.505421 -22.379526 40.029766
v 6.972608 -19.451139 36.273483
v 6.899656 -12.317522 37.940395
v -16.912264 -47.659210 -3.149079
v -25.371389 -42.430130 0.860257
v -26.847738 -20.261131 -18.501356
v 11.425597 -1.187826 31.864346
v 10.887395 -20.132769 32.626472
v 12.676669 -10.234626 30.052320
v 9.171895 -13.991682 35.085308
v 10.887395 -20.132769 32.626472
v 11.425597 -1.187826 31.864346
v 12.676669 -10.234626 30.052320
v 10.887395 -20.132769 32.626472
v 36.265366 -8.518663 -23.146448
v 6.899656 -12.317522 37.940395
v 10.887395 -20.132769 32.626472
v 9.171895 -13.991682 35.085308
v 36.265366 -8.518663 -23.146448
v 9.704457 -22.167847 33.863647
v 7.457648 -47.564220 6.214811
v 10.887395 -20.132769 32.626472
v 9.704457 -22.167847 33.863647
v 36.265366 -8.518663 -23.146448
v 6.972608 -19.451139 36.273483
v 9.704457 -22.167847 33.863647
v 6.899656 -12.317522 37.940395
v 6.899656 -12.317522 37.940395
v 9.704457 -22.167847 33.863647
v 10.887395 -20.132769 32.626472
v 7.457648 -47.564220 6.214811
v 9.704457 -22.167847 33.863647
v -0.272571 -51.580643 10.444532
v -26.847738 -20.261131 -18.501356
v -30.755278 -37.241863 4.723746
v -40.636909 -4.718280 14.092845
v -25.371389 -42.430130 0.860257
v -30.755278 -37.241863 4.723746
v -26.847738 -20.261131 -18.501356
v -40.636909 -4.718280 14.092845
v -30.755278 -37.241863 4.723746
v -31.695484 -17.384136 34.944786
v -12.749943 -48.920273 -0.748529
v -22.176884 -43.872875 10.730705
v -16.912264 -47.659210 -3.149079
v -0.272571 -51.580643 10.444532
v -22.176884 -43.872875 10.730705
v -12.749943 -48.920273 -0.748529
v -0.272571 -51.580643 10.444532
v -4.411058 -49.525631 12.605523
v -22.176884 -43.872875 10.730705
v -16.912264 -47.659210 -3.149079
v -22.176884 -43.872875 10.730705
v -25.371389 -42.430130 0.860257
v -25.371389 -42.430130 0.860257
v -24.844086 -41.775814 9.189501
v -30.755278 -37.241863 4.723746
v -22.176884 -43.872875 10.730705
v -24.844086 -41.775814 9.189501
v -25.371389 -42.430130 0.860257
v -4.411058 -49.525631 12.605523
v -24.038530 -41.926243 13.009151
v -22.176884 -43.872875 10.730705
v -30.755278 -37.241863 4.723746
v -24.038530 -41.926243 13.009151
v -31.695484 -17.384136 34.944786
v -24.844086 -41.775814 9.189501
v -24.038530 -41.926243 13.009151
v -30.755278 -37.241863 4.723746
v -22.176884 -43.872875 10.730705
v -24.038530 -41.926243 13.009151
v -24.844086 -41.775814 9.189501
v -20.505421 -22.379526 40.029766
v -2.405317 -34.941631 31.077007
v 6.972608 -19.451139 36.273483
v 6.972608 -19.451139 36.273483
v -2.405317 -34.941631 31.077007
v 9.704457 -22.167847 33.863647
v -0.272571 -51.580643 10.444532
v -2.405317 -34.941631 31.077007
v -4.411058 -49.525631 12.605523
v -20.505421 -22.379526 40.029766
v -16.885952 -29.478991 33.868671
v -2.405317 -34.941631 31.077007
v 9.704457 -22.167847 33.863647
v -2.405317 -34.941631 31.077007
v -0.272571 -51.580643 10.444532
v -31.695484 -17.384136 34.944786
v -19.175751 -31.853107 31.026995
v -20.505421 -22.379526 40.029766
v -24.038530 -41.926243 13.009151
v -19.175751 -31.853107 31.026995
v -31.695484 -17.384136 34.944786
v -20.505421 -22.379526 40.029766
v -19.175751 -31.853107 31.026995
v -16.885952 -29.478991 33.868671
v -4.411058 -49.525631 12.605523
v -13.176534 -37.379448 26.919949
v -24.038530 -41.926243 13.009151
v -24.038530 -41.926243 13.009151
v -13.176534 -37.379448 26.919949
v -19.175751 -31.853107 31.026995
v -2.405317 -34.941631 31.077007
v -13.176534 -37.379448 26.919949
v -4.411058 -49.525631 12.605523
v -16.885952 -29.478991 33.868671
v -13.176534 -37.379448 26.919949
v -2.405317 -34.941631 31.077007
v -19.175751 -31.853107 31.026995
v -13.176534 -37.379448 26.919949
v -16.885952 -29.478991 33.868671
vn 0.399097 -0.285689 -0.871265
vn 0.610516 0.764533 -0.206783
vn 0.549098 -0.635351 -0.542974
vn 0.592638 0.796805 -0.117824
vn 0.238131 0.963496 -0.122347
vn -0.056516 0.604276 -0.794768
vn -0.512677 0.816973 0.264040
vn 0.071122 0.997442 0.007154
vn 0.067201 0.997373 0.027040
vn -0.031817 0.355759 -0.934036
vn -0.065332 0.570777 -0.818502
vn -0.074548 0.587513 -0.805773
vn 0.492832 0.863462 0.107469
vn 0.272324 0.962205 0.000978
vn 0.177805 0.983738 0.025384
vn 0.187149 0.970530 0.151813
vn -0.515752 0.814625 0.265305
vn -0.513885 0.816855 0.262050
vn -0.247055 0.960155 -0.130639
vn -0.442143 0.769343 -0.461109
vn -0.413506 -0.438900 -0.797734
vn -0.707257 0.473471 -0.524988
vn 0.563863 -0.695487 -0.445373
vn 0.345000 0.337785 0.875715
vn 0.912706 0.044868 0.406147
vn -0.040714 -0.784885 -0.618303
vn 0.399490 -0.841966 -0.362631
vn 0.334552 -0.839469 -0.428215
vn 0.577171 -0.699708 -0.421050
vn 0.668282 -0.694134 -0.267540
vn 0.488306 -0.818134 -0.303666
vn 0.255130 -0.962078 -0.096508
vn 0.280866 -0.955637 -0.088729
vn 0.015293 -0.875297 -0.483345
vn -0.414555 -0.478434 -0.774109
vn -0.231570 -0.672904 -0.702550
vn -0.073792 -0.819210 -0.568727
vn -0.063247 -0.833621 -0.548704
vn -0.559037 -0.550266 -0.620230
vn -0.230000 -0.739506 -0.632639
vn -0.715170 0.417717 0.560397
vn -0.084142 -0.986475 -0.140669
vn -0.069080 -0.953206 -0.294323
vn -0.085444 -0.935362 -0.343215
vn 0.787058 0.016591 0.616656
vn 0.485531 -0.872218 0.059120
vn 0.668737 -0.693993 -0.266765
vn 0.096828 -0.057392 0.993645
vn -0.395548 0.047601 0.917211
vn 0.155342 -0.223272 0.962299
vn -0.609585 -0.544098 -0.576510
vn 0.821902 -0.000434 0.569629
vn 0.819823 -0.000255 0.572617
vn 0.913220 -0.060280 0.402984
vn 0.770400 -0.039572 0.636332
vn 0.861389 -0.407028 0.303870
vn 0.888095 -0.309777 0.339596
vn 0.539142 -0.186406 0.821328
vn 0.761897 -0.050308 0.645741
vn 0.599859 -0.612945 0.514264
vn -0.933122 -0.196829 -0.300903
vn -0.764891 -0.451877 -0.459074
vn -0.922334 -0.335466 0.191734
vn -0.350755 -0.928707 0.120305
vn -0.326897 -0.934278 0.142347
vn -0.317573 -0.912118 0.259206
vn -0.511562 -0.858310 0.040106
vn -0.652142 -0.751431 0.100315
vn -0.650138 -0.753163 0.100324
vn -0.313191 -0.833114 0.455887
vn -0.778097 -0.535796 0.327855
vn -0.655436 -0.747373 0.108796
vn -0.652284 -0.750238 0.108019
vn 0.165960 -0.402476 0.900262
vn 0.288160 -0.456782 0.841614
vn -0.062219 -0.780039 0.622629
vn -0.119777 -0.684841 0.718781
vn 0.534803 -0.629876 0.563243
vn -0.536819 -0.619566 0.572681
vn -0.576262 -0.637199 0.511761
vn -0.157322 -0.691800 0.704743
vn -0.303352 -0.810132 0.501661
vn -0.351546 -0.773525 0.527328
vn -0.063808 -0.779876 0.622673
vn -0.121036 -0.687011 0.716496
vn -0.155883 -0.692614 0.704263
f 1//1 2//1 3//1
f 4//2 5//2 6//2
f 7//3 8//3 9//3
f 10//4 11//4 12//4
f 13//5 14//5 15//5
f 16//6 17//6 18//6
f 19//7 20//7 21//7
f 22//8 23//8 24//8
f 25//9 26//9 27//9
f 28//10 29//10 30//10
f 31//11 32//11 33//11
f 34//12 35//12 36//12
f 37//13 38//13 39//13
f 40//14 41//14 42//14
f 43//15 44//15 45//15
f 46//16 47//16 48//16
f 49//17 50//17 51//17
f 52//18 53//18 54//18
f 55//19 56//19 57//19
f 58//20 59//20 60//20
f 61//21 62//21 63//21
f 64//22 65//22 66//22
f 67//23 68//23 69//23
f 70//24 71//24 72//24
f 73//25 74//25 75//25
f 76//26 77//26 78//26
f 79//27 80//27 81//27
f 82//28 83//28 84//28
f 85//29 86//29 87//29
f 88//30 89//30 90//30
f 91//31 92//31 93//31
f 94//32 95//32 96//32
f 97//33 98//33 99//33
f 100//34 101//34 102//34
f 103//35 104//35 105//35
f 106//36 107//36 108//36
f 109//37 110//37 111//37
f 112//38 113//38 114//38
f 115//39 116//39 117//39
f 118//40 119//40 120//40
f 121//41 122//41 123//41
f 124//42 125//42 126//42
f 127//43 128//43 129//43
f 130//44 131//44 132//44
f 133//45 134//45 135//45
f 136//46 137//46 138//46
f 139//47 140//47 141//47
f 142//48 143//48 144//48
f 145//49 146//49 147//49
f 148//50 149//50 150//50
f 151//51 152//51 153//51
f 154//52 155//52 156//52
f 157//53 158//53 159//53
f 160//54 161//54 162//54
f 163//55 164//55 165//55
f 166//56 167//56 168//56
f 169//57 170//57 171//57
f 172//58 173//58 174//58
f 175//59 176//59 177//59
f 178//60 179//60 180//60
f 181//61 182//61 183//61
f 184//62 185//62 186//62
f 187//63 188//63 189//63
f 190//64 191//64 192//64
f 193//65 194//65 195//65
f 196//66 197//66 198//66
f 199//67 200//67 201//67
f 202//68 203//68 204//68
f 205//69 206//69 207//69
f 208//70 209//70 210//70
f 211//71 212//71 213//71
f 214//72 215//72 216//72
f 217//73 218//73 219//73
f 220//74 221//74 222//74
f 223//75 224//75 225//75
f 226//76 227//76 228//76
f 229//77 230//77 231//77
f 232//78 233//78 234//78
f 235//79 236//79 237//79
f 238//80 239//80 240//80
f 241//81 242//81 243//81
f 244//82 245//82 246//82
f 247//83 248//83 249//83
f 250//84 251//84 252//84
f 253//85 254//85 255//85
f 256//86 257//86 258//86
