o
v -11.987975 43.878223 -16.852615
v -38.326393 20.235685 -25.251230
v -7.856960 31.722471 -10.859395
v -38.326393 20.235685 -25.251230
v 26.379721 10.400691 9.214640
v -7.856960 31.722471 -10.859395
v -11.987975 43.878223 -16.852615
v -7.856960 31.722471 -10.859395
v 26.379721 10.400691 9.214640
v -11.987975 43.878223 -16.852615
v 2.539372 14.422221 -45.076057
v -38.326393 20.235685 -25.251230
v 2.539372 14.422221 -45.076057
v 9.837376 10.208799 -50.221241
v -38.326393 20.235685 -25.251230
v -11.987975 43.878223 -16.852615
v 9.837376 10.208799 -50.221241
v 2.539372 14.422221 -45.076057
v 9.837376 10.208799 -50.221241
v 8.400517 6.628182 -48.981144
v -38.326393 20.235685 -25.251230
v 9.837376 10.208799 -50.221241
v 10.901143 6.470719 -49.351398
v 8.400517 6.628182 -48.981144
v 26.379721 10.400691 9.214640
v 36.083214 -11.475847 -17.210583
v 36.142010 -9.363873 -16.856466
v 26.379721 10.400691 9.214640
v 29.842047 -23.551388 -22.945747
v 36.083214 -11.475847 -17.210583
v 29.842047 -23.551388 -22.945747
v 30.312115 -23.131666 -23.218679
v 36.083214 -11.475847 -17.210583
v 30.312115 -23.131666 -23.218679
v 30.665648 -23.919930 -25.212364
v 36.083214 -11.475847 -17.210583
v 29.842047 -23.551388 -22.945747
v 30.665648 -23.919930 -25.212364
v 30.312115 -23.131666 -23.218679
v 29.745234 -24.773335 -25.608206
v 29.963863 -26.218622 -29.517006
v 30.032999 -26.291218 -29.695606
v 29.745234 -24.773335 -25.608206
v 31.086861 -24.728786 -27.489702
v 29.842047 -23.551388 -22.945747
v 29.842047 -23.551388 -22.945747
v 31.086861 -24.728786 -27.489702
v 30.665648 -23.919930 -25.212364
v 30.665648 -23.919930 -25.212364
v 31.086861 -24.728786 -27.489702
v 36.083214 -11.475847 -17.210583
v 29.745234 -24.773335 -25.608206
v 30.032999 -26.291218 -29.695606
v 31.086861 -24.728786 -27.489702
v 31.086861 -24.728786 -27.489702
v 32.769825 -21.217134 -25.815586
v 36.083214 -11.475847 -17.210583
v 8.400517 6.628182 -48.981144
v 10.287077 0.044261 -44.023033
v -38.326393 20.235685 -25.251230
v 32.769825 -21.217134 -25.815586
v 32.898380 -20.936577 -25.709978
v 36.083214 -11.475847 -17.210583
v 29.745234 -24.773335 -25.608206
v 29.842047 -23.551388 -22.945747
v 27.129850 -25.174950 -28.657482
v 29.745234 -24.773335 -25.608206
v 27.129850 -25.174950 -28.657482
v 29.963863 -26.218622 -29.517006
v 29.963863 -26.218622 -29.517006
v 27.129850 -25.174950 -28.657482
v 30.032999 -26.291218 -29.695606
v 28.435226 -24.874624 -32.217010
v 30.880989 -24.066545 -32.785130
v 30.032999 -26.291218 -29.695606
v 32.898380 -20.936577 -25.709978
v 32.898396 -21.797539 -29.205107
v 36.083214 -11.475847 -17.210583
v 30.032999 -26.291218 -29.695606
v 32.898396 -21.797539 -29.205107
v 31.086861 -24.728786 -27.489702
v 31.086861 -24.728786 -27.489702
v 32.898396 -21.797539 -29.205107
v 32.769825 -21.217134 -25.815586
v 32.769825 -21.217134 -25.815586
v 32.898396 -21.797539 -29.205107
v 32.898380 -20.936577 -25.709978
v 30.880989 -24.066545 -32.785130
v 31.003946 -23.913055 -32.857944
v 30.032999 -26.291218 -29.695606
v 30.032999 -26.291218 -29.695606
v 31.003946 -23.913055 -32.857944
v 32.898396 -21.797539 -29.205107
v -38.326393 20.235685 -25.251230
v 17.416910 -18.679537 -24.329124
v 26.379721 10.400691 9.214640
v 26.379721 10.400691 9.214640
v 17.416910 -18.679537 -24.329124
v 29.842047 -23.551388 -22.945747
v 29.842047 -23.551388 -22.945747
v 17.416910 -18.679537 -24.329124
v 27.129850 -25.174950 -28.657482
v 31.003946 -23.913055 -32.857944
v 31.473309 -23.039610 -33.092724
v 32.898396 -21.797539 -29.205107
v 32.898396 -21.797539 -29.205107
v 31.473309 -23.039610 -33.092724
v 32.439007 -22.107349 -30.647245
v 10.287077 0.044261 -44.023033
v 23.530596 -24.138166 -30.106089
v -38.326393 20.235685 -25.251230
v 27.129850 -25.174950 -28.657482
v 23.530596 -24.138166 -30.106089
v 30.032999 -26.291218 -29.695606
v 28.435226 -24.874624 -32.217010
v 30.032999 -26.291218 -29.695606
v 23.530596 -24.138166 -30.106089
v 8.400517 6.628182 -48.981144
v 23.530596 -24.138166 -30.106089
v 10.287077 0.044261 -44.023033
v 17.416910 -18.679537 -24.329124
v 23.530596 -24.138166 -30.106089
v 27.129850 -25.174950 -28.657482
v -38.326393 20.235685 -25.251230
v 17.422352 -18.834490 -24.978531
v 17.416910 -18.679537 -24.329124
v 23.530596 -24.138166 -30.106089
v 17.422352 -18.834490 -24.978531
v -38.326393 20.235685 -25.251230
v 17.416910 -18.679537 -24.329124
v 17.422352 -18.834490 -24.978531
v 23.530596 -24.138166 -30.106089
v 28.435226 -24.874624 -32.217010
v 28.156143 -23.760199 -32.945282
v 30.880989 -24.066545 -32.785130
v -11.987975 43.878223 -16.852615
v 26.379721 10.400691 9.214640
v 27.339439 7.051087 -33.721592
v -11.987975 43.878223 -16.852615
v 27.339439 7.051087 -33.721592
v 9.837376 10.208799 -50.221241
v 26.379721 10.400691 9.214640
v 36.142010 -9.363873 -16.856466
v 27.339439 7.051087 -33.721592
v 36.142010 -9.363873 -16.856466
v 34.924095 -7.953254 -24.591261
v 27.339439 7.051087 -33.721592
v 28.435226 -24.874624 -32.217010
v 23.530596 -24.138166 -30.106089
v 17.591608 -3.206236 -45.541065
v 8.400517 6.628182 -48.981144
v 17.591608 -3.206236 -45.541065
v 23.530596 -24.138166 -30.106089
v 10.901143 6.470719 -49.351398
v 17.591608 -3.206236 -45.541065
v 8.400517 6.628182 -48.981144
v 28.435226 -24.874624 -32.217010
v 17.591608 -3.206236 -45.541065
v 28.156143 -23.760199 -32.945282
v 28.156143 -23.760199 -32.945282
v 17.591608 -3.206236 -45.541065
v 30.880989 -24.066545 -32.785130
v 9.837376 10.208799 -50.221241
v 20.483232 -2.794631 -45.560375
v 10.901143 6.470719 -49.351398
v 9.837376 10.208799 -50.221241
v 20.270353 -0.653276 -45.857574
v 20.483232 -2.794631 -45.560375
v 20.633888 -0.790373 -45.626858
v 20.483232 -2.794631 -45.560375
v 20.270353 -0.653276 -45.857574
v 27.339439 7.051087 -33.721592
v 25.782822 5.038514 -39.119507
v 9.837376 10.208799 -50.221241
v 31.003946 -23.913055 -32.857944
v 20.060402 -3.334542 -45.474262
v 31.473309 -23.039610 -33.092724
v 31.473309 -23.039610 -33.092724
v 20.060402 -3.334542 -45.474262
v 20.483232 -2.794631 -45.560375
v 30.880989 -24.066545 -32.785130
v 20.060402 -3.334542 -45.474262
v 31.003946 -23.913055 -32.857944
v 17.591608 -3.206236 -45.541065
v 20.060402 -3.334542 -45.474262
v 30.880989 -24.066545 -32.785130
v 10.901143 6.470719 -49.351398
v 20.060402 -3.334542 -45.474262
v 17.591608 -3.206236 -45.541065
v 20.483232 -2.794631 -45.560375
v 20.060402 -3.334542 -45.474262
v 10.901143 6.470719 -49.351398
v 9.837376 10.208799 -50.221241
v 26.292807 1.059078 -42.180389
v 20.270353 -0.653276 -45.857574
v 20.633888 -0.790373 -45.626858
v 20.270353 -0.653276 -45.857574
v 26.292807 1.059078 -42.180389
v 27.339439 7.051087 -33.721592
v 26.292807 1.059078 -42.180389
v 25.782822 5.038514 -39.119507
v 25.782822 5.038514 -39.119507
v 26.292807 1.059078 -42.180389
v 9.837376 10.208799 -50.221241
v 20.633888 -0.790373 -45.626858
v 26.292807 1.059078 -42.180389
v 20.483232 -2.794631 -45.560375
v 32.898396 -21.797539 -29.205107
v 34.775764 -10.121848 -31.422331
v 36.083214 -11.475847 -17.210583
v 32.898396 -21.797539 -29.205107
v 32.439007 -22.107349 -30.647245
v 34.775764 -10.121848 -31.422331
v 36.083214 -11.475847 -17.210583
v 34.782719 -9.850485 -31.414080
v 36.142010 -9.363873 -16.856466
v 34.775764 -10.121848 -31.422331
v 34.782719 -9.850485 -31.414080
v 36.083214 -11.475847 -17.210583
v 36.142010 -9.363873 -16.856466
v 34.726696 -9.525996 -31.489714
v 34.924095 -7.953254 -24.591261
v 34.782719 -9.850485 -31.414080
v 34.726696 -9.525996 -31.489714
v 36.142010 -9.363873 -16.856466
v 34.924095 -7.953254 -24.591261
v 34.726696 -9.525996 -31.489714
v 27.339439 7.051087 -33.721592
v 27.339439 7.051087 -33.721592
v 34.726696 -9.525996 -31.489714
v 26.292807 1.059078 -42.180389
v 31.473309 -23.039610 -33.092724
v 33.621265 -10.927697 -34.697407
v 32.439007 -22.107349 -30.647245
v 32.439007 -22.107349 -30.647245
v 33.621265 -10.927697 -34.697407
v 34.775764 -10.121848 -31.422331
v 34.775764 -10.121848 -31.422331
v 33.621265 -10.927697 -34.697407
v 34.782719 -9.850485 -31.414080
v 34.782719 -9.850485 -31.414080
v 33.621265 -10.927697 -34.697407
v 34.726696 -9.525996 -31.489714
v 34.726696 -9.525996 -31.489714
v 33.621265 -10.927697 -34.697407
v 26.292807 1.059078 -42.180389
v 31.473309 -23.039610 -33.092724
v 20.483232 -2.794631 -45.560375
v 30.982986 -10.739988 -37.217110
v 31.473309 -23.039610 -33.092724
v 30.982986 -10.739988 -37.217110
v 33.621265 -10.927697 -34.697407
v 26.292807 1.059078 -42.180389
v 30.982986 -10.739988 -37.217110
v 20.483232 -2.794631 -45.560375
v 33.621265 -10.927697 -34.697407
v 30.982986 -10.739988 -37.217110
v 26.292807 1.059078 -42.180389
vn -0.488372 0.246718 0.837032
vn -0.455741 0.100838 0.884382
vn -0.315052 0.331405 0.889333
vn -0.284514 0.586375 -0.758430
vn -0.346016 0.423205 -0.837359
vn -0.159399 0.640877 -0.750912
vn -0.475574 -0.111370 -0.872597
vn -0.157564 -0.266128 -0.950973
vn 0.906798 -0.094144 0.410920
vn 0.499101 -0.568546 0.653952
vn 0.728867 -0.562255 0.390670
vn 0.753297 -0.554927 0.352987
vn 0.728933 -0.582543 0.359585
vn -0.103640 -0.934758 0.339832
vn 0.508424 -0.789477 0.343847
vn 0.686421 -0.635885 0.352811
vn 0.764785 -0.549379 0.336580
vn 0.493765 -0.803282 0.333067
vn 0.808542 -0.519367 0.276617
vn -0.492907 -0.609118 -0.621303
vn 0.859947 -0.469437 0.200299
vn -0.338809 -0.850366 0.402599
vn -0.238437 -0.915148 0.325042
vn -0.257009 -0.925901 0.276863
vn 0.143119 -0.821364 -0.552157
vn 0.913543 -0.394936 0.097289
vn 0.844109 -0.535640 -0.023878
vn 0.873590 -0.473086 0.114146
vn 0.887165 -0.448058 0.110375
vn 0.666798 -0.679422 -0.306213
vn 0.842115 -0.522322 -0.134242
vn -0.441120 -0.616418 0.652260
vn -0.335242 -0.665690 0.666685
vn -0.371945 -0.831353 0.412929
vn 0.852757 -0.499383 -0.153046
vn 0.891256 -0.408932 -0.196057
vn -0.493170 -0.620803 -0.609416
vn -0.318867 -0.940259 0.119314
vn -0.277766 -0.901929 -0.330712
vn -0.442573 -0.616913 -0.650805
vn -0.393172 -0.838836 0.376524
vn -0.564393 -0.804020 0.187116
vn -0.567026 -0.807963 0.160241
vn -0.548025 -0.814646 0.189788
vn -0.012635 -0.549215 -0.835585
vn 0.673118 0.738309 -0.042552
vn 0.522660 0.746645 -0.411520
vn 0.887930 0.459700 -0.016016
vn 0.906195 0.417594 -0.066531
vn -0.387684 -0.615794 -0.685929
vn -0.403690 -0.614408 -0.677892
vn -0.158404 -0.454634 -0.876479
vn -0.125901 -0.564592 -0.815711
vn -0.009137 -0.525896 -0.850500
vn 0.226220 -0.159239 -0.960972
vn 0.290493 -0.103152 -0.951301
vn 0.516463 -0.067138 -0.853674
vn 0.533609 0.730472 -0.426230
vn 0.282543 -0.387679 -0.877425
vn 0.301550 -0.375912 -0.876218
vn 0.090500 -0.485107 -0.869759
vn -0.004160 -0.523610 -0.851948
vn 0.006375 -0.362548 -0.931943
vn 0.131574 -0.255796 -0.957735
vn 0.490872 0.125105 -0.862203
vn 0.527256 -0.030898 -0.849145
vn 0.826781 0.405688 -0.389680
vn 0.592215 0.537583 -0.600238
vn 0.535101 -0.068153 -0.842035
vn 0.978276 -0.177604 -0.106920
vn 0.945053 -0.200929 -0.257879
vn 0.995633 -0.012199 -0.092558
vn 0.995340 -0.022658 -0.093728
vn 0.949747 0.298202 -0.095162
vn 0.984329 0.147372 -0.096836
vn 0.912994 0.391329 -0.115342
vn 0.872278 0.341603 -0.349913
vn 0.934597 -0.204321 -0.291173
vn 0.938313 -0.201128 -0.281277
vn 0.944112 -0.014181 -0.329320
vn 0.931550 0.078053 -0.355137
vn 0.867778 0.270155 -0.417105
vn 0.469820 -0.263762 -0.842437
vn 0.666875 -0.212877 -0.714116
vn 0.558723 -0.122920 -0.820194
vn 0.689209 -0.030553 -0.723919
f 1//1 2//1 3//1
f 4//2 5//2 6//2
f 7//3 8//3 9//3
f 10//4 11//4 12//4
f 13//5 14//5 15//5
f 16//6 17//6 18//6
f 19//7 20//7 21//7
f 22//8 23//8 24//8
f 25//9 26//9 27//9
f 28//10 29//10 30//10
f 31//11 32//11 33//11
f 34//12 35//12 36//12
f 37//13 38//13 39//13
f 40//14 41//14 42//14
f 43//15 44//15 45//15
f 46//16 47//16 48//16
f 49//17 50//17 51//17
f 52//18 53//18 54//18
f 55//19 56//19 57//19
f 58//20 59//20 60//20
f 61//21 62//21 63//21
f 64//22 65//22 66//22
f 67//23 68//23 69//23
f 70//24 71//24 72//24
f 73//25 74//25 75//25
f 76//26 77//26 78//26
f 79//27 80//27 81//27
f 82//28 83//28 84//28
f 85//29 86//29 87//29
f 88//30 89//30 90//30
f 91//31 92//31 93//31
f 94//32 95//32 96//32
f 97//33 98//33 99//33
f 100//34 101//34 102//34
f 103//35 104//35 105//35
f 106//36 107//36 108//36
f 109//37 110//37 111//37
f 112//38 113//38 114//38
f 115//39 116//39 117//39
f 118//40 119//40 120//40
f 121//41 122//41 123//41
f 124//42 125//42 126//42
f 127//43 128//43 129//43
f 130//44 131//44 132//44
f 133//45 134//45 135//45
f 136//46 137//46 138//46
f 139//47 140//47 141//47
f 142//48 143//48 144//48
f 145//49 146//49 147//49
f 148//50 149//50 150//50
f 151//51 152//51 153//51
f 154//52 155//52 156//52
f 157//53 158//53 159//53
f 160//54 161//54 162//54
f 163//55 164//55 165//55
f 166//56 167//56 168//56
f 169//57 170//57 171//57
f 172//58 173//58 174//58
f 175//59 176//59 177//59
f 178//60 179//60 180//60
f 181//61 182//61 183//61
f 184//62 185//62 186//62
f 187//63 188//63 189//63
f 190//64 191//64 192//64
f 193//65 194//65 195//65
f 196//66 197//66 198//66
f 199//67 200//67 201//67
f 202//68 203//68 204//68
f 205//69 206//69 207//69
f 208//70 209//70 210//70
f 211//71 212//71 213//71
f 214//72 215//72 216//72
f 217//73 218//73 219//73
f 220//74 221//74 222//74
f 223//75 224//75 225//75
f 226//76 227//76 228//76
f 229//77 230//77 231//77
f 232//78 233//78 234//78
f 235//79 236//79 237//79
f 238//80 239//80 240//80
f 241//81 242//81 243//81
f 244//82 245//82 246//82
f 247//83 248//83 249//83
f 250//84 251//84 252//84
f 253//85 254//85 255//85
f 256//86 257//86 258//86
