o
v 27.280151 -30.676735 -24.795980
v 39.355904 -11.784724 -21.451954
v 18.567358 -49.352333 7.163583
v 27.280151 -30.676735 -24.795980
v 18.567358 -49.352333 7.163583
v 6.384571 -41.570984 -18.010761
v 27.280151 -30.676735 -24.795980
v 6.384571 -41.570984 -18.010761
v -23.059778 -11.976764 -38.295662
v 27.280151 -30.676735 -24.795980
v 4.375933 -10.470615 -35.981369
v 4.606444 -10.555223 -35.882359
v 27.280151 -30.676735 -24.795980
v -23.059778 -11.976764 -38.295662
v 4.064557 -10.406380 -36.069111
v 27.280151 -30.676735 -24.795980
v 4.064557 -10.406380 -36.069111
v 4.375933 -10.470615 -35.981369
v 27.280151 -30.676735 -24.795980
v -1.470008 22.173935 -41.815872
v 39.355904 -11.784724 -21.451954
v 27.280151 -30.676735 -24.795980
v 4.606444 -10.555223 -35.882359
v -1.470008 22.173935 -41.815872
v 4.375933 -10.470615 -35.981369
v -1.470008 22.173935 -41.815872
v 4.606444 -10.555223 -35.882359
v 4.064557 -10.406380 -36.069111
v -1.470008 22.173935 -41.815872
v 4.375933 -10.470615 -35.981369
v -23.059778 -11.976764 -38.295662
v -1.470008 22.173935 -41.815872
v 4.064557 -10.406380 -36.069111
v -23.059778 -11.976764 -38.295662
v -24.416874 10.569916 -36.522125
v -1.470008 22.173935 -41.815872
v -1.470008 22.173935 -41.815872
v 17.090000 24.122791 -26.002331
v 39.355904 -11.784724 -21.451954
v -1.470008 22.173935 -41.815872
v 1.233824 24.502867 -37.662884
v 17.090000 24.122791 -26.002331
v 18.567358 -49.352333 7.163583
v -15.119356 -25.707418 -17.453175
v 6.384571 -41.570984 -18.010761
v 6.384571 -41.570984 -18.010761
v -15.119356 -25.707418 -17.453175
v -23.059778 -11.976764 -38.295662
v -15.119356 -25.707418 -17.453175
v -36.382278 -4.191031 -23.445332
v -23.059778 -11.976764 -38.295662
v 1.233824 24.502867 -37.662884
v 5.330691 28.263088 -30.899771
v 17.090000 24.122791 -26.002331
v -23.059778 -11.976764 -38.295662
v -34.451336 4.501940 -26.102413
v -24.416874 10.569916 -36.522125
v -36.382278 -4.191031 -23.445332
v -34.451336 4.501940 -26.102413
v -23.059778 -11.976764 -38.295662
v -24.416874 10.569916 -36.522125
v -9.303638 32.416023 -29.989872
v -1.470008 22.173935 -41.815872
v 9.735869 -16.821091 27.039515
v -28.421278 -2.841561 36.822697
v 18.567358 -49.352333 7.163583
v 9.735869 -16.821091 27.039515
v 18.567358 -49.352333 7.163583
v 16.816231 25.278973 29.184938
v 1.730635 31.914040 39.479359
v 0.927192 25.116671 42.740036
v 16.816231 25.278973 29.184938
v 0.927192 25.116671 42.740036
v 9.735869 -16.821091 27.039515
v 16.450750 25.091169 29.465832
v 9.735869 -16.821091 27.039515
v 16.816231 25.278973 29.184938
v 16.450750 25.091169 29.465832
v 0.927192 25.116671 42.740036
v 16.450750 25.091169 29.465832
v 16.816231 25.278973 29.184938
v -34.451336 4.501940 -26.102413
v -38.665882 13.251170 -17.921577
v -24.416874 10.569916 -36.522125
v -36.382278 -4.191031 -23.445332
v -38.665882 13.251170 -17.921577
v -34.451336 4.501940 -26.102413
v 39.355904 -11.784724 -21.451954
v 25.203747 18.355494 8.941281
v 16.816231 25.278973 29.184938
v 17.090000 24.122791 -26.002331
v 14.802160 41.619976 -1.686520
v 39.355904 -11.784724 -21.451954
v 25.203747 18.355494 8.941281
v 25.122246 18.534903 9.080482
v 16.816231 25.278973 29.184938
v -15.119356 -25.707418 -17.453175
v -45.071754 2.607257 8.659658
v -36.382278 -4.191031 -23.445332
v -36.382278 -4.191031 -23.445332
v -45.071754 2.607257 8.659658
v -38.665882 13.251170 -17.921577
v -1.470008 22.173935 -41.815872
v -6.012379 39.428310 -21.057343
v 1.233824 24.502867 -37.662884
v -9.303638 32.416023 -29.989872
v -6.012379 39.428310 -21.057343
v -1.470008 22.173935 -41.815872
v 39.355904 -11.784724 -21.451954
v 22.741590 5.261132 14.636200
v 18.567358 -49.352333 7.163583
v 18.567358 -49.352333 7.163583
v 22.741590 5.261132 14.636200
v 16.816231 25.278973 29.184938
v 39.355904 -11.784724 -21.451954
v 16.816231 25.278973 29.184938
v 22.741590 5.261132 14.636200
v 9.735869 -16.821091 27.039515
v -2.718769 11.603168 40.577736
v -28.421278 -2.841561 36.822697
v -28.421278 -2.841561 36.822697
v -2.718769 11.603168 40.577736
v -11.189850 15.375141 41.819870
v 0.927192 25.116671 42.740036
v -2.718769 11.603168 40.577736
v 9.735869 -16.821091 27.039515
v -11.189850 15.375141 41.819870
v -2.718769 11.603168 40.577736
v 0.927192 25.116671 42.740036
v 5.330691 28.263088 -30.899771
v 4.753347 41.837627 -13.213778
v 17.090000 24.122791 -26.002331
v 17.090000 24.122791 -26.002331
v 4.753347 41.837627 -13.213778
v 14.802160 41.619976 -1.686520
v 1.233824 24.502867 -37.662884
v 4.753347 41.837627 -13.213778
v 5.330691 28.263088 -30.899771
v -6.012379 39.428310 -21.057343
v 4.753347 41.837627 -13.213778
v 1.233824 24.502867 -37.662884
v 39.355904 -11.784724 -21.451954
v 19.843590 31.825096 12.520376
v 25.203747 18.355494 8.941281
v 25.203747 18.355494 8.941281
v 19.843590 31.825096 12.520376
v 25.122246 18.534903 9.080482
v 14.802160 41.619976 -1.686520
v 19.843590 31.825096 12.520376
v 39.355904 -11.784724 -21.451954
v 25.122246 18.534903 9.080482
v 19.843590 31.825096 12.520376
v 16.816231 25.278973 29.184938
v 1.730635 31.914040 39.479359
v 16.816231 25.278973 29.184938
v 16.372793 36.647205 15.306080
v 19.843590 31.825096 12.520376
v 16.372793 36.647205 15.306080
v 16.816231 25.278973 29.184938
v 14.802160 41.619976 -1.686520
v 16.372793 36.647205 15.306080
v 19.843590 31.825096 12.520376
v -45.071754 2.607257 8.659658
v -44.833950 19.190039 12.462609
v -38.665882 13.251170 -17.921577
v -28.421278 -2.841561 36.822697
v -44.833950 19.190039 12.462609
v -45.071754 2.607257 8.659658
v -28.421278 -2.841561 36.822697
v -14.266555 -21.680773 17.317719
v 18.567358 -49.352333 7.163583
v -28.421278 -2.841561 36.822697
v -11.189850 15.375141 41.819870
v -20.015202 16.459200 38.925709
v 1.730635 31.914040 39.479359
v -19.457581 19.997635 38.478611
v 0.927192 25.116671 42.740036
v -11.189850 15.375141 41.819870
v 0.927192 25.116671 42.740036
v -19.457581 19.997635 38.478611
v -11.189850 15.375141 41.819870
v -19.457581 19.997635 38.478611
v -20.015202 16.459200 38.925709
v 1.730635 31.914040 39.479359
v 16.372793 36.647205 15.306080
v 11.288392 35.447289 22.970327
v -28.421278 -2.841561 36.822697
v -23.834259 18.838007 36.319241
v -44.833950 19.190039 12.462609
v -28.421278 -2.841561 36.822697
v -20.015202 16.459200 38.925709
v -23.834259 18.838007 36.319241
v -19.457581 19.997635 38.478611
v -23.834259 18.838007 36.319241
v -20.015202 16.459200 38.925709
v -19.511930 20.069481 38.415749
v -23.834259 18.838007 36.319241
v -19.457581 19.997635 38.478611
v -9.303638 32.416023 -29.989872
v -14.145391 39.060276 -17.880383
v -6.012379 39.428310 -21.057343
v 1.730635 31.914040 39.479359
v -24.344524 36.951881 27.584610
v -19.457581 19.997635 38.478611
v -19.511930 20.069481 38.415749
v -19.457581 19.997635 38.478611
v -24.344524 36.951881 27.584610
v -19.511930 20.069481 38.415749
v -24.344524 36.951881 27.584610
v -23.834259 18.838007 36.319241
v -23.834259 18.838007 36.319241
v -24.459061 36.844490 27.545052
v -44.833950 19.190039 12.462609
v -24.344524 36.951881 27.584610
v -24.459061 36.844490 27.545052
v -23.834259 18.838007 36.319241
v -44.833950 19.190039 12.462609
v -24.459061 36.844490 27.545052
v -24.344524 36.951881 27.584610
v 1.730635 31.914040 39.479359
v -12.485976 37.792633 30.412195
v -24.344524 36.951881 27.584610
v 1.730635 31.914040 39.479359
v -6.530488 40.430538 27.712458
v -12.485976 37.792633 30.412195
v -12.485976 37.792633 30.412195
v -6.530488 40.430538 27.712458
v -24.344524 36.951881 27.584610
v 18.567358 -49.352333 7.163583
v -25.591223 -14.208814 14.806154
v -15.119356 -25.707418 -17.453175
v -14.266555 -21.680773 17.317719
v -25.591223 -14.208814 14.806154
v 18.567358 -49.352333 7.163583
v -15.119356 -25.707418 -17.453175
v -25.591223 -14.208814 14.806154
v -45.071754 2.607257 8.659658
v -28.421278 -2.841561 36.822697
v -45.071754 2.607257 8.659658
v -25.591223 -14.208814 14.806154
v -28.421278 -2.841561 36.822697
v -25.591223 -14.208814 14.806154
v -14.266555 -21.680773 17.317719
v 1.730635 31.914040 39.479359
v 11.288392 35.447289 22.970327
v -1.368718 41.025490 21.774027
v 1.730635 31.914040 39.479359
v -1.368718 41.025490 21.774027
v -6.530488 40.430538 27.712458
v 14.802160 41.619976 -1.686520
v -1.368718 41.025490 21.774027
v 16.372793 36.647205 15.306080
v 16.372793 36.647205 15.306080
v -1.368718 41.025490 21.774027
v 11.288392 35.447289 22.970327
v 14.802160 41.619976 -1.686520
v -1.368821 41.025623 21.773338
v -1.368718 41.025490 21.774027
v -24.416874 10.569916 -36.522125
v -28.905867 30.211809 -11.574234
v -9.303638 32.416023 -29.989872
v -9.303638 32.416023 -29.989872
v -28.905867 30.211809 -11.574234
v -14.145391 39.060276 -17.880383
v -38.665882 13.251170 -17.921577
v -28.905867 30.211809 -11.574234
v -24.416874 10.569916 -36.522125
v -44.833950 19.190039 12.462609
v -28.905867 30.211809 -11.574234
v -38.665882 13.251170 -17.921577
v -1.368718 41.025490 21.774027
v -12.727754 43.131241 19.351595
v -6.530488 40.430538 27.712458
v -6.530488 40.430538 27.712458
v -12.727754 43.131241 19.351595
v -24.344524 36.951881 27.584610
v -44.833950 19.190039 12.462609
v -28.814072 30.408869 -11.201505
v -28.905867 30.211809 -11.574234
v -28.905867 30.211809 -11.574234
v -28.814072 30.408869 -11.201505
v -14.145391 39.060276 -17.880383
v -44.833950 19.190039 12.462609
v -28.794075 30.440271 -11.133943
v -28.814072 30.408869 -11.201505
v -28.814072 30.408869 -11.201505
v -28.794075 30.440271 -11.133943
v -14.145391 39.060276 -17.880383
v -6.012379 39.428310 -21.057343
v -15.102935 44.645931 13.859246
v 4.753347 41.837627 -13.213778
v -14.145391 39.060276 -17.880383
v -15.102935 44.645931 13.859246
v -6.012379 39.428310 -21.057343
v -1.368718 41.025490 21.774027
v -15.102935 44.645931 13.859246
v -12.727754 43.131241 19.351595
v -12.727754 43.131241 19.351595
v -15.102935 44.645931 13.859246
v -24.344524 36.951881 27.584610
v -44.833950 19.190039 12.462609
v -24.344524 36.951881 27.584610
v -15.102935 44.645931 13.859246
v -44.833950 19.190039 12.462609
v -15.102935 44.645931 13.859246
v -28.794075 30.440271 -11.133943
v -28.794075 30.440271 -11.133943
v -15.102935 44.645931 13.859246
v -14.145391 39.060276 -17.880383
v -1.368821 41.025623 21.773338
v -5.792915 43.968037 8.859527
v -1.368718 41.025490 21.774027
v -1.368718 41.025490 21.774027
v -5.792915 43.968037 8.859527
v -15.102935 44.645931 13.859246
v 14.802160 41.619976 -1.686520
v -5.792915 43.968037 8.859527
v -1.368821 41.025623 21.773338
v 4.753347 41.837627 -13.213778
v -5.792915 43.968037 8.859527
v 14.802160 41.619976 -1.686520
v -15.102935 44.645931 13.859246
v -5.792915 43.968037 8.859527
v 4.753347 41.837627 -13.213778
vn 0.846211 -0.527201 -0.077377
vn 0.311090 -0.855059 -0.414845
vn 0.017902 -0.553102 -0.832921
vn 0.359379 -0.105880 -0.927166
vn 0.097868 -0.395741 -0.913133
vn 0.204757 -0.286079 -0.936073
vn 0.387220 -0.085007 -0.918060
vn 0.363747 -0.100357 -0.926076
vn 0.361107 -0.101021 -0.927037
vn 0.244438 -0.128016 -0.961177
vn 0.089875 -0.158177 -0.983312
vn -0.253416 0.060690 -0.965452
vn 0.605178 0.280868 -0.744898
vn 0.489619 0.584821 -0.646728
vn -0.592580 -0.804612 0.038067
vn -0.573483 -0.767299 -0.287001
vn -0.662778 -0.716015 -0.219198
vn 0.477898 0.612245 -0.629897
vn -0.723380 0.010764 -0.690366
vn -0.752675 -0.033788 -0.657524
vn -0.432731 0.519645 -0.736691
vn 0.030962 -0.514984 0.856640
vn 0.776225 -0.161600 0.609393
vn 0.621840 0.277750 0.732236
vn 0.642745 -0.146506 0.751941
vn 0.649182 -0.147208 0.746252
vn 0.644548 -0.126584 0.754012
vn -0.762105 0.206626 -0.613598
vn -0.869010 0.042347 -0.492980
vn 0.929980 0.073444 0.360198
vn 0.833449 0.482732 -0.268946
vn 0.929705 0.168068 0.327723
vn -0.704975 -0.708054 -0.040876
vn -0.966667 -0.046844 -0.251717
vn 0.239901 0.771731 -0.588964
vn 0.060853 0.774110 -0.630120
vn 0.875727 -0.130535 0.464825
vn 0.837698 -0.136386 0.528830
vn 0.897398 -0.052742 0.438057
vn 0.089149 -0.396188 0.913831
vn 0.016542 -0.279031 0.960140
vn 0.395134 -0.248133 0.884477
vn 0.066110 -0.175022 0.982343
vn 0.469142 0.707890 -0.528013
vn 0.540100 0.706395 -0.457491
vn 0.255463 0.770964 -0.583399
vn 0.252443 0.771825 -0.583574
vn 0.933348 0.347512 0.089981
vn 0.933292 0.344016 0.103050
vn 0.904361 0.425895 -0.027288
vn 0.914786 0.290763 0.280401
vn 0.608997 0.623032 0.490870
vn 0.846857 0.424365 0.320542
vn 0.831139 0.549679 0.084037
vn -0.975673 0.062202 -0.210222
vn -0.864850 -0.100403 0.491889
vn -0.537913 -0.766792 0.350257
vn -0.308072 0.030568 0.950872
vn -0.288499 0.441627 0.849549
vn -0.253469 0.226443 0.940466
vn -0.289028 0.164706 0.943045
vn 0.502611 0.738720 0.449082
vn -0.738265 0.171354 0.652383
vn -0.504216 0.126521 0.854259
vn -0.473616 0.183480 0.861407
vn -0.486870 0.336837 0.805915
vn -0.247429 0.804313 -0.540241
vn -0.295424 0.454724 0.840208
vn -0.405829 0.408393 0.817630
vn -0.488563 0.367775 0.791232
vn -0.717430 0.284879 0.635718
vn -0.576636 0.341625 0.742148
vn -0.701381 0.701493 0.126378
vn -0.223297 0.620050 0.752115
vn -0.068365 0.784779 0.615994
vn -0.172744 0.867470 0.466536
vn -0.611925 -0.786678 0.081766
vn -0.571285 -0.775978 0.267378
vn -0.661866 -0.747837 0.051709
vn -0.676609 -0.686123 0.267276
vn -0.570271 -0.757494 0.317794
vn 0.342261 0.858500 0.381884
vn 0.340851 0.858867 0.382320
vn 0.314114 0.918604 0.239790
vn 0.346347 0.864162 0.365057
vn 0.194741 0.967921 0.158758
vn -0.592439 0.577735 -0.561461
vn -0.588994 0.585670 -0.556845
vn -0.615945 0.561310 -0.552759
vn -0.788151 0.553939 -0.268269
vn 0.133905 0.967756 0.213348
vn -0.176930 0.890656 0.418842
vn -0.724429 0.666973 -0.174213
vn -0.576741 0.772312 -0.266278
vn -0.688697 0.713682 -0.127880
vn -0.564688 0.799567 -0.204502
vn -0.094734 0.980670 -0.171206
vn -0.112816 0.977991 -0.175514
vn 0.135049 0.968606 0.208722
vn -0.233535 0.906762 0.351061
vn -0.650018 0.759828 -0.011734
vn -0.646329 0.759122 -0.077415
vn -0.554429 0.816620 -0.160438
vn 0.170007 0.971835 0.163191
vn 0.160375 0.972873 0.166727
vn 0.190234 0.969315 0.155687
vn 0.085067 0.994835 -0.055373
vn 0.028116 0.996177 -0.082713
f 1//1 2//1 3//1
f 4//2 5//2 6//2
f 7//3 8//3 9//3
f 10//4 11//4 12//4
f 13//5 14//5 15//5
f 16//6 17//6 18//6
f 19//7 20//7 21//7
f 22//8 23//8 24//8
f 25//9 26//9 27//9
f 28//10 29//10 30//10
f 31//11 32//11 33//11
f 34//12 35//12 36//12
f 37//13 38//13 39//13
f 40//14 41//14 42//14
f 43//15 44//15 45//15
f 46//16 47//16 48//16
f 49//17 50//17 51//17
f 52//18 53//18 54//18
f 55//19 56//19 57//19
f 58//20 59//20 60//20
f 61//21 62//21 63//21
f 64//22 65//22 66//22
f 67//23 68//23 69//23
f 70//24 71//24 72//24
f 73//25 74//25 75//25
f 76//26 77//26 78//26
f 79//27 80//27 81//27
f 82//28 83//28 84//28
f 85//29 86//29 87//29
f 88//30 89//30 90//30
f 91//31 92//31 93//31
f 94//32 95//32 96//32
f 97//33 98//33 99//33
f 100//34 101//34 102//34
f 103//35 104//35 105//35
f 106//36 107//36 108//36
f 109//37 110//37 111//37
f 112//38 113//38 114//38
f 115//39 116//39 117//39
f 118//40 119//40 120//40
f 121//41 122//41 123//41
f 124//42 125//42 126//42
f 127//43 128//43 129//43
f 130//44 131//44 132//44
f 133//45 134//45 135//45
f 136//46 137//46 138//46
f 139//47 140//47 141//47
f 142//48 143//48 144//48
f 145//49 146//49 147//49
f 148//50 149//50 150//50
f 151//51 152//51 153//51
f 154//52 155//52 156//52
f 157//53 158//53 159//53
f 160//54 161//54 162//54
f 163//55 164//55 165//55
f 166//56 167//56 168//56
f 169//57 170//57 171//57
f 172//58 173//58 174//58
f 175//59 176//59 177//59
f 178//60 179//60 180//60
f 181//61 182//61 183//61
f 184//62 185//62 186//62
f 187//63 188//63 189//63
f 190//64 191//64 192//64
f 193//65 194//65 195//65
f 196//66 197//66 198//66
f 199//67 200//67 201//67
f 202//68 203//68 204//68
f 205//69 206//69 207//69
f 208//70 209//70 210//70
f 211//71 212//71 213//71
f 214//72 215//72 216//72
f 217//73 218//73 219//73
f 220//74 221//74 222//74
f 223//75 224//75 225//75
f 226//76 227//76 228//76
f 229//77 230//77 231//77
f 232//78 233//78 234//78
f 235//79 236//79 237//79
f 238//80 239//80 240//80
f 241//81 242//81 243//81
f 244//82 245//82 246//82
f 247//83 248//83 249//83
f 250//84 251//84 252//84
f 253//85 254//85 255//85
f 256//86 257//86 258//86
f 259//87 260//87 261//87
f 262//88 263//88 264//88
f 265//89 266//89 267//89
f 268//90 269//90 270//90
f 271//91 272//91 273//91
f 274//92 275//92 276//92
f 277//93 278//93 279//93
f 280//94 281//94 282//94
f 283//95 284//95 285//95
f 286//96 287//96 288//96
f 289//97 290//97 291//97
f 292//98 293//98 294//98
f 295//99 296//99 297//99
f 298//100 299//100 300//100
f 301//101 302//101 303//101
f 304//102 305//102 306//102
f 307//103 308//103 309//103
f 310//104 311//104 312//104
f 313//105 314//105 315//105
f 316//106 317//106 318//106
f 319//107 320//107 321//107
f 322//108 323//108 324//108
