o
v 20.543249 -168.132172 -123.960297
v 4.946954 -179.505493 -130.044388
v 5.367997 -179.290619 -130.653183
v 4.946954 -179.505493 -130.044388
v -10.183316 -178.796463 -132.253403
v 5.367997 -179.290619 -130.653183
v 20.543249 -168.132172 -123.960297
v -6.774854 -166.536636 -82.745377
v 4.946954 -179.505493 -130.044388
v -6.774854 -166.536636 -82.745377
v -31.844814 -181.229935 -86.665146
v 4.946954 -179.505493 -130.044388
v -158.994080 123.704453 60.225105
v -31.844814 -181.229935 -86.665146
v -6.774854 -166.536636 -82.745377
v 4.946954 -179.505493 -130.044388
v -49.263908 -180.390411 -101.314728
v -10.183316 -178.796463 -132.253403
v -31.844814 -181.229935 -86.665146
v -49.263908 -180.390411 -101.314728
v 4.946954 -179.505493 -130.044388
v -31.844814 -181.229935 -86.665146
v -50.219654 -180.344406 -101.232162
v -49.263908 -180.390411 -101.314728
v -49.263908 -180.390411 -101.314728
v -50.219654 -180.344406 -101.232162
v -10.183316 -178.796463 -132.253403
v 20.543249 -168.132172 -123.960297
v 44.552883 -36.851662 -128.492447
v 44.992359 -36.594612 -127.139015
v 20.543249 -168.132172 -123.960297
v 5.367997 -179.290619 -130.653183
v 24.709194 -87.181679 -152.849915
v 20.543249 -168.132172 -123.960297
v 24.709194 -87.181679 -152.849915
v 44.552883 -36.851662 -128.492447
v 44.552883 -36.851662 -128.492447
v 37.781052 -31.640158 -135.880066
v 44.992359 -36.594612 -127.139015
v 24.709194 -87.181679 -152.849915
v 37.781052 -31.640158 -135.880066
v 44.552883 -36.851662 -128.492447
v 20.543249 -168.132172 -123.960297
v 4.630563 -15.142208 -43.929710
v -6.774854 -166.536636 -82.745377
v 20.543249 -168.132172 -123.960297
v 44.992359 -36.594612 -127.139015
v 4.630563 -15.142208 -43.929710
v -158.994080 123.704453 60.225105
v -6.774854 -166.536636 -82.745377
v 4.630563 -15.142208 -43.929710
v -50.219654 -180.344406 -101.232162
v -87.323212 -118.097672 -190.305099
v -10.183316 -178.796463 -132.253403
v -10.183316 -178.796463 -132.253403
v -87.323212 -118.097672 -190.305099
v 5.367997 -179.290619 -130.653183
v -158.994080 123.704453 60.225105
v 4.630563 -15.142208 -43.929710
v -79.380898 109.411453 -63.560196
v -158.994080 123.704453 60.225105
v -128.964600 -114.434616 -88.649651
v -31.844814 -181.229935 -86.665146
v -31.844814 -181.229935 -86.665146
v -128.964600 -114.434616 -88.649651
v -50.219654 -180.344406 -101.232162
v 44.992359 -36.594612 -127.139015
v -78.822487 115.258781 -74.052383
v 4.630563 -15.142208 -43.929710
v 4.630563 -15.142208 -43.929710
v -78.822487 115.258781 -74.052383
v -79.380898 109.411453 -63.560196
v -158.994080 123.704453 60.225105
v -79.380898 109.411453 -63.560196
v -78.822487 115.258781 -74.052383
v 37.781052 -31.640158 -135.880066
v -78.822487 115.258781 -74.052383
v 44.992359 -36.594612 -127.139015
v -158.994080 123.704453 60.225105
v -78.822487 115.258781 -74.052383
v -114.638542 126.700462 -71.649612
v 5.367997 -179.290619 -130.653183
v -95.695885 -44.273762 -224.883621
v 24.709194 -87.181679 -152.849915
v -87.323212 -118.097672 -190.305099
v -95.695885 -44.273762 -224.883621
v 5.367997 -179.290619 -130.653183
v 24.709194 -87.181679 -152.849915
v -95.695885 -44.273762 -224.883621
v 37.781052 -31.640158 -135.880066
v -158.994080 123.704453 60.225105
v -222.724823 41.004021 -102.089302
v -218.592743 38.744591 -95.977547
v -128.964600 -114.434616 -88.649651
v -218.592743 38.744591 -95.977547
v -222.724823 41.004021 -102.089302
v -78.822487 115.258781 -74.052383
v -109.659363 103.349098 -161.878128
v -114.638542 126.700462 -71.649612
v 37.781052 -31.640158 -135.880066
v -88.843147 90.873848 -159.409637
v -78.822487 115.258781 -74.052383
v -78.822487 115.258781 -74.052383
v -88.843147 90.873848 -159.409637
v -109.659363 103.349098 -161.878128
v -95.695885 -44.273762 -224.883621
v -88.843147 90.873848 -159.409637
v 37.781052 -31.640158 -135.880066
v -109.659363 103.349098 -161.878128
v -88.843147 90.873848 -159.409637
v -109.990761 103.270012 -162.059204
v -109.659363 103.349098 -161.878128
v -126.999168 105.266388 -159.022171
v -114.638542 126.700462 -71.649612
v -109.659363 103.349098 -161.878128
v -109.990761 103.270012 -162.059204
v -126.999168 105.266388 -159.022171
v -95.695885 -44.273762 -224.883621
v -122.287697 97.717453 -169.677673
v -88.843147 90.873848 -159.409637
v -88.843147 90.873848 -159.409637
v -122.287697 97.717453 -169.677673
v -109.990761 103.270012 -162.059204
v -109.990761 103.270012 -162.059204
v -122.287697 97.717453 -169.677673
v -126.999168 105.266388 -159.022171
v -158.994080 123.704453 60.225105
v -114.638542 126.700462 -71.649612
v -193.998154 77.161247 -130.074829
v -126.999168 105.266388 -159.022171
v -193.998154 77.161247 -130.074829
v -114.638542 126.700462 -71.649612
v -158.994080 123.704453 60.225105
v -193.998154 77.161247 -130.074829
v -222.724823 41.004021 -102.089302
v -50.219654 -180.344406 -101.232162
v -178.554153 -63.279320 -150.075989
v -87.323212 -118.097672 -190.305099
v -128.964600 -114.434616 -88.649651
v -178.554153 -63.279320 -150.075989
v -50.219654 -180.344406 -101.232162
v -178.554153 -63.279320 -150.075989
v -186.350174 -54.443756 -150.848709
v -87.323212 -118.097672 -190.305099
v -128.964600 -114.434616 -88.649651
v -186.350174 -54.443756 -150.848709
v -178.554153 -63.279320 -150.075989
v -87.323212 -118.097672 -190.305099
v -189.434814 -50.858486 -150.755325
v -95.695885 -44.273762 -224.883621
v -186.350174 -54.443756 -150.848709
v -189.434814 -50.858486 -150.755325
v -87.323212 -118.097672 -190.305099
v -128.964600 -114.434616 -88.649651
v -189.434814 -50.858486 -150.755325
v -186.350174 -54.443756 -150.848709
v -122.287697 97.717453 -169.677673
v -134.629196 96.345428 -168.113358
v -126.999168 105.266388 -159.022171
v -126.999168 105.266388 -159.022171
v -134.629196 96.345428 -168.113358
v -193.998154 77.161247 -130.074829
v -95.695885 -44.273762 -224.883621
v -134.629196 96.345428 -168.113358
v -122.287697 97.717453 -169.677673
v -128.964600 -114.434616 -88.649651
v -180.246277 -58.779346 -133.092514
v -189.434814 -50.858486 -150.755325
v -128.964600 -114.434616 -88.649651
v -222.724823 41.004021 -102.089302
v -208.129425 0.040956 -120.784592
v -128.964600 -114.434616 -88.649651
v -208.129425 0.040956 -120.784592
v -180.246277 -58.779346 -133.092514
v -189.434814 -50.858486 -150.755325
v -208.129425 0.040956 -120.784592
v -222.724823 41.004021 -102.089302
v -180.246277 -58.779346 -133.092514
v -208.129425 0.040956 -120.784592
v -189.434814 -50.858486 -150.755325
v -134.629196 96.345428 -168.113358
v -185.368820 64.441788 -145.616608
v -193.998154 77.161247 -130.074829
v -158.994080 123.704453 60.225105
v -171.842346 -34.911671 -86.077751
v -128.964600 -114.434616 -88.649651
v -158.994080 123.704453 60.225105
v -218.592743 38.744591 -95.977547
v -171.842346 -34.911671 -86.077751
v -128.964600 -114.434616 -88.649651
v -171.842346 -34.911671 -86.077751
v -218.592743 38.744591 -95.977547
v -193.998154 77.161247 -130.074829
v -185.889404 22.223873 -166.439453
v -222.724823 41.004021 -102.089302
v -185.368820 64.441788 -145.616608
v -185.889404 22.223873 -166.439453
v -193.998154 77.161247 -130.074829
v -95.695885 -44.273762 -224.883621
v -185.889404 22.223873 -166.439453
v -134.629196 96.345428 -168.113358
v -134.629196 96.345428 -168.113358
v -185.889404 22.223873 -166.439453
v -185.368820 64.441788 -145.616608
v -189.434814 -50.858486 -150.755325
v -222.724823 41.004021 -102.089302
v -186.035706 14.076836 -165.908798
v -185.889404 22.223873 -166.439453
v -186.035706 14.076836 -165.908798
v -222.724823 41.004021 -102.089302
v -189.434814 -50.858486 -150.755325
v -186.035706 14.076836 -165.908798
v -95.695885 -44.273762 -224.883621
v -95.695885 -44.273762 -224.883621
v -186.035706 14.076836 -165.908798
v -185.889404 22.223873 -166.439453
vn 0.561134 -0.821904 0.097989
vn 0.004003 -0.943846 -0.330362
vn 0.464219 -0.818127 0.339366
vn 0.436324 -0.834339 0.336898
vn 0.092282 -0.400638 0.911577
vn -0.033052 -0.995116 -0.093018
vn -0.008607 -0.998857 -0.047007
vn -0.048085 -0.998843 -0.000065
vn -0.058464 -0.990448 -0.124877
vn 0.944835 -0.182196 -0.272196
vn 0.562372 -0.303450 -0.769191
vn 0.910970 -0.179427 -0.371402
vn 0.780913 0.516270 -0.351624
vn 0.746457 0.027459 -0.664867
vn 0.812845 -0.201369 0.546566
vn 0.873531 -0.151183 0.462695
vn 0.354092 -0.257206 0.899146
vn -0.317140 -0.834313 -0.450936
vn 0.057185 -0.651130 -0.756809
vn 0.727613 0.554440 0.403949
vn -0.376510 -0.524760 0.763457
vn -0.477017 -0.676925 0.560560
vn 0.791807 0.561988 0.239189
vn 0.749156 0.560852 0.352436
vn 0.696299 0.610566 0.377329
vn 0.717889 0.661340 -0.217405
vn 0.309531 0.942568 0.125523
vn 0.411265 -0.294258 -0.862713
vn 0.315354 -0.372959 -0.872613
vn 0.542041 0.126271 -0.830811
vn -0.840936 -0.271116 0.468319
vn -0.806940 -0.454088 0.377692
vn 0.282685 0.932287 -0.225678
vn 0.694780 0.665889 -0.271796
vn 0.516985 0.805121 -0.290700
vn 0.494146 0.358622 -0.791966
vn 0.353688 0.425324 -0.833069
vn 0.066296 0.966856 -0.246566
vn 0.026637 0.897285 -0.440647
vn 0.342565 0.395487 -0.852196
vn 0.343018 0.403918 -0.848050
vn -0.008068 0.814265 -0.580437
vn -0.452952 0.881661 -0.132318
vn -0.438401 0.885286 -0.155156
vn -0.785526 0.618791 -0.006852
vn -0.583308 -0.759548 -0.287816
vn -0.648107 -0.754284 -0.104943
vn -0.593527 -0.573112 -0.565038
vn -0.751089 -0.657584 0.058725
vn -0.549566 -0.404676 -0.730900
vn -0.571673 -0.474411 -0.669420
vn -0.755393 -0.651695 0.068376
vn -0.163796 0.769349 -0.617473
vn -0.489913 0.791464 -0.365472
vn -0.154893 0.332667 -0.930237
vn -0.778689 -0.613833 0.129817
vn -0.809830 -0.456642 0.368311
vn -0.811515 -0.460071 0.360249
vn -0.949887 -0.302510 -0.078750
vn -0.856527 -0.456434 0.240895
vn -0.580838 0.441543 -0.683862
vn -0.745130 -0.418557 0.519221
vn -0.755008 -0.410485 0.511337
vn -0.781055 -0.435606 0.447438
vn -0.813078 0.233096 -0.533451
vn -0.685352 0.328900 -0.649705
vn -0.390116 0.249778 -0.886240
vn -0.561469 0.371598 -0.739370
vn -0.876754 -0.065299 -0.476485
vn -0.869822 -0.016497 -0.493090
vn -0.606706 -0.150397 -0.780569
vn -0.565665 -0.043480 -0.823488
f 1//1 2//1 3//1
f 4//2 5//2 6//2
f 7//3 8//3 9//3
f 10//4 11//4 12//4
f 13//5 14//5 15//5
f 16//6 17//6 18//6
f 19//7 20//7 21//7
f 22//8 23//8 24//8
f 25//9 26//9 27//9
f 28//10 29//10 30//10
f 31//11 32//11 33//11
f 34//12 35//12 36//12
f 37//13 38//13 39//13
f 40//14 41//14 42//14
f 43//15 44//15 45//15
f 46//16 47//16 48//16
f 49//17 50//17 51//17
f 52//18 53//18 54//18
f 55//19 56//19 57//19
f 58//20 59//20 60//20
f 61//21 62//21 63//21
f 64//22 65//22 66//22
f 67//23 68//23 69//23
f 70//24 71//24 72//24
f 73//25 74//25 75//25
f 76//26 77//26 78//26
f 79//27 80//27 81//27
f 82//28 83//28 84//28
f 85//29 86//29 87//29
f 88//30 89//30 90//30
f 91//31 92//31 93//31
f 94//32 95//32 96//32
f 97//33 98//33 99//33
f 100//34 101//34 102//34
f 103//35 104//35 105//35
f 106//36 107//36 108//36
f 109//37 110//37 111//37
f 112//38 113//38 114//38
f 115//39 116//39 117//39
f 118//40 119//40 120//40
f 121//41 122//41 123//41
f 124//42 125//42 126//42
f 127//43 128//43 129//43
f 130//44 131//44 132//44
f 133//45 134//45 135//45
f 136//46 137//46 138//46
f 139//47 140//47 141//47
f 142//48 143//48 144//48
f 145//49 146//49 147//49
f 148//50 149//50 150//50
f 151//51 152//51 153//51
f 154//52 155//52 156//52
f 157//53 158//53 159//53
f 160//54 161//54 162//54
f 163//55 164//55 165//55
f 166//56 167//56 168//56
f 169//57 170//57 171//57
f 172//58 173//58 174//58
f 175//59 176//59 177//59
f 178//60 179//60 180//60
f 181//61 182//61 183//61
f 184//62 185//62 186//62
f 187//63 188//63 189//63
f 190//64 191//64 192//64
f 193//65 194//65 195//65
f 196//66 197//66 198//66
f 199//67 200//67 201//67
f 202//68 203//68 204//68
f 205//69 206//69 207//69
f 208//70 209//70 210//70
f 211//71 212//71 213//71
f 214//72 215//72 216//72
