o
v -11.137224 -11.570870 -3.708106
v -24.073215 -32.104481 -15.982982
v -38.611279 15.465901 -21.922029
v -11.137224 -11.570870 -3.708106
v -38.611279 15.465901 -21.922029
v -27.382736 15.212734 34.564995
v -29.936831 17.355331 33.863064
v -30.137636 17.322136 34.023590
v -27.382736 15.212734 34.564995
v -29.936831 17.355331 33.863064
v -27.382736 15.212734 34.564995
v -29.154499 16.926580 33.733139
v -30.137636 17.322136 34.023590
v -27.230673 14.501222 34.924187
v -27.382736 15.212734 34.564995
v -27.230673 14.501222 34.924187
v -27.183176 14.409442 34.952698
v -27.382736 15.212734 34.564995
v -29.936831 17.355331 33.863064
v -29.154499 16.926580 33.733139
v -30.149555 17.634048 31.388466
v -38.611279 15.465901 -21.922029
v -30.149555 17.634048 31.388466
v -27.382736 15.212734 34.564995
v -27.382736 15.212734 34.564995
v -30.149555 17.634048 31.388466
v -29.154499 16.926580 33.733139
v -38.611279 15.465901 -21.922029
v -40.728291 21.720625 14.391598
v -30.149555 17.634048 31.388466
v -29.936831 17.355331 33.863064
v -40.728291 21.720625 14.391598
v -30.137636 17.322136 34.023590
v -29.936831 17.355331 33.863064
v -30.149555 17.634048 31.388466
v -40.728291 21.720625 14.391598
v -30.137636 17.322136 34.023590
v -30.822451 13.769946 35.918743
v -27.230673 14.501222 34.924187
v -27.230673 14.501222 34.924187
v -30.822451 13.769946 35.918743
v -27.183176 14.409442 34.952698
v -24.073215 -32.104481 -15.982982
v -34.171612 -32.574661 -14.819667
v -38.611279 15.465901 -21.922029
v -24.073215 -32.104481 -15.982982
v -34.173527 -32.574894 -14.816849
v -34.171612 -32.574661 -14.819667
v -11.137224 -11.570870 -3.708106
v -27.382736 15.212734 34.564995
v -16.696135 -1.676243 26.952848
v -11.137224 -11.570870 -3.708106
v -16.696135 -1.676243 26.952848
v -16.012035 -6.360113 27.090170
v -38.611279 15.465901 -21.922029
v -47.460835 -0.370106 -16.845615
v -47.307613 0.193154 -16.862839
v -27.183176 14.409442 34.952698
v -18.455206 -2.529390 32.804428
v -27.382736 15.212734 34.564995
v -27.382736 15.212734 34.564995
v -18.455206 -2.529390 32.804428
v -16.696135 -1.676243 26.952848
v -16.696135 -1.676243 26.952848
v -18.455206 -2.529390 32.804428
v -16.012035 -6.360113 27.090170
v -11.137224 -11.570870 -3.708106
v -16.406422 -20.382557 25.908993
v -24.073215 -32.104481 -15.982982
v -11.137224 -11.570870 -3.708106
v -16.012035 -6.360113 27.090170
v -16.406422 -20.382557 25.908993
v -18.455206 -2.529390 32.804428
v -16.406422 -20.382557 25.908993
v -16.012035 -6.360113 27.090170
v -24.073215 -32.104481 -15.982982
v -34.563034 -32.620903 -13.849142
v -34.173527 -32.574894 -14.816849
v -34.171612 -32.574661 -14.819667
v -46.414169 -1.697219 -17.588682
v -38.611279 15.465901 -21.922029
v -38.611279 15.465901 -21.922029
v -46.414169 -1.697219 -17.588682
v -47.460835 -0.370106 -16.845615
v -47.460835 -0.370106 -16.845615
v -47.048443 -1.929827 -17.002808
v -47.513874 -0.925034 -16.603655
v -46.414169 -1.697219 -17.588682
v -47.048443 -1.929827 -17.002808
v -47.460835 -0.370106 -16.845615
v -34.171612 -32.574661 -14.819667
v -47.048443 -1.929827 -17.002808
v -46.414169 -1.697219 -17.588682
v -47.048443 -1.929827 -17.002808
v -47.501064 -1.722791 -16.375750
v -47.513874 -0.925034 -16.603655
v -38.611279 15.465901 -21.922029
v -47.307613 0.193154 -16.862839
v -49.280571 -0.769161 -13.767480
v -47.460835 -0.370106 -16.845615
v -49.280571 -0.769161 -13.767480
v -47.307613 0.193154 -16.862839
v -47.460835 -0.370106 -16.845615
v -47.513874 -0.925034 -16.603655
v -49.280571 -0.769161 -13.767480
v -47.501064 -1.722791 -16.375750
v -49.280571 -0.769161 -13.767480
v -47.513874 -0.925034 -16.603655
v -38.611279 15.465901 -21.922029
v -48.240208 1.940781 -12.089379
v -40.728291 21.720625 14.391598
v -40.728291 21.720625 14.391598
v -48.240208 1.940781 -12.089379
v -49.280571 -0.769161 -13.767480
v -38.611279 15.465901 -21.922029
v -49.280571 -0.769161 -13.767480
v -48.240208 1.940781 -12.089379
v -47.048443 -1.929827 -17.002808
v -48.883770 -2.839471 -13.667161
v -47.501064 -1.722791 -16.375750
v -47.501064 -1.722791 -16.375750
v -48.883770 -2.839471 -13.667161
v -49.280571 -0.769161 -13.767480
v -48.883770 -2.839471 -13.667161
v -49.346455 -2.247627 -11.181352
v -49.280571 -0.769161 -13.767480
v -48.883770 -2.839471 -13.667161
v -49.151569 -2.962235 -11.481787
v -49.346455 -2.247627 -11.181352
v -34.173527 -32.574894 -14.816849
v -39.531517 -31.938629 -7.984898
v -34.171612 -32.574661 -14.819667
v -34.171612 -32.574661 -14.819667
v -39.531517 -31.938629 -7.984898
v -47.048443 -1.929827 -17.002808
v -47.048443 -1.929827 -17.002808
v -39.531517 -31.938629 -7.984898
v -48.883770 -2.839471 -13.667161
v -34.563034 -32.620903 -13.849142
v -39.529709 -31.940819 -7.982152
v -34.173527 -32.574894 -14.816849
v -34.173527 -32.574894 -14.816849
v -39.529709 -31.940819 -7.982152
v -39.531517 -31.938629 -7.984898
v -30.822451 13.769946 35.918743
v -30.146179 -6.673863 40.132820
v -27.183176 14.409442 34.952698
v -27.183176 14.409442 34.952698
v -30.146179 -6.673863 40.132820
v -18.455206 -2.529390 32.804428
v -18.455206 -2.529390 32.804428
v -30.146179 -6.673863 40.132820
v -16.406422 -20.382557 25.908993
v -49.151569 -2.962235 -11.481787
v -44.015957 -26.750399 -4.008335
v -49.346455 -2.247627 -11.181352
v -39.529709 -31.940819 -7.982152
v -44.015957 -26.750399 -4.008335
v -39.531517 -31.938629 -7.984898
v -48.883770 -2.839471 -13.667161
v -44.015957 -26.750399 -4.008335
v -49.151569 -2.962235 -11.481787
v -39.531517 -31.938629 -7.984898
v -44.015957 -26.750399 -4.008335
v -48.883770 -2.839471 -13.667161
v -40.728291 21.720625 14.391598
v -44.974281 8.588583 20.168867
v -30.137636 17.322136 34.023590
v -30.137636 17.322136 34.023590
v -44.974281 8.588583 20.168867
v -30.822451 13.769946 35.918743
v -40.728291 21.720625 14.391598
v -49.280571 -0.769161 -13.767480
v -44.974281 8.588583 20.168867
v -49.346455 -2.247627 -11.181352
v -44.974281 8.588583 20.168867
v -49.280571 -0.769161 -13.767480
v -16.406422 -20.382557 25.908993
v -35.006649 -32.223869 2.498135
v -24.073215 -32.104481 -15.982982
v -24.073215 -32.104481 -15.982982
v -35.006649 -32.223869 2.498135
v -34.563034 -32.620903 -13.849142
v -34.563034 -32.620903 -13.849142
v -35.006649 -32.223869 2.498135
v -39.529709 -31.940819 -7.982152
v -39.529709 -31.940819 -7.982152
v -38.796169 -31.331654 3.088462
v -44.015957 -26.750399 -4.008335
v -35.006649 -32.223869 2.498135
v -38.796169 -31.331654 3.088462
v -39.529709 -31.940819 -7.982152
v -38.796169 -31.331654 3.088462
v -43.133495 -27.071693 -0.363089
v -44.015957 -26.750399 -4.008335
v -44.974281 8.588583 20.168867
v -38.395607 -5.110559 34.666500
v -30.822451 13.769946 35.918743
v -30.822451 13.769946 35.918743
v -38.395607 -5.110559 34.666500
v -30.146179 -6.673863 40.132820
v -44.974281 8.588583 20.168867
v -38.769424 -5.901790 34.224758
v -38.395607 -5.110559 34.666500
v -38.395607 -5.110559 34.666500
v -38.769424 -5.901790 34.224758
v -30.146179 -6.673863 40.132820
v -30.146179 -6.673863 40.132820
v -37.126400 -27.292768 19.928991
v -16.406422 -20.382557 25.908993
v -16.406422 -20.382557 25.908993
v -37.126400 -27.292768 19.928991
v -35.006649 -32.223869 2.498135
v -35.006649 -32.223869 2.498135
v -37.126400 -27.292768 19.928991
v -38.796169 -31.331654 3.088462
v -37.126400 -27.292768 19.928991
v -37.260754 -27.240360 19.885376
v -38.796169 -31.331654 3.088462
v -37.260754 -27.240360 19.885376
v -42.437641 -24.483946 16.820423
v -38.796169 -31.331654 3.088462
v -43.133495 -27.071693 -0.363089
v -42.697525 -24.258835 16.595592
v -44.015957 -26.750399 -4.008335
v -38.796169 -31.331654 3.088462
v -42.697525 -24.258835 16.595592
v -43.133495 -27.071693 -0.363089
v -42.437641 -24.483946 16.820423
v -42.697525 -24.258835 16.595592
v -38.796169 -31.331654 3.088462
v -37.260754 -27.240360 19.885376
v -43.004456 -23.696020 17.484430
v -42.437641 -24.483946 16.820423
v -42.697525 -24.258835 16.595592
v -43.004456 -23.696020 17.484430
v -44.015957 -26.750399 -4.008335
v -42.437641 -24.483946 16.820423
v -43.004456 -23.696020 17.484430
v -42.697525 -24.258835 16.595592
v -43.004456 -23.696020 17.484430
v -44.011738 -22.241566 17.070959
v -44.015957 -26.750399 -4.008335
v -43.004456 -23.696020 17.484430
v -44.921589 -20.470303 18.320633
v -44.011738 -22.241566 17.070959
v -44.011738 -22.241566 17.070959
v -44.921589 -20.470303 18.320633
v -44.015957 -26.750399 -4.008335
v -38.769424 -5.901790 34.224758
v -36.934719 -16.797272 29.479118
v -30.146179 -6.673863 40.132820
v -30.146179 -6.673863 40.132820
v -36.934719 -16.797272 29.479118
v -37.126400 -27.292768 19.928991
v -37.126400 -27.292768 19.928991
v -36.934719 -16.797272 29.479118
v -37.260754 -27.240360 19.885376
v -44.921589 -20.470303 18.320633
v -36.934719 -16.797272 29.479118
v -38.769424 -5.901790 34.224758
v -37.260754 -27.240360 19.885376
v -36.934719 -16.797272 29.479118
v -43.004456 -23.696020 17.484430
v -43.004456 -23.696020 17.484430
v -36.934719 -16.797272 29.479118
v -44.921589 -20.470303 18.320633
v -44.015957 -26.750399 -4.008335
v -45.185459 -19.658909 15.815214
v -49.346455 -2.247627 -11.181352
v -49.346455 -2.247627 -11.181352
v -45.185459 -19.658909 15.815214
v -44.921589 -20.470303 18.320633
v -44.921589 -20.470303 18.320633
v -45.185459 -19.658909 15.815214
v -44.015957 -26.750399 -4.008335
v -44.974281 8.588583 20.168867
v -45.107376 -8.702349 21.617714
v -38.769424 -5.901790 34.224758
v -44.921589 -20.470303 18.320633
v -38.769424 -5.901790 34.224758
v -45.107376 -8.702349 21.617714
v -44.974281 8.588583 20.168867
v -45.325417 -8.100106 20.576664
v -45.107376 -8.702349 21.617714
v -45.326073 -8.090096 20.571690
v -45.325417 -8.100106 20.576664
v -44.974281 8.588583 20.168867
v -44.921589 -20.470303 18.320633
v -45.107376 -8.702349 21.617714
v -45.325417 -8.100106 20.576664
v -49.346455 -2.247627 -11.181352
v -45.341202 -8.080312 20.457169
v -44.974281 8.588583 20.168867
v -45.326073 -8.090096 20.571690
v -44.974281 8.588583 20.168867
v -45.341202 -8.080312 20.457169
v -49.346455 -2.247627 -11.181352
v -44.921589 -20.470303 18.320633
v -45.341202 -8.080312 20.457169
v -44.921589 -20.470303 18.320633
v -45.325417 -8.100106 20.576664
v -45.341202 -8.080312 20.457169
v -45.326073 -8.090096 20.571690
v -45.341202 -8.080312 20.457169
v -45.325417 -8.100106 20.576664
vn 0.608922 0.087668 -0.788370
vn 0.741034 0.655765 -0.144364
vn 0.391256 0.672284 0.628453
vn 0.481192 0.731745 0.482704
vn 0.194974 0.474899 0.858170
vn 0.473803 0.475463 0.741246
vn 0.487012 0.871578 0.056302
vn 0.740244 0.656691 -0.144203
vn 0.714659 0.693107 -0.094160
vn 0.514908 0.849324 -0.116271
vn 0.009415 0.976837 0.213779
vn 0.230830 0.968889 0.089284
vn 0.154787 0.441647 0.883736
vn 0.176005 0.373956 0.910593
vn -0.105933 -0.155002 -0.982218
vn 0.040101 -0.997673 -0.055130
vn 0.840210 0.541794 -0.022511
vn 0.980510 0.147028 0.130321
vn -0.700721 0.169423 -0.693027
vn 0.844237 0.388128 0.369623
vn 0.859513 0.401050 0.316854
vn 0.941259 0.146396 0.304301
vn 0.847918 -0.530082 -0.006856
vn 0.985748 -0.041458 0.163040
vn 0.902230 -0.061333 0.426871
vn 0.043028 -0.998619 -0.030160
vn -0.185440 -0.160464 -0.969466
vn -0.546614 0.037294 -0.836554
vn -0.819661 -0.161323 -0.549664
vn -0.655654 -0.097901 -0.748687
vn -0.585684 -0.299751 -0.753076
vn -0.824797 -0.167524 -0.540041
vn -0.838321 0.334820 -0.430248
vn -0.852335 0.217310 -0.475712
vn -0.843381 -0.144982 -0.517387
vn -0.841692 -0.160775 -0.515467
vn -0.851280 0.506544 -0.136876
vn -0.932441 0.361284 -0.005352
vn -0.862142 0.461065 -0.210070
vn -0.823331 -0.234351 -0.516919
vn -0.841976 -0.185917 -0.506469
vn -0.971904 -0.192819 -0.134993
vn -0.969078 -0.209412 -0.130516
vn -0.728096 -0.433986 -0.530595
vn -0.751315 -0.355318 -0.556125
vn -0.776363 -0.351658 -0.523066
vn -0.339776 -0.922995 -0.180645
vn -0.498386 -0.807445 -0.315664
vn 0.217536 0.203948 0.954507
vn 0.488859 0.142745 0.860605
vn 0.574869 -0.236565 0.783302
vn -0.969606 -0.232893 -0.075008
vn -0.761964 -0.647456 -0.014543
vn -0.959654 -0.248510 -0.131558
vn -0.815129 -0.351839 -0.460190
vn -0.735688 0.457571 0.499391
vn -0.738885 0.422501 0.524921
vn -0.946828 0.320157 0.031865
vn -0.981380 0.176452 0.075875
vn 0.339985 -0.919951 0.195192
vn 0.054373 -0.998189 0.025719
vn -0.111107 -0.993584 0.021117
vn -0.720426 -0.688228 0.085606
vn -0.218589 -0.973441 0.068048
vn -0.743180 -0.657889 0.121926
vn -0.758961 0.264978 0.594782
vn -0.525088 0.155118 0.836792
vn -0.855024 0.122643 0.503877
vn -0.566848 -0.180904 0.803715
vn 0.030504 -0.704805 0.708745
vn 0.226223 -0.929740 0.290529
vn -0.185551 -0.951207 0.246527
vn -0.421375 -0.871518 0.250797
vn -0.564278 -0.788794 0.243711
vn -0.755162 -0.643293 0.126114
vn -0.744864 -0.654869 0.127769
vn -0.717843 -0.680119 0.148795
vn -0.593675 -0.723664 0.351938
vn -0.775173 -0.619359 0.124500
vn -0.725581 -0.666439 0.171436
vn -0.831689 -0.542925 0.116297
vn -0.832246 -0.533616 0.150402
vn -0.850334 -0.514568 0.110236
vn -0.540040 -0.410872 0.734534
vn -0.159768 -0.662768 0.731582
vn -0.448748 -0.596945 0.665043
vn -0.686049 -0.384540 0.617629
vn -0.585561 -0.538421 0.605988
vn -0.606356 -0.516998 0.604189
vn -0.978012 -0.207884 0.016668
vn -0.987126 -0.150059 0.055366
vn -0.971808 -0.234282 0.026477
vn -0.896465 0.043848 0.440940
vn -0.870611 -0.145423 0.469988
vn -0.975326 0.025879 0.219246
vn -0.983311 0.025092 0.180193
vn -0.983508 -0.063025 0.169529
vn -0.991232 0.024066 0.129921
vn -0.990829 0.024110 0.132956
vn -0.991841 -0.053541 0.115691
vn -0.991044 -0.054580 0.121875
vn -0.991383 0.000106 0.130978
f 1//1 2//1 3//1
f 4//2 5//2 6//2
f 7//3 8//3 9//3
f 10//4 11//4 12//4
f 13//5 14//5 15//5
f 16//6 17//6 18//6
f 19//7 20//7 21//7
f 22//8 23//8 24//8
f 25//9 26//9 27//9
f 28//10 29//10 30//10
f 31//11 32//11 33//11
f 34//12 35//12 36//12
f 37//13 38//13 39//13
f 40//14 41//14 42//14
f 43//15 44//15 45//15
f 46//16 47//16 48//16
f 49//17 50//17 51//17
f 52//18 53//18 54//18
f 55//19 56//19 57//19
f 58//20 59//20 60//20
f 61//21 62//21 63//21
f 64//22 65//22 66//22
f 67//23 68//23 69//23
f 70//24 71//24 72//24
f 73//25 74//25 75//25
f 76//26 77//26 78//26
f 79//27 80//27 81//27
f 82//28 83//28 84//28
f 85//29 86//29 87//29
f 88//30 89//30 90//30
f 91//31 92//31 93//31
f 94//32 95//32 96//32
f 97//33 98//33 99//33
f 100//34 101//34 102//34
f 103//35 104//35 105//35
f 106//36 107//36 108//36
f 109//37 110//37 111//37
f 112//38 113//38 114//38
f 115//39 116//39 117//39
f 118//40 119//40 120//40
f 121//41 122//41 123//41
f 124//42 125//42 126//42
f 127//43 128//43 129//43
f 130//44 131//44 132//44
f 133//45 134//45 135//45
f 136//46 137//46 138//46
f 139//47 140//47 141//47
f 142//48 143//48 144//48
f 145//49 146//49 147//49
f 148//50 149//50 150//50
f 151//51 152//51 153//51
f 154//52 155//52 156//52
f 157//53 158//53 159//53
f 160//54 161//54 162//54
f 163//55 164//55 165//55
f 166//56 167//56 168//56
f 169//57 170//57 171//57
f 172//58 173//58 174//58
f 175//59 176//59 177//59
f 178//60 179//60 180//60
f 181//61 182//61 183//61
f 184//62 185//62 186//62
f 187//63 188//63 189//63
f 190//64 191//64 192//64
f 193//65 194//65 195//65
f 196//66 197//66 198//66
f 199//67 200//67 201//67
f 202//68 203//68 204//68
f 205//69 206//69 207//69
f 208//70 209//70 210//70
f 211//71 212//71 213//71
f 214//72 215//72 216//72
f 217//73 218//73 219//73
f 220//74 221//74 222//74
f 223//75 224//75 225//75
f 226//76 227//76 228//76
f 229//77 230//77 231//77
f 232//78 233//78 234//78
f 235//79 236//79 237//79
f 238//80 239//80 240//80
f 241//81 242//81 243//81
f 244//82 245//82 246//82
f 247//83 248//83 249//83
f 250//84 251//84 252//84
f 253//85 254//85 255//85
f 256//86 257//86 258//86
f 259//87 260//87 261//87
f 262//88 263//88 264//88
f 265//89 266//89 267//89
f 268//90 269//90 270//90
f 271//91 272//91 273//91
f 274//92 275//92 276//92
f 277//93 278//93 279//93
f 280//94 281//94 282//94
f 283//95 284//95 285//95
f 286//96 287//96 288//96
f 289//97 290//97 291//97
f 292//98 293//98 294//98
f 295//99 296//99 297//99
f 298//100 299//100 300//100
f 301//101 302//101 303//101
f 304//102 305//102 306//102
