o
v -3.443840 32.314789 16.440331
v 16.718416 10.954593 -19.015257
v 27.005495 10.170542 -15.763106
v 16.718416 10.954593 -19.015257
v 16.719528 20.027145 -34.318787
v 27.005495 10.170542 -15.763106
v -3.443840 32.314789 16.440331
v -6.646066 23.744646 -28.057520
v 16.718416 10.954593 -19.015257
v 16.718416 10.954593 -19.015257
v -6.646066 23.744646 -28.057520
v 16.719528 20.027145 -34.318787
v -6.646066 23.744646 -28.057520
v -6.621032 23.960642 -28.013409
v 16.719528 20.027145 -34.318787
v -6.621032 23.960642 -28.013409
v -6.571381 24.191511 -27.944748
v 16.719528 20.027145 -34.318787
v 41.529613 31.925182 -0.847260
v 38.661358 27.927263 -1.579840
v 27.005495 10.170542 -15.763106
v 41.529613 31.925182 -0.847260
v 27.005495 10.170542 -15.763106
v 40.660736 33.122356 -4.582865
v 41.529613 31.925182 -0.847260
v 40.660736 33.122356 -4.582865
v 41.239109 33.090492 -2.932547
v -3.443840 32.314789 16.440331
v 27.005495 10.170542 -15.763106
v 31.117462 22.696606 5.839958
v 38.661358 27.927263 -1.579840
v 31.117462 22.696606 5.839958
v 27.005495 10.170542 -15.763106
v 41.529613 31.925182 -0.847260
v 31.117462 22.696606 5.839958
v 38.661358 27.927263 -1.579840
v 16.719528 20.027145 -34.318787
v 39.696552 32.130325 -5.707447
v 27.005495 10.170542 -15.763106
v 27.005495 10.170542 -15.763106
v 39.696552 32.130325 -5.707447
v 40.660736 33.122356 -4.582865
v 16.719528 20.027145 -34.318787
v 40.660736 33.122356 -4.582865
v 39.696552 32.130325 -5.707447
v 40.660736 33.122356 -4.582865
v 40.882534 34.773907 -2.851032
v 41.239109 33.090492 -2.932547
v 41.529613 31.925182 -0.847260
v 41.239109 33.090492 -2.932547
v 40.882114 35.907253 -1.814448
v 40.882534 34.773907 -2.851032
v 40.882114 35.907253 -1.814448
v 41.239109 33.090492 -2.932547
v 40.660736 33.122356 -4.582865
v 39.638714 34.243549 -5.037519
v 40.882534 34.773907 -2.851032
v 40.882534 34.773907 -2.851032
v 39.638714 34.243549 -5.037519
v 40.882114 35.907253 -1.814448
v 41.529613 31.925182 -0.847260
v 40.882114 35.907253 -1.814448
v 40.531792 37.559196 0.568169
v 40.882114 35.907253 -1.814448
v 40.564148 37.209457 -0.663713
v 40.531792 37.559196 0.568169
v 41.529613 31.925182 -0.847260
v 38.947681 37.067062 1.967108
v 31.117462 22.696606 5.839958
v 41.529613 31.925182 -0.847260
v 40.531792 37.559196 0.568169
v 38.947681 37.067062 1.967108
v -3.443840 32.314789 16.440331
v 31.117462 22.696606 5.839958
v -3.037763 32.259472 16.375898
v 37.645191 38.738144 1.021542
v 36.047901 38.781044 2.049477
v 40.531792 37.559196 0.568169
v -3.443840 32.314789 16.440331
v -5.747415 36.800507 13.466473
v -6.646066 23.744646 -28.057520
v -6.571381 24.191511 -27.944748
v 19.601717 37.513683 -24.549742
v 16.719528 20.027145 -34.318787
v 16.719528 20.027145 -34.318787
v 19.601717 37.513683 -24.549742
v 40.660736 33.122356 -4.582865
v 40.660736 33.122356 -4.582865
v 19.601717 37.513683 -24.549742
v 39.638714 34.243549 -5.037519
v 39.638714 34.243549 -5.037519
v 19.601717 37.513683 -24.549742
v 40.882114 35.907253 -1.814448
v 40.882114 35.907253 -1.814448
v 19.601717 37.513683 -24.549742
v 40.564148 37.209457 -0.663713
v 40.531792 37.559196 0.568169
v 6.354502 40.065884 18.539581
v 38.947681 37.067062 1.967108
v 36.047901 38.781044 2.049477
v 6.354502 40.065884 18.539581
v 40.531792 37.559196 0.568169
v -3.443840 32.314789 16.440331
v 6.354502 40.065884 18.539581
v -5.747415 36.800507 13.466473
v 38.947681 37.067062 1.967108
v 14.496699 35.229996 16.105888
v 31.117462 22.696606 5.839958
v 6.354502 40.065884 18.539581
v 14.496699 35.229996 16.105888
v 38.947681 37.067062 1.967108
v 31.117462 22.696606 5.839958
v 14.496699 35.229996 16.105888
v -3.037763 32.259472 16.375898
v -3.443840 32.314789 16.440331
v -3.037763 32.259472 16.375898
v 14.496699 35.229996 16.105888
v -3.443840 32.314789 16.440331
v 14.496699 35.229996 16.105888
v 6.354502 40.065884 18.539581
v -6.646066 23.744646 -28.057520
v -6.818480 42.270550 -3.044617
v -6.621032 23.960642 -28.013409
v -5.747415 36.800507 13.466473
v -6.818480 42.270550 -3.044617
v -6.646066 23.744646 -28.057520
v -6.621032 23.960642 -28.013409
v -6.818480 42.270550 -3.044617
v -6.571381 24.191511 -27.944748
v 6.354502 40.065884 18.539581
v -4.182660 48.901508 -0.348570
v -5.747415 36.800507 13.466473
v -5.747415 36.800507 13.466473
v -4.182660 48.901508 -0.348570
v -6.818480 42.270550 -3.044617
v -6.818480 42.270550 -3.044617
v -4.182660 48.901508 -0.348570
v -6.571381 24.191511 -27.944748
v -4.182660 48.901508 -0.348570
v -2.761844 48.420113 -3.902541
v -6.571381 24.191511 -27.944748
v -4.182660 48.901508 -0.348570
v 0.287706 51.620525 -0.820945
v -2.761844 48.420113 -3.902541
v 6.354502 40.065884 18.539581
v -1.390406 49.230675 1.287336
v -4.182660 48.901508 -0.348570
v -4.182660 48.901508 -0.348570
v -1.390406 49.230675 1.287336
v 0.287706 51.620525 -0.820945
v 6.354502 40.065884 18.539581
v 0.287706 51.620525 -0.820945
v -1.390406 49.230675 1.287336
v 0.287706 51.620525 -0.820945
v 0.171655 51.181164 -1.692953
v -2.761844 48.420113 -3.902541
v -6.571381 24.191511 -27.944748
v 4.490205 45.925396 -14.905194
v 19.601717 37.513683 -24.549742
v -2.761844 48.420113 -3.902541
v 4.213558 47.484085 -13.238468
v -6.571381 24.191511 -27.944748
v -6.571381 24.191511 -27.944748
v 4.213558 47.484085 -13.238468
v 4.490205 45.925396 -14.905194
v 4.490205 45.925396 -14.905194
v 4.213558 47.484085 -13.238468
v 19.601717 37.513683 -24.549742
v 0.171655 51.181164 -1.692953
v 4.213558 47.484085 -13.238468
v -2.761844 48.420113 -3.902541
v 0.287706 51.620525 -0.820945
v 4.213559 47.484108 -13.238420
v 0.171655 51.181164 -1.692953
v 0.171655 51.181164 -1.692953
v 4.213559 47.484108 -13.238420
v 4.213558 47.484085 -13.238468
v 6.354502 40.065884 18.539581
v 3.721032 49.669289 3.891758
v 0.287706 51.620525 -0.820945
v 36.047901 38.781044 2.049477
v 9.666865 48.790768 6.008361
v 6.354502 40.065884 18.539581
v 6.354502 40.065884 18.539581
v 9.666865 48.790768 6.008361
v 3.721032 49.669289 3.891758
v 40.564148 37.209457 -0.663713
v 19.345545 48.325073 -1.029858
v 40.531792 37.559196 0.568169
v 37.645191 38.738144 1.021542
v 40.531792 37.559196 0.568169
v 19.345545 48.325073 -1.029858
v 3.721032 49.669289 3.891758
v 11.580435 50.408482 2.377672
v 0.287706 51.620525 -0.820945
v 9.666865 48.790768 6.008361
v 11.580435 50.408482 2.377672
v 3.721032 49.669289 3.891758
v 4.213559 47.484108 -13.238420
v 10.046830 50.414215 -7.341404
v 4.213558 47.484085 -13.238468
v 0.287706 51.620525 -0.820945
v 10.046830 50.414215 -7.341404
v 4.213559 47.484108 -13.238420
v 4.213558 47.484085 -13.238468
v 12.480588 47.392136 -12.022643
v 19.601717 37.513683 -24.549742
v 10.046830 50.414215 -7.341404
v 12.480588 47.392136 -12.022643
v 4.213558 47.484085 -13.238468
v 19.601717 37.513683 -24.549742
v 12.480588 47.392136 -12.022643
v 40.564148 37.209457 -0.663713
v 11.580435 50.408482 2.377672
v 14.189807 50.351612 -0.444223
v 0.287706 51.620525 -0.820945
v 0.287706 51.620525 -0.820945
v 14.189807 50.351612 -0.444223
v 10.046830 50.414215 -7.341404
v 19.345545 48.325073 -1.029858
v 14.189807 50.351612 -0.444223
v 11.580435 50.408482 2.377672
v 19.345545 48.325073 -1.029858
v 17.517317 49.058060 -1.621019
v 14.189807 50.351612 -0.444223
v 37.645191 38.738144 1.021542
v 14.680838 48.760151 2.986427
v 36.047901 38.781044 2.049477
v 36.047901 38.781044 2.049477
v 14.680838 48.760151 2.986427
v 9.666865 48.790768 6.008361
v 9.666865 48.790768 6.008361
v 14.680838 48.760151 2.986427
v 11.580435 50.408482 2.377672
v 37.645191 38.738144 1.021542
v 19.345545 48.325073 -1.029858
v 14.680838 48.760151 2.986427
v 19.345545 48.325073 -1.029858
v 11.580435 50.408482 2.377672
v 14.680838 48.760151 2.986427
v 40.564148 37.209457 -0.663713
v 14.502312 49.570450 -4.331079
v 19.345545 48.325073 -1.029858
v 19.345545 48.325073 -1.029858
v 14.502312 49.570450 -4.331079
v 17.517317 49.058060 -1.621019
v 12.480588 47.392136 -12.022643
v 14.502312 49.570450 -4.331079
v 40.564148 37.209457 -0.663713
v 10.046830 50.414215 -7.341404
v 14.502312 49.570450 -4.331079
v 12.480588 47.392136 -12.022643
v 14.189807 50.351612 -0.444223
v 14.502312 49.570450 -4.331079
v 10.046830 50.414215 -7.341404
v 17.517317 49.058060 -1.621019
v 14.502312 49.570450 -4.331079
v 14.189807 50.351612 -0.444223
vn -0.200129 -0.885377 0.419589
vn 0.095220 -0.856292 -0.507638
vn -0.528347 -0.825840 0.197076
vn -0.263825 -0.829713 -0.491907
vn -0.219772 0.219589 -0.950516
vn -0.196909 0.318147 -0.927367
vn 0.802976 -0.590671 0.079601
vn 0.874504 -0.364331 -0.320164
vn 0.883419 -0.345742 -0.316280
vn -0.081193 -0.855456 0.511472
vn 0.705648 -0.662961 0.250089
vn 0.736144 -0.589176 0.333111
vn 0.803757 -0.209524 -0.556843
vn 0.834296 -0.259392 -0.486483
vn 0.795289 -0.094054 -0.598889
vn 0.923713 0.211136 -0.319649
vn 0.987566 0.147137 -0.055356
vn 0.949328 0.212305 -0.231739
vn 0.725179 0.449534 -0.521570
vn 0.710254 0.475239 -0.519314
vn 0.985487 0.167269 0.028926
vn 0.957690 0.282487 -0.055046
vn 0.610533 -0.121765 0.782575
vn 0.671976 -0.066295 0.737600
vn 0.011577 -0.721461 0.692358
vn 0.385895 0.725903 0.569341
vn -0.915317 -0.378101 0.138691
vn -0.144093 0.500618 -0.853592
vn 0.692244 0.261638 -0.672565
vn 0.680131 0.361310 -0.637869
vn 0.615974 0.577538 -0.535748
vn 0.601431 0.606452 -0.520093
vn 0.398844 0.624638 0.671379
vn 0.392425 0.644281 0.656433
vn -0.439190 0.328751 0.836083
vn 0.502471 -0.041042 0.863619
vn 0.450537 0.343972 0.823832
vn 0.104859 -0.543245 0.833001
vn 0.085534 -0.422891 0.902135
vn 0.073733 -0.346479 0.935156
vn -0.984832 0.136117 -0.107604
vn -0.996863 -0.066736 0.042557
vn -0.943994 0.262481 -0.199945
vn -0.427761 0.703396 0.567675
vn -0.937828 0.306736 0.162457
vn -0.815410 0.464557 -0.345389
vn -0.779398 0.498782 -0.379151
vn -0.517315 0.795865 -0.314616
vn -0.415129 0.712968 0.565106
vn -0.398925 0.748023 0.530396
vn -0.361214 0.746548 0.558740
vn -0.498743 0.798909 -0.336155
vn -0.188887 0.574119 -0.796687
vn -0.607052 0.605792 -0.514300
vn -0.444500 0.616269 -0.650102
vn -0.032711 0.727277 -0.685564
vn -0.441928 0.797781 -0.410176
vn -0.327115 0.860695 -0.390128
vn -0.346310 0.851418 -0.393877
vn -0.334357 0.759473 0.558038
vn 0.361602 0.717607 0.595217
vn -0.075716 0.827593 0.556199
vn 0.454500 0.859947 -0.232207
vn 0.400636 0.842030 0.361215
vn -0.011539 0.920876 0.389684
vn -0.008367 0.915031 0.403297
vn -0.024533 0.904725 -0.425272
vn -0.116752 0.930604 -0.346908
vn 0.094673 0.807165 -0.582686
vn 0.084399 0.856563 -0.509095
vn 0.447793 0.808102 -0.382691
vn 0.089046 0.994077 0.062306
vn 0.092043 0.994680 -0.046260
vn 0.377507 0.864578 0.331652
vn 0.367414 0.929907 0.016733
vn 0.373346 0.747861 0.548924
vn 0.361886 0.719172 0.593153
vn 0.318751 0.791907 0.520846
vn 0.397899 0.838955 0.371256
vn 0.384023 0.852921 0.353627
vn 0.441877 0.832489 -0.334225
vn 0.441835 0.832544 -0.334143
vn 0.441185 0.826353 -0.349995
vn 0.394331 0.851796 -0.344885
vn 0.290624 0.942325 -0.166018
vn 0.306578 0.937647 -0.163795
f 1//1 2//1 3//1
f 4//2 5//2 6//2
f 7//3 8//3 9//3
f 10//4 11//4 12//4
f 13//5 14//5 15//5
f 16//6 17//6 18//6
f 19//7 20//7 21//7
f 22//8 23//8 24//8
f 25//9 26//9 27//9
f 28//10 29//10 30//10
f 31//11 32//11 33//11
f 34//12 35//12 36//12
f 37//13 38//13 39//13
f 40//14 41//14 42//14
f 43//15 44//15 45//15
f 46//16 47//16 48//16
f 49//17 50//17 51//17
f 52//18 53//18 54//18
f 55//19 56//19 57//19
f 58//20 59//20 60//20
f 61//21 62//21 63//21
f 64//22 65//22 66//22
f 67//23 68//23 69//23
f 70//24 71//24 72//24
f 73//25 74//25 75//25
f 76//26 77//26 78//26
f 79//27 80//27 81//27
f 82//28 83//28 84//28
f 85//29 86//29 87//29
f 88//30 89//30 90//30
f 91//31 92//31 93//31
f 94//32 95//32 96//32
f 97//33 98//33 99//33
f 100//34 101//34 102//34
f 103//35 104//35 105//35
f 106//36 107//36 108//36
f 109//37 110//37 111//37
f 112//38 113//38 114//38
f 115//39 116//39 117//39
f 118//40 119//40 120//40
f 121//41 122//41 123//41
f 124//42 125//42 126//42
f 127//43 128//43 129//43
f 130//44 131//44 132//44
f 133//45 134//45 135//45
f 136//46 137//46 138//46
f 139//47 140//47 141//47
f 142//48 143//48 144//48
f 145//49 146//49 147//49
f 148//50 149//50 150//50
f 151//51 152//51 153//51
f 154//52 155//52 156//52
f 157//53 158//53 159//53
f 160//54 161//54 162//54
f 163//55 164//55 165//55
f 166//56 167//56 168//56
f 169//57 170//57 171//57
f 172//58 173//58 174//58
f 175//59 176//59 177//59
f 178//60 179//60 180//60
f 181//61 182//61 183//61
f 184//62 185//62 186//62
f 187//63 188//63 189//63
f 190//64 191//64 192//64
f 193//65 194//65 195//65
f 196//66 197//66 198//66
f 199//67 200//67 201//67
f 202//68 203//68 204//68
f 205//69 206//69 207//69
f 208//70 209//70 210//70
f 211//71 212//71 213//71
f 214//72 215//72 216//72
f 217//73 218//73 219//73
f 220//74 221//74 222//74
f 223//75 224//75 225//75
f 226//76 227//76 228//76
f 229//77 230//77 231//77
f 232//78 233//78 234//78
f 235//79 236//79 237//79
f 238//80 239//80 240//80
f 241//81 242//81 243//81
f 244//82 245//82 246//82
f 247//83 248//83 249//83
f 250//84 251//84 252//84
f 253//85 254//85 255//85
f 256//86 257//86 258//86
