o
v -19.573513 2.967205 31.441597
v -19.534245 2.949888 31.483192
v -19.432531 3.085629 31.348919
v -19.573513 2.967205 31.441597
v -19.432531 3.085629 31.348919
v -40.636909 -4.718280 14.092845
v -19.573513 2.967205 31.441597
v -40.636909 -4.718280 14.092845
v -19.534245 2.949888 31.483192
v -19.534245 2.949888 31.483192
v 9.392007 -9.460917 39.079239
v -19.432531 3.085629 31.348919
v -19.432531 3.085629 31.348919
v 9.392007 -9.460917 39.079239
v 20.600250 7.695005 9.977299
v 9.392007 -9.460917 39.079239
v 26.578060 -6.775866 -2.740900
v 20.600250 7.695005 9.977299
v -40.636909 -4.718280 14.092845
v -13.815893 -9.850477 33.293640
v -19.534245 2.949888 31.483192
v -19.534245 2.949888 31.483192
v -13.815893 -9.850477 33.293640
v 9.392007 -9.460917 39.079239
v 26.578060 -6.775866 -2.740900
v -1.616497 -1.998325 -16.898956
v 20.600250 7.695005 9.977299
v -1.616497 -1.998325 -16.898956
v -1.682619 -2.050684 -16.967365
v -40.636909 -4.718280 14.092845
v 26.578060 -6.775866 -2.740900
v -1.682619 -2.050684 -16.967365
v -1.616497 -1.998325 -16.898956
v -19.432531 3.085629 31.348919
v -1.090513 -1.572441 -15.229053
v -40.636909 -4.718280 14.092845
v -1.616497 -1.998325 -16.898956
v -40.636909 -4.718280 14.092845
v -1.090513 -1.572441 -15.229053
v -19.432531 3.085629 31.348919
v 20.600250 7.695005 9.977299
v -1.090513 -1.572441 -15.229053
v -1.616497 -1.998325 -16.898956
v -1.090513 -1.572441 -15.229053
v 20.600250 7.695005 9.977299
v -1.682619 -2.050684 -16.967365
v -14.185892 -13.016550 -23.334543
v -40.636909 -4.718280 14.092845
v 26.578060 -6.775866 -2.740900
v 6.093555 -31.304499 -27.142220
v -1.682619 -2.050684 -16.967365
v -1.682619 -2.050684 -16.967365
v 6.093555 -31.304499 -27.142220
v -14.185892 -13.016550 -23.334543
v -14.185892 -13.016550 -23.334543
v -26.847738 -20.261131 -18.501356
v -40.636909 -4.718280 14.092845
v 6.093555 -31.304499 -27.142220
v -26.847738 -20.261131 -18.501356
v -14.185892 -13.016550 -23.334543
v 26.578060 -6.775866 -2.740900
v 15.546853 -29.908655 -19.770927
v 6.093555 -31.304499 -27.142220
v -40.636909 -4.718280 14.092845
v -19.525732 -23.592911 24.123844
v -13.815893 -9.850477 33.293640
v 15.546853 -29.908655 -19.770927
v 5.331985 -36.271015 -20.037874
v 6.093555 -31.304499 -27.142220
v 0.950321 -50.239605 0.308726
v 2.162259 -49.995228 1.076448
v 4.138995 -49.614033 3.228099
v -26.847738 -20.261131 -18.501356
v -29.547224 -33.019680 -1.062052
v -40.636909 -4.718280 14.092845
v 9.392007 -9.460917 39.079239
v 7.457648 -47.564220 6.214811
v 26.578060 -6.775866 -2.740900
v 26.578060 -6.775866 -2.740900
v 7.457648 -47.564220 6.214811
v 15.546853 -29.908655 -19.770927
v 4.138995 -49.614033 3.228099
v 15.546853 -29.908655 -19.770927
v 7.457648 -47.564220 6.214811
v 0.950321 -50.239605 0.308726
v 4.138995 -49.614033 3.228099
v -2.077864 -50.080528 3.848971
v 0.950321 -50.239605 0.308726
v -2.077864 -50.080528 3.848971
v 0.693843 -50.230865 0.503559
v 4.138995 -49.614033 3.228099
v 7.457648 -47.564220 6.214811
v 2.901410 -49.063335 4.760147
v 4.138995 -49.614033 3.228099
v 2.901410 -49.063335 4.760147
v -2.077864 -50.080528 3.848971
v -40.636909 -4.718280 14.092845
v -20.906647 -40.728752 15.421884
v -19.525732 -23.592911 24.123844
v -29.547224 -33.019680 -1.062052
v -20.906647 -40.728752 15.421884
v -40.636909 -4.718280 14.092845
v 9.392007 -9.460917 39.079239
v -2.650273 -36.992153 25.176174
v 7.457648 -47.564220 6.214811
v -13.815893 -9.850477 33.293640
v -2.650273 -36.992153 25.176174
v 9.392007 -9.460917 39.079239
v 7.457648 -47.564220 6.214811
v -2.650273 -36.992153 25.176174
v 2.901410 -49.063335 4.760147
v 2.901410 -49.063335 4.760147
v -2.650273 -36.992153 25.176174
v -2.077864 -50.080528 3.848971
v -2.077864 -50.080528 3.848971
v -2.650273 -36.992153 25.176174
v -20.906647 -40.728752 15.421884
v 15.546853 -29.908655 -19.770927
v 3.556182 -48.446026 -0.331231
v 5.331985 -36.271015 -20.037874
v 5.331985 -36.271015 -20.037874
v 3.556182 -48.446026 -0.331231
v 0.950321 -50.239605 0.308726
v 0.950321 -50.239605 0.308726
v 3.556182 -48.446026 -0.331231
v 2.162259 -49.995228 1.076448
v 2.162259 -49.995228 1.076448
v 3.556182 -48.446026 -0.331231
v 4.138995 -49.614033 3.228099
v 4.138995 -49.614033 3.228099
v 3.556182 -48.446026 -0.331231
v 15.546853 -29.908655 -19.770927
v -19.525732 -23.592911 24.123844
v -20.214874 -40.396751 15.959188
v -13.815893 -9.850477 33.293640
v -20.906647 -40.728752 15.421884
v -20.214874 -40.396751 15.959188
v -19.525732 -23.592911 24.123844
v -2.650273 -36.992153 25.176174
v -20.214874 -40.396751 15.959188
v -20.906647 -40.728752 15.421884
v -13.815893 -9.850477 33.293640
v -20.108896 -40.352844 16.027031
v -2.650273 -36.992153 25.176174
v -20.214874 -40.396751 15.959188
v -20.108896 -40.352844 16.027031
v -13.815893 -9.850477 33.293640
v -2.650273 -36.992153 25.176174
v -20.108896 -40.352844 16.027031
v -20.214874 -40.396751 15.959188
v 5.331985 -36.271015 -20.037874
v -8.301579 -40.244057 -14.947289
v 6.093555 -31.304499 -27.142220
v 5.331985 -36.271015 -20.037874
v 0.950321 -50.239605 0.308726
v -8.301579 -40.244057 -14.947289
v 6.093555 -31.304499 -27.142220
v -8.301579 -40.244057 -14.947289
v -26.847738 -20.261131 -18.501356
v -26.847738 -20.261131 -18.501356
v -8.301579 -40.244057 -14.947289
v -29.547224 -33.019680 -1.062052
v 0.950321 -50.239605 0.308726
v 0.693843 -50.230865 0.503559
v -14.785231 -44.686218 -1.639886
v 0.950321 -50.239605 0.308726
v -14.785231 -44.686218 -1.639886
v -8.301579 -40.244057 -14.947289
v -29.547224 -33.019680 -1.062052
v -14.785231 -44.686218 -1.639886
v -20.906647 -40.728752 15.421884
v -2.077864 -50.080528 3.848971
v -20.906647 -40.728752 15.421884
v -14.785231 -44.686218 -1.639886
v -2.077864 -50.080528 3.848971
v -14.785231 -44.686218 -1.639886
v 0.693843 -50.230865 0.503559
v -8.301579 -40.244057 -14.947289
v -14.785231 -44.686218 -1.639886
v -29.547224 -33.019680 -1.062052
vn -0.269689 0.771758 0.575897
vn -0.513885 0.816855 0.262050
vn -0.666051 0.209321 0.715934
vn 0.090754 0.665156 0.741169
vn 0.202834 0.807377 0.554077
vn 0.922964 0.045356 0.382205
vn -0.594467 -0.153940 0.789247
vn -0.242247 0.028943 0.969783
vn 0.414365 0.691362 -0.591878
vn -0.335834 0.876093 -0.345944
vn 0.462315 0.429619 -0.775688
vn -0.208738 0.961569 -0.178362
vn -0.209350 0.961277 -0.179218
vn -0.205390 0.962516 -0.177138
vn -0.198774 0.962819 -0.182943
vn -0.431128 0.767261 -0.474805
vn 0.464684 0.398543 -0.790717
vn 0.152377 0.360563 -0.920204
vn -0.563901 0.626957 -0.537532
vn -0.290687 -0.124828 -0.948641
vn 0.557821 0.302866 -0.772728
vn -0.594459 -0.260610 0.760724
vn 0.475693 -0.744048 -0.469157
vn 0.209125 -0.977706 -0.018911
vn -0.932548 -0.207014 -0.295803
vn 0.878191 -0.337184 0.339245
vn 0.904777 -0.425816 -0.007662
vn 0.667881 -0.695604 -0.264709
vn 0.086020 -0.989277 0.118030
vn 0.000168 -0.998986 0.045032
vn 0.150787 -0.885244 0.440007
vn 0.109100 -0.904119 0.413118
vn -0.621787 -0.314202 0.717397
vn -0.856357 -0.460584 0.233485
vn 0.564613 -0.555315 0.610604
vn -0.219823 -0.361430 0.906116
vn 0.108719 -0.842459 0.527676
vn 0.077693 -0.848794 0.522985
vn -0.103133 -0.848988 0.518251
vn 0.486029 -0.762401 -0.427224
vn 0.430556 -0.784677 -0.445985
vn 0.435089 -0.787732 -0.436091
vn 0.522716 -0.780959 -0.341865
vn 0.588618 -0.734614 -0.337448
vn -0.401990 -0.386769 0.829948
vn -0.449424 -0.375424 0.810602
vn -0.256784 -0.638757 0.725294
vn -0.363468 -0.401013 0.840880
vn -0.371957 -0.397975 0.838608
vn -0.351133 -0.434235 0.829545
vn 0.025977 -0.820614 -0.570892
vn 0.031549 -0.827161 -0.561078
vn -0.370342 -0.484654 -0.792437
vn -0.565630 -0.621388 -0.542162
vn -0.278458 -0.903416 -0.326038
vn -0.256363 -0.872419 -0.416129
vn -0.620514 -0.783124 -0.040983
vn -0.412797 -0.908665 0.062661
vn -0.303810 -0.929312 -0.209948
vn -0.551189 -0.673006 -0.493208
f 1//1 2//1 3//1
f 4//2 5//2 6//2
f 7//3 8//3 9//3
f 10//4 11//4 12//4
f 13//5 14//5 15//5
f 16//6 17//6 18//6
f 19//7 20//7 21//7
f 22//8 23//8 24//8
f 25//9 26//9 27//9
f 28//10 29//10 30//10
f 31//11 32//11 33//11
f 34//12 35//12 36//12
f 37//13 38//13 39//13
f 40//14 41//14 42//14
f 43//15 44//15 45//15
f 46//16 47//16 48//16
f 49//17 50//17 51//17
f 52//18 53//18 54//18
f 55//19 56//19 57//19
f 58//20 59//20 60//20
f 61//21 62//21 63//21
f 64//22 65//22 66//22
f 67//23 68//23 69//23
f 70//24 71//24 72//24
f 73//25 74//25 75//25
f 76//26 77//26 78//26
f 79//27 80//27 81//27
f 82//28 83//28 84//28
f 85//29 86//29 87//29
f 88//30 89//30 90//30
f 91//31 92//31 93//31
f 94//32 95//32 96//32
f 97//33 98//33 99//33
f 100//34 101//34 102//34
f 103//35 104//35 105//35
f 106//36 107//36 108//36
f 109//37 110//37 111//37
f 112//38 113//38 114//38
f 115//39 116//39 117//39
f 118//40 119//40 120//40
f 121//41 122//41 123//41
f 124//42 125//42 126//42
f 127//43 128//43 129//43
f 130//44 131//44 132//44
f 133//45 134//45 135//45
f 136//46 137//46 138//46
f 139//47 140//47 141//47
f 142//48 143//48 144//48
f 145//49 146//49 147//49
f 148//50 149//50 150//50
f 151//51 152//51 153//51
f 154//52 155//52 156//52
f 157//53 158//53 159//53
f 160//54 161//54 162//54
f 163//55 164//55 165//55
f 166//56 167//56 168//56
f 169//57 170//57 171//57
f 172//58 173//58 174//58
f 175//59 176//59 177//59
f 178//60 179//60 180//60
