o
v 95.079597 -238.679214 4.257270
v 55.936707 -233.103622 -55.405434
v 42.518005 -146.840424 -178.410568
v 95.079597 -238.679214 4.257270
v 55.651402 -240.990768 -23.015961
v 55.936707 -233.103622 -55.405434
v -73.644432 81.743462 180.703903
v -40.416981 43.990120 205.736053
v -78.677551 107.873932 147.661789
v -78.677551 107.873932 147.661789
v -40.416981 43.990120 205.736053
v -8.599934 26.168669 198.146439
v -133.775269 106.997749 -72.552917
v -203.641449 108.603127 71.957993
v -78.677551 107.873932 147.661789
v -193.056396 77.329506 -109.610153
v -203.641449 108.603127 71.957993
v -133.775269 106.997749 -72.552917
v 55.936707 -233.103622 -55.405434
v 14.388056 -227.159454 -74.297485
v 42.518005 -146.840424 -178.410568
v 14.388056 -227.159454 -74.297485
v 13.648077 -227.330307 -74.179817
v 42.518005 -146.840424 -178.410568
v 55.936707 -233.103622 -55.405434
v 13.648077 -227.330307 -74.179817
v 14.388056 -227.159454 -74.297485
v -73.644432 81.743462 180.703903
v -150.688187 86.610680 170.117950
v -40.416981 43.990120 205.736053
v -73.644432 81.743462 180.703903
v -78.677551 107.873932 147.661789
v -150.688187 86.610680 170.117950
v -203.641449 108.603127 71.957993
v -150.688187 86.610680 170.117950
v -78.677551 107.873932 147.661789
v 42.518005 -146.840424 -178.410568
v -175.251450 19.670008 -152.195557
v -133.775269 106.997749 -72.552917
v -193.056396 77.329506 -109.610153
v -133.775269 106.997749 -72.552917
v -175.251450 19.670008 -152.195557
v -193.056396 77.329506 -109.610153
v -212.862152 83.787598 -36.827820
v -203.641449 108.603127 71.957993
v 42.518005 -146.840424 -178.410568
v -133.775269 106.997749 -72.552917
v 33.858810 -54.916954 -82.123291
v 95.079597 -238.679214 4.257270
v 42.518005 -146.840424 -178.410568
v 33.858810 -54.916954 -82.123291
v 42.518005 -146.840424 -178.410568
v -87.265533 -117.887466 -190.246674
v -175.251450 19.670008 -152.195557
v -150.688187 86.610680 170.117950
v -154.112244 68.849731 179.593719
v -40.416981 43.990120 205.736053
v -212.862152 83.787598 -36.827820
v -243.770584 52.985569 -29.677677
v -203.641449 108.603127 71.957993
v -193.056396 77.329506 -109.610153
v -243.770584 52.985569 -29.677677
v -212.862152 83.787598 -36.827820
v 13.648077 -227.330307 -74.179817
v -52.699146 -153.590195 -158.455078
v 42.518005 -146.840424 -178.410568
v 42.518005 -146.840424 -178.410568
v -52.699146 -153.590195 -158.455078
v -87.265533 -117.887466 -190.246674
v 95.079597 -238.679214 4.257270
v -11.251994 -253.523880 -30.448973
v 55.651402 -240.990768 -23.015961
v 68.277206 -243.145370 2.296663
v -11.251994 -253.523880 -30.448973
v 95.079597 -238.679214 4.257270
v 55.936707 -233.103622 -55.405434
v -11.251994 -253.523880 -30.448973
v 13.648077 -227.330307 -74.179817
v 55.651402 -240.990768 -23.015961
v -11.251994 -253.523880 -30.448973
v 55.936707 -233.103622 -55.405434
v 95.079597 -238.679214 4.257270
v 25.097237 -10.018979 116.357498
v -8.599934 26.168669 198.146439
v 95.079597 -238.679214 4.257270
v 33.858810 -54.916954 -82.123291
v 25.097237 -10.018979 116.357498
v -78.677551 107.873932 147.661789
v -8.599934 26.168669 198.146439
v 25.097237 -10.018979 116.357498
v -203.641449 108.603127 71.957993
v -212.343155 52.957054 131.591934
v -150.688187 86.610680 170.117950
v -150.688187 86.610680 170.117950
v -212.343155 52.957054 131.591934
v -154.112244 68.849731 179.593719
v 13.648077 -227.330307 -74.179817
v -30.810104 -200.036407 -100.268150
v -52.699146 -153.590195 -158.455078
v -11.251994 -253.523880 -30.448973
v -30.810104 -200.036407 -100.268150
v 13.648077 -227.330307 -74.179817
v -193.056396 77.329506 -109.610153
v -175.251450 19.670008 -152.195557
v -236.538071 0.965771 -84.314194
v -175.251450 19.670008 -152.195557
v -237.304169 -1.850530 -84.228073
v -236.538071 0.965771 -84.314194
v -154.112244 68.849731 179.593719
v -111.099602 8.492636 213.319550
v -40.416981 43.990120 205.736053
v -193.056396 77.329506 -109.610153
v -249.556564 -4.641711 -64.007919
v -243.770584 52.985569 -29.677677
v -193.056396 77.329506 -109.610153
v -236.538071 0.965771 -84.314194
v -249.556564 -4.641711 -64.007919
v -237.304169 -1.850530 -84.228073
v -249.556564 -4.641711 -64.007919
v -236.538071 0.965771 -84.314194
v -237.569366 -4.625171 -83.018272
v -249.556564 -4.641711 -64.007919
v -237.304169 -1.850530 -84.228073
v -237.569366 -4.625171 -83.018272
v -237.505325 -8.613954 -81.878754
v -249.556564 -4.641711 -64.007919
v -175.251450 19.670008 -152.195557
v -235.242218 -9.649135 -85.014038
v -237.304169 -1.850530 -84.228073
v -237.569366 -4.625171 -83.018272
v -237.304169 -1.850530 -84.228073
v -235.242218 -9.649135 -85.014038
v -237.569366 -4.625171 -83.018272
v -235.242218 -9.649135 -85.014038
v -237.505325 -8.613954 -81.878754
v -133.775269 106.997749 -72.552917
v -78.677551 107.873932 147.661789
v -28.595863 33.125751 4.252697
v -133.775269 106.997749 -72.552917
v -28.595863 33.125751 4.252697
v 33.858810 -54.916954 -82.123291
v 33.858810 -54.916954 -82.123291
v -28.595863 33.125751 4.252697
v 25.097237 -10.018979 116.357498
v -78.677551 107.873932 147.661789
v 25.097237 -10.018979 116.357498
v -28.595863 33.125751 4.252697
v -111.099602 8.492636 213.319550
v -113.058563 -1.947672 214.285477
v -40.416981 43.990120 205.736053
v -243.770584 52.985569 -29.677677
v -224.871399 42.942917 100.844337
v -203.641449 108.603127 71.957993
v -203.641449 108.603127 71.957993
v -224.871399 42.942917 100.844337
v -212.343155 52.957054 131.591934
v -212.343155 52.957054 131.591934
v -157.089813 3.635853 206.956848
v -154.112244 68.849731 179.593719
v -154.112244 68.849731 179.593719
v -157.089813 3.635853 206.956848
v -111.099602 8.492636 213.319550
v -111.099602 8.492636 213.319550
v -157.517715 1.286140 207.565521
v -113.058563 -1.947672 214.285477
v -157.089813 3.635853 206.956848
v -157.517715 1.286140 207.565521
v -111.099602 8.492636 213.319550
v -212.343155 52.957054 131.591934
v -157.517715 1.286140 207.565521
v -157.089813 3.635853 206.956848
v 68.277206 -243.145370 2.296663
v 95.079597 -238.679214 4.257270
v -17.957312 -240.829865 61.497822
v -237.505325 -8.613954 -81.878754
v -244.418854 -14.197356 -68.335808
v -249.556564 -4.641711 -64.007919
v -235.242218 -9.649135 -85.014038
v -244.418854 -14.197356 -68.335808
v -237.505325 -8.613954 -81.878754
v -157.517715 1.286140 207.565521
v -158.552094 -3.973284 208.037582
v -113.058563 -1.947672 214.285477
v -157.517715 1.286140 207.565521
v -160.245667 -5.746824 207.201172
v -158.552094 -3.973284 208.037582
v -212.343155 52.957054 131.591934
v -198.409576 -1.967415 166.600586
v -157.517715 1.286140 207.565521
v -157.517715 1.286140 207.565521
v -198.409576 -1.967415 166.600586
v -160.245667 -5.746824 207.201172
v -160.245667 -5.746824 207.201172
v -198.409576 -1.967415 166.600586
v -160.453903 -5.936655 207.046249
v 68.277206 -243.145370 2.296663
v -17.957312 -240.829865 61.497822
v -78.221764 -252.773071 34.861153
v 68.277206 -243.145370 2.296663
v -81.507584 -253.127106 34.284714
v -11.251994 -253.523880 -30.448973
v 68.277206 -243.145370 2.296663
v -78.221764 -252.773071 34.861153
v -81.507584 -253.127106 34.284714
v -17.957312 -240.829865 61.497822
v -81.287292 -253.022675 34.634468
v -78.221764 -252.773071 34.861153
v -78.221764 -252.773071 34.861153
v -81.287292 -253.022675 34.634468
v -81.507584 -253.127106 34.284714
v -11.251994 -253.523880 -30.448973
v -85.126862 -238.977829 -19.644461
v -30.810104 -200.036407 -100.268150
v -198.409576 -1.967415 166.600586
v -191.978043 -25.552792 173.332504
v -160.453903 -5.936655 207.046249
v -81.507584 -253.127106 34.284714
v -90.917831 -251.594742 35.109554
v -11.251994 -253.523880 -30.448973
v -11.251994 -253.523880 -30.448973
v -90.917831 -251.594742 35.109554
v -85.126862 -238.977829 -19.644461
v -81.287292 -253.022675 34.634468
v -90.917831 -251.594742 35.109554
v -81.507584 -253.127106 34.284714
v -87.265533 -117.887466 -190.246674
v -200.795074 -91.665237 -100.380798
v -175.251450 19.670008 -152.195557
v -175.251450 19.670008 -152.195557
v -200.795074 -91.665237 -100.380798
v -235.242218 -9.649135 -85.014038
v -235.242218 -9.649135 -85.014038
v -200.795074 -91.665237 -100.380798
v -244.418854 -14.197356 -68.335808
v -191.978043 -25.552792 173.332504
v -193.847122 -29.508949 171.123795
v -160.453903 -5.936655 207.046249
v -198.409576 -1.967415 166.600586
v -193.847122 -29.508949 171.123795
v -191.978043 -25.552792 173.332504
v -40.416981 43.990120 205.736053
v -92.346603 -90.849182 202.552231
v -8.599934 26.168669 198.146439
v -113.058563 -1.947672 214.285477
v -92.346603 -90.849182 202.552231
v -40.416981 43.990120 205.736053
v 95.079597 -238.679214 4.257270
v -8.599934 26.168669 198.146439
v -92.346603 -90.849182 202.552231
v -158.552094 -3.973284 208.037582
v -92.346603 -90.849182 202.552231
v -113.058563 -1.947672 214.285477
v -160.245667 -5.746824 207.201172
v -92.346603 -90.849182 202.552231
v -158.552094 -3.973284 208.037582
v 95.079597 -238.679214 4.257270
v -48.412434 -207.376694 104.926071
v -17.957312 -240.829865 61.497822
v 95.079597 -238.679214 4.257270
v -92.346603 -90.849182 202.552231
v -48.431221 -207.137070 105.131378
v 95.079597 -238.679214 4.257270
v -48.431221 -207.137070 105.131378
v -48.412434 -207.376694 104.926071
v -90.917831 -251.594742 35.109554
v -100.161140 -236.994629 0.688203
v -85.126862 -238.977829 -19.644461
v -17.957312 -240.829865 61.497822
v -77.339058 -208.799744 113.487152
v -81.287292 -253.022675 34.634468
v -81.287292 -253.022675 34.634468
v -77.339058 -208.799744 113.487152
v -90.917831 -251.594742 35.109554
v -48.412434 -207.376694 104.926071
v -77.339058 -208.799744 113.487152
v -17.957312 -240.829865 61.497822
v -92.346603 -90.849182 202.552231
v -77.339058 -208.799744 113.487152
v -48.431221 -207.137070 105.131378
v -96.715858 -93.018356 200.641754
v -77.339058 -208.799744 113.487152
v -92.346603 -90.849182 202.552231
v -48.431221 -207.137070 105.131378
v -77.339058 -208.799744 113.487152
v -48.412434 -207.376694 104.926071
v -30.810104 -200.036407 -100.268150
v -160.192551 -181.572189 -70.901154
v -52.699146 -153.590195 -158.455078
v -85.126862 -238.977829 -19.644461
v -160.192551 -181.572189 -70.901154
v -30.810104 -200.036407 -100.268150
v -52.699146 -153.590195 -158.455078
v -160.192551 -181.572189 -70.901154
v -87.265533 -117.887466 -190.246674
v -100.161140 -236.994629 0.688203
v -158.247818 -186.050095 -64.858032
v -85.126862 -238.977829 -19.644461
v -85.126862 -238.977829 -19.644461
v -158.247818 -186.050095 -64.858032
v -160.192551 -181.572189 -70.901154
v -244.418854 -14.197356 -68.335808
v -192.041992 -168.511871 -61.716064
v -249.556564 -4.641711 -64.007919
v -200.795074 -91.665237 -100.380798
v -192.041992 -168.511871 -61.716064
v -244.418854 -14.197356 -68.335808
v -87.265533 -117.887466 -190.246674
v -192.041992 -168.511871 -61.716064
v -200.795074 -91.665237 -100.380798
v -160.192551 -181.572189 -70.901154
v -192.041992 -168.511871 -61.716064
v -87.265533 -117.887466 -190.246674
v -158.247818 -186.050095 -64.858032
v -192.041992 -168.511871 -61.716064
v -160.192551 -181.572189 -70.901154
v -90.917831 -251.594742 35.109554
v -192.041992 -168.511871 -61.716064
v -100.161140 -236.994629 0.688203
v -100.161140 -236.994629 0.688203
v -192.041992 -168.511871 -61.716064
v -158.247818 -186.050095 -64.858032
v -249.556564 -4.641711 -64.007919
v -226.630371 -40.450481 102.858452
v -243.770584 52.985569 -29.677677
v -243.770584 52.985569 -29.677677
v -226.630371 -40.450481 102.858452
v -224.871399 42.942917 100.844337
v -226.630371 -40.450481 102.858452
v -226.627090 -40.500530 102.883324
v -224.871399 42.942917 100.844337
v -249.556564 -4.641711 -64.007919
v -226.627090 -40.500530 102.883324
v -226.630371 -40.450481 102.858452
v -198.409576 -1.967415 166.600586
v -225.536880 -43.511745 108.088570
v -193.847122 -29.508949 171.123795
v -224.871399 42.942917 100.844337
v -225.536880 -43.511745 108.088570
v -212.343155 52.957054 131.591934
v -212.343155 52.957054 131.591934
v -225.536880 -43.511745 108.088570
v -198.409576 -1.967415 166.600586
v -226.627090 -40.500530 102.883324
v -225.536880 -43.511745 108.088570
v -224.871399 42.942917 100.844337
v -193.847122 -29.508949 171.123795
v -157.313324 -90.605576 183.936203
v -160.453903 -5.936655 207.046249
v -160.245667 -5.746824 207.201172
v -160.453903 -5.936655 207.046249
v -157.313324 -90.605576 183.936203
v -160.245667 -5.746824 207.201172
v -157.313324 -90.605576 183.936203
v -92.346603 -90.849182 202.552231
v -96.715858 -93.018356 200.641754
v -92.346603 -90.849182 202.552231
v -157.313324 -90.605576 183.936203
v -96.715858 -93.018356 200.641754
v -157.313324 -90.605576 183.936203
v -77.339058 -208.799744 113.487152
v -193.847122 -29.508949 171.123795
v -185.343353 -66.676086 164.087067
v -157.313324 -90.605576 183.936203
v -157.313324 -90.605576 183.936203
v -164.395386 -99.413750 172.408051
v -77.339058 -208.799744 113.487152
v -185.343353 -66.676086 164.087067
v -164.395386 -99.413750 172.408051
v -157.313324 -90.605576 183.936203
v -90.917831 -251.594742 35.109554
v -181.130646 -177.912399 -39.594379
v -192.041992 -168.511871 -61.716064
v -164.395386 -99.413750 172.408051
v -164.454544 -101.842957 169.946213
v -77.339058 -208.799744 113.487152
v -192.041992 -168.511871 -61.716064
v -220.079788 -133.751999 -20.041674
v -249.556564 -4.641711 -64.007919
v -90.917831 -251.594742 35.109554
v -102.969452 -238.977997 39.526634
v -219.667374 -137.343399 -0.215870
v -90.917831 -251.594742 35.109554
v -219.667374 -137.343399 -0.215870
v -181.130646 -177.912399 -39.594379
v -181.130646 -177.912399 -39.594379
v -219.667374 -137.343399 -0.215870
v -192.041992 -168.511871 -61.716064
v -192.041992 -168.511871 -61.716064
v -219.667374 -137.343399 -0.215870
v -220.079788 -133.751999 -20.041674
v -220.079788 -133.751999 -20.041674
v -219.667374 -137.343399 -0.215870
v -249.556564 -4.641711 -64.007919
v -249.556564 -4.641711 -64.007919
v -224.607956 -102.351517 91.603165
v -226.627090 -40.500530 102.883324
v -226.627090 -40.500530 102.883324
v -224.607956 -102.351517 91.603165
v -225.536880 -43.511745 108.088570
v -225.536880 -43.511745 108.088570
v -224.607956 -102.351517 91.603165
v -193.847122 -29.508949 171.123795
v -193.847122 -29.508949 171.123795
v -224.607956 -102.351517 91.603165
v -185.343353 -66.676086 164.087067
v -185.343353 -66.676086 164.087067
v -183.662064 -103.532127 145.712082
v -164.395386 -99.413750 172.408051
v -224.607956 -102.351517 91.603165
v -183.662064 -103.532127 145.712082
v -185.343353 -66.676086 164.087067
v -219.667374 -137.343399 -0.215870
v -225.927307 -98.294548 79.076073
v -249.556564 -4.641711 -64.007919
v -249.556564 -4.641711 -64.007919
v -225.927307 -98.294548 79.076073
v -224.607956 -102.351517 91.603165
v -224.607956 -102.351517 91.603165
v -225.927307 -98.294548 79.076073
v -219.667374 -137.343399 -0.215870
v -224.607956 -102.351517 91.603165
v -219.667374 -137.343399 -0.215870
v -215.022278 -118.480103 87.422150
v -102.969452 -238.977997 39.526634
v -212.188202 -122.419731 84.102112
v -219.667374 -137.343399 -0.215870
v -219.667374 -137.343399 -0.215870
v -212.188202 -122.419731 84.102112
v -215.022278 -118.480103 87.422150
v -164.454544 -101.842957 169.946213
v -180.380157 -142.395340 119.333702
v -77.339058 -208.799744 113.487152
v -164.395386 -99.413750 172.408051
v -180.380157 -142.395340 119.333702
v -164.454544 -101.842957 169.946213
v -183.662064 -103.532127 145.712082
v -180.380157 -142.395340 119.333702
v -164.395386 -99.413750 172.408051
v -224.607956 -102.351517 91.603165
v -180.380157 -142.395340 119.333702
v -183.662064 -103.532127 145.712082
v -77.339058 -208.799744 113.487152
v -180.380157 -142.395340 119.333702
v -90.917831 -251.594742 35.109554
v -90.917831 -251.594742 35.109554
v -180.380157 -142.395340 119.333702
v -102.969452 -238.977997 39.526634
v -224.607956 -102.351517 91.603165
v -215.022278 -118.480103 87.422150
v -180.380157 -142.395340 119.333702
v -102.969452 -238.977997 39.526634
v -180.380157 -142.395340 119.333702
v -212.188202 -122.419731 84.102112
v -212.188202 -122.419731 84.102112
v -180.380157 -142.395340 119.333702
v -215.022278 -118.480103 87.422150
vn 0.651276 -0.586060 -0.482051
vn 0.214288 -0.949470 -0.229318
vn 0.447676 0.733301 0.511719
vn 0.515091 0.724647 0.457785
vn 0.009718 0.999932 -0.006410
vn -0.348678 0.920030 -0.178795
vn 0.148359 -0.801991 -0.578619
vn 0.090480 -0.800197 -0.592873
vn 0.113685 -0.848421 -0.516969
vn -0.087378 0.495936 0.863952
vn -0.036291 0.781154 0.623283
vn -0.180328 0.934578 0.306669
vn 0.326093 0.547777 -0.770457
vn 0.169715 0.618853 -0.766953
vn -0.357936 0.916482 -0.178723
vn 0.568118 0.620161 -0.540964
vn 0.956973 0.247985 -0.150685
vn 0.163884 0.358994 -0.918839
vn -0.094636 0.482743 0.870634
vn -0.713759 0.693543 -0.097708
vn -0.711742 0.655734 -0.251866
vn -0.075224 -0.779046 -0.622437
vn -0.095358 -0.711889 -0.695788
vn 0.202642 -0.956046 -0.211925
vn 0.170902 -0.979725 -0.104553
vn 0.090504 -0.876235 -0.473308
vn 0.203815 -0.951625 -0.229934
vn 0.935596 0.124339 0.330453
vn 0.952111 0.304569 -0.026867
vn 0.753010 0.657728 0.019228
vn -0.631720 0.610603 0.477591
vn -0.637103 0.454823 0.622283
vn -0.149284 -0.799407 -0.581948
vn -0.158302 -0.804729 -0.572147
vn -0.753278 0.224085 -0.618351
vn -0.754236 0.185912 -0.629734
vn -0.114856 0.420928 0.899793
vn -0.837643 0.339168 -0.428158
vn -0.833889 0.327701 -0.444119
vn -0.847997 0.215873 -0.484045
vn -0.836242 -0.150044 -0.527433
vn -0.834396 -0.163745 -0.526280
vn -0.714137 -0.119301 -0.689765
vn -0.819662 -0.161322 -0.549663
vn -0.824797 -0.167522 -0.540043
vn 0.644434 0.746820 -0.164209
vn 0.668064 0.705623 -0.236191
vn 0.754819 0.646153 -0.112845
vn 0.734896 0.671708 -0.093468
vn 0.066791 0.079487 0.994596
vn -0.916192 0.367019 0.160901
vn -0.889780 0.391146 0.235153
vn -0.653221 0.318124 0.687095
vn -0.166389 0.387968 0.906529
vn -0.140078 0.117246 0.983174
vn -0.160181 0.274761 0.948076
vn -0.666078 0.298379 0.683600
vn 0.141970 -0.959246 0.244317
vn -0.831224 -0.214652 -0.512826
vn -0.823331 -0.234353 -0.516919
vn -0.140203 0.115832 0.983324
vn -0.584655 0.185865 0.789704
vn -0.694691 0.252964 0.673360
vn -0.697144 0.235325 0.677210
vn -0.701517 0.215045 0.679433
vn 0.107296 -0.975031 0.194427
vn 0.087654 -0.990997 0.101205
vn 0.088367 -0.990573 0.104676
vn 0.055167 -0.951735 0.301921
vn 0.060140 -0.966216 0.250618
vn -0.238038 -0.802056 -0.547763
vn -0.729369 -0.003629 0.684110
vn -0.173585 -0.967769 -0.182460
vn -0.221323 -0.944916 -0.241144
vn -0.120187 -0.927958 0.352773
vn -0.636106 -0.200786 -0.745019
vn -0.699384 -0.163373 -0.695824
vn -0.818988 -0.246932 -0.517960
vn -0.714019 -0.052443 0.698159
vn -0.749450 -0.015450 0.661881
vn 0.181441 -0.092993 0.978995
vn 0.172000 -0.089405 0.981032
vn 0.534029 -0.353270 0.768123
vn -0.127383 -0.158892 0.979044
vn -0.225160 -0.231347 0.946458
vn 0.373870 -0.589347 0.716165
vn 0.432679 -0.477331 0.764816
vn 0.375971 -0.585725 0.718033
vn -0.445593 -0.860914 -0.245507
vn -0.040353 -0.870624 0.490292
vn -0.104093 -0.865226 0.490457
vn 0.238331 -0.681398 0.692023
vn 0.259526 -0.560710 0.786289
vn -0.046600 -0.605719 0.794313
vn 0.250836 -0.618419 0.744741
vn -0.238950 -0.800744 -0.549284
vn -0.238799 -0.801623 -0.548066
vn -0.268035 -0.772324 -0.575910
vn -0.458112 -0.851324 -0.255699
vn -0.269687 -0.813174 -0.515768
vn -0.881472 -0.314305 -0.352449
vn -0.854358 -0.307941 -0.418623
vn -0.622855 -0.407085 -0.668082
vn -0.444237 -0.648903 -0.617720
vn -0.446201 -0.781730 -0.435664
vn -0.474728 -0.848850 -0.232566
vn -0.464256 -0.849930 -0.249171
vn -0.990084 0.016288 0.139526
vn -0.989117 0.024367 0.145096
vn -0.983311 0.025092 0.180193
vn -0.990601 0.003026 0.136750
vn -0.884787 -0.070931 0.460566
vn -0.929662 0.037863 0.366463
vn -0.913925 0.026314 0.405030
vn -0.975326 0.025879 0.219247
vn -0.635525 -0.225150 0.738522
vn -0.417843 -0.253618 0.872402
vn -0.266647 -0.263390 0.927106
vn -0.265557 -0.278120 0.923108
vn -0.233169 -0.609437 0.757772
vn -0.703755 -0.284285 0.651084
vn -0.333664 -0.638916 0.693148
vn -0.704030 -0.285178 0.650397
vn -0.617619 -0.785930 -0.029342
vn -0.378913 -0.654162 0.654597
vn -0.888050 -0.316350 -0.333602
vn -0.679985 -0.711522 0.177079
vn -0.675047 -0.731845 0.093353
vn -0.702366 -0.710421 0.044546
vn -0.822736 -0.562077 -0.084704
vn -0.973093 -0.229423 -0.021317
vn -0.990719 -0.055011 0.124297
vn -0.983508 -0.063025 0.169530
vn -0.870611 -0.145423 0.469988
vn -0.777521 -0.284111 0.561019
vn -0.742032 -0.325911 0.585808
vn -0.759426 -0.317701 0.567749
vn -0.977785 -0.208080 0.025279
vn -0.982988 -0.177833 0.045936
vn -0.974976 -0.220080 0.031410
vn -0.830038 -0.534546 0.159051
vn -0.680547 -0.708753 0.185810
vn -0.718775 -0.670863 0.182495
vn -0.386413 -0.656632 0.647703
vn -0.411039 -0.643940 0.645282
vn -0.692546 -0.444251 0.568350
vn -0.725347 -0.427483 0.539565
vn -0.453659 -0.746771 0.486340
vn -0.667369 -0.712892 0.215413
vn -0.740227 -0.542796 0.396782
vn -0.673628 -0.709872 0.205687
vn -0.687544 -0.688663 0.230276
f 1//1 2//1 3//1
f 4//2 5//2 6//2
f 7//3 8//3 9//3
f 10//4 11//4 12//4
f 13//5 14//5 15//5
f 16//6 17//6 18//6
f 19//7 20//7 21//7
f 22//8 23//8 24//8
f 25//9 26//9 27//9
f 28//10 29//10 30//10
f 31//11 32//11 33//11
f 34//12 35//12 36//12
f 37//13 38//13 39//13
f 40//14 41//14 42//14
f 43//15 44//15 45//15
f 46//16 47//16 48//16
f 49//17 50//17 51//17
f 52//18 53//18 54//18
f 55//19 56//19 57//19
f 58//20 59//20 60//20
f 61//21 62//21 63//21
f 64//22 65//22 66//22
f 67//23 68//23 69//23
f 70//24 71//24 72//24
f 73//25 74//25 75//25
f 76//26 77//26 78//26
f 79//27 80//27 81//27
f 82//28 83//28 84//28
f 85//29 86//29 87//29
f 88//30 89//30 90//30
f 91//31 92//31 93//31
f 94//32 95//32 96//32
f 97//33 98//33 99//33
f 100//34 101//34 102//34
f 103//35 104//35 105//35
f 106//36 107//36 108//36
f 109//37 110//37 111//37
f 112//38 113//38 114//38
f 115//39 116//39 117//39
f 118//40 119//40 120//40
f 121//41 122//41 123//41
f 124//42 125//42 126//42
f 127//43 128//43 129//43
f 130//44 131//44 132//44
f 133//45 134//45 135//45
f 136//46 137//46 138//46
f 139//47 140//47 141//47
f 142//48 143//48 144//48
f 145//49 146//49 147//49
f 148//50 149//50 150//50
f 151//51 152//51 153//51
f 154//52 155//52 156//52
f 157//53 158//53 159//53
f 160//54 161//54 162//54
f 163//55 164//55 165//55
f 166//56 167//56 168//56
f 169//57 170//57 171//57
f 172//58 173//58 174//58
f 175//59 176//59 177//59
f 178//60 179//60 180//60
f 181//61 182//61 183//61
f 184//62 185//62 186//62
f 187//63 188//63 189//63
f 190//64 191//64 192//64
f 193//65 194//65 195//65
f 196//66 197//66 198//66
f 199//67 200//67 201//67
f 202//68 203//68 204//68
f 205//69 206//69 207//69
f 208//70 209//70 210//70
f 211//71 212//71 213//71
f 214//72 215//72 216//72
f 217//73 218//73 219//73
f 220//74 221//74 222//74
f 223//75 224//75 225//75
f 226//76 227//76 228//76
f 229//77 230//77 231//77
f 232//78 233//78 234//78
f 235//79 236//79 237//79
f 238//80 239//80 240//80
f 241//81 242//81 243//81
f 244//82 245//82 246//82
f 247//83 248//83 249//83
f 250//84 251//84 252//84
f 253//85 254//85 255//85
f 256//86 257//86 258//86
f 259//87 260//87 261//87
f 262//88 263//88 264//88
f 265//89 266//89 267//89
f 268//90 269//90 270//90
f 271//91 272//91 273//91
f 274//92 275//92 276//92
f 277//93 278//93 279//93
f 280//94 281//94 282//94
f 283//95 284//95 285//95
f 286//96 287//96 288//96
f 289//97 290//97 291//97
f 292//98 293//98 294//98
f 295//99 296//99 297//99
f 298//100 299//100 300//100
f 301//101 302//101 303//101
f 304//102 305//102 306//102
f 307//103 308//103 309//103
f 310//104 311//104 312//104
f 313//105 314//105 315//105
f 316//106 317//106 318//106
f 319//107 320//107 321//107
f 322//108 323//108 324//108
f 325//109 326//109 327//109
f 328//110 329//110 330//110
f 331//111 332//111 333//111
f 334//112 335//112 336//112
f 337//113 338//113 339//113
f 340//114 341//114 342//114
f 343//115 344//115 345//115
f 346//116 347//116 348//116
f 349//117 350//117 351//117
f 352//118 353//118 354//118
f 355//119 356//119 357//119
f 358//120 359//120 360//120
f 361//121 362//121 363//121
f 364//122 365//122 366//122
f 367//123 368//123 369//123
f 370//124 371//124 372//124
f 373//125 374//125 375//125
f 376//126 377//126 378//126
f 379//127 380//127 381//127
f 382//128 383//128 384//128
f 385//129 386//129 387//129
f 388//130 389//130 390//130
f 391//131 392//131 393//131
f 394//132 395//132 396//132
f 397//133 398//133 399//133
f 400//134 401//134 402//134
f 403//135 404//135 405//135
f 406//136 407//136 408//136
f 409//137 410//137 411//137
f 412//138 413//138 414//138
f 415//139 416//139 417//139
f 418//140 419//140 420//140
f 421//141 422//141 423//141
f 424//142 425//142 426//142
f 427//143 428//143 429//143
f 430//144 431//144 432//144
f 433//145 434//145 435//145
f 436//146 437//146 438//146
f 439//147 440//147 441//147
f 442//148 443//148 444//148
f 445//149 446//149 447//149
f 448//150 449//150 450//150
f 451//151 452//151 453//151
f 454//152 455//152 456//152
