o
v 8.503601 -29.368084 -35.682114
v -35.050289 3.934001 -30.439110
v -26.755053 21.399549 -14.510584
v -35.050289 3.934001 -30.439110
v -42.572430 16.757519 -7.365564
v -26.755053 21.399549 -14.510584
v 8.503601 -29.368084 -35.682114
v 19.015921 -47.735844 0.851454
v 10.816904 -47.806755 -5.889242
v 11.130280 -48.198154 -4.603192
v 10.816904 -47.806755 -5.889242
v 19.015921 -47.735844 0.851454
v 8.503601 -29.368084 -35.682114
v -26.755053 21.399549 -14.510584
v -15.735510 21.574787 29.532358
v -42.572430 16.757519 -7.365564
v -15.735510 21.574787 29.532358
v -26.755053 21.399549 -14.510584
v 8.503601 -29.368084 -35.682114
v 10.816904 -47.806755 -5.889242
v 2.877611 -45.431892 -14.859497
v 8.503601 -29.368084 -35.682114
v 2.877611 -45.431892 -14.859497
v 2.729615 -45.466061 -14.835963
v 2.762002 -45.488903 -14.784766
v 2.729615 -45.466061 -14.835963
v 2.877611 -45.431892 -14.859497
v -14.728887 16.348692 36.140781
v -8.083396 8.798024 41.147209
v -15.735510 21.574787 29.532358
v -42.572430 16.757519 -7.365564
v -26.683605 16.361261 31.356447
v -15.735510 21.574787 29.532358
v -14.728887 16.348692 36.140781
v -15.735510 21.574787 29.532358
v -26.683605 16.361261 31.356447
v 8.503601 -29.368084 -35.682114
v -0.213968 2.680358 31.639526
v 19.015921 -47.735844 0.851454
v 8.503601 -29.368084 -35.682114
v -15.735510 21.574787 29.532358
v -0.213968 2.680358 31.639526
v -8.083396 8.798024 41.147209
v -0.213968 2.680358 31.639526
v -15.735510 21.574787 29.532358
v 10.816904 -47.806755 -5.889242
v -2.250399 -50.704777 -6.089795
v 2.877611 -45.431892 -14.859497
v 2.762002 -45.488903 -14.784766
v 2.877611 -45.431892 -14.859497
v -2.250399 -50.704777 -6.089795
v 11.130280 -48.198154 -4.603192
v -2.250399 -50.704777 -6.089795
v 10.816904 -47.806755 -5.889242
v 2.762002 -45.488903 -14.784766
v -2.250399 -50.704777 -6.089795
v 2.729615 -45.466061 -14.835963
v 11.130280 -48.198154 -4.603192
v 19.015921 -47.735844 0.851454
v -2.250399 -50.704777 -6.089795
v -42.572430 16.757519 -7.365564
v -41.213161 10.804556 18.839785
v -26.683605 16.361261 31.356447
v -41.213161 10.804556 18.839785
v -38.923092 8.724398 24.738640
v -26.683605 16.361261 31.356447
v -35.050289 3.934001 -30.439110
v -42.076653 -7.211153 -13.157325
v -42.572430 16.757519 -7.365564
v -40.209827 -10.298840 -18.222990
v -42.076653 -7.211153 -13.157325
v -35.050289 3.934001 -30.439110
v -40.209827 -10.298840 -18.222990
v -35.050289 3.934001 -30.439110
v -39.643482 -17.169832 -19.139252
v -40.209827 -10.298840 -18.222990
v -39.643482 -17.169832 -19.139252
v -42.076653 -7.211153 -13.157325
v -38.923092 8.724398 24.738640
v -39.902702 6.100030 26.424232
v -26.683605 16.361261 31.356447
v -41.213161 10.804556 18.839785
v -39.902702 6.100030 26.424232
v -38.923092 8.724398 24.738640
v -14.728887 16.348692 36.140781
v -22.219921 1.698527 42.663910
v -8.083396 8.798024 41.147209
v -14.728887 16.348692 36.140781
v -26.683605 16.361261 31.356447
v -31.417963 0.727171 41.391369
v -14.728887 16.348692 36.140781
v -31.417963 0.727171 41.391369
v -22.219921 1.698527 42.663910
v -39.902702 6.100030 26.424232
v -31.417963 0.727171 41.391369
v -26.683605 16.361261 31.356447
v -39.902702 6.100030 26.424232
v -31.503542 0.257228 41.513103
v -31.417963 0.727171 41.391369
v -31.417963 0.727171 41.391369
v -31.503542 0.257228 41.513103
v -22.219921 1.698527 42.663910
v -0.213968 2.680358 31.639526
v 1.782239 -13.127283 30.888863
v 19.015921 -47.735844 0.851454
v -8.083396 8.798024 41.147209
v 1.782239 -13.127283 30.888863
v -0.213968 2.680358 31.639526
v -22.219921 1.698527 42.663910
v -22.611712 -0.389534 42.857094
v -8.083396 8.798024 41.147209
v -31.503542 0.257228 41.513103
v -22.611712 -0.389534 42.857094
v -22.219921 1.698527 42.663910
v -31.503542 0.257228 41.513103
v -31.710421 -0.794657 41.607517
v -22.611712 -0.389534 42.857094
v 8.503601 -29.368084 -35.682114
v -32.753952 -28.902309 -19.571100
v -35.050289 3.934001 -30.439110
v -35.050289 3.934001 -30.439110
v -32.753952 -28.902309 -19.571100
v -39.643482 -17.169832 -19.139252
v -31.503542 0.257228 41.513103
v -32.049133 -1.149365 41.440235
v -31.710421 -0.794657 41.607517
v -39.902702 6.100030 26.424232
v -32.090778 -1.187331 41.409248
v -31.503542 0.257228 41.513103
v -31.503542 0.257228 41.513103
v -32.090778 -1.187331 41.409248
v -32.049133 -1.149365 41.440235
v -32.753952 -28.902309 -19.571100
v -38.408398 -33.702374 -12.343213
v -39.643482 -17.169832 -19.139252
v -2.250399 -50.704777 -6.089795
v -32.038509 -36.314438 -14.180230
v 2.729615 -45.466061 -14.835963
v 8.503601 -29.368084 -35.682114
v 2.729615 -45.466061 -14.835963
v -32.038509 -36.314438 -14.180230
v 8.503601 -29.368084 -35.682114
v -32.038509 -36.314438 -14.180230
v -32.753952 -28.902309 -19.571100
v -32.753952 -28.902309 -19.571100
v -32.038509 -36.314438 -14.180230
v -38.408398 -33.702374 -12.343213
v -32.038509 -36.314438 -14.180230
v -31.649565 -37.210018 -12.971606
v -38.408398 -33.702374 -12.343213
v -2.250399 -50.704777 -6.089795
v -17.025372 -47.795567 -3.928892
v -32.038509 -36.314438 -14.180230
v -32.038509 -36.314438 -14.180230
v -17.025372 -47.795567 -3.928892
v -31.649565 -37.210018 -12.971606
v 19.015921 -47.735844 0.851454
v -15.644353 -50.554615 6.972230
v -2.250399 -50.704777 -6.089795
v 19.015921 -47.735844 0.851454
v -3.591462 -48.165974 12.299564
v -15.644353 -50.554615 6.972230
v -15.644353 -50.554615 6.972230
v -16.301516 -50.625420 6.856943
v -2.250399 -50.704777 -6.089795
v -3.591462 -48.165974 12.299564
v -16.257458 -50.604534 6.926894
v -15.644353 -50.554615 6.972230
v -15.644353 -50.554615 6.972230
v -16.257458 -50.604534 6.926894
v -16.301516 -50.625420 6.856943
v -2.250399 -50.704777 -6.089795
v -18.183567 -50.318947 7.021911
v -17.025372 -47.795567 -3.928892
v -16.301516 -50.625420 6.856943
v -18.183567 -50.318947 7.021911
v -2.250399 -50.704777 -6.089795
v -16.257458 -50.604534 6.926894
v -18.183567 -50.318947 7.021911
v -16.301516 -50.625420 6.856943
v -31.649565 -37.210018 -12.971606
v -20.032228 -47.398926 0.137641
v -38.408398 -33.702374 -12.343213
v -38.408398 -33.702374 -12.343213
v -20.032228 -47.398926 0.137641
v -18.183567 -50.318947 7.021911
v -17.025372 -47.795567 -3.928892
v -20.032228 -47.398926 0.137641
v -31.649565 -37.210018 -12.971606
v -18.183567 -50.318947 7.021911
v -20.032228 -47.398926 0.137641
v -17.025372 -47.795567 -3.928892
v -42.572430 16.757519 -7.365564
v -43.933475 -27.468681 -0.043174
v -41.213161 10.804556 18.839785
v -42.076653 -7.211153 -13.157325
v -43.933475 -27.468681 -0.043174
v -42.572430 16.757519 -7.365564
v -41.213161 10.804556 18.839785
v -43.933475 -27.468681 -0.043174
v -39.902702 6.100030 26.424232
v -39.643482 -17.169832 -19.139252
v -43.933475 -27.468681 -0.043174
v -42.076653 -7.211153 -13.157325
v -38.408398 -33.702374 -12.343213
v -43.933475 -27.468681 -0.043174
v -39.643482 -17.169832 -19.139252
v -38.408398 -33.702374 -12.343213
v -18.183567 -50.318947 7.021911
v -43.933475 -27.468681 -0.043174
v -8.083396 8.798024 41.147209
v -15.543611 -22.951715 41.266785
v 1.782239 -13.127283 30.888863
v -22.611712 -0.389534 42.857094
v -15.543611 -22.951715 41.266785
v -8.083396 8.798024 41.147209
v 1.782239 -13.127283 30.888863
v -15.543611 -22.951715 41.266785
v 19.015921 -47.735844 0.851454
v 19.015921 -47.735844 0.851454
v -15.543611 -22.951715 41.266785
v -3.591462 -48.165974 12.299564
v -3.591462 -48.165974 12.299564
v -14.142968 -46.999058 13.691241
v -16.257458 -50.604534 6.926894
v -31.710421 -0.794657 41.607517
v -16.907789 -22.542305 41.198307
v -22.611712 -0.389534 42.857094
v -22.611712 -0.389534 42.857094
v -16.907789 -22.542305 41.198307
v -15.543611 -22.951715 41.266785
v -32.049133 -1.149365 41.440235
v -16.907789 -22.542305 41.198307
v -31.710421 -0.794657 41.607517
v -18.183567 -50.318947 7.021911
v -20.593889 -47.795601 7.905327
v -43.933475 -27.468681 -0.043174
v -39.902702 6.100030 26.424232
v -37.068672 -13.335217 32.817413
v -32.090778 -1.187331 41.409248
v -43.933475 -27.468681 -0.043174
v -39.135620 -12.226606 28.228354
v -39.902702 6.100030 26.424232
v -39.902702 6.100030 26.424232
v -39.135620 -12.226606 28.228354
v -37.068672 -13.335217 32.817413
v -16.907789 -22.542305 41.198307
v -18.155037 -24.989807 39.229832
v -15.543611 -22.951715 41.266785
v -32.090778 -1.187331 41.409248
v -31.462666 -18.121115 36.787239
v -32.049133 -1.149365 41.440235
v -32.049133 -1.149365 41.440235
v -31.462666 -18.121115 36.787239
v -16.907789 -22.542305 41.198307
v -37.068672 -13.335217 32.817413
v -31.462666 -18.121115 36.787239
v -32.090778 -1.187331 41.409248
v -16.907789 -22.542305 41.198307
v -31.462666 -18.121115 36.787239
v -18.155037 -24.989807 39.229832
v -43.933475 -27.468681 -0.043174
v -39.450874 -17.024258 25.405214
v -39.135620 -12.226606 28.228354
v -39.135620 -12.226606 28.228354
v -39.450874 -17.024258 25.405214
v -37.068672 -13.335217 32.817413
v -16.257458 -50.604534 6.926894
v -15.467812 -41.759949 22.697430
v -18.183567 -50.318947 7.021911
v -14.142968 -46.999058 13.691241
v -15.467812 -41.759949 22.697430
v -16.257458 -50.604534 6.926894
v -15.543611 -22.951715 41.266785
v -15.467812 -41.759949 22.697430
v -3.591462 -48.165974 12.299564
v -18.155037 -24.989807 39.229832
v -15.467812 -41.759949 22.697430
v -15.543611 -22.951715 41.266785
v -3.591462 -48.165974 12.299564
v -15.467812 -41.759949 22.697430
v -14.142968 -46.999058 13.691241
v -37.068672 -13.335217 32.817413
v -32.879078 -19.882750 34.481609
v -31.462666 -18.121115 36.787239
v -31.462666 -18.121115 36.787239
v -32.879078 -19.882750 34.481609
v -18.155037 -24.989807 39.229832
v -37.068672 -13.335217 32.817413
v -36.732414 -20.706425 29.142416
v -32.879078 -19.882750 34.481609
v -39.450874 -17.024258 25.405214
v -36.732414 -20.706425 29.142416
v -37.068672 -13.335217 32.817413
v -32.879078 -19.882750 34.481609
v -36.076031 -28.479069 23.866741
v -18.155037 -24.989807 39.229832
v -43.933475 -27.468681 -0.043174
v -36.076031 -28.479069 23.866741
v -39.450874 -17.024258 25.405214
v -39.450874 -17.024258 25.405214
v -36.076031 -28.479069 23.866741
v -36.732414 -20.706425 29.142416
v -36.732414 -20.706425 29.142416
v -36.076031 -28.479069 23.866741
v -32.879078 -19.882750 34.481609
v -18.183567 -50.318947 7.021911
v -36.076031 -28.479069 23.866741
v -20.593889 -47.795601 7.905327
v -20.593889 -47.795601 7.905327
v -36.076031 -28.479069 23.866741
v -43.933475 -27.468681 -0.043174
v -18.155037 -24.989807 39.229832
v -28.239555 -34.061577 22.924831
v -15.467812 -41.759949 22.697430
v -36.076031 -28.479069 23.866741
v -28.239555 -34.061577 22.924831
v -18.155037 -24.989807 39.229832
v -15.467812 -41.759949 22.697430
v -28.239555 -34.061577 22.924831
v -18.183567 -50.318947 7.021911
v -18.183567 -50.318947 7.021911
v -28.239555 -34.061577 22.924831
v -36.076031 -28.479069 23.866741
vn 0.326093 0.547777 -0.770457
vn -0.452510 0.708636 -0.541358
vn 0.418614 -0.757330 -0.501212
vn 0.289343 -0.893839 -0.342538
vn 0.765954 0.612900 -0.194080
vn -0.255956 0.964812 0.060201
vn 0.344743 -0.785983 -0.513209
vn 0.090466 -0.800196 -0.592876
vn 0.126925 -0.873486 -0.470012
vn 0.447676 0.733301 0.511719
vn -0.399764 0.900097 0.173247
vn -0.248876 0.740885 0.623819
vn 0.917819 0.391236 -0.067398
vn 0.768823 0.610281 -0.190968
vn 0.744357 0.634648 0.207737
vn 0.203091 -0.887054 -0.414596
vn 0.148381 -0.883446 -0.444417
vn 0.209150 -0.920158 -0.331007
vn 0.111780 -0.879274 -0.463014
vn 0.202642 -0.956046 -0.211925
vn -0.505529 0.835339 0.215982
vn -0.635779 0.616633 0.464272
vn -0.938031 0.062945 -0.340787
vn -0.932221 0.028277 -0.360783
vn -0.912179 -0.020609 -0.409275
vn -0.944348 -0.034210 -0.327164
vn -0.636567 0.570752 0.518676
vn -0.690130 0.555512 0.463818
vn -0.137252 0.460635 0.876914
vn -0.302665 0.578052 0.757793
vn -0.169535 0.471921 0.865187
vn -0.629800 0.545593 0.552884
vn -0.786290 0.285171 0.548111
vn -0.160182 0.274761 0.948076
vn 0.906766 0.095000 0.410791
vn 0.790349 0.070908 0.608540
vn 0.066791 0.079486 0.994596
vn -0.140078 0.117245 0.983174
vn -0.140203 0.115834 0.983324
vn -0.348157 -0.316408 -0.882424
vn -0.553430 -0.296333 -0.778397
vn -0.584660 0.185868 0.789700
vn -0.788165 0.281036 0.547553
vn -0.711404 0.241755 0.659893
vn -0.619390 -0.337629 -0.708775
vn -0.216029 -0.778495 -0.589303
vn -0.208149 -0.745408 -0.633278
vn -0.302086 -0.579607 -0.756835
vn -0.432850 -0.557185 -0.708651
vn -0.446201 -0.781730 -0.435664
vn -0.238050 -0.801324 -0.548828
vn -0.269687 -0.813174 -0.515768
vn 0.100598 -0.988315 0.114516
vn 0.111983 -0.976441 0.184454
vn 0.088780 -0.990771 0.102426
vn 0.055164 -0.951734 0.301927
vn 0.060138 -0.966219 0.250609
vn -0.221323 -0.944916 -0.241144
vn -0.173584 -0.967769 -0.182460
vn -0.120188 -0.927962 0.352763
vn -0.464256 -0.849930 -0.249171
vn -0.474729 -0.848850 -0.232566
vn -0.458112 -0.851324 -0.255699
vn -0.445593 -0.860914 -0.245507
vn -0.997304 0.040791 0.060996
vn -0.992062 0.009774 -0.125368
vn -0.986435 -0.010702 0.163800
vn -0.962562 -0.079525 -0.259132
vn -0.927697 -0.199121 -0.315799
vn -0.672883 -0.736341 0.070926
vn 0.562397 -0.129070 0.816731
vn 0.134159 -0.027793 0.990570
vn 0.613855 -0.320477 0.721441
vn 0.362537 -0.623715 0.692493
vn -0.033956 -0.877517 0.478341
vn -0.130575 -0.107422 0.985602
vn -0.078161 -0.094440 0.992458
vn -0.261637 -0.195867 0.945083
vn -0.679985 -0.711522 0.177079
vn -0.880992 0.026918 0.472365
vn -0.983466 -0.023487 0.179563
vn -0.911570 0.002319 0.411138
vn -0.205117 -0.547802 0.811073
vn -0.417900 -0.253613 0.872376
vn -0.351310 -0.258823 0.899774
vn -0.680466 -0.216334 0.700118
vn -0.381793 -0.453263 0.805473
vn -0.980023 -0.049022 0.192745
vn -0.913967 -0.159505 0.373125
vn -0.104094 -0.865226 0.490457
vn -0.091823 -0.866544 0.490581
vn 0.237743 -0.681944 0.691687
vn -0.006722 -0.702571 0.711582
vn -0.029906 -0.865903 0.499317
vn -0.704029 -0.285178 0.650397
vn -0.424857 -0.574280 0.699785
vn -0.742032 -0.325911 0.585808
vn -0.882367 -0.241579 0.403817
vn -0.427708 -0.635135 0.643172
vn -0.908225 -0.305934 0.285539
vn -0.887683 -0.307556 0.342679
vn -0.692546 -0.444251 0.568350
vn -0.667369 -0.712892 0.215414
vn -0.681020 -0.706109 0.193963
vn -0.396385 -0.675962 0.621252
vn -0.403057 -0.670828 0.622523
vn -0.444387 -0.751643 0.487394
vn -0.476853 -0.747430 0.462558
f 1//1 2//1 3//1
f 4//2 5//2 6//2
f 7//3 8//3 9//3
f 10//4 11//4 12//4
f 13//5 14//5 15//5
f 16//6 17//6 18//6
f 19//7 20//7 21//7
f 22//8 23//8 24//8
f 25//9 26//9 27//9
f 28//10 29//10 30//10
f 31//11 32//11 33//11
f 34//12 35//12 36//12
f 37//13 38//13 39//13
f 40//14 41//14 42//14
f 43//15 44//15 45//15
f 46//16 47//16 48//16
f 49//17 50//17 51//17
f 52//18 53//18 54//18
f 55//19 56//19 57//19
f 58//20 59//20 60//20
f 61//21 62//21 63//21
f 64//22 65//22 66//22
f 67//23 68//23 69//23
f 70//24 71//24 72//24
f 73//25 74//25 75//25
f 76//26 77//26 78//26
f 79//27 80//27 81//27
f 82//28 83//28 84//28
f 85//29 86//29 87//29
f 88//30 89//30 90//30
f 91//31 92//31 93//31
f 94//32 95//32 96//32
f 97//33 98//33 99//33
f 100//34 101//34 102//34
f 103//35 104//35 105//35
f 106//36 107//36 108//36
f 109//37 110//37 111//37
f 112//38 113//38 114//38
f 115//39 116//39 117//39
f 118//40 119//40 120//40
f 121//41 122//41 123//41
f 124//42 125//42 126//42
f 127//43 128//43 129//43
f 130//44 131//44 132//44
f 133//45 134//45 135//45
f 136//46 137//46 138//46
f 139//47 140//47 141//47
f 142//48 143//48 144//48
f 145//49 146//49 147//49
f 148//50 149//50 150//50
f 151//51 152//51 153//51
f 154//52 155//52 156//52
f 157//53 158//53 159//53
f 160//54 161//54 162//54
f 163//55 164//55 165//55
f 166//56 167//56 168//56
f 169//57 170//57 171//57
f 172//58 173//58 174//58
f 175//59 176//59 177//59
f 178//60 179//60 180//60
f 181//61 182//61 183//61
f 184//62 185//62 186//62
f 187//63 188//63 189//63
f 190//64 191//64 192//64
f 193//65 194//65 195//65
f 196//66 197//66 198//66
f 199//67 200//67 201//67
f 202//68 203//68 204//68
f 205//69 206//69 207//69
f 208//70 209//70 210//70
f 211//71 212//71 213//71
f 214//72 215//72 216//72
f 217//73 218//73 219//73
f 220//74 221//74 222//74
f 223//75 224//75 225//75
f 226//76 227//76 228//76
f 229//77 230//77 231//77
f 232//78 233//78 234//78
f 235//79 236//79 237//79
f 238//80 239//80 240//80
f 241//81 242//81 243//81
f 244//82 245//82 246//82
f 247//83 248//83 249//83
f 250//84 251//84 252//84
f 253//85 254//85 255//85
f 256//86 257//86 258//86
f 259//87 260//87 261//87
f 262//88 263//88 264//88
f 265//89 266//89 267//89
f 268//90 269//90 270//90
f 271//91 272//91 273//91
f 274//92 275//92 276//92
f 277//93 278//93 279//93
f 280//94 281//94 282//94
f 283//95 284//95 285//95
f 286//96 287//96 288//96
f 289//97 290//97 291//97
f 292//98 293//98 294//98
f 295//99 296//99 297//99
f 298//100 299//100 300//100
f 301//101 302//101 303//101
f 304//102 305//102 306//102
f 307//103 308//103 309//103
f 310//104 311//104 312//104
f 313//105 314//105 315//105
f 316//106 317//106 318//106
f 319//107 320//107 321//107
f 322//108 323//108 324//108
