o
v 10.719905 -6.748712 -39.160397
v 10.769826 -6.708167 -39.146248
v 10.743686 -6.743678 -39.161137
v 10.719905 -6.748712 -39.160397
v 18.872511 -38.495251 -11.077295
v -7.040401 -3.420699 -31.010500
v 18.872511 -38.495251 -11.077295
v 19.818497 -38.037781 -11.375743
v 18.885237 -38.502762 -10.956075
v 10.719905 -6.748712 -39.160397
v 10.743686 -6.743678 -39.161137
v 20.106756 -22.117718 -25.720156
v 10.719905 -6.748712 -39.160397
v 20.153030 -22.336983 -25.533449
v 18.872511 -38.495251 -11.077295
v 10.719905 -6.748712 -39.160397
v 20.106756 -22.117718 -25.720156
v 20.153030 -22.336983 -25.533449
v 18.872511 -38.495251 -11.077295
v 20.153030 -22.336983 -25.533449
v 19.818497 -38.037781 -11.375743
v 18.872511 -38.495251 -11.077295
v 18.885237 -38.502762 -10.956075
v -29.877975 -7.615885 36.007034
v 10.743686 -6.743678 -39.161137
v 29.172487 -18.628225 -21.739487
v 20.106756 -22.117718 -25.720156
v 20.106756 -22.117718 -25.720156
v 29.172487 -18.628225 -21.739487
v 20.153030 -22.336983 -25.533449
v 20.153030 -22.336983 -25.533449
v 29.172487 -18.628225 -21.739487
v 19.818497 -38.037781 -11.375743
v 10.769826 -6.708167 -39.146248
v 35.076153 -7.446631 -22.664778
v 10.743686 -6.743678 -39.161137
v 10.743686 -6.743678 -39.161137
v 35.076153 -7.446631 -22.664778
v 29.172487 -18.628225 -21.739487
v 18.872511 -38.495251 -11.077295
v -9.684020 -10.219710 -18.711437
v -7.040401 -3.420699 -31.010500
v 18.872511 -38.495251 -11.077295
v -29.877975 -7.615885 36.007034
v -9.684020 -10.219710 -18.711437
v 19.818497 -38.037781 -11.375743
v 26.044804 -32.943672 -2.941288
v 18.885237 -38.502762 -10.956075
v 29.172487 -18.628225 -21.739487
v 26.044804 -32.943672 -2.941288
v 19.818497 -38.037781 -11.375743
v 35.076153 -7.446631 -22.664778
v 26.044804 -32.943672 -2.941288
v 29.172487 -18.628225 -21.739487
v -9.684020 -10.219710 -18.711437
v -16.205183 -2.170758 -7.647256
v -7.040401 -3.420699 -31.010500
v -29.877975 -7.615885 36.007034
v -16.205183 -2.170758 -7.647256
v -9.684020 -10.219710 -18.711437
v -7.040401 -3.420699 -31.010500
v -16.205183 -2.170758 -7.647256
v -20.320814 34.251282 2.096052
v -29.877975 -7.615885 36.007034
v -20.320814 34.251282 2.096052
v -16.205183 -2.170758 -7.647256
v 10.719905 -6.748712 -39.160397
v -11.572834 48.296638 5.018003
v 10.769826 -6.708167 -39.146248
v 10.719905 -6.748712 -39.160397
v -7.040401 -3.420699 -31.010500
v -11.572834 48.296638 5.018003
v -7.040401 -3.420699 -31.010500
v -20.320814 34.251282 2.096052
v -11.572834 48.296638 5.018003
v -29.877975 -7.615885 36.007034
v -14.094102 39.641186 24.209642
v -20.320814 34.251282 2.096052
v -20.320814 34.251282 2.096052
v -14.094102 39.641186 24.209642
v -11.572834 48.296638 5.018003
v 10.769826 -6.708167 -39.146248
v 13.189860 50.417835 1.221181
v 35.076153 -7.446631 -22.664778
v -11.572834 48.296638 5.018003
v 13.189860 50.417835 1.221181
v 10.769826 -6.708167 -39.146248
v -14.094102 39.641186 24.209642
v 9.702594 48.740738 5.907192
v -11.572834 48.296638 5.018003
v -11.572834 48.296638 5.018003
v 9.702594 48.740738 5.907192
v 13.189860 50.417835 1.221181
v 18.885237 -38.502762 -10.956075
v 0.552756 -21.317352 26.919487
v -29.877975 -7.615885 36.007034
v 35.076153 -7.446631 -22.664778
v 31.393826 -16.908567 17.432760
v 26.044804 -32.943672 -2.941288
v 13.189860 50.417835 1.221181
v 35.717625 23.354441 -0.507451
v 35.076153 -7.446631 -22.664778
v 35.717625 23.354441 -0.507451
v 39.988846 19.290049 5.772704
v 35.076153 -7.446631 -22.664778
v -29.877975 -7.615885 36.007034
v 3.696035 -21.588980 28.465609
v -3.761720 -9.164010 44.633125
v 0.552756 -21.317352 26.919487
v 3.696035 -21.588980 28.465609
v -29.877975 -7.615885 36.007034
v 26.044804 -32.943672 -2.941288
v 3.696035 -21.588980 28.465609
v 18.885237 -38.502762 -10.956075
v 18.885237 -38.502762 -10.956075
v 3.696035 -21.588980 28.465609
v 0.552756 -21.317352 26.919487
v 31.393826 -16.908567 17.432760
v 3.696035 -21.588980 28.465609
v 26.044804 -32.943672 -2.941288
v 35.717625 23.354441 -0.507451
v 41.094898 25.872374 18.441471
v 39.988846 19.290049 5.772704
v -29.877975 -7.615885 36.007034
v -6.637556 22.372274 43.094143
v -14.094102 39.641186 24.209642
v 39.988846 19.290049 5.772704
v 40.348953 15.574425 13.533403
v 35.076153 -7.446631 -22.664778
v 41.094898 25.872374 18.441471
v 40.348953 15.574425 13.533403
v 39.988846 19.290049 5.772704
v 13.189860 50.417835 1.221181
v 24.058769 40.040020 4.680458
v 35.717625 23.354441 -0.507451
v 41.094898 25.872374 18.441471
v 24.058769 40.040020 4.680458
v 13.189860 50.417835 1.221181
v 35.717625 23.354441 -0.507451
v 24.058769 40.040020 4.680458
v 41.094898 25.872374 18.441471
v -29.877975 -7.615885 36.007034
v -3.761720 -9.164010 44.633125
v -5.843819 13.722435 44.952419
v -29.877975 -7.615885 36.007034
v -5.843819 13.722435 44.952419
v -6.637556 22.372274 43.094143
v 35.076153 -7.446631 -22.664778
v 39.266350 9.542038 24.378557
v 31.393826 -16.908567 17.432760
v 40.348953 15.574425 13.533403
v 39.266350 9.542038 24.378557
v 35.076153 -7.446631 -22.664778
v 41.094898 25.872374 18.441471
v 39.266350 9.542038 24.378557
v 40.348953 15.574425 13.533403
v 38.849812 12.035778 28.930252
v 39.266350 9.542038 24.378557
v 41.094898 25.872374 18.441471
v 39.266350 9.542038 24.378557
v 38.527458 10.237407 28.107607
v 31.393826 -16.908567 17.432760
v 38.849812 12.035778 28.930252
v 38.527458 10.237407 28.107607
v 39.266350 9.542038 24.378557
v 38.849812 12.035778 28.930252
v 41.094898 25.872374 18.441471
v 38.046337 14.485520 29.066864
v 38.849812 12.035778 28.930252
v 38.046337 14.485520 29.066864
v 36.586945 11.398218 31.421677
v -3.761720 -9.164010 44.633125
v 7.588999 -0.955525 45.513012
v -5.843819 13.722435 44.952419
v 3.696035 -21.588980 28.465609
v 24.787897 -0.641392 42.295586
v -3.761720 -9.164010 44.633125
v 31.393826 -16.908567 17.432760
v 24.787897 -0.641392 42.295586
v 3.696035 -21.588980 28.465609
v 38.527458 10.237407 28.107607
v 24.787897 -0.641392 42.295586
v 31.393826 -16.908567 17.432760
v 38.849812 12.035778 28.930252
v 24.787897 -0.641392 42.295586
v 38.527458 10.237407 28.107607
v 38.849812 12.035778 28.930252
v 36.586945 11.398218 31.421677
v 24.787897 -0.641392 42.295586
v -3.761720 -9.164010 44.633125
v 24.787897 -0.641392 42.295586
v 7.588999 -0.955525 45.513012
v 24.787897 -0.641392 42.295586
v 24.752995 -0.568400 42.320175
v 7.588999 -0.955525 45.513012
v 36.586945 11.398218 31.421677
v 24.752995 -0.568400 42.320175
v 24.787897 -0.641392 42.295586
v -6.637556 22.372274 43.094143
v 2.349297 29.221516 39.066383
v -14.094102 39.641186 24.209642
v -5.843819 13.722435 44.952419
v 1.963304 16.870163 43.831448
v -6.637556 22.372274 43.094143
v 7.588999 -0.955525 45.513012
v 1.963304 16.870163 43.831448
v -5.843819 13.722435 44.952419
v -6.637556 22.372274 43.094143
v 4.196524 27.235903 41.052601
v 2.349297 29.221516 39.066383
v 1.963304 16.870163 43.831448
v 4.196524 27.235903 41.052601
v -6.637556 22.372274 43.094143
v -14.094102 39.641186 24.209642
v 9.262757 39.695927 25.501411
v 9.702594 48.740738 5.907192
v 9.702594 48.740738 5.907192
v 10.919631 39.896812 24.970476
v 13.189860 50.417835 1.221181
v 9.262757 39.695927 25.501411
v 10.919631 39.896812 24.970476
v 9.702594 48.740738 5.907192
v 10.919631 39.896812 24.970476
v 11.138237 39.877640 24.943773
v 13.189860 50.417835 1.221181
v 41.094898 25.872374 18.441471
v 13.189860 50.417835 1.221181
v 11.212367 39.871136 24.933178
v 11.138237 39.877640 24.943773
v 11.212367 39.871136 24.933178
v 13.189860 50.417835 1.221181
v 2.349297 29.221516 39.066383
v 8.051511 34.044373 33.802750
v -14.094102 39.641186 24.209642
v -14.094102 39.641186 24.209642
v 8.051511 34.044373 33.802750
v 9.262757 39.695927 25.501411
v 4.196524 27.235903 41.052601
v 8.051511 34.044373 33.802750
v 2.349297 29.221516 39.066383
v 9.262757 39.695927 25.501411
v 8.051511 34.044373 33.802750
v 10.919631 39.896812 24.970476
v 10.919631 39.896812 24.970476
v 8.051511 34.044373 33.802750
v 11.138237 39.877640 24.943773
v 11.138237 39.877640 24.943773
v 8.051511 34.044373 33.802750
v 11.212367 39.871136 24.933178
v 24.752995 -0.568400 42.320175
v 6.220975 26.428173 40.840080
v 5.645333 21.274063 42.402256
v 1.963304 16.870163 43.831448
v 5.645333 21.274063 42.402256
v 4.196524 27.235903 41.052601
v 6.220975 26.428173 40.840080
v 4.196524 27.235903 41.052601
v 5.645333 21.274063 42.402256
v 24.752995 -0.568400 42.320175
v 5.544258 19.260344 42.909683
v 7.588999 -0.955525 45.513012
v 7.588999 -0.955525 45.513012
v 5.544258 19.260344 42.909683
v 1.963304 16.870163 43.831448
v 24.752995 -0.568400 42.320175
v 5.645333 21.274063 42.402256
v 5.544258 19.260344 42.909683
v 1.963304 16.870163 43.831448
v 5.544258 19.260344 42.909683
v 5.645333 21.274063 42.402256
v 24.752995 -0.568400 42.320175
v 7.369291 26.955194 40.341011
v 6.220975 26.428173 40.840080
v 6.220975 26.428173 40.840080
v 7.369291 26.955194 40.341011
v 4.196524 27.235903 41.052601
v 4.196524 27.235903 41.052601
v 7.369291 26.955194 40.341011
v 8.051511 34.044373 33.802750
v 41.094898 25.872374 18.441471
v 11.212367 39.871136 24.933178
v 21.724434 28.265368 33.268116
v 8.051511 34.044373 33.802750
v 21.724434 28.265368 33.268116
v 11.212367 39.871136 24.933178
v 7.369291 26.955194 40.341011
v 21.724434 28.265368 33.268116
v 8.051511 34.044373 33.802750
v 41.094898 25.872374 18.441471
v 21.724434 28.265368 33.268116
v 38.046337 14.485520 29.066864
v 38.046337 14.485520 29.066864
v 18.880682 25.325695 36.659767
v 36.586945 11.398218 31.421677
v 21.724434 28.265368 33.268116
v 18.880682 25.325695 36.659767
v 38.046337 14.485520 29.066864
v 36.586945 11.398218 31.421677
v 18.880682 25.325695 36.659767
v 24.752995 -0.568400 42.320175
v 24.752995 -0.568400 42.320175
v 18.880682 25.325695 36.659767
v 7.369291 26.955194 40.341011
v 7.369291 26.955194 40.341011
v 18.880682 25.325695 36.659767
v 21.724434 28.265368 33.268116
vn -0.124802 0.460365 -0.878910
vn -0.411775 -0.660828 -0.627493
vn 0.407717 -0.907720 -0.099047
vn 0.106335 -0.616967 -0.779772
vn -0.022323 -0.665614 -0.745963
vn 0.044014 -0.642287 -0.765199
vn 0.089995 -0.668009 -0.738691
vn -0.532696 -0.846300 0.003484
vn 0.491162 -0.384297 -0.781713
vn 0.502058 -0.496820 -0.707889
vn 0.506840 -0.583214 -0.634804
vn 0.558702 -0.064594 -0.826849
vn 0.521002 -0.339871 -0.782972
vn -0.542170 -0.680603 -0.492779
vn -0.659299 -0.722265 -0.208946
vn 0.494606 -0.855769 0.151737
vn 0.802402 -0.531556 -0.271292
vn 0.856093 -0.469821 -0.215345
vn -0.902629 -0.263995 -0.339953
vn -0.901639 -0.292207 -0.318847
vn -0.931048 -0.007614 -0.364818
vn -0.952978 -0.026940 -0.301839
vn -0.222440 0.553862 -0.802345
vn -0.267544 0.534878 -0.801452
vn -0.501846 0.464379 -0.729728
vn -0.920245 0.350710 0.173640
vn -0.853736 0.507460 0.116707
vn 0.500760 0.485277 -0.716761
vn -0.171940 0.573349 -0.801067
vn -0.036059 0.912754 0.406916
vn -0.032962 0.948537 0.314946
vn -0.334299 -0.908582 0.250447
vn 0.944870 -0.327307 0.009536
vn 0.532054 0.487121 -0.692554
vn 0.868373 0.277552 -0.410967
vn -0.222786 -0.819918 0.527352
vn -0.273333 -0.873811 0.402174
vn 0.181358 -0.876498 0.445937
vn -0.230866 -0.923231 0.307157
vn 0.340787 -0.780189 0.524566
vn 0.850777 0.432267 -0.298871
vn -0.683965 0.383386 0.620650
vn 0.992165 -0.088348 -0.088337
vn 0.996995 -0.040849 -0.065819
vn 0.699389 0.606347 -0.378414
vn 0.708384 0.684482 -0.172271
vn 0.739587 0.607117 -0.290552
vn -0.315595 -0.041937 0.947967
vn -0.456730 0.146593 0.877444
vn 0.956858 -0.289902 0.019463
vn 0.979350 -0.201660 -0.014407
vn 0.994440 -0.094337 0.046796
vn 0.989878 -0.064965 0.126179
vn 0.910480 -0.334753 0.242829
vn 0.932039 -0.275003 0.235959
vn 0.830583 0.244515 0.500343
vn 0.701568 0.191830 0.686297
vn -0.063128 -0.019664 0.997812
vn 0.263767 -0.702199 0.661320
vn 0.353975 -0.736761 0.576095
vn 0.792622 -0.391949 0.467039
vn 0.792889 -0.365249 0.487771
vn 0.750723 -0.155926 0.641952
vn 0.178638 -0.345763 0.921160
vn 0.182899 -0.234203 0.954828
vn 0.646917 0.053067 0.760712
vn -0.203859 0.681054 0.703283
vn 0.053574 0.214436 0.975268
vn 0.092526 0.122417 0.988156
vn -0.140117 0.632042 0.762161
vn 0.072904 0.243564 0.967141
vn -0.025274 0.907862 0.418507
vn 0.118571 0.903603 0.411634
vn 0.024382 0.907458 0.419435
vn 0.129426 0.901969 0.411948
vn 0.458718 0.797061 0.392775
vn 0.137921 0.900643 0.412093
vn -0.076034 0.774832 0.627578
vn -0.032867 0.828397 0.559177
vn 0.029865 0.720650 0.692656
vn 0.083171 0.818068 0.569076
vn 0.141111 0.803549 0.578271
vn 0.153108 0.800011 0.580121
vn 0.287723 0.248223 0.924987
vn 0.087926 0.240218 0.966729
vn 0.203939 0.263035 0.942985
vn 0.177867 0.143362 0.973556
vn 0.156977 0.141741 0.977378
vn 0.259732 0.223682 0.939418
vn 0.089249 0.239157 0.966870
vn 0.287963 0.248381 0.924870
vn 0.234376 0.348663 0.907470
vn 0.220638 0.649701 0.727467
vn 0.455876 0.753328 0.473999
vn 0.331837 0.729819 0.597703
vn 0.295232 0.632240 0.716318
vn 0.571697 0.472704 0.670607
vn 0.511060 0.355371 0.782642
vn 0.518746 0.381121 0.765278
vn 0.473619 0.289255 0.831875
vn 0.327834 0.272112 0.904699
vn 0.322863 0.564308 0.759813
f 1//1 2//1 3//1
f 4//2 5//2 6//2
f 7//3 8//3 9//3
f 10//4 11//4 12//4
f 13//5 14//5 15//5
f 16//6 17//6 18//6
f 19//7 20//7 21//7
f 22//8 23//8 24//8
f 25//9 26//9 27//9
f 28//10 29//10 30//10
f 31//11 32//11 33//11
f 34//12 35//12 36//12
f 37//13 38//13 39//13
f 40//14 41//14 42//14
f 43//15 44//15 45//15
f 46//16 47//16 48//16
f 49//17 50//17 51//17
f 52//18 53//18 54//18
f 55//19 56//19 57//19
f 58//20 59//20 60//20
f 61//21 62//21 63//21
f 64//22 65//22 66//22
f 67//23 68//23 69//23
f 70//24 71//24 72//24
f 73//25 74//25 75//25
f 76//26 77//26 78//26
f 79//27 80//27 81//27
f 82//28 83//28 84//28
f 85//29 86//29 87//29
f 88//30 89//30 90//30
f 91//31 92//31 93//31
f 94//32 95//32 96//32
f 97//33 98//33 99//33
f 100//34 101//34 102//34
f 103//35 104//35 105//35
f 106//36 107//36 108//36
f 109//37 110//37 111//37
f 112//38 113//38 114//38
f 115//39 116//39 117//39
f 118//40 119//40 120//40
f 121//41 122//41 123//41
f 124//42 125//42 126//42
f 127//43 128//43 129//43
f 130//44 131//44 132//44
f 133//45 134//45 135//45
f 136//46 137//46 138//46
f 139//47 140//47 141//47
f 142//48 143//48 144//48
f 145//49 146//49 147//49
f 148//50 149//50 150//50
f 151//51 152//51 153//51
f 154//52 155//52 156//52
f 157//53 158//53 159//53
f 160//54 161//54 162//54
f 163//55 164//55 165//55
f 166//56 167//56 168//56
f 169//57 170//57 171//57
f 172//58 173//58 174//58
f 175//59 176//59 177//59
f 178//60 179//60 180//60
f 181//61 182//61 183//61
f 184//62 185//62 186//62
f 187//63 188//63 189//63
f 190//64 191//64 192//64
f 193//65 194//65 195//65
f 196//66 197//66 198//66
f 199//67 200//67 201//67
f 202//68 203//68 204//68
f 205//69 206//69 207//69
f 208//70 209//70 210//70
f 211//71 212//71 213//71
f 214//72 215//72 216//72
f 217//73 218//73 219//73
f 220//74 221//74 222//74
f 223//75 224//75 225//75
f 226//76 227//76 228//76
f 229//77 230//77 231//77
f 232//78 233//78 234//78
f 235//79 236//79 237//79
f 238//80 239//80 240//80
f 241//81 242//81 243//81
f 244//82 245//82 246//82
f 247//83 248//83 249//83
f 250//84 251//84 252//84
f 253//85 254//85 255//85
f 256//86 257//86 258//86
f 259//87 260//87 261//87
f 262//88 263//88 264//88
f 265//89 266//89 267//89
f 268//90 269//90 270//90
f 271//91 272//91 273//91
f 274//92 275//92 276//92
f 277//93 278//93 279//93
f 280//94 281//94 282//94
f 283//95 284//95 285//95
f 286//96 287//96 288//96
f 289//97 290//97 291//97
f 292//98 293//98 294//98
f 295//99 296//99 297//99
f 298//100 299//100 300//100
f 301//101 302//101 303//101
f 304//102 305//102 306//102
