o
v -36.143124 210.318817 11.646566
v -76.434319 199.758453 -39.024464
v -59.747986 183.431564 -9.630247
v -76.434319 199.758453 -39.024464
v -77.240448 173.967117 -34.297256
v -59.747986 183.431564 -9.630247
v -36.143124 210.318817 11.646566
v -59.747986 183.431564 -9.630247
v -116.034554 -156.461899 -85.033569
v -76.434319 199.758453 -39.024464
v -116.034554 -156.461899 -85.033569
v -77.240448 173.967117 -34.297256
v -77.240448 173.967117 -34.297256
v -116.034554 -156.461899 -85.033569
v -59.747986 183.431564 -9.630247
v 78.533813 166.396072 62.924278
v 114.339233 -26.111845 -56.405170
v 125.494850 32.576595 -38.899170
v -36.143124 210.318817 11.646566
v 78.533813 166.396072 62.924278
v -3.199641 200.327072 -94.561951
v -36.143124 210.318817 11.646566
v -3.199641 200.327072 -94.561951
v -76.434319 199.758453 -39.024464
v 114.339233 -26.111845 -56.405170
v 130.240463 -1.623939 -103.066437
v 125.494850 32.576595 -38.899170
v 78.533813 166.396072 62.924278
v 3.401734 197.416306 -91.262062
v -3.199641 200.327072 -94.561951
v 78.533813 166.396072 62.924278
v 3.738105 197.178406 -91.071663
v 3.401734 197.416306 -91.262062
v 78.533813 166.396072 62.924278
v 125.494850 32.576595 -38.899170
v 132.180771 16.006052 -121.111031
v 130.240463 -1.623939 -103.066437
v 132.180771 16.006052 -121.111031
v 125.494850 32.576595 -38.899170
v 78.533813 166.396072 62.924278
v 132.180771 16.006052 -121.111031
v 3.738105 197.178406 -91.071663
v -3.199641 200.327072 -94.561951
v -5.350340 195.992996 -99.663528
v -76.434319 199.758453 -39.024464
v -3.199641 200.327072 -94.561951
v -4.858432 195.974594 -99.743752
v -5.350340 195.992996 -99.663528
v 114.339233 -26.111845 -56.405170
v 73.486053 -165.214630 -140.623550
v 130.240463 -1.623939 -103.066437
v 130.240463 -1.623939 -103.066437
v 73.486053 -165.214630 -140.623550
v 132.180771 16.006052 -121.111031
v 114.339233 -26.111845 -56.405170
v 72.434105 -159.345352 -127.531502
v 73.486053 -165.214630 -140.623550
v -36.143124 210.318817 11.646566
v -116.034554 -156.461899 -85.033569
v -1.207467 -94.710678 -14.368650
v -36.143124 210.318817 11.646566
v -1.207467 -94.710678 -14.368650
v 78.533813 166.396072 62.924278
v -87.283211 -165.383774 -95.223122
v -1.207467 -94.710678 -14.368650
v -116.034554 -156.461899 -85.033569
v 78.533813 166.396072 62.924278
v -1.207467 -94.710678 -14.368650
v 114.339233 -26.111845 -56.405170
v 114.339233 -26.111845 -56.405170
v -1.207467 -94.710678 -14.368650
v 72.434105 -159.345352 -127.531502
v 72.434105 -159.345352 -127.531502
v 65.791924 -159.297913 -124.294060
v 73.486053 -165.214630 -140.623550
v -87.283211 -165.383774 -95.223122
v 65.791924 -159.297913 -124.294060
v -1.207467 -94.710678 -14.368650
v -1.207467 -94.710678 -14.368650
v 65.791924 -159.297913 -124.294060
v 72.434105 -159.345352 -127.531502
v 73.486053 -165.214630 -140.623550
v 61.414219 -161.152954 -126.753960
v -87.283211 -165.383774 -95.223122
v 65.791924 -159.297913 -124.294060
v 61.414219 -161.152954 -126.753960
v 73.486053 -165.214630 -140.623550
v -87.283211 -165.383774 -95.223122
v 61.414219 -161.152954 -126.753960
v 65.791924 -159.297913 -124.294060
v -76.434319 199.758453 -39.024464
v -117.833344 -74.792221 -145.223129
v -116.034554 -156.461899 -85.033569
v -76.434319 199.758453 -39.024464
v -76.438553 199.709030 -39.084087
v -117.833344 -74.792221 -145.223129
v -76.438553 199.709030 -39.084087
v -117.755661 -75.309189 -147.121277
v -117.833344 -74.792221 -145.223129
v -117.833344 -74.792221 -145.223129
v -117.755661 -75.309189 -147.121277
v -116.034554 -156.461899 -85.033569
v -5.350340 195.992996 -99.663528
v -43.742489 144.298996 -147.195572
v -76.434319 199.758453 -39.024464
v -76.434319 199.758453 -39.024464
v -43.742489 144.298996 -147.195572
v -76.438553 199.709030 -39.084087
v -4.858432 195.974594 -99.743752
v -43.742489 144.298996 -147.195572
v -5.350340 195.992996 -99.663528
v -68.667816 70.211563 -188.003082
v -76.438553 199.709030 -39.084087
v -43.830746 144.228439 -147.156311
v -43.742489 144.298996 -147.195572
v -43.830746 144.228439 -147.156311
v -76.438553 199.709030 -39.084087
v -68.667816 70.211563 -188.003082
v -43.830746 144.228439 -147.156311
v -43.742489 144.298996 -147.195572
v 73.486053 -165.214630 -140.623550
v -87.283211 -165.383774 -95.223122
v -63.888870 -129.916702 -178.540115
v -87.283211 -165.383774 -95.223122
v -116.034554 -156.461899 -85.033569
v -63.888870 -129.916702 -178.540115
v -117.755661 -75.309189 -147.121277
v -63.888870 -129.916702 -178.540115
v -116.034554 -156.461899 -85.033569
v -68.667816 70.211563 -188.003082
v -74.226746 109.301636 -137.892395
v -76.438553 199.709030 -39.084087
v -117.755661 -75.309189 -147.121277
v -95.203705 -58.720051 -181.965118
v -63.888870 -129.916702 -178.540115
v 3.738105 197.178406 -91.071663
v 26.649321 122.628952 -165.429779
v 3.401734 197.416306 -91.262062
v 132.180771 16.006052 -121.111031
v 26.649321 122.628952 -165.429779
v 3.738105 197.178406 -91.071663
v 3.401734 197.416306 -91.262062
v 26.649321 122.628952 -165.429779
v -3.199641 200.327072 -94.561951
v -3.199641 200.327072 -94.561951
v 26.649321 122.628952 -165.429779
v -4.858432 195.974594 -99.743752
v -68.667816 70.211563 -188.003082
v -43.742489 144.298996 -147.195572
v 26.649321 122.628952 -165.429779
v -4.858432 195.974594 -99.743752
v 26.649321 122.628952 -165.429779
v -43.742489 144.298996 -147.195572
v -76.438553 199.709030 -39.084087
v -85.919868 16.411572 -210.991943
v -117.755661 -75.309189 -147.121277
v -68.667816 70.211563 -188.003082
v -85.919868 16.411572 -210.991943
v -74.226746 109.301636 -137.892395
v -74.226746 109.301636 -137.892395
v -85.919868 16.411572 -210.991943
v -76.438553 199.709030 -39.084087
v -117.755661 -75.309189 -147.121277
v -85.919868 16.411572 -210.991943
v -95.203705 -58.720051 -181.965118
v -68.667816 70.211563 -188.003082
v 26.649321 122.628952 -165.429779
v 47.298683 -9.946306 -235.754562
v 132.180771 16.006052 -121.111031
v 47.298683 -9.946306 -235.754562
v 26.649321 122.628952 -165.429779
v 73.486053 -165.214630 -140.623550
v 47.506989 -10.832227 -235.304947
v 132.180771 16.006052 -121.111031
v 132.180771 16.006052 -121.111031
v 47.506989 -10.832227 -235.304947
v 47.298683 -9.946306 -235.754562
v 73.486053 -165.214630 -140.623550
v -63.888870 -129.916702 -178.540115
v -37.876640 -105.001175 -208.212051
v -95.203705 -58.720051 -181.965118
v -37.876640 -105.001175 -208.212051
v -63.888870 -129.916702 -178.540115
v -85.919868 16.411572 -210.991943
v -37.876640 -105.001175 -208.212051
v -95.203705 -58.720051 -181.965118
v -68.667816 70.211563 -188.003082
v 21.550844 -27.400797 -241.952454
v -85.919868 16.411572 -210.991943
v -68.667816 70.211563 -188.003082
v 47.298683 -9.946306 -235.754562
v 21.550844 -27.400797 -241.952454
v 73.486053 -165.214630 -140.623550
v 21.550844 -27.400797 -241.952454
v 47.506989 -10.832227 -235.304947
v 73.486053 -165.214630 -140.623550
v -37.876640 -105.001175 -208.212051
v 21.550844 -27.400797 -241.952454
v 47.506989 -10.832227 -235.304947
v 21.550844 -27.400797 -241.952454
v 47.298683 -9.946306 -235.754562
v -85.919868 16.411572 -210.991943
v -13.055580 -49.333771 -228.555832
v -37.876640 -105.001175 -208.212051
v 21.550844 -27.400797 -241.952454
v -13.055580 -49.333771 -228.555832
v -85.919868 16.411572 -210.991943
v -37.876640 -105.001175 -208.212051
v -13.055580 -49.333771 -228.555832
v 21.550844 -27.400797 -241.952454
vn -0.784198 0.233536 0.574886
vn -0.831332 0.125231 0.541484
vn -0.622932 -0.069695 0.779165
vn -0.966051 0.075481 0.247080
vn -0.817027 0.007396 0.576552
vn 0.613361 -0.330551 0.717303
vn 0.349657 0.936657 0.020338
vn -0.102089 0.986952 -0.124515
vn 0.950418 -0.239739 0.198068
vn 0.410285 0.911808 -0.016480
vn 0.626481 0.764582 -0.151449
vn 0.946300 0.323074 0.011840
vn 0.996094 -0.022146 0.085472
vn 0.768142 0.586982 -0.255754
vn -0.384013 0.777245 -0.498422
vn -0.073351 0.775099 -0.627567
vn 0.926862 -0.351696 0.131285
vn 0.941611 -0.285809 -0.177992
vn 0.875222 -0.411243 0.254688
vn -0.468852 -0.128233 0.873919
vn -0.444914 -0.126571 0.886584
vn -0.000293 -0.752766 0.658288
vn 0.508214 -0.383481 0.771142
vn 0.547657 -0.521534 0.654274
vn 0.195546 -0.888921 0.414223
vn 0.139375 -0.814333 0.563415
vn 0.292365 -0.735977 0.610623
vn 0.102923 -0.926864 0.361012
vn 0.157090 -0.902498 0.401023
vn 0.120895 -0.884036 0.451514
vn -0.984382 0.089880 0.151375
vn -0.980929 0.178058 -0.077932
vn -0.979130 0.182350 -0.089735
vn -0.998635 -0.043403 -0.029048
vn -0.395359 0.763356 -0.510860
vn -0.557580 0.658128 -0.505937
vn -0.087647 0.708740 -0.700004
vn -0.720165 0.504498 -0.476282
vn -0.666884 0.561749 -0.489596
vn -0.658203 0.520848 -0.543586
vn -0.116686 -0.901589 -0.416560
vn -0.406588 -0.793899 -0.452118
vn -0.736039 -0.421108 -0.530013
vn -0.741469 0.486688 -0.461907
vn -0.706937 -0.340751 -0.619782
vn 0.670003 0.617263 -0.412410
vn 0.734067 0.579198 -0.354508
vn 0.546677 0.669143 -0.503380
vn 0.243173 0.702996 -0.668329
vn -0.070021 0.499245 -0.863627
vn 0.014243 0.670459 -0.741809
vn -0.961533 0.212725 -0.173787
vn -0.791023 0.436727 -0.428430
vn -0.815367 0.417925 -0.400644
vn -0.804805 -0.124742 -0.580283
vn -0.044762 0.462686 -0.885392
vn 0.679528 0.423587 -0.599012
vn 0.808797 -0.202509 -0.552121
vn 0.810405 -0.102226 -0.576883
vn -0.015390 -0.759042 -0.650860
vn -0.583385 -0.293034 -0.757491
vn -0.556864 -0.238569 -0.795605
vn -0.091135 0.415868 -0.904847
vn -0.074139 0.429031 -0.900242
vn 0.461286 -0.406158 -0.788829
vn 0.216593 -0.524016 -0.823708
vn 0.425410 -0.328038 -0.843456
vn -0.371647 -0.167967 -0.913053
vn -0.309413 -0.090017 -0.946658
vn -0.204877 -0.254087 -0.945233
f 1//1 2//1 3//1
f 4//2 5//2 6//2
f 7//3 8//3 9//3
f 10//4 11//4 12//4
f 13//5 14//5 15//5
f 16//6 17//6 18//6
f 19//7 20//7 21//7
f 22//8 23//8 24//8
f 25//9 26//9 27//9
f 28//10 29//10 30//10
f 31//11 32//11 33//11
f 34//12 35//12 36//12
f 37//13 38//13 39//13
f 40//14 41//14 42//14
f 43//15 44//15 45//15
f 46//16 47//16 48//16
f 49//17 50//17 51//17
f 52//18 53//18 54//18
f 55//19 56//19 57//19
f 58//20 59//20 60//20
f 61//21 62//21 63//21
f 64//22 65//22 66//22
f 67//23 68//23 69//23
f 70//24 71//24 72//24
f 73//25 74//25 75//25
f 76//26 77//26 78//26
f 79//27 80//27 81//27
f 82//28 83//28 84//28
f 85//29 86//29 87//29
f 88//30 89//30 90//30
f 91//31 92//31 93//31
f 94//32 95//32 96//32
f 97//33 98//33 99//33
f 100//34 101//34 102//34
f 103//35 104//35 105//35
f 106//36 107//36 108//36
f 109//37 110//37 111//37
f 112//38 113//38 114//38
f 115//39 116//39 117//39
f 118//40 119//40 120//40
f 121//41 122//41 123//41
f 124//42 125//42 126//42
f 127//43 128//43 129//43
f 130//44 131//44 132//44
f 133//45 134//45 135//45
f 136//46 137//46 138//46
f 139//47 140//47 141//47
f 142//48 143//48 144//48
f 145//49 146//49 147//49
f 148//50 149//50 150//50
f 151//51 152//51 153//51
f 154//52 155//52 156//52
f 157//53 158//53 159//53
f 160//54 161//54 162//54
f 163//55 164//55 165//55
f 166//56 167//56 168//56
f 169//57 170//57 171//57
f 172//58 173//58 174//58
f 175//59 176//59 177//59
f 178//60 179//60 180//60
f 181//61 182//61 183//61
f 184//62 185//62 186//62
f 187//63 188//63 189//63
f 190//64 191//64 192//64
f 193//65 194//65 195//65
f 196//66 197//66 198//66
f 199//67 200//67 201//67
f 202//68 203//68 204//68
f 205//69 206//69 207//69
f 208//70 209//70 210//70
