o
v 21.890282 -35.509724 -16.047291
v 21.856579 -35.529167 -16.084846
v 31.484806 -23.780954 -33.419765
v 21.890282 -35.509724 -16.047291
v 21.835491 -35.539349 -16.104256
v 21.856579 -35.529167 -16.084846
v 21.856579 -35.529167 -16.084846
v 21.835491 -35.539349 -16.104256
v 31.484806 -23.780954 -33.419765
v 21.890282 -35.509724 -16.047291
v 31.484806 -23.780954 -33.419765
v 29.574951 -25.829319 -9.161970
v 32.942722 15.118443 17.068050
v 15.181508 18.580894 32.261467
v 29.574951 -25.829319 -9.161970
v 32.942722 15.118443 17.068050
v 16.018772 24.880583 30.176819
v 15.181508 18.580894 32.261467
v 16.018772 24.880583 30.176819
v -0.525170 28.880375 30.202499
v 15.181508 18.580894 32.261467
v 15.181508 18.580894 32.261467
v -0.525170 28.880375 30.202499
v 12.981524 19.243053 32.118389
v 12.981524 19.243053 32.118389
v -0.525170 28.880375 30.202499
v -1.341141 28.754980 30.213375
v 21.890282 -35.509724 -16.047291
v 29.574951 -25.829319 -9.161970
v -3.834336 2.229773 29.997833
v 15.181508 18.580894 32.261467
v -3.834336 2.229773 29.997833
v 29.574951 -25.829319 -9.161970
v 21.890282 -35.509724 -16.047291
v -3.834336 2.229773 29.997833
v 21.835491 -35.539349 -16.104256
v 15.181508 18.580894 32.261467
v 12.981524 19.243053 32.118389
v -3.834336 2.229773 29.997833
v 12.981524 19.243053 32.118389
v -1.341141 28.754980 30.213375
v -3.834336 2.229773 29.997833
v -1.341141 28.754980 30.213375
v -3.854537 2.256818 29.983475
v -3.834336 2.229773 29.997833
v -24.024210 41.371029 -4.154336
v -23.803013 41.804531 -5.040872
v -25.337290 7.863313 -40.981331
v 21.835491 -35.539349 -16.104256
v 3.159158 -33.815884 -24.457260
v 31.484806 -23.780954 -33.419765
v 2.725916 -33.874462 -24.339605
v 3.159158 -33.815884 -24.457260
v 21.835491 -35.539349 -16.104256
v 3.159158 -33.815884 -24.457260
v 2.905897 -33.676495 -24.644625
v 31.484806 -23.780954 -33.419765
v 2.725916 -33.874462 -24.339605
v 2.905897 -33.676495 -24.644625
v 3.159158 -33.815884 -24.457260
v 2.766722 -33.714306 -24.567568
v 2.905897 -33.676495 -24.644625
v 2.725916 -33.874462 -24.339605
v -1.341141 28.754980 30.213375
v -22.336428 41.824043 -3.340394
v -24.024210 41.371029 -4.154336
v -1.341141 28.754980 30.213375
v -22.192142 41.929951 -3.364484
v -22.336428 41.824043 -3.340394
v -24.024210 41.371029 -4.154336
v -22.192142 41.929951 -3.364484
v -23.803013 41.804531 -5.040872
v -22.336428 41.824043 -3.340394
v -22.192142 41.929951 -3.364484
v -24.024210 41.371029 -4.154336
v -22.192142 41.929951 -3.364484
v -22.271078 42.059486 -4.076262
v -23.803013 41.804531 -5.040872
v 16.018772 24.880583 30.176819
v 23.428789 38.749496 12.136424
v -0.525170 28.880375 30.202499
v 32.942722 15.118443 17.068050
v 23.428789 38.749496 12.136424
v 16.018772 24.880583 30.176819
v -1.341141 28.754980 30.213375
v -13.251663 -2.514757 18.986877
v -3.854537 2.256818 29.983475
v -1.341141 28.754980 30.213375
v -24.024210 41.371029 -4.154336
v -13.251663 -2.514757 18.986877
v -3.854537 2.256818 29.983475
v -13.251663 -2.514757 18.986877
v -3.834336 2.229773 29.997833
v 31.484806 -23.780954 -33.419765
v 32.840752 -3.611357 -11.852591
v 29.574951 -25.829319 -9.161970
v 32.942722 15.118443 17.068050
v 29.574951 -25.829319 -9.161970
v 32.840752 -3.611357 -11.852591
v 31.484806 -23.780954 -33.419765
v 31.945889 0.309531 -32.366879
v 32.840752 -3.611357 -11.852591
v 32.942722 15.118443 17.068050
v 32.840752 -3.611357 -11.852591
v 31.945889 0.309531 -32.366879
v 31.484806 -23.780954 -33.419765
v 26.375570 1.079021 -42.461781
v 31.945889 0.309531 -32.366879
v 2.766722 -33.714306 -24.567568
v 2.725916 -33.874462 -24.339605
v -14.301444 -5.728316 -41.772102
v 2.725916 -33.874462 -24.339605
v -22.120537 1.223584 -38.429604
v -14.301444 -5.728316 -41.772102
v -25.337290 7.863313 -40.981331
v -14.301444 -5.728316 -41.772102
v -22.120537 1.223584 -38.429604
v 31.484806 -23.780954 -33.419765
v 16.731997 -10.045934 -43.606285
v 26.375570 1.079021 -42.461781
v -25.337290 7.863313 -40.981331
v -22.120537 1.223584 -38.429604
v -21.281775 -5.525093 -26.460814
v 2.725916 -33.874462 -24.339605
v -21.281775 -5.525093 -26.460814
v -22.120537 1.223584 -38.429604
v -0.525170 28.880375 30.202499
v 0.493517 40.688488 14.173348
v -1.341141 28.754980 30.213375
v 23.428789 38.749496 12.136424
v 0.493517 40.688488 14.173348
v -0.525170 28.880375 30.202499
v -24.024210 41.371029 -4.154336
v -25.337290 7.863313 -40.981331
v -21.283224 -5.412200 -11.252681
v -25.337290 7.863313 -40.981331
v -21.281775 -5.525093 -26.460814
v -21.283224 -5.412200 -11.252681
v -24.024210 41.371029 -4.154336
v -21.283224 -5.412200 -11.252681
v -13.251663 -2.514757 18.986877
v 2.725916 -33.874462 -24.339605
v -13.251663 -2.514757 18.986877
v -19.671118 -8.658365 -11.381924
v -21.283224 -5.412200 -11.252681
v -19.671118 -8.658365 -11.381924
v -13.251663 -2.514757 18.986877
v 2.725916 -33.874462 -24.339605
v -19.671118 -8.658365 -11.381924
v -21.281775 -5.525093 -26.460814
v -21.281775 -5.525093 -26.460814
v -19.671118 -8.658365 -11.381924
v -21.283224 -5.412200 -11.252681
v -25.337290 7.863313 -40.981331
v -14.204188 7.536799 -45.241749
v -14.301444 -5.728316 -41.772102
v -1.341141 28.754980 30.213375
v -6.596056 43.925056 5.366598
v -22.192142 41.929951 -3.364484
v 0.493517 40.688488 14.173348
v -6.596056 43.925056 5.366598
v -1.341141 28.754980 30.213375
v 0.493517 40.688488 14.173348
v -6.579363 43.925236 5.375484
v -6.596056 43.925056 5.366598
v -22.192142 41.929951 -3.364484
v -7.286090 44.282837 3.336690
v -22.271078 42.059486 -4.076262
v -6.596056 43.925056 5.366598
v -7.286090 44.282837 3.336690
v -22.192142 41.929951 -3.364484
v -6.579363 43.925236 5.375484
v -7.286090 44.282837 3.336690
v -6.596056 43.925056 5.366598
v 2.766722 -33.714306 -24.567568
v 5.453804 -11.598378 -43.909145
v 2.905897 -33.676495 -24.644625
v 2.766722 -33.714306 -24.567568
v -14.301444 -5.728316 -41.772102
v 5.453804 -11.598378 -43.909145
v 2.905897 -33.676495 -24.644625
v 5.453804 -11.598378 -43.909145
v 31.484806 -23.780954 -33.419765
v 31.484806 -23.780954 -33.419765
v 5.453804 -11.598378 -43.909145
v 16.731997 -10.045934 -43.606285
v 32.942722 15.118443 17.068050
v 31.945889 0.309531 -32.366879
v 28.763407 17.484753 -28.385611
v 26.375570 1.079021 -42.461781
v 28.763407 17.484753 -28.385611
v 31.945889 0.309531 -32.366879
v -3.834336 2.229773 29.997833
v -2.679580 -21.241392 -4.694912
v 21.835491 -35.539349 -16.104256
v -13.251663 -2.514757 18.986877
v -2.679580 -21.241392 -4.694912
v -3.834336 2.229773 29.997833
v 2.725916 -33.874462 -24.339605
v 21.835491 -35.539349 -16.104256
v -2.679580 -21.241392 -4.694912
v 2.725916 -33.874462 -24.339605
v -2.679580 -21.241392 -4.694912
v -13.251663 -2.514757 18.986877
v 16.731997 -10.045934 -43.606285
v 9.465724 -1.725108 -47.370087
v 26.375570 1.079021 -42.461781
v 5.453804 -11.598378 -43.909145
v 9.465724 -1.725108 -47.370087
v 16.731997 -10.045934 -43.606285
v -14.204188 7.536799 -45.241749
v 9.465724 -1.725108 -47.370087
v -14.301444 -5.728316 -41.772102
v -14.301444 -5.728316 -41.772102
v 9.465724 -1.725108 -47.370087
v 5.453804 -11.598378 -43.909145
v 32.942722 15.118443 17.068050
v 22.179951 40.312782 -16.406736
v 23.428789 38.749496 12.136424
v 32.942722 15.118443 17.068050
v 28.763407 17.484753 -28.385611
v 22.179951 40.312782 -16.406736
v 26.375570 1.079021 -42.461781
v 22.179951 40.312782 -16.406736
v 28.763407 17.484753 -28.385611
v 23.428789 38.749496 12.136424
v 1.740290 43.933041 5.215442
v 0.493517 40.688488 14.173348
v 0.493517 40.688488 14.173348
v 1.740290 43.933041 5.215442
v -6.579363 43.925236 5.375484
v -23.803013 41.804531 -5.040872
v -15.289162 19.599546 -37.242844
v -25.337290 7.863313 -40.981331
v -25.337290 7.863313 -40.981331
v -15.289162 19.599546 -37.242844
v -14.204188 7.536799 -45.241749
v -22.271078 42.059486 -4.076262
v 11.338665 47.547829 -11.870532
v -23.803013 41.804531 -5.040872
v -7.286090 44.282837 3.336690
v 11.338665 47.547829 -11.870532
v -22.271078 42.059486 -4.076262
v -6.579363 43.925236 5.375484
v 11.338665 47.547829 -11.870532
v -7.286090 44.282837 3.336690
v 1.740290 43.933041 5.215442
v 11.338665 47.547829 -11.870532
v -6.579363 43.925236 5.375484
v 22.179951 40.312782 -16.406736
v 11.338665 47.547829 -11.870532
v 23.428789 38.749496 12.136424
v 23.428789 38.749496 12.136424
v 11.338665 47.547829 -11.870532
v 1.740290 43.933041 5.215442
v 9.465724 -1.725108 -47.370087
v 3.019961 3.460830 -47.012478
v 26.375570 1.079021 -42.461781
v -14.204188 7.536799 -45.241749
v 3.019961 3.460830 -47.012478
v 9.465724 -1.725108 -47.370087
v 11.338665 47.547829 -11.870532
v -4.450239 39.967888 -20.833519
v -23.803013 41.804531 -5.040872
v -23.803013 41.804531 -5.040872
v -3.231503 36.866421 -27.927649
v -15.289162 19.599546 -37.242844
v -4.450239 39.967888 -20.833519
v -3.231503 36.866421 -27.927649
v -23.803013 41.804531 -5.040872
v 11.338665 47.547829 -11.870532
v -3.231503 36.866421 -27.927649
v -4.450239 39.967888 -20.833519
v -15.289162 19.599546 -37.242844
v -5.891513 25.736597 -35.527409
v -14.204188 7.536799 -45.241749
v -3.231503 36.866421 -27.927649
v -5.891513 25.736597 -35.527409
v -15.289162 19.599546 -37.242844
v -3.231503 36.866421 -27.927649
v -2.473834 35.246769 -29.364483
v -5.891513 25.736597 -35.527409
v -14.204188 7.536799 -45.241749
v -2.382559 22.911734 -38.144852
v 3.019961 3.460830 -47.012478
v -5.891513 25.736597 -35.527409
v -2.382559 22.911734 -38.144852
v -14.204188 7.536799 -45.241749
v -2.473834 35.246769 -29.364483
v -2.382559 22.911734 -38.144852
v -5.891513 25.736597 -35.527409
v 3.019961 3.460830 -47.012478
v -1.370436 22.417519 -38.186424
v 26.375570 1.079021 -42.461781
v -2.382559 22.911734 -38.144852
v -1.370436 22.417519 -38.186424
v 3.019961 3.460830 -47.012478
v 22.179951 40.312782 -16.406736
v 7.271258 37.104343 -24.691198
v 11.338665 47.547829 -11.870532
v 11.338665 47.547829 -11.870532
v 7.271258 37.104343 -24.691198
v -3.231503 36.866421 -27.927649
v -3.231503 36.866421 -27.927649
v 7.271258 37.104343 -24.691198
v -2.473834 35.246769 -29.364483
v -2.473834 35.246769 -29.364483
v 1.721066 27.319586 -34.270836
v -2.382559 22.911734 -38.144852
v -2.382559 22.911734 -38.144852
v 1.721066 27.319586 -34.270836
v -1.370436 22.417519 -38.186424
v 26.375570 1.079021 -42.461781
v 1.721066 27.319586 -34.270836
v 22.179951 40.312782 -16.406736
v 22.179951 40.312782 -16.406736
v 1.721066 27.319586 -34.270836
v 7.271258 37.104343 -24.691198
v -1.370436 22.417519 -38.186424
v 1.721066 27.319586 -34.270836
v 26.375570 1.079021 -42.461781
v 7.271258 37.104343 -24.691198
v 1.721066 27.319586 -34.270836
v -2.473834 35.246769 -29.364483
vn 0.626358 -0.761218 -0.167998
vn 0.032544 -0.899184 0.436325
vn 0.577161 -0.788199 -0.213609
vn 0.780197 -0.625474 0.008610
vn 0.507590 -0.493956 0.705945
vn 0.659464 0.155717 0.735431
vn 0.075037 0.304271 0.949626
vn -0.008843 0.183040 0.983066
vn -0.013947 0.176125 0.984269
vn 0.238583 -0.681484 0.691850
vn 0.391405 -0.556637 0.732774
vn -0.158642 -0.805228 0.571350
vn -0.078707 -0.046326 0.995821
vn -0.129179 0.004084 0.991613
vn -0.539124 0.043839 0.841085
vn -0.969456 0.197628 -0.145249
vn 0.144569 -0.854177 -0.499481
vn 0.046917 -0.952344 -0.301396
vn 0.063115 -0.757985 -0.649212
vn -0.040427 -0.827067 -0.560648
vn -0.104794 -0.804823 -0.584191
vn -0.454781 0.696003 0.555656
vn -0.432925 0.714748 0.549282
vn -0.400010 0.858784 0.320127
vn -0.446619 0.727071 0.521439
vn -0.283242 0.937527 0.202031
vn 0.180526 0.742552 0.645002
vn 0.694330 0.403849 0.595660
vn -0.772825 0.067829 0.630984
vn -0.812285 0.103304 0.574039
vn -0.711654 -0.169625 0.681745
vn 0.988320 -0.137253 0.066222
vn 0.987291 -0.134958 0.083922
vn 0.998757 -0.017069 -0.046830
vn 0.998267 0.047721 -0.034425
vn 0.875683 0.004344 -0.482867
vn -0.516441 -0.654461 -0.552240
vn -0.702058 -0.630155 -0.331693
vn -0.683753 -0.525737 -0.506045
vn 0.386927 -0.243920 -0.889264
vn -0.842626 -0.492190 -0.218474
vn -0.715562 -0.628749 -0.304378
vn -0.115646 0.803217 0.584352
vn 0.119998 0.795649 0.593753
vn -0.992014 -0.073656 0.102388
vn -0.957667 -0.287871 0.002046
vn -0.959672 -0.096300 0.264114
vn -0.641755 -0.713935 0.280085
vn -0.858107 -0.436893 0.269773
vn -0.760062 -0.647654 -0.053391
vn -0.895580 -0.444890 0.003217
vn -0.353442 -0.234290 -0.905642
vn -0.396366 0.743923 0.538027
vn -0.318423 0.777631 0.542123
vn -0.288826 0.799677 0.526399
vn -0.239662 0.950139 0.199493
vn -0.260740 0.931708 0.252852
vn -0.123747 0.969207 0.212893
vn -0.243371 -0.621598 -0.744571
vn -0.263492 -0.616712 -0.741780
vn -0.003864 -0.657205 -0.753702
vn 0.094998 -0.525161 -0.845684
vn 0.976697 0.199388 -0.079424
vn 0.853157 0.262572 -0.450753
vn -0.221112 -0.811155 0.541422
vn -0.224110 -0.810633 0.540970
vn -0.274011 -0.841443 0.465716
vn -0.624243 -0.723898 0.293754
vn 0.299892 -0.163265 -0.939899
vn 0.074091 -0.356570 -0.931326
vn -0.182426 -0.247550 -0.951546
vn -0.179768 -0.259559 -0.948848
vn 0.928916 0.369729 -0.020393
vn 0.947883 0.310612 -0.070984
vn 0.524167 0.509319 -0.682527
vn 0.109844 0.929544 0.351969
vn 0.005683 0.939958 0.341243
vn -0.523279 0.630593 -0.573177
vn -0.294435 0.509612 -0.808458
vn -0.161970 0.986789 -0.003586
vn -0.156545 0.987463 0.020282
vn -0.024590 0.983181 0.180972
vn 0.003096 0.977986 0.208647
vn 0.560981 0.827568 0.020781
vn 0.138203 0.950381 0.278705
vn 0.212782 0.327944 -0.920422
vn -0.121202 -0.082433 -0.989199
vn -0.219974 0.900828 -0.374326
vn -0.487721 0.653103 -0.579297
vn -0.263848 0.866337 -0.424080
vn -0.187578 0.887764 -0.420345
vn -0.195283 0.529745 -0.825370
vn -0.241421 0.585917 -0.773574
vn -0.225096 0.585553 -0.778755
vn 0.004944 0.415954 -0.909372
vn -0.191207 0.528737 -0.826969
vn -0.140371 0.573478 -0.807105
vn 0.214786 0.452676 -0.865420
vn 0.183600 0.449536 -0.874190
vn 0.208906 0.724716 -0.656617
vn 0.185344 0.732277 -0.655300
vn 0.195644 0.700430 -0.686383
vn 0.143454 0.574616 -0.805753
vn 0.220148 0.520259 -0.825146
vn 0.325949 0.546947 -0.771107
vn 0.299089 0.575523 -0.761130
vn 0.256475 0.499306 -0.827596
vn 0.249258 0.601609 -0.758905
f 1//1 2//1 3//1
f 4//2 5//2 6//2
f 7//3 8//3 9//3
f 10//4 11//4 12//4
f 13//5 14//5 15//5
f 16//6 17//6 18//6
f 19//7 20//7 21//7
f 22//8 23//8 24//8
f 25//9 26//9 27//9
f 28//10 29//10 30//10
f 31//11 32//11 33//11
f 34//12 35//12 36//12
f 37//13 38//13 39//13
f 40//14 41//14 42//14
f 43//15 44//15 45//15
f 46//16 47//16 48//16
f 49//17 50//17 51//17
f 52//18 53//18 54//18
f 55//19 56//19 57//19
f 58//20 59//20 60//20
f 61//21 62//21 63//21
f 64//22 65//22 66//22
f 67//23 68//23 69//23
f 70//24 71//24 72//24
f 73//25 74//25 75//25
f 76//26 77//26 78//26
f 79//27 80//27 81//27
f 82//28 83//28 84//28
f 85//29 86//29 87//29
f 88//30 89//30 90//30
f 91//31 92//31 93//31
f 94//32 95//32 96//32
f 97//33 98//33 99//33
f 100//34 101//34 102//34
f 103//35 104//35 105//35
f 106//36 107//36 108//36
f 109//37 110//37 111//37
f 112//38 113//38 114//38
f 115//39 116//39 117//39
f 118//40 119//40 120//40
f 121//41 122//41 123//41
f 124//42 125//42 126//42
f 127//43 128//43 129//43
f 130//44 131//44 132//44
f 133//45 134//45 135//45
f 136//46 137//46 138//46
f 139//47 140//47 141//47
f 142//48 143//48 144//48
f 145//49 146//49 147//49
f 148//50 149//50 150//50
f 151//51 152//51 153//51
f 154//52 155//52 156//52
f 157//53 158//53 159//53
f 160//54 161//54 162//54
f 163//55 164//55 165//55
f 166//56 167//56 168//56
f 169//57 170//57 171//57
f 172//58 173//58 174//58
f 175//59 176//59 177//59
f 178//60 179//60 180//60
f 181//61 182//61 183//61
f 184//62 185//62 186//62
f 187//63 188//63 189//63
f 190//64 191//64 192//64
f 193//65 194//65 195//65
f 196//66 197//66 198//66
f 199//67 200//67 201//67
f 202//68 203//68 204//68
f 205//69 206//69 207//69
f 208//70 209//70 210//70
f 211//71 212//71 213//71
f 214//72 215//72 216//72
f 217//73 218//73 219//73
f 220//74 221//74 222//74
f 223//75 224//75 225//75
f 226//76 227//76 228//76
f 229//77 230//77 231//77
f 232//78 233//78 234//78
f 235//79 236//79 237//79
f 238//80 239//80 240//80
f 241//81 242//81 243//81
f 244//82 245//82 246//82
f 247//83 248//83 249//83
f 250//84 251//84 252//84
f 253//85 254//85 255//85
f 256//86 257//86 258//86
f 259//87 260//87 261//87
f 262//88 263//88 264//88
f 265//89 266//89 267//89
f 268//90 269//90 270//90
f 271//91 272//91 273//91
f 274//92 275//92 276//92
f 277//93 278//93 279//93
f 280//94 281//94 282//94
f 283//95 284//95 285//95
f 286//96 287//96 288//96
f 289//97 290//97 291//97
f 292//98 293//98 294//98
f 295//99 296//99 297//99
f 298//100 299//100 300//100
f 301//101 302//101 303//101
f 304//102 305//102 306//102
f 307//103 308//103 309//103
f 310//104 311//104 312//104
f 313//105 314//105 315//105
f 316//106 317//106 318//106
f 319//107 320//107 321//107
f 322//108 323//108 324//108
