o
v -4.564545 -46.737381 -7.931003
v 5.895603 -49.776226 10.076109
v -14.392692 -48.831600 9.377784
v -4.564545 -46.737381 -7.931003
v 2.914370 -35.937115 -18.743565
v 5.895603 -49.776226 10.076109
v -4.564545 -46.737381 -7.931003
v 2.900444 -35.934952 -18.738405
v 2.914370 -35.937115 -18.743565
v -4.564545 -46.737381 -7.931003
v -14.392692 -48.831600 9.377784
v -29.646049 -29.190870 15.555289
v 2.914370 -35.937115 -18.743565
v 8.447399 -25.888037 -22.749846
v 5.895603 -49.776226 10.076109
v 2.900444 -35.934952 -18.738405
v 8.447399 -25.888037 -22.749846
v 2.914370 -35.937115 -18.743565
v -29.646049 -29.190870 15.555289
v -11.886123 4.419959 38.227390
v -12.393257 5.588292 38.390537
v 5.895603 -49.776226 10.076109
v 9.312020 -40.566051 25.525925
v -14.392692 -48.831600 9.377784
v -4.564545 -46.737381 -7.931003
v -1.593773 -28.371801 -16.550547
v 2.900444 -35.934952 -18.738405
v -4.564545 -46.737381 -7.931003
v -29.646049 -29.190870 15.555289
v -1.593773 -28.371801 -16.550547
v 2.900444 -35.934952 -18.738405
v -1.593773 -28.371801 -16.550547
v 8.447399 -25.888037 -22.749846
v 8.447399 -25.888037 -22.749846
v 29.290304 -2.715258 1.507410
v 29.328045 -2.830963 1.484263
v 29.313099 -2.784476 1.495652
v 29.328045 -2.830963 1.484263
v 29.290304 -2.715258 1.507410
v 8.447399 -25.888037 -22.749846
v 29.328045 -2.830963 1.484263
v 29.378557 -3.258378 1.455653
v -1.593773 -28.371801 -16.550547
v -2.289741 -27.396856 -15.847085
v 8.447399 -25.888037 -22.749846
v -29.646049 -29.190870 15.555289
v -2.289741 -27.396856 -15.847085
v -1.593773 -28.371801 -16.550547
v -11.886123 4.419959 38.227390
v 10.981008 -4.138085 39.909733
v -12.393257 5.588292 38.390537
v -12.393257 5.588292 38.390537
v 10.981008 -4.138085 39.909733
v 29.290304 -2.715258 1.507410
v 29.313099 -2.784476 1.495652
v 29.290304 -2.715258 1.507410
v 10.981008 -4.138085 39.909733
v 29.313099 -2.784476 1.495652
v 10.981008 -4.138085 39.909733
v 29.328045 -2.830963 1.484263
v 29.328045 -2.830963 1.484263
v 10.981008 -4.138085 39.909733
v 29.378557 -3.258378 1.455653
v -14.392692 -48.831600 9.377784
v -3.242273 -37.725220 24.627949
v -29.646049 -29.190870 15.555289
v 9.312020 -40.566051 25.525925
v -3.242273 -37.725220 24.627949
v -14.392692 -48.831600 9.377784
v -29.646049 -29.190870 15.555289
v -2.639804 -37.106804 25.183090
v -11.886123 4.419959 38.227390
v -3.242273 -37.725220 24.627949
v -2.639804 -37.106804 25.183090
v -29.646049 -29.190870 15.555289
v -11.886123 4.419959 38.227390
v -2.639804 -37.106804 25.183090
v 10.981008 -4.138085 39.909733
v 10.981008 -4.138085 39.909733
v -2.639804 -37.106804 25.183090
v 9.312020 -40.566051 25.525925
v 9.312020 -40.566051 25.525925
v -2.639804 -37.106804 25.183090
v -3.242273 -37.725220 24.627949
v -29.646049 -29.190870 15.555289
v -12.393257 5.588292 38.390537
v -8.352087 6.836767 25.177944
v -12.393257 5.588292 38.390537
v 29.290304 -2.715258 1.507410
v -8.352087 6.836767 25.177944
v 8.447399 -25.888037 -22.749846
v 8.658415 -2.148780 -10.735748
v 29.290304 -2.715258 1.507410
v 5.895603 -49.776226 10.076109
v 23.319250 -25.243496 17.920273
v 9.312020 -40.566051 25.525925
v 10.981008 -4.138085 39.909733
v 23.319250 -25.243496 17.920273
v 29.378557 -3.258378 1.455653
v 10.981008 -4.138085 39.909733
v 9.312020 -40.566051 25.525925
v 23.319250 -25.243496 17.920273
v -2.289741 -27.396856 -15.847085
v 7.471941 -8.474006 -13.162939
v 8.447399 -25.888037 -22.749846
v 8.447399 -25.888037 -22.749846
v 7.471941 -8.474006 -13.162939
v 8.658415 -2.148780 -10.735748
v 8.658415 -2.148780 -10.735748
v 7.471941 -8.474006 -13.162939
v -2.289741 -27.396856 -15.847085
v -29.646049 -29.190870 15.555289
v -8.352087 6.836767 25.177944
v -3.305396 6.733296 11.250004
v 29.290304 -2.715258 1.507410
v -3.305396 6.733296 11.250004
v -8.352087 6.836767 25.177944
v 8.447399 -25.888037 -22.749846
v 19.878035 -23.099117 3.655892
v 5.895603 -49.776226 10.076109
v 5.895603 -49.776226 10.076109
v 19.878035 -23.099117 3.655892
v 23.319250 -25.243496 17.920273
v 8.447399 -25.888037 -22.749846
v 29.378557 -3.258378 1.455653
v 19.878035 -23.099117 3.655892
v 23.319250 -25.243496 17.920273
v 19.878035 -23.099117 3.655892
v 29.378557 -3.258378 1.455653
v -29.646049 -29.190870 15.555289
v 2.464242 2.378608 -2.126030
v -2.289741 -27.396856 -15.847085
v 8.658415 -2.148780 -10.735748
v -2.289741 -27.396856 -15.847085
v 2.464242 2.378608 -2.126030
v -29.646049 -29.190870 15.555289
v -3.305396 6.733296 11.250004
v 2.464242 2.378608 -2.126030
v 8.658415 -2.148780 -10.735748
v 2.464242 2.378608 -2.126030
v 29.290304 -2.715258 1.507410
v 29.290304 -2.715258 1.507410
v 2.464242 2.378608 -2.126030
v -3.305396 6.733296 11.250004
vn -0.041120 -0.988869 -0.142993
vn 0.496590 -0.761289 -0.416938
vn -0.366667 -0.519064 -0.772093
vn -0.758464 -0.436954 -0.483533
vn 0.757501 -0.554468 -0.344613
vn -0.365029 -0.164348 -0.916375
vn -0.460913 -0.315875 0.829327
vn -0.057581 -0.851877 0.520567
vn -0.692263 -0.211797 -0.689866
vn -0.737643 -0.185390 -0.649241
vn -0.514045 -0.057892 -0.855807
vn 0.536494 0.330348 -0.776559
vn 0.940217 0.326230 -0.097717
vn 0.687203 0.129068 -0.714908
vn -0.549646 0.193938 -0.812574
vn -0.750842 -0.061497 -0.657613
vn -0.145612 -0.198547 0.969214
vn 0.364316 0.907902 0.207335
vn 0.878067 0.216686 0.426669
vn 0.885351 0.179584 0.428838
vn 0.898686 0.077309 0.431726
vn -0.425086 -0.555021 0.715020
vn -0.208981 -0.711455 0.670938
vn -0.404501 -0.354834 0.842895
vn -0.405106 -0.359828 0.840484
vn -0.192477 -0.332830 0.923134
vn -0.130403 -0.358952 0.924202
vn -0.183085 -0.551937 0.813539
vn -0.819223 0.537555 -0.199771
vn 0.354595 0.914488 0.194867
vn 0.477126 0.393460 -0.785837
vn 0.769975 -0.608373 0.192408
vn 0.898818 0.075614 0.431751
vn 0.684440 -0.294674 0.666865
vn -0.536947 0.383573 -0.751371
vn -0.520414 0.389265 -0.760028
vn -0.546862 0.387388 -0.742208
vn -0.788107 0.543156 -0.289600
vn 0.305356 0.946585 0.103612
vn 0.813519 -0.498476 -0.299512
vn 0.823350 -0.497343 -0.273395
vn 0.840968 -0.437930 -0.317789
vn 0.855660 -0.439949 -0.272562
vn -0.706337 0.386163 -0.593267
vn -0.626890 0.406402 -0.664715
vn -0.735982 0.482762 -0.474627
vn 0.218804 0.919639 -0.326173
vn 0.210599 0.952656 -0.219306
f 1//1 2//1 3//1
f 4//2 5//2 6//2
f 7//3 8//3 9//3
f 10//4 11//4 12//4
f 13//5 14//5 15//5
f 16//6 17//6 18//6
f 19//7 20//7 21//7
f 22//8 23//8 24//8
f 25//9 26//9 27//9
f 28//10 29//10 30//10
f 31//11 32//11 33//11
f 34//12 35//12 36//12
f 37//13 38//13 39//13
f 40//14 41//14 42//14
f 43//15 44//15 45//15
f 46//16 47//16 48//16
f 49//17 50//17 51//17
f 52//18 53//18 54//18
f 55//19 56//19 57//19
f 58//20 59//20 60//20
f 61//21 62//21 63//21
f 64//22 65//22 66//22
f 67//23 68//23 69//23
f 70//24 71//24 72//24
f 73//25 74//25 75//25
f 76//26 77//26 78//26
f 79//27 80//27 81//27
f 82//28 83//28 84//28
f 85//29 86//29 87//29
f 88//30 89//30 90//30
f 91//31 92//31 93//31
f 94//32 95//32 96//32
f 97//33 98//33 99//33
f 100//34 101//34 102//34
f 103//35 104//35 105//35
f 106//36 107//36 108//36
f 109//37 110//37 111//37
f 112//38 113//38 114//38
f 115//39 116//39 117//39
f 118//40 119//40 120//40
f 121//41 122//41 123//41
f 124//42 125//42 126//42
f 127//43 128//43 129//43
f 130//44 131//44 132//44
f 133//45 134//45 135//45
f 136//46 137//46 138//46
f 139//47 140//47 141//47
f 142//48 143//48 144//48
