o
v 1.073599 -35.858124 -26.130636
v 1.826766 -34.417332 -23.893095
v 0.989391 -35.901100 -26.008877
v 4.194613 30.299906 33.433136
v -1.354971 -33.307327 -16.549076
v 1.826766 -34.417332 -23.893095
v 1.826766 -34.417332 -23.893095
v -1.354971 -33.307327 -16.549076
v 0.989391 -35.901100 -26.008877
v 4.194613 30.299906 33.433136
v -10.592939 36.101013 27.103592
v -14.685373 33.678226 30.348480
v 4.194613 30.299906 33.433136
v -6.368963 -36.245987 -17.333029
v -1.354971 -33.307327 -16.549076
v -1.354971 -33.307327 -16.549076
v -6.368963 -36.245987 -17.333029
v 0.989391 -35.901100 -26.008877
v 4.194613 30.299906 33.433136
v 1.826766 -34.417332 -23.893095
v 4.941839 -17.436335 -30.569984
v 1.073599 -35.858124 -26.130636
v 4.941839 -17.436335 -30.569984
v 1.826766 -34.417332 -23.893095
v 1.073599 -35.858124 -26.130636
v 0.989391 -35.901100 -26.008877
v -5.626052 -34.378326 -26.176647
v -6.368963 -36.245987 -17.333029
v -9.852782 -36.078083 -20.262945
v 0.989391 -35.901100 -26.008877
v -6.368963 -36.245987 -17.333029
v -10.043931 -36.068882 -20.246433
v -9.852782 -36.078083 -20.262945
v 0.989391 -35.901100 -26.008877
v -10.043931 -36.068882 -20.246433
v -5.626052 -34.378326 -26.176647
v -9.852782 -36.078083 -20.262945
v -10.043931 -36.068882 -20.246433
v 0.989391 -35.901100 -26.008877
v -6.368963 -36.245987 -17.333029
v -47.323662 5.139071 17.036404
v -10.043931 -36.068882 -20.246433
v 4.194613 30.299906 33.433136
v -14.685373 33.678226 30.348480
v -47.178028 5.095579 17.068544
v -47.323662 5.139071 17.036404
v -47.178028 5.095579 17.068544
v -14.685373 33.678226 30.348480
v 4.194613 30.299906 33.433136
v -47.178028 5.095579 17.068544
v -6.368963 -36.245987 -17.333029
v -6.368963 -36.245987 -17.333029
v -47.178028 5.095579 17.068544
v -47.323662 5.139071 17.036404
v -47.323662 5.139071 17.036404
v -14.685373 33.678226 30.348480
v -47.040592 6.291451 17.025587
v -47.323662 5.139071 17.036404
v -47.040592 6.291451 17.025587
v -47.302090 5.343809 16.965244
v -10.592939 36.101013 27.103592
v -14.305006 49.277565 7.085010
v -14.685373 33.678226 30.348480
v -16.957840 36.635593 23.435738
v -14.685373 33.678226 30.348480
v -14.305006 49.277565 7.085010
v 4.194613 30.299906 33.433136
v -14.305006 49.277565 7.085010
v -10.592939 36.101013 27.103592
v -14.685373 33.678226 30.348480
v -38.547035 24.534401 14.382700
v -47.040592 6.291451 17.025587
v -16.957840 36.635593 23.435738
v -38.547035 24.534401 14.382700
v -14.685373 33.678226 30.348480
v -47.323662 5.139071 17.036404
v -48.075905 -5.242349 -9.471799
v -10.043931 -36.068882 -20.246433
v -47.323662 5.139071 17.036404
v -47.302090 5.343809 16.965244
v -48.075905 -5.242349 -9.471799
v -47.983147 -4.983346 -9.992925
v -47.735275 -5.227160 -10.431459
v -48.075905 -5.242349 -9.471799
v -10.043931 -36.068882 -20.246433
v -35.710831 -12.655864 -30.015198
v -5.626052 -34.378326 -26.176647
v -48.075905 -5.242349 -9.471799
v -35.710831 -12.655864 -30.015198
v -10.043931 -36.068882 -20.246433
v -48.075905 -5.242349 -9.471799
v -37.270035 -10.888751 -30.169743
v -35.710831 -12.655864 -30.015198
v -47.983147 -4.983346 -9.992925
v -37.886963 -10.171697 -30.151064
v -47.735275 -5.227160 -10.431459
v -47.735275 -5.227160 -10.431459
v -37.886963 -10.171697 -30.151064
v -48.075905 -5.242349 -9.471799
v -48.075905 -5.242349 -9.471799
v -37.886963 -10.171697 -30.151064
v -37.270035 -10.888751 -30.169743
v 1.073599 -35.858124 -26.130636
v -33.429676 -11.874165 -31.856560
v 4.941839 -17.436335 -30.569984
v 1.073599 -35.858124 -26.130636
v -5.626052 -34.378326 -26.176647
v -33.429676 -11.874165 -31.856560
v -35.710831 -12.655864 -30.015198
v -33.429676 -11.874165 -31.856560
v -5.626052 -34.378326 -26.176647
v -37.270035 -10.888751 -30.169743
v -33.429676 -11.874165 -31.856560
v -35.710831 -12.655864 -30.015198
v -37.886963 -10.171697 -30.151064
v -33.429676 -11.874165 -31.856560
v -37.270035 -10.888751 -30.169743
v -47.040592 6.291451 17.025587
v -38.752979 33.385662 1.090124
v -47.302090 5.343809 16.965244
v -38.547035 24.534401 14.382700
v -38.752979 33.385662 1.090124
v -47.040592 6.291451 17.025587
v -16.957840 36.635593 23.435738
v -31.832092 40.264935 -0.061487
v -38.547035 24.534401 14.382700
v -38.547035 24.534401 14.382700
v -31.832092 40.264935 -0.061487
v -38.752979 33.385662 1.090124
v -16.957840 36.635593 23.435738
v -14.305006 49.277565 7.085010
v -31.832092 40.264935 -0.061487
v -29.353189 41.597046 0.208968
v -31.832092 40.264935 -0.061487
v -14.305006 49.277565 7.085010
v -29.353189 41.597046 0.208968
v -14.305006 49.277565 7.085010
v -29.002634 41.740768 -0.373985
v -29.353189 41.597046 0.208968
v -29.002634 41.740768 -0.373985
v -31.832092 40.264935 -0.061487
v -33.429676 -11.874165 -31.856560
v -32.852959 -6.735301 -32.535259
v 4.941839 -17.436335 -30.569984
v 4.194613 30.299906 33.433136
v -11.752810 39.579144 -16.213745
v -14.305006 49.277565 7.085010
v 4.194613 30.299906 33.433136
v 4.941839 -17.436335 -30.569984
v -10.697271 37.259090 -16.161255
v 4.194613 30.299906 33.433136
v -10.697271 37.259090 -16.161255
v -11.752810 39.579144 -16.213745
v -11.752810 39.579144 -16.213745
v -10.697271 37.259090 -16.161255
v 4.941839 -17.436335 -30.569984
v -29.002634 41.740768 -0.373985
v -29.414679 40.938389 -2.419574
v -31.832092 40.264935 -0.061487
v -47.302090 5.343809 16.965244
v -44.544964 8.200804 -20.417860
v -48.075905 -5.242349 -9.471799
v -47.983147 -4.983346 -9.992925
v -48.075905 -5.242349 -9.471799
v -44.544964 8.200804 -20.417860
v -38.752979 33.385662 1.090124
v -44.544964 8.200804 -20.417860
v -47.302090 5.343809 16.965244
v -47.983147 -4.983346 -9.992925
v -44.544964 8.200804 -20.417860
v -37.886963 -10.171697 -30.151064
v -14.305006 49.277565 7.085010
v -26.256990 42.177715 -3.447366
v -29.002634 41.740768 -0.373985
v -24.256870 43.012409 -3.247015
v -26.256990 42.177715 -3.447366
v -14.305006 49.277565 7.085010
v -29.002634 41.740768 -0.373985
v -26.256990 42.177715 -3.447366
v -29.414679 40.938389 -2.419574
v -37.886963 -10.171697 -30.151064
v -37.207142 2.815367 -33.181759
v -33.429676 -11.874165 -31.856560
v -33.429676 -11.874165 -31.856560
v -37.207142 2.815367 -33.181759
v -32.852959 -6.735301 -32.535259
v -44.544964 8.200804 -20.417860
v -37.207142 2.815367 -33.181759
v -37.886963 -10.171697 -30.151064
v -44.544964 8.200804 -20.417860
v -37.177879 4.444775 -33.287891
v -37.207142 2.815367 -33.181759
v -11.752810 39.579144 -16.213745
v 4.941839 -17.436335 -30.569984
v -14.168314 34.449726 -23.349495
v -44.544964 8.200804 -20.417860
v -40.152199 16.715019 -26.434223
v -37.177879 4.444775 -33.287891
v -11.752810 39.579144 -16.213745
v -14.168314 34.449726 -23.349495
v -16.996153 36.153572 -22.874737
v -11.752810 39.579144 -16.213745
v -19.813417 39.219696 -18.558994
v -14.305006 49.277565 7.085010
v -24.256870 43.012409 -3.247015
v -14.305006 49.277565 7.085010
v -19.813417 39.219696 -18.558994
v -11.752810 39.579144 -16.213745
v -16.996153 36.153572 -22.874737
v -18.891464 37.745594 -21.554768
v -11.752810 39.579144 -16.213745
v -18.891464 37.745594 -21.554768
v -19.813417 39.219696 -18.558994
v -40.152199 16.715019 -26.434223
v -38.934845 18.685659 -27.440414
v -37.177879 4.444775 -33.287891
v -38.934845 18.685659 -27.440414
v -37.841721 17.451027 -29.086151
v -37.177879 4.444775 -33.287891
v -31.832092 40.264935 -0.061487
v -36.190311 32.325546 -15.693217
v -38.752979 33.385662 1.090124
v -38.752979 33.385662 1.090124
v -36.190311 32.325546 -15.693217
v -44.544964 8.200804 -20.417860
v -44.544964 8.200804 -20.417860
v -36.190311 32.325546 -15.693217
v -40.152199 16.715019 -26.434223
v 4.941839 -17.436335 -30.569984
v -17.768629 18.174770 -31.881926
v -14.168314 34.449726 -23.349495
v -29.414679 40.938389 -2.419574
v -36.174999 32.325745 -15.754120
v -31.832092 40.264935 -0.061487
v -31.832092 40.264935 -0.061487
v -36.174999 32.325745 -15.754120
v -36.190311 32.325546 -15.693217
v -40.152199 16.715019 -26.434223
v -36.174999 32.325745 -15.754120
v -38.934845 18.685659 -27.440414
v -36.190311 32.325546 -15.693217
v -36.174999 32.325745 -15.754120
v -40.152199 16.715019 -26.434223
v -37.841721 17.451027 -29.086151
v -36.577160 17.280804 -29.989126
v -37.177879 4.444775 -33.287891
v -38.934845 18.685659 -27.440414
v -36.105873 17.891668 -30.077257
v -37.841721 17.451027 -29.086151
v -37.841721 17.451027 -29.086151
v -36.105873 17.891668 -30.077257
v -36.577160 17.280804 -29.989126
v -32.852959 -6.735301 -32.535259
v -23.662937 16.404949 -34.982109
v 4.941839 -17.436335 -30.569984
v -37.207142 2.815367 -33.181759
v -23.662937 16.404949 -34.982109
v -32.852959 -6.735301 -32.535259
v -37.177879 4.444775 -33.287891
v -23.662937 16.404949 -34.982109
v -37.207142 2.815367 -33.181759
v 4.941839 -17.436335 -30.569984
v -23.662937 16.404949 -34.982109
v -17.768629 18.174770 -31.881926
v -36.577160 17.280804 -29.989126
v -35.752369 17.945137 -30.264210
v -37.177879 4.444775 -33.287891
v -36.105873 17.891668 -30.077257
v -35.752369 17.945137 -30.264210
v -36.577160 17.280804 -29.989126
v -38.934845 18.685659 -27.440414
v -36.157444 19.073376 -29.188503
v -36.105873 17.891668 -30.077257
v -36.105873 17.891668 -30.077257
v -36.157444 19.073376 -29.188503
v -35.752369 17.945137 -30.264210
v -17.768629 18.174770 -31.881926
v -24.457541 19.543491 -33.935535
v -14.168314 34.449726 -23.349495
v -23.662937 16.404949 -34.982109
v -24.457541 19.543491 -33.935535
v -17.768629 18.174770 -31.881926
v -24.256870 43.012409 -3.247015
v -27.532122 36.760967 -18.169928
v -26.256990 42.177715 -3.447366
v -24.256870 43.012409 -3.247015
v -19.813417 39.219696 -18.558994
v -27.532122 36.760967 -18.169928
v -26.256990 42.177715 -3.447366
v -27.532122 36.760967 -18.169928
v -29.414679 40.938389 -2.419574
v -29.414679 40.938389 -2.419574
v -27.532122 36.760967 -18.169928
v -36.174999 32.325745 -15.754120
v -37.177879 4.444775 -33.287891
v -26.925840 19.269085 -33.622669
v -23.662937 16.404949 -34.982109
v -23.662937 16.404949 -34.982109
v -26.925840 19.269085 -33.622669
v -24.457541 19.543491 -33.935535
v -35.752369 17.945137 -30.264210
v -26.925840 19.269085 -33.622669
v -37.177879 4.444775 -33.287891
v -27.532122 36.760967 -18.169928
v -26.567825 36.241985 -20.531700
v -36.174999 32.325745 -15.754120
v -18.891464 37.745594 -21.554768
v -26.567825 36.241985 -20.531700
v -19.813417 39.219696 -18.558994
v -19.813417 39.219696 -18.558994
v -26.567825 36.241985 -20.531700
v -27.532122 36.760967 -18.169928
v -18.891464 37.745594 -21.554768
v -24.261307 34.962891 -23.698200
v -26.567825 36.241985 -20.531700
v -14.168314 34.449726 -23.349495
v -22.232861 30.482330 -27.974478
v -16.996153 36.153572 -22.874737
v -24.457541 19.543491 -33.935535
v -22.232861 30.482330 -27.974478
v -14.168314 34.449726 -23.349495
v -16.996153 36.153572 -22.874737
v -22.232861 30.482330 -27.974478
v -18.891464 37.745594 -21.554768
v -26.925840 19.269085 -33.622669
v -22.232861 30.482330 -27.974478
v -24.457541 19.543491 -33.935535
v -18.891464 37.745594 -21.554768
v -23.223103 32.625427 -26.089417
v -24.261307 34.962891 -23.698200
v -22.232861 30.482330 -27.974478
v -23.223103 32.625427 -26.089417
v -18.891464 37.745594 -21.554768
v -26.925840 19.269085 -33.622669
v -23.223103 32.625427 -26.089417
v -22.232861 30.482330 -27.974478
v -36.157444 19.073376 -29.188503
v -33.109577 20.724661 -29.789160
v -35.752369 17.945137 -30.264210
v -35.752369 17.945137 -30.264210
v -33.109577 20.724661 -29.789160
v -26.925840 19.269085 -33.622669
v -24.261307 34.962891 -23.698200
v -27.383413 35.382393 -21.193338
v -26.567825 36.241985 -20.531700
v -36.174999 32.325745 -15.754120
v -27.932474 34.990993 -21.278181
v -38.934845 18.685659 -27.440414
v -26.567825 36.241985 -20.531700
v -27.932474 34.990993 -21.278181
v -36.174999 32.325745 -15.754120
v -27.383413 35.382393 -21.193338
v -27.932474 34.990993 -21.278181
v -26.567825 36.241985 -20.531700
v -36.157444 19.073376 -29.188503
v -25.271173 34.049725 -24.150385
v -33.109577 20.724661 -29.789160
v -23.223103 32.625427 -26.089417
v -25.271173 34.049725 -24.150385
v -24.261307 34.962891 -23.698200
v -38.934845 18.685659 -27.440414
v -25.271173 34.049725 -24.150385
v -36.157444 19.073376 -29.188503
v -27.932474 34.990993 -21.278181
v -25.271173 34.049725 -24.150385
v -38.934845 18.685659 -27.440414
v -24.261307 34.962891 -23.698200
v -25.271173 34.049725 -24.150385
v -27.383413 35.382393 -21.193338
v -27.383413 35.382393 -21.193338
v -25.271173 34.049725 -24.150385
v -27.932474 34.990993 -21.278181
v -26.925840 19.269085 -33.622669
v -27.609371 28.947609 -26.689426
v -23.223103 32.625427 -26.089417
v -33.109577 20.724661 -29.789160
v -27.609371 28.947609 -26.689426
v -26.925840 19.269085 -33.622669
v -25.271173 34.049725 -24.150385
v -27.609371 28.947609 -26.689426
v -33.109577 20.724661 -29.789160
v -23.223103 32.625427 -26.089417
v -27.609371 28.947609 -26.689426
v -25.271173 34.049725 -24.150385
vn 0.678670 -0.699995 0.222295
vn 0.818632 -0.397305 0.414716
vn 0.519334 -0.782592 0.343281
vn 0.036735 0.777984 0.627209
vn 0.241310 -0.612531 0.752712
vn 0.436324 -0.834339 0.336898
vn 0.984226 -0.136115 0.113011
vn 0.956119 -0.240937 -0.166690
vn -0.190645 -0.876852 -0.441345
vn -0.008607 -0.998857 -0.047007
vn -0.048085 -0.998843 -0.000064
vn -0.195824 -0.894904 -0.400999
vn -0.059950 -0.987826 -0.143547
vn -0.405942 -0.787229 0.464200
vn -0.195702 -0.221395 0.955346
vn -0.256153 -0.152310 0.954561
vn 0.047777 -0.610621 0.790480
vn -0.347802 -0.778314 0.522744
vn -0.464697 0.122379 0.876972
vn -0.900090 0.224602 0.373353
vn -0.050729 0.829872 0.555642
vn -0.506439 0.719978 0.474501
vn 0.100819 0.839521 0.533891
vn -0.610588 0.384573 0.692304
vn -0.573352 0.668069 0.474290
vn -0.540150 -0.778301 0.320134
vn -0.994833 0.100898 -0.011284
vn -0.888971 -0.326917 -0.320712
vn -0.447607 -0.714854 -0.537244
vn -0.645019 -0.755365 -0.115648
vn -0.726041 -0.658069 -0.199526
vn -0.896284 -0.193242 -0.399166
vn -0.837452 -0.453865 -0.304435
vn -0.743073 -0.633711 -0.215063
vn -0.001323 -0.234014 -0.972232
vn -0.063606 -0.317389 -0.946160
vn -0.355627 -0.616640 -0.702342
vn -0.453314 -0.466410 -0.759585
vn -0.451429 -0.367209 -0.813246
vn -0.962305 0.268358 -0.044195
vn -0.845794 0.437929 0.304712
vn -0.573221 0.673386 0.466871
vn -0.588880 0.668486 0.454255
vn -0.546880 0.702933 0.454761
vn -0.478008 0.875724 0.067937
vn -0.438714 0.897621 -0.042517
vn -0.467032 0.881964 -0.063405
vn 0.014028 -0.132469 -0.991088
vn 0.804447 0.574505 -0.151025
vn 0.917911 0.323124 -0.230283
vn 0.891439 0.400788 -0.211436
vn 0.804736 0.355367 -0.475516
vn -0.469690 0.849928 -0.238773
vn -0.975922 0.210846 -0.055864
vn -0.978017 0.193405 -0.077960
vn -0.962958 0.264828 -0.050782
vn -0.899718 -0.101108 -0.424599
vn -0.365997 0.909378 -0.197681
vn -0.359235 0.910242 -0.205937
vn -0.424127 0.868850 -0.255373
vn -0.412425 -0.186500 -0.891697
vn -0.111815 -0.117770 -0.986726
vn -0.876754 -0.065299 -0.476485
vn -0.869822 -0.016497 -0.493090
vn 0.775593 0.358007 -0.519891
vn -0.855045 0.078999 -0.512501
vn 0.324813 0.712416 -0.622061
vn 0.068497 0.923681 -0.376991
vn -0.262191 0.916205 -0.303026
vn 0.240582 0.773058 -0.586943
vn 0.081786 0.903994 -0.419650
vn -0.769213 0.159203 -0.618842
vn -0.760481 0.164151 -0.628270
vn -0.709393 0.688274 -0.151793
vn -0.922003 0.351215 -0.162966
vn -0.919754 0.352376 -0.172871
vn 0.521190 0.302988 -0.797846
vn -0.499130 0.820987 -0.277219
vn -0.683982 0.709497 -0.169657
vn -0.874934 0.404765 -0.265811
vn -0.896635 0.381818 -0.224189
vn -0.544245 0.232615 -0.806032
vn -0.523994 0.476811 -0.705749
vn -0.529092 0.293321 -0.796256
vn 0.019699 -0.112867 -0.993415
vn -0.044387 -0.087601 -0.995166
vn -0.068509 -0.063620 -0.995620
vn 0.400587 0.222726 -0.888776
vn -0.475437 0.239780 -0.846443
vn -0.481934 0.250687 -0.839580
vn -0.509619 0.502845 -0.698166
vn -0.459283 0.521035 -0.719431
vn 0.341417 0.376074 -0.861396
vn 0.341284 0.373968 -0.862365
vn -0.342007 0.891114 -0.298239
vn -0.302661 0.900934 -0.310988
vn -0.428191 0.859496 -0.279141
vn -0.498884 0.821075 -0.277400
vn -0.258825 0.157474 -0.953001
vn -0.151150 0.278051 -0.948600
vn -0.376474 0.240152 -0.894759
vn -0.504102 0.777206 -0.376607
vn -0.229923 0.843329 -0.485728
vn -0.302126 0.897730 -0.320625
vn -0.230227 0.832470 -0.503973
vn 0.195092 0.550051 -0.812024
vn 0.292980 0.410882 -0.863330
vn 0.025033 0.655559 -0.754729
vn -0.163296 0.497484 -0.851965
vn -0.075979 0.696342 -0.713677
vn 0.003468 0.661356 -0.750064
vn -0.332533 0.531566 -0.779012
vn -0.433080 0.535671 -0.724913
vn -0.373273 0.489591 -0.788015
vn -0.345006 0.755761 -0.556593
vn -0.570634 0.597825 -0.563012
vn -0.504510 0.776102 -0.378333
vn -0.489522 0.773834 -0.401932
vn -0.440544 0.557058 -0.703994
vn -0.248615 0.636486 -0.730121
vn -0.491315 0.576707 -0.652701
vn -0.494803 0.578838 -0.648164
vn -0.378849 0.711828 -0.591418
vn -0.401380 0.692902 -0.598983
vn -0.339734 0.531739 -0.775780
vn -0.354250 0.527923 -0.771883
vn -0.415028 0.550627 -0.724266
vn -0.348695 0.540751 -0.765507
f 1//1 2//1 3//1
f 4//2 5//2 6//2
f 7//3 8//3 9//3
f 10//4 11//4 12//4
f 13//5 14//5 15//5
f 16//6 17//6 18//6
f 19//7 20//7 21//7
f 22//8 23//8 24//8
f 25//9 26//9 27//9
f 28//10 29//10 30//10
f 31//11 32//11 33//11
f 34//12 35//12 36//12
f 37//13 38//13 39//13
f 40//14 41//14 42//14
f 43//15 44//15 45//15
f 46//16 47//16 48//16
f 49//17 50//17 51//17
f 52//18 53//18 54//18
f 55//19 56//19 57//19
f 58//20 59//20 60//20
f 61//21 62//21 63//21
f 64//22 65//22 66//22
f 67//23 68//23 69//23
f 70//24 71//24 72//24
f 73//25 74//25 75//25
f 76//26 77//26 78//26
f 79//27 80//27 81//27
f 82//28 83//28 84//28
f 85//29 86//29 87//29
f 88//30 89//30 90//30
f 91//31 92//31 93//31
f 94//32 95//32 96//32
f 97//33 98//33 99//33
f 100//34 101//34 102//34
f 103//35 104//35 105//35
f 106//36 107//36 108//36
f 109//37 110//37 111//37
f 112//38 113//38 114//38
f 115//39 116//39 117//39
f 118//40 119//40 120//40
f 121//41 122//41 123//41
f 124//42 125//42 126//42
f 127//43 128//43 129//43
f 130//44 131//44 132//44
f 133//45 134//45 135//45
f 136//46 137//46 138//46
f 139//47 140//47 141//47
f 142//48 143//48 144//48
f 145//49 146//49 147//49
f 148//50 149//50 150//50
f 151//51 152//51 153//51
f 154//52 155//52 156//52
f 157//53 158//53 159//53
f 160//54 161//54 162//54
f 163//55 164//55 165//55
f 166//56 167//56 168//56
f 169//57 170//57 171//57
f 172//58 173//58 174//58
f 175//59 176//59 177//59
f 178//60 179//60 180//60
f 181//61 182//61 183//61
f 184//62 185//62 186//62
f 187//63 188//63 189//63
f 190//64 191//64 192//64
f 193//65 194//65 195//65
f 196//66 197//66 198//66
f 199//67 200//67 201//67
f 202//68 203//68 204//68
f 205//69 206//69 207//69
f 208//70 209//70 210//70
f 211//71 212//71 213//71
f 214//72 215//72 216//72
f 217//73 218//73 219//73
f 220//74 221//74 222//74
f 223//75 224//75 225//75
f 226//76 227//76 228//76
f 229//77 230//77 231//77
f 232//78 233//78 234//78
f 235//79 236//79 237//79
f 238//80 239//80 240//80
f 241//81 242//81 243//81
f 244//82 245//82 246//82
f 247//83 248//83 249//83
f 250//84 251//84 252//84
f 253//85 254//85 255//85
f 256//86 257//86 258//86
f 259//87 260//87 261//87
f 262//88 263//88 264//88
f 265//89 266//89 267//89
f 268//90 269//90 270//90
f 271//91 272//91 273//91
f 274//92 275//92 276//92
f 277//93 278//93 279//93
f 280//94 281//94 282//94
f 283//95 284//95 285//95
f 286//96 287//96 288//96
f 289//97 290//97 291//97
f 292//98 293//98 294//98
f 295//99 296//99 297//99
f 298//100 299//100 300//100
f 301//101 302//101 303//101
f 304//102 305//102 306//102
f 307//103 308//103 309//103
f 310//104 311//104 312//104
f 313//105 314//105 315//105
f 316//106 317//106 318//106
f 319//107 320//107 321//107
f 322//108 323//108 324//108
f 325//109 326//109 327//109
f 328//110 329//110 330//110
f 331//111 332//111 333//111
f 334//112 335//112 336//112
f 337//113 338//113 339//113
f 340//114 341//114 342//114
f 343//115 344//115 345//115
f 346//116 347//116 348//116
f 349//117 350//117 351//117
f 352//118 353//118 354//118
f 355//119 356//119 357//119
f 358//120 359//120 360//120
f 361//121 362//121 363//121
f 364//122 365//122 366//122
f 367//123 368//123 369//123
f 370//124 371//124 372//124
f 373//125 374//125 375//125
f 376//126 377//126 378//126
f 379//127 380//127 381//127
f 382//128 383//128 384//128
