o
v -7.228625 42.063763 2.329313
v -15.286864 39.951691 -7.804893
v -11.949597 36.686314 -1.926049
v -15.286864 39.951691 -7.804893
v -15.448089 34.793423 -6.859451
v -11.949597 36.686314 -1.926049
v -7.228625 42.063763 2.329313
v -11.949597 36.686314 -1.926049
v -23.206909 -31.292379 -17.006714
v -15.286864 39.951691 -7.804893
v -23.206909 -31.292379 -17.006714
v -15.448089 34.793423 -6.859451
v -15.448089 34.793423 -6.859451
v -23.206909 -31.292379 -17.006714
v -11.949597 36.686314 -1.926049
v 15.706763 33.279213 12.584856
v 22.867846 -5.222369 -11.281034
v 25.098970 6.515319 -7.779834
v -7.228625 42.063763 2.329313
v 15.706763 33.279213 12.584856
v -0.639928 40.065414 -18.912390
v -7.228625 42.063763 2.329313
v -0.639928 40.065414 -18.912390
v -15.286864 39.951691 -7.804893
v 22.867846 -5.222369 -11.281034
v 26.048092 -0.324788 -20.613287
v 25.098970 6.515319 -7.779834
v 15.706763 33.279213 12.584856
v 0.680347 39.483261 -18.252413
v -0.639928 40.065414 -18.912390
v 15.706763 33.279213 12.584856
v 0.747621 39.435680 -18.214333
v 0.680347 39.483261 -18.252413
v 15.706763 33.279213 12.584856
v 25.098970 6.515319 -7.779834
v 26.436155 3.201210 -24.222206
v 26.048092 -0.324788 -20.613287
v 26.436155 3.201210 -24.222206
v 25.098970 6.515319 -7.779834
v 15.706763 33.279213 12.584856
v 26.436155 3.201210 -24.222206
v 0.747621 39.435680 -18.214333
v -0.639928 40.065414 -18.912390
v -1.070068 39.198601 -19.932705
v -15.286864 39.951691 -7.804893
v -0.639928 40.065414 -18.912390
v -0.971686 39.194920 -19.948751
v -1.070068 39.198601 -19.932705
v 22.867846 -5.222369 -11.281034
v 14.697211 -33.042927 -28.124710
v 26.048092 -0.324788 -20.613287
v 26.048092 -0.324788 -20.613287
v 14.697211 -33.042927 -28.124710
v 26.436155 3.201210 -24.222206
v 22.867846 -5.222369 -11.281034
v 14.486821 -31.869070 -25.506300
v 14.697211 -33.042927 -28.124710
v -7.228625 42.063763 2.329313
v -23.206909 -31.292379 -17.006714
v -0.241493 -18.942135 -2.873730
v -7.228625 42.063763 2.329313
v -0.241493 -18.942135 -2.873730
v 15.706763 33.279213 12.584856
v -17.456642 -33.076756 -19.044624
v -0.241493 -18.942135 -2.873730
v -23.206909 -31.292379 -17.006714
v 15.706763 33.279213 12.584856
v -0.241493 -18.942135 -2.873730
v 22.867846 -5.222369 -11.281034
v 22.867846 -5.222369 -11.281034
v -0.241493 -18.942135 -2.873730
v 14.486821 -31.869070 -25.506300
v 14.486821 -31.869070 -25.506300
v 13.158384 -31.859583 -24.858812
v 14.697211 -33.042927 -28.124710
v -17.456642 -33.076756 -19.044624
v 13.158384 -31.859583 -24.858812
v -0.241493 -18.942135 -2.873730
v -0.241493 -18.942135 -2.873730
v 13.158384 -31.859583 -24.858812
v 14.486821 -31.869070 -25.506300
v 14.697211 -33.042927 -28.124710
v 12.282844 -32.230591 -25.350792
v -17.456642 -33.076756 -19.044624
v 13.158384 -31.859583 -24.858812
v 12.282844 -32.230591 -25.350792
v 14.697211 -33.042927 -28.124710
v -17.456642 -33.076756 -19.044624
v 12.282844 -32.230591 -25.350792
v 13.158384 -31.859583 -24.858812
v -15.286864 39.951691 -7.804893
v -23.566668 -14.958444 -29.044626
v -23.206909 -31.292379 -17.006714
v -15.286864 39.951691 -7.804893
v -15.287711 39.941807 -7.816817
v -23.566668 -14.958444 -29.044626
v -15.287711 39.941807 -7.816817
v -23.551132 -15.061838 -29.424255
v -23.566668 -14.958444 -29.044626
v -23.566668 -14.958444 -29.044626
v -23.551132 -15.061838 -29.424255
v -23.206909 -31.292379 -17.006714
v -1.070068 39.198601 -19.932705
v -8.748498 28.859798 -29.439114
v -15.286864 39.951691 -7.804893
v -15.286864 39.951691 -7.804893
v -8.748498 28.859798 -29.439114
v -15.287711 39.941807 -7.816817
v -0.971686 39.194920 -19.948751
v -8.748498 28.859798 -29.439114
v -1.070068 39.198601 -19.932705
v -13.733563 14.042313 -37.600616
v -15.287711 39.941807 -7.816817
v -8.766150 28.845688 -29.431263
v -8.748498 28.859798 -29.439114
v -8.766150 28.845688 -29.431263
v -15.287711 39.941807 -7.816817
v -13.733563 14.042313 -37.600616
v -8.766150 28.845688 -29.431263
v -8.748498 28.859798 -29.439114
v 14.697211 -33.042927 -28.124710
v -17.456642 -33.076756 -19.044624
v -12.777774 -25.983341 -35.708023
v -17.456642 -33.076756 -19.044624
v -23.206909 -31.292379 -17.006714
v -12.777774 -25.983341 -35.708023
v -23.551132 -15.061838 -29.424255
v -12.777774 -25.983341 -35.708023
v -23.206909 -31.292379 -17.006714
v -13.733563 14.042313 -37.600616
v -14.845349 21.860327 -27.578480
v -15.287711 39.941807 -7.816817
v -23.551132 -15.061838 -29.424255
v -19.040741 -11.744010 -36.393024
v -12.777774 -25.983341 -35.708023
v 0.747621 39.435680 -18.214333
v 5.329864 24.525791 -33.085957
v 0.680347 39.483261 -18.252413
v 26.436155 3.201210 -24.222206
v 5.329864 24.525791 -33.085957
v 0.747621 39.435680 -18.214333
v 0.680347 39.483261 -18.252413
v 5.329864 24.525791 -33.085957
v -0.639928 40.065414 -18.912390
v -0.639928 40.065414 -18.912390
v 5.329864 24.525791 -33.085957
v -0.971686 39.194920 -19.948751
v -13.733563 14.042313 -37.600616
v -8.748498 28.859798 -29.439114
v 5.329864 24.525791 -33.085957
v -0.971686 39.194920 -19.948751
v 5.329864 24.525791 -33.085957
v -8.748498 28.859798 -29.439114
v -15.287711 39.941807 -7.816817
v -17.183973 3.282314 -42.198391
v -23.551132 -15.061838 -29.424255
v -13.733563 14.042313 -37.600616
v -17.183973 3.282314 -42.198391
v -14.845349 21.860327 -27.578480
v -14.845349 21.860327 -27.578480
v -17.183973 3.282314 -42.198391
v -15.287711 39.941807 -7.816817
v -23.551132 -15.061838 -29.424255
v -17.183973 3.282314 -42.198391
v -19.040741 -11.744010 -36.393024
v -13.733563 14.042313 -37.600616
v 5.329864 24.525791 -33.085957
v 9.459737 -1.989261 -47.150913
v 26.436155 3.201210 -24.222206
v 9.459737 -1.989261 -47.150913
v 5.329864 24.525791 -33.085957
v 14.697211 -33.042927 -28.124710
v 9.501398 -2.166445 -47.060989
v 26.436155 3.201210 -24.222206
v 26.436155 3.201210 -24.222206
v 9.501398 -2.166445 -47.060989
v 9.459737 -1.989261 -47.150913
v 14.697211 -33.042927 -28.124710
v -12.777774 -25.983341 -35.708023
v -7.575328 -21.000235 -41.642410
v -19.040741 -11.744010 -36.393024
v -7.575328 -21.000235 -41.642410
v -12.777774 -25.983341 -35.708023
v -17.183973 3.282314 -42.198391
v -7.575328 -21.000235 -41.642410
v -19.040741 -11.744010 -36.393024
v -13.733563 14.042313 -37.600616
v 4.310169 -5.480159 -48.390491
v -17.183973 3.282314 -42.198391
v -13.733563 14.042313 -37.600616
v 9.459737 -1.989261 -47.150913
v 4.310169 -5.480159 -48.390491
v 14.697211 -33.042927 -28.124710
v 4.310169 -5.480159 -48.390491
v 9.501398 -2.166445 -47.060989
v 14.697211 -33.042927 -28.124710
v -7.575328 -21.000235 -41.642410
v 4.310169 -5.480159 -48.390491
v 9.501398 -2.166445 -47.060989
v 4.310169 -5.480159 -48.390491
v 9.459737 -1.989261 -47.150913
v -17.183973 3.282314 -42.198391
v -2.611116 -9.866754 -45.711166
v -7.575328 -21.000235 -41.642410
v 4.310169 -5.480159 -48.390491
v -2.611116 -9.866754 -45.711166
v -17.183973 3.282314 -42.198391
v -7.575328 -21.000235 -41.642410
v -2.611116 -9.866754 -45.711166
v 4.310169 -5.480159 -48.390491
vn -0.784198 0.233537 0.574886
vn -0.831332 0.125231 0.541484
vn -0.622932 -0.069695 0.779165
vn -0.966051 0.075481 0.247081
vn -0.817027 0.007396 0.576552
vn 0.613361 -0.330551 0.717303
vn 0.349657 0.936657 0.020338
vn -0.102089 0.986952 -0.124515
vn 0.950418 -0.239739 0.198068
vn 0.410285 0.911808 -0.016480
vn 0.626488 0.764575 -0.151454
vn 0.946300 0.323074 0.011840
vn 0.996094 -0.022146 0.085472
vn 0.768142 0.586982 -0.255754
vn -0.384013 0.777245 -0.498422
vn -0.073357 0.775101 -0.627565
vn 0.926862 -0.351696 0.131286
vn 0.941611 -0.285809 -0.177992
vn 0.875222 -0.411243 0.254688
vn -0.468852 -0.128233 0.873919
vn -0.444914 -0.126571 0.886584
vn -0.000293 -0.752766 0.658288
vn 0.508214 -0.383481 0.771142
vn 0.547657 -0.521534 0.654274
vn 0.195547 -0.888921 0.414223
vn 0.139375 -0.814333 0.563415
vn 0.292365 -0.735977 0.610623
vn 0.102923 -0.926864 0.361013
vn 0.157090 -0.902498 0.401023
vn 0.120895 -0.884036 0.451514
vn -0.984382 0.089880 0.151375
vn -0.980932 0.178051 -0.077916
vn -0.979131 0.182349 -0.089732
vn -0.998635 -0.043402 -0.029046
vn -0.395359 0.763356 -0.510860
vn -0.557512 0.658181 -0.505943
vn -0.087654 0.708742 -0.700001
vn -0.720165 0.504498 -0.476282
vn -0.666845 0.561788 -0.489605
vn -0.658156 0.520859 -0.543633
vn -0.116686 -0.901589 -0.416560
vn -0.406588 -0.793899 -0.452118
vn -0.736039 -0.421109 -0.530013
vn -0.741469 0.486688 -0.461907
vn -0.706937 -0.340751 -0.619782
vn 0.670009 0.617260 -0.412406
vn 0.734067 0.579198 -0.354508
vn 0.546677 0.669144 -0.503380
vn 0.243175 0.702996 -0.668328
vn -0.070021 0.499245 -0.863627
vn 0.014243 0.670459 -0.741810
vn -0.961533 0.212725 -0.173787
vn -0.791023 0.436727 -0.428430
vn -0.815367 0.417925 -0.400644
vn -0.804805 -0.124742 -0.580283
vn -0.044762 0.462686 -0.885392
vn 0.679528 0.423587 -0.599012
vn 0.808797 -0.202509 -0.552121
vn 0.810405 -0.102227 -0.576882
vn -0.015390 -0.759042 -0.650860
vn -0.583385 -0.293034 -0.757491
vn -0.556864 -0.238569 -0.795605
vn -0.091135 0.415868 -0.904847
vn -0.074139 0.429031 -0.900242
vn 0.461286 -0.406158 -0.788829
vn 0.216593 -0.524016 -0.823708
vn 0.425411 -0.328040 -0.843454
vn -0.371647 -0.167967 -0.913053
vn -0.309413 -0.090017 -0.946658
vn -0.204877 -0.254087 -0.945233
f 1//1 2//1 3//1
f 4//2 5//2 6//2
f 7//3 8//3 9//3
f 10//4 11//4 12//4
f 13//5 14//5 15//5
f 16//6 17//6 18//6
f 19//7 20//7 21//7
f 22//8 23//8 24//8
f 25//9 26//9 27//9
f 28//10 29//10 30//10
f 31//11 32//11 33//11
f 34//12 35//12 36//12
f 37//13 38//13 39//13
f 40//14 41//14 42//14
f 43//15 44//15 45//15
f 46//16 47//16 48//16
f 49//17 50//17 51//17
f 52//18 53//18 54//18
f 55//19 56//19 57//19
f 58//20 59//20 60//20
f 61//21 62//21 63//21
f 64//22 65//22 66//22
f 67//23 68//23 69//23
f 70//24 71//24 72//24
f 73//25 74//25 75//25
f 76//26 77//26 78//26
f 79//27 80//27 81//27
f 82//28 83//28 84//28
f 85//29 86//29 87//29
f 88//30 89//30 90//30
f 91//31 92//31 93//31
f 94//32 95//32 96//32
f 97//33 98//33 99//33
f 100//34 101//34 102//34
f 103//35 104//35 105//35
f 106//36 107//36 108//36
f 109//37 110//37 111//37
f 112//38 113//38 114//38
f 115//39 116//39 117//39
f 118//40 119//40 120//40
f 121//41 122//41 123//41
f 124//42 125//42 126//42
f 127//43 128//43 129//43
f 130//44 131//44 132//44
f 133//45 134//45 135//45
f 136//46 137//46 138//46
f 139//47 140//47 141//47
f 142//48 143//48 144//48
f 145//49 146//49 147//49
f 148//50 149//50 150//50
f 151//51 152//51 153//51
f 154//52 155//52 156//52
f 157//53 158//53 159//53
f 160//54 161//54 162//54
f 163//55 164//55 165//55
f 166//56 167//56 168//56
f 169//57 170//57 171//57
f 172//58 173//58 174//58
f 175//59 176//59 177//59
f 178//60 179//60 180//60
f 181//61 182//61 183//61
f 184//62 185//62 186//62
f 187//63 188//63 189//63
f 190//64 191//64 192//64
f 193//65 194//65 195//65
f 196//66 197//66 198//66
f 199//67 200//67 201//67
f 202//68 203//68 204//68
f 205//69 206//69 207//69
f 208//70 209//70 210//70
