o
v 23.687101 38.925934 18.003540
v 23.566856 38.967922 17.938623
v 21.878815 39.329762 18.582787
v 23.566856 38.967922 17.938623
v 23.129801 39.125988 17.533821
v 21.878815 39.329762 18.582787
v 23.687101 38.925934 18.003540
v 23.129801 39.125988 17.533821
v 23.566856 38.967922 17.938623
v 23.687101 38.925934 18.003540
v 21.878815 39.329762 18.582787
v 22.510214 30.924627 19.912527
v 11.108922 36.819283 -26.612154
v 10.113683 -5.233746 -37.853027
v -23.389484 30.454456 -7.723395
v -23.389484 30.454456 -7.723395
v 10.113683 -5.233746 -37.853027
v 11.467938 -30.856207 -24.552814
v 21.878815 39.329762 18.582787
v -23.389484 30.454456 -7.723395
v 15.898212 24.154142 19.679050
v 21.878815 39.329762 18.582787
v 15.898212 24.154142 19.679050
v 22.510214 30.924627 19.912527
v 10.113683 -5.233746 -37.853027
v 28.237703 -14.658075 -33.949516
v 11.467938 -30.856207 -24.552814
v 11.108922 36.819283 -26.612154
v -23.389484 30.454456 -7.723395
v 19.657082 41.084290 -12.589108
v 21.878815 39.329762 18.582787
v 19.657082 41.084290 -12.589108
v -23.389484 30.454456 -7.723395
v 23.129801 39.125988 17.533821
v 19.657082 41.084290 -12.589108
v 21.878815 39.329762 18.582787
v 23.687101 38.925934 18.003540
v 19.657082 41.084290 -12.589108
v 23.129801 39.125988 17.533821
v 11.546842 36.655220 -26.416695
v 11.108922 36.819283 -26.612154
v 19.657082 41.084290 -12.589108
v -23.389484 30.454456 -7.723395
v 11.467938 -30.856207 -24.552814
v 4.738895 -21.411570 -16.882376
v -23.389484 30.454456 -7.723395
v 7.980875 6.763862 15.503933
v 15.898212 24.154142 19.679050
v 7.980875 6.763862 15.503933
v 8.024945 6.690756 15.489434
v 15.898212 24.154142 19.679050
v 28.237703 -14.658075 -33.949516
v 29.199432 -28.458633 -15.183826
v 11.467938 -30.856207 -24.552814
v -23.389484 30.454456 -7.723395
v 4.738895 -21.411570 -16.882376
v 5.459544 -19.990459 -12.351639
v -23.389484 30.454456 -7.723395
v 5.459544 -19.990459 -12.351639
v 7.980875 6.763862 15.503933
v 11.467938 -30.856207 -24.552814
v 5.459544 -19.990459 -12.351639
v 4.738895 -21.411570 -16.882376
v 7.980875 6.763862 15.503933
v 5.459544 -19.990459 -12.351639
v 8.024945 6.690756 15.489434
v 23.687101 38.925934 18.003540
v 22.510214 30.924627 19.912527
v 41.483871 26.019943 8.431189
v 28.237703 -14.658075 -33.949516
v 29.847511 -27.181202 -14.780937
v 29.199432 -28.458633 -15.183826
v 15.898212 24.154142 19.679050
v 29.758970 16.285107 17.026964
v 22.510214 30.924627 19.912527
v 8.024945 6.690756 15.489434
v 29.758970 16.285107 17.026964
v 15.898212 24.154142 19.679050
v 22.510214 30.924627 19.912527
v 29.758970 16.285107 17.026964
v 41.483871 26.019943 8.431189
v 28.237703 -14.658075 -33.949516
v 30.253778 -19.076799 -22.821276
v 29.847511 -27.181202 -14.780937
v 23.687101 38.925934 18.003540
v 31.721659 33.304756 -7.662308
v 19.657082 41.084290 -12.589108
v 23.687101 38.925934 18.003540
v 41.483871 26.019943 8.431189
v 31.721659 33.304756 -7.662308
v 11.546842 36.655220 -26.416695
v 19.657082 41.084290 -12.589108
v 31.721659 33.304756 -7.662308
v 29.199432 -28.458633 -15.183826
v 24.304237 -16.570539 8.076725
v 11.467938 -30.856207 -24.552814
v 11.467938 -30.856207 -24.552814
v 24.304237 -16.570539 8.076725
v 5.459544 -19.990459 -12.351639
v 5.459544 -19.990459 -12.351639
v 24.304237 -16.570539 8.076725
v 8.024945 6.690756 15.489434
v 8.024945 6.690756 15.489434
v 24.304237 -16.570539 8.076725
v 29.758970 16.285107 17.026964
v 11.546842 36.655220 -26.416695
v 27.491915 9.140639 -28.744360
v 11.108922 36.819283 -26.612154
v 11.108922 36.819283 -26.612154
v 27.491915 9.140639 -28.744360
v 10.113683 -5.233746 -37.853027
v 10.113683 -5.233746 -37.853027
v 27.491915 9.140639 -28.744360
v 28.237703 -14.658075 -33.949516
v 29.758970 16.285107 17.026964
v 31.541967 5.060447 12.587730
v 41.483871 26.019943 8.431189
v 24.304237 -16.570539 8.076725
v 31.541967 5.060447 12.587730
v 29.758970 16.285107 17.026964
v 11.546842 36.655220 -26.416695
v 31.721659 33.304756 -7.662308
v 29.257372 11.817128 -25.726086
v 11.546842 36.655220 -26.416695
v 29.257372 11.817128 -25.726086
v 27.491915 9.140639 -28.744360
v 27.491915 9.140639 -28.744360
v 29.257372 11.817128 -25.726086
v 29.331844 10.982654 -25.972086
v 30.253778 -19.076799 -22.821276
v 35.706451 -13.136453 -11.304164
v 29.847511 -27.181202 -14.780937
v 29.847511 -27.181202 -14.780937
v 36.425827 -12.020181 -2.819437
v 29.199432 -28.458633 -15.183826
v 29.199432 -28.458633 -15.183826
v 36.425827 -12.020181 -2.819437
v 24.304237 -16.570539 8.076725
v 24.304237 -16.570539 8.076725
v 36.425827 -12.020181 -2.819437
v 31.541967 5.060447 12.587730
v 27.491915 9.140639 -28.744360
v 37.035221 -0.841953 -20.005854
v 28.237703 -14.658075 -33.949516
v 27.491915 9.140639 -28.744360
v 29.331844 10.982654 -25.972086
v 37.035221 -0.841953 -20.005854
v 29.257372 11.817128 -25.726086
v 37.035221 -0.841953 -20.005854
v 29.331844 10.982654 -25.972086
v 28.237703 -14.658075 -33.949516
v 37.035221 -0.841953 -20.005854
v 30.253778 -19.076799 -22.821276
v 30.253778 -19.076799 -22.821276
v 37.035221 -0.841953 -20.005854
v 35.706451 -13.136453 -11.304164
v 31.541967 5.060447 12.587730
v 38.484413 -7.189060 -3.344204
v 41.483871 26.019943 8.431189
v 36.425827 -12.020181 -2.819437
v 38.484413 -7.189060 -3.344204
v 31.541967 5.060447 12.587730
v 35.706451 -13.136453 -11.304164
v 38.484413 -7.189060 -3.344204
v 29.847511 -27.181202 -14.780937
v 29.847511 -27.181202 -14.780937
v 38.484413 -7.189060 -3.344204
v 36.425827 -12.020181 -2.819437
v 38.484413 -7.189060 -3.344204
v 41.353020 5.088361 -3.988226
v 41.483871 26.019943 8.431189
v 41.353020 5.088361 -3.988226
v 41.393055 4.921789 -4.239578
v 41.483871 26.019943 8.431189
v 38.484413 -7.189060 -3.344204
v 41.393055 4.921789 -4.239578
v 41.353020 5.088361 -3.988226
v 37.035221 -0.841953 -20.005854
v 40.810150 -0.810581 -6.557604
v 35.706451 -13.136453 -11.304164
v 35.706451 -13.136453 -11.304164
v 40.810150 -0.810581 -6.557604
v 38.484413 -7.189060 -3.344204
v 38.484413 -7.189060 -3.344204
v 40.810150 -0.810581 -6.557604
v 41.393055 4.921789 -4.239578
v 41.483871 26.019943 8.431189
v 41.510975 5.230554 -8.518443
v 31.721659 33.304756 -7.662308
v 31.721659 33.304756 -7.662308
v 41.510975 5.230554 -8.518443
v 29.257372 11.817128 -25.726086
v 29.257372 11.817128 -25.726086
v 41.510975 5.230554 -8.518443
v 37.035221 -0.841953 -20.005854
v 41.393055 4.921789 -4.239578
v 41.510975 5.230554 -8.518443
v 41.483871 26.019943 8.431189
v 37.035221 -0.841953 -20.005854
v 41.510975 5.230554 -8.518443
v 40.810150 -0.810581 -6.557604
v 40.810150 -0.810581 -6.557604
v 41.510975 5.230554 -8.518443
v 41.393055 4.921789 -4.239578
vn 0.258275 0.955892 0.139872
vn 0.247748 0.962737 0.108439
vn 0.314739 0.948684 0.030622
vn 0.335104 0.171735 0.926398
vn -0.499795 0.234690 -0.833742
vn -0.796947 -0.310941 -0.517872
vn -0.522789 0.264567 0.810367
vn -0.178424 0.140665 0.973847
vn -0.049654 -0.462211 -0.885379
vn -0.252092 0.957862 -0.137656
vn -0.231546 0.970221 0.071113
vn 0.194289 0.980074 0.041316
vn 0.319181 0.947369 0.024792
vn 0.492507 0.702416 -0.513857
vn -0.871463 -0.431421 -0.233299
vn -0.564636 0.059428 0.823198
vn -0.038497 -0.216671 0.975485
vn 0.393485 -0.730877 -0.557663
vn -0.820312 -0.495356 0.285850
vn -0.726029 -0.461946 0.509400
vn -0.627597 -0.708767 0.322136
vn -0.663417 -0.508748 0.548683
vn 0.536538 0.120359 0.835249
vn 0.884712 -0.352728 -0.304742
vn 0.108745 -0.140137 0.984142
vn 0.042452 -0.251136 0.967020
vn 0.533742 0.098739 0.839863
vn 0.893029 -0.338702 -0.296277
vn 0.545554 0.837979 -0.012746
vn 0.589785 0.807523 0.007770
vn 0.600585 0.588857 -0.540874
vn -0.108508 -0.894255 0.434204
vn -0.395562 -0.773972 0.494468
vn -0.549797 -0.577187 0.603803
vn 0.051363 -0.270416 0.961373
vn 0.488077 0.350470 -0.799345
vn 0.286600 0.241067 -0.927226
vn 0.310035 0.212399 -0.926696
vn 0.673260 -0.176982 0.717913
vn 0.338054 -0.299197 0.892301
vn 0.648243 0.445044 -0.617833
vn 0.589913 0.401146 -0.700774
vn 0.719089 0.254770 -0.646532
vn 0.910632 -0.313137 -0.269619
vn 0.865990 -0.481694 0.134282
vn 0.639791 -0.621410 0.452237
vn 0.694658 -0.362059 0.621582
vn 0.753566 0.162908 -0.636867
vn 0.760144 0.180236 -0.624256
vn 0.794888 0.235755 -0.559082
vn 0.912486 -0.295696 -0.282726
vn 0.913241 -0.296484 -0.279444
vn 0.791632 -0.266463 0.549833
vn 0.786019 -0.274777 0.553780
vn 0.925769 -0.375707 -0.042371
vn 0.919621 -0.392726 -0.007978
vn 0.924385 -0.198907 0.325497
vn 0.953417 -0.158314 0.256775
vn 0.936768 -0.203958 0.284372
vn 0.923641 -0.282860 -0.258607
vn 0.929574 -0.364992 -0.051705
vn 0.940021 -0.205642 0.272160
vn 0.868051 0.314402 -0.384238
vn 0.827269 0.302893 -0.473162
vn 0.828247 0.293060 -0.477622
vn 0.999460 -0.019978 0.026102
vn 0.944340 -0.195443 -0.264621
vn 0.993855 -0.108958 0.019527
f 1//1 2//1 3//1
f 4//2 5//2 6//2
f 7//3 8//3 9//3
f 10//4 11//4 12//4
f 13//5 14//5 15//5
f 16//6 17//6 18//6
f 19//7 20//7 21//7
f 22//8 23//8 24//8
f 25//9 26//9 27//9
f 28//10 29//10 30//10
f 31//11 32//11 33//11
f 34//12 35//12 36//12
f 37//13 38//13 39//13
f 40//14 41//14 42//14
f 43//15 44//15 45//15
f 46//16 47//16 48//16
f 49//17 50//17 51//17
f 52//18 53//18 54//18
f 55//19 56//19 57//19
f 58//20 59//20 60//20
f 61//21 62//21 63//21
f 64//22 65//22 66//22
f 67//23 68//23 69//23
f 70//24 71//24 72//24
f 73//25 74//25 75//25
f 76//26 77//26 78//26
f 79//27 80//27 81//27
f 82//28 83//28 84//28
f 85//29 86//29 87//29
f 88//30 89//30 90//30
f 91//31 92//31 93//31
f 94//32 95//32 96//32
f 97//33 98//33 99//33
f 100//34 101//34 102//34
f 103//35 104//35 105//35
f 106//36 107//36 108//36
f 109//37 110//37 111//37
f 112//38 113//38 114//38
f 115//39 116//39 117//39
f 118//40 119//40 120//40
f 121//41 122//41 123//41
f 124//42 125//42 126//42
f 127//43 128//43 129//43
f 130//44 131//44 132//44
f 133//45 134//45 135//45
f 136//46 137//46 138//46
f 139//47 140//47 141//47
f 142//48 143//48 144//48
f 145//49 146//49 147//49
f 148//50 149//50 150//50
f 151//51 152//51 153//51
f 154//52 155//52 156//52
f 157//53 158//53 159//53
f 160//54 161//54 162//54
f 163//55 164//55 165//55
f 166//56 167//56 168//56
f 169//57 170//57 171//57
f 172//58 173//58 174//58
f 175//59 176//59 177//59
f 178//60 179//60 180//60
f 181//61 182//61 183//61
f 184//62 185//62 186//62
f 187//63 188//63 189//63
f 190//64 191//64 192//64
f 193//65 194//65 195//65
f 196//66 197//66 198//66
f 199//67 200//67 201//67
f 202//68 203//68 204//68
