o
v -8.095644 17.816469 38.207123
v -8.083826 17.813772 38.199547
v -15.191895 38.406666 22.465988
v -8.095644 17.816469 38.207123
v -15.191895 38.406666 22.465988
v -14.219582 20.000950 29.526073
v -26.919069 16.435251 -20.173975
v -21.306362 21.578587 15.992052
v -15.191895 38.406666 22.465988
v -15.191895 38.406666 22.465988
v -21.306362 21.578587 15.992052
v -14.219582 20.000950 29.526073
v -22.821518 -2.298196 -26.310419
v -16.069906 11.855717 -25.754616
v 15.604857 -29.589109 -35.799423
v -26.919069 16.435251 -20.173975
v -16.069906 11.855717 -25.754616
v -22.821518 -2.298196 -26.310419
v -8.095644 17.816469 38.207123
v -14.219582 20.000950 29.526073
v -15.819216 -5.190758 27.368958
v -8.095644 17.816469 38.207123
v -15.819216 -5.190758 27.368958
v -9.884199 -1.209098 35.350979
v -21.306362 21.578587 15.992052
v -15.819216 -5.190758 27.368958
v -14.219582 20.000950 29.526073
v 31.317623 -7.073264 -20.228769
v -15.191895 38.406666 22.465988
v 28.367842 -1.902734 9.721013
v 31.317623 -7.073264 -20.228769
v 28.367842 -1.902734 9.721013
v 30.066887 -26.422529 -29.718603
v 30.066887 -26.422529 -29.718603
v 28.366682 -1.910074 9.720773
v 22.123468 -44.244350 4.751014
v 28.367842 -1.902734 9.721013
v 28.366682 -1.910074 9.720773
v 30.066887 -26.422529 -29.718603
v 28.367842 -1.902734 9.721013
v 28.363007 -1.902740 9.728959
v 28.366682 -1.910074 9.720773
v 28.366682 -1.910074 9.720773
v 28.363007 -1.902740 9.728959
v 22.123468 -44.244350 4.751014
v 30.066887 -26.422529 -29.718603
v 17.457983 -38.414047 -20.386093
v 15.607600 -29.589516 -35.798859
v 30.066887 -26.422529 -29.718603
v 22.123468 -44.244350 4.751014
v 17.457983 -38.414047 -20.386093
v 15.607600 -29.589516 -35.798859
v 6.057248 -39.321972 -26.896883
v 15.604857 -29.589109 -35.799423
v 17.457983 -38.414047 -20.386093
v 6.057248 -39.321972 -26.896883
v 15.607600 -29.589516 -35.798859
v -22.821518 -2.298196 -26.310419
v 15.604857 -29.589109 -35.799423
v 6.057248 -39.321972 -26.896883
v 17.457983 -38.414047 -20.386093
v 7.352378 -39.738464 -25.081247
v 6.057248 -39.321972 -26.896883
v 22.123468 -44.244350 4.751014
v 7.371818 -39.743713 -25.055622
v 17.457983 -38.414047 -20.386093
v 17.457983 -38.414047 -20.386093
v 7.371818 -39.743713 -25.055622
v 7.352378 -39.738464 -25.081247
v -15.819216 -5.190758 27.368958
v -16.282913 -25.383261 19.621130
v -9.884199 -1.209098 35.350979
v -26.919069 16.435251 -20.173975
v -16.282913 -25.383261 19.621130
v -21.306362 21.578587 15.992052
v -21.306362 21.578587 15.992052
v -16.282913 -25.383261 19.621130
v -15.819216 -5.190758 27.368958
v -26.919069 16.435251 -20.173975
v -22.821518 -2.298196 -26.310419
v -16.282913 -25.383261 19.621130
v -8.095644 17.816469 38.207123
v 12.631692 5.221382 25.603020
v -8.083826 17.813772 38.199547
v -8.083826 17.813772 38.199547
v 12.631692 5.221382 25.603020
v -15.191895 38.406666 22.465988
v -15.191895 38.406666 22.465988
v 12.631692 5.221382 25.603020
v 28.367842 -1.902734 9.721013
v 28.367842 -1.902734 9.721013
v 12.631692 5.221382 25.603020
v 28.363007 -1.902740 9.728959
v -22.821518 -2.298196 -26.310419
v 6.057248 -39.321972 -26.896883
v -19.353703 -14.970490 -22.433693
v -26.919069 16.435251 -20.173975
v -15.191895 38.406666 22.465988
v -6.490262 20.255451 -19.880713
v -26.919069 16.435251 -20.173975
v -6.490262 20.255451 -19.880713
v -16.069906 11.855717 -25.754616
v 31.317623 -7.073264 -20.228769
v -6.490262 20.255451 -19.880713
v -15.191895 38.406666 22.465988
v -16.069906 11.855717 -25.754616
v -6.490262 20.255451 -19.880713
v 15.604857 -29.589109 -35.799423
v 15.607600 -29.589516 -35.798859
v 15.604857 -29.589109 -35.799423
v -6.490262 20.255451 -19.880713
v -22.821518 -2.298196 -26.310419
v -19.863237 -13.969029 -20.760065
v -16.282913 -25.383261 19.621130
v -22.821518 -2.298196 -26.310419
v -19.353703 -14.970490 -22.433693
v -19.863237 -13.969029 -20.760065
v 7.352378 -39.738464 -25.081247
v -1.060010 -47.251598 -1.528591
v 6.057248 -39.321972 -26.896883
v 22.123468 -44.244350 4.751014
v -1.060010 -47.251598 -1.528591
v 7.371818 -39.743713 -25.055622
v -1.470084 -47.622311 1.317147
v -1.060010 -47.251598 -1.528591
v 22.123468 -44.244350 4.751014
v 7.371818 -39.743713 -25.055622
v -1.060010 -47.251598 -1.528591
v 7.352378 -39.738464 -25.081247
v 28.363007 -1.902740 9.728959
v 12.454841 -30.283844 20.550552
v 22.123468 -44.244350 4.751014
v 12.631692 5.221382 25.603020
v 12.454841 -30.283844 20.550552
v 28.363007 -1.902740 9.728959
v -8.095644 17.816469 38.207123
v -9.884199 -1.209098 35.350979
v 12.432467 -30.271461 20.570234
v -8.095644 17.816469 38.207123
v 12.432467 -30.271461 20.570234
v 12.631692 5.221382 25.603020
v 12.631692 5.221382 25.603020
v 12.432467 -30.271461 20.570234
v 12.454841 -30.283844 20.550552
v 12.454841 -30.283844 20.550552
v 12.432467 -30.271461 20.570234
v 22.123468 -44.244350 4.751014
v -19.863237 -13.969029 -20.760065
v -17.757927 -21.138300 -15.836459
v -16.282913 -25.383261 19.621130
v -19.353703 -14.970490 -22.433693
v -17.757927 -21.138300 -15.836459
v -19.863237 -13.969029 -20.760065
v -16.282913 -25.383261 19.621130
v 1.041114 -32.016560 19.408133
v -9.884199 -1.209098 35.350979
v -9.884199 -1.209098 35.350979
v 1.041114 -32.016560 19.408133
v 12.432467 -30.271461 20.570234
v -16.282913 -25.383261 19.621130
v -1.470084 -47.622311 1.317147
v 1.041114 -32.016560 19.408133
v -1.470084 -47.622311 1.317147
v 22.123468 -44.244350 4.751014
v 1.041114 -32.016560 19.408133
v 12.432467 -30.271461 20.570234
v 1.041114 -32.016560 19.408133
v 22.123468 -44.244350 4.751014
v 6.057248 -39.321972 -26.896883
v -9.756956 -26.655680 -22.820219
v -19.353703 -14.970490 -22.433693
v -1.470084 -47.622311 1.317147
v -12.117924 -32.715237 -13.301497
v -1.060010 -47.251598 -1.528591
v -17.757927 -21.138300 -15.836459
v -12.117924 -32.715237 -13.301497
v -16.282913 -25.383261 19.621130
v -16.282913 -25.383261 19.621130
v -12.117924 -32.715237 -13.301497
v -1.470084 -47.622311 1.317147
v -19.353703 -14.970490 -22.433693
v -12.117924 -32.715237 -13.301497
v -17.757927 -21.138300 -15.836459
v -9.756956 -26.655680 -22.820219
v -12.117924 -32.715237 -13.301497
v -19.353703 -14.970490 -22.433693
v -1.060010 -47.251598 -1.528591
v -12.117924 -32.715237 -13.301497
v 6.057248 -39.321972 -26.896883
v 6.057248 -39.321972 -26.896883
v -12.117924 -32.715237 -13.301497
v -9.756956 -26.655680 -22.820219
v 31.317623 -7.073264 -20.228769
v 30.066887 -26.422529 -29.718603
v 11.299577 -2.852182 -24.897114
v 31.317623 -7.073264 -20.228769
v 11.299577 -2.852182 -24.897114
v -6.490262 20.255451 -19.880713
v 30.066887 -26.422529 -29.718603
v 15.607600 -29.589516 -35.798859
v 11.299577 -2.852182 -24.897114
v 15.607600 -29.589516 -35.798859
v -6.490262 20.255451 -19.880713
v 11.299577 -2.852182 -24.897114
vn 0.517334 0.625115 0.584463
vn -0.779684 0.187928 0.597308
vn -0.946953 0.304180 0.103702
vn -0.871234 0.135002 0.471939
vn -0.160401 0.115010 -0.980329
vn -0.373957 0.213821 -0.902462
vn -0.816843 0.002473 0.576854
vn -0.798738 -0.015208 0.601487
vn -0.884995 0.016352 0.465313
vn 0.668008 0.741548 -0.062228
vn 0.985532 -0.121607 0.118060
vn 0.976734 -0.160712 0.141992
vn 0.977165 -0.159004 0.140949
vn 0.844594 -0.150267 0.513825
vn 0.824293 -0.184402 0.535292
vn 0.379021 -0.782722 -0.493649
vn 0.541976 -0.790938 -0.284042
vn 0.043942 -0.697407 -0.715327
vn 0.347168 -0.795271 -0.497009
vn -0.440915 -0.330699 -0.834405
vn 0.304829 -0.857635 -0.414176
vn 0.244335 -0.933653 -0.261901
vn 0.301486 -0.862956 -0.405478
vn -0.720755 -0.233835 0.652559
vn -0.981887 -0.092242 0.165500
vn -0.959278 -0.081718 0.270386
vn -0.974652 -0.222073 0.027134
vn 0.549915 0.072296 0.832086
vn 0.649923 0.590181 0.478839
vn 0.682419 0.610204 0.402436
vn 0.690867 0.587893 0.420814
vn -0.497110 -0.375357 -0.782297
vn -0.161319 0.894650 -0.416626
vn -0.111052 0.651473 -0.750500
vn 0.569849 0.791185 -0.222033
vn 0.215536 0.382485 -0.898471
vn 0.240746 0.390497 -0.888568
vn -0.971293 -0.237120 0.019093
vn -0.949044 -0.294238 -0.112870
vn 0.080149 -0.957570 -0.276831
vn 0.187808 -0.953214 -0.236879
vn 0.155962 -0.982117 -0.105465
vn 0.097983 -0.957718 -0.270509
vn 0.756836 -0.185221 0.626812
vn 0.681986 -0.106365 0.723589
vn 0.378285 -0.172105 0.909550
vn 0.457703 -0.127342 0.879939
vn 0.620063 -0.113556 0.776291
vn 0.299101 -0.616820 0.728060
vn -0.960706 -0.277487 0.006744
vn -0.938528 -0.334413 -0.085629
vn -0.181832 -0.502037 0.845515
vn -0.019090 -0.464852 0.885183
vn -0.264531 -0.711763 0.650705
vn 0.013636 -0.758066 0.652035
vn 0.043662 -0.735354 0.676275
vn -0.513967 -0.396954 -0.760437
vn -0.700812 -0.687428 -0.190538
vn -0.897551 -0.440641 -0.015416
vn -0.823623 -0.566711 0.022013
vn -0.854290 -0.466426 -0.229425
vn -0.673580 -0.536373 -0.508522
vn -0.556285 -0.735857 -0.386084
vn -0.609719 -0.591404 -0.527715
vn 0.287940 0.406624 -0.867034
vn 0.288236 0.409783 -0.865447
vn 0.279160 0.400773 -0.872611
vn 0.273833 0.400630 -0.874363
f 1//1 2//1 3//1
f 4//2 5//2 6//2
f 7//3 8//3 9//3
f 10//4 11//4 12//4
f 13//5 14//5 15//5
f 16//6 17//6 18//6
f 19//7 20//7 21//7
f 22//8 23//8 24//8
f 25//9 26//9 27//9
f 28//10 29//10 30//10
f 31//11 32//11 33//11
f 34//12 35//12 36//12
f 37//13 38//13 39//13
f 40//14 41//14 42//14
f 43//15 44//15 45//15
f 46//16 47//16 48//16
f 49//17 50//17 51//17
f 52//18 53//18 54//18
f 55//19 56//19 57//19
f 58//20 59//20 60//20
f 61//21 62//21 63//21
f 64//22 65//22 66//22
f 67//23 68//23 69//23
f 70//24 71//24 72//24
f 73//25 74//25 75//25
f 76//26 77//26 78//26
f 79//27 80//27 81//27
f 82//28 83//28 84//28
f 85//29 86//29 87//29
f 88//30 89//30 90//30
f 91//31 92//31 93//31
f 94//32 95//32 96//32
f 97//33 98//33 99//33
f 100//34 101//34 102//34
f 103//35 104//35 105//35
f 106//36 107//36 108//36
f 109//37 110//37 111//37
f 112//38 113//38 114//38
f 115//39 116//39 117//39
f 118//40 119//40 120//40
f 121//41 122//41 123//41
f 124//42 125//42 126//42
f 127//43 128//43 129//43
f 130//44 131//44 132//44
f 133//45 134//45 135//45
f 136//46 137//46 138//46
f 139//47 140//47 141//47
f 142//48 143//48 144//48
f 145//49 146//49 147//49
f 148//50 149//50 150//50
f 151//51 152//51 153//51
f 154//52 155//52 156//52
f 157//53 158//53 159//53
f 160//54 161//54 162//54
f 163//55 164//55 165//55
f 166//56 167//56 168//56
f 169//57 170//57 171//57
f 172//58 173//58 174//58
f 175//59 176//59 177//59
f 178//60 179//60 180//60
f 181//61 182//61 183//61
f 184//62 185//62 186//62
f 187//63 188//63 189//63
f 190//64 191//64 192//64
f 193//65 194//65 195//65
f 196//66 197//66 198//66
f 199//67 200//67 201//67
f 202//68 203//68 204//68
