o
v 21.890282 -35.509724 -16.047291
v 21.835491 -35.539349 -16.104256
v 21.856579 -35.529167 -16.084846
v 21.890282 -35.509724 -16.047291
v 29.574951 -25.829319 -9.161970
v 15.181508 18.580894 32.261467
v 32.942722 15.118443 17.068050
v 16.018772 24.880583 30.176819
v 15.181508 18.580894 32.261467
v 2.725916 -33.874462 -24.339605
v 3.159158 -33.815884 -24.457260
v 21.835491 -35.539349 -16.104256
v 2.725916 -33.874462 -24.339605
v 2.905897 -33.676495 -24.644625
v 3.159158 -33.815884 -24.457260
v 2.725916 -33.874462 -24.339605
v 2.766722 -33.714306 -24.567568
v 2.905897 -33.676495 -24.644625
v 21.835491 -35.539349 -16.104256
v 31.484524 -11.966637 -29.772650
v 21.856579 -35.529167 -16.084846
v 21.890282 -35.509724 -16.047291
v 21.856579 -35.529167 -16.084846
v 31.484524 -11.966637 -29.772650
v 21.890282 -35.509724 -16.047291
v 31.484524 -11.966637 -29.772650
v 29.574951 -25.829319 -9.161970
v 32.942722 15.118443 17.068050
v 29.574951 -25.829319 -9.161970
v 31.484524 -11.966637 -29.772650
v -20.821396 33.228413 -12.178794
v -21.283224 -5.412200 -11.252681
v -22.290991 32.634342 -5.261693
v 29.574951 -25.829319 -9.161970
v 26.390942 6.467011 16.405035
v 15.181508 18.580894 32.261467
v 32.942722 15.118443 17.068050
v 15.181508 18.580894 32.261467
v 26.390942 6.467011 16.405035
v 32.942722 15.118443 17.068050
v 26.390942 6.467011 16.405035
v 29.574951 -25.829319 -9.161970
v 2.725916 -33.874462 -24.339605
v -19.671118 -8.658365 -11.381924
v 2.766722 -33.714306 -24.567568
v -21.283224 -5.412200 -11.252681
v -19.642582 -8.444462 -11.173685
v 15.181508 18.580894 32.261467
v -19.671118 -8.658365 -11.381924
v -19.642582 -8.444462 -11.173685
v -21.283224 -5.412200 -11.252681
v 21.835491 -35.539349 -16.104256
v 26.375570 1.079021 -42.461781
v 31.484524 -11.966637 -29.772650
v 16.018772 24.880583 30.176819
v -11.618358 43.230587 -8.087465
v -22.290991 32.634342 -5.261693
v -20.821396 33.228413 -12.178794
v -22.290991 32.634342 -5.261693
v -11.618358 43.230587 -8.087465
v 16.018772 24.880583 30.176819
v 11.016037 33.381622 17.171091
v -11.618358 43.230587 -8.087465
v -20.821396 33.228413 -12.178794
v -11.618358 43.230587 -8.087465
v -17.817381 29.477800 -17.662584
v 21.890282 -35.509724 -16.047291
v -2.679580 -21.241392 -4.694912
v 21.835491 -35.539349 -16.104256
v 2.725916 -33.874462 -24.339605
v 21.835491 -35.539349 -16.104256
v -2.679580 -21.241392 -4.694912
v 2.725916 -33.874462 -24.339605
v -2.679580 -21.241392 -4.694912
v -19.671118 -8.658365 -11.381924
v 21.890282 -35.509724 -16.047291
v 15.181508 18.580894 32.261467
v -2.679580 -21.241392 -4.694912
v -19.642582 -8.444462 -11.173685
v -2.679580 -21.241392 -4.694912
v 15.181508 18.580894 32.261467
v -19.671118 -8.658365 -11.381924
v -2.679580 -21.241392 -4.694912
v -19.642582 -8.444462 -11.173685
v 16.018772 24.880583 30.176819
v -7.232457 21.716824 13.141654
v 15.181508 18.580894 32.261467
v 16.018772 24.880583 30.176819
v -22.290991 32.634342 -5.261693
v -7.232457 21.716824 13.141654
v -21.283224 -5.412200 -11.252681
v -7.232457 21.716824 13.141654
v -22.290991 32.634342 -5.261693
v -21.283224 -5.412200 -11.252681
v 15.181508 18.580894 32.261467
v -7.232457 21.716824 13.141654
v 32.942722 15.118443 17.068050
v 22.179951 40.312782 -16.406736
v 16.018772 24.880583 30.176819
v 16.018772 24.880583 30.176819
v 22.179951 40.312782 -16.406736
v 11.016037 33.381622 17.171091
v 3.159158 -33.815884 -24.457260
v 9.465724 -1.725108 -47.370087
v 21.835491 -35.539349 -16.104256
v 21.835491 -35.539349 -16.104256
v 9.465724 -1.725108 -47.370087
v 26.375570 1.079021 -42.461781
v 2.905897 -33.676495 -24.644625
v 9.465724 -1.725108 -47.370087
v 3.159158 -33.815884 -24.457260
v 2.766722 -33.714306 -24.567568
v 9.465724 -1.725108 -47.370087
v 2.905897 -33.676495 -24.644625
v 32.942722 15.118443 17.068050
v 31.484524 -11.966637 -29.772650
v 28.763407 17.484753 -28.385611
v 32.942722 15.118443 17.068050
v 28.763407 17.484753 -28.385611
v 22.179951 40.312782 -16.406736
v 26.375570 1.079021 -42.461781
v 28.763407 17.484753 -28.385611
v 31.484524 -11.966637 -29.772650
v 26.375570 1.079021 -42.461781
v 22.179951 40.312782 -16.406736
v 28.763407 17.484753 -28.385611
v -19.671118 -8.658365 -11.381924
v 3.019961 3.460830 -47.012478
v 2.766722 -33.714306 -24.567568
v -19.671118 -8.658365 -11.381924
v -21.283224 -5.412200 -11.252681
v 3.019961 3.460830 -47.012478
v 2.766722 -33.714306 -24.567568
v 3.019961 3.460830 -47.012478
v 9.465724 -1.725108 -47.370087
v 9.465724 -1.725108 -47.370087
v 3.019961 3.460830 -47.012478
v 26.375570 1.079021 -42.461781
v 11.016037 33.381622 17.171091
v 1.776115 39.961155 3.135964
v -11.618358 43.230587 -8.087465
v 11.016037 33.381622 17.171091
v 1.945962 39.979374 3.112648
v 1.776115 39.961155 3.135964
v 22.179951 40.312782 -16.406736
v 4.529417 45.959751 -11.273562
v 11.016037 33.381622 17.171091
v 11.016037 33.381622 17.171091
v 4.529417 45.959751 -11.273562
v 1.945962 39.979374 3.112648
v 1.776115 39.961155 3.135964
v 4.529417 45.959751 -11.273562
v -11.618358 43.230587 -8.087465
v 1.945962 39.979374 3.112648
v 4.529417 45.959751 -11.273562
v 1.776115 39.961155 3.135964
v 22.179951 40.312782 -16.406736
v 4.529642 45.917408 -11.368331
v 4.529417 45.959751 -11.273562
v 4.529417 45.959751 -11.273562
v 4.529642 45.917408 -11.368331
v -11.618358 43.230587 -8.087465
v -20.821396 33.228413 -12.178794
v -10.275059 12.027447 -34.764122
v -21.283224 -5.412200 -11.252681
v -20.821396 33.228413 -12.178794
v -17.817381 29.477800 -17.662584
v -10.275059 12.027447 -34.764122
v -21.283224 -5.412200 -11.252681
v -10.275059 12.027447 -34.764122
v 3.019961 3.460830 -47.012478
v 26.375570 1.079021 -42.461781
v 7.271258 37.104343 -24.691198
v 22.179951 40.312782 -16.406736
v 3.019961 3.460830 -47.012478
v 7.271258 37.104343 -24.691198
v 26.375570 1.079021 -42.461781
v -11.618358 43.230587 -8.087465
v 7.271258 37.104343 -24.691198
v -17.817381 29.477800 -17.662584
v 22.179951 40.312782 -16.406736
v 7.271258 37.104343 -24.691198
v 4.529642 45.917408 -11.368331
v 4.529642 45.917408 -11.368331
v 7.271258 37.104343 -24.691198
v -11.618358 43.230587 -8.087465
v -17.817381 29.477800 -17.662584
v -3.062026 20.177406 -32.889256
v -10.275059 12.027447 -34.764122
v 7.271258 37.104343 -24.691198
v -3.062026 20.177406 -32.889256
v -17.817381 29.477800 -17.662584
v -10.275059 12.027447 -34.764122
v -3.062026 20.177406 -32.889256
v 3.019961 3.460830 -47.012478
v 3.019961 3.460830 -47.012478
v -3.062026 20.177406 -32.889256
v 7.271258 37.104343 -24.691198
vn 0.032544 -0.899184 0.436325
vn 0.147930 -0.648522 0.746684
vn 0.659464 0.155717 0.735431
vn 0.046917 -0.952344 -0.301396
vn -0.040427 -0.827067 -0.560648
vn -0.104794 -0.804823 -0.584191
vn 0.693060 -0.552313 -0.463269
vn 0.747617 -0.534484 -0.394203
vn 0.837039 -0.486767 -0.249846
vn 0.994804 -0.098444 0.025955
vn -0.978262 0.006725 -0.207262
vn 0.451060 -0.526201 0.720873
vn 0.526507 -0.453822 0.718913
vn 0.563096 -0.478093 0.674055
vn -0.769149 -0.449966 -0.453807
vn -0.630322 -0.322648 0.706111
vn -0.760432 -0.398074 0.513108
vn 0.360602 -0.573926 -0.735238
vn -0.456305 0.627769 0.630628
vn -0.713736 0.694346 -0.092006
vn -0.365352 0.708576 0.603687
vn -0.401781 0.638275 -0.656641
vn -0.185568 -0.787331 0.587941
vn -0.274011 -0.841443 0.465716
vn -0.640239 -0.714120 0.283065
vn -0.045278 -0.668555 0.742283
vn -0.575534 -0.402498 0.711868
vn -0.613718 -0.507180 0.605077
vn -0.587474 0.323535 0.741754
vn -0.575757 0.404048 0.710809
vn -0.800924 -0.113781 0.587856
vn -0.642984 -0.300454 0.704485
vn 0.645635 0.695317 0.315737
vn 0.499278 0.800616 0.331263
vn 0.282291 -0.593578 -0.753643
vn 0.314325 -0.579946 -0.751573
vn 0.240093 -0.594898 -0.767106
vn -0.306984 -0.508957 -0.804192
vn 0.991672 0.095684 -0.086200
vn 0.947883 0.310612 -0.070984
vn 0.954600 0.101391 -0.280106
vn 0.524167 0.509319 -0.682527
vn -0.732542 -0.348175 -0.584941
vn -0.735570 -0.342016 -0.584775
vn -0.419072 -0.467192 -0.778531
vn 0.212782 0.327944 -0.920422
vn -0.263695 0.795003 0.546292
vn -0.035253 0.895762 0.443133
vn 0.369371 0.878126 0.304072
vn 0.059662 0.917905 0.392289
vn -0.083554 0.925535 0.369329
vn -0.047627 0.925348 0.376116
vn 0.171053 0.899704 -0.401588
vn -0.228635 0.888624 -0.397584
vn -0.905840 0.000673 -0.423619
vn -0.770217 0.244415 -0.589090
vn -0.745134 -0.319141 -0.585598
vn 0.312877 0.548435 -0.775453
vn 0.214122 0.521098 -0.826201
vn -0.381349 0.637792 -0.669175
vn 0.114756 0.839228 -0.531534
vn -0.246195 0.784282 -0.569464
vn -0.417145 0.537741 -0.732683
vn -0.378429 0.580286 -0.721152
vn -0.379188 0.512786 -0.770238
vn -0.288845 0.554363 -0.780545
f 1//1 2//1 3//1
f 4//2 5//2 6//2
f 7//3 8//3 9//3
f 10//4 11//4 12//4
f 13//5 14//5 15//5
f 16//6 17//6 18//6
f 19//7 20//7 21//7
f 22//8 23//8 24//8
f 25//9 26//9 27//9
f 28//10 29//10 30//10
f 31//11 32//11 33//11
f 34//12 35//12 36//12
f 37//13 38//13 39//13
f 40//14 41//14 42//14
f 43//15 44//15 45//15
f 46//16 47//16 48//16
f 49//17 50//17 51//17
f 52//18 53//18 54//18
f 55//19 56//19 57//19
f 58//20 59//20 60//20
f 61//21 62//21 63//21
f 64//22 65//22 66//22
f 67//23 68//23 69//23
f 70//24 71//24 72//24
f 73//25 74//25 75//25
f 76//26 77//26 78//26
f 79//27 80//27 81//27
f 82//28 83//28 84//28
f 85//29 86//29 87//29
f 88//30 89//30 90//30
f 91//31 92//31 93//31
f 94//32 95//32 96//32
f 97//33 98//33 99//33
f 100//34 101//34 102//34
f 103//35 104//35 105//35
f 106//36 107//36 108//36
f 109//37 110//37 111//37
f 112//38 113//38 114//38
f 115//39 116//39 117//39
f 118//40 119//40 120//40
f 121//41 122//41 123//41
f 124//42 125//42 126//42
f 127//43 128//43 129//43
f 130//44 131//44 132//44
f 133//45 134//45 135//45
f 136//46 137//46 138//46
f 139//47 140//47 141//47
f 142//48 143//48 144//48
f 145//49 146//49 147//49
f 148//50 149//50 150//50
f 151//51 152//51 153//51
f 154//52 155//52 156//52
f 157//53 158//53 159//53
f 160//54 161//54 162//54
f 163//55 164//55 165//55
f 166//56 167//56 168//56
f 169//57 170//57 171//57
f 172//58 173//58 174//58
f 175//59 176//59 177//59
f 178//60 179//60 180//60
f 181//61 182//61 183//61
f 184//62 185//62 186//62
f 187//63 188//63 189//63
f 190//64 191//64 192//64
f 193//65 194//65 195//65
f 196//66 197//66 198//66
