o
v -11.987975 43.878223 -16.852615
v 2.539372 14.422221 -45.076057
v -38.326393 20.235685 -25.251230
v -11.987975 43.878223 -16.852615
v 35.880592 -11.445793 -17.143787
v 38.293850 2.836220 -21.966972
v 36.083214 -11.475847 -17.210583
v 38.293850 2.836220 -21.966972
v 35.880592 -11.445793 -17.143787
v 2.539372 14.422221 -45.076057
v -2.467900 -10.210978 -46.630329
v -38.326393 20.235685 -25.251230
v -11.987975 43.878223 -16.852615
v -38.326393 20.235685 -25.251230
v -6.938553 -19.610619 -18.997816
v -11.987975 43.878223 -16.852615
v 10.697476 18.773983 -39.119751
v 2.539372 14.422221 -45.076057
v -11.987975 43.878223 -16.852615
v 38.293850 2.836220 -21.966972
v 10.697476 18.773983 -39.119751
v -11.987975 43.878223 -16.852615
v 7.296135 -21.923271 -17.834574
v 35.880592 -11.445793 -17.143787
v -11.987975 43.878223 -16.852615
v -6.938553 -19.610619 -18.997816
v 7.296135 -21.923271 -17.834574
v -2.467900 -10.210978 -46.630329
v -7.194747 -15.821385 -44.199120
v -38.326393 20.235685 -25.251230
v -38.326393 20.235685 -25.251230
v -7.194747 -15.821385 -44.199120
v -4.327625 -26.209894 -39.751125
v 36.083214 -11.475847 -17.210583
v 35.880592 -11.445793 -17.143787
v 11.426925 -37.352844 -20.998133
v 7.296135 -21.923271 -17.834574
v 11.426925 -37.352844 -20.998133
v 35.880592 -11.445793 -17.143787
v -6.938553 -19.610619 -18.997816
v 11.403785 -37.337128 -20.996029
v 7.296135 -21.923271 -17.834574
v 7.296135 -21.923271 -17.834574
v 11.403785 -37.337128 -20.996029
v 11.426925 -37.352844 -20.998133
v 36.083214 -11.475847 -17.210583
v 11.426925 -37.352844 -20.998133
v 11.440125 -37.368114 -21.012632
v 11.403785 -37.337128 -20.996029
v 11.440125 -37.368114 -21.012632
v 11.426925 -37.352844 -20.998133
v 36.083214 -11.475847 -17.210583
v 11.440125 -37.368114 -21.012632
v 11.442533 -37.369877 -21.015396
v 2.539372 14.422221 -45.076057
v 17.749657 -9.995568 -44.236641
v -2.467900 -10.210978 -46.630329
v 17.749657 -9.995568 -44.236641
v 18.133402 -11.978694 -43.953281
v -2.467900 -10.210978 -46.630329
v 10.697476 18.773983 -39.119751
v 22.783257 -7.658626 -42.441753
v 2.539372 14.422221 -45.076057
v 2.539372 14.422221 -45.076057
v 22.783257 -7.658626 -42.441753
v 17.749657 -9.995568 -44.236641
v 17.749657 -9.995568 -44.236641
v 22.783257 -7.658626 -42.441753
v 18.133402 -11.978694 -43.953281
v 18.133402 -11.978694 -43.953281
v 22.783257 -7.658626 -42.441753
v 19.420218 -11.204796 -43.426559
v 36.083214 -11.475847 -17.210583
v 11.442533 -37.369877 -21.015396
v 29.842047 -23.551388 -22.945747
v 36.083214 -11.475847 -17.210583
v 29.842047 -23.551388 -22.945747
v 30.312115 -23.131666 -23.218679
v -2.467900 -10.210978 -46.630329
v -1.485229 -27.480156 -40.982609
v -7.194747 -15.821385 -44.199120
v -7.194747 -15.821385 -44.199120
v -1.604390 -27.724804 -40.873489
v -4.327625 -26.209894 -39.751125
v -1.485229 -27.480156 -40.982609
v -1.604390 -27.724804 -40.873489
v -7.194747 -15.821385 -44.199120
v 38.293850 2.836220 -21.966972
v 27.339439 7.051087 -33.721592
v 10.697476 18.773983 -39.119751
v 10.697476 18.773983 -39.119751
v 27.339439 7.051087 -33.721592
v 22.783257 -7.658626 -42.441753
v -2.467900 -10.210978 -46.630329
v 1.059219 -31.239515 -39.798016
v -1.485229 -27.480156 -40.982609
v -1.604390 -27.724804 -40.873489
v 1.059219 -31.239515 -39.798016
v -4.327625 -26.209894 -39.751125
v -1.485229 -27.480156 -40.982609
v 1.059219 -31.239515 -39.798016
v -1.604390 -27.724804 -40.873489
v 18.133402 -11.978694 -43.953281
v 8.468287 -24.236700 -41.836342
v -2.467900 -10.210978 -46.630329
v -2.467900 -10.210978 -46.630329
v 8.468287 -24.236700 -41.836342
v 1.059219 -31.239515 -39.798016
v 36.083214 -11.475847 -17.210583
v 32.769825 -21.217134 -25.815586
v 32.898380 -20.936577 -25.709978
v 29.842047 -23.551388 -22.945747
v 30.665648 -23.919930 -25.212364
v 30.312115 -23.131666 -23.218679
v 36.083214 -11.475847 -17.210583
v 30.312115 -23.131666 -23.218679
v 30.665648 -23.919930 -25.212364
v 38.293850 2.836220 -21.966972
v 32.699749 -0.034253 -32.247437
v 27.339439 7.051087 -33.721592
v 27.339439 7.051087 -33.721592
v 32.699749 -0.034253 -32.247437
v 22.783257 -7.658626 -42.441753
v 11.442533 -37.369877 -21.015396
v 31.086861 -24.728786 -27.489702
v 29.842047 -23.551388 -22.945747
v 29.842047 -23.551388 -22.945747
v 31.086861 -24.728786 -27.489702
v 30.665648 -23.919930 -25.212364
v 36.083214 -11.475847 -17.210583
v 31.086861 -24.728786 -27.489702
v 32.769825 -21.217134 -25.815586
v 36.083214 -11.475847 -17.210583
v 30.665648 -23.919930 -25.212364
v 31.086861 -24.728786 -27.489702
v 1.059219 -31.239515 -39.798016
v -0.273182 -32.908897 -35.932461
v -4.327625 -26.209894 -39.751125
v 36.083214 -11.475847 -17.210583
v 32.898396 -21.797539 -29.205107
v 38.293850 2.836220 -21.966972
v 36.083214 -11.475847 -17.210583
v 32.898380 -20.936577 -25.709978
v 32.898396 -21.797539 -29.205107
v 32.769825 -21.217134 -25.815586
v 32.898396 -21.797539 -29.205107
v 32.898380 -20.936577 -25.709978
v 31.086861 -24.728786 -27.489702
v 32.898396 -21.797539 -29.205107
v 32.769825 -21.217134 -25.815586
v 1.059219 -31.239515 -39.798016
v -0.199604 -33.004005 -35.890606
v -0.273182 -32.908897 -35.932461
v -6.938553 -19.610619 -18.997816
v -4.797298 -30.277248 -33.700928
v 11.403785 -37.337128 -20.996029
v -38.326393 20.235685 -25.251230
v -4.797298 -30.277248 -33.700928
v -6.938553 -19.610619 -18.997816
v -38.326393 20.235685 -25.251230
v -4.327625 -26.209894 -39.751125
v -4.797298 -30.277248 -33.700928
v -0.273182 -32.908897 -35.932461
v -4.797298 -30.277248 -33.700928
v -4.327625 -26.209894 -39.751125
v 11.403785 -37.337128 -20.996029
v -4.797298 -30.277248 -33.700928
v 11.440125 -37.368114 -21.012632
v 1.059219 -31.239515 -39.798016
v -0.167827 -33.694458 -34.985504
v -0.199604 -33.004005 -35.890606
v 1.059219 -31.239515 -39.798016
v 1.557416 -33.761406 -36.297726
v -0.167827 -33.694458 -34.985504
v 11.442533 -37.369877 -21.015396
v -0.167827 -33.694458 -34.985504
v 1.557416 -33.761406 -36.297726
v 11.440125 -37.368114 -21.012632
v -0.167827 -33.694458 -34.985504
v 11.442533 -37.369877 -21.015396
v -4.797298 -30.277248 -33.700928
v -0.167827 -33.694458 -34.985504
v 11.440125 -37.368114 -21.012632
v -0.199604 -33.004005 -35.890606
v -0.167827 -33.694458 -34.985504
v -0.273182 -32.908897 -35.932461
v -0.273182 -32.908897 -35.932461
v -0.167827 -33.694458 -34.985504
v -4.797298 -30.277248 -33.700928
v 32.898396 -21.797539 -29.205107
v 32.439007 -22.107349 -30.647245
v 38.293850 2.836220 -21.966972
v 11.442533 -37.369877 -21.015396
v 30.032999 -26.291218 -29.695606
v 31.086861 -24.728786 -27.489702
v 11.442533 -37.369877 -21.015396
v 1.557416 -33.761406 -36.297726
v 30.032999 -26.291218 -29.695606
v 31.086861 -24.728786 -27.489702
v 30.032999 -26.291218 -29.695606
v 32.898396 -21.797539 -29.205107
v 32.898396 -21.797539 -29.205107
v 31.473309 -23.039610 -33.092724
v 32.439007 -22.107349 -30.647245
v 38.293850 2.836220 -21.966972
v 31.473309 -23.039610 -33.092724
v 32.699749 -0.034253 -32.247437
v 32.439007 -22.107349 -30.647245
v 31.473309 -23.039610 -33.092724
v 38.293850 2.836220 -21.966972
v 32.699749 -0.034253 -32.247437
v 31.473309 -23.039610 -33.092724
v 22.783257 -7.658626 -42.441753
v 22.783257 -7.658626 -42.441753
v 31.473309 -23.039610 -33.092724
v 19.420218 -11.204796 -43.426559
v 18.133402 -11.978694 -43.953281
v 19.420218 -11.204796 -43.426559
v 31.473309 -23.039610 -33.092724
v 30.032999 -26.291218 -29.695606
v 31.003946 -23.913055 -32.857944
v 32.898396 -21.797539 -29.205107
v 32.898396 -21.797539 -29.205107
v 31.003946 -23.913055 -32.857944
v 31.473309 -23.039610 -33.092724
v 18.133402 -11.978694 -43.953281
v 31.003946 -23.913055 -32.857944
v 8.468287 -24.236700 -41.836342
v 18.133402 -11.978694 -43.953281
v 31.473309 -23.039610 -33.092724
v 31.003946 -23.913055 -32.857944
v 8.468287 -24.236700 -41.836342
v 31.003946 -23.913055 -32.857944
v 1.059219 -31.239515 -39.798016
v 1.059219 -31.239515 -39.798016
v 30.880989 -24.066545 -32.785130
v 1.557416 -33.761406 -36.297726
v 31.003946 -23.913055 -32.857944
v 30.880989 -24.066545 -32.785130
v 1.059219 -31.239515 -39.798016
v 1.557416 -33.761406 -36.297726
v 30.880989 -24.066545 -32.785130
v 30.032999 -26.291218 -29.695606
v 30.032999 -26.291218 -29.695606
v 30.880989 -24.066545 -32.785130
v 31.003946 -23.913055 -32.857944
vn -0.284514 0.586375 -0.758430
vn 0.304090 0.258285 0.916961
vn 0.336377 0.249800 0.907992
vn -0.415766 0.141203 -0.898443
vn -0.259682 -0.053233 0.964226
vn 0.119102 0.716912 -0.686915
vn 0.596520 0.762161 -0.251543
vn -0.016877 -0.019864 0.999660
vn -0.087934 -0.040623 0.995298
vn -0.489673 0.035031 -0.871202
vn -0.773663 -0.417560 -0.476539
vn 0.242733 -0.362960 0.899634
vn 0.045545 -0.188930 0.980934
vn -0.116210 -0.229186 0.966421
vn -0.057598 -0.215295 0.974849
vn 0.358787 -0.460685 0.811814
vn -0.498331 -0.783418 0.371362
vn 0.443723 -0.528582 0.723679
vn 0.117079 0.038816 -0.992364
vn 0.117993 -0.118049 -0.985973
vn 0.447235 0.309933 -0.839001
vn 0.274935 0.138554 -0.951427
vn 0.361051 -0.063077 -0.930410
vn 0.479351 -0.218550 -0.849976
vn 0.495623 -0.568160 0.656926
vn 0.728867 -0.562255 0.390670
vn -0.111409 -0.314626 -0.942655
vn -0.543242 -0.452679 -0.707086
vn -0.161668 -0.335239 -0.928158
vn 0.612675 0.726857 -0.310336
vn 0.491711 0.326287 -0.807315
vn -0.018290 -0.311728 -0.949995
vn -0.566699 -0.601700 -0.562858
vn -0.104183 -0.362363 -0.926196
vn 0.103855 -0.248216 -0.963121
vn 0.026279 -0.304910 -0.952019
vn 0.859947 -0.469437 0.200299
vn 0.728933 -0.582543 0.359585
vn 0.753297 -0.554927 0.352987
vn 0.729454 0.443508 -0.520766
vn 0.577105 0.276739 -0.768352
vn 0.585758 -0.731067 0.349897
vn 0.686421 -0.635885 0.352811
vn 0.808542 -0.519367 0.276617
vn 0.764785 -0.549379 0.336580
vn -0.600032 -0.638151 -0.482415
vn 0.977647 -0.184510 -0.100811
vn 0.913543 -0.394936 0.097289
vn 0.887165 -0.448058 0.110375
vn 0.873590 -0.473086 0.114146
vn -0.576630 -0.658762 -0.483250
vn -0.612667 -0.679459 0.403701
vn -0.772497 -0.562164 0.295331
vn -0.799622 -0.467779 -0.376547
vn -0.605682 -0.637791 -0.475785
vn -0.552467 -0.790145 0.265428
vn -0.575072 -0.660061 -0.483334
vn -0.406510 -0.767749 -0.495289
vn -0.143440 -0.979906 -0.138594
vn -0.462091 -0.873310 0.154277
vn -0.535432 -0.812305 0.231244
vn -0.577275 -0.658862 -0.482342
vn -0.605321 -0.644418 -0.467240
vn 0.952640 -0.127539 -0.276062
vn 0.582118 -0.768329 0.266099
vn 0.319038 -0.855275 -0.408312
vn 0.844109 -0.535640 -0.023878
vn 0.891256 -0.408932 -0.196057
vn 0.881446 -0.029672 -0.471353
vn 0.937995 -0.105230 -0.330291
vn 0.721602 -0.013036 -0.692186
vn 0.491179 -0.232704 -0.839400
vn 0.487014 -0.237813 -0.840394
vn 0.842115 -0.522322 -0.134242
vn 0.852757 -0.499383 -0.153046
vn 0.341854 -0.415143 -0.843085
vn 0.344944 -0.412050 -0.843343
vn 0.314397 -0.556492 -0.769072
vn 0.317059 -0.747512 -0.583695
vn 0.317118 -0.601773 -0.733011
vn 0.325853 -0.807363 -0.491920
vn 0.666798 -0.679422 -0.306213
f 1//1 2//1 3//1
f 4//2 5//2 6//2
f 7//3 8//3 9//3
f 10//4 11//4 12//4
f 13//5 14//5 15//5
f 16//6 17//6 18//6
f 19//7 20//7 21//7
f 22//8 23//8 24//8
f 25//9 26//9 27//9
f 28//10 29//10 30//10
f 31//11 32//11 33//11
f 34//12 35//12 36//12
f 37//13 38//13 39//13
f 40//14 41//14 42//14
f 43//15 44//15 45//15
f 46//16 47//16 48//16
f 49//17 50//17 51//17
f 52//18 53//18 54//18
f 55//19 56//19 57//19
f 58//20 59//20 60//20
f 61//21 62//21 63//21
f 64//22 65//22 66//22
f 67//23 68//23 69//23
f 70//24 71//24 72//24
f 73//25 74//25 75//25
f 76//26 77//26 78//26
f 79//27 80//27 81//27
f 82//28 83//28 84//28
f 85//29 86//29 87//29
f 88//30 89//30 90//30
f 91//31 92//31 93//31
f 94//32 95//32 96//32
f 97//33 98//33 99//33
f 100//34 101//34 102//34
f 103//35 104//35 105//35
f 106//36 107//36 108//36
f 109//37 110//37 111//37
f 112//38 113//38 114//38
f 115//39 116//39 117//39
f 118//40 119//40 120//40
f 121//41 122//41 123//41
f 124//42 125//42 126//42
f 127//43 128//43 129//43
f 130//44 131//44 132//44
f 133//45 134//45 135//45
f 136//46 137//46 138//46
f 139//47 140//47 141//47
f 142//48 143//48 144//48
f 145//49 146//49 147//49
f 148//50 149//50 150//50
f 151//51 152//51 153//51
f 154//52 155//52 156//52
f 157//53 158//53 159//53
f 160//54 161//54 162//54
f 163//55 164//55 165//55
f 166//56 167//56 168//56
f 169//57 170//57 171//57
f 172//58 173//58 174//58
f 175//59 176//59 177//59
f 178//60 179//60 180//60
f 181//61 182//61 183//61
f 184//62 185//62 186//62
f 187//63 188//63 189//63
f 190//64 191//64 192//64
f 193//65 194//65 195//65
f 196//66 197//66 198//66
f 199//67 200//67 201//67
f 202//68 203//68 204//68
f 205//69 206//69 207//69
f 208//70 209//70 210//70
f 211//71 212//71 213//71
f 214//72 215//72 216//72
f 217//73 218//73 219//73
f 220//74 221//74 222//74
f 223//75 224//75 225//75
f 226//76 227//76 228//76
f 229//77 230//77 231//77
f 232//78 233//78 234//78
f 235//79 236//79 237//79
f 238//80 239//80 240//80
f 241//81 242//81 243//81
f 244//82 245//82 246//82
