o
v -9.088488 40.213573 16.183952
v -9.069494 40.186134 16.064463
v -9.096970 40.130505 16.137436
v -9.088488 40.213573 16.183952
v -8.985929 40.471981 16.357983
v -8.739464 41.056087 16.260311
v -9.088488 40.213573 16.183952
v -9.096970 40.130505 16.137436
v 28.809250 -1.054620 42.552296
v -9.088488 40.213573 16.183952
v 28.809250 -1.054620 42.552296
v -8.985929 40.471981 16.357983
v -8.985929 40.471981 16.357983
v 28.809250 -1.054620 42.552296
v -8.739464 41.056087 16.260311
v -8.739464 41.056087 16.260311
v 28.809250 -1.054620 42.552296
v -8.706614 41.068535 16.267685
v 26.187067 -26.232019 -14.715244
v 26.203310 -26.228220 -14.696621
v 28.809250 -1.054620 42.552296
v -9.088488 40.213573 16.183952
v -3.559321 46.622894 2.383050
v -9.069494 40.186134 16.064463
v -9.088488 40.213573 16.183952
v -8.739464 41.056087 16.260311
v -3.559321 46.622894 2.383050
v -8.739464 41.056087 16.260311
v -8.706614 41.068535 16.267685
v -3.559321 46.622894 2.383050
v 26.187067 -26.232019 -14.715244
v 18.140104 -19.305477 -18.168131
v 18.074066 -18.954039 -18.591604
v 18.075462 -19.030661 -18.483936
v 18.074066 -18.954039 -18.591604
v 18.140104 -19.305477 -18.168131
v 26.187067 -26.232019 -14.715244
v 18.074066 -18.954039 -18.591604
v 18.105854 -18.874554 -18.672699
v -9.096970 40.130505 16.137436
v 15.528502 -16.107634 -16.087460
v 28.809250 -1.054620 42.552296
v 26.187067 -26.232019 -14.715244
v 28.809250 -1.054620 42.552296
v 15.528502 -16.107634 -16.087460
v 26.187067 -26.232019 -14.715244
v 15.528502 -16.107634 -16.087460
v 18.140104 -19.305477 -18.168131
v 18.075462 -19.030661 -18.483936
v 18.140104 -19.305477 -18.168131
v 15.528502 -16.107634 -16.087460
v 18.075462 -19.030661 -18.483936
v 15.528502 -16.107634 -16.087460
v 18.074066 -18.954039 -18.591604
v -9.069494 40.186134 16.064463
v 4.472428 35.635841 -32.658230
v -9.096970 40.130505 16.137436
v -3.559321 46.622894 2.383050
v 4.472428 35.635841 -32.658230
v -9.069494 40.186134 16.064463
v -9.096970 40.130505 16.137436
v 4.472428 35.635841 -32.658230
v 15.528502 -16.107634 -16.087460
v 15.528502 -16.107634 -16.087460
v 4.472428 35.635841 -32.658230
v 18.074066 -18.954039 -18.591604
v -3.559321 46.622894 2.383050
v 4.458947 35.770767 -32.506176
v 4.472428 35.635841 -32.658230
v 4.472428 35.635841 -32.658230
v 4.458947 35.770767 -32.506176
v 4.470057 35.701126 -32.592056
v 4.472428 35.635841 -32.658230
v 4.470057 35.701126 -32.592056
v 4.494606 35.813828 -32.519432
v 4.458947 35.770767 -32.506176
v 4.494606 35.813828 -32.519432
v 4.470057 35.701126 -32.592056
v -3.559321 46.622894 2.383050
v 4.494606 35.813828 -32.519432
v 4.458947 35.770767 -32.506176
v 26.203310 -26.228220 -14.696621
v 36.512444 1.330149 -29.844492
v 28.809250 -1.054620 42.552296
v 26.187067 -26.232019 -14.715244
v 36.512444 1.330149 -29.844492
v 26.203310 -26.228220 -14.696621
v 26.187067 -26.232019 -14.715244
v 18.105854 -18.874554 -18.672699
v 36.512444 1.330149 -29.844492
v 36.320614 1.531994 -29.885818
v 36.277760 1.698359 -29.889133
v 36.512444 1.330149 -29.844492
v 18.074066 -18.954039 -18.591604
v 11.071574 20.033953 -33.409801
v 18.105854 -18.874554 -18.672699
v 4.472428 35.635841 -32.658230
v 11.071574 20.033953 -33.409801
v 18.074066 -18.954039 -18.591604
v 18.105854 -18.874554 -18.672699
v 11.071574 20.033953 -33.409801
v 36.512444 1.330149 -29.844492
v 36.320614 1.531994 -29.885818
v 36.512444 1.330149 -29.844492
v 11.071574 20.033953 -33.409801
v 36.320614 1.531994 -29.885818
v 11.071574 20.033953 -33.409801
v 36.277760 1.698359 -29.889133
v 28.809250 -1.054620 42.552296
v 15.096117 37.730438 17.624422
v -8.706614 41.068535 16.267685
v -8.706614 41.068535 16.267685
v 15.096117 37.730438 17.624422
v -3.559321 46.622894 2.383050
v 15.096117 37.730438 17.624422
v 15.604951 43.662701 2.511309
v -3.559321 46.622894 2.383050
v 4.472428 35.635841 -32.658230
v 4.494606 35.813828 -32.519432
v 20.094160 28.884182 -30.492313
v 36.512444 1.330149 -29.844492
v 40.256096 24.683746 7.933241
v 28.809250 -1.054620 42.552296
v 36.277760 1.698359 -29.889133
v 28.208773 19.836470 -30.607002
v 36.512444 1.330149 -29.844492
v 4.472428 35.635841 -32.658230
v 28.208773 19.836470 -30.607002
v 11.071574 20.033953 -33.409801
v 4.472428 35.635841 -32.658230
v 20.094160 28.884182 -30.492313
v 28.208773 19.836470 -30.607002
v 11.071574 20.033953 -33.409801
v 28.208773 19.836470 -30.607002
v 36.277760 1.698359 -29.889133
v 40.256096 24.683746 7.933241
v 38.917076 26.874228 8.805947
v 28.809250 -1.054620 42.552296
v 40.256096 24.683746 7.933241
v 39.715515 26.906330 7.137557
v 38.917076 26.874228 8.805947
v 40.256096 24.683746 7.933241
v 39.817505 27.066000 6.341084
v 39.715515 26.906330 7.137557
v 28.208773 19.836470 -30.607002
v 30.539648 20.323343 -29.053850
v 36.512444 1.330149 -29.844492
v 36.512444 1.330149 -29.844492
v 40.056496 21.250061 -16.500727
v 40.256096 24.683746 7.933241
v 20.094160 28.884182 -30.492313
v 31.245510 24.014223 -27.584282
v 28.208773 19.836470 -30.607002
v 28.208773 19.836470 -30.607002
v 31.245510 24.014223 -27.584282
v 30.539648 20.323343 -29.053850
v 30.539648 20.323343 -29.053850
v 31.245510 24.014223 -27.584282
v 36.512444 1.330149 -29.844492
v 34.567177 20.354805 -25.830658
v 36.512444 1.330149 -29.844492
v 31.245510 24.014223 -27.584282
v 20.094160 28.884182 -30.492313
v 30.462536 24.562002 -27.666834
v 31.245510 24.014223 -27.584282
v 36.512444 1.330149 -29.844492
v 36.343746 24.842924 -22.818169
v 40.056496 21.250061 -16.500727
v 34.567177 20.354805 -25.830658
v 36.343746 24.842924 -22.818169
v 36.512444 1.330149 -29.844492
v 34.567177 20.354805 -25.830658
v 31.245510 24.014223 -27.584282
v 36.343746 24.842924 -22.818169
v 40.256096 24.683746 7.933241
v 39.740665 27.521854 -1.749193
v 39.817505 27.066000 6.341084
v 40.056496 21.250061 -16.500727
v 39.740665 27.521854 -1.749193
v 40.256096 24.683746 7.933241
v 28.809250 -1.054620 42.552296
v 27.985100 39.067368 7.511946
v 15.096117 37.730438 17.624422
v 38.917076 26.874228 8.805947
v 27.985100 39.067368 7.511946
v 28.809250 -1.054620 42.552296
v 15.096117 37.730438 17.624422
v 27.985100 39.067368 7.511946
v 15.604951 43.662701 2.511309
v 39.715515 26.906330 7.137557
v 27.985100 39.067368 7.511946
v 38.917076 26.874228 8.805947
v 15.604951 43.662701 2.511309
v 23.994900 44.659901 -4.398731
v -3.559321 46.622894 2.383050
v 27.985100 39.067368 7.511946
v 23.994900 44.659901 -4.398731
v 15.604951 43.662701 2.511309
v -3.559321 46.622894 2.383050
v 22.682177 42.977039 -11.315207
v 4.494606 35.813828 -32.519432
v 23.994900 44.659901 -4.398731
v 22.682177 42.977039 -11.315207
v -3.559321 46.622894 2.383050
v 36.343746 24.842924 -22.818169
v 37.901737 31.324409 -14.206219
v 40.056496 21.250061 -16.500727
v 40.056496 21.250061 -16.500727
v 37.901737 31.324409 -14.206219
v 39.740665 27.521854 -1.749193
v 39.740665 27.521854 -1.749193
v 37.901737 31.324409 -14.206219
v 39.817505 27.066000 6.341084
v 27.985100 39.067368 7.511946
v 27.587358 41.426819 0.360896
v 23.994900 44.659901 -4.398731
v 22.682177 42.977039 -11.315207
v 23.990438 40.557587 -14.339843
v 4.494606 35.813828 -32.519432
v 37.901737 31.324409 -14.206219
v 23.990438 40.557587 -14.339843
v 22.682177 42.977039 -11.315207
v 23.994900 44.659901 -4.398731
v 30.587996 40.705826 -3.855171
v 22.682177 42.977039 -11.315207
v 39.817505 27.066000 6.341084
v 30.587996 40.705826 -3.855171
v 39.715515 26.906330 7.137557
v 39.715515 26.906330 7.137557
v 30.587996 40.705826 -3.855171
v 27.985100 39.067368 7.511946
v 27.985100 39.067368 7.511946
v 30.587996 40.705826 -3.855171
v 27.587358 41.426819 0.360896
v 37.901737 31.324409 -14.206219
v 30.587996 40.705826 -3.855171
v 39.817505 27.066000 6.341084
v 27.587358 41.426819 0.360896
v 30.587996 40.705826 -3.855171
v 23.994900 44.659901 -4.398731
v 30.462536 24.562002 -27.666834
v 30.594969 32.234024 -20.462267
v 31.245510 24.014223 -27.584282
v 31.245510 24.014223 -27.584282
v 30.594969 32.234024 -20.462267
v 36.343746 24.842924 -22.818169
v 20.094160 28.884182 -30.492313
v 30.594969 32.234024 -20.462267
v 30.462536 24.562002 -27.666834
v 4.494606 35.813828 -32.519432
v 30.594969 32.234024 -20.462267
v 20.094160 28.884182 -30.492313
v 23.990438 40.557587 -14.339843
v 30.594969 32.234024 -20.462267
v 4.494606 35.813828 -32.519432
v 36.343746 24.842924 -22.818169
v 31.126499 32.580692 -19.604286
v 37.901737 31.324409 -14.206219
v 30.594969 32.234024 -20.462267
v 31.126499 32.580692 -19.604286
v 36.343746 24.842924 -22.818169
v 37.901737 31.324409 -14.206219
v 31.126499 32.580692 -19.604286
v 23.990438 40.557587 -14.339843
v 23.990438 40.557587 -14.339843
v 31.126499 32.580692 -19.604286
v 30.594969 32.234024 -20.462267
v 37.901737 31.324409 -14.206219
v 22.682177 42.977039 -11.315207
v 29.396812 40.368114 -6.606139
v 30.587996 40.705826 -3.855171
v 29.396812 40.368114 -6.606139
v 22.682177 42.977039 -11.315207
v 37.901737 31.324409 -14.206219
v 29.396812 40.368114 -6.606139
v 30.587996 40.705826 -3.855171
vn -0.956986 0.209887 -0.200314
vn -0.922629 0.384706 -0.027512
vn -0.732318 -0.274253 0.623294
vn -0.693117 -0.192700 0.694590
vn -0.315098 0.284363 0.905456
vn -0.312093 0.287144 0.905619
vn -0.251410 -0.881738 0.399163
vn -0.921222 0.320791 -0.220097
vn -0.902814 0.390355 -0.180415
vn -0.387859 0.896344 0.214784
vn -0.397819 -0.735538 -0.548382
vn -0.560737 -0.678024 -0.475245
vn -0.233662 -0.647030 -0.725778
vn -0.790365 -0.526028 0.314035
vn -0.673286 -0.665005 0.323195
vn -0.687705 -0.695999 0.206513
vn -0.824175 -0.499839 -0.266265
vn -0.828386 -0.461406 -0.317618
vn -0.954933 0.110002 -0.275686
vn -0.937341 0.207478 -0.279900
vn -0.932720 -0.274270 -0.234113
vn -0.822555 -0.325168 -0.466550
vn -0.931033 0.228051 -0.284905
vn -0.790988 0.421135 -0.443824
vn -0.723330 0.478414 -0.497908
vn -0.743563 0.469057 -0.476549
vn -0.772529 0.533964 -0.343630
vn 0.948095 -0.304734 0.090842
vn 0.689892 -0.529445 -0.493697
vn -0.006572 -0.479284 -0.877635
vn 0.257473 0.047092 -0.965137
vn -0.691100 -0.361907 -0.625623
vn -0.822149 -0.325238 -0.467216
vn -0.146138 -0.373400 -0.916087
vn -0.033515 -0.230944 -0.972390
vn 0.152220 0.019521 -0.988154
vn 0.029152 0.547719 0.836154
vn 0.104588 0.909397 0.402565
vn 0.139677 0.920123 0.365873
vn 0.343442 0.550555 -0.760879
vn 0.949661 -0.299719 0.091173
vn 0.386896 0.136020 -0.912036
vn 0.161622 0.115573 -0.980062
vn 0.223848 0.212818 -0.951105
vn 0.161688 0.032894 -0.986294
vn 0.815474 0.301700 0.493944
vn 0.841847 0.351407 0.409643
vn 0.939366 0.292532 0.178932
vn 0.514906 0.196656 -0.834385
vn 0.982195 -0.186974 0.018252
vn 0.375959 0.348072 -0.858779
vn 0.504709 0.234304 -0.830885
vn 0.563309 0.210405 -0.799008
vn 0.634575 0.221127 -0.740552
vn 0.407840 0.464487 -0.786078
vn 0.886222 0.138466 -0.442083
vn 0.662186 0.218908 -0.716651
vn 0.643233 0.234596 -0.728846
vn 0.983364 0.181643 0.000895
vn 0.994389 0.103337 -0.022645
vn 0.459908 0.589444 0.664109
vn 0.547212 0.556922 0.624818
vn 0.191212 0.911475 0.364214
vn 0.682311 0.647714 0.338996
vn 0.143137 0.940079 0.309457
vn 0.191370 0.911565 0.363905
vn -0.024634 0.953330 -0.300924
vn 0.010536 0.971137 -0.238289
vn 0.889099 0.273719 -0.366852
vn 0.971524 0.224829 -0.074788
vn 0.874235 0.485130 0.019032
vn 0.431473 0.863566 0.260931
vn 0.288195 0.804701 -0.519038
vn 0.511626 0.765193 -0.390793
vn 0.509354 0.808959 -0.293503
vn 0.721378 0.655397 0.223762
vn 0.699618 0.666953 0.256337
vn 0.530855 0.813133 0.238763
vn 0.811386 0.582765 0.045126
vn 0.490980 0.846798 0.204626
vn 0.483745 0.594673 -0.642149
vn 0.498135 0.589991 -0.635431
vn 0.435137 0.612342 -0.660071
vn 0.382795 0.678227 -0.627277
vn 0.369077 0.722693 -0.584377
vn 0.559776 0.610263 -0.560562
vn 0.542171 0.606927 -0.581111
vn 0.496643 0.741752 -0.450722
vn 0.410010 0.728754 -0.548461
vn 0.533706 0.778829 -0.329520
vn 0.532382 0.781043 -0.326406
vn 0.535356 0.778594 -0.327393
f 1//1 2//1 3//1
f 4//2 5//2 6//2
f 7//3 8//3 9//3
f 10//4 11//4 12//4
f 13//5 14//5 15//5
f 16//6 17//6 18//6
f 19//7 20//7 21//7
f 22//8 23//8 24//8
f 25//9 26//9 27//9
f 28//10 29//10 30//10
f 31//11 32//11 33//11
f 34//12 35//12 36//12
f 37//13 38//13 39//13
f 40//14 41//14 42//14
f 43//15 44//15 45//15
f 46//16 47//16 48//16
f 49//17 50//17 51//17
f 52//18 53//18 54//18
f 55//19 56//19 57//19
f 58//20 59//20 60//20
f 61//21 62//21 63//21
f 64//22 65//22 66//22
f 67//23 68//23 69//23
f 70//24 71//24 72//24
f 73//25 74//25 75//25
f 76//26 77//26 78//26
f 79//27 80//27 81//27
f 82//28 83//28 84//28
f 85//29 86//29 87//29
f 88//30 89//30 90//30
f 91//31 92//31 93//31
f 94//32 95//32 96//32
f 97//33 98//33 99//33
f 100//34 101//34 102//34
f 103//35 104//35 105//35
f 106//36 107//36 108//36
f 109//37 110//37 111//37
f 112//38 113//38 114//38
f 115//39 116//39 117//39
f 118//40 119//40 120//40
f 121//41 122//41 123//41
f 124//42 125//42 126//42
f 127//43 128//43 129//43
f 130//44 131//44 132//44
f 133//45 134//45 135//45
f 136//46 137//46 138//46
f 139//47 140//47 141//47
f 142//48 143//48 144//48
f 145//49 146//49 147//49
f 148//50 149//50 150//50
f 151//51 152//51 153//51
f 154//52 155//52 156//52
f 157//53 158//53 159//53
f 160//54 161//54 162//54
f 163//55 164//55 165//55
f 166//56 167//56 168//56
f 169//57 170//57 171//57
f 172//58 173//58 174//58
f 175//59 176//59 177//59
f 178//60 179//60 180//60
f 181//61 182//61 183//61
f 184//62 185//62 186//62
f 187//63 188//63 189//63
f 190//64 191//64 192//64
f 193//65 194//65 195//65
f 196//66 197//66 198//66
f 199//67 200//67 201//67
f 202//68 203//68 204//68
f 205//69 206//69 207//69
f 208//70 209//70 210//70
f 211//71 212//71 213//71
f 214//72 215//72 216//72
f 217//73 218//73 219//73
f 220//74 221//74 222//74
f 223//75 224//75 225//75
f 226//76 227//76 228//76
f 229//77 230//77 231//77
f 232//78 233//78 234//78
f 235//79 236//79 237//79
f 238//80 239//80 240//80
f 241//81 242//81 243//81
f 244//82 245//82 246//82
f 247//83 248//83 249//83
f 250//84 251//84 252//84
f 253//85 254//85 255//85
f 256//86 257//86 258//86
f 259//87 260//87 261//87
f 262//88 263//88 264//88
f 265//89 266//89 267//89
f 268//90 269//90 270//90
f 271//91 272//91 273//91
f 274//92 275//92 276//92
