o
v 28.934668 37.497135 4.876487
v -2.389015 45.273487 -5.346099
v 26.379721 10.400691 9.214640
v 26.379721 10.400691 9.214640
v -2.389015 45.273487 -5.346099
v -23.010498 32.729744 -10.697624
v -23.010498 32.729744 -10.697624
v -2.389015 45.273487 -5.346099
v -19.783020 36.867840 -14.148016
v -23.010498 32.729744 -10.697624
v -19.783020 36.867840 -14.148016
v -19.981653 36.573364 -14.415209
v -2.389015 45.273487 -5.346099
v -0.779966 47.904430 -9.732811
v -19.783020 36.867840 -14.148016
v 28.934668 37.497135 4.876487
v -0.249439 47.781002 -9.551228
v -2.389015 45.273487 -5.346099
v -2.389015 45.273487 -5.346099
v -0.249439 47.781002 -9.551228
v -0.779966 47.904430 -9.732811
v 28.934668 37.497135 4.876487
v 26.379721 10.400691 9.214640
v 37.586731 34.371292 -5.791811
v 28.934668 37.497135 4.876487
v 37.586731 34.371292 -5.791811
v 36.951874 35.779720 -5.965411
v 37.586731 34.371292 -5.791811
v 37.393574 34.824245 -5.970982
v 36.951874 35.779720 -5.965411
v 37.393574 34.824245 -5.970982
v 36.754658 36.120396 -6.445516
v 36.951874 35.779720 -5.965411
v 28.934668 37.497135 4.876487
v 36.951874 35.779720 -5.965411
v 36.348553 36.624249 -6.832559
v 36.754658 36.120396 -6.445516
v 36.348553 36.624249 -6.832559
v 36.951874 35.779720 -5.965411
v 28.934668 37.497135 4.876487
v 13.893519 46.062588 -12.848169
v -0.249439 47.781002 -9.551228
v 28.934668 37.497135 4.876487
v 36.348553 36.624249 -6.832559
v 13.893519 46.062588 -12.848169
v -0.249439 47.781002 -9.551228
v 13.893519 46.062588 -12.848169
v -0.779966 47.904430 -9.732811
v 26.379721 10.400691 9.214640
v -23.010498 32.729744 -10.697624
v 7.476963 -21.839893 -17.714527
v 7.527710 -21.850407 -17.757057
v 29.818834 -24.599173 -31.728893
v 7.476963 -21.839893 -17.714527
v -0.779966 47.904430 -9.732811
v 1.719246 42.305408 -28.273033
v -19.783020 36.867840 -14.148016
v 13.893519 46.062588 -12.848169
v 2.201169 42.522465 -28.312366
v -0.779966 47.904430 -9.732811
v -0.779966 47.904430 -9.732811
v 2.201169 42.522465 -28.312366
v 1.719246 42.305408 -28.273033
v 26.379721 10.400691 9.214640
v 43.341923 -2.725094 -22.575708
v 37.586731 34.371292 -5.791811
v 26.379721 10.400691 9.214640
v 36.253464 -9.459222 -16.619123
v 43.341923 -2.725094 -22.575708
v 37.586731 34.371292 -5.791811
v 43.344051 -2.724632 -22.579582
v 37.393574 34.824245 -5.970982
v 43.341923 -2.725094 -22.575708
v 43.344051 -2.724632 -22.579582
v 37.586731 34.371292 -5.791811
v 29.818834 -24.599173 -31.728893
v 43.344051 -2.724632 -22.579582
v 36.253464 -9.459222 -16.619123
v 36.253464 -9.459222 -16.619123
v 43.344051 -2.724632 -22.579582
v 43.341923 -2.725094 -22.575708
v 26.379721 10.400691 9.214640
v 7.476963 -21.839893 -17.714527
v 30.728580 -17.529728 -22.950483
v 26.379721 10.400691 9.214640
v 30.728580 -17.529728 -22.950483
v 36.253464 -9.459222 -16.619123
v 29.818834 -24.599173 -31.728893
v 30.728580 -17.529728 -22.950483
v 7.476963 -21.839893 -17.714527
v 29.818834 -24.599173 -31.728893
v 36.253464 -9.459222 -16.619123
v 30.728580 -17.529728 -22.950483
v -19.783020 36.867840 -14.148016
v 2.197064 41.123882 -30.803959
v -19.981653 36.573364 -14.415209
v 1.719246 42.305408 -28.273033
v 2.197064 41.123882 -30.803959
v -19.783020 36.867840 -14.148016
v 2.201169 42.522465 -28.312366
v 2.197064 41.123882 -30.803959
v 1.719246 42.305408 -28.273033
v 13.893519 46.062588 -12.848169
v 7.037458 42.350918 -26.988947
v 2.201169 42.522465 -28.312366
v 2.197064 41.123882 -30.803959
v 0.979672 39.596977 -31.041349
v -19.981653 36.573364 -14.415209
v 36.348553 36.624249 -6.832559
v 10.499439 41.654819 -26.507963
v 13.893519 46.062588 -12.848169
v 13.893519 46.062588 -12.848169
v 10.499439 41.654819 -26.507963
v 7.037458 42.350918 -26.988947
v 2.201169 42.522465 -28.312366
v 5.446009 40.614128 -31.373207
v 2.197064 41.123882 -30.803959
v 7.037458 42.350918 -26.988947
v 5.446009 40.614128 -31.373207
v 2.201169 42.522465 -28.312366
v 10.499439 41.654819 -26.507963
v 5.446009 40.614128 -31.373207
v 7.037458 42.350918 -26.988947
v 36.348553 36.624249 -6.832559
v 12.701544 39.983727 -27.044363
v 10.499439 41.654819 -26.507963
v 10.499439 41.654819 -26.507963
v 11.620590 38.663811 -29.511147
v 5.446009 40.614128 -31.373207
v 12.701544 39.983727 -27.044363
v 11.620590 38.663811 -29.511147
v 10.499439 41.654819 -26.507963
v 29.818834 -24.599173 -31.728893
v 33.621265 -10.927697 -34.697407
v 43.344051 -2.724632 -22.579582
v 2.197064 41.123882 -30.803959
v -6.349348 18.645868 -41.010010
v 0.979672 39.596977 -31.041349
v 0.979672 39.596977 -31.041349
v -6.349348 18.645868 -41.010010
v -19.981653 36.573364 -14.415209
v -23.010498 32.729744 -10.697624
v -19.981653 36.573364 -14.415209
v -6.346200 18.624681 -41.021545
v -6.349348 18.645868 -41.010010
v -6.346200 18.624681 -41.021545
v -19.981653 36.573364 -14.415209
v -23.010498 32.729744 -10.697624
v -6.346200 18.624681 -41.021545
v 7.476963 -21.839893 -17.714527
v 29.818834 -24.599173 -31.728893
v 30.982986 -10.739988 -37.217110
v 33.621265 -10.927697 -34.697407
v 5.379972 6.034936 -48.860023
v 3.365719 3.555133 -46.725323
v -6.346200 18.624681 -41.021545
v 7.527710 -21.850407 -17.757057
v 3.365719 3.555133 -46.725323
v 29.818834 -24.599173 -31.728893
v 7.527710 -21.850407 -17.757057
v 7.476963 -21.839893 -17.714527
v 3.365719 3.555133 -46.725323
v -6.346200 18.624681 -41.021545
v 3.365719 3.555133 -46.725323
v 7.476963 -21.839893 -17.714527
v 5.379972 6.034936 -48.860023
v 4.997624 3.285428 -47.048557
v 3.365719 3.555133 -46.725323
v 3.365719 3.555133 -46.725323
v 4.997624 3.285428 -47.048557
v 29.818834 -24.599173 -31.728893
v 5.379972 6.034936 -48.860023
v -6.346200 18.624681 -41.021545
v 9.837376 10.208799 -50.221241
v 5.379972 6.034936 -48.860023
v 9.837376 10.208799 -50.221241
v 10.901143 6.470719 -49.351398
v 29.818834 -24.599173 -31.728893
v 20.483232 -2.794631 -45.560375
v 30.982986 -10.739988 -37.217110
v 20.060402 -3.334542 -45.474262
v 20.483232 -2.794631 -45.560375
v 29.818834 -24.599173 -31.728893
v 9.837376 10.208799 -50.221241
v 20.483232 -2.794631 -45.560375
v 10.901143 6.470719 -49.351398
v 10.901143 6.470719 -49.351398
v 20.483232 -2.794631 -45.560375
v 20.060402 -3.334542 -45.474262
v 4.997624 3.285428 -47.048557
v 17.591608 -3.206236 -45.541065
v 29.818834 -24.599173 -31.728893
v 20.060402 -3.334542 -45.474262
v 29.818834 -24.599173 -31.728893
v 17.591608 -3.206236 -45.541065
v 5.379972 6.034936 -48.860023
v 17.591608 -3.206236 -45.541065
v 4.997624 3.285428 -47.048557
v 5.379972 6.034936 -48.860023
v 10.901143 6.470719 -49.351398
v 17.591608 -3.206236 -45.541065
v 10.901143 6.470719 -49.351398
v 20.060402 -3.334542 -45.474262
v 17.591608 -3.206236 -45.541065
v 11.620590 38.663811 -29.511147
v 11.295096 18.504395 -47.275188
v 5.446009 40.614128 -31.373207
v -6.349348 18.645868 -41.010010
v 11.295096 18.504395 -47.275188
v -6.346200 18.624681 -41.021545
v -6.346200 18.624681 -41.021545
v 11.295096 18.504395 -47.275188
v 9.837376 10.208799 -50.221241
v 5.446009 40.614128 -31.373207
v 11.295096 18.504395 -47.275188
v 2.197064 41.123882 -30.803959
v 2.197064 41.123882 -30.803959
v 11.295096 18.504395 -47.275188
v -6.349348 18.645868 -41.010010
v 9.837376 10.208799 -50.221241
v 20.270353 -0.653276 -45.857574
v 20.483232 -2.794631 -45.560375
v 20.270353 -0.653276 -45.857574
v 20.633888 -0.790373 -45.626858
v 20.483232 -2.794631 -45.560375
v 11.295096 18.504395 -47.275188
v 13.962541 14.364761 -48.472946
v 9.837376 10.208799 -50.221241
v 9.837376 10.208799 -50.221241
v 13.962541 14.364761 -48.472946
v 20.270353 -0.653276 -45.857574
v 37.393574 34.824245 -5.970982
v 31.125574 20.182158 -33.981838
v 36.754658 36.120396 -6.445516
v 43.344051 -2.724632 -22.579582
v 31.125574 20.182158 -33.981838
v 37.393574 34.824245 -5.970982
v 36.754658 36.120396 -6.445516
v 31.125574 20.182158 -33.981838
v 36.348553 36.624249 -6.832559
v 36.348553 36.624249 -6.832559
v 31.125574 20.182158 -33.981838
v 12.701544 39.983727 -27.044363
v 12.701544 39.983727 -27.044363
v 31.125574 20.182158 -33.981838
v 11.620590 38.663811 -29.511147
v 11.620590 38.663811 -29.511147
v 31.125574 20.182158 -33.981838
v 11.295096 18.504395 -47.275188
v 11.295096 18.504395 -47.275188
v 31.125574 20.182158 -33.981838
v 13.962541 14.364761 -48.472946
v 20.483232 -2.794631 -45.560375
v 26.292807 1.059078 -42.180389
v 30.982986 -10.739988 -37.217110
v 20.633888 -0.790373 -45.626858
v 26.292807 1.059078 -42.180389
v 20.483232 -2.794631 -45.560375
v 20.270353 -0.653276 -45.857574
v 26.292807 1.059078 -42.180389
v 20.633888 -0.790373 -45.626858
v 13.962541 14.364761 -48.472946
v 26.292807 1.059078 -42.180389
v 20.270353 -0.653276 -45.857574
v 30.982986 -10.739988 -37.217110
v 26.292807 1.059078 -42.180389
v 33.621265 -10.927697 -34.697407
v 31.125574 20.182158 -33.981838
v 26.292807 1.059078 -42.180389
v 13.962541 14.364761 -48.472946
v 33.621265 -10.927697 -34.697407
v 30.615974 11.818464 -36.258625
v 43.344051 -2.724632 -22.579582
v 26.292807 1.059078 -42.180389
v 30.615974 11.818464 -36.258625
v 33.621265 -10.927697 -34.697407
v 43.344051 -2.724632 -22.579582
v 30.615974 11.818464 -36.258625
v 31.125574 20.182158 -33.981838
v 31.125574 20.182158 -33.981838
v 30.615974 11.818464 -36.258625
v 26.292807 1.059078 -42.180389
vn -0.265429 0.176769 0.947787
vn -0.320902 0.127144 0.938539
vn -0.550775 0.744380 0.377552
vn -0.806929 0.588625 -0.048852
vn -0.530044 0.798769 0.284644
vn 0.039082 0.849363 0.526360
vn 0.020771 0.854022 0.519821
vn 0.780192 0.026494 0.624978
vn 0.764296 0.406241 0.500819
vn 0.904913 0.417855 0.080807
vn 0.905008 0.418805 -0.074579
vn 0.587550 0.744721 0.316505
vn 0.661135 0.712777 0.234197
vn 0.183174 0.937024 0.297376
vn 0.348236 0.925078 0.151532
vn 0.161369 0.968981 0.187181
vn -0.487162 -0.373669 0.789331
vn 0.115823 -0.923214 0.366417
vn -0.421296 0.850919 -0.313762
vn 0.063710 0.961248 -0.268223
vn -0.411091 0.855854 -0.313877
vn 0.862389 -0.091483 0.497912
vn 0.770638 -0.327772 0.546518
vn 0.915837 0.274690 -0.292898
vn 0.877638 -0.077830 0.472964
vn 0.770285 -0.583696 0.256829
vn 0.784268 -0.496760 0.371690
vn 0.277564 -0.706499 0.651013
vn 0.284088 -0.704605 0.650250
vn 0.273361 -0.762820 0.585986
vn 0.440128 -0.721085 0.535093
vn -0.489315 0.743562 -0.455726
vn -0.482438 0.755260 -0.443662
vn -0.397191 0.800558 -0.448715
vn 0.116932 0.945213 -0.304793
vn -0.567001 0.547718 -0.615236
vn 0.442672 0.815376 -0.373099
vn 0.231173 0.907652 -0.350323
vn 0.050973 0.870845 -0.488907
vn 0.143930 0.901030 -0.409181
vn 0.235034 0.871438 -0.430529
vn 0.476776 0.766437 -0.430417
vn 0.398719 0.719898 -0.568129
vn 0.408042 0.718501 -0.563257
vn 0.832706 -0.328401 -0.445817
vn -0.501222 0.508477 -0.700163
vn -0.579487 0.506503 -0.638474
vn -0.836094 0.147911 -0.528270
vn -0.825611 0.170224 -0.537950
vn -0.856122 -0.444389 -0.263770
vn 0.639931 -0.328790 -0.694540
vn -0.642632 -0.128257 -0.755363
vn -0.436291 -0.706643 -0.557051
vn -0.557036 -0.662416 -0.500915
vn -0.852601 -0.447082 -0.270534
vn -0.247414 -0.508832 -0.824546
vn -0.249778 -0.627498 -0.737467
vn -0.423110 0.161060 -0.891649
vn -0.066830 -0.244138 -0.967435
vn 0.392491 -0.366948 -0.843386
vn 0.334761 -0.398369 -0.853954
vn 0.226220 -0.159239 -0.960972
vn 0.131574 -0.255796 -0.957735
vn -0.227662 -0.616668 -0.753585
vn -0.005614 -0.544666 -0.838634
vn -0.171031 -0.525362 -0.833513
vn -0.050360 -0.395862 -0.916928
vn 0.006375 -0.362548 -0.931943
vn 0.398801 0.602644 -0.691214
vn -0.300470 0.421268 -0.855717
vn -0.308713 0.366023 -0.877908
vn -0.053177 0.573757 -0.817298
vn -0.289214 0.484755 -0.825450
vn 0.290493 -0.103152 -0.951301
vn 0.516463 -0.067138 -0.853674
vn 0.075717 0.321855 -0.943756
vn 0.388077 0.002499 -0.921623
vn 0.883085 0.304653 -0.356859
vn 0.886937 0.297017 -0.353729
vn 0.839917 0.377316 -0.390093
vn 0.532644 0.674632 -0.511040
vn 0.493455 0.658290 -0.568469
vn 0.410187 0.599211 -0.687527
vn 0.451160 0.503843 -0.736612
vn 0.558723 -0.122920 -0.820194
vn 0.535101 -0.068153 -0.842035
vn 0.527256 -0.030898 -0.849145
vn 0.506925 0.063206 -0.859670
vn 0.689209 -0.030553 -0.723919
vn 0.596982 0.183918 -0.780889
vn 0.759921 0.055954 -0.647603
vn 0.756082 0.055134 -0.652151
vn 0.786151 0.117286 -0.606804
vn 0.623042 0.169885 -0.763517
f 1//1 2//1 3//1
f 4//2 5//2 6//2
f 7//3 8//3 9//3
f 10//4 11//4 12//4
f 13//5 14//5 15//5
f 16//6 17//6 18//6
f 19//7 20//7 21//7
f 22//8 23//8 24//8
f 25//9 26//9 27//9
f 28//10 29//10 30//10
f 31//11 32//11 33//11
f 34//12 35//12 36//12
f 37//13 38//13 39//13
f 40//14 41//14 42//14
f 43//15 44//15 45//15
f 46//16 47//16 48//16
f 49//17 50//17 51//17
f 52//18 53//18 54//18
f 55//19 56//19 57//19
f 58//20 59//20 60//20
f 61//21 62//21 63//21
f 64//22 65//22 66//22
f 67//23 68//23 69//23
f 70//24 71//24 72//24
f 73//25 74//25 75//25
f 76//26 77//26 78//26
f 79//27 80//27 81//27
f 82//28 83//28 84//28
f 85//29 86//29 87//29
f 88//30 89//30 90//30
f 91//31 92//31 93//31
f 94//32 95//32 96//32
f 97//33 98//33 99//33
f 100//34 101//34 102//34
f 103//35 104//35 105//35
f 106//36 107//36 108//36
f 109//37 110//37 111//37
f 112//38 113//38 114//38
f 115//39 116//39 117//39
f 118//40 119//40 120//40
f 121//41 122//41 123//41
f 124//42 125//42 126//42
f 127//43 128//43 129//43
f 130//44 131//44 132//44
f 133//45 134//45 135//45
f 136//46 137//46 138//46
f 139//47 140//47 141//47
f 142//48 143//48 144//48
f 145//49 146//49 147//49
f 148//50 149//50 150//50
f 151//51 152//51 153//51
f 154//52 155//52 156//52
f 157//53 158//53 159//53
f 160//54 161//54 162//54
f 163//55 164//55 165//55
f 166//56 167//56 168//56
f 169//57 170//57 171//57
f 172//58 173//58 174//58
f 175//59 176//59 177//59
f 178//60 179//60 180//60
f 181//61 182//61 183//61
f 184//62 185//62 186//62
f 187//63 188//63 189//63
f 190//64 191//64 192//64
f 193//65 194//65 195//65
f 196//66 197//66 198//66
f 199//67 200//67 201//67
f 202//68 203//68 204//68
f 205//69 206//69 207//69
f 208//70 209//70 210//70
f 211//71 212//71 213//71
f 214//72 215//72 216//72
f 217//73 218//73 219//73
f 220//74 221//74 222//74
f 223//75 224//75 225//75
f 226//76 227//76 228//76
f 229//77 230//77 231//77
f 232//78 233//78 234//78
f 235//79 236//79 237//79
f 238//80 239//80 240//80
f 241//81 242//81 243//81
f 244//82 245//82 246//82
f 247//83 248//83 249//83
f 250//84 251//84 252//84
f 253//85 254//85 255//85
f 256//86 257//86 258//86
f 259//87 260//87 261//87
f 262//88 263//88 264//88
f 265//89 266//89 267//89
f 268//90 269//90 270//90
f 271//91 272//91 273//91
f 274//92 275//92 276//92
f 277//93 278//93 279//93
f 280//94 281//94 282//94
