o
v -22.822723 -233.686905 -39.655014
v 29.478016 -248.881134 50.380547
v -71.963455 -244.158005 46.888920
v -22.822723 -233.686905 -39.655014
v 14.571852 -179.685577 -93.717819
v 29.478016 -248.881134 50.380547
v -22.822723 -233.686905 -39.655014
v 14.502221 -179.674759 -93.692024
v 14.571852 -179.685577 -93.717819
v -22.822723 -233.686905 -39.655014
v -71.963455 -244.158005 46.888920
v -148.230255 -145.954346 77.776443
v 14.571852 -179.685577 -93.717819
v 42.236996 -129.440186 -113.749229
v 29.478016 -248.881134 50.380547
v 14.502221 -179.674759 -93.692024
v 42.236996 -129.440186 -113.749229
v 14.571852 -179.685577 -93.717819
v -148.230255 -145.954346 77.776443
v -59.430614 22.099792 191.136948
v -61.966286 27.941458 191.952682
v 29.478016 -248.881134 50.380547
v 46.560101 -202.830261 127.629623
v -71.963455 -244.158005 46.888920
v -22.822723 -233.686905 -39.655014
v -7.968867 -141.859009 -82.752731
v 14.502221 -179.674759 -93.692024
v -22.822723 -233.686905 -39.655014
v -148.230255 -145.954346 77.776443
v -7.968867 -141.859009 -82.752731
v 14.502221 -179.674759 -93.692024
v -7.968867 -141.859009 -82.752731
v 42.236996 -129.440186 -113.749229
v 42.236996 -129.440186 -113.749229
v 146.451523 -13.576290 7.537051
v 146.640228 -14.154815 7.421315
v 146.565491 -13.922380 7.478261
v 146.640228 -14.154815 7.421315
v 146.451523 -13.576290 7.537051
v 42.236996 -129.440186 -113.749229
v 146.640228 -14.154815 7.421315
v 146.892792 -16.291887 7.278267
v -7.968867 -141.859009 -82.752731
v -11.448704 -136.984283 -79.235428
v 42.236996 -129.440186 -113.749229
v -148.230255 -145.954346 77.776443
v -11.448704 -136.984283 -79.235428
v -7.968867 -141.859009 -82.752731
v -59.430614 22.099792 191.136948
v 54.905037 -20.690424 199.548660
v -61.966286 27.941458 191.952682
v -61.966286 27.941458 191.952682
v 54.905037 -20.690424 199.548660
v 146.451523 -13.576290 7.537051
v 146.565491 -13.922380 7.478261
v 146.451523 -13.576290 7.537051
v 54.905037 -20.690424 199.548660
v 146.565491 -13.922380 7.478261
v 54.905037 -20.690424 199.548660
v 146.640228 -14.154815 7.421315
v 146.640228 -14.154815 7.421315
v 54.905037 -20.690424 199.548660
v 146.892792 -16.291887 7.278267
v -71.963455 -244.158005 46.888920
v -16.211367 -188.626099 123.139740
v -148.230255 -145.954346 77.776443
v 46.560101 -202.830261 127.629623
v -16.211367 -188.626099 123.139740
v -71.963455 -244.158005 46.888920
v -148.230255 -145.954346 77.776443
v -13.199020 -185.534027 125.915451
v -59.430614 22.099792 191.136948
v -16.211367 -188.626099 123.139740
v -13.199020 -185.534027 125.915451
v -148.230255 -145.954346 77.776443
v -59.430614 22.099792 191.136948
v -13.199020 -185.534027 125.915451
v 54.905037 -20.690424 199.548660
v 54.905037 -20.690424 199.548660
v -13.199020 -185.534027 125.915451
v 46.560101 -202.830261 127.629623
v 46.560101 -202.830261 127.629623
v -13.199020 -185.534027 125.915451
v -16.211367 -188.626099 123.139740
v -148.230255 -145.954346 77.776443
v -61.966286 27.941458 191.952682
v -41.760437 34.183834 125.889725
v -61.966286 27.941458 191.952682
v 146.451523 -13.576290 7.537051
v -41.760437 34.183834 125.889725
v 42.236996 -129.440186 -113.749229
v 43.292076 -10.743899 -53.678741
v 146.451523 -13.576290 7.537051
v 29.478016 -248.881134 50.380547
v 116.596252 -126.217484 89.601364
v 46.560101 -202.830261 127.629623
v 54.905037 -20.690424 199.548660
v 116.596252 -126.217484 89.601364
v 146.892792 -16.291887 7.278267
v 54.905037 -20.690424 199.548660
v 46.560101 -202.830261 127.629623
v 116.596252 -126.217484 89.601364
v -11.448704 -136.984283 -79.235428
v 37.359707 -42.370029 -65.814697
v 42.236996 -129.440186 -113.749229
v 42.236996 -129.440186 -113.749229
v 37.359707 -42.370029 -65.814697
v 43.292076 -10.743899 -53.678741
v 43.292076 -10.743899 -53.678741
v 37.359707 -42.370029 -65.814697
v -11.448704 -136.984283 -79.235428
v -148.230255 -145.954346 77.776443
v -41.760437 34.183834 125.889725
v -16.526979 33.666481 56.250019
v 146.451523 -13.576290 7.537051
v -16.526979 33.666481 56.250019
v -41.760437 34.183834 125.889725
v 42.236996 -129.440186 -113.749229
v 99.390175 -115.495590 18.279459
v 29.478016 -248.881134 50.380547
v 29.478016 -248.881134 50.380547
v 99.390175 -115.495590 18.279459
v 116.596252 -126.217484 89.601364
v 42.236996 -129.440186 -113.749229
v 146.892792 -16.291887 7.278267
v 99.390175 -115.495590 18.279459
v 116.596252 -126.217484 89.601364
v 99.390175 -115.495590 18.279459
v 146.892792 -16.291887 7.278267
v -148.230255 -145.954346 77.776443
v 12.321211 11.893042 -10.630150
v -11.448704 -136.984283 -79.235428
v 43.292076 -10.743899 -53.678741
v -11.448704 -136.984283 -79.235428
v 12.321211 11.893042 -10.630150
v -148.230255 -145.954346 77.776443
v -16.526979 33.666481 56.250019
v 12.321211 11.893042 -10.630150
v 43.292076 -10.743899 -53.678741
v 12.321211 11.893042 -10.630150
v 146.451523 -13.576290 7.537051
v 146.451523 -13.576290 7.537051
v 12.321211 11.893042 -10.630150
v -16.526979 33.666481 56.250019
vn -0.041120 -0.988869 -0.142993
vn 0.496590 -0.761289 -0.416938
vn -0.366672 -0.519061 -0.772093
vn -0.758464 -0.436954 -0.483533
vn 0.757501 -0.554468 -0.344613
vn -0.365013 -0.164358 -0.916380
vn -0.460913 -0.315875 0.829327
vn -0.057581 -0.851877 0.520567
vn -0.692263 -0.211797 -0.689866
vn -0.737643 -0.185390 -0.649241
vn -0.514045 -0.057892 -0.855807
vn 0.536494 0.330349 -0.776559
vn 0.940320 0.326143 -0.097100
vn 0.687202 0.129068 -0.714909
vn -0.549646 0.193938 -0.812575
vn -0.750842 -0.061498 -0.657613
vn -0.145612 -0.198547 0.969214
vn 0.364316 0.907902 0.207335
vn 0.878070 0.216672 0.426670
vn 0.885347 0.179612 0.428837
vn 0.898686 0.077310 0.431726
vn -0.425086 -0.555021 0.715020
vn -0.208981 -0.711455 0.670938
vn -0.404501 -0.354834 0.842895
vn -0.405106 -0.359830 0.840483
vn -0.192477 -0.332830 0.923134
vn -0.130403 -0.358952 0.924202
vn -0.183085 -0.551938 0.813538
vn -0.819223 0.537555 -0.199771
vn 0.354595 0.914488 0.194867
vn 0.477126 0.393460 -0.785837
vn 0.769975 -0.608373 0.192408
vn 0.898818 0.075614 0.431751
vn 0.684440 -0.294674 0.666865
vn -0.536947 0.383573 -0.751371
vn -0.520413 0.389265 -0.760028
vn -0.546862 0.387388 -0.742208
vn -0.788107 0.543157 -0.289600
vn 0.305356 0.946585 0.103612
vn 0.813519 -0.498476 -0.299512
vn 0.823350 -0.497343 -0.273395
vn 0.840968 -0.437930 -0.317789
vn 0.855660 -0.439949 -0.272562
vn -0.706337 0.386163 -0.593267
vn -0.626890 0.406402 -0.664715
vn -0.735982 0.482763 -0.474627
vn 0.218804 0.919639 -0.326173
vn 0.210599 0.952656 -0.219306
f 1//1 2//1 3//1
f 4//2 5//2 6//2
f 7//3 8//3 9//3
f 10//4 11//4 12//4
f 13//5 14//5 15//5
f 16//6 17//6 18//6
f 19//7 20//7 21//7
f 22//8 23//8 24//8
f 25//9 26//9 27//9
f 28//10 29//10 30//10
f 31//11 32//11 33//11
f 34//12 35//12 36//12
f 37//13 38//13 39//13
f 40//14 41//14 42//14
f 43//15 44//15 45//15
f 46//16 47//16 48//16
f 49//17 50//17 51//17
f 52//18 53//18 54//18
f 55//19 56//19 57//19
f 58//20 59//20 60//20
f 61//21 62//21 63//21
f 64//22 65//22 66//22
f 67//23 68//23 69//23
f 70//24 71//24 72//24
f 73//25 74//25 75//25
f 76//26 77//26 78//26
f 79//27 80//27 81//27
f 82//28 83//28 84//28
f 85//29 86//29 87//29
f 88//30 89//30 90//30
f 91//31 92//31 93//31
f 94//32 95//32 96//32
f 97//33 98//33 99//33
f 100//34 101//34 102//34
f 103//35 104//35 105//35
f 106//36 107//36 108//36
f 109//37 110//37 111//37
f 112//38 113//38 114//38
f 115//39 116//39 117//39
f 118//40 119//40 120//40
f 121//41 122//41 123//41
f 124//42 125//42 126//42
f 127//43 128//43 129//43
f 130//44 131//44 132//44
f 133//45 134//45 135//45
f 136//46 137//46 138//46
f 139//47 140//47 141//47
f 142//48 143//48 144//48
