o
v 35.236565 -7.899059 -23.976276
v 35.291515 -7.885826 -23.765110
v 36.106773 -8.438324 -23.400837
v 36.106773 -8.438324 -23.400837
v 35.291515 -7.885826 -23.765110
v 36.265366 -8.518663 -23.146448
v 35.236565 -7.899059 -23.976276
v 4.505124 9.416911 -25.903847
v 35.291515 -7.885826 -23.765110
v 35.236565 -7.899059 -23.976276
v 36.106773 -8.438324 -23.400837
v 0.181153 -34.114529 -34.408764
v 35.236565 -7.899059 -23.976276
v 0.181153 -34.114529 -34.408764
v 4.505124 9.416911 -25.903847
v 35.291515 -7.885826 -23.765110
v 20.600250 7.695005 9.977299
v 36.265366 -8.518663 -23.146448
v 29.290304 -2.715258 1.507410
v 36.265366 -8.518663 -23.146448
v 20.600250 7.695005 9.977299
v 4.505124 9.416911 -25.903847
v 20.600250 7.695005 9.977299
v 35.291515 -7.885826 -23.765110
v 0.181153 -34.114529 -34.408764
v -18.904202 -15.726937 -25.113537
v 4.505124 9.416911 -25.903847
v 4.505124 9.416911 -25.903847
v -18.904202 -15.726937 -25.113537
v -42.076653 -7.211153 -13.157325
v 0.181153 -34.114529 -34.408764
v -42.076653 -7.211153 -13.157325
v -18.904202 -15.726937 -25.113537
v 4.505124 9.416911 -25.903847
v -23.300528 6.498382 -4.769315
v -26.683605 16.361261 31.356447
v -42.076653 -7.211153 -13.157325
v -26.683605 16.361261 31.356447
v -23.300528 6.498382 -4.769315
v 4.505124 9.416911 -25.903847
v -42.076653 -7.211153 -13.157325
v -23.300528 6.498382 -4.769315
v 36.106773 -8.438324 -23.400837
v 36.265366 -8.518663 -23.146448
v 18.598923 -43.647320 -10.137839
v 36.106773 -8.438324 -23.400837
v 18.598923 -43.647320 -10.137839
v 0.181153 -34.114529 -34.408764
v 0.181153 -34.114529 -34.408764
v 18.598923 -43.647320 -10.137839
v 3.069105 -45.288788 -18.028095
v 4.505124 9.416911 -25.903847
v 3.683395 13.284258 19.808718
v 20.600250 7.695005 9.977299
v 4.505124 9.416911 -25.903847
v -26.683605 16.361261 31.356447
v 3.683395 13.284258 19.808718
v -26.683605 16.361261 31.356447
v -2.439670 4.660694 47.323635
v -2.203300 4.923287 47.199165
v 3.683395 13.284258 19.808718
v 7.006610 6.517038 40.650074
v 20.600250 7.695005 9.977299
v -26.683605 16.361261 31.356447
v 7.006610 6.517038 40.650074
v 3.683395 13.284258 19.808718
v -26.683605 16.361261 31.356447
v -2.203300 4.923287 47.199165
v 7.006610 6.517038 40.650074
v -26.683605 16.361261 31.356447
v -3.289722 3.373776 47.935966
v -2.439670 4.660694 47.323635
v -2.439670 4.660694 47.323635
v -3.289722 3.373776 47.935966
v -2.203300 4.923287 47.199165
v -2.203300 4.923287 47.199165
v -3.289722 3.373776 47.935966
v -2.169269 4.008718 47.482437
v -2.420302 3.552961 47.656483
v -2.169269 4.008718 47.482437
v -3.289722 3.373776 47.935966
v -42.076653 -7.211153 -13.157325
v -40.636909 -4.718280 14.092845
v -26.683605 16.361261 31.356447
v -34.013069 4.036704 33.393173
v -26.683605 16.361261 31.356447
v -40.636909 -4.718280 14.092845
v 0.181153 -34.114529 -34.408764
v -15.399906 -40.464573 -15.348758
v -42.076653 -7.211153 -13.157325
v 29.290304 -2.715258 1.507410
v 26.861580 -8.554281 32.070751
v 36.265366 -8.518663 -23.146448
v 29.290304 -2.715258 1.507410
v 20.600250 7.695005 9.977299
v 26.861580 -8.554281 32.070751
v 7.006610 6.517038 40.650074
v 26.861580 -8.554281 32.070751
v 20.600250 7.695005 9.977299
v -42.076653 -7.211153 -13.157325
v -37.660576 -33.036469 1.285190
v -40.636909 -4.718280 14.092845
v -15.399906 -40.464573 -15.348758
v -37.660576 -33.036469 1.285190
v -42.076653 -7.211153 -13.157325
v -2.203300 4.923287 47.199165
v 8.927591 -0.134136 42.219021
v 7.006610 6.517038 40.650074
v -2.203300 4.923287 47.199165
v -2.169269 4.008718 47.482437
v 8.927591 -0.134136 42.219021
v 7.006610 6.517038 40.650074
v 8.927591 -0.134136 42.219021
v 26.861580 -8.554281 32.070751
v 0.181153 -34.114529 -34.408764
v 3.069105 -45.288788 -18.028095
v -16.912264 -47.659210 -3.149079
v 0.181153 -34.114529 -34.408764
v -16.912264 -47.659210 -3.149079
v -15.399906 -40.464573 -15.348758
v 18.598923 -43.647320 -10.137839
v 0.950321 -50.239605 0.308726
v 3.069105 -45.288788 -18.028095
v -26.683605 16.361261 31.356447
v -15.104237 -2.417141 46.144470
v -3.289722 3.373776 47.935966
v -34.013069 4.036704 33.393173
v -15.104237 -2.417141 46.144470
v -26.683605 16.361261 31.356447
v 18.598923 -43.647320 -10.137839
v 2.162259 -49.995228 1.076448
v 0.950321 -50.239605 0.308726
v -15.399906 -40.464573 -15.348758
v -20.032228 -47.398926 0.137641
v -37.660576 -33.036469 1.285190
v -16.912264 -47.659210 -3.149079
v -20.032228 -47.398926 0.137641
v -15.399906 -40.464573 -15.348758
v 3.069105 -45.288788 -18.028095
v -12.749943 -48.920273 -0.748529
v -16.912264 -47.659210 -3.149079
v 0.950321 -50.239605 0.308726
v -12.749943 -48.920273 -0.748529
v 3.069105 -45.288788 -18.028095
v -20.032228 -47.398926 0.137641
v -18.183567 -50.318947 7.021911
v -37.660576 -33.036469 1.285190
v -16.912264 -47.659210 -3.149079
v -18.183567 -50.318947 7.021911
v -20.032228 -47.398926 0.137641
v 0.950321 -50.239605 0.308726
v -16.301516 -50.625420 6.856943
v -12.749943 -48.920273 -0.748529
v -12.749943 -48.920273 -0.748529
v -16.301516 -50.625420 6.856943
v -16.912264 -47.659210 -3.149079
v -16.912264 -47.659210 -3.149079
v -16.301516 -50.625420 6.856943
v -18.183567 -50.318947 7.021911
v 18.598923 -43.647320 -10.137839
v 4.138995 -49.614033 3.228099
v 2.162259 -49.995228 1.076448
v 36.265366 -8.518663 -23.146448
v 29.103556 -20.746973 19.388176
v 18.598923 -43.647320 -10.137839
v 26.861580 -8.554281 32.070751
v 29.103556 -20.746973 19.388176
v 36.265366 -8.518663 -23.146448
v -16.301516 -50.625420 6.856943
v -0.272571 -51.580643 10.444532
v -18.183567 -50.318947 7.021911
v 2.162259 -49.995228 1.076448
v -0.272571 -51.580643 10.444532
v 0.950321 -50.239605 0.308726
v 4.138995 -49.614033 3.228099
v -0.272571 -51.580643 10.444532
v 2.162259 -49.995228 1.076448
v 18.598923 -43.647320 -10.137839
v -0.272571 -51.580643 10.444532
v 4.138995 -49.614033 3.228099
v 0.950321 -50.239605 0.308726
v -0.272571 -51.580643 10.444532
v -16.301516 -50.625420 6.856943
v -18.183567 -50.318947 7.021911
v -20.593889 -47.795601 7.905327
v -37.660576 -33.036469 1.285190
v -3.289722 3.373776 47.935966
v -2.250722 -7.594108 47.372837
v -0.115873 -7.617376 47.153870
v -34.013069 4.036704 33.393173
v -18.700966 -11.924861 46.480885
v -15.104237 -2.417141 46.144470
v -15.104237 -2.417141 46.144470
v -15.277437 -13.166927 48.025181
v -3.289722 3.373776 47.935966
v -18.700966 -11.924861 46.480885
v -15.277437 -13.166927 48.025181
v -15.104237 -2.417141 46.144470
v -2.420302 3.552961 47.656483
v -3.289722 3.373776 47.935966
v 4.266455 -10.417608 46.310757
v -3.289722 3.373776 47.935966
v -0.115873 -7.617376 47.153870
v 4.266455 -10.417608 46.310757
v -2.420302 3.552961 47.656483
v 4.266455 -10.417608 46.310757
v -2.169269 4.008718 47.482437
v -2.169269 4.008718 47.482437
v 4.266455 -10.417608 46.310757
v 8.927591 -0.134136 42.219021
v 8.927591 -0.134136 42.219021
v 4.266455 -10.417608 46.310757
v 26.861580 -8.554281 32.070751
v -34.013069 4.036704 33.393173
v -40.636909 -4.718280 14.092845
v -31.173143 -17.332302 36.682312
v -34.013069 4.036704 33.393173
v -31.173143 -17.332302 36.682312
v -18.700966 -11.924861 46.480885
v -3.289722 3.373776 47.935966
v -13.425226 -12.985117 48.049053
v -2.250722 -7.594108 47.372837
v -15.277437 -13.166927 48.025181
v -13.425226 -12.985117 48.049053
v -3.289722 3.373776 47.935966
v -2.250722 -7.594108 47.372837
v -13.425226 -12.985117 48.049053
v -0.115873 -7.617376 47.153870
v -37.660576 -33.036469 1.285190
v -31.695484 -17.384136 34.944786
v -40.636909 -4.718280 14.092845
v -40.636909 -4.718280 14.092845
v -31.695484 -17.384136 34.944786
v -31.173143 -17.332302 36.682312
v -31.173143 -17.332302 36.682312
v -31.695484 -17.384136 34.944786
v -37.660576 -33.036469 1.285190
v 18.598923 -43.647320 -10.137839
v 7.691439 -46.801624 16.370533
v -0.272571 -51.580643 10.444532
v 29.103556 -20.746973 19.388176
v 21.104258 -35.828186 18.724789
v 18.598923 -43.647320 -10.137839
v 26.861580 -8.554281 32.070751
v 21.104258 -35.828186 18.724789
v 29.103556 -20.746973 19.388176
v 21.104258 -35.828186 18.724789
v 20.894413 -35.980488 18.892828
v 18.598923 -43.647320 -10.137839
v 26.861580 -8.554281 32.070751
v 20.894413 -35.980488 18.892828
v 21.104258 -35.828186 18.724789
v 18.598923 -43.647320 -10.137839
v 8.949443 -45.846935 17.394787
v 7.691439 -46.801624 16.370533
v 20.894413 -35.980488 18.892828
v 8.949443 -45.846935 17.394787
v 18.598923 -43.647320 -10.137839
v -0.115873 -7.617376 47.153870
v -10.961284 -13.994908 47.695766
v 4.266455 -10.417608 46.310757
v -13.425226 -12.985117 48.049053
v -10.961284 -13.994908 47.695766
v -0.115873 -7.617376 47.153870
v 20.894413 -35.980488 18.892828
v 9.727846 -45.014080 18.330681
v 8.949443 -45.846935 17.394787
v -18.700966 -11.924861 46.480885
v -22.007263 -16.787354 43.188286
v -15.277437 -13.166927 48.025181
v -31.173143 -17.332302 36.682312
v -22.007263 -16.787354 43.188286
v -18.700966 -11.924861 46.480885
v 7.691439 -46.801624 16.370533
v 6.991941 -45.114090 23.244343
v -0.272571 -51.580643 10.444532
v 8.949443 -45.846935 17.394787
v 6.991941 -45.114090 23.244343
v 7.691439 -46.801624 16.370533
v 9.727846 -45.014080 18.330681
v 6.991941 -45.114090 23.244343
v 8.949443 -45.846935 17.394787
v 20.894413 -35.980488 18.892828
v 10.815881 -42.375572 23.038383
v 9.727846 -45.014080 18.330681
v -22.007263 -16.787354 43.188286
v -15.937972 -19.088816 45.730377
v -15.277437 -13.166927 48.025181
v -31.173143 -17.332302 36.682312
v -15.937972 -19.088816 45.730377
v -22.007263 -16.787354 43.188286
v 9.727846 -45.014080 18.330681
v 10.173182 -42.006512 25.229479
v 6.991941 -45.114090 23.244343
v 10.815881 -42.375572 23.038383
v 10.173182 -42.006512 25.229479
v 9.727846 -45.014080 18.330681
v 26.861580 -8.554281 32.070751
v 10.173182 -42.006512 25.229479
v 20.894413 -35.980488 18.892828
v 20.894413 -35.980488 18.892828
v 10.173182 -42.006512 25.229479
v 10.815881 -42.375572 23.038383
v -15.277437 -13.166927 48.025181
v -9.426703 -19.821638 46.145214
v -13.425226 -12.985117 48.049053
v -13.425226 -12.985117 48.049053
v -9.426703 -19.821638 46.145214
v -10.961284 -13.994908 47.695766
v -10.961284 -13.994908 47.695766
v -9.426703 -19.821638 46.145214
v 4.266455 -10.417608 46.310757
v -15.937972 -19.088816 45.730377
v -9.426703 -19.821638 46.145214
v -15.277437 -13.166927 48.025181
v -15.937972 -19.088816 45.730377
v -9.435925 -20.727537 45.759903
v -9.426703 -19.821638 46.145214
v -20.593889 -47.795601 7.905327
v -28.239555 -34.061577 22.924831
v -37.660576 -33.036469 1.285190
v -31.173143 -17.332302 36.682312
v -37.660576 -33.036469 1.285190
v -28.239555 -34.061577 22.924831
v -18.183567 -50.318947 7.021911
v -28.239555 -34.061577 22.924831
v -20.593889 -47.795601 7.905327
v -15.937972 -19.088816 45.730377
v -12.438951 -22.804804 43.936756
v -9.435925 -20.727537 45.759903
v -15.937972 -19.088816 45.730377
v -14.258195 -23.759439 42.848995
v -12.438951 -22.804804 43.936756
v -0.272571 -51.580643 10.444532
v -16.592138 -38.005116 30.603455
v -18.183567 -50.318947 7.021911
v 6.991941 -45.114090 23.244343
v -16.592138 -38.005116 30.603455
v -0.272571 -51.580643 10.444532
v -18.183567 -50.318947 7.021911
v -16.592138 -38.005116 30.603455
v -28.239555 -34.061577 22.924831
v -31.173143 -17.332302 36.682312
v -17.492926 -36.305180 32.354431
v -15.937972 -19.088816 45.730377
v -31.173143 -17.332302 36.682312
v -28.239555 -34.061577 22.924831
v -17.492926 -36.305180 32.354431
v -16.592138 -38.005116 30.603455
v -17.492926 -36.305180 32.354431
v -28.239555 -34.061577 22.924831
v -15.937972 -19.088816 45.730377
v -17.492926 -36.305180 32.354431
v -14.258195 -23.759439 42.848995
v -9.426703 -19.821638 46.145214
v -2.739026 -29.800320 41.063854
v 4.266455 -10.417608 46.310757
v -9.435925 -20.727537 45.759903
v -2.739026 -29.800320 41.063854
v -9.426703 -19.821638 46.145214
v -12.438951 -22.804804 43.936756
v -2.739026 -29.800320 41.063854
v -9.435925 -20.727537 45.759903
v 10.173182 -42.006512 25.229479
v -3.437010 -32.760319 39.002472
v 6.991941 -45.114090 23.244343
v -2.739026 -29.800320 41.063854
v -3.437010 -32.760319 39.002472
v 10.173182 -42.006512 25.229479
v -12.438951 -22.804804 43.936756
v -3.437010 -32.760319 39.002472
v -2.739026 -29.800320 41.063854
v 4.266455 -10.417608 46.310757
v 7.377844 -26.526142 37.324902
v 26.861580 -8.554281 32.070751
v -2.739026 -29.800320 41.063854
v 7.377844 -26.526142 37.324902
v 4.266455 -10.417608 46.310757
v 26.861580 -8.554281 32.070751
v 7.377844 -26.526142 37.324902
v 10.173182 -42.006512 25.229479
v -2.739026 -29.800320 41.063854
v 10.173182 -42.006512 25.229479
v 7.377844 -26.526142 37.324902
v -14.258195 -23.759439 42.848995
v -6.125764 -33.359779 37.968773
v -12.438951 -22.804804 43.936756
v -12.438951 -22.804804 43.936756
v -6.125764 -33.359779 37.968773
v -3.437010 -32.760319 39.002472
v -17.492926 -36.305180 32.354431
v -6.125764 -33.359779 37.968773
v -14.258195 -23.759439 42.848995
v 6.991941 -45.114090 23.244343
v -6.125764 -33.359779 37.968773
v -16.592138 -38.005116 30.603455
v -3.437010 -32.760319 39.002472
v -6.125764 -33.359779 37.968773
v 6.991941 -45.114090 23.244343
v -16.592138 -38.005116 30.603455
v -6.125764 -33.359779 37.968773
v -17.492926 -36.305180 32.354431
vn 0.610516 0.764533 -0.206783
vn 0.592638 0.796805 -0.117824
vn 0.491371 0.851882 -0.181252
vn 0.432581 -0.231708 -0.871312
vn 0.159036 0.174069 -0.971806
vn 0.590494 0.799239 -0.111957
vn 0.797931 0.596684 0.085294
vn 0.491435 0.852206 -0.179545
vn -0.257240 0.209846 -0.943288
vn -0.349267 0.297242 -0.888628
vn -0.470483 -0.042789 -0.881371
vn -0.306356 0.910631 -0.277305
vn -0.485101 0.830981 -0.272299
vn -0.404904 0.811881 -0.420597
vn 0.635615 -0.528164 -0.563060
vn 0.568078 -0.522113 -0.636149
vn 0.366303 -0.737350 -0.567572
vn 0.272576 0.959109 -0.076242
vn 0.069225 0.994154 -0.082862
vn -0.233787 0.580243 0.780168
vn 0.418658 0.881246 0.219386
vn 0.199426 0.940909 0.273715
vn 0.145127 0.894960 0.421883
vn -0.258545 0.548975 0.794846
vn -0.006806 0.433307 0.901221
vn 0.209221 0.296413 0.931862
vn 0.257794 0.217510 0.941399
vn -0.831222 0.555897 -0.006937
vn -0.853768 0.517377 0.058320
vn -0.612808 -0.448744 -0.650458
vn 0.892029 0.425585 0.152192
vn 0.820059 0.546574 0.169587
vn 0.656539 0.684332 0.317248
vn -0.989008 -0.133087 0.064428
vn -0.624902 -0.459730 -0.630988
vn 0.507194 0.333906 0.794519
vn 0.493750 0.273997 0.825310
vn 0.579249 0.341857 0.740003
vn -0.280563 -0.815224 -0.506650
vn -0.298049 -0.805595 -0.512039
vn 0.217555 -0.948341 -0.230908
vn -0.342328 0.441892 0.829182
vn -0.421467 0.386238 0.820479
vn 0.276470 -0.951705 -0.133498
vn -0.575295 -0.668448 -0.471395
vn -0.554931 -0.684647 -0.472557
vn -0.112607 -0.946623 -0.302032
vn -0.071866 -0.960814 -0.267717
vn -0.630129 -0.761140 -0.153633
vn -0.366927 -0.887736 -0.278008
vn -0.073600 -0.965243 -0.250777
vn -0.130350 -0.952720 -0.274470
vn -0.177751 -0.946396 -0.269702
vn 0.295976 -0.949551 -0.103689
vn 0.896653 -0.442090 0.023878
vn 0.985784 0.006631 0.167889
vn -0.125978 -0.941648 0.312135
vn 0.255130 -0.962078 -0.096508
vn 0.280866 -0.955637 -0.088729
vn 0.346325 -0.937098 -0.043660
vn -0.028915 -0.990487 -0.134537
vn -0.681666 -0.711237 0.171678
vn 0.101499 -0.041419 0.993973
vn -0.493922 0.216644 0.842085
vn -0.229269 0.171328 0.958166
vn -0.354552 0.166680 0.920060
vn 0.296310 0.049949 0.953785
vn 0.177278 -0.018826 0.983981
vn 0.418572 0.113547 0.901058
vn 0.465747 0.136766 0.874285
vn 0.524745 0.098584 0.845532
vn -0.933380 -0.069862 0.352025
vn -0.627090 0.036425 0.778094
vn 0.081210 -0.043432 0.995750
vn -0.014442 0.015859 0.999770
vn 0.100756 -0.084503 0.991316
vn -0.937818 -0.220006 0.268505
vn -0.938862 -0.188851 0.287878
vn -0.922161 -0.261496 0.285024
vn 0.464620 -0.881294 0.086311
vn 0.881357 -0.469717 0.050747
vn 0.739238 -0.415418 0.530052
vn 0.654321 -0.742321 0.144305
vn 0.733029 -0.417503 0.536991
vn 0.535699 -0.835697 0.120984
vn 0.617544 -0.771147 0.154826
vn 0.116631 -0.114512 0.986552
vn 0.103992 -0.092704 0.990248
vn 0.613986 -0.769811 0.174391
vn -0.472234 -0.251060 0.844964
vn -0.564478 -0.163983 0.808996
vn 0.349612 -0.901019 0.256780
vn 0.443430 -0.858971 0.256004
vn 0.526805 -0.803595 0.276967
vn 0.594302 -0.752317 0.284295
vn -0.458517 -0.276181 0.844681
vn -0.487703 -0.482563 0.727516
vn 0.564863 -0.769164 0.298858
vn 0.571793 -0.764921 0.296561
vn 0.627548 -0.443881 0.639651
vn 0.596038 -0.744700 0.300266
vn 0.013187 -0.261084 0.965226
vn 0.037249 -0.247809 0.968093
vn 0.139530 -0.220164 0.965432
vn -0.098737 -0.349971 0.931543
vn -0.102067 -0.388478 0.915788
vn -0.687550 -0.675129 0.267349
vn -0.835509 -0.428933 0.343427
vn -0.620960 -0.709670 0.332832
vn -0.138119 -0.532982 0.834777
vn -0.185693 -0.563421 0.805031
vn -0.150401 -0.872140 0.465565
vn -0.105329 -0.862257 0.495397
vn -0.527392 -0.738003 0.420963
vn -0.481936 -0.510017 0.712475
vn -0.607561 -0.565340 0.557907
vn -0.531848 -0.727790 0.432966
vn -0.274267 -0.574429 0.771239
vn 0.212939 -0.326272 0.920980
vn 0.112683 -0.389881 0.913945
vn -0.137598 -0.533513 0.834524
vn 0.235697 -0.682950 0.691394
vn 0.340070 -0.590108 0.732206
vn -0.145763 -0.542006 0.827637
vn 0.521786 -0.336503 0.783904
vn 0.425920 -0.376630 0.822643
vn 0.583740 -0.431829 0.687584
vn 0.438125 -0.502994 0.745012
vn -0.184378 -0.565004 0.804223
vn -0.183452 -0.564693 0.804653
vn -0.230122 -0.588808 0.774822
vn -0.058343 -0.804887 0.590553
vn -0.050143 -0.801842 0.595428
vn -0.130771 -0.744105 0.655139
f 1//1 2//1 3//1
f 4//2 5//2 6//2
f 7//3 8//3 9//3
f 10//4 11//4 12//4
f 13//5 14//5 15//5
f 16//6 17//6 18//6
f 19//7 20//7 21//7
f 22//8 23//8 24//8
f 25//9 26//9 27//9
f 28//10 29//10 30//10
f 31//11 32//11 33//11
f 34//12 35//12 36//12
f 37//13 38//13 39//13
f 40//14 41//14 42//14
f 43//15 44//15 45//15
f 46//16 47//16 48//16
f 49//17 50//17 51//17
f 52//18 53//18 54//18
f 55//19 56//19 57//19
f 58//20 59//20 60//20
f 61//21 62//21 63//21
f 64//22 65//22 66//22
f 67//23 68//23 69//23
f 70//24 71//24 72//24
f 73//25 74//25 75//25
f 76//26 77//26 78//26
f 79//27 80//27 81//27
f 82//28 83//28 84//28
f 85//29 86//29 87//29
f 88//30 89//30 90//30
f 91//31 92//31 93//31
f 94//32 95//32 96//32
f 97//33 98//33 99//33
f 100//34 101//34 102//34
f 103//35 104//35 105//35
f 106//36 107//36 108//36
f 109//37 110//37 111//37
f 112//38 113//38 114//38
f 115//39 116//39 117//39
f 118//40 119//40 120//40
f 121//41 122//41 123//41
f 124//42 125//42 126//42
f 127//43 128//43 129//43
f 130//44 131//44 132//44
f 133//45 134//45 135//45
f 136//46 137//46 138//46
f 139//47 140//47 141//47
f 142//48 143//48 144//48
f 145//49 146//49 147//49
f 148//50 149//50 150//50
f 151//51 152//51 153//51
f 154//52 155//52 156//52
f 157//53 158//53 159//53
f 160//54 161//54 162//54
f 163//55 164//55 165//55
f 166//56 167//56 168//56
f 169//57 170//57 171//57
f 172//58 173//58 174//58
f 175//59 176//59 177//59
f 178//60 179//60 180//60
f 181//61 182//61 183//61
f 184//62 185//62 186//62
f 187//63 188//63 189//63
f 190//64 191//64 192//64
f 193//65 194//65 195//65
f 196//66 197//66 198//66
f 199//67 200//67 201//67
f 202//68 203//68 204//68
f 205//69 206//69 207//69
f 208//70 209//70 210//70
f 211//71 212//71 213//71
f 214//72 215//72 216//72
f 217//73 218//73 219//73
f 220//74 221//74 222//74
f 223//75 224//75 225//75
f 226//76 227//76 228//76
f 229//77 230//77 231//77
f 232//78 233//78 234//78
f 235//79 236//79 237//79
f 238//80 239//80 240//80
f 241//81 242//81 243//81
f 244//82 245//82 246//82
f 247//83 248//83 249//83
f 250//84 251//84 252//84
f 253//85 254//85 255//85
f 256//86 257//86 258//86
f 259//87 260//87 261//87
f 262//88 263//88 264//88
f 265//89 266//89 267//89
f 268//90 269//90 270//90
f 271//91 272//91 273//91
f 274//92 275//92 276//92
f 277//93 278//93 279//93
f 280//94 281//94 282//94
f 283//95 284//95 285//95
f 286//96 287//96 288//96
f 289//97 290//97 291//97
f 292//98 293//98 294//98
f 295//99 296//99 297//99
f 298//100 299//100 300//100
f 301//101 302//101 303//101
f 304//102 305//102 306//102
f 307//103 308//103 309//103
f 310//104 311//104 312//104
f 313//105 314//105 315//105
f 316//106 317//106 318//106
f 319//107 320//107 321//107
f 322//108 323//108 324//108
f 325//109 326//109 327//109
f 328//110 329//110 330//110
f 331//111 332//111 333//111
f 334//112 335//112 336//112
f 337//113 338//113 339//113
f 340//114 341//114 342//114
f 343//115 344//115 345//115
f 346//116 347//116 348//116
f 349//117 350//117 351//117
f 352//118 353//118 354//118
f 355//119 356//119 357//119
f 358//120 359//120 360//120
f 361//121 362//121 363//121
f 364//122 365//122 366//122
f 367//123 368//123 369//123
f 370//124 371//124 372//124
f 373//125 374//125 375//125
f 376//126 377//126 378//126
f 379//127 380//127 381//127
f 382//128 383//128 384//128
f 385//129 386//129 387//129
f 388//130 389//130 390//130
f 391//131 392//131 393//131
f 394//132 395//132 396//132
f 397//133 398//133 399//133
f 400//134 401//134 402//134
