o
v -35.626900 171.383026 157.081482
v 61.525043 136.027222 119.775017
v -9.071790 195.585632 98.286850
v -35.626900 171.383026 157.081482
v -58.470749 201.193741 62.338943
v -36.254066 171.193405 156.461029
v -35.626900 171.383026 157.081482
v -9.071790 195.585632 98.286850
v -58.470749 201.193741 62.338943
v -9.071790 195.585632 98.286850
v -57.771576 201.148773 62.593536
v -58.470749 201.193741 62.338943
v -35.626900 171.383026 157.081482
v -36.254066 171.193405 156.461029
v -51.795223 -3.872195 232.075882
v -35.626900 171.383026 157.081482
v -51.795223 -3.872195 232.075882
v 61.525043 136.027222 119.775017
v -51.795223 -3.872195 232.075882
v -51.782944 -3.889589 232.066605
v 61.525043 136.027222 119.775017
v -57.771576 201.148773 62.593536
v -34.032402 201.625336 42.642658
v -58.470749 201.193741 62.338943
v -58.470749 201.193741 62.338943
v -34.032402 201.625336 42.642658
v -65.632561 202.981506 38.495590
v -9.071790 195.585632 98.286850
v -34.032402 201.625336 42.642658
v -57.771576 201.148773 62.593536
v -34.032402 201.625336 42.642658
v -139.001785 98.299530 -172.420029
v -65.632561 202.981506 38.495590
v 61.525043 136.027222 119.775017
v 91.370064 119.146133 34.778820
v -9.071790 195.585632 98.286850
v -9.071790 195.585632 98.286850
v 91.370064 119.146133 34.778820
v -34.032402 201.625336 42.642658
v -139.001785 98.299530 -172.420029
v -192.178391 35.537655 -114.058983
v -65.632561 202.981506 38.495590
v -139.001785 98.299530 -172.420029
v -171.404877 24.457975 -132.506149
v -192.178391 35.537655 -114.058983
v -192.178391 35.537655 -114.058983
v -171.404877 24.457975 -132.506149
v -216.358353 -74.034142 -48.450352
v -34.032402 201.625336 42.642658
v -97.875633 94.501335 -168.413193
v -139.001785 98.299530 -172.420029
v 91.370064 119.146133 34.778820
v -97.875633 94.501335 -168.413193
v -34.032402 201.625336 42.642658
v -58.470749 201.193741 62.338943
v -187.118698 -23.055635 64.956970
v -36.254066 171.193405 156.461029
v -58.470749 201.193741 62.338943
v -65.632561 202.981506 38.495590
v -187.118698 -23.055635 64.956970
v -192.178391 35.537655 -114.058983
v -187.118698 -23.055635 64.956970
v -65.632561 202.981506 38.495590
v -192.178391 35.537655 -114.058983
v -216.358353 -74.034142 -48.450352
v -187.118698 -23.055635 64.956970
v -36.254066 171.193405 156.461029
v -168.629532 -19.096050 99.992401
v -51.795223 -3.872195 232.075882
v -187.118698 -23.055635 64.956970
v -168.629532 -19.096050 99.992401
v -36.254066 171.193405 156.461029
v -216.358353 -74.034142 -48.450352
v -186.244904 -45.456139 49.305775
v -187.118698 -23.055635 64.956970
v -51.782944 -3.889589 232.066605
v 70.323799 -172.058395 64.120644
v 61.525043 136.027222 119.775017
v 61.525043 136.027222 119.775017
v 70.323799 -172.058395 64.120644
v 91.370064 119.146133 34.778820
v 91.370064 119.146133 34.778820
v 70.323799 -172.058395 64.120644
v 85.885735 -158.407181 -94.490433
v -168.629532 -19.096050 99.992401
v -153.313431 -155.330322 25.236916
v -51.795223 -3.872195 232.075882
v -187.118698 -23.055635 64.956970
v -153.313431 -155.330322 25.236916
v -168.629532 -19.096050 99.992401
v -186.244904 -45.456139 49.305775
v -153.313431 -155.330322 25.236916
v -187.118698 -23.055635 64.956970
v -216.358353 -74.034142 -48.450352
v -153.313431 -155.330322 25.236916
v -186.244904 -45.456139 49.305775
v 91.370064 119.146133 34.778820
v 30.079842 -167.403992 -158.711823
v -97.875633 94.501335 -168.413193
v 91.370064 119.146133 34.778820
v 85.885735 -158.407181 -94.490433
v 30.079842 -167.403992 -158.711823
v -97.875633 94.501335 -168.413193
v 30.079842 -167.403992 -158.711823
v -139.001785 98.299530 -172.420029
v 70.323799 -172.058395 64.120644
v 74.241722 -181.860199 -73.093361
v 85.885735 -158.407181 -94.490433
v 85.885735 -158.407181 -94.490433
v 74.241722 -181.860199 -73.093361
v 30.079842 -167.403992 -158.711823
v -171.404877 24.457975 -132.506149
v -116.307327 -59.736343 -147.936081
v -216.358353 -74.034142 -48.450352
v -139.001785 98.299530 -172.420029
v -116.307327 -59.736343 -147.936081
v -171.404877 24.457975 -132.506149
v 30.079842 -167.403992 -158.711823
v -116.307327 -59.736343 -147.936081
v -139.001785 98.299530 -172.420029
v -51.795223 -3.872195 232.075882
v -29.239883 -228.194336 39.184940
v -51.782944 -3.889589 232.066605
v -153.313431 -155.330322 25.236916
v -29.239883 -228.194336 39.184940
v -51.795223 -3.872195 232.075882
v -51.782944 -3.889589 232.066605
v -29.239883 -228.194336 39.184940
v 70.323799 -172.058395 64.120644
v 70.323799 -172.058395 64.120644
v 5.187050 -226.289703 -12.707758
v 74.241722 -181.860199 -73.093361
v -29.239883 -228.194336 39.184940
v 5.187050 -226.289703 -12.707758
v 70.323799 -172.058395 64.120644
v -116.307327 -59.736343 -147.936081
v -100.448067 -165.470734 -110.806587
v -216.358353 -74.034142 -48.450352
v 30.079842 -167.403992 -158.711823
v -100.448067 -165.470734 -110.806587
v -116.307327 -59.736343 -147.936081
v 74.241722 -181.860199 -73.093361
v -9.416560 -232.284897 -29.326271
v 30.079842 -167.403992 -158.711823
v 5.187050 -226.289703 -12.707758
v -9.416560 -232.284897 -29.326271
v 74.241722 -181.860199 -73.093361
v 30.079842 -167.403992 -158.711823
v -9.416560 -232.284897 -29.326271
v -0.605211 -185.874023 -126.304993
v -153.313431 -155.330322 25.236916
v -9.416560 -232.284897 -29.326271
v -29.239883 -228.194336 39.184940
v -29.239883 -228.194336 39.184940
v -9.416560 -232.284897 -29.326271
v 5.187050 -226.289703 -12.707758
v -100.448067 -165.470734 -110.806587
v -98.689178 -167.898788 -108.840881
v -216.358353 -74.034142 -48.450352
v 30.079842 -167.403992 -158.711823
v -18.940516 -180.908966 -127.306030
v -100.448067 -165.470734 -110.806587
v -100.448067 -165.470734 -110.806587
v -18.940516 -180.908966 -127.306030
v -98.689178 -167.898788 -108.840881
v 30.079842 -167.403992 -158.711823
v -0.605211 -185.874023 -126.304993
v -18.940516 -180.908966 -127.306030
v -216.358353 -74.034142 -48.450352
v -103.149467 -172.679169 -81.000038
v -153.313431 -155.330322 25.236916
v -98.689178 -167.898788 -108.840881
v -103.149467 -172.679169 -81.000038
v -216.358353 -74.034142 -48.450352
v -153.313431 -155.330322 25.236916
v -103.149467 -172.679169 -81.000038
v -9.416560 -232.284897 -29.326271
v -98.689178 -167.898788 -108.840881
v -9.416560 -232.284897 -29.326271
v -103.149467 -172.679169 -81.000038
v -9.416560 -232.284897 -29.326271
v -14.668739 -192.966293 -108.993980
v -0.605211 -185.874023 -126.304993
v -0.605211 -185.874023 -126.304993
v -14.668739 -192.966293 -108.993980
v -18.940516 -180.908966 -127.306030
v -18.940516 -180.908966 -127.306030
v -31.130812 -187.728897 -111.041374
v -98.689178 -167.898788 -108.840881
v -14.668739 -192.966293 -108.993980
v -25.095404 -195.500946 -100.645569
v -18.940516 -180.908966 -127.306030
v -18.940516 -180.908966 -127.306030
v -25.095404 -195.500946 -100.645569
v -31.130812 -187.728897 -111.041374
v -98.689178 -167.898788 -108.840881
v -25.095404 -195.500946 -100.645569
v -9.416560 -232.284897 -29.326271
v -31.130812 -187.728897 -111.041374
v -25.095404 -195.500946 -100.645569
v -98.689178 -167.898788 -108.840881
v -9.416560 -232.284897 -29.326271
v -25.095404 -195.500946 -100.645569
v -14.668739 -192.966293 -108.993980
vn 0.460041 0.728460 0.507650
vn -0.583332 0.723873 0.368417
vn -0.131076 0.936179 0.326173
vn 0.014890 0.990854 0.134117
vn -0.712376 0.330618 0.619042
vn 0.438698 0.319020 0.840101
vn 0.659731 0.066494 0.748555
vn 0.038681 0.996808 0.069836
vn 0.034342 0.997329 0.064464
vn 0.051412 0.995059 0.084943
vn 0.099308 0.877125 -0.469882
vn 0.631124 0.772682 0.068147
vn 0.536635 0.830266 -0.150603
vn -0.779884 0.624723 -0.038773
vn -0.687286 -0.088141 -0.721019
vn -0.712782 -0.237801 -0.659843
vn 0.126896 0.868486 -0.479196
vn 0.450617 0.733622 -0.508668
vn -0.813370 0.470609 0.341990
vn -0.829925 0.479444 0.285233
vn -0.857091 0.481956 0.181973
vn -0.952186 0.281387 0.119013
vn -0.726471 0.325824 0.605045
vn -0.809238 0.451357 0.376046
vn -0.889727 -0.284268 0.357180
vn 0.757478 -0.095047 0.645905
vn 0.940846 -0.034029 0.337121
vn 0.993782 -0.062542 0.092121
vn -0.655796 -0.418504 0.628320
vn -0.812271 -0.348125 0.468002
vn -0.824550 -0.345314 0.448191
vn -0.866255 -0.339853 0.366200
vn 0.677768 0.306369 -0.668408
vn 0.702159 0.289167 -0.650658
vn 0.097969 0.011003 -0.995129
vn 0.913379 -0.403393 0.054896
vn 0.596631 -0.682045 -0.422901
vn -0.651230 -0.298288 -0.697799
vn -0.540430 -0.204069 -0.816267
vn -0.201959 -0.178203 -0.963045
vn -0.369829 -0.626862 0.685763
vn -0.433805 -0.612127 0.661146
vn 0.167638 -0.633033 0.755756
vn 0.584779 -0.807774 0.074400
vn 0.426853 -0.868703 0.251301
vn -0.638727 -0.338453 -0.690998
vn -0.326564 -0.356389 -0.875410
vn 0.354364 -0.874762 -0.330479
vn 0.474204 -0.874579 -0.101202
vn 0.096201 -0.901218 -0.422553
vn -0.496523 -0.863120 -0.092132
vn 0.247486 -0.960273 0.128943
vn -0.678598 -0.691676 -0.247162
vn -0.267146 -0.661001 -0.701221
vn -0.266262 -0.715645 -0.645722
vn -0.176387 -0.773984 -0.608142
vn -0.675803 -0.708458 -0.203414
vn -0.676082 -0.700472 -0.228587
vn -0.496922 -0.862715 -0.093757
vn -0.434430 -0.873528 -0.219587
vn -0.085491 -0.895677 -0.436410
vn -0.199610 -0.839143 -0.505959
vn -0.254677 -0.808831 -0.530030
vn -0.200862 -0.839056 -0.505609
vn -0.206694 -0.837379 -0.506038
vn -0.285204 -0.875942 -0.389080
vn -0.261968 -0.839701 -0.475684
vn -0.128930 -0.892598 -0.432026
f 1//1 2//1 3//1
f 4//2 5//2 6//2
f 7//3 8//3 9//3
f 10//4 11//4 12//4
f 13//5 14//5 15//5
f 16//6 17//6 18//6
f 19//7 20//7 21//7
f 22//8 23//8 24//8
f 25//9 26//9 27//9
f 28//10 29//10 30//10
f 31//11 32//11 33//11
f 34//12 35//12 36//12
f 37//13 38//13 39//13
f 40//14 41//14 42//14
f 43//15 44//15 45//15
f 46//16 47//16 48//16
f 49//17 50//17 51//17
f 52//18 53//18 54//18
f 55//19 56//19 57//19
f 58//20 59//20 60//20
f 61//21 62//21 63//21
f 64//22 65//22 66//22
f 67//23 68//23 69//23
f 70//24 71//24 72//24
f 73//25 74//25 75//25
f 76//26 77//26 78//26
f 79//27 80//27 81//27
f 82//28 83//28 84//28
f 85//29 86//29 87//29
f 88//30 89//30 90//30
f 91//31 92//31 93//31
f 94//32 95//32 96//32
f 97//33 98//33 99//33
f 100//34 101//34 102//34
f 103//35 104//35 105//35
f 106//36 107//36 108//36
f 109//37 110//37 111//37
f 112//38 113//38 114//38
f 115//39 116//39 117//39
f 118//40 119//40 120//40
f 121//41 122//41 123//41
f 124//42 125//42 126//42
f 127//43 128//43 129//43
f 130//44 131//44 132//44
f 133//45 134//45 135//45
f 136//46 137//46 138//46
f 139//47 140//47 141//47
f 142//48 143//48 144//48
f 145//49 146//49 147//49
f 148//50 149//50 150//50
f 151//51 152//51 153//51
f 154//52 155//52 156//52
f 157//53 158//53 159//53
f 160//54 161//54 162//54
f 163//55 164//55 165//55
f 166//56 167//56 168//56
f 169//57 170//57 171//57
f 172//58 173//58 174//58
f 175//59 176//59 177//59
f 178//60 179//60 180//60
f 181//61 182//61 183//61
f 184//62 185//62 186//62
f 187//63 188//63 189//63
f 190//64 191//64 192//64
f 193//65 194//65 195//65
f 196//66 197//66 198//66
f 199//67 200//67 201//67
f 202//68 203//68 204//68
