o
v 27.080883 -18.851294 -22.596142
v 27.574404 -18.794838 -22.269579
v 26.470215 -20.716934 -20.237158
v 27.080883 -18.851294 -22.596142
v 26.470215 -20.716934 -20.237158
v 6.756984 -15.707604 -14.463817
v 2.836566 43.388935 23.618328
v 3.438443 43.860424 23.437717
v -9.663241 30.659145 -3.873138
v 2.836566 43.388935 23.618328
v -9.642570 30.643259 -3.848417
v 6.756984 -15.707604 -14.463817
v 2.836566 43.388935 23.618328
v -9.663241 30.659145 -3.873138
v -9.642570 30.643259 -3.848417
v 6.756984 -15.707604 -14.463817
v -9.642570 30.643259 -3.848417
v -9.663241 30.659145 -3.873138
v 27.574404 -18.794838 -22.269579
v 28.747889 -18.231615 -21.411978
v 26.470215 -20.716934 -20.237158
v 26.470215 -20.716934 -20.237158
v 28.747889 -18.231615 -21.411978
v 27.956573 -19.780725 -18.812994
v 2.836566 43.388935 23.618328
v 35.965290 7.114955 20.471581
v 3.438443 43.860424 23.437717
v 26.470215 -20.716934 -20.237158
v 32.652306 -14.004143 -9.828481
v 6.756984 -15.707604 -14.463817
v 6.756984 -15.707604 -14.463817
v 32.652306 -14.004143 -9.828481
v 35.965290 7.114955 20.471581
v 26.470215 -20.716934 -20.237158
v 27.956573 -19.780725 -18.812994
v 32.652306 -14.004143 -9.828481
v 28.747889 -18.231615 -21.411978
v 32.652306 -14.004143 -9.828481
v 27.956573 -19.780725 -18.812994
v 35.965290 7.114955 20.471581
v 21.066929 39.545532 19.412172
v 3.438443 43.860424 23.437717
v 35.965290 7.114955 20.471581
v 21.231335 39.492794 19.241091
v 21.066929 39.545532 19.412172
v 21.231335 39.492794 19.241091
v 21.245405 39.489475 19.225491
v 21.066929 39.545532 19.412172
v 35.965290 7.114955 20.471581
v 21.245405 39.489475 19.225491
v 21.231335 39.492794 19.241091
v 6.756984 -15.707604 -14.463817
v -9.663241 30.659145 -3.873138
v -3.852249 18.362444 -21.534630
v 2.836566 43.388935 23.618328
v 6.756984 -15.707604 -14.463817
v 19.394753 11.589225 18.096491
v 2.836566 43.388935 23.618328
v 19.394753 11.589225 18.096491
v 35.965290 7.114955 20.471581
v 6.756984 -15.707604 -14.463817
v 35.965290 7.114955 20.471581
v 19.394753 11.589225 18.096491
v 27.080883 -18.851294 -22.596142
v 6.756984 -15.707604 -14.463817
v 11.316561 28.948898 -34.443607
v 6.756984 -15.707604 -14.463817
v -3.852249 18.362444 -21.534630
v 11.316561 28.948898 -34.443607
v 3.438443 43.860424 23.437717
v 11.325457 29.070740 -34.401253
v -9.663241 30.659145 -3.873138
v -9.663241 30.659145 -3.873138
v 11.325457 29.070740 -34.401253
v -3.852249 18.362444 -21.534630
v -3.852249 18.362444 -21.534630
v 11.325457 29.070740 -34.401253
v 11.316561 28.948898 -34.443607
v 11.325457 29.070740 -34.401253
v 15.563437 28.170780 -34.212189
v 11.316561 28.948898 -34.443607
v 15.563437 28.170780 -34.212189
v 26.589375 16.916513 -35.151146
v 11.316561 28.948898 -34.443607
v 27.080883 -18.851294 -22.596142
v 31.127571 20.179583 -33.976604
v 27.574404 -18.794838 -22.269579
v 27.574404 -18.794838 -22.269579
v 31.127571 20.179583 -33.976604
v 28.747889 -18.231615 -21.411978
v 15.563437 28.170780 -34.212189
v 31.127571 20.179583 -33.976604
v 26.589375 16.916513 -35.151146
v 27.080883 -18.851294 -22.596142
v 11.316561 28.948898 -34.443607
v 26.345734 17.017326 -35.112179
v 26.589375 16.916513 -35.151146
v 26.345734 17.017326 -35.112179
v 11.316561 28.948898 -34.443607
v 27.080883 -18.851294 -22.596142
v 26.345734 17.017326 -35.112179
v 26.589375 16.916513 -35.151146
v 21.066929 39.545532 19.412172
v 22.394783 41.118027 8.703662
v 3.438443 43.860424 23.437717
v 27.080883 -18.851294 -22.596142
v 29.115891 14.140084 -33.175652
v 31.127571 20.179583 -33.976604
v 31.127571 20.179583 -33.976604
v 29.115891 14.140084 -33.175652
v 26.589375 16.916513 -35.151146
v 27.080883 -18.851294 -22.596142
v 26.589375 16.916513 -35.151146
v 29.115891 14.140084 -33.175652
v 28.747889 -18.231615 -21.411978
v 40.870461 19.801912 -17.146955
v 32.652306 -14.004143 -9.828481
v 32.652306 -14.004143 -9.828481
v 40.870461 19.801912 -17.146955
v 35.965290 7.114955 20.471581
v 31.127571 20.179583 -33.976604
v 38.613300 20.979683 -21.635477
v 28.747889 -18.231615 -21.411978
v 28.747889 -18.231615 -21.411978
v 38.613300 20.979683 -21.635477
v 40.870461 19.801912 -17.146955
v 35.965290 7.114955 20.471581
v 30.226576 39.974136 0.741107
v 21.245405 39.489475 19.225491
v 21.245405 39.489475 19.225491
v 30.226576 39.974136 0.741107
v 21.066929 39.545532 19.412172
v 21.066929 39.545532 19.412172
v 30.226576 39.974136 0.741107
v 22.394783 41.118027 8.703662
v 22.394783 41.118027 8.703662
v 30.226576 39.974136 0.741107
v 3.438443 43.860424 23.437717
v 40.870461 19.801912 -17.146955
v 30.226576 39.974136 0.741107
v 35.965290 7.114955 20.471581
v 3.438443 43.860424 23.437717
v 17.269156 31.815422 -27.964203
v 11.325457 29.070740 -34.401253
v 11.325457 29.070740 -34.401253
v 17.269156 31.815422 -27.964203
v 15.563437 28.170780 -34.212189
v 30.226576 39.974136 0.741107
v 17.269156 31.815422 -27.964203
v 3.438443 43.860424 23.437717
v 15.563437 28.170780 -34.212189
v 19.541142 30.253210 -29.297510
v 31.127571 20.179583 -33.976604
v 17.269156 31.815422 -27.964203
v 19.541142 30.253210 -29.297510
v 15.563437 28.170780 -34.212189
v 31.127571 20.179583 -33.976604
v 35.659016 28.411985 -17.516973
v 38.613300 20.979683 -21.635477
v 38.613300 20.979683 -21.635477
v 35.659016 28.411985 -17.516973
v 40.870461 19.801912 -17.146955
v 40.870461 19.801912 -17.146955
v 35.659016 28.411985 -17.516973
v 30.226576 39.974136 0.741107
v 30.226576 39.974136 0.741107
v 30.334040 35.051029 -14.901397
v 17.269156 31.815422 -27.964203
v 17.269156 31.815422 -27.964203
v 30.334040 35.051029 -14.901397
v 19.541142 30.253210 -29.297510
v 19.541142 30.253210 -29.297510
v 30.334040 35.051029 -14.901397
v 31.127571 20.179583 -33.976604
v 31.127571 20.179583 -33.976604
v 30.334040 35.051029 -14.901397
v 35.659016 28.411985 -17.516973
v 35.659016 28.411985 -17.516973
v 30.334040 35.051029 -14.901397
v 30.226576 39.974136 0.741107
vn 0.415280 -0.762753 -0.495732
vn -0.359661 -0.684320 -0.634311
vn -0.628490 0.774401 -0.072821
vn -0.757788 -0.388225 0.524442
vn -0.817427 -0.282037 0.502263
vn -0.814436 -0.387146 0.432217
vn 0.601366 -0.717387 -0.351731
vn 0.663699 -0.713856 -0.223413
vn 0.208584 0.106158 0.972226
vn -0.045947 -0.826850 0.560543
vn -0.049142 -0.816867 0.574728
vn 0.023435 -0.846439 0.531969
vn 0.829203 -0.553553 -0.077474
vn 0.254487 0.148128 0.955664
vn 0.726599 0.353049 0.589415
vn 0.711462 0.439697 0.548158
vn 0.730586 0.354638 0.583502
vn -0.945052 -0.313514 -0.092659
vn -0.644786 -0.443805 0.622326
vn -0.207992 -0.271476 0.939702
vn -0.280593 -0.679138 0.678261
vn -0.394223 -0.341486 -0.853215
vn -0.475688 -0.318308 -0.820001
vn -0.333166 0.901577 -0.275968
vn -0.740635 0.412158 -0.530646
vn -0.726730 0.272288 -0.630652
vn 0.109778 0.319202 -0.941307
vn 0.083592 0.163903 -0.982928
vn 0.551344 -0.285709 -0.783830
vn 0.649529 -0.272439 -0.709851
vn 0.113693 0.192703 -0.974648
vn -0.294294 -0.320241 -0.900465
vn -0.263618 -0.280338 -0.922993
vn -0.277831 -0.321560 -0.905212
vn 0.271204 0.946906 0.172678
vn 0.545712 -0.286218 -0.787577
vn 0.408500 -0.252396 -0.877168
vn 0.355375 -0.305231 -0.883483
vn 0.937088 -0.274495 -0.215683
vn 0.972914 -0.225514 0.050805
vn 0.841213 -0.214475 -0.496348
vn 0.848325 -0.216190 -0.483328
vn 0.823989 0.390451 0.410597
vn 0.546534 0.787019 0.286185
vn 0.315172 0.932568 0.176024
vn 0.138804 0.990303 -0.005741
vn 0.929706 0.294874 0.220674
vn -0.153358 0.952147 -0.264380
vn 0.198382 0.822076 -0.533701
vn -0.066986 0.967285 -0.244688
vn 0.372247 0.707294 -0.600971
vn 0.240573 0.808393 -0.537238
vn 0.705477 0.536833 -0.462723
vn 0.824908 0.486959 -0.287049
vn 0.854671 0.514243 -0.071355
vn 0.063373 0.952081 -0.299209
vn 0.282378 0.826421 -0.487124
vn 0.410303 0.727404 -0.550031
vn 0.577767 0.655176 -0.486754
vn 0.723338 0.660051 -0.202766
f 1//1 2//1 3//1
f 4//2 5//2 6//2
f 7//3 8//3 9//3
f 10//4 11//4 12//4
f 13//5 14//5 15//5
f 16//6 17//6 18//6
f 19//7 20//7 21//7
f 22//8 23//8 24//8
f 25//9 26//9 27//9
f 28//10 29//10 30//10
f 31//11 32//11 33//11
f 34//12 35//12 36//12
f 37//13 38//13 39//13
f 40//14 41//14 42//14
f 43//15 44//15 45//15
f 46//16 47//16 48//16
f 49//17 50//17 51//17
f 52//18 53//18 54//18
f 55//19 56//19 57//19
f 58//20 59//20 60//20
f 61//21 62//21 63//21
f 64//22 65//22 66//22
f 67//23 68//23 69//23
f 70//24 71//24 72//24
f 73//25 74//25 75//25
f 76//26 77//26 78//26
f 79//27 80//27 81//27
f 82//28 83//28 84//28
f 85//29 86//29 87//29
f 88//30 89//30 90//30
f 91//31 92//31 93//31
f 94//32 95//32 96//32
f 97//33 98//33 99//33
f 100//34 101//34 102//34
f 103//35 104//35 105//35
f 106//36 107//36 108//36
f 109//37 110//37 111//37
f 112//38 113//38 114//38
f 115//39 116//39 117//39
f 118//40 119//40 120//40
f 121//41 122//41 123//41
f 124//42 125//42 126//42
f 127//43 128//43 129//43
f 130//44 131//44 132//44
f 133//45 134//45 135//45
f 136//46 137//46 138//46
f 139//47 140//47 141//47
f 142//48 143//48 144//48
f 145//49 146//49 147//49
f 148//50 149//50 150//50
f 151//51 152//51 153//51
f 154//52 155//52 156//52
f 157//53 158//53 159//53
f 160//54 161//54 162//54
f 163//55 164//55 165//55
f 166//56 167//56 168//56
f 169//57 170//57 171//57
f 172//58 173//58 174//58
f 175//59 176//59 177//59
f 178//60 179//60 180//60
