o
v -6.962376 22.254944 42.993443
v -7.008578 22.202957 42.995159
v -2.807495 20.809742 39.960163
v -6.962376 22.254944 42.993443
v -8.595564 21.618935 43.457237
v -7.008578 22.202957 42.995159
v -7.008578 22.202957 42.995159
v -8.330922 20.507010 42.769569
v -2.807495 20.809742 39.960163
v -8.595564 21.618935 43.457237
v -8.330922 20.507010 42.769569
v -7.008578 22.202957 42.995159
v -15.279760 -30.332920 11.074262
v -15.223264 -30.330553 10.717385
v -2.807495 20.809742 39.960163
v -6.962376 22.254944 42.993443
v -9.113195 22.578354 43.029156
v -8.595564 21.618935 43.457237
v -6.962376 22.254944 42.993443
v -8.906007 22.742453 42.800144
v -9.113195 22.578354 43.029156
v -9.113195 22.578354 43.029156
v -9.713461 22.290268 43.055920
v -8.595564 21.618935 43.457237
v -8.595564 21.618935 43.457237
v -15.175011 -24.886637 17.292959
v -8.330922 20.507010 42.769569
v -8.330922 20.507010 42.769569
v -15.175011 -24.886637 17.292959
v -2.807495 20.809742 39.960163
v -15.279760 -30.332920 11.074262
v -2.807495 20.809742 39.960163
v -15.175011 -24.886637 17.292959
v -19.263496 -21.778721 -22.010704
v -18.428762 -19.497187 -24.740980
v -15.223264 -30.330553 10.717385
v -18.467449 -9.418026 -42.674053
v -18.428762 -19.497187 -24.740980
v -19.263496 -21.778721 -22.010704
v -18.467449 -9.418026 -42.674053
v -22.703201 -18.694090 -29.897469
v -18.495815 -9.437429 -42.640610
v -18.467449 -9.418026 -42.674053
v -19.263496 -21.778721 -22.010704
v -22.703201 -18.694090 -29.897469
v -15.223264 -30.330553 10.717385
v -11.198222 -14.543552 -6.401529
v -2.807495 20.809742 39.960163
v -18.428762 -19.497187 -24.740980
v -11.198222 -14.543552 -6.401529
v -15.223264 -30.330553 10.717385
v -18.467449 -9.418026 -42.674053
v -11.198222 -14.543552 -6.401529
v -18.428762 -19.497187 -24.740980
v -11.198222 -14.543552 -6.401529
v -5.915401 12.453743 -0.698812
v -2.807495 20.809742 39.960163
v -18.467449 -9.418026 -42.674053
v -5.915401 12.453743 -0.698812
v -11.198222 -14.543552 -6.401529
v -15.279760 -30.332920 11.074262
v -29.837616 -26.203876 12.183017
v -15.223264 -30.330553 10.717385
v -19.263496 -21.778721 -22.010704
v -15.223264 -30.330553 10.717385
v -29.837616 -26.203876 12.183017
v -19.263496 -21.778721 -22.010704
v -29.837616 -26.203876 12.183017
v -22.703201 -18.694090 -29.897469
v -18.467449 -9.418026 -42.674053
v -18.495815 -9.437429 -42.640610
v -35.854935 -10.938982 -33.331135
v -22.703201 -18.694090 -29.897469
v -35.854935 -10.938982 -33.331135
v -18.495815 -9.437429 -42.640610
v -8.595564 21.618935 43.457237
v -36.998268 -18.717388 21.040112
v -15.175011 -24.886637 17.292959
v -15.279760 -30.332920 11.074262
v -15.175011 -24.886637 17.292959
v -36.998268 -18.717388 21.040112
v -15.279760 -30.332920 11.074262
v -36.998268 -18.717388 21.040112
v -29.837616 -26.203876 12.183017
v -6.962376 22.254944 42.993443
v -2.807495 20.809742 39.960163
v -19.117462 39.331692 -0.479837
v -6.962376 22.254944 42.993443
v -19.117462 39.331692 -0.479837
v -8.906007 22.742453 42.800144
v -5.915401 12.453743 -0.698812
v -19.117462 39.331692 -0.479837
v -2.807495 20.809742 39.960163
v -8.906007 22.742453 42.800144
v -26.353643 24.468199 35.941940
v -9.113195 22.578354 43.029156
v -19.117462 39.331692 -0.479837
v -26.353643 24.468199 35.941940
v -8.906007 22.742453 42.800144
v -9.713461 22.290268 43.055920
v -27.116682 23.942173 36.503693
v -8.595564 21.618935 43.457237
v -9.113195 22.578354 43.029156
v -27.116682 23.942173 36.503693
v -9.713461 22.290268 43.055920
v -26.353643 24.468199 35.941940
v -27.116682 23.942173 36.503693
v -9.113195 22.578354 43.029156
v -29.837616 -26.203876 12.183017
v -40.016705 -15.039552 -18.137318
v -22.703201 -18.694090 -29.897469
v -22.703201 -18.694090 -29.897469
v -40.016705 -15.039552 -18.137318
v -35.854935 -10.938982 -33.331135
v -36.998268 -18.717388 21.040112
v -40.016705 -15.039552 -18.137318
v -29.837616 -26.203876 12.183017
v -5.915401 12.453743 -0.698812
v -18.310760 35.165562 -7.342371
v -19.117462 39.331692 -0.479837
v -36.998268 -18.717388 21.040112
v -46.230858 -0.579541 23.206038
v -41.087234 -12.088115 20.318857
v -40.016705 -15.039552 -18.137318
v -41.181229 -3.098237 -26.643759
v -35.854935 -10.938982 -33.331135
v -18.467449 -9.418026 -42.674053
v -20.365339 24.706158 -21.424946
v -5.915401 12.453743 -0.698812
v -5.915401 12.453743 -0.698812
v -20.365339 24.706158 -21.424946
v -18.310760 35.165562 -7.342371
v -8.595564 21.618935 43.457237
v -38.730209 -2.680223 28.988138
v -36.998268 -18.717388 21.040112
v -36.998268 -18.717388 21.040112
v -38.730209 -2.680223 28.988138
v -46.230858 -0.579541 23.206038
v -27.116682 23.942173 36.503693
v -38.730209 -2.680223 28.988138
v -8.595564 21.618935 43.457237
v -46.230858 -0.579541 23.206038
v -38.730209 -2.680223 28.988138
v -27.116682 23.942173 36.503693
v -36.998268 -18.717388 21.040112
v -50.601330 1.528602 3.013440
v -40.016705 -15.039552 -18.137318
v -36.998268 -18.717388 21.040112
v -41.087234 -12.088115 20.318857
v -50.601330 1.528602 3.013440
v -46.230858 -0.579541 23.206038
v -50.601330 1.528602 3.013440
v -41.087234 -12.088115 20.318857
v -40.016705 -15.039552 -18.137318
v -50.601330 1.528602 3.013440
v -41.181229 -3.098237 -26.643759
v -46.230858 -0.579541 23.206038
v -49.599167 3.094869 12.666788
v -50.601330 1.528602 3.013440
v -46.230858 -0.579541 23.206038
v -27.116682 23.942173 36.503693
v -46.473743 9.113858 22.456388
v -46.230858 -0.579541 23.206038
v -46.473743 9.113858 22.456388
v -49.599167 3.094869 12.666788
v -49.599167 3.094869 12.666788
v -50.535542 9.848759 9.035533
v -50.601330 1.528602 3.013440
v -46.473743 9.113858 22.456388
v -50.535542 9.848759 9.035533
v -49.599167 3.094869 12.666788
v -50.535542 9.848759 9.035533
v -50.469219 10.328206 8.491812
v -50.601330 1.528602 3.013440
v -18.310760 35.165562 -7.342371
v -37.847580 35.467628 -4.994518
v -19.117462 39.331692 -0.479837
v -20.365339 24.706158 -21.424946
v -37.847580 35.467628 -4.994518
v -18.310760 35.165562 -7.342371
v -20.365339 24.706158 -21.424946
v -37.917679 35.274162 -5.151304
v -37.847580 35.467628 -4.994518
v -37.917679 35.274162 -5.151304
v -41.065193 31.385876 7.357005
v -37.847580 35.467628 -4.994518
v -50.469219 10.328206 8.491812
v -41.065193 31.385876 7.357005
v -37.917679 35.274162 -5.151304
v -19.117462 39.331692 -0.479837
v -39.567741 32.052807 7.530692
v -26.353643 24.468199 35.941940
v -37.847580 35.467628 -4.994518
v -39.567741 32.052807 7.530692
v -19.117462 39.331692 -0.479837
v -41.065193 31.385876 7.357005
v -39.567741 32.052807 7.530692
v -37.847580 35.467628 -4.994518
v -26.353643 24.468199 35.941940
v -39.567741 32.052807 7.530692
v -27.116682 23.942173 36.503693
v -27.116682 23.942173 36.503693
v -39.567741 32.052807 7.530692
v -41.065193 31.385876 7.357005
v -50.535542 9.848759 9.035533
v -47.416195 16.198631 9.965965
v -50.469219 10.328206 8.491812
v -50.469219 10.328206 8.491812
v -47.416195 16.198631 9.965965
v -41.065193 31.385876 7.357005
v -50.601330 1.528602 3.013440
v -43.615276 7.696587 -19.013477
v -41.181229 -3.098237 -26.643759
v -50.469219 10.328206 8.491812
v -43.615276 7.696587 -19.013477
v -50.601330 1.528602 3.013440
v -50.469219 10.328206 8.491812
v -37.917679 35.274162 -5.151304
v -43.615276 7.696587 -19.013477
v -27.116682 23.942173 36.503693
v -44.651455 17.067648 17.266342
v -46.473743 9.113858 22.456388
v -27.116682 23.942173 36.503693
v -41.065193 31.385876 7.357005
v -44.651455 17.067648 17.266342
v -46.473743 9.113858 22.456388
v -44.651455 17.067648 17.266342
v -50.535542 9.848759 9.035533
v -50.535542 9.848759 9.035533
v -44.651455 17.067648 17.266342
v -47.416195 16.198631 9.965965
v -47.416195 16.198631 9.965965
v -44.651455 17.067648 17.266342
v -41.065193 31.385876 7.357005
v -18.467449 -9.418026 -42.674053
v -35.854935 -10.938982 -33.331135
v -30.800591 18.241369 -23.509609
v -41.181229 -3.098237 -26.643759
v -30.800591 18.241369 -23.509609
v -35.854935 -10.938982 -33.331135
v -43.615276 7.696587 -19.013477
v -30.800591 18.241369 -23.509609
v -41.181229 -3.098237 -26.643759
v -18.467449 -9.418026 -42.674053
v -30.800591 18.241369 -23.509609
v -20.365339 24.706158 -21.424946
v -20.365339 24.706158 -21.424946
v -30.800591 18.241369 -23.509609
v -37.917679 35.274162 -5.151304
v -37.917679 35.274162 -5.151304
v -30.800591 18.241369 -23.509609
v -43.615276 7.696587 -19.013477
vn 0.456134 -0.378790 0.805270
vn 0.365842 -0.295999 0.882352
vn 0.426542 -0.437851 0.791421
vn 0.391752 -0.414701 0.821312
vn 0.938803 -0.311723 0.146553
vn 0.081351 0.442392 0.893124
vn 0.123602 0.750293 0.649448
vn -0.125173 0.347160 0.929415
vn 0.126091 -0.499908 0.856851
vn 0.415975 -0.491960 0.764814
vn 0.855408 -0.396704 0.333021
vn 0.776159 -0.579989 -0.247366
vn 0.612088 -0.688802 -0.388457
vn -0.213286 -0.755624 -0.619308
vn 0.352893 -0.808891 -0.470279
vn 0.970803 -0.239773 0.007140
vn 0.863227 -0.455673 -0.217256
vn 0.879325 -0.414332 -0.234769
vn 0.982160 -0.184333 -0.037192
vn 0.966190 -0.143868 -0.213960
vn -0.276052 -0.959838 -0.050068
vn -0.285107 -0.935383 -0.209219
vn -0.323224 -0.920610 -0.219095
vn -0.288937 -0.701137 -0.651861
vn -0.270412 -0.734279 -0.622665
vn 0.010602 -0.491442 0.870846
vn -0.098657 -0.747787 0.656568
vn -0.191701 -0.820499 0.538546
vn 0.455621 0.864512 0.212198
vn 0.202445 0.929436 0.308489
vn 0.885873 0.436410 -0.157403
vn -0.115102 0.853825 0.507676
vn -0.052950 0.928208 0.368276
vn -0.354853 -0.032343 0.934363
vn -0.240376 0.573604 0.783070
vn -0.143477 0.812117 0.565580
vn -0.342875 -0.912998 -0.221068
vn -0.409977 -0.846097 -0.340646
vn -0.727547 -0.686008 -0.008346
vn 0.885381 0.436196 -0.160729
vn -0.805104 -0.455223 0.380237
vn -0.887562 -0.321560 -0.329898
vn 0.856260 0.306522 -0.415769
vn 0.852525 0.352347 -0.386074
vn -0.066010 -0.448803 0.891190
vn -0.627290 -0.399160 0.668714
vn -0.360995 -0.104141 0.926735
vn -0.603329 0.038318 0.796571
vn -0.835188 -0.549817 0.012732
vn -0.852488 -0.519282 0.060082
vn -0.888775 -0.434117 0.147043
vn -0.928880 -0.270678 -0.252814
vn -0.909808 -0.384269 0.156800
vn -0.609526 0.045934 0.791434
vn -0.952569 -0.000333 0.304322
vn -0.990487 -0.075455 0.115070
vn -0.956495 0.023729 0.290781
vn -0.995838 0.058474 -0.069909
vn -0.049639 0.851157 -0.522558
vn -0.058417 0.805487 -0.589728
vn -0.253967 0.662845 -0.704370
vn -0.906505 0.410022 -0.100649
vn -0.910176 0.400843 -0.104427
vn -0.195815 0.920943 0.336927
vn -0.248216 0.942705 0.222926
vn -0.417657 0.889538 0.185161
vn -0.318781 0.868292 0.380063
vn -0.410765 0.816768 0.405169
vn -0.884150 0.398632 0.243662
vn -0.887619 0.407921 0.213852
vn -0.953123 -0.001034 -0.302582
vn -0.951839 0.172213 -0.253662
vn -0.912351 0.318068 -0.257777
vn -0.725678 0.484822 0.488200
vn -0.719162 0.508126 0.473933
vn -0.876194 0.387630 0.286404
vn -0.876079 0.388532 0.285532
vn -0.867711 0.410908 0.279699
vn -0.466557 0.353678 -0.810701
vn -0.484635 0.353276 -0.800203
vn -0.570774 0.384231 -0.725661
vn -0.151545 0.516402 -0.842831
vn -0.263565 0.654075 -0.709027
vn -0.603599 0.454111 -0.655325
f 1//1 2//1 3//1
f 4//2 5//2 6//2
f 7//3 8//3 9//3
f 10//4 11//4 12//4
f 13//5 14//5 15//5
f 16//6 17//6 18//6
f 19//7 20//7 21//7
f 22//8 23//8 24//8
f 25//9 26//9 27//9
f 28//10 29//10 30//10
f 31//11 32//11 33//11
f 34//12 35//12 36//12
f 37//13 38//13 39//13
f 40//14 41//14 42//14
f 43//15 44//15 45//15
f 46//16 47//16 48//16
f 49//17 50//17 51//17
f 52//18 53//18 54//18
f 55//19 56//19 57//19
f 58//20 59//20 60//20
f 61//21 62//21 63//21
f 64//22 65//22 66//22
f 67//23 68//23 69//23
f 70//24 71//24 72//24
f 73//25 74//25 75//25
f 76//26 77//26 78//26
f 79//27 80//27 81//27
f 82//28 83//28 84//28
f 85//29 86//29 87//29
f 88//30 89//30 90//30
f 91//31 92//31 93//31
f 94//32 95//32 96//32
f 97//33 98//33 99//33
f 100//34 101//34 102//34
f 103//35 104//35 105//35
f 106//36 107//36 108//36
f 109//37 110//37 111//37
f 112//38 113//38 114//38
f 115//39 116//39 117//39
f 118//40 119//40 120//40
f 121//41 122//41 123//41
f 124//42 125//42 126//42
f 127//43 128//43 129//43
f 130//44 131//44 132//44
f 133//45 134//45 135//45
f 136//46 137//46 138//46
f 139//47 140//47 141//47
f 142//48 143//48 144//48
f 145//49 146//49 147//49
f 148//50 149//50 150//50
f 151//51 152//51 153//51
f 154//52 155//52 156//52
f 157//53 158//53 159//53
f 160//54 161//54 162//54
f 163//55 164//55 165//55
f 166//56 167//56 168//56
f 169//57 170//57 171//57
f 172//58 173//58 174//58
f 175//59 176//59 177//59
f 178//60 179//60 180//60
f 181//61 182//61 183//61
f 184//62 185//62 186//62
f 187//63 188//63 189//63
f 190//64 191//64 192//64
f 193//65 194//65 195//65
f 196//66 197//66 198//66
f 199//67 200//67 201//67
f 202//68 203//68 204//68
f 205//69 206//69 207//69
f 208//70 209//70 210//70
f 211//71 212//71 213//71
f 214//72 215//72 216//72
f 217//73 218//73 219//73
f 220//74 221//74 222//74
f 223//75 224//75 225//75
f 226//76 227//76 228//76
f 229//77 230//77 231//77
f 232//78 233//78 234//78
f 235//79 236//79 237//79
f 238//80 239//80 240//80
f 241//81 242//81 243//81
f 244//82 245//82 246//82
f 247//83 248//83 249//83
f 250//84 251//84 252//84
