o
v 103.182175 109.702950 182.799835
v 137.397552 78.781403 177.834747
v 103.178482 109.691315 182.720779
v 103.182175 109.702950 182.799835
v 139.247208 69.779060 183.976608
v 137.397552 78.781403 177.834747
v 27.889669 47.228840 108.596008
v 37.318146 63.279255 106.598358
v 45.154755 50.652264 94.640892
v 45.154755 50.652264 94.640892
v 37.318146 63.279255 106.598358
v 43.520393 67.748642 103.912827
v 137.397552 78.781403 177.834747
v 112.589394 99.677193 174.527817
v 103.178482 109.691315 182.720779
v 48.007126 22.743528 221.674271
v 74.427986 -7.353916 214.810883
v 47.972950 22.819626 221.697281
v 45.154755 50.652264 94.640892
v 43.520393 67.748642 103.912827
v 61.846958 65.891693 96.153229
v 139.247208 69.779060 183.976608
v 148.077988 35.701000 172.651794
v 137.397552 78.781403 177.834747
v 144.011749 31.618034 197.311646
v 148.077988 35.701000 172.651794
v 139.247208 69.779060 183.976608
v 142.646194 6.224740 174.300354
v 148.077988 35.701000 172.651794
v 144.011749 31.618034 197.311646
v 27.889669 47.228840 108.596008
v 45.154755 50.652264 94.640892
v 35.816383 27.574873 104.572311
v 45.154755 50.652264 94.640892
v 43.899311 41.291595 97.665512
v 35.816383 27.574873 104.572311
v 23.786240 34.274536 134.043533
v 27.889669 47.228840 108.596008
v 26.688721 26.170513 114.566307
v 27.889669 47.228840 108.596008
v 35.816383 27.574873 104.572311
v 26.688721 26.170513 114.566307
v 142.646194 6.224740 174.300354
v 129.997726 -1.492149 131.991287
v 148.077988 35.701000 172.651794
v 142.646194 6.224740 174.300354
v 121.695816 -8.629107 127.676170
v 129.997726 -1.492149 131.991287
v 103.182175 109.702950 182.799835
v 103.178482 109.691315 182.720779
v 79.382294 103.027115 163.523849
v 47.972950 22.819626 221.697281
v 38.791241 48.039425 207.658051
v 35.033051 32.585190 203.250366
v 142.646194 6.224740 174.300354
v 144.011749 31.618034 197.311646
v 130.293701 0.852968 182.762436
v 35.816383 27.574873 104.572311
v 63.987244 -22.071526 126.213036
v 26.688721 26.170513 114.566307
v 63.987244 -22.071526 126.213036
v 49.546696 -22.876099 146.958862
v 26.688721 26.170513 114.566307
v 74.427986 -7.353916 214.810883
v 144.011749 31.618034 197.311646
v 112.974365 26.885880 211.825775
v 74.427986 -7.353916 214.810883
v 112.974365 26.885880 211.825775
v 47.972950 22.819626 221.697281
v 48.007126 22.743528 221.674271
v 55.975487 -4.948022 201.946274
v 74.427986 -7.353916 214.810883
v 121.695816 -8.629107 127.676170
v 124.864601 6.760022 120.048233
v 129.997726 -1.492149 131.991287
v 121.695816 -8.629107 127.676170
v 63.987244 -22.071526 126.213036
v 124.864601 6.760022 120.048233
v 55.975487 -4.948022 201.946274
v 55.739822 -5.118628 201.468674
v 74.427986 -7.353916 214.810883
v 48.007126 22.743528 221.674271
v 55.739822 -5.118628 201.468674
v 55.975487 -4.948022 201.946274
v 103.182175 109.702950 182.799835
v 69.353935 99.108727 170.304474
v 68.088371 97.727898 181.603699
v 103.182175 109.702950 182.799835
v 79.382294 103.027115 163.523849
v 69.353935 99.108727 170.304474
v 27.889669 47.228840 108.596008
v 31.999008 56.048016 122.846077
v 37.318146 63.279255 106.598358
v 48.007126 22.743528 221.674271
v 55.283371 -6.727091 198.386902
v 55.739822 -5.118628 201.468674
v 55.739822 -5.118628 201.468674
v 55.283371 -6.727091 198.386902
v 74.427986 -7.353916 214.810883
v 47.972950 22.819626 221.697281
v 67.126907 73.807411 205.687546
v 38.791241 48.039425 207.658051
v 103.182175 109.702950 182.799835
v 68.088371 97.727898 181.603699
v 66.959976 74.076546 205.409058
v 103.182175 109.702950 182.799835
v 66.959976 74.076546 205.409058
v 67.126907 73.807411 205.687546
v 67.126907 73.807411 205.687546
v 66.959976 74.076546 205.409058
v 38.791241 48.039425 207.658051
v 68.088371 97.727898 181.603699
v 66.799316 74.224892 205.177292
v 66.959976 74.076546 205.409058
v 66.959976 74.076546 205.409058
v 66.799316 74.224892 205.177292
v 38.791241 48.039425 207.658051
v 43.899311 41.291595 97.665512
v 49.457745 11.730532 108.080612
v 35.816383 27.574873 104.572311
v 35.816383 27.574873 104.572311
v 48.516884 11.550948 108.835823
v 63.987244 -22.071526 126.213036
v 49.457745 11.730532 108.080612
v 48.516884 11.550948 108.835823
v 35.816383 27.574873 104.572311
v 63.987244 -22.071526 126.213036
v 48.516884 11.550948 108.835823
v 49.457745 11.730532 108.080612
v 103.182175 109.702950 182.799835
v 114.320229 73.168404 194.605026
v 139.247208 69.779060 183.976608
v 68.088371 97.727898 181.603699
v 44.389214 62.328190 199.696121
v 66.799316 74.224892 205.177292
v 66.799316 74.224892 205.177292
v 44.389214 62.328190 199.696121
v 38.791241 48.039425 207.658051
v 23.786240 34.274536 134.043533
v 26.688721 26.170513 114.566307
v 23.680513 33.570225 134.882309
v 144.011749 31.618034 197.311646
v 139.247208 69.779060 183.976608
v 121.964417 56.303471 197.922272
v 114.320229 73.168404 194.605026
v 121.964417 56.303471 197.922272
v 139.247208 69.779060 183.976608
v 129.997726 -1.492149 131.991287
v 129.071304 29.694950 119.968338
v 148.077988 35.701000 172.651794
v 124.864601 6.760022 120.048233
v 129.071304 29.694950 119.968338
v 129.997726 -1.492149 131.991287
v 38.791241 48.039425 207.658051
v 31.626892 51.023666 189.791245
v 35.033051 32.585190 203.250366
v 144.011749 31.618034 197.311646
v 107.630035 -0.682442 200.009689
v 130.293701 0.852968 182.762436
v 74.427986 -7.353916 214.810883
v 130.293701 0.852968 182.762436
v 107.630035 -0.682442 200.009689
v 74.427986 -7.353916 214.810883
v 107.630035 -0.682442 200.009689
v 144.011749 31.618034 197.311646
v 79.382294 103.027115 163.523849
v 66.147331 96.675873 159.335571
v 69.353935 99.108727 170.304474
v 61.082142 90.364578 183.029236
v 66.147331 96.675873 159.335571
v 37.318146 63.279255 106.598358
v 69.353935 99.108727 170.304474
v 66.147331 96.675873 159.335571
v 68.088371 97.727898 181.603699
v 61.082142 90.364578 183.029236
v 68.088371 97.727898 181.603699
v 66.147331 96.675873 159.335571
v 112.974365 26.885880 211.825775
v 101.270462 35.365654 214.125946
v 47.972950 22.819626 221.697281
v 47.972950 22.819626 221.697281
v 101.270462 35.365654 214.125946
v 67.126907 73.807411 205.687546
v 103.182175 109.702950 182.799835
v 67.126907 73.807411 205.687546
v 101.270462 35.365654 214.125946
v 103.182175 109.702950 182.799835
v 101.270462 35.365654 214.125946
v 114.320229 73.168404 194.605026
v 144.011749 31.618034 197.311646
v 101.270462 35.365654 214.125946
v 112.974365 26.885880 211.825775
v 144.011749 31.618034 197.311646
v 121.964417 56.303471 197.922272
v 101.270462 35.365654 214.125946
v 114.320229 73.168404 194.605026
v 101.270462 35.365654 214.125946
v 121.964417 56.303471 197.922272
v 45.154755 50.652264 94.640892
v 55.283951 18.217932 104.910439
v 43.899311 41.291595 97.665512
v 43.899311 41.291595 97.665512
v 55.283951 18.217932 104.910439
v 49.457745 11.730532 108.080612
v 63.987244 -22.071526 126.213036
v 49.457745 11.730532 108.080612
v 55.283951 18.217932 104.910439
v 48.007126 22.743528 221.674271
v 47.972950 22.819626 221.697281
v 45.494736 10.551873 199.830444
v 48.007126 22.743528 221.674271
v 45.494736 10.551873 199.830444
v 55.283371 -6.727091 198.386902
v 47.972950 22.819626 221.697281
v 35.033051 32.585190 203.250366
v 45.494736 10.551873 199.830444
v 31.999008 56.048016 122.846077
v 22.418816 44.078781 166.715485
v 37.318146 63.279255 106.598358
v 61.082142 90.364578 183.029236
v 37.318146 63.279255 106.598358
v 22.418816 44.078781 166.715485
v 23.786240 34.274536 134.043533
v 23.680513 33.570225 134.882309
v 22.418816 44.078781 166.715485
v 23.786240 34.274536 134.043533
v 22.418816 44.078781 166.715485
v 27.889669 47.228840 108.596008
v 27.889669 47.228840 108.596008
v 22.418816 44.078781 166.715485
v 31.999008 56.048016 122.846077
v 31.626892 51.023666 189.791245
v 22.418816 44.078781 166.715485
v 35.033051 32.585190 203.250366
v 68.088371 97.727898 181.603699
v 43.060246 67.798592 191.305313
v 44.389214 62.328190 199.696121
v 61.082142 90.364578 183.029236
v 43.060246 67.798592 191.305313
v 68.088371 97.727898 181.603699
v 44.389214 62.328190 199.696121
v 43.060246 67.798592 191.305313
v 38.791241 48.039425 207.658051
v 38.791241 48.039425 207.658051
v 42.833511 67.874268 190.824753
v 31.626892 51.023666 189.791245
v 43.060246 67.798592 191.305313
v 42.833511 67.874268 190.824753
v 38.791241 48.039425 207.658051
v 61.082142 90.364578 183.029236
v 22.418816 44.078781 166.715485
v 42.833511 67.874268 190.824753
v 61.082142 90.364578 183.029236
v 42.833511 67.874268 190.824753
v 43.060246 67.798592 191.305313
v 31.626892 51.023666 189.791245
v 42.833511 67.874268 190.824753
v 22.418816 44.078781 166.715485
v 142.646194 6.224740 174.300354
v 127.426613 -3.151629 157.845016
v 121.695816 -8.629107 127.676170
v 142.646194 6.224740 174.300354
v 130.293701 0.852968 182.762436
v 127.426613 -3.151629 157.845016
v 148.077988 35.701000 172.651794
v 129.857162 34.906429 124.307137
v 137.397552 78.781403 177.834747
v 129.071304 29.694950 119.968338
v 129.857162 34.906429 124.307137
v 148.077988 35.701000 172.651794
v 49.546696 -22.876099 146.958862
v 33.819500 8.725405 132.038513
v 26.688721 26.170513 114.566307
v 26.688721 26.170513 114.566307
v 33.819500 8.725405 132.038513
v 23.680513 33.570225 134.882309
v 45.154755 50.652264 94.640892
v 61.846958 65.891693 96.153229
v 72.364708 37.961842 98.811813
v 45.154755 50.652264 94.640892
v 72.364708 37.961842 98.811813
v 55.283951 18.217932 104.910439
v 43.520393 67.748642 103.912827
v 60.425964 79.730148 122.544418
v 61.846958 65.891693 96.153229
v 43.520393 67.748642 103.912827
v 79.382294 103.027115 163.523849
v 60.425964 79.730148 122.544418
v 79.382294 103.027115 163.523849
v 61.846958 65.891693 96.153229
v 60.425964 79.730148 122.544418
v 37.318146 63.279255 106.598358
v 56.964470 85.885948 136.350494
v 43.520393 67.748642 103.912827
v 66.147331 96.675873 159.335571
v 56.964470 85.885948 136.350494
v 37.318146 63.279255 106.598358
v 79.382294 103.027115 163.523849
v 56.964470 85.885948 136.350494
v 66.147331 96.675873 159.335571
v 43.520393 67.748642 103.912827
v 56.964470 85.885948 136.350494
v 79.382294 103.027115 163.523849
v 74.427986 -7.353916 214.810883
v 59.809109 -14.617822 182.512848
v 49.546696 -22.876099 146.958862
v 55.283371 -6.727091 198.386902
v 59.809109 -14.617822 182.512848
v 74.427986 -7.353916 214.810883
v 49.546696 -22.876099 146.958862
v 59.809109 -14.617822 182.512848
v 55.283371 -6.727091 198.386902
v 103.178482 109.691315 182.720779
v 86.981796 93.274406 144.918350
v 79.382294 103.027115 163.523849
v 79.382294 103.027115 163.523849
v 86.981796 93.274406 144.918350
v 61.846958 65.891693 96.153229
v 74.427986 -7.353916 214.810883
v 49.546696 -22.876099 146.958862
v 68.367035 -21.027275 141.707687
v 63.987244 -22.071526 126.213036
v 68.367035 -21.027275 141.707687
v 49.546696 -22.876099 146.958862
v 45.494736 10.551873 199.830444
v 51.047005 -13.705500 170.949951
v 55.283371 -6.727091 198.386902
v 49.546696 -22.876099 146.958862
v 55.283371 -6.727091 198.386902
v 51.047005 -13.705500 170.949951
v 124.864601 6.760022 120.048233
v 101.914383 34.436554 104.290649
v 129.071304 29.694950 119.968338
v 61.846958 65.891693 96.153229
v 92.403259 38.837765 101.704170
v 72.364708 37.961842 98.811813
v 61.846958 65.891693 96.153229
v 74.819542 59.991917 98.826492
v 92.403259 38.837765 101.704170
v 74.819542 59.991917 98.826492
v 101.914383 34.436554 104.290649
v 92.403259 38.837765 101.704170
v 124.864601 6.760022 120.048233
v 101.797050 32.531116 104.642853
v 101.914383 34.436554 104.290649
v 72.364708 37.961842 98.811813
v 101.797050 32.531116 104.642853
v 55.283951 18.217932 104.910439
v 92.403259 38.837765 101.704170
v 101.797050 32.531116 104.642853
v 72.364708 37.961842 98.811813
v 101.914383 34.436554 104.290649
v 101.797050 32.531116 104.642853
v 92.403259 38.837765 101.704170
v 129.071304 29.694950 119.968338
v 103.987488 42.988914 106.429070
v 129.857162 34.906429 124.307137
v 101.914383 34.436554 104.290649
v 103.987488 42.988914 106.429070
v 129.071304 29.694950 119.968338
v 74.819542 59.991917 98.826492
v 103.987488 42.988914 106.429070
v 101.914383 34.436554 104.290649
v 112.589394 99.677193 174.527817
v 88.712646 87.867416 136.109711
v 103.178482 109.691315 182.720779
v 137.397552 78.781403 177.834747
v 88.712646 87.867416 136.109711
v 112.589394 99.677193 174.527817
v 129.857162 34.906429 124.307137
v 88.712646 87.867416 136.109711
v 137.397552 78.781403 177.834747
v 103.178482 109.691315 182.720779
v 88.712646 87.867416 136.109711
v 86.981796 93.274406 144.918350
v 86.981796 93.274406 144.918350
v 88.712646 87.867416 136.109711
v 61.846958 65.891693 96.153229
v 61.846958 65.891693 96.153229
v 88.712646 87.867416 136.109711
v 74.819542 59.991917 98.826492
v 103.987488 42.988914 106.429070
v 88.712646 87.867416 136.109711
v 129.857162 34.906429 124.307137
v 74.819542 59.991917 98.826492
v 88.712646 87.867416 136.109711
v 103.987488 42.988914 106.429070
v 127.426613 -3.151629 157.845016
v 101.524193 -13.703046 137.335159
v 121.695816 -8.629107 127.676170
v 130.293701 0.852968 182.762436
v 101.524193 -13.703046 137.335159
v 127.426613 -3.151629 157.845016
v 121.695816 -8.629107 127.676170
v 101.524193 -13.703046 137.335159
v 63.987244 -22.071526 126.213036
v 63.987244 -22.071526 126.213036
v 101.524193 -13.703046 137.335159
v 68.367035 -21.027275 141.707687
v 49.546696 -22.876099 146.958862
v 29.231195 21.730806 167.665298
v 33.819500 8.725405 132.038513
v 23.680513 33.570225 134.882309
v 29.231195 21.730806 167.665298
v 22.418816 44.078781 166.715485
v 33.819500 8.725405 132.038513
v 29.231195 21.730806 167.665298
v 23.680513 33.570225 134.882309
v 45.494736 10.551873 199.830444
v 29.231195 21.730806 167.665298
v 51.047005 -13.705500 170.949951
v 49.546696 -22.876099 146.958862
v 51.047005 -13.705500 170.949951
v 29.231195 21.730806 167.665298
v 35.033051 32.585190 203.250366
v 29.231195 21.730806 167.665298
v 45.494736 10.551873 199.830444
v 22.418816 44.078781 166.715485
v 29.231195 21.730806 167.665298
v 35.033051 32.585190 203.250366
v 63.987244 -22.071526 126.213036
v 75.901482 -4.292275 118.919273
v 124.864601 6.760022 120.048233
v 63.987244 -22.071526 126.213036
v 55.283951 18.217932 104.910439
v 75.901482 -4.292275 118.919273
v 55.283951 18.217932 104.910439
v 124.864601 6.760022 120.048233
v 75.901482 -4.292275 118.919273
v 124.864601 6.760022 120.048233
v 92.607910 26.184788 106.228851
v 101.797050 32.531116 104.642853
v 101.797050 32.531116 104.642853
v 92.607910 26.184788 106.228851
v 55.283951 18.217932 104.910439
v 55.283951 18.217932 104.910439
v 92.607910 26.184788 106.228851
v 124.864601 6.760022 120.048233
v 74.427986 -7.353916 214.810883
v 93.396843 -9.256455 182.280563
v 130.293701 0.852968 182.762436
v 74.427986 -7.353916 214.810883
v 68.367035 -21.027275 141.707687
v 93.396843 -9.256455 182.280563
v 130.293701 0.852968 182.762436
v 93.396843 -9.256455 182.280563
v 101.524193 -13.703046 137.335159
v 101.524193 -13.703046 137.335159
v 93.396843 -9.256455 182.280563
v 68.367035 -21.027275 141.707687
vn 0.652618 0.744627 -0.140072
vn 0.575728 0.538224 0.615510
vn -0.636135 0.284415 -0.717246
vn -0.572290 0.348000 -0.742549
vn 0.648187 0.743549 -0.164283
vn -0.159983 -0.350844 0.922667
vn -0.314983 0.429025 -0.846595
vn 0.970761 0.234492 0.051353
vn 0.963901 0.186688 0.189851
vn 0.976078 -0.172464 0.132393
vn -0.615576 -0.087937 -0.783156
vn -0.357398 -0.243415 -0.901674
vn -0.988187 0.013065 -0.152695
vn -0.719218 -0.151240 -0.678124
vn 0.949766 -0.188972 -0.249469
vn 0.669817 -0.739646 -0.065338
vn -0.163796 0.977054 -0.136145
vn -0.810661 0.030368 0.584728
vn 0.622247 -0.543772 0.563134
vn -0.561042 -0.577056 -0.593496
vn -0.640204 -0.608256 -0.469216
vn 0.436069 -0.421603 0.795043
vn 0.154973 -0.088684 0.983930
vn -0.511670 -0.591311 0.623334
vn 0.679942 -0.433242 -0.591592
vn 0.129789 -0.461677 -0.877502
vn -0.437541 -0.756469 0.486120
vn -0.648895 -0.556436 0.518955
vn -0.324347 0.942645 0.078868
vn -0.321600 0.944281 0.070044
vn -0.863928 0.499991 -0.060304
vn -0.789130 -0.488774 0.371986
vn -0.426308 -0.774486 0.467368
vn -0.287871 0.383656 0.877461
vn -0.258891 0.691320 0.674576
vn -0.180215 0.651116 0.737272
vn -0.416989 0.515771 0.748399
vn -0.323955 0.678775 0.659028
vn -0.465645 0.562761 0.682990
vn -0.178390 -0.356643 -0.917051
vn -0.495694 -0.567754 -0.657224
vn -0.457174 -0.548609 -0.700014
vn -0.448482 -0.564503 -0.692965
vn 0.405488 0.390654 0.826419
vn -0.483811 0.632853 0.604503
vn -0.465823 0.562927 0.682732
vn -0.989987 -0.018109 -0.139992
vn 0.410812 0.346044 0.843497
vn 0.407260 0.350484 0.843386
vn 0.939617 -0.098445 -0.327764
vn 0.862073 -0.159796 -0.480932
vn -0.915621 0.112584 0.385956
vn 0.531164 -0.544022 0.649542
vn 0.337551 -0.867084 0.366367
vn 0.438348 -0.427702 0.790520
vn -0.410099 0.908384 -0.081589
vn -0.763690 0.645525 0.008689
vn -0.647853 0.761489 0.020496
vn -0.721202 0.692068 0.030169
vn 0.153331 -0.055986 0.986588
vn 0.071691 0.274187 0.959001
vn 0.199872 0.376128 0.904754
vn 0.264898 0.368667 0.891018
vn 0.372786 0.274051 0.886525
vn 0.371463 0.310118 0.875124
vn 0.350713 0.331257 0.875939
vn -0.013849 -0.305756 -0.952009
vn -0.116700 -0.349481 -0.929647
vn 0.031883 -0.461794 -0.886414
vn -0.807818 -0.470254 0.355374
vn -0.798155 -0.482318 0.360996
vn -0.826497 -0.445789 0.343765
vn -0.844361 0.534382 -0.038592
vn -0.769674 0.638302 0.013109
vn -0.995256 0.073520 -0.063717
vn -0.985715 0.145453 -0.084903
vn -0.868103 0.493330 -0.054977
vn -0.933898 0.081580 0.348107
vn -0.571437 0.643105 0.509780
vn -0.573600 0.643827 0.506428
vn -0.708750 0.534331 0.460612
vn -0.776422 0.492227 0.393550
vn -0.740296 0.516294 0.430584
vn -0.771764 0.635361 0.026405
vn -0.636847 0.656733 0.403891
vn -0.825634 0.538834 0.167291
vn 0.465897 -0.881936 0.071624
vn 0.449011 -0.888861 0.091188
vn 0.900917 0.264728 -0.343901
vn 0.923943 0.152681 -0.350738
vn -0.857145 -0.494547 -0.143961
vn -0.925848 -0.377895 0.000550
vn 0.130821 -0.045008 -0.990384
vn 0.006270 -0.300070 -0.953897
vn -0.108439 0.877996 -0.466224
vn -0.148823 0.887657 -0.435794
vn -0.075347 0.881440 -0.466248
vn -0.623277 0.763601 -0.168640
vn -0.743885 0.668105 -0.016437
vn -0.339931 0.896251 -0.284921
vn -0.155057 0.888252 -0.432395
vn -0.043620 -0.970294 0.237965
vn -0.324876 -0.880552 0.345085
vn -0.397734 -0.861745 0.314964
vn 0.096381 0.897218 -0.430941
vn -0.035528 0.879096 -0.475320
vn 0.143329 -0.974884 0.170461
vn 0.107779 -0.993505 0.036491
vn -0.832336 -0.492730 0.253838
vn -0.783383 -0.562656 0.264065
vn 0.485729 -0.092120 -0.869242
vn 0.144447 -0.039718 -0.988715
vn 0.225515 0.055135 -0.972678
vn 0.318547 0.137192 -0.937926
vn 0.389036 -0.190553 -0.901300
vn 0.111731 -0.380251 -0.918110
vn 0.148841 -0.226794 -0.962502
vn 0.175112 -0.189370 -0.966165
vn 0.597812 0.457748 -0.658094
vn 0.509710 0.090375 -0.855587
vn 0.331535 0.152433 -0.931047
vn 0.400869 0.775619 -0.487565
vn 0.580935 0.603220 -0.546480
vn 0.588925 0.582400 -0.560337
vn 0.243401 0.847212 -0.472216
vn 0.062893 0.856025 -0.513094
vn 0.423784 0.642581 -0.638355
vn 0.578463 0.577730 -0.575854
vn 0.507261 0.588820 -0.629267
vn 0.294311 -0.948604 0.116323
vn 0.292419 -0.948876 0.118852
vn 0.227580 -0.973097 -0.035902
vn 0.216279 -0.976321 0.004664
vn -0.902048 -0.429712 0.040692
vn -0.955642 -0.288867 0.057482
vn -0.924913 -0.379680 0.019483
vn -0.834430 -0.490394 0.251474
vn -0.836347 -0.492583 0.240592
vn -0.851245 -0.446881 0.275099
vn -0.932355 -0.274196 0.235650
vn 0.120916 -0.445039 -0.887310
vn 0.118767 -0.443943 -0.888149
vn 0.120414 -0.442687 -0.888554
vn 0.133428 -0.417788 -0.898694
vn 0.116840 -0.396714 -0.910476
vn 0.123538 -0.430829 -0.893938
vn 0.256174 -0.944723 0.204630
vn 0.186906 -0.968316 0.165619
vn 0.259874 -0.955220 0.141495
vn 0.230858 -0.963288 0.137046
f 1//1 2//1 3//1
f 4//2 5//2 6//2
f 7//3 8//3 9//3
f 10//4 11//4 12//4
f 13//5 14//5 15//5
f 16//6 17//6 18//6
f 19//7 20//7 21//7
f 22//8 23//8 24//8
f 25//9 26//9 27//9
f 28//10 29//10 30//10
f 31//11 32//11 33//11
f 34//12 35//12 36//12
f 37//13 38//13 39//13
f 40//14 41//14 42//14
f 43//15 44//15 45//15
f 46//16 47//16 48//16
f 49//17 50//17 51//17
f 52//18 53//18 54//18
f 55//19 56//19 57//19
f 58//20 59//20 60//20
f 61//21 62//21 63//21
f 64//22 65//22 66//22
f 67//23 68//23 69//23
f 70//24 71//24 72//24
f 73//25 74//25 75//25
f 76//26 77//26 78//26
f 79//27 80//27 81//27
f 82//28 83//28 84//28
f 85//29 86//29 87//29
f 88//30 89//30 90//30
f 91//31 92//31 93//31
f 94//32 95//32 96//32
f 97//33 98//33 99//33
f 100//34 101//34 102//34
f 103//35 104//35 105//35
f 106//36 107//36 108//36
f 109//37 110//37 111//37
f 112//38 113//38 114//38
f 115//39 116//39 117//39
f 118//40 119//40 120//40
f 121//41 122//41 123//41
f 124//42 125//42 126//42
f 127//43 128//43 129//43
f 130//44 131//44 132//44
f 133//45 134//45 135//45
f 136//46 137//46 138//46
f 139//47 140//47 141//47
f 142//48 143//48 144//48
f 145//49 146//49 147//49
f 148//50 149//50 150//50
f 151//51 152//51 153//51
f 154//52 155//52 156//52
f 157//53 158//53 159//53
f 160//54 161//54 162//54
f 163//55 164//55 165//55
f 166//56 167//56 168//56
f 169//57 170//57 171//57
f 172//58 173//58 174//58
f 175//59 176//59 177//59
f 178//60 179//60 180//60
f 181//61 182//61 183//61
f 184//62 185//62 186//62
f 187//63 188//63 189//63
f 190//64 191//64 192//64
f 193//65 194//65 195//65
f 196//66 197//66 198//66
f 199//67 200//67 201//67
f 202//68 203//68 204//68
f 205//69 206//69 207//69
f 208//70 209//70 210//70
f 211//71 212//71 213//71
f 214//72 215//72 216//72
f 217//73 218//73 219//73
f 220//74 221//74 222//74
f 223//75 224//75 225//75
f 226//76 227//76 228//76
f 229//77 230//77 231//77
f 232//78 233//78 234//78
f 235//79 236//79 237//79
f 238//80 239//80 240//80
f 241//81 242//81 243//81
f 244//82 245//82 246//82
f 247//83 248//83 249//83
f 250//84 251//84 252//84
f 253//85 254//85 255//85
f 256//86 257//86 258//86
f 259//87 260//87 261//87
f 262//88 263//88 264//88
f 265//89 266//89 267//89
f 268//90 269//90 270//90
f 271//91 272//91 273//91
f 274//92 275//92 276//92
f 277//93 278//93 279//93
f 280//94 281//94 282//94
f 283//95 284//95 285//95
f 286//96 287//96 288//96
f 289//97 290//97 291//97
f 292//98 293//98 294//98
f 295//99 296//99 297//99
f 298//100 299//100 300//100
f 301//101 302//101 303//101
f 304//102 305//102 306//102
f 307//103 308//103 309//103
f 310//104 311//104 312//104
f 313//105 314//105 315//105
f 316//106 317//106 318//106
f 319//107 320//107 321//107
f 322//108 323//108 324//108
f 325//109 326//109 327//109
f 328//110 329//110 330//110
f 331//111 332//111 333//111
f 334//112 335//112 336//112
f 337//113 338//113 339//113
f 340//114 341//114 342//114
f 343//115 344//115 345//115
f 346//116 347//116 348//116
f 349//117 350//117 351//117
f 352//118 353//118 354//118
f 355//119 356//119 357//119
f 358//120 359//120 360//120
f 361//121 362//121 363//121
f 364//122 365//122 366//122
f 367//123 368//123 369//123
f 370//124 371//124 372//124
f 373//125 374//125 375//125
f 376//126 377//126 378//126
f 379//127 380//127 381//127
f 382//128 383//128 384//128
f 385//129 386//129 387//129
f 388//130 389//130 390//130
f 391//131 392//131 393//131
f 394//132 395//132 396//132
f 397//133 398//133 399//133
f 400//134 401//134 402//134
f 403//135 404//135 405//135
f 406//136 407//136 408//136
f 409//137 410//137 411//137
f 412//138 413//138 414//138
f 415//139 416//139 417//139
f 418//140 419//140 420//140
f 421//141 422//141 423//141
f 424//142 425//142 426//142
f 427//143 428//143 429//143
f 430//144 431//144 432//144
f 433//145 434//145 435//145
f 436//146 437//146 438//146
f 439//147 440//147 441//147
f 442//148 443//148 444//148
f 445//149 446//149 447//149
f 448//150 449//150 450//150
