o
v -1.719987 5.233734 39.629288
v -40.899841 13.468440 20.421686
v -41.379642 13.266748 20.862944
v -1.719987 5.233734 39.629288
v -41.067844 13.525590 20.138727
v -40.899841 13.468440 20.421686
v -40.899841 13.468440 20.421686
v -41.067844 13.525590 20.138727
v -41.379642 13.266748 20.862944
v -41.067844 13.525590 20.138727
v -41.068035 13.525578 20.138597
v -41.379642 13.266748 20.862944
v -1.719987 5.233734 39.629288
v -41.379642 13.266748 20.862944
v -15.335081 2.548822 40.965759
v -1.719987 5.233734 39.629288
v -15.335081 2.548822 40.965759
v -15.057493 1.925704 40.744511
v 36.265366 -8.518663 -23.146448
v 35.291515 -7.885826 -23.765110
v -1.719987 5.233734 39.629288
v 36.106773 -8.438324 -23.400837
v 35.291515 -7.885826 -23.765110
v 36.265366 -8.518663 -23.146448
v 35.236565 -7.899059 -23.976276
v 35.291515 -7.885826 -23.765110
v 36.106773 -8.438324 -23.400837
v -41.067844 13.525590 20.138727
v 4.505124 9.416911 -25.903847
v -41.068035 13.525578 20.138597
v -1.719987 5.233734 39.629288
v 4.505124 9.416911 -25.903847
v -41.067844 13.525590 20.138727
v 35.291515 -7.885826 -23.765110
v 4.505124 9.416911 -25.903847
v -1.719987 5.233734 39.629288
v 35.236565 -7.899059 -23.976276
v 4.505124 9.416911 -25.903847
v 35.291515 -7.885826 -23.765110
v -41.068035 13.525578 20.138597
v -49.911312 -0.928342 -12.801584
v -41.379642 13.266748 20.862944
v 4.505124 9.416911 -25.903847
v -49.911312 -0.928342 -12.801584
v -41.068035 13.525578 20.138597
v -41.379642 13.266748 20.862944
v -31.878897 -9.092537 30.132517
v -15.335081 2.548822 40.965759
v -49.911312 -0.928342 -12.801584
v -31.878897 -9.092537 30.132517
v -41.379642 13.266748 20.862944
v 35.236565 -7.899059 -23.976276
v -27.060825 -2.494913 -29.098114
v 4.505124 9.416911 -25.903847
v 4.505124 9.416911 -25.903847
v -27.060825 -2.494913 -29.098114
v -49.911312 -0.928342 -12.801584
v -15.335081 2.548822 40.965759
v -21.009876 -21.140972 31.381041
v -15.057493 1.925704 40.744511
v -31.878897 -9.092537 30.132517
v -21.009876 -21.140972 31.381041
v -15.335081 2.548822 40.965759
v -31.878897 -9.092537 30.132517
v -23.082424 -20.691387 30.005373
v -21.009876 -21.140972 31.381041
v 36.265366 -8.518663 -23.146448
v -1.719987 5.233734 39.629288
v 23.261751 -30.864954 -9.818608
v 36.106773 -8.438324 -23.400837
v 36.265366 -8.518663 -23.146448
v 3.069105 -45.288788 -18.028095
v 36.265366 -8.518663 -23.146448
v 23.261751 -30.864954 -9.818608
v 3.069105 -45.288788 -18.028095
v -1.719987 5.233734 39.629288
v -15.057493 1.925704 40.744511
v -1.396515 -33.771179 24.327106
v -21.009876 -21.140972 31.381041
v -1.396515 -33.771179 24.327106
v -15.057493 1.925704 40.744511
v -31.878897 -9.092537 30.132517
v -20.196836 -30.103416 26.462080
v -23.082424 -20.691387 30.005373
v -23.082424 -20.691387 30.005373
v -20.196836 -30.103416 26.462080
v -21.009876 -21.140972 31.381041
v -21.009876 -21.140972 31.381041
v -9.686244 -41.427414 21.026276
v -1.396515 -33.771179 24.327106
v -1.396515 -33.771179 24.327106
v -9.686244 -41.427414 21.026276
v -9.682487 -41.475342 20.985214
v -20.196836 -30.103416 26.462080
v -9.686244 -41.427414 21.026276
v -21.009876 -21.140972 31.381041
v -9.682487 -41.475342 20.985214
v -9.686244 -41.427414 21.026276
v -20.196836 -30.103416 26.462080
v -1.719987 5.233734 39.629288
v 1.338379 -29.462030 23.357101
v 23.261751 -30.864954 -9.818608
v -1.719987 5.233734 39.629288
v -1.396515 -33.771179 24.327106
v 1.338379 -29.462030 23.357101
v -1.396515 -33.771179 24.327106
v 23.261751 -30.864954 -9.818608
v 1.338379 -29.462030 23.357101
v 23.261751 -30.864954 -9.818608
v 3.914725 -47.611977 -2.526454
v 3.069105 -45.288788 -18.028095
v -1.396515 -33.771179 24.327106
v -9.682487 -41.475342 20.985214
v 3.914725 -47.611977 -2.526454
v -1.396515 -33.771179 24.327106
v 3.914725 -47.611977 -2.526454
v 23.261751 -30.864954 -9.818608
v 36.106773 -8.438324 -23.400837
v 3.069105 -45.288788 -18.028095
v 1.530497 -40.497021 -21.618349
v 35.236565 -7.899059 -23.976276
v 36.106773 -8.438324 -23.400837
v 1.364264 -40.396427 -21.728865
v 36.106773 -8.438324 -23.400837
v 1.530497 -40.497021 -21.618349
v 1.364264 -40.396427 -21.728865
v 3.069105 -45.288788 -18.028095
v 1.364264 -40.396427 -21.728865
v 1.530497 -40.497021 -21.618349
v 35.236565 -7.899059 -23.976276
v 1.364264 -40.396427 -21.728865
v 0.220128 -39.772820 -22.079401
v 1.364264 -40.396427 -21.728865
v -0.510787 -40.087589 -22.081722
v 0.220128 -39.772820 -22.079401
v 35.236565 -7.899059 -23.976276
v -0.069667 -39.697887 -22.127941
v -27.060825 -2.494913 -29.098114
v 35.236565 -7.899059 -23.976276
v 0.220128 -39.772820 -22.079401
v -0.069667 -39.697887 -22.127941
v -0.510787 -40.087589 -22.081722
v -0.069667 -39.697887 -22.127941
v 0.220128 -39.772820 -22.079401
v -27.060825 -2.494913 -29.098114
v -0.069667 -39.697887 -22.127941
v -0.510787 -40.087589 -22.081722
v 3.069105 -45.288788 -18.028095
v -3.477904 -41.521942 -21.428955
v 1.364264 -40.396427 -21.728865
v 1.364264 -40.396427 -21.728865
v -3.477904 -41.521942 -21.428955
v -0.510787 -40.087589 -22.081722
v -27.060825 -2.494913 -29.098114
v -0.510787 -40.087589 -22.081722
v -14.001212 -32.948460 -23.178230
v -3.477904 -41.521942 -21.428955
v -14.001212 -32.948460 -23.178230
v -0.510787 -40.087589 -22.081722
v 3.914725 -47.611977 -2.526454
v -17.163004 -43.035610 -11.885428
v 3.069105 -45.288788 -18.028095
v 3.069105 -45.288788 -18.028095
v -17.163004 -43.035610 -11.885428
v -3.477904 -41.521942 -21.428955
v -9.682487 -41.475342 20.985214
v -17.163004 -43.035610 -11.885428
v 3.914725 -47.611977 -2.526454
v -3.477904 -41.521942 -21.428955
v -17.627935 -37.158783 -18.980387
v -14.001212 -32.948460 -23.178230
v -17.163004 -43.035610 -11.885428
v -17.627935 -37.158783 -18.980387
v -3.477904 -41.521942 -21.428955
v -27.060825 -2.494913 -29.098114
v -17.627935 -37.158783 -18.980387
v -49.911312 -0.928342 -12.801584
v -27.060825 -2.494913 -29.098114
v -14.001212 -32.948460 -23.178230
v -17.627935 -37.158783 -18.980387
v -49.911312 -0.928342 -12.801584
v -17.627935 -37.158783 -18.980387
v -17.163004 -43.035610 -11.885428
v -9.682487 -41.475342 20.985214
v -20.196836 -30.103416 26.462080
v -23.626991 -34.697517 12.400397
v -9.682487 -41.475342 20.985214
v -23.626991 -34.697517 12.400397
v -17.163004 -43.035610 -11.885428
v -49.911312 -0.928342 -12.801584
v -25.262444 -33.885990 11.355004
v -31.878897 -9.092537 30.132517
v -31.878897 -9.092537 30.132517
v -25.262444 -33.885990 11.355004
v -20.196836 -30.103416 26.462080
v -20.196836 -30.103416 26.462080
v -25.262444 -33.885990 11.355004
v -23.626991 -34.697517 12.400397
v -49.911312 -0.928342 -12.801584
v -17.163004 -43.035610 -11.885428
v -25.262444 -33.885990 11.355004
v -23.626991 -34.697517 12.400397
v -25.262444 -33.885990 11.355004
v -17.163004 -43.035610 -11.885428
vn -0.008279 0.912837 0.408241
vn 0.154022 0.982263 0.106942
vn -0.144146 0.949870 0.277432
vn -0.221423 0.944590 0.242276
vn -0.104726 0.814856 0.570125
vn 0.147017 -0.272159 0.950955
vn 0.492221 0.863664 0.108637
vn 0.592638 0.796805 -0.117824
vn 0.610516 0.764533 -0.206783
vn 0.000405 0.996077 -0.088485
vn 0.168092 0.982625 0.078691
vn 0.482065 0.870255 0.101343
vn 0.491371 0.851882 -0.181252
vn -0.748747 0.657081 -0.087310
vn -0.252570 0.909156 -0.331125
vn -0.586804 0.084518 0.805306
vn -0.909197 -0.247532 0.334795
vn 0.085379 0.040707 -0.995517
vn -0.271763 0.844106 -0.462201
vn -0.067266 -0.360320 0.930400
vn -0.392405 -0.262648 0.881496
vn -0.561718 -0.433725 0.704525
vn 0.828170 -0.161890 0.536588
vn 0.579818 -0.600163 -0.551013
vn 0.633272 -0.633588 -0.444446
vn 0.165833 -0.358966 0.918500
vn 0.077229 -0.392045 0.916699
vn -0.565785 -0.436753 0.699381
vn -0.561337 -0.436739 0.702965
vn 0.043466 -0.434845 0.899456
vn 0.271702 -0.613764 0.741263
vn -0.071625 -0.484889 0.871638
vn -0.314151 -0.631757 0.708655
vn 0.816327 -0.184706 0.547261
vn 0.667458 -0.267153 0.695075
vn 0.767939 -0.369636 0.523105
vn 0.614267 -0.774783 -0.149623
vn 0.489375 -0.731969 0.474061
vn 0.676959 -0.591098 0.438555
vn 0.392560 -0.467429 -0.792090
vn 0.322955 -0.396063 -0.859554
vn 0.326959 -0.400236 -0.856101
vn 0.213470 -0.540973 -0.813498
vn 0.164061 -0.237220 -0.957503
vn 0.129725 -0.294247 -0.946885
vn 0.069580 -0.134708 -0.988439
vn 0.115605 -0.185081 -0.975900
vn 0.102423 -0.230697 -0.967620
vn 0.036523 -0.158366 -0.986705
vn 0.085200 -0.582034 -0.808689
vn 0.071280 -0.531558 -0.844017
vn -0.027343 -0.202033 -0.978997
vn -0.072814 -0.284416 -0.955932
vn -0.151038 -0.978785 -0.138449
vn -0.238978 -0.845876 -0.476848
vn -0.254752 -0.961440 0.103612
vn -0.300788 -0.530848 -0.792292
vn -0.329436 -0.737623 -0.589393
vn -0.556350 -0.368745 -0.744649
vn -0.491860 -0.364622 -0.790648
vn -0.712064 -0.562927 -0.419617
vn -0.582304 -0.720110 0.377312
vn -0.507739 -0.847312 0.155768
vn -0.855725 -0.437546 0.276204
vn -0.776315 -0.498929 0.385233
vn -0.593748 -0.710830 0.377072
vn -0.788587 -0.614032 -0.033087
vn -0.515682 -0.843149 0.152224
f 1//1 2//1 3//1
f 4//2 5//2 6//2
f 7//3 8//3 9//3
f 10//4 11//4 12//4
f 13//5 14//5 15//5
f 16//6 17//6 18//6
f 19//7 20//7 21//7
f 22//8 23//8 24//8
f 25//9 26//9 27//9
f 28//10 29//10 30//10
f 31//11 32//11 33//11
f 34//12 35//12 36//12
f 37//13 38//13 39//13
f 40//14 41//14 42//14
f 43//15 44//15 45//15
f 46//16 47//16 48//16
f 49//17 50//17 51//17
f 52//18 53//18 54//18
f 55//19 56//19 57//19
f 58//20 59//20 60//20
f 61//21 62//21 63//21
f 64//22 65//22 66//22
f 67//23 68//23 69//23
f 70//24 71//24 72//24
f 73//25 74//25 75//25
f 76//26 77//26 78//26
f 79//27 80//27 81//27
f 82//28 83//28 84//28
f 85//29 86//29 87//29
f 88//30 89//30 90//30
f 91//31 92//31 93//31
f 94//32 95//32 96//32
f 97//33 98//33 99//33
f 100//34 101//34 102//34
f 103//35 104//35 105//35
f 106//36 107//36 108//36
f 109//37 110//37 111//37
f 112//38 113//38 114//38
f 115//39 116//39 117//39
f 118//40 119//40 120//40
f 121//41 122//41 123//41
f 124//42 125//42 126//42
f 127//43 128//43 129//43
f 130//44 131//44 132//44
f 133//45 134//45 135//45
f 136//46 137//46 138//46
f 139//47 140//47 141//47
f 142//48 143//48 144//48
f 145//49 146//49 147//49
f 148//50 149//50 150//50
f 151//51 152//51 153//51
f 154//52 155//52 156//52
f 157//53 158//53 159//53
f 160//54 161//54 162//54
f 163//55 164//55 165//55
f 166//56 167//56 168//56
f 169//57 170//57 171//57
f 172//58 173//58 174//58
f 175//59 176//59 177//59
f 178//60 179//60 180//60
f 181//61 182//61 183//61
f 184//62 185//62 186//62
f 187//63 188//63 189//63
f 190//64 191//64 192//64
f 193//65 194//65 195//65
f 196//66 197//66 198//66
f 199//67 200//67 201//67
f 202//68 203//68 204//68
