o
v 7.615684 -23.875786 -22.857862
v 10.517141 8.117723 -9.770703
v 15.442555 37.658024 -12.757361
v 7.615684 -23.875786 -22.857862
v 10.537595 8.124705 -8.846821
v 10.517141 8.117723 -9.770703
v 22.849119 37.491989 15.211992
v 15.442555 37.658024 -12.757361
v 10.537595 8.124705 -8.846821
v 10.517141 8.117723 -9.770703
v 10.537595 8.124705 -8.846821
v 15.442555 37.658024 -12.757361
v 7.615684 -23.875786 -22.857862
v 12.102334 8.304910 -6.112401
v 10.537595 8.124705 -8.846821
v 22.849119 37.491989 15.211992
v 10.537595 8.124705 -8.846821
v 12.102334 8.304910 -6.112401
v 7.615684 -23.875786 -22.857862
v 15.442555 37.658024 -12.757361
v 34.107288 9.134095 -30.219854
v 15.442555 37.658024 -12.757361
v 34.089287 9.255225 -30.103153
v 34.107288 9.134095 -30.219854
v 7.615684 -23.875786 -22.857862
v 35.508415 -18.889109 -13.928139
v 25.638645 -26.122612 -5.436514
v 7.615684 -23.875786 -22.857862
v 34.107288 9.134095 -30.219854
v 36.333767 -8.498901 -22.833277
v 7.615684 -23.875786 -22.857862
v 36.333767 -8.498901 -22.833277
v 35.508415 -18.889109 -13.928139
v 36.333767 -8.498901 -22.833277
v 42.787621 -6.178734 -21.497578
v 35.508415 -18.889109 -13.928139
v 34.107288 9.134095 -30.219854
v 42.754532 -6.165849 -21.517836
v 36.333767 -8.498901 -22.833277
v 34.107288 9.134095 -30.219854
v 42.787621 -6.178734 -21.497578
v 42.754532 -6.165849 -21.517836
v 36.333767 -8.498901 -22.833277
v 42.754532 -6.165849 -21.517836
v 42.787621 -6.178734 -21.497578
v 42.787621 -6.178734 -21.497578
v 41.174919 -10.707501 -17.034193
v 35.508415 -18.889109 -13.928139
v 22.849119 37.491989 15.211992
v 40.166462 11.617717 27.035587
v 43.648392 14.408179 20.133011
v 22.849119 37.491989 15.211992
v 37.513451 34.104183 -0.117011
v 15.442555 37.658024 -12.757361
v 15.442555 37.658024 -12.757361
v 37.513451 34.104183 -0.117011
v 34.089287 9.255225 -30.103153
v 34.089287 9.255225 -30.103153
v 37.513451 34.104183 -0.117011
v 34.107288 9.134095 -30.219854
v 35.508415 -18.889109 -13.928139
v 37.025047 -6.849997 15.135653
v 25.638645 -26.122612 -5.436514
v 7.615684 -23.875786 -22.857862
v 30.484659 4.322285 14.413723
v 12.102334 8.304910 -6.112401
v 7.615684 -23.875786 -22.857862
v 25.638645 -26.122612 -5.436514
v 30.484659 4.322285 14.413723
v 22.849119 37.491989 15.211992
v 12.102334 8.304910 -6.112401
v 30.484659 4.322285 14.413723
v 22.849119 37.491989 15.211992
v 30.484659 4.322285 14.413723
v 40.166462 11.617717 27.035587
v 40.166462 11.617717 27.035587
v 30.484659 4.322285 14.413723
v 37.025047 -6.849997 15.135653
v 37.025047 -6.849997 15.135653
v 30.484659 4.322285 14.413723
v 25.638645 -26.122612 -5.436514
v 22.849119 37.491989 15.211992
v 43.648392 14.408179 20.133011
v 43.777046 25.777580 5.178418
v 22.849119 37.491989 15.211992
v 43.777046 25.777580 5.178418
v 37.513451 34.104183 -0.117011
v 42.787621 -6.178734 -21.497578
v 48.786514 1.222536 -9.388578
v 41.174919 -10.707501 -17.034193
v 34.107288 9.134095 -30.219854
v 48.786514 1.222536 -9.388578
v 42.787621 -6.178734 -21.497578
v 40.166462 11.617717 27.035587
v 46.821102 6.368736 10.856931
v 43.648392 14.408179 20.133011
v 40.166462 11.617717 27.035587
v 37.025047 -6.849997 15.135653
v 46.821102 6.368736 10.856931
v 43.648392 14.408179 20.133011
v 46.273209 18.491177 7.820723
v 43.777046 25.777580 5.178418
v 43.777046 25.777580 5.178418
v 45.049194 23.002663 2.975306
v 37.513451 34.104183 -0.117011
v 46.273209 18.491177 7.820723
v 45.049709 23.001362 2.976596
v 43.777046 25.777580 5.178418
v 43.777046 25.777580 5.178418
v 45.049709 23.001362 2.976596
v 45.049194 23.002663 2.975306
v 41.174919 -10.707501 -17.034193
v 43.603348 -6.707242 -7.061736
v 35.508415 -18.889109 -13.928139
v 48.786514 1.222536 -9.388578
v 43.603348 -6.707242 -7.061736
v 41.174919 -10.707501 -17.034193
v 35.508415 -18.889109 -13.928139
v 43.603348 -6.707242 -7.061736
v 37.025047 -6.849997 15.135653
v 46.821102 6.368736 10.856931
v 48.973007 8.525965 4.205354
v 43.648392 14.408179 20.133011
v 43.648392 14.408179 20.133011
v 49.265018 9.749505 2.692610
v 46.273209 18.491177 7.820723
v 48.973007 8.525965 4.205354
v 49.265018 9.749505 2.692610
v 43.648392 14.408179 20.133011
v 46.273209 18.491177 7.820723
v 49.265018 9.749505 2.692610
v 45.049709 23.001362 2.976596
v 45.049194 23.002663 2.975306
v 49.265018 9.749505 2.692610
v 48.786514 1.222536 -9.388578
v 48.786514 1.222536 -9.388578
v 49.265018 9.749505 2.692610
v 48.973007 8.525965 4.205354
v 45.049709 23.001362 2.976596
v 49.265018 9.749505 2.692610
v 45.049194 23.002663 2.975306
v 37.025047 -6.849997 15.135653
v 46.847160 2.109126 3.005288
v 46.821102 6.368736 10.856931
v 43.603348 -6.707242 -7.061736
v 46.847160 2.109126 3.005288
v 37.025047 -6.849997 15.135653
v 48.786514 1.222536 -9.388578
v 46.847160 2.109126 3.005288
v 43.603348 -6.707242 -7.061736
v 46.821102 6.368736 10.856931
v 46.847160 2.109126 3.005288
v 48.973007 8.525965 4.205354
v 48.786514 1.222536 -9.388578
v 48.973007 8.525965 4.205354
v 46.847160 2.109126 3.005288
v 37.513451 34.104183 -0.117011
v 44.066254 21.227365 -2.404774
v 34.107288 9.134095 -30.219854
v 45.049194 23.002663 2.975306
v 44.066254 21.227365 -2.404774
v 37.513451 34.104183 -0.117011
v 34.107288 9.134095 -30.219854
v 44.066254 21.227365 -2.404774
v 48.786514 1.222536 -9.388578
v 45.049194 23.002663 2.975306
v 48.786514 1.222536 -9.388578
v 44.066254 21.227365 -2.404774
vn -0.978128 0.148347 -0.145803
vn -0.996435 0.081594 0.021443
vn -0.948610 0.190959 0.252335
vn -0.985835 0.166453 0.020567
vn -0.855349 -0.140252 0.498706
vn -0.865755 -0.045368 0.498408
vn -0.487163 0.201449 -0.849759
vn 0.429054 0.658970 -0.617795
vn 0.285475 -0.867568 -0.407223
vn 0.192654 -0.358343 -0.913496
vn 0.336863 -0.628009 -0.701518
vn 0.366790 -0.622030 -0.691768
vn 0.304430 -0.335079 -0.891652
vn 0.434012 -0.247405 -0.866270
vn 0.332965 -0.448765 -0.829303
vn 0.686066 -0.619803 -0.380994
vn 0.565975 0.624659 0.538027
vn 0.182506 0.982286 -0.042498
vn 0.450011 0.661688 -0.599716
vn 0.498054 0.638891 -0.586311
vn 0.700260 -0.671724 0.241707
vn -0.747385 -0.221704 0.626309
vn -0.678353 -0.322471 0.660189
vn -0.749512 -0.187812 0.634790
vn -0.726084 -0.183092 0.662782
vn -0.645175 -0.333267 0.687519
vn -0.652583 -0.338216 0.678046
vn 0.592740 0.638678 0.490662
vn 0.586879 0.700120 0.406700
vn 0.874471 -0.460788 -0.151576
vn 0.834912 0.176302 -0.521382
vn 0.904861 -0.115627 0.409703
vn 0.778368 -0.428226 0.459093
vn 0.855675 0.408400 0.317852
vn 0.836662 0.520045 -0.171904
vn 0.931037 0.352793 0.093317
vn 0.917980 0.395322 0.032146
vn 0.826181 -0.562867 0.024597
vn 0.838848 -0.544185 0.014019
vn 0.751395 -0.622565 0.218676
vn 0.949932 0.014766 0.312109
vn 0.950079 0.172739 0.259828
vn 0.954119 0.114405 0.276711
vn 0.952412 0.302082 0.040703
vn 0.921837 0.298509 -0.247201
vn 0.986131 -0.151466 0.067848
vn 0.949962 0.303738 -0.072908
vn 0.812413 -0.511384 0.280128
vn 0.796359 -0.558388 0.232414
vn 0.846997 -0.504153 0.168600
vn 0.921375 -0.340348 0.187701
vn 0.925728 -0.338303 0.169055
vn 0.749735 0.465150 -0.470672
vn 0.824951 0.474393 -0.307257
vn 0.823110 0.350266 -0.446994
vn 0.912308 0.309055 -0.268660
f 1//1 2//1 3//1
f 4//2 5//2 6//2
f 7//3 8//3 9//3
f 10//4 11//4 12//4
f 13//5 14//5 15//5
f 16//6 17//6 18//6
f 19//7 20//7 21//7
f 22//8 23//8 24//8
f 25//9 26//9 27//9
f 28//10 29//10 30//10
f 31//11 32//11 33//11
f 34//12 35//12 36//12
f 37//13 38//13 39//13
f 40//14 41//14 42//14
f 43//15 44//15 45//15
f 46//16 47//16 48//16
f 49//17 50//17 51//17
f 52//18 53//18 54//18
f 55//19 56//19 57//19
f 58//20 59//20 60//20
f 61//21 62//21 63//21
f 64//22 65//22 66//22
f 67//23 68//23 69//23
f 70//24 71//24 72//24
f 73//25 74//25 75//25
f 76//26 77//26 78//26
f 79//27 80//27 81//27
f 82//28 83//28 84//28
f 85//29 86//29 87//29
f 88//30 89//30 90//30
f 91//31 92//31 93//31
f 94//32 95//32 96//32
f 97//33 98//33 99//33
f 100//34 101//34 102//34
f 103//35 104//35 105//35
f 106//36 107//36 108//36
f 109//37 110//37 111//37
f 112//38 113//38 114//38
f 115//39 116//39 117//39
f 118//40 119//40 120//40
f 121//41 122//41 123//41
f 124//42 125//42 126//42
f 127//43 128//43 129//43
f 130//44 131//44 132//44
f 133//45 134//45 135//45
f 136//46 137//46 138//46
f 139//47 140//47 141//47
f 142//48 143//48 144//48
f 145//49 146//49 147//49
f 148//50 149//50 150//50
f 151//51 152//51 153//51
f 154//52 155//52 156//52
f 157//53 158//53 159//53
f 160//54 161//54 162//54
f 163//55 164//55 165//55
f 166//56 167//56 168//56
