o
v -16.069906 11.855717 -25.754616
v -23.029579 -36.299290 -4.001011
v -15.255262 2.098225 39.668327
v -6.490262 20.255451 -19.880713
v -16.069906 11.855717 -25.754616
v -15.255262 2.098225 39.668327
v -14.392692 -48.831600 9.377784
v -15.255262 2.098225 39.668327
v -23.029579 -36.299290 -4.001011
v -16.069906 11.855717 -25.754616
v -17.757927 -21.138300 -15.836459
v -23.029579 -36.299290 -4.001011
v -23.029579 -36.299290 -4.001011
v -17.757927 -21.138300 -15.836459
v 6.057248 -39.321972 -26.896883
v 6.057248 -39.321972 -26.896883
v -17.757927 -21.138300 -15.836459
v -16.069906 11.855717 -25.754616
v 6.057248 -39.321972 -26.896883
v -16.069906 11.855717 -25.754616
v 7.543448 -35.031593 -26.536554
v -14.392692 -48.831600 9.377784
v -23.029579 -36.299290 -4.001011
v -4.564545 -46.737381 -7.931003
v -23.029579 -36.299290 -4.001011
v 6.057248 -39.321972 -26.896883
v -4.564545 -46.737381 -7.931003
v -14.392692 -48.831600 9.377784
v -4.564545 -46.737381 -7.931003
v 5.895603 -49.776226 10.076109
v 6.057248 -39.321972 -26.896883
v 9.323072 -46.190525 -6.359468
v -4.564545 -46.737381 -7.931003
v 6.057248 -39.321972 -26.896883
v 6.302006 -39.400795 -26.535078
v 9.323072 -46.190525 -6.359468
v 6.383458 -39.422230 -26.404112
v 9.349550 -46.199810 -6.311196
v 6.302006 -39.400795 -26.535078
v 6.302006 -39.400795 -26.535078
v 9.349550 -46.199810 -6.311196
v 9.323072 -46.190525 -6.359468
v -4.564545 -46.737381 -7.931003
v 9.349550 -46.199810 -6.311196
v 5.895603 -49.776226 10.076109
v 9.323072 -46.190525 -6.359468
v 9.349550 -46.199810 -6.311196
v -4.564545 -46.737381 -7.931003
v -6.490262 20.255451 -19.880713
v -15.255262 2.098225 39.668327
v 17.337955 24.368870 14.910295
v 24.467138 -2.343760 42.824409
v 17.337955 24.368870 14.910295
v -15.255262 2.098225 39.668327
v 24.467138 -2.343760 42.824409
v 24.840366 -2.433125 42.491287
v 17.337955 24.368870 14.910295
v -6.490262 20.255451 -19.880713
v 17.337955 24.368870 14.910295
v 17.429409 24.343988 14.766328
v -14.392692 -48.831600 9.377784
v -2.189008 -25.824606 35.332230
v -15.255262 2.098225 39.668327
v 24.467138 -2.343760 42.824409
v -15.255262 2.098225 39.668327
v -2.189008 -25.824606 35.332230
v -14.392692 -48.831600 9.377784
v -0.398348 -33.793266 30.873932
v -2.189008 -25.824606 35.332230
v 24.467138 -2.343760 42.824409
v -2.189008 -25.824606 35.332230
v -0.398348 -33.793266 30.873932
v 6.057248 -39.321972 -26.896883
v 7.543448 -35.031593 -26.536554
v 16.873140 -28.774061 -20.336691
v 24.467138 -2.343760 42.824409
v 9.312020 -40.566051 25.525925
v 24.840366 -2.433125 42.491287
v 24.467138 -2.343760 42.824409
v -0.398348 -33.793266 30.873932
v 9.312020 -40.566051 25.525925
v -14.392692 -48.831600 9.377784
v 5.895603 -49.776226 10.076109
v 9.312020 -40.566051 25.525925
v -14.392692 -48.831600 9.377784
v 9.312020 -40.566051 25.525925
v -0.398348 -33.793266 30.873932
v 24.840366 -2.433125 42.491287
v 40.429123 -0.565539 8.288108
v 17.337955 24.368870 14.910295
v 17.337955 24.368870 14.910295
v 40.429123 -0.565539 8.288108
v 17.429409 24.343988 14.766328
v -6.490262 20.255451 -19.880713
v 17.429409 24.343988 14.766328
v 40.429123 -0.565539 8.288108
v 6.383458 -39.422230 -26.404112
v 6.302006 -39.400795 -26.535078
v 22.212385 -37.880047 -9.120453
v 6.057248 -39.321972 -26.896883
v 22.212385 -37.880047 -9.120453
v 6.302006 -39.400795 -26.535078
v 6.383458 -39.422230 -26.404112
v 22.212385 -37.880047 -9.120453
v 9.349550 -46.199810 -6.311196
v 9.349550 -46.199810 -6.311196
v 22.212385 -37.880047 -9.120453
v 5.895603 -49.776226 10.076109
v -6.490262 20.255451 -19.880713
v 16.541094 -10.396780 -21.792589
v -16.069906 11.855717 -25.754616
v -16.069906 11.855717 -25.754616
v 16.541094 -10.396780 -21.792589
v 7.543448 -35.031593 -26.536554
v 7.543448 -35.031593 -26.536554
v 16.541094 -10.396780 -21.792589
v 16.873140 -28.774061 -20.336691
v -6.490262 20.255451 -19.880713
v 40.429123 -0.565539 8.288108
v 16.541094 -10.396780 -21.792589
v 6.057248 -39.321972 -26.896883
v 16.873140 -28.774061 -20.336691
v 26.289787 -27.303368 -10.349154
v 6.057248 -39.321972 -26.896883
v 26.289787 -27.303368 -10.349154
v 22.212385 -37.880047 -9.120453
v 22.212385 -37.880047 -9.120453
v 26.289787 -27.303368 -10.349154
v 40.429123 -0.565539 8.288108
v 16.541094 -10.396780 -21.792589
v 26.289787 -27.303368 -10.349154
v 16.873140 -28.774061 -20.336691
v 40.429123 -0.565539 8.288108
v 21.577057 -15.690358 -15.831285
v 16.541094 -10.396780 -21.792589
v 26.289787 -27.303368 -10.349154
v 21.577057 -15.690358 -15.831285
v 40.429123 -0.565539 8.288108
v 16.541094 -10.396780 -21.792589
v 21.577057 -15.690358 -15.831285
v 26.289787 -27.303368 -10.349154
v 5.895603 -49.776226 10.076109
v 27.291676 -21.845509 24.180517
v 9.312020 -40.566051 25.525925
v 22.212385 -37.880047 -9.120453
v 27.291676 -21.845509 24.180517
v 5.895603 -49.776226 10.076109
v 9.312020 -40.566051 25.525925
v 27.291676 -21.845509 24.180517
v 24.840366 -2.433125 42.491287
v 24.840366 -2.433125 42.491287
v 27.291676 -21.845509 24.180517
v 40.429123 -0.565539 8.288108
v 27.291676 -21.845509 24.180517
v 31.393826 -16.908567 17.432760
v 40.429123 -0.565539 8.288108
v 22.212385 -37.880047 -9.120453
v 40.429123 -0.565539 8.288108
v 30.744947 -19.864594 14.788518
v 31.393826 -16.908567 17.432760
v 30.744947 -19.864594 14.788518
v 40.429123 -0.565539 8.288108
v 22.212385 -37.880047 -9.120453
v 30.744947 -19.864594 14.788518
v 27.291676 -21.845509 24.180517
v 27.291676 -21.845509 24.180517
v 30.744947 -19.864594 14.788518
v 31.393826 -16.908567 17.432760
vn -0.986647 0.158849 0.035977
vn -0.693761 0.711016 0.114683
vn -0.901735 -0.232155 0.364662
vn -0.845239 -0.113717 -0.522149
vn -0.601397 -0.351127 -0.717657
vn -0.542237 -0.216320 -0.811902
vn 0.078812 0.056290 -0.995299
vn -0.514909 -0.765907 -0.385040
vn -0.497815 -0.676135 -0.543160
vn -0.041120 -0.988869 -0.142993
vn 0.074089 -0.942158 -0.326878
vn 0.206707 -0.917527 -0.339729
vn 0.322682 -0.881413 -0.344945
vn 0.319169 -0.882726 -0.344857
vn 0.061119 -0.977783 -0.200512
vn 0.063429 -0.972994 -0.221944
vn -0.444049 0.873192 0.200888
vn 0.026509 0.725604 0.687602
vn 0.584016 0.655786 0.478404
vn 0.040884 0.988603 -0.144886
vn -0.639302 -0.401040 0.656094
vn -0.099623 -0.198042 0.975118
vn -0.519872 -0.503082 0.690393
vn 0.154958 -0.455611 0.876588
vn 0.614190 -0.147650 -0.775223
vn 0.499547 -0.513746 0.697509
vn 0.160891 -0.459186 0.873649
vn -0.057581 -0.851877 0.520567
vn -0.172531 -0.750817 0.637579
vn 0.729562 0.578925 0.364123
vn 0.729679 0.579222 0.363415
vn 0.579808 0.659703 -0.478137
vn 0.576378 -0.669830 -0.468098
vn 0.656666 -0.510229 -0.555388
vn 0.455774 -0.820865 -0.344168
vn 0.530456 -0.844604 -0.072525
vn 0.305710 0.286341 -0.908047
vn 0.197090 0.115494 -0.973559
vn 0.577572 -0.054095 -0.814545
vn 0.598163 0.489043 -0.634853
vn 0.708281 -0.342294 -0.617392
vn 0.708450 -0.344661 -0.615879
vn 0.914444 -0.371247 -0.161145
vn 0.729984 -0.040859 -0.682241
vn 0.777508 0.032413 -0.628037
vn 0.780890 0.022197 -0.624274
vn 0.767922 0.009286 -0.640476
vn 0.708875 -0.663653 0.238873
vn 0.723484 -0.658642 0.206788
vn 0.584550 -0.516443 0.625769
vn 0.884927 -0.255529 0.389370
vn 0.895025 -0.322314 0.308292
vn 0.895720 -0.444360 0.015164
vn 0.900637 -0.382391 0.206469
vn 0.788548 -0.592430 0.164983
vn 0.881833 -0.406848 0.238424
f 1//1 2//1 3//1
f 4//2 5//2 6//2
f 7//3 8//3 9//3
f 10//4 11//4 12//4
f 13//5 14//5 15//5
f 16//6 17//6 18//6
f 19//7 20//7 21//7
f 22//8 23//8 24//8
f 25//9 26//9 27//9
f 28//10 29//10 30//10
f 31//11 32//11 33//11
f 34//12 35//12 36//12
f 37//13 38//13 39//13
f 40//14 41//14 42//14
f 43//15 44//15 45//15
f 46//16 47//16 48//16
f 49//17 50//17 51//17
f 52//18 53//18 54//18
f 55//19 56//19 57//19
f 58//20 59//20 60//20
f 61//21 62//21 63//21
f 64//22 65//22 66//22
f 67//23 68//23 69//23
f 70//24 71//24 72//24
f 73//25 74//25 75//25
f 76//26 77//26 78//26
f 79//27 80//27 81//27
f 82//28 83//28 84//28
f 85//29 86//29 87//29
f 88//30 89//30 90//30
f 91//31 92//31 93//31
f 94//32 95//32 96//32
f 97//33 98//33 99//33
f 100//34 101//34 102//34
f 103//35 104//35 105//35
f 106//36 107//36 108//36
f 109//37 110//37 111//37
f 112//38 113//38 114//38
f 115//39 116//39 117//39
f 118//40 119//40 120//40
f 121//41 122//41 123//41
f 124//42 125//42 126//42
f 127//43 128//43 129//43
f 130//44 131//44 132//44
f 133//45 134//45 135//45
f 136//46 137//46 138//46
f 139//47 140//47 141//47
f 142//48 143//48 144//48
f 145//49 146//49 147//49
f 148//50 149//50 150//50
f 151//51 152//51 153//51
f 154//52 155//52 156//52
f 157//53 158//53 159//53
f 160//54 161//54 162//54
f 163//55 164//55 165//55
f 166//56 167//56 168//56
