o
v -51.526981 -83.880547 -213.071136
v -35.973736 -79.106926 -220.995605
v -37.682732 -83.012238 -224.078705
v 8.138535 -170.285019 -170.343124
v 9.570480 -169.996506 -169.226166
v 0.905767 -170.572647 -172.043823
v 8.138535 -170.285019 -170.343124
v 30.079842 -167.403992 -158.711823
v 9.570480 -169.996506 -169.226166
v 9.570480 -169.996506 -169.226166
v 30.079842 -167.403992 -158.711823
v 0.905767 -170.572647 -172.043823
v -35.973736 -79.106926 -220.995605
v 10.725926 -71.608200 -231.704315
v -37.682732 -83.012238 -224.078705
v 8.138535 -170.285019 -170.343124
v 0.905767 -170.572647 -172.043823
v 7.787082 -168.807037 -181.488632
v 78.038002 -147.947586 -178.994293
v 30.079842 -167.403992 -158.711823
v 7.787082 -168.807037 -181.488632
v 8.138535 -170.285019 -170.343124
v 7.787082 -168.807037 -181.488632
v 30.079842 -167.403992 -158.711823
v 0.905767 -170.572647 -172.043823
v -0.839134 -168.472290 -174.927521
v 7.787082 -168.807037 -181.488632
v 10.725926 -71.608200 -231.704315
v 27.269020 -57.991890 -219.545731
v 77.090805 -81.614594 -208.894943
v 10.725926 -71.608200 -231.704315
v 24.619864 -56.534126 -218.413544
v 27.269020 -57.991890 -219.545731
v 10.725926 -71.608200 -231.704315
v 23.458969 -56.241554 -217.751221
v 24.619864 -56.534126 -218.413544
v 78.038002 -147.947586 -178.994293
v 30.476532 -156.461227 -135.433578
v 30.079842 -167.403992 -158.711823
v 30.079842 -167.403992 -158.711823
v 30.476532 -156.461227 -135.433578
v 0.905767 -170.572647 -172.043823
v 0.905767 -170.572647 -172.043823
v 30.476532 -156.461227 -135.433578
v -39.521049 -140.024582 -136.466507
v -35.973736 -79.106926 -220.995605
v 22.787037 -56.180279 -217.434952
v 10.725926 -71.608200 -231.704315
v 10.725926 -71.608200 -231.704315
v 22.787037 -56.180279 -217.434952
v 23.458969 -56.241554 -217.751221
v -51.526981 -83.880547 -213.071136
v -37.682732 -83.012238 -224.078705
v -51.446266 -115.672295 -199.461426
v -37.682732 -83.012238 -224.078705
v -35.938606 -86.870827 -223.749054
v -51.446266 -115.672295 -199.461426
v -51.526981 -83.880547 -213.071136
v -51.446266 -115.672295 -199.461426
v -53.208527 -92.506538 -204.199646
v -53.208527 -92.506538 -204.199646
v -51.446266 -115.672295 -199.461426
v -53.861485 -100.590141 -198.526291
v -51.526981 -83.880547 -213.071136
v -31.388826 -76.247612 -215.417572
v -35.973736 -79.106926 -220.995605
v -35.973736 -79.106926 -220.995605
v -31.388826 -76.247612 -215.417572
v 22.787037 -56.180279 -217.434952
v -0.839134 -168.472290 -174.927521
v -53.449451 -123.958885 -184.385529
v -51.446266 -115.672295 -199.461426
v -39.521049 -140.024582 -136.466507
v -54.106236 -115.220985 -190.441727
v -53.449451 -123.958885 -184.385529
v -51.446266 -115.672295 -199.461426
v -54.106236 -115.220985 -190.441727
v -53.861485 -100.590141 -198.526291
v -53.449451 -123.958885 -184.385529
v -54.106236 -115.220985 -190.441727
v -51.446266 -115.672295 -199.461426
v 27.269020 -57.991890 -219.545731
v 66.939590 -75.174911 -207.323898
v 77.090805 -81.614594 -208.894943
v 77.090805 -81.614594 -208.894943
v 83.305748 -98.101402 -196.673065
v 78.750237 -101.702835 -202.875946
v 78.038002 -147.947586 -178.994293
v 78.750237 -101.702835 -202.875946
v 83.305748 -98.101402 -196.673065
v 78.038002 -147.947586 -178.994293
v 38.078419 -119.378929 -114.289307
v 30.476532 -156.461227 -135.433578
v 77.090805 -81.614594 -208.894943
v 73.773888 -76.675552 -199.567154
v 76.045555 -76.003067 -187.374176
v 77.090805 -81.614594 -208.894943
v 76.045555 -76.003067 -187.374176
v 83.305748 -98.101402 -196.673065
v 45.371651 -51.209976 -150.287933
v 38.229237 -60.897442 -129.393478
v 76.045555 -76.003067 -187.374176
v 45.371651 -51.209976 -150.287933
v 30.717922 -59.686771 -131.429367
v 38.229237 -60.897442 -129.393478
v -39.521049 -140.024582 -136.466507
v -53.449451 -123.958885 -184.385529
v -47.505730 -132.411392 -168.733917
v 10.725926 -71.608200 -231.704315
v 8.494607 -89.832787 -234.539505
v -37.682732 -83.012238 -224.078705
v -37.682732 -83.012238 -224.078705
v 8.494607 -89.832787 -234.539505
v -35.938606 -86.870827 -223.749054
v 10.725926 -71.608200 -231.704315
v 77.090805 -81.614594 -208.894943
v 8.494607 -89.832787 -234.539505
v 66.939590 -75.174911 -207.323898
v 67.985771 -72.580963 -197.964874
v 77.090805 -81.614594 -208.894943
v 77.090805 -81.614594 -208.894943
v 67.985771 -72.580963 -197.964874
v 73.773888 -76.675552 -199.567154
v 73.773888 -76.675552 -199.567154
v 67.985771 -72.580963 -197.964874
v 76.045555 -76.003067 -187.374176
v 45.371651 -51.209976 -150.287933
v 76.045555 -76.003067 -187.374176
v 67.985771 -72.580963 -197.964874
v 32.903431 -109.308891 -110.373924
v 20.040405 -118.474869 -111.781113
v 38.078419 -119.378929 -114.289307
v -24.719440 -122.336540 -120.703903
v -20.490713 -88.632912 -121.177200
v -39.521049 -140.024582 -136.466507
v 20.040405 -118.474869 -111.781113
v -20.490713 -88.632912 -121.177200
v -24.719440 -122.336540 -120.703903
v 32.903431 -109.308891 -110.373924
v -20.490713 -88.632912 -121.177200
v 20.040405 -118.474869 -111.781113
v 45.371651 -51.209976 -150.287933
v -12.823645 -70.032242 -127.468155
v 30.717922 -59.686771 -131.429367
v 32.903431 -109.308891 -110.373924
v -12.823645 -70.032242 -127.468155
v -20.490713 -88.632912 -121.177200
v 30.717922 -59.686771 -131.429367
v -12.823645 -70.032242 -127.468155
v 38.229237 -60.897442 -129.393478
v 30.476532 -156.461227 -135.433578
v -14.774665 -140.408417 -130.283844
v -39.521049 -140.024582 -136.466507
v -24.719440 -122.336540 -120.703903
v -39.521049 -140.024582 -136.466507
v -14.774665 -140.408417 -130.283844
v 20.040405 -118.474869 -111.781113
v -14.774665 -140.408417 -130.283844
v 30.476532 -156.461227 -135.433578
v 20.040405 -118.474869 -111.781113
v -24.719440 -122.336540 -120.703903
v -14.774665 -140.408417 -130.283844
v 0.905767 -170.572647 -172.043823
v -20.822100 -154.280624 -171.199524
v -0.839134 -168.472290 -174.927521
v -0.839134 -168.472290 -174.927521
v -20.822100 -154.280624 -171.199524
v -53.449451 -123.958885 -184.385529
v 0.905767 -170.572647 -172.043823
v -39.521049 -140.024582 -136.466507
v -20.822100 -154.280624 -171.199524
v -39.521049 -140.024582 -136.466507
v -47.505730 -132.411392 -168.733917
v -20.822100 -154.280624 -171.199524
v -53.449451 -123.958885 -184.385529
v -20.822100 -154.280624 -171.199524
v -47.505730 -132.411392 -168.733917
v 38.078419 -119.378929 -114.289307
v 26.915991 -138.566849 -124.232582
v 30.476532 -156.461227 -135.433578
v 20.040405 -118.474869 -111.781113
v 26.915991 -138.566849 -124.232582
v 38.078419 -119.378929 -114.289307
v 20.040405 -118.474869 -111.781113
v 30.476532 -156.461227 -135.433578
v 26.915991 -138.566849 -124.232582
v 45.371651 -51.209976 -150.287933
v 67.985771 -72.580963 -197.964874
v 61.817425 -68.516327 -196.505325
v 66.939590 -75.174911 -207.323898
v 61.817425 -68.516327 -196.505325
v 67.985771 -72.580963 -197.964874
v 78.038002 -147.947586 -178.994293
v 39.940495 -111.527168 -116.941902
v 38.078419 -119.378929 -114.289307
v -0.839134 -168.472290 -174.927521
v 5.296093 -156.197571 -198.990082
v 7.787082 -168.807037 -181.488632
v -0.839134 -168.472290 -174.927521
v -51.446266 -115.672295 -199.461426
v 5.296093 -156.197571 -198.990082
v 78.038002 -147.947586 -178.994293
v 7.787082 -168.807037 -181.488632
v 5.296093 -156.197571 -198.990082
v -51.526981 -83.880547 -213.071136
v -53.208527 -92.506538 -204.199646
v -45.977341 -85.536125 -186.580002
v -53.208527 -92.506538 -204.199646
v -53.861485 -100.590141 -198.526291
v -46.015137 -85.642143 -186.572845
v -53.208527 -92.506538 -204.199646
v -46.015137 -85.642143 -186.572845
v -45.977341 -85.536125 -186.580002
v 22.787037 -56.180279 -217.434952
v 37.376591 -54.590633 -195.830673
v 23.458969 -56.241554 -217.751221
v 22.787037 -56.180279 -217.434952
v 45.371651 -51.209976 -150.287933
v 37.376591 -54.590633 -195.830673
v 23.458969 -56.241554 -217.751221
v 37.376591 -54.590633 -195.830673
v 24.619864 -56.534126 -218.413544
v 24.619864 -56.534126 -218.413544
v 37.376591 -54.590633 -195.830673
v 27.269020 -57.991890 -219.545731
v 27.269020 -57.991890 -219.545731
v 37.376591 -54.590633 -195.830673
v 66.939590 -75.174911 -207.323898
v 66.939590 -75.174911 -207.323898
v 37.376591 -54.590633 -195.830673
v 61.817425 -68.516327 -196.505325
v 32.903431 -109.308891 -110.373924
v 38.078419 -119.378929 -114.289307
v 39.948402 -102.521065 -117.523567
v 78.038002 -147.947586 -178.994293
v 39.948402 -102.521065 -117.523567
v 39.940495 -111.527168 -116.941902
v 39.940495 -111.527168 -116.941902
v 39.948402 -102.521065 -117.523567
v 38.078419 -119.378929 -114.289307
v 32.903431 -109.308891 -110.373924
v 39.948402 -102.521065 -117.523567
v 38.229237 -60.897442 -129.393478
v 45.371651 -51.209976 -150.287933
v 61.817425 -68.516327 -196.505325
v 55.760620 -63.799953 -189.594788
v 45.371651 -51.209976 -150.287933
v 55.760620 -63.799953 -189.594788
v 37.376591 -54.590633 -195.830673
v 37.376591 -54.590633 -195.830673
v 55.760620 -63.799953 -189.594788
v 61.817425 -68.516327 -196.505325
v 38.229237 -60.897442 -129.393478
v 40.563530 -94.494827 -120.765701
v 76.045555 -76.003067 -187.374176
v 39.948402 -102.521065 -117.523567
v 40.563530 -94.494827 -120.765701
v 38.229237 -60.897442 -129.393478
v -39.521049 -140.024582 -136.466507
v -47.372154 -115.084663 -171.329575
v -54.106236 -115.220985 -190.441727
v -54.106236 -115.220985 -190.441727
v -47.372154 -115.084663 -171.329575
v -53.861485 -100.590141 -198.526291
v -53.861485 -100.590141 -198.526291
v -47.372154 -115.084663 -171.329575
v -46.015137 -85.642143 -186.572845
v 32.903431 -109.308891 -110.373924
v 22.299534 -92.882339 -117.079323
v -12.823645 -70.032242 -127.468155
v -12.823645 -70.032242 -127.468155
v 22.299534 -92.882339 -117.079323
v 38.229237 -60.897442 -129.393478
v 32.903431 -109.308891 -110.373924
v 38.229237 -60.897442 -129.393478
v 22.299534 -92.882339 -117.079323
v -20.490713 -88.632912 -121.177200
v -38.656685 -118.841949 -146.716782
v -39.521049 -140.024582 -136.466507
v -39.521049 -140.024582 -136.466507
v -38.656685 -118.841949 -146.716782
v -47.372154 -115.084663 -171.329575
v 8.494607 -89.832787 -234.539505
v 1.401423 -104.248138 -228.032837
v -35.938606 -86.870827 -223.749054
v -46.015137 -85.642143 -186.572845
v -42.434052 -87.183113 -176.110046
v -45.977341 -85.536125 -186.580002
v 77.090805 -81.614594 -208.894943
v 78.750237 -101.702835 -202.875946
v 19.218019 -112.006645 -225.698044
v 77.090805 -81.614594 -208.894943
v 19.218019 -112.006645 -225.698044
v 8.494607 -89.832787 -234.539505
v 78.038002 -147.947586 -178.994293
v 19.218019 -112.006645 -225.698044
v 78.750237 -101.702835 -202.875946
v 78.038002 -147.947586 -178.994293
v 5.296093 -156.197571 -198.990082
v 19.218019 -112.006645 -225.698044
v 8.494607 -89.832787 -234.539505
v 19.218019 -112.006645 -225.698044
v 1.401423 -104.248138 -228.032837
v 1.401423 -104.248138 -228.032837
v 19.218019 -112.006645 -225.698044
v 5.296093 -156.197571 -198.990082
v -51.526981 -83.880547 -213.071136
v -17.205229 -69.219643 -198.522171
v -31.388826 -76.247612 -215.417572
v -31.388826 -76.247612 -215.417572
v -17.205229 -69.219643 -198.522171
v 22.787037 -56.180279 -217.434952
v -51.526981 -83.880547 -213.071136
v -45.977341 -85.536125 -186.580002
v -35.966972 -79.162109 -168.365921
v -12.823645 -70.032242 -127.468155
v -35.966972 -79.162109 -168.365921
v -20.490713 -88.632912 -121.177200
v -42.434052 -87.183113 -176.110046
v -35.966972 -79.162109 -168.365921
v -45.977341 -85.536125 -186.580002
v -20.490713 -88.632912 -121.177200
v -35.966972 -79.162109 -168.365921
v -42.434052 -87.183113 -176.110046
v -31.939899 -74.110649 -180.992264
v -35.790211 -78.962624 -168.770187
v -12.823645 -70.032242 -127.468155
v -12.823645 -70.032242 -127.468155
v -35.790211 -78.962624 -168.770187
v -35.966972 -79.162109 -168.365921
v -51.526981 -83.880547 -213.071136
v -35.790211 -78.962624 -168.770187
v -31.939899 -74.110649 -180.992264
v -51.526981 -83.880547 -213.071136
v -35.966972 -79.162109 -168.365921
v -35.790211 -78.962624 -168.770187
v -17.205229 -69.219643 -198.522171
v -25.509460 -71.782951 -190.664948
v 22.787037 -56.180279 -217.434952
v -51.526981 -83.880547 -213.071136
v -25.509460 -71.782951 -190.664948
v -17.205229 -69.219643 -198.522171
v -51.526981 -83.880547 -213.071136
v -31.939899 -74.110649 -180.992264
v -25.509460 -71.782951 -190.664948
v -35.938606 -86.870827 -223.749054
v -8.819821 -137.581543 -206.039093
v -51.446266 -115.672295 -199.461426
v -51.446266 -115.672295 -199.461426
v -8.819821 -137.581543 -206.039093
v 5.296093 -156.197571 -198.990082
v 1.401423 -104.248138 -228.032837
v -8.819821 -137.581543 -206.039093
v -35.938606 -86.870827 -223.749054
v 1.401423 -104.248138 -228.032837
v 5.296093 -156.197571 -198.990082
v -8.819821 -137.581543 -206.039093
v -20.490713 -88.632912 -121.177200
v -40.208115 -97.135811 -163.762451
v -38.656685 -118.841949 -146.716782
v -20.490713 -88.632912 -121.177200
v -42.434052 -87.183113 -176.110046
v -40.208115 -97.135811 -163.762451
v -47.372154 -115.084663 -171.329575
v -40.208115 -97.135811 -163.762451
v -46.015137 -85.642143 -186.572845
v -46.015137 -85.642143 -186.572845
v -40.208115 -97.135811 -163.762451
v -42.434052 -87.183113 -176.110046
v -38.656685 -118.841949 -146.716782
v -40.208115 -97.135811 -163.762451
v -47.372154 -115.084663 -171.329575
v 78.038002 -147.947586 -178.994293
v 83.305748 -98.101402 -196.673065
v 68.005806 -92.788979 -168.043457
v 78.038002 -147.947586 -178.994293
v 68.005806 -92.788979 -168.043457
v 39.948402 -102.521065 -117.523567
v 76.045555 -76.003067 -187.374176
v 68.005806 -92.788979 -168.043457
v 83.305748 -98.101402 -196.673065
v 40.563530 -94.494827 -120.765701
v 68.005806 -92.788979 -168.043457
v 76.045555 -76.003067 -187.374176
v 39.948402 -102.521065 -117.523567
v 68.005806 -92.788979 -168.043457
v 40.563530 -94.494827 -120.765701
v 45.371651 -51.209976 -150.287933
v 6.721043 -62.848682 -150.284760
v -12.823645 -70.032242 -127.468155
v -31.939899 -74.110649 -180.992264
v -12.823645 -70.032242 -127.468155
v -12.129659 -67.381248 -189.603760
v 6.721043 -62.848682 -150.284760
v -12.129659 -67.381248 -189.603760
v -12.823645 -70.032242 -127.468155
v -31.939899 -74.110649 -180.992264
v -12.129659 -67.381248 -189.603760
v -25.509460 -71.782951 -190.664948
v 22.787037 -56.180279 -217.434952
v -12.129659 -67.381248 -189.603760
v 45.371651 -51.209976 -150.287933
v 45.371651 -51.209976 -150.287933
v -12.129659 -67.381248 -189.603760
v 6.721043 -62.848682 -150.284760
v -25.509460 -71.782951 -190.664948
v -12.129659 -67.381248 -189.603760
v 22.787037 -56.180279 -217.434952
vn -0.491510 0.661895 -0.565962
vn -0.028766 -0.958273 0.284402
vn -0.016893 -0.962626 0.270306
vn -0.035633 -0.951934 0.304224
vn -0.266670 0.666389 -0.696286
vn 0.070660 -0.988551 -0.133318
vn 0.284800 -0.932694 -0.221294
vn 0.199013 -0.970655 -0.134992
vn -0.343366 -0.845815 -0.408286
vn 0.351230 0.349055 -0.868791
vn 0.029260 0.645753 -0.762985
vn -0.183045 0.739685 -0.647581
vn 0.478738 -0.797659 0.366810
vn -0.096354 -0.900150 0.424789
vn -0.205861 -0.845748 0.492271
vn -0.259086 0.757164 -0.599648
vn -0.224236 0.750397 -0.621789
vn -0.576554 -0.322786 -0.750596
vn -0.574887 -0.324044 -0.751333
vn -0.941245 -0.134927 -0.309601
vn -0.945232 -0.132883 -0.298125
vn -0.366439 0.915165 -0.167918
vn -0.347382 0.919166 -0.185634
vn -0.522546 -0.715965 -0.462969
vn -0.933860 0.153643 0.322953
vn -0.952135 -0.135483 -0.274012
vn -0.931621 -0.251718 -0.262146
vn 0.461396 0.813623 -0.353740
vn 0.828215 -0.096966 -0.551958
vn 0.844040 -0.256276 -0.471083
vn 0.638885 -0.475708 0.604589
vn 0.649939 0.742510 -0.162042
vn 0.944277 0.326790 -0.039347
vn 0.823132 0.352808 0.444949
vn 0.029349 0.902976 0.428687
vn -0.909002 -0.395459 0.131631
vn -0.193075 0.173866 -0.965657
vn -0.243654 -0.191364 -0.950796
vn 0.337286 0.104257 -0.935611
vn 0.481995 0.828992 -0.283642
vn 0.510991 0.821436 -0.253242
vn 0.543830 0.826240 -0.146891
vn 0.525291 0.841251 -0.127931
vn 0.115903 -0.307641 0.944417
vn -0.781775 0.106715 0.614362
vn -0.198563 0.038666 0.979325
vn -0.166645 0.083021 0.982516
vn -0.199472 0.942374 0.268594
vn -0.057741 0.341125 0.938243
vn -0.091954 0.669308 0.737273
vn -0.178839 -0.719431 0.671146
vn -0.211041 -0.545944 0.810806
vn -0.098755 -0.545394 0.832342
vn -0.124183 -0.517223 0.846793
vn -0.591856 -0.778503 -0.208900
vn -0.589998 -0.756989 -0.280840
vn -0.599762 -0.800159 0.005533
vn -0.635066 -0.772053 -0.025009
vn -0.634172 -0.754967 -0.166885
vn 0.117598 -0.509980 0.852110
vn 0.094532 -0.500838 0.860363
vn -0.036684 -0.535455 0.843766
vn 0.524252 0.841787 -0.128664
vn 0.479905 0.830172 -0.283736
vn 0.846468 -0.021007 0.532025
vn -0.406511 -0.767748 -0.495289
vn -0.503601 -0.710839 -0.491014
vn 0.249140 -0.768600 -0.589222
vn -0.894973 0.392519 0.212019
vn -0.924243 0.266527 0.273384
vn -0.909515 0.340355 0.238623
vn 0.042655 0.993876 -0.101935
vn 0.001298 0.997239 -0.074253
vn 0.149524 0.974327 -0.168315
vn 0.366564 0.886201 -0.283334
vn 0.457183 0.832028 -0.314186
vn 0.467334 0.834372 -0.292273
vn 0.679315 0.064887 0.730973
vn 0.860059 0.032131 0.509181
vn 0.755775 0.041544 0.653512
vn 0.561726 0.248258 0.789197
vn 0.504218 0.852203 -0.139693
vn 0.482790 0.862999 -0.148815
vn 0.485209 0.859398 -0.161265
vn 0.844373 0.187543 0.501859
vn 0.691481 0.224378 0.686665
vn -0.930793 0.163803 0.326792
vn -0.925513 0.194907 0.324710
vn -0.917863 0.215022 0.333605
vn -0.048727 0.350359 0.935347
vn -0.031738 0.372837 0.927354
vn -0.018869 0.367398 0.929873
vn -0.898840 0.220082 0.379013
vn -0.911408 0.208783 0.354605
vn -0.243993 -0.296683 -0.923280
vn -0.875040 0.335508 0.348912
vn 0.383185 -0.235924 -0.893034
vn 0.363614 -0.187955 -0.912391
vn 0.387155 -0.427763 -0.816780
vn 0.278084 -0.559498 -0.780789
vn -0.049594 -0.390522 -0.919257
vn -0.100535 -0.491237 -0.865205
vn -0.361622 0.928649 -0.082710
vn -0.348886 0.932344 -0.094939
vn -0.756338 0.623680 0.197423
vn -0.814035 0.456844 0.358664
vn -0.865015 0.360106 0.349389
vn -0.864982 0.354771 0.354887
vn -0.569809 0.809445 0.141831
vn -0.575122 0.804979 0.145751
vn -0.599285 0.790700 0.125104
vn -0.601630 0.788750 0.126153
vn -0.324594 0.945217 -0.034696
vn -0.362576 0.928489 -0.080297
vn -0.392756 0.918772 -0.040007
vn -0.367811 -0.475733 -0.798995
vn -0.405663 -0.576251 -0.709488
vn -0.308125 -0.456308 -0.834771
vn -0.222760 -0.488387 -0.843716
vn -0.900207 0.227328 0.371415
vn -0.896371 0.251998 0.364713
vn -0.913179 0.219784 0.343219
vn -0.911458 0.224136 0.344974
vn -0.910162 0.213652 0.354906
vn 0.885131 0.069641 0.460100
vn 0.867719 0.059856 0.493438
vn 0.885139 0.099527 0.454559
vn 0.849922 0.168032 0.499398
vn 0.854572 0.136870 0.500973
vn -0.287906 0.956112 0.054402
vn -0.306905 0.951015 0.037147
vn -0.306235 0.951230 0.037164
vn -0.313859 0.949264 0.019782
vn -0.286813 0.957645 0.025582
vn -0.288223 0.957158 0.027845
vn -0.311857 0.950088 -0.008879
f 1//1 2//1 3//1
f 4//2 5//2 6//2
f 7//3 8//3 9//3
f 10//4 11//4 12//4
f 13//5 14//5 15//5
f 16//6 17//6 18//6
f 19//7 20//7 21//7
f 22//8 23//8 24//8
f 25//9 26//9 27//9
f 28//10 29//10 30//10
f 31//11 32//11 33//11
f 34//12 35//12 36//12
f 37//13 38//13 39//13
f 40//14 41//14 42//14
f 43//15 44//15 45//15
f 46//16 47//16 48//16
f 49//17 50//17 51//17
f 52//18 53//18 54//18
f 55//19 56//19 57//19
f 58//20 59//20 60//20
f 61//21 62//21 63//21
f 64//22 65//22 66//22
f 67//23 68//23 69//23
f 70//24 71//24 72//24
f 73//25 74//25 75//25
f 76//26 77//26 78//26
f 79//27 80//27 81//27
f 82//28 83//28 84//28
f 85//29 86//29 87//29
f 88//30 89//30 90//30
f 91//31 92//31 93//31
f 94//32 95//32 96//32
f 97//33 98//33 99//33
f 100//34 101//34 102//34
f 103//35 104//35 105//35
f 106//36 107//36 108//36
f 109//37 110//37 111//37
f 112//38 113//38 114//38
f 115//39 116//39 117//39
f 118//40 119//40 120//40
f 121//41 122//41 123//41
f 124//42 125//42 126//42
f 127//43 128//43 129//43
f 130//44 131//44 132//44
f 133//45 134//45 135//45
f 136//46 137//46 138//46
f 139//47 140//47 141//47
f 142//48 143//48 144//48
f 145//49 146//49 147//49
f 148//50 149//50 150//50
f 151//51 152//51 153//51
f 154//52 155//52 156//52
f 157//53 158//53 159//53
f 160//54 161//54 162//54
f 163//55 164//55 165//55
f 166//56 167//56 168//56
f 169//57 170//57 171//57
f 172//58 173//58 174//58
f 175//59 176//59 177//59
f 178//60 179//60 180//60
f 181//61 182//61 183//61
f 184//62 185//62 186//62
f 187//63 188//63 189//63
f 190//64 191//64 192//64
f 193//65 194//65 195//65
f 196//66 197//66 198//66
f 199//67 200//67 201//67
f 202//68 203//68 204//68
f 205//69 206//69 207//69
f 208//70 209//70 210//70
f 211//71 212//71 213//71
f 214//72 215//72 216//72
f 217//73 218//73 219//73
f 220//74 221//74 222//74
f 223//75 224//75 225//75
f 226//76 227//76 228//76
f 229//77 230//77 231//77
f 232//78 233//78 234//78
f 235//79 236//79 237//79
f 238//80 239//80 240//80
f 241//81 242//81 243//81
f 244//82 245//82 246//82
f 247//83 248//83 249//83
f 250//84 251//84 252//84
f 253//85 254//85 255//85
f 256//86 257//86 258//86
f 259//87 260//87 261//87
f 262//88 263//88 264//88
f 265//89 266//89 267//89
f 268//90 269//90 270//90
f 271//91 272//91 273//91
f 274//92 275//92 276//92
f 277//93 278//93 279//93
f 280//94 281//94 282//94
f 283//95 284//95 285//95
f 286//96 287//96 288//96
f 289//97 290//97 291//97
f 292//98 293//98 294//98
f 295//99 296//99 297//99
f 298//100 299//100 300//100
f 301//101 302//101 303//101
f 304//102 305//102 306//102
f 307//103 308//103 309//103
f 310//104 311//104 312//104
f 313//105 314//105 315//105
f 316//106 317//106 318//106
f 319//107 320//107 321//107
f 322//108 323//108 324//108
f 325//109 326//109 327//109
f 328//110 329//110 330//110
f 331//111 332//111 333//111
f 334//112 335//112 336//112
f 337//113 338//113 339//113
f 340//114 341//114 342//114
f 343//115 344//115 345//115
f 346//116 347//116 348//116
f 349//117 350//117 351//117
f 352//118 353//118 354//118
f 355//119 356//119 357//119
f 358//120 359//120 360//120
f 361//121 362//121 363//121
f 364//122 365//122 366//122
f 367//123 368//123 369//123
f 370//124 371//124 372//124
f 373//125 374//125 375//125
f 376//126 377//126 378//126
f 379//127 380//127 381//127
f 382//128 383//128 384//128
f 385//129 386//129 387//129
f 388//130 389//130 390//130
f 391//131 392//131 393//131
f 394//132 395//132 396//132
f 397//133 398//133 399//133
f 400//134 401//134 402//134
f 403//135 404//135 405//135
f 406//136 407//136 408//136
