o
v 92.836792 -246.761658 35.817917
v -84.193382 -80.747032 -136.042938
v 24.053391 -117.868530 -72.872070
v -185.375031 -2.440299 -164.698792
v -84.193382 -80.747032 -136.042938
v -185.406128 -2.532259 -164.692474
v 92.836792 -246.761658 35.817917
v 24.053391 -117.868530 -72.872070
v 49.772514 3.034387 2.366933
v -84.193382 -80.747032 -136.042938
v -16.121759 -6.181740 -75.453461
v 24.053391 -117.868530 -72.872070
v 24.053391 -117.868530 -72.872070
v -16.121759 -6.181740 -75.453461
v 49.772514 3.034387 2.366933
v 92.836792 -246.761658 35.817917
v 49.772514 3.034387 2.366933
v 8.653175 159.570190 197.396790
v 92.836792 -246.761658 35.817917
v 8.653175 159.570190 197.396790
v 4.635961 125.583351 213.700180
v 92.836792 -246.761658 35.817917
v -167.729172 -75.985046 -6.740789
v -84.193382 -80.747032 -136.042938
v -84.193382 -80.747032 -136.042938
v -167.729172 -75.985046 -6.740789
v -185.406128 -2.532259 -164.692474
v -185.375031 -2.440299 -164.698792
v -65.507095 86.443748 -73.856133
v -84.193382 -80.747032 -136.042938
v -84.193382 -80.747032 -136.042938
v -65.507095 86.443748 -73.856133
v -16.121759 -6.181740 -75.453461
v -16.121759 -6.181740 -75.453461
v -28.989008 213.780197 39.581345
v 49.772514 3.034387 2.366933
v -65.507095 86.443748 -73.856133
v -28.989008 213.780197 39.581345
v -16.121759 -6.181740 -75.453461
v 49.772514 3.034387 2.366933
v -28.989008 213.780197 39.581345
v 8.653175 159.570190 197.396790
v -185.375031 -2.440299 -164.698792
v -28.989008 213.780197 39.581345
v -65.507095 86.443748 -73.856133
v -185.375031 -2.440299 -164.698792
v -185.406128 -2.532259 -164.692474
v -202.905289 86.516685 104.736313
v -167.729172 -75.985046 -6.740789
v -194.489975 43.870121 123.642876
v -185.406128 -2.532259 -164.692474
v -185.406128 -2.532259 -164.692474
v -194.489975 43.870121 123.642876
v -202.905289 86.516685 104.736313
v -28.989008 213.780197 39.581345
v -59.649616 193.975769 143.649170
v 8.653175 159.570190 197.396790
v -202.905289 86.516685 104.736313
v -59.649616 193.975769 143.649170
v -28.989008 213.780197 39.581345
v -59.649616 193.975769 143.649170
v -62.429882 188.963165 152.060974
v 8.653175 159.570190 197.396790
v -202.905289 86.516685 104.736313
v -62.429882 188.963165 152.060974
v -59.649616 193.975769 143.649170
v -185.375031 -2.440299 -164.698792
v -176.895905 98.983376 64.197594
v -28.989008 213.780197 39.581345
v -185.375031 -2.440299 -164.698792
v -202.905289 86.516685 104.736313
v -176.895905 98.983376 64.197594
v -202.905289 86.516685 104.736313
v -28.989008 213.780197 39.581345
v -176.895905 98.983376 64.197594
v 92.836792 -246.761658 35.817917
v 4.635961 125.583351 213.700180
v -46.240921 45.798714 216.659882
v 92.836792 -246.761658 35.817917
v -46.240921 45.798714 216.659882
v -70.841225 27.102118 224.639465
v 4.635961 125.583351 213.700180
v -70.841225 27.102118 224.639465
v -46.240921 45.798714 216.659882
v 92.836792 -246.761658 35.817917
v -115.368835 -91.391312 82.245178
v -167.729172 -75.985046 -6.740789
v -167.729172 -75.985046 -6.740789
v -115.368835 -91.391312 82.245178
v -194.489975 43.870121 123.642876
v 92.836792 -246.761658 35.817917
v -70.841225 27.102118 224.639465
v -115.368835 -91.391312 82.245178
v 8.653175 159.570190 197.396790
v -90.444801 58.924545 209.392914
v 4.635961 125.583351 213.700180
v -62.429882 188.963165 152.060974
v -90.444801 58.924545 209.392914
v 8.653175 159.570190 197.396790
v -194.489975 43.870121 123.642876
v -90.444801 58.924545 209.392914
v -202.905289 86.516685 104.736313
v -194.489975 43.870121 123.642876
v -70.841225 27.102118 224.639465
v -90.444801 58.924545 209.392914
v -202.905289 86.516685 104.736313
v -90.444801 58.924545 209.392914
v -62.429882 188.963165 152.060974
v 4.635961 125.583351 213.700180
v -90.444801 58.924545 209.392914
v -70.841225 27.102118 224.639465
v -115.368835 -91.391312 82.245178
v -134.787277 19.622658 167.044281
v -194.489975 43.870121 123.642876
v -70.841225 27.102118 224.639465
v -134.787277 19.622658 167.044281
v -115.368835 -91.391312 82.245178
v -194.489975 43.870121 123.642876
v -134.787277 19.622658 167.044281
v -70.841225 27.102118 224.639465
vn 0.289102 -0.522257 -0.802289
vn 0.177915 -0.127196 -0.975791
vn 0.887281 0.092454 -0.451868
vn 0.540390 0.175365 -0.822937
vn 0.725153 0.245982 -0.643153
vn 0.981951 0.177890 0.064252
vn 0.936132 0.055891 0.347179
vn -0.491751 -0.821929 -0.287426
vn -0.524891 -0.792745 -0.309911
vn 0.448345 0.267165 -0.853001
vn 0.465007 0.262510 -0.845492
vn 0.687812 0.367585 -0.625936
vn 0.676859 0.371838 -0.635294
vn 0.926681 0.363319 -0.096231
vn 0.093476 0.647188 -0.756577
vn -0.938099 0.306096 -0.162097
vn -0.974730 -0.223325 0.005232
vn -0.981101 -0.193495 0.000231
vn 0.267010 0.929207 0.255498
vn -0.595932 0.802710 -0.022816
vn 0.023626 0.855349 0.517513
vn -0.623360 0.744884 0.237845
vn -0.615544 0.728730 -0.300097
vn -0.716194 0.647509 -0.260380
vn -0.621723 0.766020 -0.163323
vn 0.487029 -0.279877 0.827328
vn 0.483396 -0.282392 0.828603
vn 0.479122 -0.274599 0.833689
vn -0.559696 -0.806702 0.189666
vn -0.757689 -0.550491 0.350525
vn -0.348120 -0.664188 0.661564
vn -0.345202 0.438780 0.829643
vn -0.346498 0.439920 0.828499
vn -0.640114 0.202274 0.741174
vn -0.634117 -0.020294 0.772971
vn -0.554958 0.432779 0.710439
vn -0.246102 0.291302 0.924433
vn -0.627433 -0.539008 0.561960
vn -0.508220 -0.577166 0.639212
vn -0.633113 -0.243967 0.734607
f 1//1 2//1 3//1
f 4//2 5//2 6//2
f 7//3 8//3 9//3
f 10//4 11//4 12//4
f 13//5 14//5 15//5
f 16//6 17//6 18//6
f 19//7 20//7 21//7
f 22//8 23//8 24//8
f 25//9 26//9 27//9
f 28//10 29//10 30//10
f 31//11 32//11 33//11
f 34//12 35//12 36//12
f 37//13 38//13 39//13
f 40//14 41//14 42//14
f 43//15 44//15 45//15
f 46//16 47//16 48//16
f 49//17 50//17 51//17
f 52//18 53//18 54//18
f 55//19 56//19 57//19
f 58//20 59//20 60//20
f 61//21 62//21 63//21
f 64//22 65//22 66//22
f 67//23 68//23 69//23
f 70//24 71//24 72//24
f 73//25 74//25 75//25
f 76//26 77//26 78//26
f 79//27 80//27 81//27
f 82//28 83//28 84//28
f 85//29 86//29 87//29
f 88//30 89//30 90//30
f 91//31 92//31 93//31
f 94//32 95//32 96//32
f 97//33 98//33 99//33
f 100//34 101//34 102//34
f 103//35 104//35 105//35
f 106//36 107//36 108//36
f 109//37 110//37 111//37
f 112//38 113//38 114//38
f 115//39 116//39 117//39
f 118//40 119//40 120//40
