o
v 18.567358 -49.352333 7.163583
v -16.838676 -16.149406 -27.208588
v 4.810678 -23.573706 -14.574414
v -37.075005 -0.488060 -32.939758
v -16.838676 -16.149406 -27.208588
v -37.081226 -0.506452 -32.938496
v 18.567358 -49.352333 7.163583
v 4.810678 -23.573706 -14.574414
v 9.954503 0.606877 0.473387
v -16.838676 -16.149406 -27.208588
v -3.224352 -1.236348 -15.090693
v 4.810678 -23.573706 -14.574414
v 4.810678 -23.573706 -14.574414
v -3.224352 -1.236348 -15.090693
v 9.954503 0.606877 0.473387
v 18.567358 -49.352333 7.163583
v 9.954503 0.606877 0.473387
v 1.730635 31.914040 39.479359
v 18.567358 -49.352333 7.163583
v 1.730635 31.914040 39.479359
v 0.927192 25.116671 42.740036
v 18.567358 -49.352333 7.163583
v -33.545834 -15.197010 -1.348158
v -16.838676 -16.149406 -27.208588
v -16.838676 -16.149406 -27.208588
v -33.545834 -15.197010 -1.348158
v -37.081226 -0.506452 -32.938496
v -37.075005 -0.488060 -32.939758
v -13.101419 17.288750 -14.771226
v -16.838676 -16.149406 -27.208588
v -16.838676 -16.149406 -27.208588
v -13.101419 17.288750 -14.771226
v -3.224352 -1.236348 -15.090693
v -3.224352 -1.236348 -15.090693
v -5.797801 42.756039 7.916269
v 9.954503 0.606877 0.473387
v -13.101419 17.288750 -14.771226
v -5.797801 42.756039 7.916269
v -3.224352 -1.236348 -15.090693
v 9.954503 0.606877 0.473387
v -5.797801 42.756039 7.916269
v 1.730635 31.914040 39.479359
v -37.075005 -0.488060 -32.939758
v -5.797801 42.756039 7.916269
v -13.101419 17.288750 -14.771226
v -37.075005 -0.488060 -32.939758
v -37.081226 -0.506452 -32.938496
v -40.581059 17.303337 20.947262
v -33.545834 -15.197010 -1.348158
v -38.897995 8.774024 24.728575
v -37.081226 -0.506452 -32.938496
v -37.081226 -0.506452 -32.938496
v -38.897995 8.774024 24.728575
v -40.581059 17.303337 20.947262
v -5.797801 42.756039 7.916269
v -11.929923 38.795155 28.729836
v 1.730635 31.914040 39.479359
v -40.581059 17.303337 20.947262
v -11.929923 38.795155 28.729836
v -5.797801 42.756039 7.916269
v -11.929923 38.795155 28.729836
v -12.485976 37.792633 30.412195
v 1.730635 31.914040 39.479359
v -40.581059 17.303337 20.947262
v -12.485976 37.792633 30.412195
v -11.929923 38.795155 28.729836
v -37.075005 -0.488060 -32.939758
v -35.379181 19.796675 12.839519
v -5.797801 42.756039 7.916269
v -37.075005 -0.488060 -32.939758
v -40.581059 17.303337 20.947262
v -35.379181 19.796675 12.839519
v -40.581059 17.303337 20.947262
v -5.797801 42.756039 7.916269
v -35.379181 19.796675 12.839519
v 18.567358 -49.352333 7.163583
v 0.927192 25.116671 42.740036
v -9.248184 9.159742 43.331978
v 18.567358 -49.352333 7.163583
v -9.248184 9.159742 43.331978
v -14.168244 5.420424 44.927895
v 0.927192 25.116671 42.740036
v -14.168244 5.420424 44.927895
v -9.248184 9.159742 43.331978
v 18.567358 -49.352333 7.163583
v -23.073767 -18.278263 16.449036
v -33.545834 -15.197010 -1.348158
v -33.545834 -15.197010 -1.348158
v -23.073767 -18.278263 16.449036
v -38.897995 8.774024 24.728575
v 18.567358 -49.352333 7.163583
v -14.168244 5.420424 44.927895
v -23.073767 -18.278263 16.449036
v 1.730635 31.914040 39.479359
v -18.088961 11.784909 41.878582
v 0.927192 25.116671 42.740036
v -12.485976 37.792633 30.412195
v -18.088961 11.784909 41.878582
v 1.730635 31.914040 39.479359
v -38.897995 8.774024 24.728575
v -18.088961 11.784909 41.878582
v -40.581059 17.303337 20.947262
v -38.897995 8.774024 24.728575
v -14.168244 5.420424 44.927895
v -18.088961 11.784909 41.878582
v -40.581059 17.303337 20.947262
v -18.088961 11.784909 41.878582
v -12.485976 37.792633 30.412195
v 0.927192 25.116671 42.740036
v -18.088961 11.784909 41.878582
v -14.168244 5.420424 44.927895
v -23.073767 -18.278263 16.449036
v -26.957457 3.924532 33.408855
v -38.897995 8.774024 24.728575
v -14.168244 5.420424 44.927895
v -26.957457 3.924532 33.408855
v -23.073767 -18.278263 16.449036
v -38.897995 8.774024 24.728575
v -26.957457 3.924532 33.408855
v -14.168244 5.420424 44.927895
vn 0.289102 -0.522257 -0.802289
vn 0.177927 -0.127182 -0.975790
vn 0.887281 0.092454 -0.451868
vn 0.540390 0.175365 -0.822937
vn 0.725153 0.245982 -0.643153
vn 0.981951 0.177890 0.064252
vn 0.936132 0.055891 0.347179
vn -0.491751 -0.821929 -0.287426
vn -0.524891 -0.792745 -0.309911
vn 0.448345 0.267165 -0.853001
vn 0.465007 0.262510 -0.845492
vn 0.687812 0.367585 -0.625936
vn 0.676859 0.371838 -0.635294
vn 0.926681 0.363319 -0.096231
vn 0.093476 0.647188 -0.756577
vn -0.938058 0.306204 -0.162129
vn -0.974730 -0.223325 0.005232
vn -0.981101 -0.193495 0.000231
vn 0.267010 0.929208 0.255498
vn -0.595932 0.802710 -0.022816
vn 0.023626 0.855349 0.517513
vn -0.623360 0.744884 0.237845
vn -0.615544 0.728730 -0.300097
vn -0.716194 0.647509 -0.260380
vn -0.621723 0.766020 -0.163323
vn 0.487029 -0.279877 0.827328
vn 0.483396 -0.282392 0.828603
vn 0.479122 -0.274599 0.833689
vn -0.559696 -0.806702 0.189666
vn -0.757689 -0.550491 0.350525
vn -0.348120 -0.664188 0.661564
vn -0.345202 0.438780 0.829643
vn -0.346498 0.439920 0.828499
vn -0.640114 0.202274 0.741174
vn -0.634117 -0.020294 0.772971
vn -0.554958 0.432779 0.710439
vn -0.246103 0.291302 0.924433
vn -0.627433 -0.539008 0.561960
vn -0.508220 -0.577166 0.639212
vn -0.633113 -0.243967 0.734607
f 1//1 2//1 3//1
f 4//2 5//2 6//2
f 7//3 8//3 9//3
f 10//4 11//4 12//4
f 13//5 14//5 15//5
f 16//6 17//6 18//6
f 19//7 20//7 21//7
f 22//8 23//8 24//8
f 25//9 26//9 27//9
f 28//10 29//10 30//10
f 31//11 32//11 33//11
f 34//12 35//12 36//12
f 37//13 38//13 39//13
f 40//14 41//14 42//14
f 43//15 44//15 45//15
f 46//16 47//16 48//16
f 49//17 50//17 51//17
f 52//18 53//18 54//18
f 55//19 56//19 57//19
f 58//20 59//20 60//20
f 61//21 62//21 63//21
f 64//22 65//22 66//22
f 67//23 68//23 69//23
f 70//24 71//24 72//24
f 73//25 74//25 75//25
f 76//26 77//26 78//26
f 79//27 80//27 81//27
f 82//28 83//28 84//28
f 85//29 86//29 87//29
f 88//30 89//30 90//30
f 91//31 92//31 93//31
f 94//32 95//32 96//32
f 97//33 98//33 99//33
f 100//34 101//34 102//34
f 103//35 104//35 105//35
f 106//36 107//36 108//36
f 109//37 110//37 111//37
f 112//38 113//38 114//38
f 115//39 116//39 117//39
f 118//40 119//40 120//40
