o
v -36.382278 -4.191031 -23.445332
v -24.982344 2.487771 -32.077866
v -5.566762 -21.736267 -4.181908
v -24.982344 2.487771 -32.077866
v 0.689484 -11.794828 -11.551619
v -5.566762 -21.736267 -4.181908
v -1.470008 22.173935 -41.815872
v 0.689484 -11.794828 -11.551619
v -24.982344 2.487771 -32.077866
v -1.470008 22.173935 -41.815872
v -24.982344 2.487771 -32.077866
v -17.632132 11.349405 -34.102829
v -1.470008 22.173935 -41.815872
v 19.843590 31.825096 12.520376
v 0.689484 -11.794828 -11.551619
v -1.470008 22.173935 -41.815872
v 14.802160 41.619976 -1.686520
v 19.843590 31.825096 12.520376
v -24.982344 2.487771 -32.077866
v -9.303638 32.416023 -29.989872
v -17.632132 11.349405 -34.102829
v -1.470008 22.173935 -41.815872
v -17.632132 11.349405 -34.102829
v -9.303638 32.416023 -29.989872
v 0.689484 -11.794828 -11.551619
v 9.090796 1.092820 14.784874
v -5.566762 -21.736267 -4.181908
v 19.843590 31.825096 12.520376
v 9.090796 1.092820 14.784874
v 0.689484 -11.794828 -11.551619
v 14.802160 41.619976 -1.686520
v 16.372793 36.647205 15.306080
v 19.843590 31.825096 12.520376
v -36.382278 -4.191031 -23.445332
v -5.566762 -21.736267 -4.181908
v -21.980452 -2.958998 20.452402
v 9.090796 1.092820 14.784874
v -21.980452 -2.958998 20.452402
v -5.566762 -21.736267 -4.181908
v -1.470008 22.173935 -41.815872
v 4.753347 41.837627 -13.213778
v 14.802160 41.619976 -1.686520
v -1.470008 22.173935 -41.815872
v -9.303638 32.416023 -29.989872
v 4.753347 41.837627 -13.213778
v -36.382278 -4.191031 -23.445332
v -28.905867 30.211809 -11.574234
v -24.982344 2.487771 -32.077866
v -24.982344 2.487771 -32.077866
v -28.905867 30.211809 -11.574234
v -9.303638 32.416023 -29.989872
v -28.905867 30.211809 -11.574234
v -28.814072 30.408869 -11.201505
v -9.303638 32.416023 -29.989872
v -9.303638 32.416023 -29.989872
v -28.794075 30.440271 -11.133943
v 4.753347 41.837627 -13.213778
v -28.814072 30.408869 -11.201505
v -28.794075 30.440271 -11.133943
v -9.303638 32.416023 -29.989872
v -36.382278 -4.191031 -23.445332
v -30.310404 14.611787 18.448013
v -28.905867 30.211809 -11.574234
v -36.382278 -4.191031 -23.445332
v -21.980452 -2.958998 20.452402
v -30.310404 14.611787 18.448013
v 19.843590 31.825096 12.520376
v 0.376116 27.332058 41.259098
v 9.090796 1.092820 14.784874
v 16.372793 36.647205 15.306080
v 0.376116 27.332058 41.259098
v 19.843590 31.825096 12.520376
v 9.090796 1.092820 14.784874
v 0.376116 27.332058 41.259098
v -21.980452 -2.958998 20.452402
v -28.905867 30.211809 -11.574234
v -24.459061 36.844490 27.545052
v -28.814072 30.408869 -11.201505
v -30.310404 14.611787 18.448013
v -24.459061 36.844490 27.545052
v -28.905867 30.211809 -11.574234
v -28.814072 30.408869 -11.201505
v -24.459061 36.844490 27.545052
v -28.794075 30.440271 -11.133943
v -24.459061 36.844490 27.545052
v -24.344524 36.951881 27.584610
v -28.794075 30.440271 -11.133943
v -21.980452 -2.958998 20.452402
v -22.574989 16.052942 32.645176
v -30.310404 14.611787 18.448013
v -30.310404 14.611787 18.448013
v -22.574989 16.052942 32.645176
v -24.459061 36.844490 27.545052
v 0.376116 27.332058 41.259098
v -22.574989 16.052942 32.645176
v -21.980452 -2.958998 20.452402
v -24.459061 36.844490 27.545052
v -23.214724 32.085812 29.836733
v -24.344524 36.951881 27.584610
v -22.574989 16.052942 32.645176
v -23.214724 32.085812 29.836733
v -24.459061 36.844490 27.545052
v 0.376116 27.332058 41.259098
v -23.214724 32.085812 29.836733
v -22.574989 16.052942 32.645176
v -24.344524 36.951881 27.584610
v -23.214724 32.085812 29.836733
v 0.376116 27.332058 41.259098
v 4.753347 41.837627 -13.213778
v -6.004876 42.696758 8.053423
v 14.802160 41.619976 -1.686520
v -5.542814 42.460751 5.865336
v -6.004876 42.696758 8.053423
v 4.753347 41.837627 -13.213778
v 16.372793 36.647205 15.306080
v -6.700683 40.591320 22.902004
v 0.376116 27.332058 41.259098
v -24.344524 36.951881 27.584610
v 0.376116 27.332058 41.259098
v -6.700683 40.591320 22.902004
v 14.802160 41.619976 -1.686520
v -6.535086 40.709274 22.425636
v 16.372793 36.647205 15.306080
v 16.372793 36.647205 15.306080
v -6.535086 40.709274 22.425636
v -6.700683 40.591320 22.902004
v -6.004876 42.696758 8.053423
v -6.535086 40.709274 22.425636
v 14.802160 41.619976 -1.686520
v -28.794075 30.440271 -11.133943
v -14.796015 41.148628 13.643806
v 4.753347 41.837627 -13.213778
v -5.542814 42.460751 5.865336
v 4.753347 41.837627 -13.213778
v -14.796015 41.148628 13.643806
v -6.004876 42.696758 8.053423
v -14.796015 41.148628 13.643806
v -6.535086 40.709274 22.425636
v -24.344524 36.951881 27.584610
v -6.700683 40.591320 22.902004
v -14.796015 41.148628 13.643806
v -6.535086 40.709274 22.425636
v -14.796015 41.148628 13.643806
v -6.700683 40.591320 22.902004
v -24.344524 36.951881 27.584610
v -14.796015 41.148628 13.643806
v -28.794075 30.440271 -11.133943
v -5.542814 42.460751 5.865336
v -14.796015 41.148628 13.643806
v -6.004876 42.696758 8.053423
vn -0.036008 -0.766834 -0.640835
vn 0.206300 -0.663178 -0.719469
vn 0.231129 -0.638976 -0.733682
vn -0.563772 0.290985 -0.772974
vn 0.919671 -0.227012 -0.320423
vn 0.932597 -0.040222 -0.358671
vn -0.644971 0.383982 -0.660734
vn -0.591205 0.373306 -0.714926
vn 0.844040 -0.536236 -0.006843
vn 0.932411 -0.336038 -0.133000
vn 0.831139 0.549679 0.084037
vn -0.580411 -0.786113 0.212483
vn 0.215358 -0.702139 0.678691
vn 0.621684 0.575730 -0.531078
vn 0.161620 0.796444 -0.582714
vn -0.688502 0.365726 -0.626267
vn -0.653891 0.387878 -0.649598
vn -0.416561 0.842077 -0.342611
vn -0.325568 0.914364 -0.240715
vn -0.376034 0.877817 -0.296709
vn -0.979481 0.193905 0.054933
vn -0.875292 -0.380980 0.297856
vn 0.819526 -0.248700 0.516261
vn 0.786737 0.236991 0.569983
vn 0.217364 -0.656556 0.722279
vn -0.937023 0.345973 0.047855
vn -0.971417 0.226172 0.072076
vn -0.851929 0.523583 0.008790
vn -0.674686 0.736648 -0.046353
vn -0.813939 -0.331444 0.477125
vn -0.879087 0.036912 0.475229
vn -0.049757 -0.540276 0.840015
vn -0.521113 0.255854 0.814236
vn -0.808320 0.070141 0.584550
vn -0.408119 0.141693 0.901866
vn -0.359233 0.321997 0.875939
vn 0.042983 0.998902 -0.018609
vn -0.220615 0.963675 -0.150530
vn 0.299059 0.824555 0.480284
vn -0.010694 0.808643 0.588203
vn 0.244231 0.936536 0.251497
vn 0.260078 0.912310 0.316308
vn 0.116543 0.983231 0.140267
vn -0.326101 0.920854 -0.213742
vn -0.290671 0.938271 -0.187506
vn -0.089114 0.987073 0.133211
vn -0.149879 0.970381 0.189467
vn -0.148872 0.970703 0.188606
vn -0.504092 0.859299 -0.086585
vn -0.268523 0.950031 -0.159175
f 1//1 2//1 3//1
f 4//2 5//2 6//2
f 7//3 8//3 9//3
f 10//4 11//4 12//4
f 13//5 14//5 15//5
f 16//6 17//6 18//6
f 19//7 20//7 21//7
f 22//8 23//8 24//8
f 25//9 26//9 27//9
f 28//10 29//10 30//10
f 31//11 32//11 33//11
f 34//12 35//12 36//12
f 37//13 38//13 39//13
f 40//14 41//14 42//14
f 43//15 44//15 45//15
f 46//16 47//16 48//16
f 49//17 50//17 51//17
f 52//18 53//18 54//18
f 55//19 56//19 57//19
f 58//20 59//20 60//20
f 61//21 62//21 63//21
f 64//22 65//22 66//22
f 67//23 68//23 69//23
f 70//24 71//24 72//24
f 73//25 74//25 75//25
f 76//26 77//26 78//26
f 79//27 80//27 81//27
f 82//28 83//28 84//28
f 85//29 86//29 87//29
f 88//30 89//30 90//30
f 91//31 92//31 93//31
f 94//32 95//32 96//32
f 97//33 98//33 99//33
f 100//34 101//34 102//34
f 103//35 104//35 105//35
f 106//36 107//36 108//36
f 109//37 110//37 111//37
f 112//38 113//38 114//38
f 115//39 116//39 117//39
f 118//40 119//40 120//40
f 121//41 122//41 123//41
f 124//42 125//42 126//42
f 127//43 128//43 129//43
f 130//44 131//44 132//44
f 133//45 134//45 135//45
f 136//46 137//46 138//46
f 139//47 140//47 141//47
f 142//48 143//48 144//48
f 145//49 146//49 147//49
f 148//50 149//50 150//50
