o
v 74.186478 -4.269436 194.364456
v 121.964417 56.303471 197.922272
v 64.965591 47.910149 190.572647
v 74.186478 -4.269436 194.364456
v 64.965591 47.910149 190.572647
v 47.216431 -205.888351 -81.540611
v 74.186478 -4.269436 194.364456
v 119.644867 21.307938 197.299500
v 121.964417 56.303471 197.922272
v 74.186478 -4.269436 194.364456
v 115.027634 5.976603 195.243530
v 119.644867 21.307938 197.299500
v 119.644867 21.307938 197.299500
v 144.011749 31.618034 197.311646
v 121.964417 56.303471 197.922272
v 115.027634 5.976603 195.243530
v 144.011749 31.618034 197.311646
v 119.644867 21.307938 197.299500
v 144.011749 31.618034 197.311646
v 235.306351 45.502441 126.098061
v 121.964417 56.303471 197.922272
v 235.306351 45.502441 126.098061
v 235.074554 45.790730 125.781525
v 121.964417 56.303471 197.922272
v 74.186478 -4.269436 194.364456
v 47.216431 -205.888351 -81.540611
v 71.590874 -183.296402 43.358826
v 121.964417 56.303471 197.922272
v 112.085487 57.050026 16.894815
v 64.965591 47.910149 190.572647
v 64.965591 47.910149 190.572647
v 78.508766 -74.641891 -116.649818
v 47.216431 -205.888351 -81.540611
v 112.085487 57.050026 16.894815
v 78.508766 -74.641891 -116.649818
v 64.965591 47.910149 190.572647
v 235.074554 45.790730 125.781525
v 121.020363 56.446785 15.564658
v 121.964417 56.303471 197.922272
v 121.964417 56.303471 197.922272
v 121.020363 56.446785 15.564658
v 112.085487 57.050026 16.894815
v 74.186478 -4.269436 194.364456
v 71.590874 -183.296402 43.358826
v 111.044632 -217.311249 60.360722
v 47.216431 -205.888351 -81.540611
v 111.044632 -217.311249 60.360722
v 71.590874 -183.296402 43.358826
v 78.508766 -74.641891 -116.649818
v 139.900818 -75.033203 -168.260529
v 47.216431 -205.888351 -81.540611
v 47.744572 -205.962555 -81.831161
v 47.216431 -205.888351 -81.540611
v 139.900818 -75.033203 -168.260529
v 121.020363 56.446785 15.564658
v 139.900818 -75.033203 -168.260529
v 112.085487 57.050026 16.894815
v 47.744572 -205.962555 -81.831161
v 54.217430 -206.166046 -80.317673
v 145.871490 -237.011444 3.422953
v 54.217430 -206.166046 -80.317673
v 99.845863 -213.993713 -47.904755
v 145.871490 -237.011444 3.422953
v 47.216431 -205.888351 -81.540611
v 145.871490 -237.011444 3.422953
v 111.044632 -217.311249 60.360722
v 47.744572 -205.962555 -81.831161
v 145.871490 -237.011444 3.422953
v 47.216431 -205.888351 -81.540611
v 112.085487 57.050026 16.894815
v 115.858955 -58.492691 -132.392334
v 78.508766 -74.641891 -116.649818
v 78.508766 -74.641891 -116.649818
v 115.858955 -58.492691 -132.392334
v 139.900818 -75.033203 -168.260529
v 139.900818 -75.033203 -168.260529
v 115.858955 -58.492691 -132.392334
v 112.085487 57.050026 16.894815
v 47.744572 -205.962555 -81.831161
v 139.900818 -75.033203 -168.260529
v 143.207901 -101.610481 -163.323624
v 47.744572 -205.962555 -81.831161
v 143.207901 -101.610481 -163.323624
v 54.217430 -206.166046 -80.317673
v 54.217430 -206.166046 -80.317673
v 143.207901 -101.610481 -163.323624
v 99.845863 -213.993713 -47.904755
v 99.845863 -213.993713 -47.904755
v 143.207901 -101.610481 -163.323624
v 145.871490 -237.011444 3.422953
v 145.871490 -237.011444 3.422953
v 152.703354 -195.200455 57.757221
v 111.044632 -217.311249 60.360722
v 111.044632 -217.311249 60.360722
v 152.703354 -195.200455 57.757221
v 152.683640 -195.201279 57.768600
v 74.186478 -4.269436 194.364456
v 170.470367 -81.274467 141.114914
v 115.027634 5.976603 195.243530
v 74.186478 -4.269436 194.364456
v 111.044632 -217.311249 60.360722
v 170.470367 -81.274467 141.114914
v 115.027634 5.976603 195.243530
v 170.470367 -81.274467 141.114914
v 144.011749 31.618034 197.311646
v 111.044632 -217.311249 60.360722
v 152.683640 -195.201279 57.768600
v 170.470367 -81.274467 141.114914
v 144.011749 31.618034 197.311646
v 199.984146 -57.117577 129.140427
v 235.306351 45.502441 126.098061
v 170.470367 -81.274467 141.114914
v 199.984146 -57.117577 129.140427
v 144.011749 31.618034 197.311646
v 139.900818 -75.033203 -168.260529
v 205.900330 -79.745201 -116.284218
v 143.207901 -101.610481 -163.323624
v 192.805725 -69.821465 -120.637741
v 205.900330 -79.745201 -116.284218
v 139.900818 -75.033203 -168.260529
v 235.074554 45.790730 125.781525
v 229.647842 -36.641682 -54.231220
v 121.020363 56.446785 15.564658
v 121.020363 56.446785 15.564658
v 229.647842 -36.641682 -54.231220
v 139.900818 -75.033203 -168.260529
v 235.306351 45.502441 126.098061
v 229.647842 -36.641682 -54.231220
v 235.074554 45.790730 125.781525
v 192.805725 -69.821465 -120.637741
v 229.647842 -36.641682 -54.231220
v 205.900330 -79.745201 -116.284218
v 235.306351 45.502441 126.098061
v 240.312119 -66.325493 -58.776524
v 229.647842 -36.641682 -54.231220
v 235.306351 45.502441 126.098061
v 251.116104 -102.191566 1.508126
v 240.312119 -66.325493 -58.776524
v 143.207901 -101.610481 -163.323624
v 200.636002 -102.467278 -114.964088
v 145.871490 -237.011444 3.422953
v 205.900330 -79.745201 -116.284218
v 200.636002 -102.467278 -114.964088
v 143.207901 -101.610481 -163.323624
v 200.636002 -102.467278 -114.964088
v 203.411316 -102.673447 -111.870430
v 145.871490 -237.011444 3.422953
v 205.900330 -79.745201 -116.284218
v 203.411316 -102.673447 -111.870430
v 200.636002 -102.467278 -114.964088
v 192.805725 -69.821465 -120.637741
v 139.900818 -75.033203 -168.260529
v 199.933090 -56.115372 -101.063599
v 229.647842 -36.641682 -54.231220
v 199.933090 -56.115372 -101.063599
v 139.900818 -75.033203 -168.260529
v 192.805725 -69.821465 -120.637741
v 199.933090 -56.115372 -101.063599
v 229.647842 -36.641682 -54.231220
v 229.647842 -36.641682 -54.231220
v 220.643585 -68.248360 -87.903053
v 205.900330 -79.745201 -116.284218
v 240.312119 -66.325493 -58.776524
v 220.643585 -68.248360 -87.903053
v 229.647842 -36.641682 -54.231220
v 240.312119 -66.325493 -58.776524
v 205.900330 -79.745201 -116.284218
v 220.643585 -68.248360 -87.903053
v 205.900330 -79.745201 -116.284218
v 219.580643 -98.087227 -94.466972
v 203.411316 -102.673447 -111.870430
v 240.312119 -66.325493 -58.776524
v 219.580643 -98.087227 -94.466972
v 205.900330 -79.745201 -116.284218
v 251.116104 -102.191566 1.508126
v 219.580643 -98.087227 -94.466972
v 240.312119 -66.325493 -58.776524
v 235.306351 45.502441 126.098061
v 244.966217 -85.852798 30.244080
v 251.116104 -102.191566 1.508126
v 170.470367 -81.274467 141.114914
v 214.699509 -88.604935 96.660332
v 199.984146 -57.117577 129.140427
v 199.984146 -57.117577 129.140427
v 214.699509 -88.604935 96.660332
v 235.306351 45.502441 126.098061
v 152.703354 -195.200455 57.757221
v 188.366852 -113.291405 104.929695
v 152.683640 -195.201279 57.768600
v 152.683640 -195.201279 57.768600
v 188.366852 -113.291405 104.929695
v 170.470367 -81.274467 141.114914
v 170.470367 -81.274467 141.114914
v 188.366852 -113.291405 104.929695
v 214.699509 -88.604935 96.660332
v 235.306351 45.502441 126.098061
v 236.147903 -94.068413 48.742603
v 244.966217 -85.852798 30.244080
v 214.699509 -88.604935 96.660332
v 236.147903 -94.068413 48.742603
v 235.306351 45.502441 126.098061
v 244.966217 -85.852798 30.244080
v 236.147903 -94.068413 48.742603
v 251.116104 -102.191566 1.508126
v 203.411316 -102.673447 -111.870430
v 190.357971 -141.266220 -74.491562
v 145.871490 -237.011444 3.422953
v 219.580643 -98.087227 -94.466972
v 190.357971 -141.266220 -74.491562
v 203.411316 -102.673447 -111.870430
v 219.580643 -98.087227 -94.466972
v 145.871490 -237.011444 3.422953
v 190.357971 -141.266220 -74.491562
v 152.703354 -195.200455 57.757221
v 214.454254 -149.799622 35.309750
v 188.366852 -113.291405 104.929695
v 188.366852 -113.291405 104.929695
v 214.454254 -149.799622 35.309750
v 214.699509 -88.604935 96.660332
v 145.871490 -237.011444 3.422953
v 214.454254 -149.799622 35.309750
v 152.703354 -195.200455 57.757221
v 236.147903 -94.068413 48.742603
v 214.454254 -149.799622 35.309750
v 251.116104 -102.191566 1.508126
v 251.116104 -102.191566 1.508126
v 214.454254 -149.799622 35.309750
v 226.819855 -138.043793 3.806288
v 226.819855 -138.043793 3.806288
v 214.454254 -149.799622 35.309750
v 145.871490 -237.011444 3.422953
v 214.699509 -88.604935 96.660332
v 217.023407 -129.092545 52.582024
v 236.147903 -94.068413 48.742603
v 214.454254 -149.799622 35.309750
v 217.023407 -129.092545 52.582024
v 214.699509 -88.604935 96.660332
v 236.147903 -94.068413 48.742603
v 217.023407 -129.092545 52.582024
v 214.454254 -149.799622 35.309750
v 219.580643 -98.087227 -94.466972
v 218.298416 -138.562057 -25.195774
v 145.871490 -237.011444 3.422953
v 226.819855 -138.043793 3.806288
v 145.871490 -237.011444 3.422953
v 218.298416 -138.562057 -25.195774
v 251.116104 -102.191566 1.508126
v 218.298416 -138.562057 -25.195774
v 219.580643 -98.087227 -94.466972
v 251.116104 -102.191566 1.508126
v 226.819855 -138.043793 3.806288
v 218.298416 -138.562057 -25.195774
vn -0.134703 0.048117 0.989717
vn -0.965674 -0.155530 0.208050
vn -0.056570 -0.014016 0.998300
vn 0.012985 -0.136742 0.990522
vn 0.007233 -0.018272 0.999807
vn 0.063581 -0.151430 0.986421
vn 0.510649 0.437772 0.739995
vn 0.370006 0.805584 0.462742
vn -0.960920 -0.170212 0.218314
vn -0.147201 0.989032 0.012112
vn -0.972317 0.199111 -0.122288
vn -0.872645 0.439143 -0.213644
vn 0.092735 0.995691 0.000302
vn 0.067426 0.997724 0.000435
vn -0.661263 -0.478037 0.578110
vn -0.692191 -0.674380 0.257066
vn -0.642842 -0.051182 -0.764287
vn -0.493747 -0.209593 -0.843970
vn -0.032106 0.811382 -0.583634
vn 0.066905 -0.910290 -0.408528
vn 0.299963 -0.740707 -0.601145
vn -0.371224 -0.923914 0.092605
vn -0.202813 -0.971778 -0.120477
vn -0.514924 0.671563 -0.532781
vn -0.516657 0.591465 -0.619059
vn -0.356242 0.734550 -0.577519
vn -0.485053 -0.217684 -0.846957
vn 0.144691 -0.687842 -0.711293
vn 0.302664 -0.737197 -0.604099
vn 0.304281 -0.737103 -0.603400
vn 0.426186 -0.742047 0.517428
vn 0.393357 -0.666560 0.633220
vn 0.100970 -0.477360 0.872888
vn 0.049272 -0.525664 0.849264
vn 0.270688 -0.377404 0.885604
vn 0.357020 -0.587197 0.726454
vn 0.621612 -0.191442 0.759571
vn 0.542850 -0.268833 0.795640
vn 0.614128 -0.069611 -0.786130
vn 0.571171 0.453535 -0.684156
vn 0.446297 0.808465 -0.383671
vn 0.333047 0.782782 -0.525673
vn 0.865992 0.444260 -0.229544
vn 0.600762 0.530269 -0.598248
vn 0.913968 0.357695 -0.191618
vn 0.982719 0.168964 -0.075595
vn 0.463817 -0.684106 -0.562914
vn 0.630755 -0.189849 -0.752400
vn 0.528576 -0.671784 -0.518954
vn 0.721616 -0.205593 -0.661061
vn 0.490375 0.619878 -0.612604
vn 0.384076 0.740436 -0.551579
vn 0.580819 0.552171 -0.598127
vn 0.760628 0.359317 -0.540681
vn 0.763141 0.356683 -0.538881
vn 0.764933 0.351495 -0.539748
vn 0.743443 -0.203357 -0.637134
vn 0.855524 0.022825 -0.517260
vn 0.917134 -0.248082 -0.311961
vn 0.950629 -0.134258 0.279784
vn 0.611207 -0.411659 0.675990
vn 0.769631 -0.247460 0.588584
vn 0.424131 -0.583515 0.692548
vn 0.396062 -0.581634 0.710518
vn 0.606996 -0.421872 0.673483
vn 0.916348 -0.189849 0.352510
vn 0.878969 -0.227108 0.419328
vn 0.913645 -0.236994 0.330283
vn 0.583007 -0.658339 -0.476123
vn 0.642737 -0.633962 -0.430095
vn 0.662347 -0.633382 -0.400154
vn 0.618176 -0.576736 0.534074
vn 0.663414 -0.531091 0.527090
vn 0.631632 -0.650769 0.421356
vn 0.846268 -0.411092 0.338873
vn 0.825526 -0.551870 0.118096
vn 0.772170 -0.631840 0.067312
vn 0.817996 -0.401501 0.411921
vn 0.702781 -0.505082 0.500990
vn 0.831330 -0.413191 0.371703
vn 0.703697 -0.619055 -0.348685
vn 0.756967 -0.618325 -0.211364
vn 0.806469 -0.516900 -0.287094
vn 0.799821 -0.556447 -0.225061
f 1//1 2//1 3//1
f 4//2 5//2 6//2
f 7//3 8//3 9//3
f 10//4 11//4 12//4
f 13//5 14//5 15//5
f 16//6 17//6 18//6
f 19//7 20//7 21//7
f 22//8 23//8 24//8
f 25//9 26//9 27//9
f 28//10 29//10 30//10
f 31//11 32//11 33//11
f 34//12 35//12 36//12
f 37//13 38//13 39//13
f 40//14 41//14 42//14
f 43//15 44//15 45//15
f 46//16 47//16 48//16
f 49//17 50//17 51//17
f 52//18 53//18 54//18
f 55//19 56//19 57//19
f 58//20 59//20 60//20
f 61//21 62//21 63//21
f 64//22 65//22 66//22
f 67//23 68//23 69//23
f 70//24 71//24 72//24
f 73//25 74//25 75//25
f 76//26 77//26 78//26
f 79//27 80//27 81//27
f 82//28 83//28 84//28
f 85//29 86//29 87//29
f 88//30 89//30 90//30
f 91//31 92//31 93//31
f 94//32 95//32 96//32
f 97//33 98//33 99//33
f 100//34 101//34 102//34
f 103//35 104//35 105//35
f 106//36 107//36 108//36
f 109//37 110//37 111//37
f 112//38 113//38 114//38
f 115//39 116//39 117//39
f 118//40 119//40 120//40
f 121//41 122//41 123//41
f 124//42 125//42 126//42
f 127//43 128//43 129//43
f 130//44 131//44 132//44
f 133//45 134//45 135//45
f 136//46 137//46 138//46
f 139//47 140//47 141//47
f 142//48 143//48 144//48
f 145//49 146//49 147//49
f 148//50 149//50 150//50
f 151//51 152//51 153//51
f 154//52 155//52 156//52
f 157//53 158//53 159//53
f 160//54 161//54 162//54
f 163//55 164//55 165//55
f 166//56 167//56 168//56
f 169//57 170//57 171//57
f 172//58 173//58 174//58
f 175//59 176//59 177//59
f 178//60 179//60 180//60
f 181//61 182//61 183//61
f 184//62 185//62 186//62
f 187//63 188//63 189//63
f 190//64 191//64 192//64
f 193//65 194//65 195//65
f 196//66 197//66 198//66
f 199//67 200//67 201//67
f 202//68 203//68 204//68
f 205//69 206//69 207//69
f 208//70 209//70 210//70
f 211//71 212//71 213//71
f 214//72 215//72 216//72
f 217//73 218//73 219//73
f 220//74 221//74 222//74
f 223//75 224//75 225//75
f 226//76 227//76 228//76
f 229//77 230//77 231//77
f 232//78 233//78 234//78
f 235//79 236//79 237//79
f 238//80 239//80 240//80
f 241//81 242//81 243//81
f 244//82 245//82 246//82
f 247//83 248//83 249//83
f 250//84 251//84 252//84
