o
v 20.979027 4.234711 26.715067
v 7.450815 -3.815562 -32.613461
v 26.765003 -28.064592 -12.267695
v 26.787615 -28.067280 -12.454445
v 26.765003 -28.064592 -12.267695
v 7.450815 -3.815562 -32.613461
v 20.979027 4.234711 26.715067
v 26.765003 -28.064592 -12.267695
v 26.769037 -28.047897 -12.226241
v 26.787615 -28.067280 -12.454445
v 7.450815 -3.815562 -32.613461
v 26.932800 -27.748840 -13.213867
v 7.450815 -3.815562 -32.613461
v 26.947886 -27.715956 -13.262332
v 26.932800 -27.748840 -13.213867
v 7.450815 -3.815562 -32.613461
v 34.725327 29.447258 1.328541
v 27.863092 8.328392 -31.608004
v 20.979027 4.234711 26.715067
v 34.725327 29.447258 1.328541
v 7.450815 -3.815562 -32.613461
v 7.450815 -3.815562 -32.613461
v 27.863092 8.328392 -31.608004
v 28.538916 -12.272953 -25.418741
v 7.450815 -3.815562 -32.613461
v 28.538916 -12.272953 -25.418741
v 26.947886 -27.715956 -13.262332
v 26.787615 -28.067280 -12.454445
v 37.673370 -22.658281 20.985939
v 26.765003 -28.064592 -12.267695
v 26.765003 -28.064592 -12.267695
v 37.673370 -22.658281 20.985939
v 26.769037 -28.047897 -12.226241
v 20.979027 4.234711 26.715067
v 26.769037 -28.047897 -12.226241
v 37.673370 -22.658281 20.985939
v 20.979027 4.234711 26.715067
v 44.909103 12.624885 24.405008
v 34.725327 29.447258 1.328541
v 20.979027 4.234711 26.715067
v 46.065632 11.222201 26.065868
v 44.909103 12.624885 24.405008
v 44.909103 12.624885 24.405008
v 47.077400 12.141912 23.603308
v 34.725327 29.447258 1.328541
v 46.065632 11.222201 26.065868
v 47.077400 12.141912 23.603308
v 44.909103 12.624885 24.405008
v 46.080841 11.224775 26.044119
v 47.077400 12.141912 23.603308
v 46.065632 11.222201 26.065868
v 47.060703 11.762660 24.047098
v 47.077400 12.141912 23.603308
v 46.080841 11.224775 26.044119
v 37.673370 -22.658281 20.985939
v 47.061272 9.100488 25.219612
v 46.065632 11.222201 26.065868
v 46.080841 11.224775 26.044119
v 46.065632 11.222201 26.065868
v 47.061272 9.100488 25.219612
v 47.060703 11.762660 24.047098
v 46.080841 11.224775 26.044119
v 47.061272 9.100488 25.219612
v 47.060703 11.762660 24.047098
v 47.295006 11.010777 23.573465
v 47.077400 12.141912 23.603308
v 47.060703 11.762660 24.047098
v 47.061272 9.100488 25.219612
v 47.295006 11.010777 23.573465
v 20.979027 4.234711 26.715067
v 37.673370 -22.658281 20.985939
v 42.761234 4.597460 25.327599
v 20.979027 4.234711 26.715067
v 42.761234 4.597460 25.327599
v 46.065632 11.222201 26.065868
v 37.673370 -22.658281 20.985939
v 46.065632 11.222201 26.065868
v 42.761234 4.597460 25.327599
v 47.077400 12.141912 23.603308
v 45.409260 19.217510 9.407394
v 34.725327 29.447258 1.328541
v 26.947886 -27.715956 -13.262332
v 45.570679 -16.260509 -18.291384
v 26.932800 -27.748840 -13.213867
v 28.538916 -12.272953 -25.418741
v 45.570679 -16.260509 -18.291384
v 26.947886 -27.715956 -13.262332
v 27.863092 8.328392 -31.608004
v 45.570679 -16.260509 -18.291384
v 28.538916 -12.272953 -25.418741
v 26.787615 -28.067280 -12.454445
v 26.932800 -27.748840 -13.213867
v 45.570679 -16.260509 -18.291384
v 45.409260 19.217510 9.407394
v 45.955429 17.763575 4.106582
v 34.725327 29.447258 1.328541
v 37.673370 -22.658281 20.985939
v 44.319180 -9.430348 16.379498
v 47.061272 9.100488 25.219612
v 26.787615 -28.067280 -12.454445
v 47.443760 -15.908787 -11.160495
v 37.673370 -22.658281 20.985939
v 26.787615 -28.067280 -12.454445
v 45.570679 -16.260509 -18.291384
v 47.443760 -15.908787 -11.160495
v 47.077400 12.141912 23.603308
v 50.476692 10.480116 3.067617
v 45.409260 19.217510 9.407394
v 45.409260 19.217510 9.407394
v 50.476692 10.480116 3.067617
v 45.955429 17.763575 4.106582
v 47.295006 11.010777 23.573465
v 51.988358 7.376871 2.684480
v 47.077400 12.141912 23.603308
v 47.077400 12.141912 23.603308
v 51.988358 7.376871 2.684480
v 50.476692 10.480116 3.067617
v 34.725327 29.447258 1.328541
v 50.588333 8.427313 -2.414587
v 27.863092 8.328392 -31.608004
v 45.955429 17.763575 4.106582
v 50.588333 8.427313 -2.414587
v 34.725327 29.447258 1.328541
v 50.476692 10.480116 3.067617
v 51.916817 6.636077 -1.862853
v 45.955429 17.763575 4.106582
v 45.955429 17.763575 4.106582
v 51.916817 6.636077 -1.862853
v 50.588333 8.427313 -2.414587
v 51.988358 7.376871 2.684480
v 51.916817 6.636077 -1.862853
v 50.476692 10.480116 3.067617
v 47.061272 9.100488 25.219612
v 52.737370 4.970887 0.284077
v 47.295006 11.010777 23.573465
v 47.295006 11.010777 23.573465
v 52.737370 4.970887 0.284077
v 51.988358 7.376871 2.684480
v 51.988358 7.376871 2.684480
v 52.737370 4.970887 0.284077
v 51.916817 6.636077 -1.862853
v 27.863092 8.328392 -31.608004
v 47.816746 -6.136341 -13.893282
v 45.570679 -16.260509 -18.291384
v 37.673370 -22.658281 20.985939
v 48.485806 -3.924525 11.083192
v 44.319180 -9.430348 16.379498
v 44.319180 -9.430348 16.379498
v 48.485806 -3.924525 11.083192
v 47.061272 9.100488 25.219612
v 45.570679 -16.260509 -18.291384
v 49.907829 -6.801826 -10.667265
v 47.443760 -15.908787 -11.160495
v 47.816746 -6.136341 -13.893282
v 49.907829 -6.801826 -10.667265
v 45.570679 -16.260509 -18.291384
v 47.061272 9.100488 25.219612
v 52.723385 2.034954 -1.186408
v 52.737370 4.970887 0.284077
v 48.485806 -3.924525 11.083192
v 52.723385 2.034954 -1.186408
v 47.061272 9.100488 25.219612
v 52.737370 4.970887 0.284077
v 52.723385 2.034954 -1.186408
v 51.916817 6.636077 -1.862853
v 51.916817 6.636077 -1.862853
v 52.723385 2.034954 -1.186408
v 49.907829 -6.801826 -10.667265
v 47.443760 -15.908787 -11.160495
v 45.738075 -11.933065 6.970697
v 37.673370 -22.658281 20.985939
v 37.673370 -22.658281 20.985939
v 45.738075 -11.933065 6.970697
v 48.485806 -3.924525 11.083192
v 47.443760 -15.908787 -11.160495
v 48.485806 -3.924525 11.083192
v 45.738075 -11.933065 6.970697
v 50.588333 8.427313 -2.414587
v 47.181065 4.109461 -10.524371
v 27.863092 8.328392 -31.608004
v 51.916817 6.636077 -1.862853
v 47.181065 4.109461 -10.524371
v 50.588333 8.427313 -2.414587
v 27.863092 8.328392 -31.608004
v 47.181065 4.109461 -10.524371
v 47.816746 -6.136341 -13.893282
v 51.916817 6.636077 -1.862853
v 47.816746 -6.136341 -13.893282
v 47.181065 4.109461 -10.524371
v 47.816746 -6.136341 -13.893282
v 49.055210 -4.028481 -10.980171
v 49.907829 -6.801826 -10.667265
v 51.916817 6.636077 -1.862853
v 49.907829 -6.801826 -10.667265
v 49.055210 -4.028481 -10.980171
v 51.916817 6.636077 -1.862853
v 49.055210 -4.028481 -10.980171
v 47.816746 -6.136341 -13.893282
v 48.485806 -3.924525 11.083192
v 51.590691 -2.426954 -3.140018
v 52.723385 2.034954 -1.186408
v 49.907829 -6.801826 -10.667265
v 51.590691 -2.426954 -3.140018
v 47.443760 -15.908787 -11.160495
v 52.723385 2.034954 -1.186408
v 51.590691 -2.426954 -3.140018
v 49.907829 -6.801826 -10.667265
v 47.443760 -15.908787 -11.160495
v 51.021130 -3.269433 -1.569458
v 48.485806 -3.924525 11.083192
v 48.485806 -3.924525 11.083192
v 51.021130 -3.269433 -1.569458
v 51.590691 -2.426954 -3.140018
v 51.590691 -2.426954 -3.140018
v 51.021130 -3.269433 -1.569458
v 47.443760 -15.908787 -11.160495
vn -0.849337 -0.461461 0.256283
vn -0.745531 -0.661561 -0.080749
vn -0.832827 -0.480616 0.274605
vn -0.512621 -0.752473 -0.413528
vn -0.311626 -0.738411 -0.598028
vn -0.450394 0.791287 -0.413534
vn -0.821149 0.559759 0.111287
vn 0.209824 -0.275001 -0.938269
vn 0.019197 -0.619639 -0.784652
vn 0.312922 -0.948380 0.051536
vn -0.680813 -0.654073 0.329669
vn -0.764858 -0.547216 0.339922
vn -0.200865 0.747294 0.633408
vn -0.173815 0.689372 0.703246
vn 0.348697 0.823915 0.446739
vn 0.349536 0.821541 0.450438
vn 0.580055 0.655760 0.483233
vn 0.692031 0.535713 0.483844
vn 0.320124 -0.217546 0.922060
vn 0.802548 0.145877 0.578478
vn 0.854286 0.209671 0.475639
vn 0.964905 0.180597 0.190637
vn 0.952978 0.122317 0.277256
vn 0.065456 -0.168878 0.983461
vn 0.065284 -0.142625 0.987621
vn 0.148992 -0.182618 0.971829
vn 0.506072 0.794192 0.336377
vn 0.384349 -0.815110 -0.433440
vn 0.174883 -0.620062 -0.764813
vn 0.319392 -0.263030 -0.910387
vn 0.450664 -0.850706 -0.270559
vn 0.729526 0.675052 -0.109990
vn 0.874056 -0.308412 0.375378
vn 0.508308 -0.860776 -0.026237
vn 0.509385 -0.855650 -0.091597
vn 0.892802 0.436177 0.112490
vn 0.844333 0.532553 -0.059076
vn 0.965841 0.180912 0.185534
vn 0.898591 0.423593 0.114467
vn 0.644209 0.575809 -0.503427
vn 0.714753 0.602607 -0.354954
vn 0.824468 0.537186 -0.178001
vn 0.815478 0.543556 -0.198852
vn 0.891394 0.444899 -0.086501
vn 0.975328 0.062990 0.211583
vn 0.974187 0.102733 0.201009
vn 0.928972 0.362737 -0.073708
vn 0.712372 0.140648 -0.687564
vn 0.877059 -0.314054 0.363508
vn 0.876604 -0.306635 0.370863
vn 0.941320 -0.241948 -0.235324
vn 0.842562 0.046190 -0.536615
vn 0.962778 -0.124696 0.239809
vn 0.954197 -0.165873 0.248987
vn 0.955499 0.128456 -0.265558
vn 0.921617 0.106699 -0.373145
vn 0.884039 -0.432218 0.177940
vn 0.890655 -0.408309 0.200044
vn 0.901323 -0.397550 0.171964
vn 0.695347 0.470929 -0.542880
vn 0.752299 0.395699 -0.526753
vn 0.738137 0.251621 -0.625971
vn 0.827069 0.221222 -0.516738
vn 0.840367 0.201590 -0.503135
vn 0.841640 0.202252 -0.500736
vn 0.836545 0.208645 -0.506615
vn 0.934491 -0.312156 0.171129
vn 0.964081 -0.257276 -0.066009
vn 0.973969 -0.203764 -0.099321
vn 0.910147 -0.381023 0.162647
vn 0.934290 -0.312820 0.171016
vn 0.920635 -0.365245 0.137942
f 1//1 2//1 3//1
f 4//2 5//2 6//2
f 7//3 8//3 9//3
f 10//4 11//4 12//4
f 13//5 14//5 15//5
f 16//6 17//6 18//6
f 19//7 20//7 21//7
f 22//8 23//8 24//8
f 25//9 26//9 27//9
f 28//10 29//10 30//10
f 31//11 32//11 33//11
f 34//12 35//12 36//12
f 37//13 38//13 39//13
f 40//14 41//14 42//14
f 43//15 44//15 45//15
f 46//16 47//16 48//16
f 49//17 50//17 51//17
f 52//18 53//18 54//18
f 55//19 56//19 57//19
f 58//20 59//20 60//20
f 61//21 62//21 63//21
f 64//22 65//22 66//22
f 67//23 68//23 69//23
f 70//24 71//24 72//24
f 73//25 74//25 75//25
f 76//26 77//26 78//26
f 79//27 80//27 81//27
f 82//28 83//28 84//28
f 85//29 86//29 87//29
f 88//30 89//30 90//30
f 91//31 92//31 93//31
f 94//32 95//32 96//32
f 97//33 98//33 99//33
f 100//34 101//34 102//34
f 103//35 104//35 105//35
f 106//36 107//36 108//36
f 109//37 110//37 111//37
f 112//38 113//38 114//38
f 115//39 116//39 117//39
f 118//40 119//40 120//40
f 121//41 122//41 123//41
f 124//42 125//42 126//42
f 127//43 128//43 129//43
f 130//44 131//44 132//44
f 133//45 134//45 135//45
f 136//46 137//46 138//46
f 139//47 140//47 141//47
f 142//48 143//48 144//48
f 145//49 146//49 147//49
f 148//50 149//50 150//50
f 151//51 152//51 153//51
f 154//52 155//52 156//52
f 157//53 158//53 159//53
f 160//54 161//54 162//54
f 163//55 164//55 165//55
f 166//56 167//56 168//56
f 169//57 170//57 171//57
f 172//58 173//58 174//58
f 175//59 176//59 177//59
f 178//60 179//60 180//60
f 181//61 182//61 183//61
f 184//62 185//62 186//62
f 187//63 188//63 189//63
f 190//64 191//64 192//64
f 193//65 194//65 195//65
f 196//66 197//66 198//66
f 199//67 200//67 201//67
f 202//68 203//68 204//68
f 205//69 206//69 207//69
f 208//70 209//70 210//70
f 211//71 212//71 213//71
f 214//72 215//72 216//72
