o
v -36.143124 210.318817 11.646566
v -17.833603 195.658249 -40.272243
v -22.390951 195.945908 -39.795956
v -36.143124 210.318817 11.646566
v -64.125923 186.259705 -33.100391
v -77.240448 173.967117 -34.297256
v -36.143124 210.318817 11.646566
v 125.494850 32.576595 -38.899170
v -17.833603 195.658249 -40.272243
v -36.143124 210.318817 11.646566
v -22.390951 195.945908 -39.795956
v -49.160145 191.310272 -51.919643
v -36.143124 210.318817 11.646566
v -49.160145 191.310272 -51.919643
v -64.125923 186.259705 -33.100391
v 191.598618 -84.830002 -121.241158
v 175.865845 -36.216770 -110.277817
v 125.494850 32.576595 -38.899170
v 191.598618 -84.830002 -121.241158
v 125.494850 32.576595 -38.899170
v 89.545837 -206.539886 -91.356689
v -36.143124 210.318817 11.646566
v -1.207467 -94.710678 -14.368650
v 125.494850 32.576595 -38.899170
v 125.494850 32.576595 -38.899170
v -1.207467 -94.710678 -14.368650
v 89.545837 -206.539886 -91.356689
v -1.207467 -94.710678 -14.368650
v -125.285561 -129.103073 -39.340595
v 89.545837 -206.539886 -91.356689
v -36.143124 210.318817 11.646566
v -125.285561 -129.103073 -39.340595
v -1.207467 -94.710678 -14.368650
v 125.494850 32.576595 -38.899170
v 132.180771 16.006052 -121.111031
v -17.833603 195.658249 -40.272243
v 175.865845 -36.216770 -110.277817
v 132.180771 16.006052 -121.111031
v 125.494850 32.576595 -38.899170
v -17.833603 195.658249 -40.272243
v -47.763939 171.632645 -116.163261
v -22.390951 195.945908 -39.795956
v -22.390951 195.945908 -39.795956
v -47.763939 171.632645 -116.163261
v -49.160145 191.310272 -51.919643
v -49.160145 191.310272 -51.919643
v -47.763939 171.632645 -116.163261
v -64.125923 186.259705 -33.100391
v -125.285561 -129.103073 -39.340595
v -123.002769 -171.729156 -74.681122
v 89.545837 -206.539886 -91.356689
v -137.919785 -164.879623 -78.194122
v -123.002769 -171.729156 -74.681122
v -125.285561 -129.103073 -39.340595
v -137.801559 -165.010681 -78.535912
v -123.002769 -171.729156 -74.681122
v -137.919785 -164.879623 -78.194122
v -36.143124 210.318817 11.646566
v -77.240448 173.967117 -34.297256
v -153.257523 -32.624657 -57.850109
v -36.143124 210.318817 11.646566
v -153.257523 -32.624657 -57.850109
v -125.285561 -129.103073 -39.340595
v -137.919785 -164.879623 -78.194122
v -125.285561 -129.103073 -39.340595
v -153.257523 -32.624657 -57.850109
v 191.598618 -84.830002 -121.241158
v 126.259468 13.461536 -185.184540
v 175.865845 -36.216770 -110.277817
v 175.865845 -36.216770 -110.277817
v 126.259468 13.461536 -185.184540
v 132.180771 16.006052 -121.111031
v 132.180771 16.006052 -121.111031
v 126.259468 13.461536 -185.184540
v -17.833603 195.658249 -40.272243
v -17.833603 195.658249 -40.272243
v 126.259468 13.461536 -185.184540
v 8.463277 160.218918 -78.636688
v -137.801559 -165.010681 -78.535912
v -132.314774 -166.274429 -89.789841
v -123.002769 -171.729156 -74.681122
v -77.240448 173.967117 -34.297256
v -120.877129 88.178688 -92.475800
v -153.257523 -32.624657 -57.850109
v -17.833603 195.658249 -40.272243
v 11.926441 70.036713 -254.284729
v -47.763939 171.632645 -116.163261
v -17.833603 195.658249 -40.272243
v 8.463277 160.218918 -78.636688
v 11.926441 70.036713 -254.284729
v 126.259468 13.461536 -185.184540
v 11.926441 70.036713 -254.284729
v 8.463277 160.218918 -78.636688
v 126.259468 13.461536 -185.184540
v 9.325885 61.592506 -258.813843
v 11.926441 70.036713 -254.284729
v 9.325885 61.592506 -258.813843
v -0.065225 70.689651 -252.912247
v 11.926441 70.036713 -254.284729
v -64.390945 134.640152 -170.068756
v -66.166138 133.967422 -171.087997
v -47.763939 171.632645 -116.163261
v -66.166138 133.967422 -171.087997
v -70.009575 132.574753 -171.349930
v -47.763939 171.632645 -116.163261
v -64.125923 186.259705 -33.100391
v -72.517052 132.019409 -168.555130
v -77.240448 173.967117 -34.297256
v -47.763939 171.632645 -116.163261
v -72.517052 132.019409 -168.555130
v -64.125923 186.259705 -33.100391
v -70.009575 132.574753 -171.349930
v -72.517052 132.019409 -168.555130
v -47.763939 171.632645 -116.163261
v 11.926441 70.036713 -254.284729
v -11.848923 86.958298 -235.400024
v -47.763939 171.632645 -116.163261
v -64.390945 134.640152 -170.068756
v -47.763939 171.632645 -116.163261
v -11.848923 86.958298 -235.400024
v -0.065225 70.689651 -252.912247
v -11.848923 86.958298 -235.400024
v 11.926441 70.036713 -254.284729
v -64.390945 134.640152 -170.068756
v -11.848923 86.958298 -235.400024
v -66.166138 133.967422 -171.087997
v -66.166138 133.967422 -171.087997
v -11.848923 86.958298 -235.400024
v -70.009575 132.574753 -171.349930
v 9.325885 61.592506 -258.813843
v -46.218464 53.991024 -253.305450
v -0.065225 70.689651 -252.912247
v -123.002769 -171.729156 -74.681122
v -16.463881 -183.108856 -130.751648
v 89.545837 -206.539886 -91.356689
v -132.314774 -166.274429 -89.789841
v -16.463881 -183.108856 -130.751648
v -123.002769 -171.729156 -74.681122
v -137.919785 -164.879623 -78.194122
v -153.257523 -32.624657 -57.850109
v -157.982178 -30.977898 -109.179100
v -120.877129 88.178688 -92.475800
v -157.982178 -30.977898 -109.179100
v -153.257523 -32.624657 -57.850109
v 191.598618 -84.830002 -121.241158
v 47.298683 -9.946306 -235.754562
v 126.259468 13.461536 -185.184540
v 126.259468 13.461536 -185.184540
v 47.298683 -9.946306 -235.754562
v 9.325885 61.592506 -258.813843
v -0.065225 70.689651 -252.912247
v -48.497971 67.450638 -241.087189
v -11.848923 86.958298 -235.400024
v -46.218464 53.991024 -253.305450
v -48.497971 67.450638 -241.087189
v -0.065225 70.689651 -252.912247
v -11.848923 86.958298 -235.400024
v -48.497971 67.450638 -241.087189
v -70.009575 132.574753 -171.349930
v 191.598618 -84.830002 -121.241158
v 89.545837 -206.539886 -91.356689
v 42.341431 -121.183502 -209.181702
v 191.598618 -84.830002 -121.241158
v 42.341431 -121.183502 -209.181702
v 47.298683 -9.946306 -235.754562
v -132.314774 -166.274429 -89.789841
v 7.787082 -168.807037 -181.488632
v -16.463881 -183.108856 -130.751648
v -16.463881 -183.108856 -130.751648
v 7.787082 -168.807037 -181.488632
v 89.545837 -206.539886 -91.356689
v 9.325885 61.592506 -258.813843
v -10.107908 3.731779 -255.966354
v -46.218464 53.991024 -253.305450
v -46.218464 53.991024 -253.305450
v -10.107908 3.731779 -255.966354
v -44.369576 34.813824 -252.177963
v -132.314774 -166.274429 -89.789841
v -116.922096 -148.812256 -140.189636
v 7.787082 -168.807037 -181.488632
v -46.218464 53.991024 -253.305450
v -44.369576 34.813824 -252.177963
v -144.016632 -2.726029 -218.867203
v -137.801559 -165.010681 -78.535912
v -133.962189 -128.690430 -145.141312
v -132.314774 -166.274429 -89.789841
v 89.545837 -206.539886 -91.356689
v 5.296093 -156.197571 -198.990082
v 42.341431 -121.183502 -209.181702
v 7.787082 -168.807037 -181.488632
v 5.296093 -156.197571 -198.990082
v 89.545837 -206.539886 -91.356689
v -116.922096 -148.812256 -140.189636
v 5.296093 -156.197571 -198.990082
v 7.787082 -168.807037 -181.488632
v 42.341431 -121.183502 -209.181702
v 19.218019 -112.006645 -225.698044
v 47.298683 -9.946306 -235.754562
v 5.296093 -156.197571 -198.990082
v 19.218019 -112.006645 -225.698044
v 42.341431 -121.183502 -209.181702
v 47.298683 -9.946306 -235.754562
v 21.550844 -27.400797 -241.952454
v 9.325885 61.592506 -258.813843
v 9.325885 61.592506 -258.813843
v 21.550844 -27.400797 -241.952454
v -10.107908 3.731779 -255.966354
v -144.016632 -2.726029 -218.867203
v -157.982178 -30.977898 -109.179100
v -146.763245 15.435879 -194.046112
v -46.218464 53.991024 -253.305450
v -144.016632 -2.726029 -218.867203
v -116.668411 26.704433 -222.735825
v -70.009575 132.574753 -171.349930
v -121.277527 38.941330 -212.010956
v -72.517052 132.019409 -168.555130
v -72.517052 132.019409 -168.555130
v -121.277527 38.941330 -212.010956
v -146.763245 15.435879 -194.046112
v -144.016632 -2.726029 -218.867203
v -146.763245 15.435879 -194.046112
v -121.277527 38.941330 -212.010956
v -48.497971 67.450638 -241.087189
v -121.277527 38.941330 -212.010956
v -70.009575 132.574753 -171.349930
v -144.016632 -2.726029 -218.867203
v -121.277527 38.941330 -212.010956
v -116.668411 26.704433 -222.735825
v -46.218464 53.991024 -253.305450
v -121.277527 38.941330 -212.010956
v -48.497971 67.450638 -241.087189
v -46.218464 53.991024 -253.305450
v -116.668411 26.704433 -222.735825
v -121.277527 38.941330 -212.010956
v -132.314774 -166.274429 -89.789841
v -120.159767 -136.207596 -156.719452
v -116.922096 -148.812256 -140.189636
v -133.962189 -128.690430 -145.141312
v -120.159767 -136.207596 -156.719452
v -132.314774 -166.274429 -89.789841
v -116.922096 -148.812256 -140.189636
v -120.159767 -136.207596 -156.719452
v 5.296093 -156.197571 -198.990082
v -77.240448 173.967117 -34.297256
v -147.294189 21.126425 -179.465469
v -120.877129 88.178688 -92.475800
v -72.517052 132.019409 -168.555130
v -147.294189 21.126425 -179.465469
v -77.240448 173.967117 -34.297256
v -72.517052 132.019409 -168.555130
v -146.763245 15.435879 -194.046112
v -147.294189 21.126425 -179.465469
v -120.877129 88.178688 -92.475800
v -147.294189 21.126425 -179.465469
v -157.982178 -30.977898 -109.179100
v -157.982178 -30.977898 -109.179100
v -147.294189 21.126425 -179.465469
v -146.763245 15.435879 -194.046112
v 19.218019 -112.006645 -225.698044
v 8.494607 -89.832787 -234.539505
v 47.298683 -9.946306 -235.754562
v 47.298683 -9.946306 -235.754562
v 8.494607 -89.832787 -234.539505
v 21.550844 -27.400797 -241.952454
v 21.550844 -27.400797 -241.952454
v 8.494607 -89.832787 -234.539505
v -10.107908 3.731779 -255.966354
v -137.801559 -165.010681 -78.535912
v -137.919785 -164.879623 -78.194122
v -147.568787 -59.613106 -190.811798
v -137.801559 -165.010681 -78.535912
v -147.568787 -59.613106 -190.811798
v -133.962189 -128.690430 -145.141312
v -133.962189 -128.690430 -145.141312
v -147.568787 -59.613106 -190.811798
v -120.159767 -136.207596 -156.719452
v -137.919785 -164.879623 -78.194122
v -157.982178 -30.977898 -109.179100
v -147.568787 -59.613106 -190.811798
v -144.016632 -2.726029 -218.867203
v -147.568787 -59.613106 -190.811798
v -157.982178 -30.977898 -109.179100
v -10.107908 3.731779 -255.966354
v -59.758114 9.953385 -244.931931
v -44.369576 34.813824 -252.177963
v -44.369576 34.813824 -252.177963
v -59.758114 9.953385 -244.931931
v -144.016632 -2.726029 -218.867203
v 5.296093 -156.197571 -198.990082
v 1.401423 -104.248138 -228.032837
v 19.218019 -112.006645 -225.698044
v 19.218019 -112.006645 -225.698044
v 1.401423 -104.248138 -228.032837
v 8.494607 -89.832787 -234.539505
v -147.568787 -59.613106 -190.811798
v -121.680237 -126.042931 -163.487701
v -120.159767 -136.207596 -156.719452
v 8.494607 -89.832787 -234.539505
v -34.174694 -64.417122 -236.261383
v -10.107908 3.731779 -255.966354
v 1.401423 -104.248138 -228.032837
v -34.174694 -64.417122 -236.261383
v 8.494607 -89.832787 -234.539505
v 1.401423 -104.248138 -228.032837
v -62.708546 -53.171043 -235.109955
v -34.174694 -64.417122 -236.261383
v -10.107908 3.731779 -255.966354
v -62.708546 -53.171043 -235.109955
v -59.758114 9.953385 -244.931931
v -59.758114 9.953385 -244.931931
v -62.708546 -53.171043 -235.109955
v -144.016632 -2.726029 -218.867203
v -34.174694 -64.417122 -236.261383
v -62.708546 -53.171043 -235.109955
v -10.107908 3.731779 -255.966354
v -62.708546 -53.171043 -235.109955
v -95.695885 -44.273762 -224.883621
v -144.016632 -2.726029 -218.867203
v -62.837814 -53.313622 -235.009323
v -95.695885 -44.273762 -224.883621
v -62.708546 -53.171043 -235.109955
v -120.159767 -136.207596 -156.719452
v -87.323212 -118.097672 -190.305099
v 5.296093 -156.197571 -198.990082
v 5.296093 -156.197571 -198.990082
v -80.484756 -96.630623 -211.780167
v 1.401423 -104.248138 -228.032837
v 1.401423 -104.248138 -228.032837
v -80.484756 -96.630623 -211.780167
v -62.708546 -53.171043 -235.109955
v -62.837814 -53.313622 -235.009323
v -62.708546 -53.171043 -235.109955
v -80.484756 -96.630623 -211.780167
v -144.016632 -2.726029 -218.867203
v -80.484756 -96.630623 -211.780167
v -147.568787 -59.613106 -190.811798
v -95.695885 -44.273762 -224.883621
v -80.484756 -96.630623 -211.780167
v -144.016632 -2.726029 -218.867203
v -62.837814 -53.313622 -235.009323
v -80.484756 -96.630623 -211.780167
v -95.695885 -44.273762 -224.883621
v -121.680237 -126.042931 -163.487701
v -80.484756 -96.630623 -211.780167
v -120.159767 -136.207596 -156.719452
v -120.159767 -136.207596 -156.719452
v -80.484756 -96.630623 -211.780167
v -87.323212 -118.097672 -190.305099
v -87.323212 -118.097672 -190.305099
v -80.484756 -96.630623 -211.780167
v 5.296093 -156.197571 -198.990082
v -147.568787 -59.613106 -190.811798
v -80.484756 -96.630623 -211.780167
v -121.680237 -126.042931 -163.487701
vn 0.033669 0.964865 -0.260580
vn -0.685210 0.727384 0.037408
vn 0.748517 0.658510 0.078023
vn -0.039913 0.959531 -0.278760
vn -0.487370 0.858955 -0.157055
vn 0.877965 0.184516 0.441736
vn 0.541013 -0.257012 0.800781
vn 0.242599 -0.054822 0.968576
vn 0.423890 -0.254423 0.869244
vn -0.006994 -0.570887 0.820999
vn -0.168757 -0.102933 0.980268
vn 0.749499 0.658112 -0.071695
vn 0.771977 0.632352 -0.064675
vn 0.027398 0.949848 -0.311509
vn -0.032594 0.955447 -0.293359
vn -0.577343 0.777103 -0.250572
vn -0.044413 -0.639030 0.767899
vn -0.431470 -0.589366 0.682995
vn -0.445402 -0.876622 0.182072
vn -0.809696 0.236714 0.536991
vn -0.526335 0.010514 0.850213
vn -0.880229 -0.170220 0.442969
vn 0.870093 0.357994 -0.338790
vn 0.773198 0.626804 -0.096346
vn 0.742676 0.662884 -0.094959
vn 0.728039 0.674261 -0.123817
vn -0.392536 -0.915461 -0.088578
vn -0.921561 0.312893 0.229831
vn 0.410648 0.810118 -0.418421
vn 0.482595 0.782979 -0.392487
vn 0.580163 0.729170 -0.362936
vn 0.585451 0.235739 -0.775677
vn -0.072891 0.488745 -0.869376
vn 0.015041 0.822260 -0.568913
vn -0.269357 0.833947 -0.481642
vn -0.650533 0.718104 -0.247252
vn -0.633419 0.731102 -0.253517
vn -0.539753 0.774271 -0.330410
vn 0.160516 0.826940 -0.538892
vn 0.032110 0.819451 -0.572250
vn -0.040375 0.718352 -0.694508
vn 0.022378 0.816028 -0.577579
vn -0.206463 0.698632 -0.685044
vn -0.146930 0.427108 -0.892183
vn -0.169864 -0.977591 -0.124350
vn -0.213700 -0.953500 -0.212533
vn -0.987974 -0.127934 0.086835
vn -0.954061 0.283507 0.096914
vn 0.564655 -0.152337 -0.811147
vn 0.536572 0.012842 -0.843757
vn -0.223076 0.634771 -0.739799
vn -0.223152 0.634200 -0.740266
vn -0.247290 0.668943 -0.700973
vn 0.512848 -0.584423 -0.628838
vn 0.534343 -0.218849 -0.816445
vn -0.262039 -0.888879 -0.375806
vn -0.093380 -0.945739 -0.311220
vn -0.096425 -0.016590 -0.995202
vn -0.176296 -0.074702 -0.981498
vn -0.269731 -0.881411 -0.387764
vn -0.287386 -0.083804 -0.954142
vn -0.790845 -0.517009 -0.327515
vn 0.430216 -0.640374 -0.636267
vn 0.297590 -0.753999 -0.585598
vn -0.302221 -0.793292 -0.528537
vn 0.507024 -0.221578 -0.832964
vn 0.321412 -0.561913 -0.762199
vn 0.317055 -0.134328 -0.938846
vn 0.281308 -0.141195 -0.949173
vn -0.992384 0.016716 -0.122045
vn -0.482443 0.342327 -0.806263
vn -0.663576 0.572473 -0.481602
vn -0.756055 0.556737 -0.344130
vn -0.756536 0.485038 -0.438624
vn -0.487028 0.558324 -0.671623
vn -0.554293 0.420670 -0.718190
vn -0.486098 0.540821 -0.686456
vn -0.497195 0.458376 -0.736674
vn -0.579863 -0.698621 -0.419150
vn -0.674188 -0.620188 -0.401046
vn -0.306504 -0.784909 -0.538491
vn -0.834324 0.529175 -0.154524
vn -0.802358 0.561069 -0.203529
vn -0.792044 0.558368 -0.246762
vn -0.955231 0.287901 0.068169
vn -0.991965 0.101379 -0.075688
vn 0.361246 -0.189359 -0.913041
vn 0.344702 -0.181444 -0.921010
vn 0.257282 -0.166821 -0.951828
vn -0.930181 -0.304549 -0.204972
vn -0.912198 -0.335349 -0.235450
vn -0.701946 -0.483829 -0.522668
vn -0.984217 -0.163265 -0.068280
vn -0.991979 -0.000397 -0.126402
vn -0.231282 -0.137554 -0.963113
vn -0.279399 -0.105228 -0.954392
vn -0.100535 -0.491237 -0.865205
vn -0.049594 -0.390522 -0.919257
vn -0.633103 -0.492397 -0.597265
vn -0.105100 -0.241799 -0.964618
vn -0.163787 -0.337769 -0.926869
vn -0.173335 -0.345359 -0.922324
vn -0.231411 -0.139004 -0.962874
vn -0.274164 -0.135332 -0.952113
vn -0.130553 -0.232567 -0.963778
vn -0.352454 -0.280632 -0.892761
vn -0.355632 -0.301870 -0.884534
vn -0.332961 -0.654731 -0.678576
vn -0.213363 -0.488879 -0.845857
vn -0.214052 -0.392603 -0.894452
vn -0.300899 -0.352587 -0.886083
vn -0.457091 -0.370280 -0.808678
vn -0.389603 -0.328524 -0.860396
vn -0.358799 -0.323381 -0.875607
vn -0.448126 -0.540946 -0.711731
vn -0.404487 -0.579182 -0.707770
vn -0.321087 -0.616712 -0.718728
vn -0.494287 -0.488419 -0.719116
f 1//1 2//1 3//1
f 4//2 5//2 6//2
f 7//3 8//3 9//3
f 10//4 11//4 12//4
f 13//5 14//5 15//5
f 16//6 17//6 18//6
f 19//7 20//7 21//7
f 22//8 23//8 24//8
f 25//9 26//9 27//9
f 28//10 29//10 30//10
f 31//11 32//11 33//11
f 34//12 35//12 36//12
f 37//13 38//13 39//13
f 40//14 41//14 42//14
f 43//15 44//15 45//15
f 46//16 47//16 48//16
f 49//17 50//17 51//17
f 52//18 53//18 54//18
f 55//19 56//19 57//19
f 58//20 59//20 60//20
f 61//21 62//21 63//21
f 64//22 65//22 66//22
f 67//23 68//23 69//23
f 70//24 71//24 72//24
f 73//25 74//25 75//25
f 76//26 77//26 78//26
f 79//27 80//27 81//27
f 82//28 83//28 84//28
f 85//29 86//29 87//29
f 88//30 89//30 90//30
f 91//31 92//31 93//31
f 94//32 95//32 96//32
f 97//33 98//33 99//33
f 100//34 101//34 102//34
f 103//35 104//35 105//35
f 106//36 107//36 108//36
f 109//37 110//37 111//37
f 112//38 113//38 114//38
f 115//39 116//39 117//39
f 118//40 119//40 120//40
f 121//41 122//41 123//41
f 124//42 125//42 126//42
f 127//43 128//43 129//43
f 130//44 131//44 132//44
f 133//45 134//45 135//45
f 136//46 137//46 138//46
f 139//47 140//47 141//47
f 142//48 143//48 144//48
f 145//49 146//49 147//49
f 148//50 149//50 150//50
f 151//51 152//51 153//51
f 154//52 155//52 156//52
f 157//53 158//53 159//53
f 160//54 161//54 162//54
f 163//55 164//55 165//55
f 166//56 167//56 168//56
f 169//57 170//57 171//57
f 172//58 173//58 174//58
f 175//59 176//59 177//59
f 178//60 179//60 180//60
f 181//61 182//61 183//61
f 184//62 185//62 186//62
f 187//63 188//63 189//63
f 190//64 191//64 192//64
f 193//65 194//65 195//65
f 196//66 197//66 198//66
f 199//67 200//67 201//67
f 202//68 203//68 204//68
f 205//69 206//69 207//69
f 208//70 209//70 210//70
f 211//71 212//71 213//71
f 214//72 215//72 216//72
f 217//73 218//73 219//73
f 220//74 221//74 222//74
f 223//75 224//75 225//75
f 226//76 227//76 228//76
f 229//77 230//77 231//77
f 232//78 233//78 234//78
f 235//79 236//79 237//79
f 238//80 239//80 240//80
f 241//81 242//81 243//81
f 244//82 245//82 246//82
f 247//83 248//83 249//83
f 250//84 251//84 252//84
f 253//85 254//85 255//85
f 256//86 257//86 258//86
f 259//87 260//87 261//87
f 262//88 263//88 264//88
f 265//89 266//89 267//89
f 268//90 269//90 270//90
f 271//91 272//91 273//91
f 274//92 275//92 276//92
f 277//93 278//93 279//93
f 280//94 281//94 282//94
f 283//95 284//95 285//95
f 286//96 287//96 288//96
f 289//97 290//97 291//97
f 292//98 293//98 294//98
f 295//99 296//99 297//99
f 298//100 299//100 300//100
f 301//101 302//101 303//101
f 304//102 305//102 306//102
f 307//103 308//103 309//103
f 310//104 311//104 312//104
f 313//105 314//105 315//105
f 316//106 317//106 318//106
f 319//107 320//107 321//107
f 322//108 323//108 324//108
f 325//109 326//109 327//109
f 328//110 329//110 330//110
f 331//111 332//111 333//111
f 334//112 335//112 336//112
f 337//113 338//113 339//113
f 340//114 341//114 342//114
f 343//115 344//115 345//115
f 346//116 347//116 348//116
f 349//117 350//117 351//117
f 352//118 353//118 354//118
