o
v 78.024284 -147.945557 -178.997116
v 51.748638 -53.479881 -241.337051
v 78.038002 -147.947586 -178.994293
v 78.024284 -147.945557 -178.997116
v 45.457924 -59.272823 -234.031769
v 51.748638 -53.479881 -241.337051
v 45.457924 -59.272823 -234.031769
v -165.915604 0.390066 -154.582489
v 51.748638 -53.479881 -241.337051
v 78.024284 -147.945557 -178.997116
v -165.915604 0.390066 -154.582489
v 45.457924 -59.272823 -234.031769
v 51.748638 -53.479881 -241.337051
v 150.334442 -132.112656 -148.593018
v 78.038002 -147.947586 -178.994293
v 51.748638 -53.479881 -241.337051
v 143.443848 -58.096935 -186.448975
v 150.334442 -132.112656 -148.593018
v 150.334442 -132.112656 -148.593018
v 99.092484 -190.188904 -56.878716
v 78.038002 -147.947586 -178.994293
v 78.038002 -147.947586 -178.994293
v 99.092484 -190.188904 -56.878716
v 94.362549 -192.476257 -55.386475
v 94.362549 -192.476257 -55.386475
v 99.092484 -190.188904 -56.878716
v 94.426186 -192.513794 -54.780376
v 78.024284 -147.945557 -178.997116
v 78.038002 -147.947586 -178.994293
v 51.775280 -199.068970 -41.332867
v 78.038002 -147.947586 -178.994293
v 94.362549 -192.476257 -55.386475
v 51.775280 -199.068970 -41.332867
v 94.362549 -192.476257 -55.386475
v 94.426186 -192.513794 -54.780376
v 51.775280 -199.068970 -41.332867
v 78.024284 -147.945557 -178.997116
v 23.231459 -150.603653 -107.130379
v -165.915604 0.390066 -154.582489
v 78.024284 -147.945557 -178.997116
v 51.775280 -199.068970 -41.332867
v 21.938467 -151.216812 -104.385963
v 78.024284 -147.945557 -178.997116
v 21.938467 -151.216812 -104.385963
v 23.231459 -150.603653 -107.130379
v -165.915604 0.390066 -154.582489
v 21.938467 -151.216812 -104.385963
v 51.775280 -199.068970 -41.332867
v 23.231459 -150.603653 -107.130379
v 21.938467 -151.216812 -104.385963
v -165.915604 0.390066 -154.582489
v -165.915604 0.390066 -154.582489
v 53.617386 60.967369 -217.236389
v 51.748638 -53.479881 -241.337051
v 150.334442 -132.112656 -148.593018
v 163.334488 -140.960724 -54.522427
v 99.092484 -190.188904 -56.878716
v 94.426186 -192.513794 -54.780376
v 130.224014 -164.718353 -14.706437
v 51.775280 -199.068970 -41.332867
v 99.092484 -190.188904 -56.878716
v 130.224014 -164.718353 -14.706437
v 94.426186 -192.513794 -54.780376
v 163.334488 -140.960724 -54.522427
v 130.224014 -164.718353 -14.706437
v 99.092484 -190.188904 -56.878716
v 143.443848 -58.096935 -186.448975
v 166.433411 -1.820096 -163.561813
v 150.334442 -132.112656 -148.593018
v 51.748638 -53.479881 -241.337051
v 151.847672 39.907509 -171.007004
v 143.443848 -58.096935 -186.448975
v 143.443848 -58.096935 -186.448975
v 151.847672 39.907509 -171.007004
v 166.433411 -1.820096 -163.561813
v 53.617386 60.967369 -217.236389
v 151.847672 39.907509 -171.007004
v 51.748638 -53.479881 -241.337051
v -165.915604 0.390066 -154.582489
v -209.499847 92.617851 81.187721
v -171.561844 23.317261 -130.112381
v 151.847672 39.907509 -171.007004
v 196.389526 64.359138 -130.550064
v 166.433411 -1.820096 -163.561813
v 166.433411 -1.820096 -163.561813
v 196.389526 64.359138 -130.550064
v 150.334442 -132.112656 -148.593018
v -165.915604 0.390066 -154.582489
v 51.775280 -199.068970 -41.332867
v -149.389877 -38.079426 180.035172
v -165.915604 0.390066 -154.582489
v -149.389877 -38.079426 180.035172
v -209.499847 92.617851 81.187721
v 53.617386 60.967369 -217.236389
v 68.017838 147.074768 -166.620087
v 151.847672 39.907509 -171.007004
v 151.847672 39.907509 -171.007004
v 68.017838 147.074768 -166.620087
v 196.389526 64.359138 -130.550064
v -165.915604 0.390066 -154.582489
v -171.561844 23.317261 -130.112381
v -109.999962 186.879745 -65.423332
v -209.499847 92.617851 81.187721
v -109.999962 186.879745 -65.423332
v -171.561844 23.317261 -130.112381
v -165.915604 0.390066 -154.582489
v 21.114243 184.913467 -129.298157
v 53.617386 60.967369 -217.236389
v -165.915604 0.390066 -154.582489
v -109.999962 186.879745 -65.423332
v 21.114243 184.913467 -129.298157
v 53.617386 60.967369 -217.236389
v 21.114243 184.913467 -129.298157
v 68.017838 147.074768 -166.620087
v -209.499847 92.617851 81.187721
v -110.762772 206.486053 -24.006760
v -109.999962 186.879745 -65.423332
v 68.017838 147.074768 -166.620087
v 131.339630 153.990555 -112.016914
v 196.389526 64.359138 -130.550064
v -209.499847 92.617851 81.187721
v -128.499725 185.809509 84.527252
v -110.762772 206.486053 -24.006760
v 130.224014 -164.718353 -14.706437
v -18.808601 -45.820049 223.165619
v 51.775280 -199.068970 -41.332867
v 51.775280 -199.068970 -41.332867
v -18.808601 -45.820049 223.165619
v -149.389877 -38.079426 180.035172
v -109.999962 186.879745 -65.423332
v -57.864170 241.483200 25.090012
v 21.114243 184.913467 -129.298157
v -110.762772 206.486053 -24.006760
v -57.864170 241.483200 25.090012
v -109.999962 186.879745 -65.423332
v -128.499725 185.809509 84.527252
v -57.864170 241.483200 25.090012
v -110.762772 206.486053 -24.006760
v 150.334442 -132.112656 -148.593018
v 237.322525 47.446274 108.335388
v 163.334488 -140.960724 -54.522427
v 196.389526 64.359138 -130.550064
v 237.322525 47.446274 108.335388
v 150.334442 -132.112656 -148.593018
v 163.334488 -140.960724 -54.522427
v 183.804199 -44.338612 104.412880
v 130.224014 -164.718353 -14.706437
v 237.322525 47.446274 108.335388
v 183.804199 -44.338612 104.412880
v 163.334488 -140.960724 -54.522427
v 21.114243 184.913467 -129.298157
v 65.949303 252.089172 6.105904
v 68.017838 147.074768 -166.620087
v 68.017838 147.074768 -166.620087
v 65.949303 252.089172 6.105904
v 131.339630 153.990555 -112.016914
v -57.864170 241.483200 25.090012
v 65.949303 252.089172 6.105904
v 21.114243 184.913467 -129.298157
v 130.224014 -164.718353 -14.706437
v 93.419052 -81.917603 125.285042
v -18.808601 -45.820049 223.165619
v 237.322525 47.446274 108.335388
v 143.780563 -7.416025 211.253906
v 183.804199 -44.338612 104.412880
v 183.804199 -44.338612 104.412880
v 143.780563 -7.416025 211.253906
v 130.224014 -164.718353 -14.706437
v 237.322525 47.446274 108.335388
v 143.576019 -6.065985 212.158096
v 143.780563 -7.416025 211.253906
v 237.322525 47.446274 108.335388
v 143.254379 -5.486170 212.469788
v 143.576019 -6.065985 212.158096
v 130.224014 -164.718353 -14.706437
v 137.871140 -8.648697 212.782043
v 93.419052 -81.917603 125.285042
v 143.780563 -7.416025 211.253906
v 137.871140 -8.648697 212.782043
v 130.224014 -164.718353 -14.706437
v 93.419052 -81.917603 125.285042
v 137.871140 -8.648697 212.782043
v -18.808601 -45.820049 223.165619
v 143.576019 -6.065985 212.158096
v 137.871140 -8.648697 212.782043
v 143.780563 -7.416025 211.253906
v 143.254379 -5.486170 212.469788
v 137.871140 -8.648697 212.782043
v 143.576019 -6.065985 212.158096
v 131.339630 153.990555 -112.016914
v 151.132874 199.870682 3.705536
v 196.389526 64.359138 -130.550064
v 65.949303 252.089172 6.105904
v 151.132874 199.870682 3.705536
v 131.339630 153.990555 -112.016914
v -128.499725 185.809509 84.527252
v -70.470512 198.205933 121.048210
v -57.864170 241.483200 25.090012
v 137.871140 -8.648697 212.782043
v 37.944996 -4.777626 227.565063
v -18.808601 -45.820049 223.165619
v 143.254379 -5.486170 212.469788
v 37.944996 -4.777626 227.565063
v 137.871140 -8.648697 212.782043
v 196.389526 64.359138 -130.550064
v 204.953049 132.538284 91.494263
v 237.322525 47.446274 108.335388
v 151.132874 199.870682 3.705536
v 204.953049 132.538284 91.494263
v 196.389526 64.359138 -130.550064
v -18.808601 -45.820049 223.165619
v -29.219093 68.612175 224.762100
v -149.389877 -38.079426 180.035172
v 37.944996 -4.777626 227.565063
v -29.219093 68.612175 224.762100
v -18.808601 -45.820049 223.165619
v -57.864170 241.483200 25.090012
v -11.863451 230.473129 92.062248
v 65.949303 252.089172 6.105904
v -70.470512 198.205933 121.048210
v -11.863451 230.473129 92.062248
v -57.864170 241.483200 25.090012
v -209.499847 92.617851 81.187721
v -33.187778 111.861366 215.470718
v -128.499725 185.809509 84.527252
v -128.499725 185.809509 84.527252
v -33.187778 111.861366 215.470718
v -70.470512 198.205933 121.048210
v -149.389877 -38.079426 180.035172
v -33.187778 111.861366 215.470718
v -209.499847 92.617851 81.187721
v -29.219093 68.612175 224.762100
v -33.187778 111.861366 215.470718
v -149.389877 -38.079426 180.035172
v 237.322525 47.446274 108.335388
v 182.934723 56.991089 157.108383
v 143.254379 -5.486170 212.469788
v 204.953049 132.538284 91.494263
v 190.231689 72.427597 145.334320
v 237.322525 47.446274 108.335388
v 237.322525 47.446274 108.335388
v 190.231689 72.427597 145.334320
v 182.934723 56.991089 157.108383
v 182.934723 56.991089 157.108383
v 190.231689 72.427597 145.334320
v 143.254379 -5.486170 212.469788
v 65.949303 252.089172 6.105904
v 81.069595 222.826935 60.640675
v 151.132874 199.870682 3.705536
v 151.132874 199.870682 3.705536
v 81.069595 222.826935 60.640675
v 204.953049 132.538284 91.494263
v -70.470512 198.205933 121.048210
v 17.192215 219.302124 117.188583
v -11.863451 230.473129 92.062248
v -11.863451 230.473129 92.062248
v 17.192215 219.302124 117.188583
v 65.949303 252.089172 6.105904
v 65.949303 252.089172 6.105904
v 17.192215 219.302124 117.188583
v 81.069595 222.826935 60.640675
v -29.219093 68.612175 224.762100
v 15.351950 134.577545 218.056885
v -33.187778 111.861366 215.470718
v 143.254379 -5.486170 212.469788
v 15.351950 134.577545 218.056885
v 37.944996 -4.777626 227.565063
v 37.944996 -4.777626 227.565063
v 15.351950 134.577545 218.056885
v -29.219093 68.612175 224.762100
v -33.187778 111.861366 215.470718
v 15.351950 134.577545 218.056885
v -70.470512 198.205933 121.048210
v -70.470512 198.205933 121.048210
v 15.351950 134.577545 218.056885
v 17.192215 219.302124 117.188583
v 81.069595 222.826935 60.640675
v 150.401810 161.032318 99.019592
v 204.953049 132.538284 91.494263
v 190.231689 72.427597 145.334320
v 138.454376 82.584038 177.848099
v 143.254379 -5.486170 212.469788
v 17.192215 219.302124 117.188583
v 56.061836 199.355682 124.665894
v 81.069595 222.826935 60.640675
v 81.069595 222.826935 60.640675
v 56.061836 199.355682 124.665894
v 150.401810 161.032318 99.019592
v 15.351950 134.577545 218.056885
v 40.257553 170.221863 169.013748
v 17.192215 219.302124 117.188583
v 17.192215 219.302124 117.188583
v 40.257553 170.221863 169.013748
v 56.061836 199.355682 124.665894
v 150.401810 161.032318 99.019592
v 108.622169 141.326843 166.340576
v 204.953049 132.538284 91.494263
v 56.061836 199.355682 124.665894
v 108.622169 141.326843 166.340576
v 150.401810 161.032318 99.019592
v 40.257553 170.221863 169.013748
v 108.622169 141.326843 166.340576
v 56.061836 199.355682 124.665894
v 204.953049 132.538284 91.494263
v 108.622169 141.326843 166.340576
v 190.231689 72.427597 145.334320
v 190.231689 72.427597 145.334320
v 108.622169 141.326843 166.340576
v 138.454376 82.584038 177.848099
v 15.351950 134.577545 218.056885
v 108.622169 141.326843 166.340576
v 40.257553 170.221863 169.013748
v 143.254379 -5.486170 212.469788
v 94.403412 126.628471 183.298828
v 15.351950 134.577545 218.056885
v 138.454376 82.584038 177.848099
v 94.403412 126.628471 183.298828
v 143.254379 -5.486170 212.469788
v 108.622169 141.326843 166.340576
v 94.403412 126.628471 183.298828
v 138.454376 82.584038 177.848099
v 15.351950 134.577545 218.056885
v 94.403412 126.628471 183.298828
v 108.622169 141.326843 166.340576
vn 0.095065 -0.529747 -0.842811
vn -0.327882 -0.582188 -0.744009
vn -0.424648 -0.494902 -0.758120
vn -0.424809 -0.584876 -0.690983
vn 0.428407 -0.411622 -0.804385
vn 0.463647 -0.368861 -0.805589
vn 0.341327 -0.868563 -0.359297
vn 0.312456 -0.879806 -0.358208
vn 0.407724 -0.907720 -0.099025
vn -0.064105 -0.931466 -0.358135
vn 0.032325 -0.938954 -0.342519
vn 0.128426 -0.988900 -0.074728
vn -0.503208 -0.759761 -0.411758
vn -0.465347 -0.797130 -0.384754
vn -0.493031 -0.770318 -0.404389
vn -0.536112 -0.775042 -0.334505
vn -0.504946 -0.760712 -0.407857
vn -0.319579 0.200252 -0.926158
vn 0.604324 -0.781120 -0.156985
vn 0.257534 -0.886371 0.384737
vn 0.494604 -0.855770 0.151738
vn 0.607225 -0.793915 0.031243
vn 0.866073 -0.161371 -0.473156
vn 0.514854 0.090178 -0.852522
vn 0.609425 0.072147 -0.789554
vn 0.449910 0.176990 -0.875360
vn -0.985251 -0.082827 -0.149732
vn 0.642541 0.088802 -0.761088
vn 0.869785 -0.161054 -0.466407
vn -0.659264 -0.749994 -0.053665
vn -0.907516 -0.420004 -0.003467
vn 0.459206 0.391842 -0.797239
vn 0.480930 0.407968 -0.776060
vn -0.644021 0.478475 -0.596907
vn -0.849572 0.436743 -0.295776
vn -0.360222 0.475120 -0.802809
vn -0.376081 0.489032 -0.787026
vn -0.232559 0.521477 -0.820962
vn -0.833666 0.493067 -0.248769
vn 0.524507 0.520049 -0.674123
vn -0.754778 0.655978 0.001621
vn 0.183275 -0.828599 0.528994
vn -0.200392 -0.869958 0.450573
vn -0.192816 0.885357 -0.423042
vn -0.193443 0.885385 -0.422698
vn -0.587567 0.807113 0.057739
vn 0.957786 -0.242036 -0.155126
vn 0.961329 -0.208860 -0.179511
vn 0.753296 -0.600563 0.268084
vn 0.843553 -0.500216 0.195454
vn 0.268817 0.824443 -0.498028
vn 0.331856 0.807805 -0.487157
vn -0.139243 0.904673 -0.402714
vn 0.206019 -0.817561 0.537727
vn 0.764342 -0.464777 0.446949
vn 0.560615 -0.695007 0.450195
vn 0.779591 -0.262668 0.568545
vn 0.731355 0.039704 0.680840
vn 0.255567 -0.801200 0.541077
vn 0.302568 -0.790661 0.532266
vn 0.226661 -0.800344 0.555045
vn 0.312888 -0.495352 0.810387
vn 0.254754 -0.344423 0.903589
vn 0.718492 0.595688 -0.359062
vn 0.472385 0.788684 -0.393484
vn -0.393459 0.856324 0.334513
vn 0.129760 -0.281351 0.950791
vn 0.139551 -0.140766 0.980158
vn 0.934560 0.328420 -0.136885
vn 0.868009 0.464296 -0.176039
vn -0.315595 -0.041937 0.947967
vn -0.063128 -0.019664 0.997812
vn -0.053535 0.978803 0.197684
vn -0.308791 0.881578 0.357026
vn -0.567059 0.468601 0.677389
vn -0.533848 0.508387 0.675684
vn -0.599865 0.288521 0.746269
vn -0.456730 0.146593 0.877444
vn 0.673258 0.202537 0.711128
vn 0.687742 0.383602 0.616328
vn 0.672334 0.221041 0.706476
vn 0.575855 0.306033 0.758113
vn 0.505401 0.810897 0.294983
vn 0.510531 0.804352 0.303935
vn -0.170776 0.811801 0.558404
vn 0.088438 0.944130 0.317486
vn 0.294520 0.873709 0.387156
vn -0.143098 0.195310 0.970246
vn 0.141908 0.090265 0.985756
vn 0.039745 0.074430 0.996434
vn -0.331221 0.627530 0.704627
vn -0.154489 0.757916 0.633795
vn 0.465376 0.780913 0.416653
vn 0.547490 0.331833 0.768207
vn 0.342180 0.831127 0.438339
vn 0.438537 0.774826 0.455336
vn 0.173921 0.752488 0.635227
vn 0.273726 0.756206 0.594329
vn 0.454440 0.738447 0.498177
vn 0.439127 0.751424 0.492472
vn 0.331837 0.729819 0.597703
vn 0.568665 0.467150 0.677046
vn 0.540547 0.417589 0.730362
vn 0.315013 0.684486 0.657454
vn 0.407092 0.337896 0.848588
vn 0.449650 0.347908 0.822663
vn 0.498299 0.403398 0.767443
vn 0.388748 0.509564 0.767607
f 1//1 2//1 3//1
f 4//2 5//2 6//2
f 7//3 8//3 9//3
f 10//4 11//4 12//4
f 13//5 14//5 15//5
f 16//6 17//6 18//6
f 19//7 20//7 21//7
f 22//8 23//8 24//8
f 25//9 26//9 27//9
f 28//10 29//10 30//10
f 31//11 32//11 33//11
f 34//12 35//12 36//12
f 37//13 38//13 39//13
f 40//14 41//14 42//14
f 43//15 44//15 45//15
f 46//16 47//16 48//16
f 49//17 50//17 51//17
f 52//18 53//18 54//18
f 55//19 56//19 57//19
f 58//20 59//20 60//20
f 61//21 62//21 63//21
f 64//22 65//22 66//22
f 67//23 68//23 69//23
f 70//24 71//24 72//24
f 73//25 74//25 75//25
f 76//26 77//26 78//26
f 79//27 80//27 81//27
f 82//28 83//28 84//28
f 85//29 86//29 87//29
f 88//30 89//30 90//30
f 91//31 92//31 93//31
f 94//32 95//32 96//32
f 97//33 98//33 99//33
f 100//34 101//34 102//34
f 103//35 104//35 105//35
f 106//36 107//36 108//36
f 109//37 110//37 111//37
f 112//38 113//38 114//38
f 115//39 116//39 117//39
f 118//40 119//40 120//40
f 121//41 122//41 123//41
f 124//42 125//42 126//42
f 127//43 128//43 129//43
f 130//44 131//44 132//44
f 133//45 134//45 135//45
f 136//46 137//46 138//46
f 139//47 140//47 141//47
f 142//48 143//48 144//48
f 145//49 146//49 147//49
f 148//50 149//50 150//50
f 151//51 152//51 153//51
f 154//52 155//52 156//52
f 157//53 158//53 159//53
f 160//54 161//54 162//54
f 163//55 164//55 165//55
f 166//56 167//56 168//56
f 169//57 170//57 171//57
f 172//58 173//58 174//58
f 175//59 176//59 177//59
f 178//60 179//60 180//60
f 181//61 182//61 183//61
f 184//62 185//62 186//62
f 187//63 188//63 189//63
f 190//64 191//64 192//64
f 193//65 194//65 195//65
f 196//66 197//66 198//66
f 199//67 200//67 201//67
f 202//68 203//68 204//68
f 205//69 206//69 207//69
f 208//70 209//70 210//70
f 211//71 212//71 213//71
f 214//72 215//72 216//72
f 217//73 218//73 219//73
f 220//74 221//74 222//74
f 223//75 224//75 225//75
f 226//76 227//76 228//76
f 229//77 230//77 231//77
f 232//78 233//78 234//78
f 235//79 236//79 237//79
f 238//80 239//80 240//80
f 241//81 242//81 243//81
f 244//82 245//82 246//82
f 247//83 248//83 249//83
f 250//84 251//84 252//84
f 253//85 254//85 255//85
f 256//86 257//86 258//86
f 259//87 260//87 261//87
f 262//88 263//88 264//88
f 265//89 266//89 267//89
f 268//90 269//90 270//90
f 271//91 272//91 273//91
f 274//92 275//92 276//92
f 277//93 278//93 279//93
f 280//94 281//94 282//94
f 283//95 284//95 285//95
f 286//96 287//96 288//96
f 289//97 290//97 291//97
f 292//98 293//98 294//98
f 295//99 296//99 297//99
f 298//100 299//100 300//100
f 301//101 302//101 303//101
f 304//102 305//102 306//102
f 307//103 308//103 309//103
f 310//104 311//104 312//104
f 313//105 314//105 315//105
f 316//106 317//106 318//106
f 319//107 320//107 321//107
f 322//108 323//108 324//108
