o
v 11.426925 -37.352844 -20.998133
v 11.440125 -37.368114 -21.012632
v 34.264599 -5.511081 -21.569452
v 11.440125 -37.368114 -21.012632
v 11.442533 -37.369877 -21.015396
v 34.264599 -5.511081 -21.569452
v 11.426925 -37.352844 -20.998133
v 11.403785 -37.337128 -20.996029
v 11.440125 -37.368114 -21.012632
v 38.293850 2.836220 -21.966972
v 26.762182 4.749434 -28.353529
v -6.938553 -19.610619 -18.997816
v 26.775257 4.753225 -28.369949
v 26.762182 4.749434 -28.353529
v 38.293850 2.836220 -21.966972
v 26.775257 4.753225 -28.369949
v 38.293850 2.836220 -21.966972
v 32.699749 -0.034253 -32.247437
v 26.775257 4.753225 -28.369949
v 9.376437 -0.000746 -43.776844
v 26.762182 4.749434 -28.353529
v 26.775257 4.753225 -28.369949
v 32.699749 -0.034253 -32.247437
v 9.376437 -0.000746 -43.776844
v 38.293850 2.836220 -21.966972
v -6.938553 -19.610619 -18.997816
v 7.296135 -21.923271 -17.834574
v 38.293850 2.836220 -21.966972
v 7.296135 -21.923271 -17.834574
v 34.264599 -5.511081 -21.569452
v 11.426925 -37.352844 -20.998133
v 34.264599 -5.511081 -21.569452
v 7.296135 -21.923271 -17.834574
v 11.426925 -37.352844 -20.998133
v 7.296135 -21.923271 -17.834574
v 11.403785 -37.337128 -20.996029
v 11.403785 -37.337128 -20.996029
v 7.296135 -21.923271 -17.834574
v -6.938553 -19.610619 -18.997816
v 9.376437 -0.000746 -43.776844
v 8.793746 -10.749701 -44.831310
v 6.980575 -7.514427 -44.317841
v 9.376437 -0.000746 -43.776844
v 9.166198 -10.907510 -44.861824
v 8.793746 -10.749701 -44.831310
v 9.166198 -10.907510 -44.861824
v 9.518540 -11.500761 -44.839294
v 8.793746 -10.749701 -44.831310
v 9.492786 -11.135687 -44.863216
v 9.518540 -11.500761 -44.839294
v 9.166198 -10.907510 -44.861824
v 9.376437 -0.000746 -43.776844
v 17.749657 -9.995568 -44.236641
v 9.166198 -10.907510 -44.861824
v 9.492786 -11.135687 -44.863216
v 9.166198 -10.907510 -44.861824
v 17.749657 -9.995568 -44.236641
v 9.492786 -11.135687 -44.863216
v 17.749657 -9.995568 -44.236641
v 9.518540 -11.500761 -44.839294
v 9.376437 -0.000746 -43.776844
v 11.674073 0.381193 -38.666397
v 26.762182 4.749434 -28.353529
v 17.749657 -9.995568 -44.236641
v 18.133402 -11.978694 -43.953281
v 9.518540 -11.500761 -44.839294
v 17.749657 -9.995568 -44.236641
v 19.420218 -11.204796 -43.426559
v 18.133402 -11.978694 -43.953281
v 32.699749 -0.034253 -32.247437
v 22.454351 -7.836012 -41.409252
v 9.376437 -0.000746 -43.776844
v 9.376437 -0.000746 -43.776844
v 22.454351 -7.836012 -41.409252
v 17.749657 -9.995568 -44.236641
v 17.749657 -9.995568 -44.236641
v 22.454351 -7.836012 -41.409252
v 19.420218 -11.204796 -43.426559
v 9.376437 -0.000746 -43.776844
v 6.980575 -7.514427 -44.317841
v -6.463342 -12.409073 -35.612068
v 9.376437 -0.000746 -43.776844
v 7.667334 -2.231652 -38.819336
v 11.674073 0.381193 -38.666397
v 9.376437 -0.000746 -43.776844
v -6.463342 -12.409073 -35.612068
v 7.667334 -2.231652 -38.819336
v 11.674073 0.381193 -38.666397
v 7.667334 -2.231652 -38.819336
v -6.463342 -12.409073 -35.612068
v 38.293850 2.836220 -21.966972
v 34.264599 -5.511081 -21.569452
v 31.491901 -13.749469 -32.081821
v 11.442533 -37.369877 -21.015396
v 31.491901 -13.749469 -32.081821
v 34.264599 -5.511081 -21.569452
v 38.293850 2.836220 -21.966972
v 31.491901 -13.749469 -32.081821
v 32.699749 -0.034253 -32.247437
v 32.699749 -0.034253 -32.247437
v 31.491901 -13.749469 -32.081821
v 22.454351 -7.836012 -41.409252
v 22.454351 -7.836012 -41.409252
v 31.491901 -13.749469 -32.081821
v 19.420218 -11.204796 -43.426559
v 8.793746 -10.749701 -44.831310
v -1.767485 -19.008034 -39.581158
v 6.980575 -7.514427 -44.317841
v 6.980575 -7.514427 -44.317841
v -1.767485 -19.008034 -39.581158
v -6.463342 -12.409073 -35.612068
v 11.440125 -37.368114 -21.012632
v -3.708058 -24.812710 -33.453865
v 11.442533 -37.369877 -21.015396
v 11.403785 -37.337128 -20.996029
v -3.708058 -24.812710 -33.453865
v 11.440125 -37.368114 -21.012632
v 11.403785 -37.337128 -20.996029
v -6.938553 -19.610619 -18.997816
v -3.708058 -24.812710 -33.453865
v -6.463342 -12.409073 -35.612068
v -3.708058 -24.812710 -33.453865
v -6.938553 -19.610619 -18.997816
v -1.767485 -19.008034 -39.581158
v -3.708058 -24.812710 -33.453865
v -6.463342 -12.409073 -35.612068
v 18.133402 -11.978694 -43.953281
v 8.468287 -24.236700 -41.836342
v 9.518540 -11.500761 -44.839294
v 9.518540 -11.500761 -44.839294
v 8.468287 -24.236700 -41.836342
v 8.793746 -10.749701 -44.831310
v 8.793746 -10.749701 -44.831310
v 8.468287 -24.236700 -41.836342
v -1.767485 -19.008034 -39.581158
v -1.767485 -19.008034 -39.581158
v 4.230328 -25.831900 -38.174507
v -3.708058 -24.812710 -33.453865
v 8.468287 -24.236700 -41.836342
v 4.230328 -25.831900 -38.174507
v -1.767485 -19.008034 -39.581158
v 4.230328 -25.831900 -38.174507
v 4.297823 -25.969589 -38.094345
v -3.708058 -24.812710 -33.453865
v 8.468287 -24.236700 -41.836342
v 4.297823 -25.969589 -38.094345
v 4.230328 -25.831900 -38.174507
v 26.762182 4.749434 -28.353529
v 7.308011 -6.403856 -26.551924
v -6.938553 -19.610619 -18.997816
v 11.674073 0.381193 -38.666397
v 7.308011 -6.403856 -26.551924
v 26.762182 4.749434 -28.353529
v 11.674073 0.381193 -38.666397
v -6.463342 -12.409073 -35.612068
v 7.308011 -6.403856 -26.551924
v -6.463342 -12.409073 -35.612068
v -6.938553 -19.610619 -18.997816
v 7.308011 -6.403856 -26.551924
v -3.708058 -24.812710 -33.453865
v 4.608429 -26.948393 -37.208256
v 11.442533 -37.369877 -21.015396
v 4.297823 -25.969589 -38.094345
v 4.608429 -26.948393 -37.208256
v -3.708058 -24.812710 -33.453865
v 8.468287 -24.236700 -41.836342
v 4.608429 -26.948393 -37.208256
v 4.297823 -25.969589 -38.094345
v 4.608429 -26.948393 -37.208256
v 8.364537 -29.141449 -35.610416
v 11.442533 -37.369877 -21.015396
v 8.468287 -24.236700 -41.836342
v 8.364537 -29.141449 -35.610416
v 4.608429 -26.948393 -37.208256
v 8.364537 -29.141449 -35.610416
v 8.462977 -29.095701 -35.604275
v 11.442533 -37.369877 -21.015396
v 8.468287 -24.236700 -41.836342
v 8.462977 -29.095701 -35.604275
v 8.364537 -29.141449 -35.610416
v 18.133402 -11.978694 -43.953281
v 15.750047 -20.340567 -40.575191
v 8.468287 -24.236700 -41.836342
v 11.442533 -37.369877 -21.015396
v 23.361717 -24.078131 -30.150635
v 31.491901 -13.749469 -32.081821
v 8.462977 -29.095701 -35.604275
v 23.361717 -24.078131 -30.150635
v 11.442533 -37.369877 -21.015396
v 8.468287 -24.236700 -41.836342
v 23.361717 -24.078131 -30.150635
v 8.462977 -29.095701 -35.604275
v 19.420218 -11.204796 -43.426559
v 22.376890 -17.548010 -38.226738
v 18.133402 -11.978694 -43.953281
v 18.133402 -11.978694 -43.953281
v 22.376890 -17.548010 -38.226738
v 15.750047 -20.340567 -40.575191
v 31.491901 -13.749469 -32.081821
v 22.376890 -17.548010 -38.226738
v 19.420218 -11.204796 -43.426559
v 23.361717 -24.078131 -30.150635
v 22.376890 -17.548010 -38.226738
v 31.491901 -13.749469 -32.081821
v 15.750047 -20.340567 -40.575191
v 18.826231 -22.227081 -36.129314
v 8.468287 -24.236700 -41.836342
v 8.468287 -24.236700 -41.836342
v 18.826231 -22.227081 -36.129314
v 23.361717 -24.078131 -30.150635
v 22.376890 -17.548010 -38.226738
v 18.826231 -22.227081 -36.129314
v 15.750047 -20.340567 -40.575191
v 23.361717 -24.078131 -30.150635
v 18.826231 -22.227081 -36.129314
v 22.376890 -17.548010 -38.226738
vn 0.491119 -0.337836 0.802913
vn 0.558467 -0.387301 0.733562
vn -0.498331 -0.783418 0.371362
vn -0.279492 0.655946 0.701156
vn 0.025587 0.969388 0.244198
vn 0.377298 0.818224 -0.433768
vn -0.269761 0.962898 0.007525
vn 0.274300 0.787012 -0.552605
vn -0.044236 0.218098 0.974924
vn 0.153172 -0.026893 0.987834
vn 0.218638 -0.139484 0.965786
vn -0.057598 -0.215295 0.974849
vn -0.116210 -0.229186 0.966421
vn -0.097618 0.102404 -0.989941
vn -0.039228 0.099662 -0.994248
vn -0.129021 -0.114037 -0.985063
vn -0.052441 -0.068979 -0.996239
vn 0.061976 0.097616 -0.993293
vn 0.062253 0.095164 -0.993513
vn 0.083671 -0.059278 -0.994729
vn -0.324540 0.942858 0.075445
vn 0.094788 -0.122813 -0.987893
vn 0.404964 -0.052070 -0.912849
vn 0.401583 0.425181 -0.811142
vn 0.362755 0.343747 -0.866168
vn 0.484120 0.085440 -0.870820
vn -0.588048 0.243054 -0.771443
vn -0.541948 0.820392 0.182344
vn -0.547965 0.817165 0.178818
vn -0.539709 0.815369 0.209494
vn 0.897975 -0.428732 0.099145
vn 0.792531 -0.563683 0.232715
vn 0.884912 -0.083464 -0.458219
vn 0.693960 -0.069768 -0.716625
vn 0.659409 -0.153160 -0.736017
vn -0.395368 -0.076304 -0.915348
vn -0.564555 0.091642 -0.820292
vn -0.618661 -0.784707 -0.038640
vn -0.644986 -0.764062 0.014248
vn -0.684983 -0.720762 0.106297
vn -0.962882 -0.236520 -0.130062
vn -0.814166 -0.270271 -0.513895
vn 0.086502 -0.235385 -0.968045
vn -0.224076 -0.206114 -0.952527
vn -0.306837 -0.199263 -0.930669
vn -0.475821 -0.558315 -0.679616
vn -0.431496 -0.529777 -0.730170
vn -0.463089 -0.604416 -0.648252
vn -0.383325 -0.597803 -0.704055
vn -0.361464 0.725155 0.586084
vn -0.451946 0.837793 0.306348
vn -0.525937 0.808711 0.263393
vn -0.547492 0.773387 0.319570
vn -0.386702 -0.841119 -0.378127
vn -0.440474 -0.675305 -0.591562
vn -0.302439 -0.690656 -0.656906
vn -0.322053 -0.852131 -0.412498
vn -0.190096 -0.769658 -0.609500
vn 0.387797 -0.765540 -0.513383
vn 0.375320 -0.731129 -0.569725
vn 0.375456 -0.437176 -0.817257
vn 0.789391 -0.589038 0.172907
vn 0.436298 -0.741536 -0.509674
vn 0.440477 -0.708182 -0.551778
vn 0.534583 -0.372626 -0.758532
vn 0.459340 -0.442153 -0.770394
vn 0.616632 -0.306875 -0.724978
vn 0.607587 -0.579764 -0.542873
vn 0.456596 -0.660395 -0.596152
vn 0.442037 -0.705625 -0.553801
vn 0.481666 -0.635841 -0.603079
vn 0.502579 -0.641279 -0.579807
f 1//1 2//1 3//1
f 4//2 5//2 6//2
f 7//3 8//3 9//3
f 10//4 11//4 12//4
f 13//5 14//5 15//5
f 16//6 17//6 18//6
f 19//7 20//7 21//7
f 22//8 23//8 24//8
f 25//9 26//9 27//9
f 28//10 29//10 30//10
f 31//11 32//11 33//11
f 34//12 35//12 36//12
f 37//13 38//13 39//13
f 40//14 41//14 42//14
f 43//15 44//15 45//15
f 46//16 47//16 48//16
f 49//17 50//17 51//17
f 52//18 53//18 54//18
f 55//19 56//19 57//19
f 58//20 59//20 60//20
f 61//21 62//21 63//21
f 64//22 65//22 66//22
f 67//23 68//23 69//23
f 70//24 71//24 72//24
f 73//25 74//25 75//25
f 76//26 77//26 78//26
f 79//27 80//27 81//27
f 82//28 83//28 84//28
f 85//29 86//29 87//29
f 88//30 89//30 90//30
f 91//31 92//31 93//31
f 94//32 95//32 96//32
f 97//33 98//33 99//33
f 100//34 101//34 102//34
f 103//35 104//35 105//35
f 106//36 107//36 108//36
f 109//37 110//37 111//37
f 112//38 113//38 114//38
f 115//39 116//39 117//39
f 118//40 119//40 120//40
f 121//41 122//41 123//41
f 124//42 125//42 126//42
f 127//43 128//43 129//43
f 130//44 131//44 132//44
f 133//45 134//45 135//45
f 136//46 137//46 138//46
f 139//47 140//47 141//47
f 142//48 143//48 144//48
f 145//49 146//49 147//49
f 148//50 149//50 150//50
f 151//51 152//51 153//51
f 154//52 155//52 156//52
f 157//53 158//53 159//53
f 160//54 161//54 162//54
f 163//55 164//55 165//55
f 166//56 167//56 168//56
f 169//57 170//57 171//57
f 172//58 173//58 174//58
f 175//59 176//59 177//59
f 178//60 179//60 180//60
f 181//61 182//61 183//61
f 184//62 185//62 186//62
f 187//63 188//63 189//63
f 190//64 191//64 192//64
f 193//65 194//65 195//65
f 196//66 197//66 198//66
f 199//67 200//67 201//67
f 202//68 203//68 204//68
f 205//69 206//69 207//69
f 208//70 209//70 210//70
f 211//71 212//71 213//71
f 214//72 215//72 216//72
