o
v 84.081146 126.394867 145.924683
v 76.041985 131.183502 143.483185
v 82.253754 125.455849 147.329163
v 76.041985 131.183502 143.483185
v 75.309334 131.401459 143.048965
v 82.253754 125.455849 147.329163
v 84.081146 126.394867 145.924683
v 82.253754 125.455849 147.329163
v 144.492584 -25.531961 -62.332985
v 84.081146 126.394867 145.924683
v 56.693325 237.739151 -59.352661
v 76.041985 131.183502 143.483185
v 84.081146 126.394867 145.924683
v 144.492584 -25.531961 -62.332985
v 56.693325 237.739151 -59.352661
v 82.253754 125.455849 147.329163
v 112.618332 -32.789394 -38.582176
v 144.492584 -25.531961 -62.332985
v 76.041985 131.183502 143.483185
v -32.896816 219.626175 26.877420
v 75.309334 131.401459 143.048965
v 56.693325 237.739151 -59.352661
v -32.896816 219.626175 26.877420
v 76.041985 131.183502 143.483185
v -32.896816 219.626175 26.877420
v -32.980278 219.625275 26.832989
v 75.309334 131.401459 143.048965
v 56.693325 237.739151 -59.352661
v -36.286827 220.957397 15.315975
v -32.896816 219.626175 26.877420
v -32.896816 219.626175 26.877420
v -36.286827 220.957397 15.315975
v -32.980278 219.625275 26.832989
v -36.286827 220.957397 15.315975
v -39.544998 217.209534 20.448317
v -32.980278 219.625275 26.832989
v 112.618332 -32.789394 -38.582176
v 25.864523 -117.501251 -80.274902
v 144.492584 -25.531961 -62.332985
v 144.492584 -25.531961 -62.332985
v 25.864523 -117.501251 -80.274902
v 72.367249 -76.173523 -96.634468
v 82.253754 125.455849 147.329163
v 14.113636 3.296786 63.479500
v 112.618332 -32.789394 -38.582176
v 112.618332 -32.789394 -38.582176
v 14.113636 3.296786 63.479500
v 25.864523 -117.501251 -80.274902
v 144.492584 -25.531961 -62.332985
v -0.065225 70.689651 -252.912247
v 56.693325 237.739151 -59.352661
v 14.113636 3.296786 63.479500
v -98.111687 -142.817001 -94.976814
v 25.864523 -117.501251 -80.274902
v 25.864523 -117.501251 -80.274902
v 22.825590 -93.726547 -117.150085
v 72.367249 -76.173523 -96.634468
v -36.286827 220.957397 15.315975
v -100.133133 169.244080 -58.920319
v -39.544998 217.209534 20.448317
v 56.693325 237.739151 -59.352661
v -100.133133 169.244080 -58.920319
v -36.286827 220.957397 15.315975
v -32.980278 219.625275 26.832989
v -85.806679 100.323967 47.918896
v 75.309334 131.401459 143.048965
v -39.544998 217.209534 20.448317
v -85.806679 100.323967 47.918896
v -32.980278 219.625275 26.832989
v 75.309334 131.401459 143.048965
v -85.806679 100.323967 47.918896
v 82.253754 125.455849 147.329163
v 82.253754 125.455849 147.329163
v -85.806679 100.323967 47.918896
v 14.113636 3.296786 63.479500
v -100.133133 169.244080 -58.920319
v -138.305069 126.581947 -43.453800
v -39.544998 217.209534 20.448317
v -39.544998 217.209534 20.448317
v -138.305069 126.581947 -43.453800
v -85.806679 100.323967 47.918896
v 14.113636 3.296786 63.479500
v -98.865898 -109.447968 -73.112343
v -98.111687 -142.817001 -94.976814
v -98.111687 -142.817001 -94.976814
v -98.865898 -109.447968 -73.112343
v -99.096283 -109.731293 -73.840088
v -85.806679 100.323967 47.918896
v -98.865898 -109.447968 -73.112343
v 14.113636 3.296786 63.479500
v 144.492584 -25.531961 -62.332985
v 72.367249 -76.173523 -96.634468
v -25.899220 -68.504143 -196.163208
v 144.492584 -25.531961 -62.332985
v -25.899220 -68.504143 -196.163208
v -0.065225 70.689651 -252.912247
v 22.825590 -93.726547 -117.150085
v -25.899220 -68.504143 -196.163208
v 72.367249 -76.173523 -96.634468
v -98.111687 -142.817001 -94.976814
v -25.899220 -68.504143 -196.163208
v 25.864523 -117.501251 -80.274902
v 25.864523 -117.501251 -80.274902
v -25.899220 -68.504143 -196.163208
v 22.825590 -93.726547 -117.150085
v -115.298889 -59.883820 -191.478317
v -25.899220 -68.504143 -196.163208
v -98.111687 -142.817001 -94.976814
v -115.298889 -59.883820 -191.478317
v -98.111687 -142.817001 -94.976814
v -135.059448 -47.070549 -128.939072
v -98.111687 -142.817001 -94.976814
v -99.096283 -109.731293 -73.840088
v -135.059448 -47.070549 -128.939072
v -100.133133 169.244080 -58.920319
v -122.084373 52.849579 -182.610626
v -138.305069 126.581947 -43.453800
v -115.298889 -59.883820 -191.478317
v -135.059448 -47.070549 -128.939072
v -122.084373 52.849579 -182.610626
v -138.305069 126.581947 -43.453800
v -122.084373 52.849579 -182.610626
v -135.059448 -47.070549 -128.939072
v -25.899220 -68.504143 -196.163208
v -71.507217 -28.641581 -208.860504
v -0.065225 70.689651 -252.912247
v -115.298889 -59.883820 -191.478317
v -71.507217 -28.641581 -208.860504
v -25.899220 -68.504143 -196.163208
v -0.065225 70.689651 -252.912247
v -71.507217 -28.641581 -208.860504
v -115.298889 -59.883820 -191.478317
v -0.065225 70.689651 -252.912247
v -76.445808 97.997726 -186.214218
v 56.693325 237.739151 -59.352661
v 56.693325 237.739151 -59.352661
v -76.445808 97.997726 -186.214218
v -100.133133 169.244080 -58.920319
v -0.065225 70.689651 -252.912247
v -122.084373 52.849579 -182.610626
v -76.445808 97.997726 -186.214218
v -100.133133 169.244080 -58.920319
v -76.445808 97.997726 -186.214218
v -122.084373 52.849579 -182.610626
v -115.298889 -59.883820 -191.478317
v -122.084373 52.849579 -182.610626
v -93.622780 44.471966 -201.553055
v -0.065225 70.689651 -252.912247
v -115.298889 -59.883820 -191.478317
v -93.622780 44.471966 -201.553055
v -0.065225 70.689651 -252.912247
v -93.622780 44.471966 -201.553055
v -122.084373 52.849579 -182.610626
v -138.305069 126.581947 -43.453800
v -100.924721 46.727329 2.626863
v -85.806679 100.323967 47.918896
v -85.806679 100.323967 47.918896
v -100.924721 46.727329 2.626863
v -98.865898 -109.447968 -73.112343
v -138.305069 126.581947 -43.453800
v -131.948273 -10.618539 -97.873283
v -100.924721 46.727329 2.626863
v -100.924721 46.727329 2.626863
v -131.948273 -10.618539 -97.873283
v -98.865898 -109.447968 -73.112343
v -98.865898 -109.447968 -73.112343
v -131.948273 -10.618539 -97.873283
v -99.096283 -109.731293 -73.840088
v -99.096283 -109.731293 -73.840088
v -131.948273 -10.618539 -97.873283
v -135.059448 -47.070549 -128.939072
v -138.305069 126.581947 -43.453800
v -135.059448 -47.070549 -128.939072
v -131.948273 -10.618539 -97.873283
vn 0.191927 0.682014 0.705706
vn -0.501419 0.036642 0.864428
vn 0.675512 -0.488496 0.552318
vn 0.374992 0.834926 0.402840
vn 0.947840 0.315593 0.044721
vn 0.567909 -0.578684 0.585324
vn -0.225833 0.662935 0.713804
vn 0.241356 0.868395 0.433171
vn -0.411282 0.499530 0.762442
vn -0.070419 0.988414 0.134457
vn -0.084289 0.986792 0.138338
vn -0.537411 0.806173 0.247538
vn 0.503495 -0.737309 0.450408
vn 0.619683 -0.765625 -0.172657
vn 0.409884 -0.660458 0.629119
vn 0.381355 -0.692143 0.612786
vn 0.827603 0.281498 -0.485626
vn 0.078698 -0.760036 0.645098
vn 0.466587 -0.725358 -0.506115
vn -0.687682 0.720467 0.089555
vn -0.384715 0.879066 -0.281491
vn -0.524371 0.367913 0.767903
vn -0.708267 0.414605 0.571367
vn -0.511350 0.021215 0.859111
vn -0.445131 -0.324559 0.834578
vn -0.714870 0.686961 0.130558
vn -0.731484 0.416408 0.539940
vn -0.411524 -0.505992 0.758037
vn -0.881767 -0.272295 0.385154
vn -0.511553 -0.405297 0.757660
vn 0.619858 -0.445064 -0.646292
vn 0.627475 -0.390983 -0.673355
vn 0.468071 -0.716427 -0.517341
vn 0.229724 -0.855386 -0.464264
vn 0.447453 -0.734384 -0.510358
vn -0.106992 -0.763397 -0.637006
vn -0.889358 -0.412869 -0.196421
vn -0.914614 -0.236655 0.327836
vn -0.754444 0.539521 -0.373807
vn -0.954969 -0.034298 -0.294715
vn -0.988423 0.051739 -0.142629
vn -0.062244 -0.366868 -0.928188
vn -0.085653 -0.390027 -0.916811
vn -0.155422 -0.304918 -0.939611
vn -0.242351 0.768499 -0.592179
vn -0.346298 0.789688 -0.506429
vn -0.495562 0.441229 -0.748154
vn -0.641898 0.611997 -0.461981
vn -0.547030 0.032871 -0.836467
vn -0.484646 0.016236 -0.874559
vn -0.510520 0.170987 -0.842694
vn -0.875355 -0.143298 0.461757
vn -0.736993 -0.302775 0.604292
vn -0.899763 -0.196278 0.389746
vn -0.897355 -0.202090 0.392319
vn -0.905374 -0.210705 0.368649
vn -0.912053 -0.218105 0.347260
vn -0.949392 -0.152828 0.274405
f 1//1 2//1 3//1
f 4//2 5//2 6//2
f 7//3 8//3 9//3
f 10//4 11//4 12//4
f 13//5 14//5 15//5
f 16//6 17//6 18//6
f 19//7 20//7 21//7
f 22//8 23//8 24//8
f 25//9 26//9 27//9
f 28//10 29//10 30//10
f 31//11 32//11 33//11
f 34//12 35//12 36//12
f 37//13 38//13 39//13
f 40//14 41//14 42//14
f 43//15 44//15 45//15
f 46//16 47//16 48//16
f 49//17 50//17 51//17
f 52//18 53//18 54//18
f 55//19 56//19 57//19
f 58//20 59//20 60//20
f 61//21 62//21 63//21
f 64//22 65//22 66//22
f 67//23 68//23 69//23
f 70//24 71//24 72//24
f 73//25 74//25 75//25
f 76//26 77//26 78//26
f 79//27 80//27 81//27
f 82//28 83//28 84//28
f 85//29 86//29 87//29
f 88//30 89//30 90//30
f 91//31 92//31 93//31
f 94//32 95//32 96//32
f 97//33 98//33 99//33
f 100//34 101//34 102//34
f 103//35 104//35 105//35
f 106//36 107//36 108//36
f 109//37 110//37 111//37
f 112//38 113//38 114//38
f 115//39 116//39 117//39
f 118//40 119//40 120//40
f 121//41 122//41 123//41
f 124//42 125//42 126//42
f 127//43 128//43 129//43
f 130//44 131//44 132//44
f 133//45 134//45 135//45
f 136//46 137//46 138//46
f 139//47 140//47 141//47
f 142//48 143//48 144//48
f 145//49 146//49 147//49
f 148//50 149//50 150//50
f 151//51 152//51 153//51
f 154//52 155//52 156//52
f 157//53 158//53 159//53
f 160//54 161//54 162//54
f 163//55 164//55 165//55
f 166//56 167//56 168//56
f 169//57 170//57 171//57
f 172//58 173//58 174//58
