o
v 11.547966 6.693246 27.514242
v 9.931360 2.894926 31.146166
v 10.177809 2.640678 31.709366
v 11.547966 6.693246 27.514242
v 10.177809 2.640678 31.709366
v 22.478052 -5.839288 37.831318
v 10.177809 2.640678 31.709366
v -0.398348 -33.793266 30.873932
v 22.434299 -5.851387 37.845047
v 22.478052 -5.839288 37.831318
v 22.434299 -5.851387 37.845047
v -0.398348 -33.793266 30.873932
v 10.177809 2.640678 31.709366
v 22.434299 -5.851387 37.845047
v 22.478052 -5.839288 37.831318
v 9.931360 2.894926 31.146166
v 1.612542 -3.443549 25.475716
v 10.177809 2.640678 31.709366
v 10.177809 2.640678 31.709366
v 1.612542 -3.443549 25.475716
v -0.398348 -33.793266 30.873932
v -0.572388 -31.226048 29.070169
v -0.398348 -33.793266 30.873932
v 1.612542 -3.443549 25.475716
v 11.547966 6.693246 27.514242
v 1.612542 -3.443549 25.475716
v 9.931360 2.894926 31.146166
v 11.547966 6.693246 27.514242
v 1.935969 5.697929 -10.615407
v 1.612542 -3.443549 25.475716
v 11.547966 6.693246 27.514242
v 22.478052 -5.839288 37.831318
v 21.878998 4.595212 19.984594
v 22.478052 -5.839288 37.831318
v 40.429123 -0.565539 8.288108
v 21.878998 4.595212 19.984594
v 1.935969 5.697929 -10.615407
v 21.878998 4.595212 19.984594
v 40.429123 -0.565539 8.288108
v 11.547966 6.693246 27.514242
v 21.878998 4.595212 19.984594
v 1.935969 5.697929 -10.615407
v 22.478052 -5.839288 37.831318
v 31.502506 -4.032883 23.257811
v 40.429123 -0.565539 8.288108
v 1.935969 5.697929 -10.615407
v -1.481396 -2.364295 -0.188945
v 1.612542 -3.443549 25.475716
v 1.935969 5.697929 -10.615407
v -2.621688 -14.011479 -15.283956
v -1.481396 -2.364295 -0.188945
v -0.129906 -42.752148 -5.327940
v -2.621688 -14.011479 -15.283956
v 1.449501 -32.828541 -18.360273
v -0.129906 -42.752148 -5.327940
v 1.449501 -32.828541 -18.360273
v 5.944982 -34.726730 -21.409241
v 1.935969 5.697929 -10.615407
v 5.944982 -34.726730 -21.409241
v -2.621688 -14.011479 -15.283956
v -2.621688 -14.011479 -15.283956
v 5.944982 -34.726730 -21.409241
v 1.449501 -32.828541 -18.360273
v -0.129906 -42.752148 -5.327940
v 5.944982 -34.726730 -21.409241
v 9.331155 -35.769222 -21.834925
v -0.572388 -31.226048 29.070169
v 1.612542 -3.443549 25.475716
v -2.454909 -15.206086 9.444097
v -1.481396 -2.364295 -0.188945
v -2.454909 -15.206086 9.444097
v 1.612542 -3.443549 25.475716
v -0.572388 -31.226048 29.070169
v -2.454909 -15.206086 9.444097
v -0.398348 -33.793266 30.873932
v -0.398348 -33.793266 30.873932
v -2.454909 -15.206086 9.444097
v -0.129906 -42.752148 -5.327940
v -0.129906 -42.752148 -5.327940
v -2.454909 -15.206086 9.444097
v -2.621688 -14.011479 -15.283956
v -2.621688 -14.011479 -15.283956
v -2.454909 -15.206086 9.444097
v -1.481396 -2.364295 -0.188945
v 22.478052 -5.839288 37.831318
v 27.395712 -12.966960 26.084179
v 31.502506 -4.032883 23.257811
v 31.502506 -4.032883 23.257811
v 27.395712 -12.966960 26.084179
v 40.429123 -0.565539 8.288108
v -0.129906 -42.752148 -5.327940
v 9.331155 -35.769222 -21.834925
v 13.552463 -39.615875 -12.703291
v 22.478052 -5.839288 37.831318
v -0.398348 -33.793266 30.873932
v 17.349791 -29.054468 24.357788
v -0.398348 -33.793266 30.873932
v -0.129906 -42.752148 -5.327940
v 17.349791 -29.054468 24.357788
v -0.129906 -42.752148 -5.327940
v 13.552463 -39.615875 -12.703291
v 17.349791 -29.054468 24.357788
v 22.478052 -5.839288 37.831318
v 26.316927 -19.105772 23.066528
v 27.395712 -12.966960 26.084179
v 22.478052 -5.839288 37.831318
v 17.349791 -29.054468 24.357788
v 26.316927 -19.105772 23.066528
v 27.395712 -12.966960 26.084179
v 26.316927 -19.105772 23.066528
v 40.429123 -0.565539 8.288108
v 9.331155 -35.769222 -21.834925
v 18.603033 -28.615345 -17.796131
v 13.552463 -39.615875 -12.703291
v 17.541302 -28.406908 -18.756353
v 18.603033 -28.615345 -17.796131
v 9.331155 -35.769222 -21.834925
v 1.935969 5.697929 -10.615407
v 16.651365 -21.409943 -18.632692
v 5.944982 -34.726730 -21.409241
v 5.944982 -34.726730 -21.409241
v 16.651365 -21.409943 -18.632692
v 9.331155 -35.769222 -21.834925
v 17.541302 -28.406908 -18.756353
v 19.732468 -22.350245 -17.966036
v 18.603033 -28.615345 -17.796131
v 17.541302 -28.406908 -18.756353
v 9.331155 -35.769222 -21.834925
v 19.732468 -22.350245 -17.966036
v 16.651365 -21.409943 -18.632692
v 19.732468 -22.350245 -17.966036
v 9.331155 -35.769222 -21.834925
v 18.603033 -28.615345 -17.796131
v 21.021330 -27.423370 -14.966436
v 13.552463 -39.615875 -12.703291
v 26.316927 -19.105772 23.066528
v 26.922031 -25.424398 12.275300
v 40.429123 -0.565539 8.288108
v 17.349791 -29.054468 24.357788
v 26.922031 -25.424398 12.275300
v 26.316927 -19.105772 23.066528
v 19.732468 -22.350245 -17.966036
v 23.093723 -24.342943 -14.573580
v 18.603033 -28.615345 -17.796131
v 18.603033 -28.615345 -17.796131
v 23.093723 -24.342943 -14.573580
v 21.021330 -27.423370 -14.966436
v 40.429123 -0.565539 8.288108
v 23.093723 -24.342943 -14.573580
v 19.732468 -22.350245 -17.966036
v 1.935969 5.697929 -10.615407
v 40.429123 -0.565539 8.288108
v 21.566946 -13.811638 -14.578782
v 40.429123 -0.565539 8.288108
v 19.732468 -22.350245 -17.966036
v 21.566946 -13.811638 -14.578782
v 1.935969 5.697929 -10.615407
v 21.566946 -13.811638 -14.578782
v 16.651365 -21.409943 -18.632692
v 16.651365 -21.409943 -18.632692
v 21.566946 -13.811638 -14.578782
v 19.732468 -22.350245 -17.966036
v 23.093723 -24.342943 -14.573580
v 23.863708 -28.525034 -8.211893
v 21.021330 -27.423370 -14.966436
v 40.429123 -0.565539 8.288108
v 23.863708 -28.525034 -8.211893
v 23.093723 -24.342943 -14.573580
v 21.021330 -27.423370 -14.966436
v 23.863708 -28.525034 -8.211893
v 13.552463 -39.615875 -12.703291
v 13.552463 -39.615875 -12.703291
v 23.863708 -28.525034 -8.211893
v 23.322763 -29.221132 -8.148993
v 13.552463 -39.615875 -12.703291
v 23.738342 -30.928848 -1.382187
v 17.349791 -29.054468 24.357788
v 17.349791 -29.054468 24.357788
v 23.738342 -30.928848 -1.382187
v 26.922031 -25.424398 12.275300
v 13.552463 -39.615875 -12.703291
v 23.322763 -29.221132 -8.148993
v 23.738342 -30.928848 -1.382187
v 26.922031 -25.424398 12.275300
v 23.738342 -30.928848 -1.382187
v 40.429123 -0.565539 8.288108
v 40.429123 -0.565539 8.288108
v 23.738342 -30.928848 -1.382187
v 23.863708 -28.525034 -8.211893
v 23.863708 -28.525034 -8.211893
v 23.738342 -30.928848 -1.382187
v 23.322763 -29.221132 -8.148993
vn -0.474948 0.705332 0.526242
vn 0.124363 0.693032 0.710099
vn -0.393315 0.093199 0.914668
vn 0.382480 -0.505501 0.773420
vn 0.062257 0.641990 0.764181
vn -0.712699 0.467547 0.522934
vn -0.657267 0.173979 0.733301
vn -0.963261 0.107591 0.246072
vn -0.705232 0.623267 0.337916
vn -0.720779 0.673456 0.164120
vn 0.471700 0.768008 0.433200
vn 0.483188 0.762782 0.429759
vn 0.207541 0.973082 -0.100195
vn 0.153323 0.986076 -0.064391
vn 0.826993 0.176076 0.533929
vn -0.845961 0.518677 0.123794
vn -0.960472 0.250744 -0.120917
vn -0.955546 -0.167015 -0.242979
vn -0.607967 -0.594441 -0.526323
vn -0.087991 0.248818 -0.964545
vn -0.556807 0.015306 -0.830501
vn -0.310645 -0.798407 -0.515797
vn -0.979446 0.099713 0.175339
vn -0.977862 0.167853 0.124942
vn -0.995503 -0.000931 0.094728
vn -0.995609 -0.092327 0.015466
vn -0.996336 -0.085484 0.002590
vn -0.996441 0.083610 0.010760
vn 0.839820 -0.230566 0.491469
vn 0.855946 -0.250330 0.452429
vn 0.001587 -0.921308 -0.388830
vn 0.413322 -0.523654 0.744950
vn 0.328762 -0.916187 0.229167
vn 0.332151 -0.915536 0.226870
vn 0.734057 -0.399087 0.549445
vn 0.629726 -0.489284 0.603362
vn 0.855726 -0.341476 0.388751
vn 0.650572 -0.544018 -0.529906
vn 0.588750 -0.352354 -0.727475
vn -0.062569 0.251671 -0.965788
vn -0.047809 0.240569 -0.969454
vn 0.649436 -0.137359 -0.747907
vn 0.356704 -0.007148 -0.934190
vn 0.237937 0.094283 -0.966694
vn 0.741702 -0.530526 -0.410391
vn 0.858870 -0.419542 0.293816
vn 0.709804 -0.589785 0.385140
vn 0.661353 -0.139213 -0.737043
vn 0.762638 -0.454362 -0.460367
vn 0.736642 0.105252 -0.668043
vn 0.433741 0.577026 -0.692033
vn 0.735557 0.107324 -0.668907
vn 0.182180 0.368506 -0.911600
vn 0.288086 0.298995 -0.909730
vn 0.781361 -0.473880 -0.406094
vn 0.885188 -0.332309 -0.325595
vn 0.746259 -0.531524 -0.400724
vn 0.757477 -0.609730 -0.233361
vn 0.508477 -0.840435 0.187402
vn 0.554700 -0.808502 0.196549
vn 0.756323 -0.621786 -0.203367
vn 0.877827 -0.478836 -0.011642
vn 0.885842 -0.442523 -0.139492
vn 0.764511 -0.612315 -0.201480
f 1//1 2//1 3//1
f 4//2 5//2 6//2
f 7//3 8//3 9//3
f 10//4 11//4 12//4
f 13//5 14//5 15//5
f 16//6 17//6 18//6
f 19//7 20//7 21//7
f 22//8 23//8 24//8
f 25//9 26//9 27//9
f 28//10 29//10 30//10
f 31//11 32//11 33//11
f 34//12 35//12 36//12
f 37//13 38//13 39//13
f 40//14 41//14 42//14
f 43//15 44//15 45//15
f 46//16 47//16 48//16
f 49//17 50//17 51//17
f 52//18 53//18 54//18
f 55//19 56//19 57//19
f 58//20 59//20 60//20
f 61//21 62//21 63//21
f 64//22 65//22 66//22
f 67//23 68//23 69//23
f 70//24 71//24 72//24
f 73//25 74//25 75//25
f 76//26 77//26 78//26
f 79//27 80//27 81//27
f 82//28 83//28 84//28
f 85//29 86//29 87//29
f 88//30 89//30 90//30
f 91//31 92//31 93//31
f 94//32 95//32 96//32
f 97//33 98//33 99//33
f 100//34 101//34 102//34
f 103//35 104//35 105//35
f 106//36 107//36 108//36
f 109//37 110//37 111//37
f 112//38 113//38 114//38
f 115//39 116//39 117//39
f 118//40 119//40 120//40
f 121//41 122//41 123//41
f 124//42 125//42 126//42
f 127//43 128//43 129//43
f 130//44 131//44 132//44
f 133//45 134//45 135//45
f 136//46 137//46 138//46
f 139//47 140//47 141//47
f 142//48 143//48 144//48
f 145//49 146//49 147//49
f 148//50 149//50 150//50
f 151//51 152//51 153//51
f 154//52 155//52 156//52
f 157//53 158//53 159//53
f 160//54 161//54 162//54
f 163//55 164//55 165//55
f 166//56 167//56 168//56
f 169//57 170//57 171//57
f 172//58 173//58 174//58
f 175//59 176//59 177//59
f 178//60 179//60 180//60
f 181//61 182//61 183//61
f 184//62 185//62 186//62
f 187//63 188//63 189//63
f 190//64 191//64 192//64
