o
v -125.285561 -129.103073 -39.340595
v -3.389424 -32.182270 -44.563145
v -33.068306 -1.010336 -43.039696
v -3.389424 -32.182270 -44.563145
v -28.970713 1.536821 -46.876251
v -33.068306 -1.010336 -43.039696
v -46.202755 54.062214 -252.705917
v -46.218464 53.991024 -253.305450
v -134.526566 28.107765 -195.936935
v -46.202755 54.062214 -252.705917
v -134.526566 28.107765 -195.936935
v -46.017559 53.923141 -251.804642
v -46.017559 53.923141 -251.804642
v -134.526566 28.107765 -195.936935
v -28.970713 1.536821 -46.876251
v -28.970713 1.536821 -46.876251
v -134.526566 28.107765 -195.936935
v -33.068306 -1.010336 -43.039696
v 38.035976 -83.647415 -104.513443
v -16.463881 -183.108856 -130.751648
v 54.687710 -95.492477 -161.836548
v -125.285561 -129.103073 -39.340595
v -123.002769 -171.729156 -74.681122
v -16.463881 -183.108856 -130.751648
v -46.202755 54.062214 -252.705917
v 29.870581 -36.882580 -132.183868
v -46.218464 53.991024 -253.305450
v -46.202755 54.062214 -252.705917
v -46.017559 53.923141 -251.804642
v 29.870581 -36.882580 -132.183868
v 54.687710 -95.492477 -161.836548
v -46.218464 53.991024 -253.305450
v 29.870581 -36.882580 -132.183868
v 38.035976 -83.647415 -104.513443
v 54.687710 -95.492477 -161.836548
v 29.870581 -36.882580 -132.183868
v -3.389424 -32.182270 -44.563145
v 38.035976 -83.647415 -104.513443
v 29.870581 -36.882580 -132.183868
v -125.285561 -129.103073 -39.340595
v -33.068306 -1.010336 -43.039696
v -140.472824 -21.051733 -72.178711
v -134.526566 28.107765 -195.936935
v -140.472824 -21.051733 -72.178711
v -33.068306 -1.010336 -43.039696
v -16.463881 -183.108856 -130.751648
v 18.153320 -67.862907 -202.084457
v 54.687710 -95.492477 -161.836548
v 54.687710 -95.492477 -161.836548
v 18.153320 -67.862907 -202.084457
v -46.218464 53.991024 -253.305450
v -3.389424 -32.182270 -44.563145
v -13.562757 3.474189 -80.849472
v -28.970713 1.536821 -46.876251
v -3.389424 -32.182270 -44.563145
v 29.870581 -36.882580 -132.183868
v -13.562757 3.474189 -80.849472
v -46.017559 53.923141 -251.804642
v -28.970713 1.536821 -46.876251
v -13.562757 3.474189 -80.849472
v -46.017559 53.923141 -251.804642
v -13.562757 3.474189 -80.849472
v 29.870581 -36.882580 -132.183868
v -125.285561 -129.103073 -39.340595
v -16.963511 -76.271217 -52.885471
v -3.389424 -32.182270 -44.563145
v 38.035976 -83.647415 -104.513443
v -16.963511 -76.271217 -52.885471
v -16.463881 -183.108856 -130.751648
v -3.389424 -32.182270 -44.563145
v -16.963511 -76.271217 -52.885471
v 38.035976 -83.647415 -104.513443
v -46.218464 53.991024 -253.305450
v -57.606590 -34.981846 -238.218307
v -134.526566 28.107765 -195.936935
v 18.153320 -67.862907 -202.084457
v -57.606590 -34.981846 -238.218307
v -46.218464 53.991024 -253.305450
v -125.285561 -129.103073 -39.340595
v -16.463881 -183.108856 -130.751648
v -27.613628 -88.790886 -56.241348
v -125.285561 -129.103073 -39.340595
v -27.613628 -88.790886 -56.241348
v -16.963511 -76.271217 -52.885471
v -16.963511 -76.271217 -52.885471
v -27.613628 -88.790886 -56.241348
v -16.463881 -183.108856 -130.751648
v -123.002769 -171.729156 -74.681122
v -116.922096 -148.812256 -140.189636
v -16.463881 -183.108856 -130.751648
v -134.526566 28.107765 -195.936935
v -143.841125 -46.037998 -167.536011
v -140.472824 -21.051733 -72.178711
v -125.285561 -129.103073 -39.340595
v -133.962189 -128.690430 -145.141312
v -123.002769 -171.729156 -74.681122
v -125.285561 -129.103073 -39.340595
v -140.472824 -21.051733 -72.178711
v -133.962189 -128.690430 -145.141312
v -143.841125 -46.037998 -167.536011
v -133.962189 -128.690430 -145.141312
v -140.472824 -21.051733 -72.178711
v -123.002769 -171.729156 -74.681122
v -133.962189 -128.690430 -145.141312
v -116.922096 -148.812256 -140.189636
v -116.922096 -148.812256 -140.189636
v -120.159767 -136.207596 -156.719452
v -16.463881 -183.108856 -130.751648
v -133.962189 -128.690430 -145.141312
v -120.159767 -136.207596 -156.719452
v -116.922096 -148.812256 -140.189636
v -143.841125 -46.037998 -167.536011
v -121.680237 -126.042931 -163.487701
v -133.962189 -128.690430 -145.141312
v -133.962189 -128.690430 -145.141312
v -121.680237 -126.042931 -163.487701
v -120.159767 -136.207596 -156.719452
v -16.463881 -183.108856 -130.751648
v -40.615074 -104.016052 -204.137039
v 18.153320 -67.862907 -202.084457
v 18.153320 -67.862907 -202.084457
v -40.615074 -104.016052 -204.137039
v -57.606590 -34.981846 -238.218307
v -121.680237 -126.042931 -163.487701
v -80.484756 -96.630623 -211.780167
v -120.159767 -136.207596 -156.719452
v -16.463881 -183.108856 -130.751648
v -74.061401 -97.905563 -211.391586
v -40.615074 -104.016052 -204.137039
v -80.484756 -96.630623 -211.780167
v -74.061401 -97.905563 -211.391586
v -16.463881 -183.108856 -130.751648
v -40.615074 -104.016052 -204.137039
v -74.061401 -97.905563 -211.391586
v -57.606590 -34.981846 -238.218307
v -57.606590 -34.981846 -238.218307
v -74.061401 -97.905563 -211.391586
v -80.484756 -96.630623 -211.780167
v -143.841125 -46.037998 -167.536011
v -129.459595 -69.894592 -176.343628
v -121.680237 -126.042931 -163.487701
v -120.159767 -136.207596 -156.719452
v -92.686462 -142.520081 -157.577026
v -16.463881 -183.108856 -130.751648
v -80.484756 -96.630623 -211.780167
v -92.686462 -142.520081 -157.577026
v -120.159767 -136.207596 -156.719452
v -80.484756 -96.630623 -211.780167
v -16.463881 -183.108856 -130.751648
v -92.686462 -142.520081 -157.577026
v -57.606590 -34.981846 -238.218307
v -111.782303 -67.296089 -197.028000
v -134.526566 28.107765 -195.936935
v -57.606590 -34.981846 -238.218307
v -80.484756 -96.630623 -211.780167
v -111.782303 -67.296089 -197.028000
v -134.526566 28.107765 -195.936935
v -111.782303 -67.296089 -197.028000
v -143.841125 -46.037998 -167.536011
v -143.841125 -46.037998 -167.536011
v -111.782303 -67.296089 -197.028000
v -129.459595 -69.894592 -176.343628
v -121.680237 -126.042931 -163.487701
v -111.782303 -67.296089 -197.028000
v -80.484756 -96.630623 -211.780167
v -129.459595 -69.894592 -176.343628
v -111.782303 -67.296089 -197.028000
v -121.680237 -126.042931 -163.487701
vn 0.046450 -0.004594 0.998910
vn 0.472908 0.412198 0.778750
vn -0.340295 0.934762 -0.102079
vn -0.166593 0.968759 0.183717
vn -0.118805 0.959567 0.255179
vn -0.248259 0.907943 0.337649
vn 0.785989 -0.519217 0.335611
vn 0.324325 -0.593397 0.736677
vn 0.818776 0.567203 -0.088804
vn 0.813202 0.576716 -0.078108
vn 0.864075 0.464272 -0.194487
vn 0.933842 0.288312 0.211695
vn 0.884411 0.342201 0.317357
vn -0.295593 0.239511 0.924802
vn -0.261863 0.901185 0.345389
vn 0.377972 -0.566689 -0.732121
vn 0.783370 0.161540 -0.600197
vn 0.729831 0.578663 0.364001
vn 0.809805 0.515720 0.279729
vn 0.339573 0.917668 0.206338
vn 0.720460 0.690260 0.066921
vn 0.239608 -0.250813 0.937913
vn 0.563048 -0.485037 0.669116
vn 0.623384 -0.326077 0.710680
vn -0.527447 -0.075977 -0.846184
vn 0.349745 -0.199966 -0.915255
vn 0.358211 -0.552318 0.752748
vn 0.345533 -0.505806 0.790422
vn 0.399564 -0.538712 0.741713
vn -0.275054 -0.899258 -0.340119
vn -0.992096 0.125463 0.002169
vn -0.989504 -0.119883 0.080681
vn -0.990121 -0.114626 0.080752
vn -0.992871 -0.101932 0.061780
vn -0.692244 -0.658747 -0.294706
vn -0.218786 -0.796112 -0.564215
vn -0.663249 -0.652060 -0.367313
vn -0.788411 -0.246895 -0.563428
vn -0.703904 -0.463612 -0.538129
vn 0.374278 -0.566732 -0.733983
vn 0.261593 -0.374730 -0.889464
vn -0.448126 -0.540946 -0.711731
vn 0.037048 -0.673593 -0.738173
vn -0.101134 -0.719076 -0.687533
vn 0.119620 -0.415673 -0.901614
vn -0.021139 -0.387412 -0.921664
vn -0.766401 -0.242390 -0.594875
vn -0.195773 -0.769452 -0.607961
vn -0.187919 -0.728347 -0.658936
vn -0.159818 -0.735368 -0.658554
vn -0.553349 -0.122496 -0.823893
vn -0.537097 -0.156171 -0.828937
vn -0.724814 -0.165146 -0.668859
vn -0.732071 -0.201012 -0.650896
vn -0.624747 -0.305097 -0.718753
vn -0.720832 -0.248057 -0.647201
f 1//1 2//1 3//1
f 4//2 5//2 6//2
f 7//3 8//3 9//3
f 10//4 11//4 12//4
f 13//5 14//5 15//5
f 16//6 17//6 18//6
f 19//7 20//7 21//7
f 22//8 23//8 24//8
f 25//9 26//9 27//9
f 28//10 29//10 30//10
f 31//11 32//11 33//11
f 34//12 35//12 36//12
f 37//13 38//13 39//13
f 40//14 41//14 42//14
f 43//15 44//15 45//15
f 46//16 47//16 48//16
f 49//17 50//17 51//17
f 52//18 53//18 54//18
f 55//19 56//19 57//19
f 58//20 59//20 60//20
f 61//21 62//21 63//21
f 64//22 65//22 66//22
f 67//23 68//23 69//23
f 70//24 71//24 72//24
f 73//25 74//25 75//25
f 76//26 77//26 78//26
f 79//27 80//27 81//27
f 82//28 83//28 84//28
f 85//29 86//29 87//29
f 88//30 89//30 90//30
f 91//31 92//31 93//31
f 94//32 95//32 96//32
f 97//33 98//33 99//33
f 100//34 101//34 102//34
f 103//35 104//35 105//35
f 106//36 107//36 108//36
f 109//37 110//37 111//37
f 112//38 113//38 114//38
f 115//39 116//39 117//39
f 118//40 119//40 120//40
f 121//41 122//41 123//41
f 124//42 125//42 126//42
f 127//43 128//43 129//43
f 130//44 131//44 132//44
f 133//45 134//45 135//45
f 136//46 137//46 138//46
f 139//47 140//47 141//47
f 142//48 143//48 144//48
f 145//49 146//49 147//49
f 148//50 149//50 150//50
f 151//51 152//51 153//51
f 154//52 155//52 156//52
f 157//53 158//53 159//53
f 160//54 161//54 162//54
f 163//55 164//55 165//55
f 166//56 167//56 168//56
