o
v 164.713608 75.592209 85.340256
v 75.907539 92.904472 161.307343
v -13.397900 -106.206963 -23.474560
v 164.713608 75.592209 85.340256
v 80.093857 124.402916 150.884094
v 75.907539 92.904472 161.307343
v -101.982643 168.015991 -57.334946
v -104.106979 166.142059 -60.893970
v -77.626038 147.779709 -8.085587
v -13.397900 -106.206963 -23.474560
v -77.626038 147.779709 -8.085587
v -104.106979 166.142059 -60.893970
v -13.397900 -106.206963 -23.474560
v -104.106979 166.142059 -60.893970
v -51.375294 60.137234 -173.820618
v -104.106979 166.142059 -60.893970
v -89.086906 147.389008 -88.312920
v -51.375294 60.137234 -173.820618
v -13.397900 -106.206963 -23.474560
v -51.375294 60.137234 -173.820618
v 15.099807 17.304152 -235.062393
v -101.982643 168.015991 -57.334946
v -77.626038 147.779709 -8.085587
v -1.771003 196.737854 13.069683
v 164.713608 75.592209 85.340256
v -13.397900 -106.206963 -23.474560
v 97.349541 -29.712095 -65.611603
v -13.397900 -106.206963 -23.474560
v 15.099807 17.304152 -235.062393
v 97.349541 -29.712095 -65.611603
v 164.713608 75.592209 85.340256
v 97.349541 -29.712095 -65.611603
v 123.758324 7.880249 -72.696770
v 15.099807 17.304152 -235.062393
v 106.082916 2.225088 -116.195343
v 97.349541 -29.712095 -65.611603
v 97.349541 -29.712095 -65.611603
v 106.082916 2.225088 -116.195343
v 123.758324 7.880249 -72.696770
v 164.713608 75.592209 85.340256
v 106.924438 160.150146 -97.113640
v 80.093857 124.402916 150.884094
v 80.093857 124.402916 150.884094
v 106.924438 160.150146 -97.113640
v -1.771003 196.737854 13.069683
v 75.907539 92.904472 161.307343
v -36.162285 108.584122 65.708267
v -13.397900 -106.206963 -23.474560
v 80.093857 124.402916 150.884094
v -36.162285 108.584122 65.708267
v 75.907539 92.904472 161.307343
v -77.626038 147.779709 -8.085587
v -36.162285 108.584122 65.708267
v -1.771003 196.737854 13.069683
v 80.093857 124.402916 150.884094
v -1.771003 196.737854 13.069683
v -36.162285 108.584122 65.708267
v -101.982643 168.015991 -57.334946
v 36.356289 185.521713 -123.455994
v -104.106979 166.142059 -60.893970
v -104.106979 166.142059 -60.893970
v 36.356289 185.521713 -123.455994
v -89.086906 147.389008 -88.312920
v -89.086906 147.389008 -88.312920
v 36.356289 185.521713 -123.455994
v -51.375294 60.137234 -173.820618
v -51.375294 60.137234 -173.820618
v 36.356289 185.521713 -123.455994
v 15.099807 17.304152 -235.062393
v -101.982643 168.015991 -57.334946
v -1.771003 196.737854 13.069683
v 36.356289 185.521713 -123.455994
v 106.924438 160.150146 -97.113640
v 36.356289 185.521713 -123.455994
v -1.771003 196.737854 13.069683
v 164.713608 75.592209 85.340256
v 123.758324 7.880249 -72.696770
v 124.470749 23.823883 -85.537598
v 164.713608 75.592209 85.340256
v 110.420441 34.920532 -138.321121
v 106.924438 160.150146 -97.113640
v 164.713608 75.592209 85.340256
v 124.470749 23.823883 -85.537598
v 110.420441 34.920532 -138.321121
v 106.082916 2.225088 -116.195343
v 110.420441 34.920532 -138.321121
v 123.758324 7.880249 -72.696770
v 123.758324 7.880249 -72.696770
v 110.420441 34.920532 -138.321121
v 124.470749 23.823883 -85.537598
v 15.099807 17.304152 -235.062393
v 110.420441 34.920532 -138.321121
v 106.082916 2.225088 -116.195343
v -13.397900 -106.206963 -23.474560
v -36.227367 96.251221 58.531475
v -77.626038 147.779709 -8.085587
v -36.162285 108.584122 65.708267
v -36.227367 96.251221 58.531475
v -13.397900 -106.206963 -23.474560
v -77.626038 147.779709 -8.085587
v -36.227367 96.251221 58.531475
v -36.162285 108.584122 65.708267
v 110.420441 34.920532 -138.321121
v 78.138496 96.906799 -154.280243
v 106.924438 160.150146 -97.113640
v 15.099807 17.304152 -235.062393
v 78.138496 96.906799 -154.280243
v 110.420441 34.920532 -138.321121
v 36.356289 185.521713 -123.455994
v 62.196213 114.487061 -155.174561
v 15.099807 17.304152 -235.062393
v 15.099807 17.304152 -235.062393
v 62.196213 114.487061 -155.174561
v 78.138496 96.906799 -154.280243
v 106.924438 160.150146 -97.113640
v 62.196213 114.487061 -155.174561
v 36.356289 185.521713 -123.455994
v 78.138496 96.906799 -154.280243
v 62.196213 114.487061 -155.174561
v 106.924438 160.150146 -97.113640
vn 0.368082 -0.715802 0.593416
vn 0.659464 0.155717 0.735431
vn -0.876088 0.095635 0.472571
vn -0.897673 -0.249031 0.363549
vn -0.935571 -0.329172 -0.127874
vn -0.770217 0.244415 -0.589090
vn -0.731123 -0.541739 -0.414703
vn -0.558196 0.633155 0.536220
vn 0.612831 -0.749772 0.249560
vn 0.401757 -0.813393 -0.420695
vn 0.820662 -0.570530 0.031773
vn 0.427970 -0.795745 -0.428522
vn 0.773167 -0.587959 -0.237733
vn 0.591213 0.786770 0.177370
vn 0.469237 0.865454 0.175516
vn -0.635372 -0.352591 0.687010
vn -0.587474 0.323535 0.741754
vn -0.542492 0.576499 0.611026
vn -0.532215 0.577365 0.619190
vn -0.267537 0.909199 -0.319031
vn -0.381730 0.652044 -0.655073
vn -0.376928 0.560070 -0.737731
vn -0.347288 0.548518 -0.760604
vn -0.186296 0.973585 -0.132010
vn 0.333133 0.942751 0.015583
vn 0.967945 -0.182353 -0.172713
vn 0.961081 0.110192 -0.253338
vn 0.967688 0.057853 -0.245424
vn 0.887955 -0.332702 -0.317562
vn 0.910097 -0.283836 -0.301927
vn 0.668330 -0.475679 -0.571896
vn -0.897127 -0.248976 0.364929
vn -0.792519 -0.303599 0.528905
vn -0.895696 -0.220110 0.386368
vn 0.745593 0.226985 -0.626553
vn 0.685243 0.174838 -0.707018
vn 0.353814 0.485636 -0.799358
vn 0.486631 0.401830 -0.775708
vn 0.454492 0.495770 -0.740033
vn 0.517721 0.431915 -0.738522
f 1//1 2//1 3//1
f 4//2 5//2 6//2
f 7//3 8//3 9//3
f 10//4 11//4 12//4
f 13//5 14//5 15//5
f 16//6 17//6 18//6
f 19//7 20//7 21//7
f 22//8 23//8 24//8
f 25//9 26//9 27//9
f 28//10 29//10 30//10
f 31//11 32//11 33//11
f 34//12 35//12 36//12
f 37//13 38//13 39//13
f 40//14 41//14 42//14
f 43//15 44//15 45//15
f 46//16 47//16 48//16
f 49//17 50//17 51//17
f 52//18 53//18 54//18
f 55//19 56//19 57//19
f 58//20 59//20 60//20
f 61//21 62//21 63//21
f 64//22 65//22 66//22
f 67//23 68//23 69//23
f 70//24 71//24 72//24
f 73//25 74//25 75//25
f 76//26 77//26 78//26
f 79//27 80//27 81//27
f 82//28 83//28 84//28
f 85//29 86//29 87//29
f 88//30 89//30 90//30
f 91//31 92//31 93//31
f 94//32 95//32 96//32
f 97//33 98//33 99//33
f 100//34 101//34 102//34
f 103//35 104//35 105//35
f 106//36 107//36 108//36
f 109//37 110//37 111//37
f 112//38 113//38 114//38
f 115//39 116//39 117//39
f 118//40 119//40 120//40
