o
v 30.308260 -202.749847 2.442396
v -46.794868 -233.057800 36.454842
v -12.410149 -221.468018 -30.758230
v 30.308260 -202.749847 2.442396
v 134.307907 -42.771404 160.353745
v 56.649448 -175.996109 109.947647
v 30.308260 -202.749847 2.442396
v 31.251041 -192.992996 116.776321
v -46.794868 -233.057800 36.454842
v 30.308260 -202.749847 2.442396
v 56.649448 -175.996109 109.947647
v 31.251041 -192.992996 116.776321
v 31.251041 -192.992996 116.776321
v 30.557966 -193.095184 117.515144
v -46.794868 -233.057800 36.454842
v 56.649448 -175.996109 109.947647
v 30.557966 -193.095184 117.515144
v 31.251041 -192.992996 116.776321
v 30.557966 -193.095184 117.515144
v -38.953289 -205.049103 110.407379
v -46.794868 -233.057800 36.454842
v 30.308260 -202.749847 2.442396
v -12.410149 -221.468018 -30.758230
v -10.162190 15.717207 50.309875
v 30.308260 -202.749847 2.442396
v -10.162190 15.717207 50.309875
v 134.307907 -42.771404 160.353745
v -46.794868 -233.057800 36.454842
v -139.957108 -148.817917 84.493591
v -12.410149 -221.468018 -30.758230
v -38.953289 -205.049103 110.407379
v -46.713909 -201.430573 122.086700
v -46.794868 -233.057800 36.454842
v -53.118355 -204.748474 113.865997
v -46.794868 -233.057800 36.454842
v -46.713909 -201.430573 122.086700
v 30.557966 -193.095184 117.515144
v -46.713909 -201.430573 122.086700
v -38.953289 -205.049103 110.407379
v -46.794868 -233.057800 36.454842
v -87.380707 -191.190552 113.729301
v -139.957108 -148.817917 84.493591
v -139.957108 -148.817917 84.493591
v -145.791595 -99.058800 86.276009
v -12.410149 -221.468018 -30.758230
v -53.118355 -204.748474 113.865997
v -82.960693 -190.025574 153.017273
v -46.794868 -233.057800 36.454842
v -53.118355 -204.748474 113.865997
v -46.713909 -201.430573 122.086700
v -82.960693 -190.025574 153.017273
v -46.794868 -233.057800 36.454842
v -82.960693 -190.025574 153.017273
v -87.380707 -191.190552 113.729301
v -87.380707 -191.190552 113.729301
v -82.960693 -190.025574 153.017273
v -139.957108 -148.817917 84.493591
v -145.791595 -99.058800 86.276009
v -139.956619 -98.908852 81.166153
v -12.410149 -221.468018 -30.758230
v -144.961121 -98.482292 85.632004
v -139.956619 -98.908852 81.166153
v -145.791595 -99.058800 86.276009
v -139.956619 -98.908852 81.166153
v -138.848068 -99.015511 80.328697
v -12.410149 -221.468018 -30.758230
v -10.162190 15.717207 50.309875
v -144.961121 -98.482292 85.632004
v -28.386854 21.637278 82.153168
v -144.961121 -98.482292 85.632004
v -86.025970 -66.650864 51.837318
v -139.956619 -98.908852 81.166153
v -10.162190 15.717207 50.309875
v -86.025970 -66.650864 51.837318
v -144.961121 -98.482292 85.632004
v -12.410149 -221.468018 -30.758230
v -86.025970 -66.650864 51.837318
v -10.162190 15.717207 50.309875
v -138.848068 -99.015511 80.328697
v -86.025970 -66.650864 51.837318
v -12.410149 -221.468018 -30.758230
v -139.956619 -98.908852 81.166153
v -86.025970 -66.650864 51.837318
v -138.848068 -99.015511 80.328697
v -82.960693 -190.025574 153.017273
v -90.922768 -182.681213 154.531952
v -139.957108 -148.817917 84.493591
v -82.960693 -190.025574 153.017273
v -87.464630 -181.525894 161.772156
v -90.922768 -182.681213 154.531952
v -10.162190 15.717207 50.309875
v 41.581085 21.031719 176.232300
v 134.307907 -42.771404 160.353745
v -10.162190 15.717207 50.309875
v -28.386854 21.637278 82.153168
v 34.769138 24.764410 187.042923
v -10.162190 15.717207 50.309875
v 34.769138 24.764410 187.042923
v 41.581085 21.031719 176.232300
v 21.815331 26.967733 210.260376
v 34.769138 24.764410 187.042923
v -28.386854 21.637278 82.153168
v 41.581085 21.031719 176.232300
v 34.769138 24.764410 187.042923
v 134.307907 -42.771404 160.353745
v 134.307907 -42.771404 160.353745
v 34.769138 24.764410 187.042923
v 21.815331 26.967733 210.260376
v 21.815331 26.967733 210.260376
v -16.197115 27.463730 230.601349
v -11.016501 24.616434 235.995819
v -11.016501 24.616434 235.995819
v -18.996819 25.375971 232.593063
v -12.198350 23.303471 236.618179
v -16.197115 27.463730 230.601349
v -18.996819 25.375971 232.593063
v -11.016501 24.616434 235.995819
v 134.307907 -42.771404 160.353745
v 21.815331 26.967733 210.260376
v 44.637955 -0.670679 211.095093
v 21.815331 26.967733 210.260376
v -11.016501 24.616434 235.995819
v 44.637955 -0.670679 211.095093
v -11.016501 24.616434 235.995819
v -10.846347 20.043587 237.412186
v 44.637955 -0.670679 211.095093
v -11.016501 24.616434 235.995819
v -12.198350 23.303471 236.618179
v -16.448610 16.868881 239.679825
v -11.016501 24.616434 235.995819
v -16.448610 16.868881 239.679825
v -10.846347 20.043587 237.412186
v -18.996819 25.375971 232.593063
v -16.448610 16.868881 239.679825
v -12.198350 23.303471 236.618179
v -12.101512 17.764805 238.282410
v -10.846347 20.043587 237.412186
v -16.448610 16.868881 239.679825
v -139.957108 -148.817917 84.493591
v -155.865707 -86.661507 183.411560
v -145.791595 -99.058800 86.276009
v -90.922768 -182.681213 154.531952
v -155.865707 -86.661507 183.411560
v -139.957108 -148.817917 84.493591
v -87.464630 -181.525894 161.772156
v -155.865707 -86.661507 183.411560
v -90.922768 -182.681213 154.531952
v -16.197115 27.463730 230.601349
v -42.213116 17.326210 226.927917
v -18.996819 25.375971 232.593063
v -16.197115 27.463730 230.601349
v -41.066059 19.193521 223.544586
v -42.213116 17.326210 226.927917
v -18.996819 25.375971 232.593063
v -42.213116 17.326210 226.927917
v -16.448610 16.868881 239.679825
v 21.815331 26.967733 210.260376
v -28.386854 21.637278 82.153168
v -5.491988 25.589642 173.518494
v 21.815331 26.967733 210.260376
v -5.491988 25.589642 173.518494
v -16.197115 27.463730 230.601349
v -28.386854 21.637278 82.153168
v -16.197115 27.463730 230.601349
v -5.491988 25.589642 173.518494
v 30.557966 -193.095184 117.515144
v -17.185047 -163.801605 195.012360
v -46.713909 -201.430573 122.086700
v -46.713909 -201.430573 122.086700
v -17.185047 -163.801605 195.012360
v -82.960693 -190.025574 153.017273
v -82.960693 -190.025574 153.017273
v -30.628822 -166.798904 189.843872
v -87.464630 -181.525894 161.772156
v -17.185047 -163.801605 195.012360
v -30.628822 -166.798904 189.843872
v -82.960693 -190.025574 153.017273
v -28.386854 21.637278 82.153168
v -56.753021 19.031347 192.429306
v -16.197115 27.463730 230.601349
v -16.197115 27.463730 230.601349
v -56.753021 19.031347 192.429306
v -41.066059 19.193521 223.544586
v -41.066059 19.193521 223.544586
v -56.753021 19.031347 192.429306
v -42.213116 17.326210 226.927917
v 134.307907 -42.771404 160.353745
v 32.089977 -125.618553 187.222351
v 56.649448 -175.996109 109.947647
v 56.649448 -175.996109 109.947647
v 32.089977 -125.618553 187.222351
v 30.557966 -193.095184 117.515144
v 30.557966 -193.095184 117.515144
v 32.089977 -125.618553 187.222351
v -17.185047 -163.801605 195.012360
v -17.185047 -163.801605 195.012360
v 32.089977 -125.618553 187.222351
v -13.695131 -149.001602 205.319275
v -144.961121 -98.482292 85.632004
v -86.448326 5.785336 147.554947
v -28.386854 21.637278 82.153168
v -28.386854 21.637278 82.153168
v -86.448326 5.785336 147.554947
v -56.753021 19.031347 192.429306
v -144.961121 -98.482292 85.632004
v -145.791595 -99.058800 86.276009
v -95.514587 -1.325699 152.256821
v -144.961121 -98.482292 85.632004
v -95.514587 -1.325699 152.256821
v -86.448326 5.785336 147.554947
v -155.865707 -86.661507 183.411560
v -95.514587 -1.325699 152.256821
v -145.791595 -99.058800 86.276009
v -42.213116 17.326210 226.927917
v -75.521187 -12.085705 230.722351
v -16.448610 16.868881 239.679825
v -75.519310 -12.080885 230.719437
v -75.521187 -12.085705 230.722351
v -42.213116 17.326210 226.927917
v -155.865707 -86.661507 183.411560
v -75.521187 -12.085705 230.722351
v -75.519310 -12.080885 230.719437
v -56.753021 19.031347 192.429306
v -72.282356 3.911640 204.868469
v -42.213116 17.326210 226.927917
v -75.519310 -12.080885 230.719437
v -42.213116 17.326210 226.927917
v -72.282356 3.911640 204.868469
v -86.448326 5.785336 147.554947
v -81.191628 6.221262 172.458817
v -56.753021 19.031347 192.429306
v -95.514587 -1.325699 152.256821
v -81.191628 6.221262 172.458817
v -86.448326 5.785336 147.554947
v -56.753021 19.031347 192.429306
v -81.191628 6.221262 172.458817
v -72.282356 3.911640 204.868469
v 134.307907 -42.771404 160.353745
v 21.332275 -52.088039 231.553787
v 32.089977 -125.618553 187.222351
v 32.089977 -125.618553 187.222351
v 21.332275 -52.088039 231.553787
v -13.695131 -149.001602 205.319275
v -10.846347 20.043587 237.412186
v 21.332275 -52.088039 231.553787
v 44.637955 -0.670679 211.095093
v -12.101512 17.764805 238.282410
v 21.332275 -52.088039 231.553787
v -10.846347 20.043587 237.412186
v 134.307907 -42.771404 160.353745
v 44.637955 -0.670679 211.095093
v 21.332275 -52.088039 231.553787
v -12.101512 17.764805 238.282410
v -16.448610 16.868881 239.679825
v 21.332275 -52.088039 231.553787
v -155.865707 -86.661507 183.411560
v -102.024902 -8.701511 163.340271
v -95.514587 -1.325699 152.256821
v -155.865707 -86.661507 183.411560
v -75.519310 -12.080885 230.719437
v -102.024902 -8.701511 163.340271
v -75.519310 -12.080885 230.719437
v -72.282356 3.911640 204.868469
v -102.024902 -8.701511 163.340271
v -95.514587 -1.325699 152.256821
v -102.024902 -8.701511 163.340271
v -81.191628 6.221262 172.458817
v -81.191628 6.221262 172.458817
v -102.024902 -8.701511 163.340271
v -72.282356 3.911640 204.868469
v -16.448610 16.868881 239.679825
v -0.579364 -38.086880 235.769348
v 21.332275 -52.088039 231.553787
v -16.448610 16.868881 239.679825
v -11.253610 -37.970539 236.864182
v -0.579364 -38.086880 235.769348
v -155.865707 -86.661507 183.411560
v -93.504829 -59.624306 232.404419
v -75.521187 -12.085705 230.722351
v -110.036316 -83.936768 215.941437
v -93.504829 -59.624306 232.404419
v -155.865707 -86.661507 183.411560
v -75.521187 -12.085705 230.722351
v -76.387184 -65.834633 240.125900
v -16.448610 16.868881 239.679825
v -93.504829 -59.624306 232.404419
v -76.387184 -65.834633 240.125900
v -75.521187 -12.085705 230.722351
v -110.036316 -83.936768 215.941437
v -76.387184 -65.834633 240.125900
v -93.504829 -59.624306 232.404419
v -30.628822 -166.798904 189.843872
v -71.290977 -118.797203 214.244980
v -87.464630 -181.525894 161.772156
v -16.448610 16.868881 239.679825
v -67.126129 -64.925583 240.245270
v -11.253610 -37.970539 236.864182
v -76.387184 -65.834633 240.125900
v -67.126129 -64.925583 240.245270
v -16.448610 16.868881 239.679825
v -11.253610 -37.970539 236.864182
v -67.126129 -64.925583 240.245270
v -0.579364 -38.086880 235.769348
v -87.464630 -181.525894 161.772156
v -79.689857 -95.444077 228.651886
v -155.865707 -86.661507 183.411560
v -110.036316 -83.936768 215.941437
v -155.865707 -86.661507 183.411560
v -79.689857 -95.444077 228.651886
v -71.290977 -118.797203 214.244980
v -79.689857 -95.444077 228.651886
v -87.464630 -181.525894 161.772156
v -110.036316 -83.936768 215.941437
v -79.689857 -95.444077 228.651886
v -76.387184 -65.834633 240.125900
v -17.185047 -163.801605 195.012360
v -62.194759 -114.024017 219.683777
v -30.628822 -166.798904 189.843872
v -30.628822 -166.798904 189.843872
v -62.194759 -114.024017 219.683777
v -71.290977 -118.797203 214.244980
v -17.185047 -163.801605 195.012360
v -13.695131 -149.001602 205.319275
v -62.194759 -114.024017 219.683777
v -71.290977 -118.797203 214.244980
v -62.194759 -114.024017 219.683777
v -79.689857 -95.444077 228.651886
v -13.695131 -149.001602 205.319275
v -47.179626 -103.637688 228.799515
v -62.194759 -114.024017 219.683777
v -62.194759 -114.024017 219.683777
v -47.179626 -103.637688 228.799515
v -79.689857 -95.444077 228.651886
v -0.579364 -38.086880 235.769348
v -54.806419 -69.974541 238.478836
v 21.332275 -52.088039 231.553787
v -67.126129 -64.925583 240.245270
v -54.806419 -69.974541 238.478836
v -0.579364 -38.086880 235.769348
v -76.387184 -65.834633 240.125900
v -47.133514 -99.108192 230.726074
v -67.126129 -64.925583 240.245270
v -67.126129 -64.925583 240.245270
v -47.133514 -99.108192 230.726074
v -54.806419 -69.974541 238.478836
v 21.332275 -52.088039 231.553787
v -47.133514 -99.108192 230.726074
v -13.695131 -149.001602 205.319275
v -13.695131 -149.001602 205.319275
v -47.133514 -99.108192 230.726074
v -47.179626 -103.637688 228.799515
v -79.689857 -95.444077 228.651886
v -47.133514 -99.108192 230.726074
v -76.387184 -65.834633 240.125900
v -47.179626 -103.637688 228.799515
v -47.133514 -99.108192 230.726074
v -79.689857 -95.444077 228.651886
v -54.806419 -69.974541 238.478836
v -47.133514 -99.108192 230.726074
v 21.332275 -52.088039 231.553787
vn 0.378664 -0.924901 0.034232
vn 0.875365 -0.473715 -0.096595
vn 0.393272 -0.916362 0.074956
vn 0.567056 -0.821079 0.065392
vn 0.312211 -0.935848 0.163440
vn 0.577387 -0.683141 0.447149
vn 0.125559 -0.932111 0.339713
vn 0.512771 0.273311 -0.813859
vn 0.650596 0.275574 -0.707661
vn -0.714587 -0.529717 -0.456908
vn 0.083610 -0.934804 0.345181
vn 0.041272 -0.937277 0.346134
vn 0.121191 -0.922549 0.366356
vn -0.649126 -0.757501 0.069482
vn -0.686355 -0.054500 -0.725221
vn -0.014289 -0.939449 0.342390
vn 0.016653 -0.931627 0.363034
vn -0.623441 -0.776301 0.093158
vn -0.656433 -0.748246 0.096038
vn -0.658834 0.001365 -0.752287
vn -0.656303 0.111911 -0.746152
vn -0.592019 0.112656 -0.798011
vn -0.637473 0.604835 -0.477287
vn -0.603168 0.362394 -0.710534
vn -0.618544 0.559469 -0.551723
vn -0.349992 0.305935 -0.885387
vn -0.548453 0.175391 -0.817580
vn -0.570472 0.239448 -0.785638
vn -0.663210 -0.740874 0.106108
vn -0.582422 -0.712218 0.391831
vn 0.519925 0.817376 -0.248142
vn 0.130981 0.985458 -0.108246
vn 0.276211 0.948753 -0.153541
vn 0.055905 0.996423 -0.063368
vn 0.574339 0.814638 0.080622
vn 0.588803 0.766749 0.255749
vn 0.181699 0.930908 0.316853
vn -0.265655 0.597686 0.756438
vn -0.174180 0.791915 0.585262
vn 0.592365 0.508035 0.625303
vn 0.528004 0.457609 0.715406
vn 0.493751 0.273999 0.825309
vn -0.006766 0.433284 0.901232
vn 0.209219 0.296414 0.931862
vn -0.288871 0.560206 0.776352
vn 0.257794 0.217509 0.941399
vn -0.989683 -0.112884 -0.088235
vn -0.765690 -0.592888 0.249406
vn -0.686765 -0.591542 0.422412
vn -0.382501 0.852600 0.356042
vn -0.382694 0.857611 0.343583
vn -0.369472 0.526935 0.765395
vn 0.011662 0.998867 -0.046132
vn -0.005021 0.999418 -0.033754
vn -0.023778 0.999023 -0.037258
vn 0.121819 -0.901292 0.415732
vn 0.083959 -0.898979 0.429869
vn -0.130771 -0.744105 0.655139
vn -0.035369 -0.821850 0.568605
vn -0.182147 0.982987 -0.023624
vn -0.354876 0.918555 0.174126
vn -0.531732 0.804753 0.263881
vn 0.605305 -0.564987 0.560709
vn 0.559587 -0.601592 0.570043
vn 0.557302 -0.602673 0.571139
vn 0.536234 -0.563864 0.628100
vn -0.654124 0.622368 -0.429861
vn -0.327130 0.942952 -0.061864
vn -0.704945 0.608571 -0.364273
vn -0.684949 0.615717 -0.389534
vn -0.832357 0.532338 -0.154267
vn -0.371482 0.519927 0.769205
vn -0.437686 0.583877 0.683753
vn -0.738400 0.535429 0.409977
vn -0.551056 0.789150 0.271255
vn -0.591010 0.717022 0.369577
vn -0.522177 0.847486 0.095386
vn -0.578298 0.808657 0.107912
vn -0.586301 0.780545 0.216796
vn 0.514370 -0.386335 0.765616
vn 0.503992 -0.390678 0.770301
vn 0.465747 0.136767 0.874285
vn 0.418571 0.113546 0.901058
vn 0.524745 0.098584 0.845532
vn 0.296309 0.049949 0.953785
vn -0.831179 0.541028 -0.128184
vn -0.738890 0.592781 0.320395
vn -0.702726 0.641052 0.308590
vn -0.618318 0.771445 0.150187
vn -0.630731 0.742277 0.226282
vn 0.177278 -0.018825 0.983981
vn 0.101498 -0.041419 0.993973
vn -0.664934 0.276097 0.693998
vn -0.564479 -0.163982 0.808995
vn -0.229269 0.171328 0.958166
vn -0.354552 0.166680 0.920060
vn -0.472234 -0.251060 0.844964
vn -0.230123 -0.588808 0.774822
vn 0.081210 -0.043432 0.995750
vn -0.014443 0.015860 0.999770
vn 0.100756 -0.084502 0.991316
vn -0.481936 -0.510017 0.712475
vn -0.487703 -0.482563 0.727515
vn -0.274268 -0.574429 0.771239
vn -0.458517 -0.276181 0.844681
vn -0.183452 -0.564693 0.804653
vn -0.184378 -0.565004 0.804224
vn -0.145763 -0.542006 0.827637
vn -0.185692 -0.563420 0.805032
vn -0.137599 -0.533513 0.834524
vn -0.138119 -0.532982 0.834777
vn 0.116631 -0.114511 0.986552
vn 0.103992 -0.092704 0.990248
vn 0.013186 -0.261084 0.965226
vn 0.037249 -0.247809 0.968093
vn 0.212939 -0.326272 0.920980
vn 0.112682 -0.389881 0.913945
vn -0.098737 -0.349971 0.931543
vn -0.102068 -0.388479 0.915787
vn 0.139530 -0.220164 0.965432
f 1//1 2//1 3//1
f 4//2 5//2 6//2
f 7//3 8//3 9//3
f 10//4 11//4 12//4
f 13//5 14//5 15//5
f 16//6 17//6 18//6
f 19//7 20//7 21//7
f 22//8 23//8 24//8
f 25//9 26//9 27//9
f 28//10 29//10 30//10
f 31//11 32//11 33//11
f 34//12 35//12 36//12
f 37//13 38//13 39//13
f 40//14 41//14 42//14
f 43//15 44//15 45//15
f 46//16 47//16 48//16
f 49//17 50//17 51//17
f 52//18 53//18 54//18
f 55//19 56//19 57//19
f 58//20 59//20 60//20
f 61//21 62//21 63//21
f 64//22 65//22 66//22
f 67//23 68//23 69//23
f 70//24 71//24 72//24
f 73//25 74//25 75//25
f 76//26 77//26 78//26
f 79//27 80//27 81//27
f 82//28 83//28 84//28
f 85//29 86//29 87//29
f 88//30 89//30 90//30
f 91//31 92//31 93//31
f 94//32 95//32 96//32
f 97//33 98//33 99//33
f 100//34 101//34 102//34
f 103//35 104//35 105//35
f 106//36 107//36 108//36
f 109//37 110//37 111//37
f 112//38 113//38 114//38
f 115//39 116//39 117//39
f 118//40 119//40 120//40
f 121//41 122//41 123//41
f 124//42 125//42 126//42
f 127//43 128//43 129//43
f 130//44 131//44 132//44
f 133//45 134//45 135//45
f 136//46 137//46 138//46
f 139//47 140//47 141//47
f 142//48 143//48 144//48
f 145//49 146//49 147//49
f 148//50 149//50 150//50
f 151//51 152//51 153//51
f 154//52 155//52 156//52
f 157//53 158//53 159//53
f 160//54 161//54 162//54
f 163//55 164//55 165//55
f 166//56 167//56 168//56
f 169//57 170//57 171//57
f 172//58 173//58 174//58
f 175//59 176//59 177//59
f 178//60 179//60 180//60
f 181//61 182//61 183//61
f 184//62 185//62 186//62
f 187//63 188//63 189//63
f 190//64 191//64 192//64
f 193//65 194//65 195//65
f 196//66 197//66 198//66
f 199//67 200//67 201//67
f 202//68 203//68 204//68
f 205//69 206//69 207//69
f 208//70 209//70 210//70
f 211//71 212//71 213//71
f 214//72 215//72 216//72
f 217//73 218//73 219//73
f 220//74 221//74 222//74
f 223//75 224//75 225//75
f 226//76 227//76 228//76
f 229//77 230//77 231//77
f 232//78 233//78 234//78
f 235//79 236//79 237//79
f 238//80 239//80 240//80
f 241//81 242//81 243//81
f 244//82 245//82 246//82
f 247//83 248//83 249//83
f 250//84 251//84 252//84
f 253//85 254//85 255//85
f 256//86 257//86 258//86
f 259//87 260//87 261//87
f 262//88 263//88 264//88
f 265//89 266//89 267//89
f 268//90 269//90 270//90
f 271//91 272//91 273//91
f 274//92 275//92 276//92
f 277//93 278//93 279//93
f 280//94 281//94 282//94
f 283//95 284//95 285//95
f 286//96 287//96 288//96
f 289//97 290//97 291//97
f 292//98 293//98 294//98
f 295//99 296//99 297//99
f 298//100 299//100 300//100
f 301//101 302//101 303//101
f 304//102 305//102 306//102
f 307//103 308//103 309//103
f 310//104 311//104 312//104
f 313//105 314//105 315//105
f 316//106 317//106 318//106
f 319//107 320//107 321//107
f 322//108 323//108 324//108
f 325//109 326//109 327//109
f 328//110 329//110 330//110
f 331//111 332//111 333//111
f 334//112 335//112 336//112
f 337//113 338//113 339//113
f 340//114 341//114 342//114
f 343//115 344//115 345//115
f 346//116 347//116 348//116
f 349//117 350//117 351//117
f 352//118 353//118 354//118
f 355//119 356//119 357//119
f 358//120 359//120 360//120
