o
v -151.510834 -198.633606 -12.806207
v -163.911224 -182.877975 -78.114388
v -163.975677 -184.108856 -81.263466
v -163.975677 -184.108856 -81.263466
v -163.911224 -182.877975 -78.114388
v -163.769760 -144.511551 -97.855499
v -163.769760 -144.511551 -97.855499
v -163.911224 -182.877975 -78.114388
v -151.510834 -198.633606 -12.806207
v -163.769760 -144.511551 -97.855499
v -151.510834 -198.633606 -12.806207
v -149.276489 -103.722305 -91.296448
v -163.769760 -144.511551 -97.855499
v -149.276489 -103.722305 -91.296448
v -148.859772 -103.707542 -91.633499
v -151.510834 -198.633606 -12.806207
v -163.975677 -184.108856 -81.263466
v -155.353790 -195.441589 -64.462715
v -163.769760 -144.511551 -97.855499
v -148.859772 -103.707542 -91.633499
v -148.922318 -119.332169 -97.463623
v -149.276489 -103.722305 -91.296448
v -139.498383 -96.081947 -83.670502
v -148.859772 -103.707542 -91.633499
v -139.498383 -96.081947 -83.670502
v -138.803818 -96.421692 -84.116058
v -148.859772 -103.707542 -91.633499
v -163.769760 -144.511551 -97.855499
v -148.922318 -119.332169 -97.463623
v -136.870239 -142.177612 -111.642525
v -148.859772 -103.707542 -91.633499
v -136.870239 -142.177612 -111.642525
v -148.922318 -119.332169 -97.463623
v -148.859772 -103.707542 -91.633499
v -140.020920 -114.586136 -99.062538
v -136.870239 -142.177612 -111.642525
v -163.975677 -184.108856 -81.263466
v -163.769760 -144.511551 -97.855499
v -137.067215 -144.894577 -110.908836
v -163.769760 -144.511551 -97.855499
v -136.870239 -142.177612 -111.642525
v -137.067215 -144.894577 -110.908836
v -51.460915 -92.418457 -36.885792
v -45.331654 -101.184914 -33.357670
v -50.305923 -93.233231 -38.200340
v -50.595097 -93.854118 -35.967957
v -45.331654 -101.184914 -33.357670
v -51.460915 -92.418457 -36.885792
v -51.460915 -92.418457 -36.885792
v -50.305923 -93.233231 -38.200340
v -62.070770 -83.429253 -62.479362
v -45.331654 -101.184914 -33.357670
v -40.010540 -107.189293 -40.102123
v -50.305923 -93.233231 -38.200340
v -51.460915 -92.418457 -36.885792
v -62.070770 -83.429253 -62.479362
v -70.113091 -78.707718 -56.542374
v -66.378319 -170.549591 -112.657272
v -70.006058 -164.742294 -115.891151
v -62.463646 -150.501663 -118.340714
v -45.331654 -101.184914 -33.357670
v -41.255302 -107.179443 -38.109161
v -40.010540 -107.189293 -40.102123
v -45.331654 -101.184914 -33.357670
v -44.195930 -106.105392 -33.774544
v -41.255302 -107.179443 -38.109161
v -50.595097 -93.854118 -35.967957
v -51.460915 -92.418457 -36.885792
v -63.903400 -92.653740 -21.327873
v -50.595097 -93.854118 -35.967957
v -63.903400 -92.653740 -21.327873
v -45.331654 -101.184914 -33.357670
v -51.460915 -92.418457 -36.885792
v -70.113091 -78.707718 -56.542374
v -63.903400 -92.653740 -21.327873
v -50.305923 -93.233231 -38.200340
v -56.783005 -89.969101 -62.983204
v -62.070770 -83.429253 -62.479362
v -151.510834 -198.633606 -12.806207
v -129.511780 -182.446579 -2.034610
v -128.176147 -179.485229 -0.953431
v -138.803818 -96.421692 -84.116058
v -47.723816 -116.762726 -88.848907
v -148.859772 -103.707542 -91.633499
v -56.783005 -89.969101 -62.983204
v -47.723816 -116.762726 -88.848907
v -62.070770 -83.429253 -62.479362
v -163.975677 -184.108856 -81.263466
v -137.067215 -144.894577 -110.908836
v -97.911804 -150.013031 -121.212708
v -70.006058 -164.742294 -115.891151
v -97.911804 -150.013031 -121.212708
v -62.463646 -150.501663 -118.340714
v -136.870239 -142.177612 -111.642525
v -97.911804 -150.013031 -121.212708
v -137.067215 -144.894577 -110.908836
v -40.010540 -107.189293 -40.102123
v -44.136944 -105.748222 -63.365246
v -50.305923 -93.233231 -38.200340
v -50.305923 -93.233231 -38.200340
v -44.136944 -105.748222 -63.365246
v -56.783005 -89.969101 -62.983204
v -56.783005 -89.969101 -62.983204
v -44.136944 -105.748222 -63.365246
v -47.723816 -116.762726 -88.848907
v -47.723816 -116.762726 -88.848907
v -44.136944 -105.748222 -63.365246
v -47.607449 -116.863556 -88.452461
v -47.723816 -116.762726 -88.848907
v -56.299026 -149.077438 -105.378120
v -62.463646 -150.501663 -118.340714
v -47.723816 -116.762726 -88.848907
v -47.607449 -116.863556 -88.452461
v -56.299026 -149.077438 -105.378120
v -148.859772 -103.707542 -91.633499
v -126.988670 -127.867401 -108.618362
v -140.020920 -114.586136 -99.062538
v -47.723816 -116.762726 -88.848907
v -126.988670 -127.867401 -108.618362
v -148.859772 -103.707542 -91.633499
v -47.723816 -116.762726 -88.848907
v -62.463646 -150.501663 -118.340714
v -126.988670 -127.867401 -108.618362
v -97.911804 -150.013031 -121.212708
v -126.988670 -127.867401 -108.618362
v -62.463646 -150.501663 -118.340714
v -140.020920 -114.586136 -99.062538
v -126.988670 -127.867401 -108.618362
v -136.870239 -142.177612 -111.642525
v -136.870239 -142.177612 -111.642525
v -126.988670 -127.867401 -108.618362
v -97.911804 -150.013031 -121.212708
v -58.219070 -205.389877 -41.899776
v -42.926216 -173.501099 -26.122549
v -129.511780 -182.446579 -2.034610
v -163.975677 -184.108856 -81.263466
v -85.815018 -215.178055 -59.427139
v -155.353790 -195.441589 -64.462715
v -151.510834 -198.633606 -12.806207
v -155.353790 -195.441589 -64.462715
v -85.815018 -215.178055 -59.427139
v -63.903400 -92.653740 -21.327873
v -53.482574 -106.440651 -23.591459
v -45.331654 -101.184914 -33.357670
v -70.113091 -78.707718 -56.542374
v -73.378532 -85.989899 -34.028774
v -63.903400 -92.653740 -21.327873
v -70.113091 -78.707718 -56.542374
v -73.889458 -85.853317 -34.538029
v -73.378532 -85.989899 -34.028774
v -127.073517 -91.764893 -74.093529
v -126.681381 -91.731712 -73.444038
v -70.113091 -78.707718 -56.542374
v -127.073517 -91.764893 -74.093529
v -126.585327 -91.724930 -73.274933
v -126.681381 -91.731712 -73.444038
v -126.681381 -91.731712 -73.444038
v -126.585327 -91.724930 -73.274933
v -70.113091 -78.707718 -56.542374
v -58.219070 -205.389877 -41.899776
v -43.440922 -174.550140 -29.801552
v -42.926216 -173.501099 -26.122549
v -151.510834 -198.633606 -12.806207
v -109.174690 -208.619827 -28.315418
v -129.511780 -182.446579 -2.034610
v -58.219070 -205.389877 -41.899776
v -129.511780 -182.446579 -2.034610
v -109.174690 -208.619827 -28.315418
v -151.510834 -198.633606 -12.806207
v -85.815018 -215.178055 -59.427139
v -109.174690 -208.619827 -28.315418
v -58.219070 -205.389877 -41.899776
v -109.174690 -208.619827 -28.315418
v -85.815018 -215.178055 -59.427139
v -63.903400 -92.653740 -21.327873
v -69.112473 -105.412910 -10.595705
v -53.482574 -106.440651 -23.591459
v -40.010540 -107.189293 -40.102123
v -39.447174 -121.121864 -51.467571
v -44.136944 -105.748222 -63.365246
v -44.136944 -105.748222 -63.365246
v -39.447174 -121.121864 -51.467571
v -47.607449 -116.863556 -88.452461
v -66.378319 -170.549591 -112.657272
v -62.463646 -150.501663 -118.340714
v -56.834438 -174.231049 -94.763351
v -56.299026 -149.077438 -105.378120
v -56.834438 -174.231049 -94.763351
v -62.463646 -150.501663 -118.340714
v -66.378319 -170.549591 -112.657272
v -85.514809 -166.146866 -113.372734
v -70.006058 -164.742294 -115.891151
v -70.006058 -164.742294 -115.891151
v -85.514809 -166.146866 -113.372734
v -97.911804 -150.013031 -121.212708
v -151.510834 -198.633606 -12.806207
v -128.176147 -179.485229 -0.953431
v -113.723351 -156.805740 7.839972
v -151.510834 -198.633606 -12.806207
v -113.723351 -156.805740 7.839972
v -113.183640 -130.410461 9.811742
v -129.511780 -182.446579 -2.034610
v -113.723351 -156.805740 7.839972
v -128.176147 -179.485229 -0.953431
v -113.183640 -130.410461 9.811742
v -113.723351 -156.805740 7.839972
v -79.485023 -134.161652 7.695251
v -41.255302 -107.179443 -38.109161
v -44.936523 -125.311890 -27.643007
v -40.010540 -107.189293 -40.102123
v -42.926216 -173.501099 -26.122549
v -40.010540 -107.189293 -40.102123
v -44.936523 -125.311890 -27.643007
v -44.195930 -106.105392 -33.774544
v -44.936523 -125.311890 -27.643007
v -41.255302 -107.179443 -38.109161
v -45.331654 -101.184914 -33.357670
v -44.936523 -125.311890 -27.643007
v -44.195930 -106.105392 -33.774544
v -66.378319 -170.549591 -112.657272
v -56.834438 -174.231049 -94.763351
v -63.302986 -197.716187 -70.908730
v -58.219070 -205.389877 -41.899776
v -85.815018 -215.178055 -59.427139
v -63.302986 -197.716187 -70.908730
v -58.219070 -205.389877 -41.899776
v -63.302986 -197.716187 -70.908730
v -56.834438 -174.231049 -94.763351
v -69.112473 -105.412910 -10.595705
v -60.153290 -148.543564 -3.709168
v -53.482574 -106.440651 -23.591459
v -79.485023 -134.161652 7.695251
v -60.153290 -148.543564 -3.709168
v -69.112473 -105.412910 -10.595705
v -42.926216 -173.501099 -26.122549
v -60.153290 -148.543564 -3.709168
v -129.511780 -182.446579 -2.034610
v -53.482574 -106.440651 -23.591459
v -60.153290 -148.543564 -3.709168
v -45.331654 -101.184914 -33.357670
v -45.331654 -101.184914 -33.357670
v -60.153290 -148.543564 -3.709168
v -44.936523 -125.311890 -27.643007
v -42.926216 -173.501099 -26.122549
v -44.936523 -125.311890 -27.643007
v -60.153290 -148.543564 -3.709168
v -66.378319 -170.549591 -112.657272
v -63.302986 -197.716187 -70.908730
v -76.999527 -202.322861 -76.743790
v -85.815018 -215.178055 -59.427139
v -76.999527 -202.322861 -76.743790
v -63.302986 -197.716187 -70.908730
v -40.010540 -107.189293 -40.102123
v -38.766708 -136.533340 -45.998344
v -39.447174 -121.121864 -51.467571
v -42.926216 -173.501099 -26.122549
v -38.766708 -136.533340 -45.998344
v -40.010540 -107.189293 -40.102123
v -43.440922 -174.550140 -29.801552
v -38.766708 -136.533340 -45.998344
v -42.926216 -173.501099 -26.122549
v -47.607449 -116.863556 -88.452461
v -38.766708 -136.533340 -45.998344
v -56.299026 -149.077438 -105.378120
v -56.299026 -149.077438 -105.378120
v -38.766708 -136.533340 -45.998344
v -56.834438 -174.231049 -94.763351
v -39.447174 -121.121864 -51.467571
v -38.766708 -136.533340 -45.998344
v -47.607449 -116.863556 -88.452461
v -56.834438 -174.231049 -94.763351
v -38.766708 -136.533340 -45.998344
v -43.440922 -174.550140 -29.801552
v -113.183640 -130.410461 9.811742
v -79.485023 -134.161652 7.695251
v -88.538101 -104.628113 -8.035281
v -79.485023 -134.161652 7.695251
v -69.112473 -105.412910 -10.595705
v -88.538101 -104.628113 -8.035281
v -63.903400 -92.653740 -21.327873
v -88.538101 -104.628113 -8.035281
v -69.112473 -105.412910 -10.595705
v -80.343369 -97.090363 -16.125277
v -88.538101 -104.628113 -8.035281
v -63.903400 -92.653740 -21.327873
v -139.498383 -96.081947 -83.670502
v -100.054512 -86.748535 -70.618111
v -138.803818 -96.421692 -84.116058
v -62.070770 -83.429253 -62.479362
v -100.054512 -86.748535 -70.618111
v -70.113091 -78.707718 -56.542374
v -138.803818 -96.421692 -84.116058
v -100.054512 -86.748535 -70.618111
v -47.723816 -116.762726 -88.848907
v -47.723816 -116.762726 -88.848907
v -100.054512 -86.748535 -70.618111
v -62.070770 -83.429253 -62.479362
v -127.073517 -91.764893 -74.093529
v -70.113091 -78.707718 -56.542374
v -100.054512 -86.748535 -70.618111
v -139.498383 -96.081947 -83.670502
v -127.073517 -91.764893 -74.093529
v -100.054512 -86.748535 -70.618111
v -73.378532 -85.989899 -34.028774
v -108.790131 -100.048378 -14.359540
v -63.903400 -92.653740 -21.327873
v -80.343369 -97.090363 -16.125277
v -63.903400 -92.653740 -21.327873
v -108.790131 -100.048378 -14.359540
v -73.889458 -85.853317 -34.538029
v -108.790131 -100.048378 -14.359540
v -73.378532 -85.989899 -34.028774
v -80.343369 -97.090363 -16.125277
v -108.790131 -100.048378 -14.359540
v -88.538101 -104.628113 -8.035281
v -113.183640 -130.410461 9.811742
v -88.538101 -104.628113 -8.035281
v -108.790131 -100.048378 -14.359540
v -163.975677 -184.108856 -81.263466
v -97.911804 -150.013031 -121.212708
v -100.448067 -165.470734 -110.806587
v -163.975677 -184.108856 -81.263466
v -100.448067 -165.470734 -110.806587
v -85.514809 -166.146866 -113.372734
v -85.514809 -166.146866 -113.372734
v -100.448067 -165.470734 -110.806587
v -97.911804 -150.013031 -121.212708
v -129.511780 -182.446579 -2.034610
v -84.024704 -148.671799 4.372908
v -113.723351 -156.805740 7.839972
v -60.153290 -148.543564 -3.709168
v -84.024704 -148.671799 4.372908
v -129.511780 -182.446579 -2.034610
v -113.723351 -156.805740 7.839972
v -84.024704 -148.671799 4.372908
v -79.485023 -134.161652 7.695251
v -79.485023 -134.161652 7.695251
v -84.024704 -148.671799 4.372908
v -60.153290 -148.543564 -3.709168
v -151.510834 -198.633606 -12.806207
v -113.183640 -130.410461 9.811742
v -118.434387 -127.306793 -3.583857
v -66.378319 -170.549591 -112.657272
v -85.800346 -186.320801 -95.270866
v -85.514809 -166.146866 -113.372734
v -163.975677 -184.108856 -81.263466
v -85.514809 -166.146866 -113.372734
v -85.800346 -186.320801 -95.270866
v -163.975677 -184.108856 -81.263466
v -85.800346 -186.320801 -95.270866
v -85.815018 -215.178055 -59.427139
v -85.815018 -215.178055 -59.427139
v -85.800346 -186.320801 -95.270866
v -76.999527 -202.322861 -76.743790
v -66.378319 -170.549591 -112.657272
v -76.999527 -202.322861 -76.743790
v -85.800346 -186.320801 -95.270866
v -149.276489 -103.722305 -91.296448
v -121.194672 -96.709328 -36.632927
v -139.498383 -96.081947 -83.670502
v -118.434387 -127.306793 -3.583857
v -121.194672 -96.709328 -36.632927
v -149.276489 -103.722305 -91.296448
v -113.183640 -130.410461 9.811742
v -108.790131 -100.048378 -14.359540
v -121.194672 -96.709328 -36.632927
v -113.183640 -130.410461 9.811742
v -121.194672 -96.709328 -36.632927
v -118.434387 -127.306793 -3.583857
v -108.790131 -100.048378 -14.359540
v -120.286003 -96.017433 -37.970135
v -121.194672 -96.709328 -36.632927
v -139.498383 -96.081947 -83.670502
v -120.253532 -95.762665 -38.812492
v -127.073517 -91.764893 -74.093529
v -121.194672 -96.709328 -36.632927
v -120.253532 -95.762665 -38.812492
v -139.498383 -96.081947 -83.670502
v -127.073517 -91.764893 -74.093529
v -120.253532 -95.762665 -38.812492
v -126.585327 -91.724930 -73.274933
v -120.286003 -96.017433 -37.970135
v -120.253532 -95.762665 -38.812492
v -121.194672 -96.709328 -36.632927
v -70.113091 -78.707718 -56.542374
v -120.253532 -95.762665 -38.812492
v -73.889458 -85.853317 -34.538029
v -73.889458 -85.853317 -34.538029
v -120.253532 -95.762665 -38.812492
v -108.790131 -100.048378 -14.359540
v -108.790131 -100.048378 -14.359540
v -120.253532 -95.762665 -38.812492
v -120.286003 -96.017433 -37.970135
v -126.585327 -91.724930 -73.274933
v -120.253532 -95.762665 -38.812492
v -70.113091 -78.707718 -56.542374
v -58.219070 -205.389877 -41.899776
v -51.915298 -181.506821 -57.236858
v -43.440922 -174.550140 -29.801552
v -58.219070 -205.389877 -41.899776
v -56.834438 -174.231049 -94.763351
v -51.915298 -181.506821 -57.236858
v -56.834438 -174.231049 -94.763351
v -43.440922 -174.550140 -29.801552
v -51.915298 -181.506821 -57.236858
v -151.510834 -198.633606 -12.806207
v -143.135483 -154.772095 -32.903297
v -149.276489 -103.722305 -91.296448
v -151.510834 -198.633606 -12.806207
v -118.434387 -127.306793 -3.583857
v -143.135483 -154.772095 -32.903297
v -118.434387 -127.306793 -3.583857
v -149.276489 -103.722305 -91.296448
v -143.135483 -154.772095 -32.903297
vn -0.958925 -0.256991 0.120077
vn -0.999805 0.011835 0.015837
vn -0.970903 0.112387 0.211464
vn -0.911503 0.274645 0.306157
vn -0.600586 0.330476 -0.728067
vn -0.812789 -0.582043 0.024501
vn -0.496226 0.305257 -0.812760
vn -0.351801 0.847324 -0.397841
vn -0.053654 0.751960 -0.657022
vn -0.456837 0.282509 -0.843498
vn -0.399653 0.321864 -0.858301
vn -0.287165 0.370038 -0.883520
vn -0.415494 -0.349687 -0.839693
vn -0.432159 -0.205766 -0.878008
vn 0.737818 0.621682 0.262937
vn 0.723875 0.624306 0.293678
vn 0.600153 0.799248 0.031924
vn 0.806606 0.578495 0.121365
vn 0.542535 0.837183 0.069134
vn 0.300291 -0.313976 -0.900691
vn 0.838170 0.155626 0.522734
vn 0.835080 0.147856 0.529886
vn 0.583877 0.657008 0.476893
vn 0.607822 0.615190 0.502089
vn 0.347740 0.891099 0.291582
vn 0.767759 0.629836 -0.117701
vn -0.307639 -0.200814 0.930071
vn 0.103713 0.641284 -0.760262
vn 0.706782 0.600302 -0.374295
vn -0.281835 -0.448015 -0.848441
vn 0.076138 -0.208063 -0.975148
vn -0.275790 -0.231905 -0.932824
vn 0.793595 0.599556 -0.103627
vn 0.773252 0.622624 -0.120086
vn 0.724729 0.589467 -0.356785
vn 0.951022 0.211625 -0.225326
vn 0.903776 -0.021170 -0.427483
vn 0.948112 -0.096670 -0.302882
vn -0.189906 0.443778 -0.875784
vn 0.102803 0.632676 -0.767563
vn 0.104249 0.628336 -0.770926
vn 0.074366 0.564975 -0.821750
vn -0.269747 0.373804 -0.887416
vn -0.166793 0.312781 -0.935066
vn 0.277686 -0.529692 0.801447
vn -0.209166 -0.857088 -0.470797
vn -0.270186 -0.962004 -0.039345
vn 0.617304 0.350988 0.704090
vn 0.208069 0.921403 0.328213
vn -0.045830 0.952392 0.301411
vn -0.252349 0.962117 0.103207
vn -0.291192 0.948147 0.127372
vn -0.252820 0.961796 0.105029
vn 0.902309 -0.431078 -0.003318
vn 0.118135 -0.656387 0.745118
vn 0.243117 -0.586710 0.772442
vn -0.213574 -0.975874 0.045352
vn 0.140853 -0.942090 0.304346
vn 0.613035 0.346813 0.709865
vn 0.971852 0.171266 -0.161777
vn 0.969816 0.142988 -0.197515
vn 0.814782 -0.299781 -0.496247
vn 0.894590 -0.189778 -0.404589
vn -0.089570 -0.526686 -0.845328
vn -0.095671 -0.493568 -0.864429
vn -0.366794 -0.123751 0.922034
vn -0.427896 -0.058626 0.901925
vn -0.115268 -0.294383 0.948711
vn 0.054132 -0.075485 0.995676
vn 0.841021 0.132078 0.524632
vn 0.901047 0.051178 0.430691
vn 0.835175 0.137776 0.532448
vn 0.823374 0.143531 0.549049
vn 0.617379 -0.637793 -0.460503
vn 0.483303 -0.821692 -0.302061
vn 0.816617 -0.506336 -0.277055
vn 0.628919 0.248277 0.736762
vn 0.622369 0.247825 0.742455
vn 0.277763 -0.528627 0.802123
vn 0.688561 0.217580 0.691768
vn 0.753109 0.163286 0.637310
vn 0.819021 0.052195 0.571385
vn 0.461054 -0.727858 -0.507594
vn 0.436733 -0.814356 -0.382216
vn 0.999071 0.042986 -0.003173
vn 0.978706 0.000240 0.205266
vn 0.982834 -0.159987 -0.091883
vn 0.958500 -0.123640 -0.256885
vn 0.958174 -0.128341 -0.255796
vn 0.975077 -0.034714 -0.219136
vn 0.958902 -0.202552 -0.198697
vn 0.109102 0.493147 0.863078
vn 0.133087 0.497397 0.857254
vn 0.127885 0.607320 0.784097
vn 0.026404 0.717903 0.695643
vn 0.008300 0.801366 -0.598117
vn 0.052437 0.814985 -0.577105
vn 0.104049 0.642532 -0.759162
vn 0.105912 0.644571 -0.757173
vn -0.148416 0.961017 -0.233278
vn -0.146994 0.959163 -0.241661
vn -0.064425 0.863099 0.500908
vn -0.053122 0.836461 0.545446
vn -0.144881 0.909637 0.389320
vn -0.036911 0.749513 0.660960
vn -0.098799 0.628497 0.771511
vn -0.231644 -0.516817 -0.824161
vn -0.157559 -0.646366 -0.746583
vn -0.166765 -0.531651 -0.830383
vn 0.228064 -0.469021 0.853233
vn 0.275639 -0.524099 0.805819
vn 0.185223 -0.274029 0.943716
vn 0.307103 -0.302669 0.902263
vn -0.846379 0.339428 0.410403
vn -0.124587 -0.661669 -0.739373
vn -0.150677 -0.659042 -0.736858
vn -0.133212 -0.771964 -0.621551
vn -0.095610 -0.775345 -0.624258
vn 0.020488 -0.751801 -0.659072
vn -0.718970 0.632471 0.288208
vn -0.851437 0.347485 0.392821
vn -0.729792 0.487329 0.479494
vn -0.832630 0.370003 0.412098
vn -0.272714 0.917528 0.289429
vn -0.447072 0.875037 0.185573
vn -0.448349 0.874265 0.186127
vn -0.367453 0.913517 0.174543
vn -0.306630 0.914282 0.264702
vn -0.224863 0.937429 0.265826
vn -0.224974 0.936332 0.269572
vn -0.233911 0.933087 0.273192
vn -0.266575 0.950386 0.160328
vn 0.912357 -0.362721 -0.189840
vn 0.912321 -0.362766 -0.189925
vn 0.912409 -0.362560 -0.189897
vn -0.855854 0.341436 0.388505
vn -0.851701 0.343829 0.395458
vn -0.851761 0.346778 0.392745
f 1//1 2//1 3//1
f 4//2 5//2 6//2
f 7//3 8//3 9//3
f 10//4 11//4 12//4
f 13//5 14//5 15//5
f 16//6 17//6 18//6
f 19//7 20//7 21//7
f 22//8 23//8 24//8
f 25//9 26//9 27//9
f 28//10 29//10 30//10
f 31//11 32//11 33//11
f 34//12 35//12 36//12
f 37//13 38//13 39//13
f 40//14 41//14 42//14
f 43//15 44//15 45//15
f 46//16 47//16 48//16
f 49//17 50//17 51//17
f 52//18 53//18 54//18
f 55//19 56//19 57//19
f 58//20 59//20 60//20
f 61//21 62//21 63//21
f 64//22 65//22 66//22
f 67//23 68//23 69//23
f 70//24 71//24 72//24
f 73//25 74//25 75//25
f 76//26 77//26 78//26
f 79//27 80//27 81//27
f 82//28 83//28 84//28
f 85//29 86//29 87//29
f 88//30 89//30 90//30
f 91//31 92//31 93//31
f 94//32 95//32 96//32
f 97//33 98//33 99//33
f 100//34 101//34 102//34
f 103//35 104//35 105//35
f 106//36 107//36 108//36
f 109//37 110//37 111//37
f 112//38 113//38 114//38
f 115//39 116//39 117//39
f 118//40 119//40 120//40
f 121//41 122//41 123//41
f 124//42 125//42 126//42
f 127//43 128//43 129//43
f 130//44 131//44 132//44
f 133//45 134//45 135//45
f 136//46 137//46 138//46
f 139//47 140//47 141//47
f 142//48 143//48 144//48
f 145//49 146//49 147//49
f 148//50 149//50 150//50
f 151//51 152//51 153//51
f 154//52 155//52 156//52
f 157//53 158//53 159//53
f 160//54 161//54 162//54
f 163//55 164//55 165//55
f 166//56 167//56 168//56
f 169//57 170//57 171//57
f 172//58 173//58 174//58
f 175//59 176//59 177//59
f 178//60 179//60 180//60
f 181//61 182//61 183//61
f 184//62 185//62 186//62
f 187//63 188//63 189//63
f 190//64 191//64 192//64
f 193//65 194//65 195//65
f 196//66 197//66 198//66
f 199//67 200//67 201//67
f 202//68 203//68 204//68
f 205//69 206//69 207//69
f 208//70 209//70 210//70
f 211//71 212//71 213//71
f 214//72 215//72 216//72
f 217//73 218//73 219//73
f 220//74 221//74 222//74
f 223//75 224//75 225//75
f 226//76 227//76 228//76
f 229//77 230//77 231//77
f 232//78 233//78 234//78
f 235//79 236//79 237//79
f 238//80 239//80 240//80
f 241//81 242//81 243//81
f 244//82 245//82 246//82
f 247//83 248//83 249//83
f 250//84 251//84 252//84
f 253//85 254//85 255//85
f 256//86 257//86 258//86
f 259//87 260//87 261//87
f 262//88 263//88 264//88
f 265//89 266//89 267//89
f 268//90 269//90 270//90
f 271//91 272//91 273//91
f 274//92 275//92 276//92
f 277//93 278//93 279//93
f 280//94 281//94 282//94
f 283//95 284//95 285//95
f 286//96 287//96 288//96
f 289//97 290//97 291//97
f 292//98 293//98 294//98
f 295//99 296//99 297//99
f 298//100 299//100 300//100
f 301//101 302//101 303//101
f 304//102 305//102 306//102
f 307//103 308//103 309//103
f 310//104 311//104 312//104
f 313//105 314//105 315//105
f 316//106 317//106 318//106
f 319//107 320//107 321//107
f 322//108 323//108 324//108
f 325//109 326//109 327//109
f 328//110 329//110 330//110
f 331//111 332//111 333//111
f 334//112 335//112 336//112
f 337//113 338//113 339//113
f 340//114 341//114 342//114
f 343//115 344//115 345//115
f 346//116 347//116 348//116
f 349//117 350//117 351//117
f 352//118 353//118 354//118
f 355//119 356//119 357//119
f 358//120 359//120 360//120
f 361//121 362//121 363//121
f 364//122 365//122 366//122
f 367//123 368//123 369//123
f 370//124 371//124 372//124
f 373//125 374//125 375//125
f 376//126 377//126 378//126
f 379//127 380//127 381//127
f 382//128 383//128 384//128
f 385//129 386//129 387//129
f 388//130 389//130 390//130
f 391//131 392//131 393//131
f 394//132 395//132 396//132
f 397//133 398//133 399//133
f 400//134 401//134 402//134
f 403//135 404//135 405//135
f 406//136 407//136 408//136
f 409//137 410//137 411//137
f 412//138 413//138 414//138
