o
v 17.910408 -41.309742 -18.267088
v -22.827904 -27.963223 -19.218472
v -22.669094 -17.595444 -31.396679
v -22.669094 -17.595444 -31.396679
v -39.912666 -8.204165 -25.603111
v -39.320961 -1.604846 -27.542208
v -22.827904 -27.963223 -19.218472
v -35.327251 -17.142254 -23.332113
v -22.669094 -17.595444 -31.396679
v -22.669094 -17.595444 -31.396679
v -35.327251 -17.142254 -23.332113
v -39.912666 -8.204165 -25.603111
v 17.910408 -41.309742 -18.267088
v -22.669094 -17.595444 -31.396679
v -27.363033 19.489048 -21.772657
v -22.669094 -17.595444 -31.396679
v -39.320961 -1.604846 -27.542208
v -27.363033 19.489048 -21.772657
v -39.912666 -8.204165 -25.603111
v -46.113766 -17.871544 -10.576711
v -39.320961 -1.604846 -27.542208
v -35.327251 -17.142254 -23.332113
v -46.113766 -17.871544 -10.576711
v -39.912666 -8.204165 -25.603111
v -22.827904 -27.963223 -19.218472
v -46.113766 -17.871544 -10.576711
v -35.327251 -17.142254 -23.332113
v 17.910408 -41.309742 -18.267088
v -36.534168 -24.120783 -4.960853
v -22.827904 -27.963223 -19.218472
v -22.827904 -27.963223 -19.218472
v -36.534168 -24.120783 -4.960853
v -46.113766 -17.871544 -10.576711
v 17.910408 -41.309742 -18.267088
v -36.440456 -24.152769 -4.781585
v -36.534168 -24.120783 -4.960853
v -46.113766 -17.871544 -10.576711
v -36.440456 -24.152769 -4.781585
v -21.115374 -21.716112 36.477356
v -36.534168 -24.120783 -4.960853
v -36.440456 -24.152769 -4.781585
v -46.113766 -17.871544 -10.576711
v -39.320961 -1.604846 -27.542208
v -36.813595 13.764863 -14.741519
v -27.363033 19.489048 -21.772657
v 17.910408 -41.309742 -18.267088
v -21.115374 -21.716112 36.477356
v -22.225006 -28.242197 14.301999
v 17.910408 -41.309742 -18.267088
v -22.225006 -28.242197 14.301999
v -36.440456 -24.152769 -4.781585
v -36.440456 -24.152769 -4.781585
v -22.225006 -28.242197 14.301999
v -21.115374 -21.716112 36.477356
v 17.910408 -41.309742 -18.267088
v -27.363033 19.489048 -21.772657
v -3.826378 5.385282 5.716979
v 17.910408 -41.309742 -18.267088
v -20.173237 7.428636 38.757023
v -21.115374 -21.716112 36.477356
v 17.910408 -41.309742 -18.267088
v -3.826378 5.385282 5.716979
v -20.173237 7.428636 38.757023
v -27.363033 19.489048 -21.772657
v -19.723555 24.301983 19.219671
v -3.826378 5.385282 5.716979
v -3.826378 5.385282 5.716979
v -19.723555 24.301983 19.219671
v -20.173237 7.428636 38.757023
v -19.723555 24.301983 19.219671
v -23.323669 10.851266 33.614471
v -20.173237 7.428636 38.757023
v -46.113766 -17.871544 -10.576711
v -45.171329 11.196291 18.541389
v -39.320961 -1.604846 -27.542208
v -19.763674 24.280106 19.220608
v -19.723555 24.301983 19.219671
v -45.171329 11.196291 18.541389
v -39.320961 -1.604846 -27.542208
v -44.446213 12.300322 16.811661
v -36.813595 13.764863 -14.741519
v -45.171329 11.196291 18.541389
v -44.446213 12.300322 16.811661
v -39.320961 -1.604846 -27.542208
v -36.813595 13.764863 -14.741519
v -44.446213 12.300322 16.811661
v -27.363033 19.489048 -21.772657
v -27.363033 19.489048 -21.772657
v -44.446213 12.300322 16.811661
v -19.723555 24.301983 19.219671
v -19.723555 24.301983 19.219671
v -44.446213 12.300322 16.811661
v -45.171329 11.196291 18.541389
v -19.723555 24.301983 19.219671
v -32.121662 8.584916 31.793892
v -23.323669 10.851266 33.614471
v -19.763674 24.280106 19.220608
v -32.121662 8.584916 31.793892
v -19.723555 24.301983 19.219671
v -23.323669 10.851266 33.614471
v -32.121662 8.584916 31.793892
v -20.173237 7.428636 38.757023
v -19.763674 24.280106 19.220608
v -45.171329 11.196291 18.541389
v -32.121662 8.584916 31.793892
v -20.173237 7.428636 38.757023
v -33.109989 8.267458 31.351610
v -21.115374 -21.716112 36.477356
v -32.121662 8.584916 31.793892
v -33.109989 8.267458 31.351610
v -20.173237 7.428636 38.757023
v -45.171329 11.196291 18.541389
v -33.109989 8.267458 31.351610
v -32.121662 8.584916 31.793892
v -46.113766 -17.871544 -10.576711
v -21.115374 -21.716112 36.477356
v -40.454845 -9.303294 15.601007
v -46.113766 -17.871544 -10.576711
v -40.454845 -9.303294 15.601007
v -45.171329 11.196291 18.541389
v -33.109989 8.267458 31.351610
v -41.288891 -0.126918 20.390213
v -21.115374 -21.716112 36.477356
v -45.171329 11.196291 18.541389
v -41.288891 -0.126918 20.390213
v -33.109989 8.267458 31.351610
v -21.115374 -21.716112 36.477356
v -41.288891 -0.126918 20.390213
v -40.454845 -9.303294 15.601007
v -40.454845 -9.303294 15.601007
v -41.288891 -0.126918 20.390213
v -45.171329 11.196291 18.541389
vn -0.227647 -0.739976 -0.632939
vn -0.416888 -0.221641 -0.881521
vn -0.404486 -0.693757 -0.595897
vn -0.492916 -0.443127 -0.748781
vn 0.438651 0.277353 -0.854787
vn 0.019527 0.253462 -0.967148
vn -0.915491 -0.035670 -0.400754
vn -0.654579 -0.483479 -0.581183
vn -0.491072 -0.741218 -0.457651
vn -0.310166 -0.949745 -0.042214
vn -0.450936 -0.870088 -0.199008
vn -0.303560 -0.952745 -0.011310
vn -0.634798 -0.720798 0.278356
vn -0.609562 -0.771814 0.180934
vn -0.689203 0.526777 -0.497499
vn -0.079649 -0.955185 0.285091
vn -0.297192 -0.954670 0.016803
vn -0.570626 -0.779631 0.257995
vn 0.755482 0.541281 -0.369136
vn 0.799694 -0.072471 0.596018
vn 0.884135 0.193021 0.425497
vn 0.670315 0.712172 -0.208539
vn 0.823554 0.419783 0.381499
vn -0.230334 0.739086 0.633007
vn -0.960305 0.212345 -0.180897
vn -0.413568 0.778615 0.471933
vn -0.922877 0.323959 -0.208205
vn -0.933211 0.297733 -0.201177
vn -0.568697 0.816486 -0.099669
vn -0.434632 0.900270 -0.024702
vn -0.436737 0.830083 0.346732
vn -0.313708 0.731650 0.605207
vn -0.392608 0.743169 0.541810
vn -0.312849 0.691055 0.651590
vn -0.397306 0.743619 0.537754
vn -0.498651 -0.051561 0.865268
vn -0.464599 0.272638 0.842506
vn -0.474628 0.648482 0.595146
vn -0.742718 -0.572172 0.347834
vn -0.925061 -0.253416 0.282919
vn -0.720900 -0.173694 0.670920
vn -0.736704 -0.144745 0.660543
vn -0.781974 -0.342776 0.520596
vn -0.907129 -0.256561 0.333607
f 1//1 2//1 3//1
f 4//2 5//2 6//2
f 7//3 8//3 9//3
f 10//4 11//4 12//4
f 13//5 14//5 15//5
f 16//6 17//6 18//6
f 19//7 20//7 21//7
f 22//8 23//8 24//8
f 25//9 26//9 27//9
f 28//10 29//10 30//10
f 31//11 32//11 33//11
f 34//12 35//12 36//12
f 37//13 38//13 39//13
f 40//14 41//14 42//14
f 43//15 44//15 45//15
f 46//16 47//16 48//16
f 49//17 50//17 51//17
f 52//18 53//18 54//18
f 55//19 56//19 57//19
f 58//20 59//20 60//20
f 61//21 62//21 63//21
f 64//22 65//22 66//22
f 67//23 68//23 69//23
f 70//24 71//24 72//24
f 73//25 74//25 75//25
f 76//26 77//26 78//26
f 79//27 80//27 81//27
f 82//28 83//28 84//28
f 85//29 86//29 87//29
f 88//30 89//30 90//30
f 91//31 92//31 93//31
f 94//32 95//32 96//32
f 97//33 98//33 99//33
f 100//34 101//34 102//34
f 103//35 104//35 105//35
f 106//36 107//36 108//36
f 109//37 110//37 111//37
f 112//38 113//38 114//38
f 115//39 116//39 117//39
f 118//40 119//40 120//40
f 121//41 122//41 123//41
f 124//42 125//42 126//42
f 127//43 128//43 129//43
f 130//44 131//44 132//44
