o
v -236.893921 -17.921549 -75.524857
v -236.323959 -16.494604 -75.180641
v -237.569366 -4.625171 -83.018272
v -237.569366 -4.625171 -83.018272
v -236.323959 -16.494604 -75.180641
v -236.129410 -17.166197 -74.536469
v -236.129410 -17.166197 -74.536469
v -236.323959 -16.494604 -75.180641
v -236.893921 -17.921549 -75.524857
v -237.569366 -4.625171 -83.018272
v -236.129410 -17.166197 -74.536469
v -235.108047 -15.763508 -74.069862
v -236.893921 -17.921549 -75.524857
v -237.569366 -4.625171 -83.018272
v -237.505325 -8.613954 -81.878754
v -236.129410 -17.166197 -74.536469
v -236.893921 -17.921549 -75.524857
v -205.402557 -43.857040 -50.716148
v -213.441498 -80.508224 -74.137985
v -205.402557 -43.857040 -50.716148
v -236.893921 -17.921549 -75.524857
v -236.129410 -17.166197 -74.536469
v -205.402557 -43.857040 -50.716148
v -235.108047 -15.763508 -74.069862
v -237.569366 -4.625171 -83.018272
v -235.108047 -15.763508 -74.069862
v -227.455139 -15.088520 -69.978844
v -205.402557 -43.857040 -50.716148
v -227.455139 -15.088520 -69.978844
v -235.108047 -15.763508 -74.069862
v -237.569366 -4.625171 -83.018272
v -227.455139 -15.088520 -69.978844
v -230.805435 -8.119415 -77.093117
v -213.441498 -80.508224 -74.137985
v -200.795074 -91.665237 -100.380798
v -166.453354 -90.612785 -81.041710
v -185.889404 22.223873 -166.439453
v -237.569366 -4.625171 -83.018272
v -206.857681 29.058992 -120.199799
v -185.889404 22.223873 -166.439453
v -206.857681 29.058992 -120.199799
v -206.578354 29.363464 -120.209679
v -237.569366 -4.625171 -83.018272
v -206.578354 29.363464 -120.209679
v -206.857681 29.058992 -120.199799
v -138.209534 -85.677910 -78.846153
v -166.453354 -90.612785 -81.041710
v -147.315399 -89.778481 -88.919685
v -185.889404 22.223873 -166.439453
v -206.578354 29.363464 -120.209679
v -193.468033 26.850994 -141.570068
v -206.578354 29.363464 -120.209679
v -193.432144 26.864044 -141.440216
v -193.468033 26.850994 -141.570068
v -185.889404 22.223873 -166.439453
v -193.468033 26.850994 -141.570068
v -193.432144 26.864044 -141.440216
v -213.441498 -80.508224 -74.137985
v -166.453354 -90.612785 -81.041710
v -186.891357 -82.008247 -73.552567
v -185.889404 22.223873 -166.439453
v -177.971771 16.766361 -165.276886
v -143.841125 -46.037998 -167.536011
v -138.209534 -85.677910 -78.846153
v -147.315399 -89.778481 -88.919685
v -152.456741 -91.863632 -107.439125
v -166.453354 -90.612785 -81.041710
v -152.456741 -91.863632 -107.439125
v -147.315399 -89.778481 -88.919685
v -138.209534 -85.677910 -78.846153
v -164.118515 -75.450089 -66.719734
v -166.453354 -90.612785 -81.041710
v -166.453354 -90.612785 -81.041710
v -164.118515 -75.450089 -66.719734
v -186.891357 -82.008247 -73.552567
v -213.441498 -80.508224 -74.137985
v -186.891357 -82.008247 -73.552567
v -164.118515 -75.450089 -66.719734
v -185.889404 22.223873 -166.439453
v -179.274673 -54.694908 -166.655670
v -186.035706 14.076836 -165.908798
v -185.889404 22.223873 -166.439453
v -143.841125 -46.037998 -167.536011
v -179.274673 -54.694908 -166.655670
v -213.441498 -80.508224 -74.137985
v -182.064377 -62.995945 -58.269691
v -205.402557 -43.857040 -50.716148
v -213.441498 -80.508224 -74.137985
v -164.118515 -75.450089 -66.719734
v -182.064377 -62.995945 -58.269691
v -200.795074 -91.665237 -100.380798
v -154.881195 -91.911949 -107.959122
v -166.453354 -90.612785 -81.041710
v -166.453354 -90.612785 -81.041710
v -154.881195 -91.911949 -107.959122
v -152.456741 -91.863632 -107.439125
v -200.795074 -91.665237 -100.380798
v -155.261520 -91.899384 -108.066750
v -154.881195 -91.911949 -107.959122
v -114.383331 -43.845009 -91.937263
v -138.209534 -85.677910 -78.846153
v -139.606293 -84.319504 -94.041748
v -138.209534 -85.677910 -78.846153
v -152.456741 -91.863632 -107.439125
v -139.606293 -84.319504 -94.041748
v -227.455139 -15.088520 -69.978844
v -157.711227 6.241598 -58.550377
v -230.805435 -8.119415 -77.093117
v -182.064377 -62.995945 -58.269691
v -172.881561 -57.896694 -55.152458
v -205.402557 -43.857040 -50.716148
v -164.118515 -75.450089 -66.719734
v -172.881561 -57.896694 -55.152458
v -182.064377 -62.995945 -58.269691
v -138.209534 -85.677910 -78.846153
v -172.250076 -57.628510 -55.089893
v -164.118515 -75.450089 -66.719734
v -164.118515 -75.450089 -66.719734
v -172.250076 -57.628510 -55.089893
v -172.881561 -57.896694 -55.152458
v -172.881561 -57.896694 -55.152458
v -172.250076 -57.628510 -55.089893
v -205.402557 -43.857040 -50.716148
v -205.402557 -43.857040 -50.716148
v -204.707581 -20.200434 -58.615307
v -227.455139 -15.088520 -69.978844
v -172.250076 -57.628510 -55.089893
v -175.995865 -14.403468 -51.371063
v -205.402557 -43.857040 -50.716148
v -205.402557 -43.857040 -50.716148
v -175.995865 -14.403468 -51.371063
v -204.707581 -20.200434 -58.615307
v -157.711227 6.241598 -58.550377
v -129.781754 3.372437 -73.161423
v -148.592255 11.929548 -64.703613
v -138.209534 -85.677910 -78.846153
v -158.639587 -66.692398 -64.138870
v -172.250076 -57.628510 -55.089893
v -237.569366 -4.625171 -83.018272
v -163.310471 12.922709 -66.421654
v -206.578354 29.363464 -120.209679
v -237.569366 -4.625171 -83.018272
v -230.805435 -8.119415 -77.093117
v -163.310471 12.922709 -66.421654
v -157.711227 6.241598 -58.550377
v -163.310471 12.922709 -66.421654
v -230.805435 -8.119415 -77.093117
v -157.711227 6.241598 -58.550377
v -148.592255 11.929548 -64.703613
v -163.310471 12.922709 -66.421654
v -154.881195 -91.911949 -107.959122
v -153.276474 -86.272301 -122.396194
v -152.456741 -91.863632 -107.439125
v -179.274673 -54.694908 -166.655670
v -153.276474 -86.272301 -122.396194
v -200.795074 -91.665237 -100.380798
v -200.795074 -91.665237 -100.380798
v -153.276474 -86.272301 -122.396194
v -155.261520 -91.899384 -108.066750
v -155.261520 -91.899384 -108.066750
v -153.276474 -86.272301 -122.396194
v -154.881195 -91.911949 -107.959122
v -227.455139 -15.088520 -69.978844
v -186.998398 -11.201724 -56.623505
v -157.711227 6.241598 -58.550377
v -157.711227 6.241598 -58.550377
v -186.998398 -11.201724 -56.623505
v -175.995865 -14.403468 -51.371063
v -204.707581 -20.200434 -58.615307
v -186.998398 -11.201724 -56.623505
v -227.455139 -15.088520 -69.978844
v -175.995865 -14.403468 -51.371063
v -186.998398 -11.201724 -56.623505
v -204.707581 -20.200434 -58.615307
v -206.578354 29.363464 -120.209679
v -188.365250 28.842875 -114.942757
v -193.432144 26.864044 -141.440216
v -143.841125 -46.037998 -167.536011
v -167.148376 -59.370827 -159.282806
v -179.274673 -54.694908 -166.655670
v -179.274673 -54.694908 -166.655670
v -167.148376 -59.370827 -159.282806
v -153.276474 -86.272301 -122.396194
v -153.276474 -86.272301 -122.396194
v -167.148376 -59.370827 -159.282806
v -143.841125 -46.037998 -167.536011
v -111.197479 -33.674767 -90.034019
v -110.535858 -14.520699 -96.666153
v -129.781754 3.372437 -73.161423
v -152.456741 -91.863632 -107.439125
v -147.140976 -81.779243 -122.579727
v -139.606293 -84.319504 -94.041748
v -153.276474 -86.272301 -122.396194
v -147.140976 -81.779243 -122.579727
v -152.456741 -91.863632 -107.439125
v -153.276474 -86.272301 -122.396194
v -143.841125 -46.037998 -167.536011
v -147.140976 -81.779243 -122.579727
v -111.197479 -33.674767 -90.034019
v -129.781754 3.372437 -73.161423
v -112.445374 -31.711172 -88.888786
v -172.250076 -57.628510 -55.089893
v -166.549652 -23.352310 -54.120449
v -175.995865 -14.403468 -51.371063
v -157.711227 6.241598 -58.550377
v -175.995865 -14.403468 -51.371063
v -166.549652 -23.352310 -54.120449
v -157.711227 6.241598 -58.550377
v -166.549652 -23.352310 -54.120449
v -129.781754 3.372437 -73.161423
v -114.383331 -43.845009 -91.937263
v -115.079178 -45.244301 -90.062653
v -138.209534 -85.677910 -78.846153
v -114.383331 -43.845009 -91.937263
v -111.197479 -33.674767 -90.034019
v -115.079178 -45.244301 -90.062653
v -177.971771 16.766361 -165.276886
v -135.770248 0.533376 -146.959656
v -143.841125 -46.037998 -167.536011
v -143.841125 -46.037998 -167.536011
v -135.770248 0.533376 -146.959656
v -113.343239 -12.078972 -131.991364
v -185.889404 22.223873 -166.439453
v -135.770248 0.533376 -146.959656
v -177.971771 16.766361 -165.276886
v -110.535858 -14.520699 -96.666153
v -129.551666 10.874827 -92.912720
v -129.781754 3.372437 -73.161423
v -112.273163 -11.854020 -126.632118
v -129.551666 10.874827 -92.912720
v -110.535858 -14.520699 -96.666153
v -129.781754 3.372437 -73.161423
v -129.551666 10.874827 -92.912720
v -148.592255 11.929548 -64.703613
v -185.889404 22.223873 -166.439453
v -139.060837 12.135873 -137.359299
v -135.770248 0.533376 -146.959656
v -135.770248 0.533376 -146.959656
v -139.060837 12.135873 -137.359299
v -113.343239 -12.078972 -131.991364
v -185.889404 22.223873 -166.439453
v -141.757996 13.830216 -136.923950
v -139.060837 12.135873 -137.359299
v -115.079178 -45.244301 -90.062653
v -120.716515 -43.488644 -82.090950
v -138.209534 -85.677910 -78.846153
v -111.197479 -33.674767 -90.034019
v -120.716515 -43.488644 -82.090950
v -115.079178 -45.244301 -90.062653
v -143.841125 -46.037998 -167.536011
v -113.343239 -12.078972 -131.991364
v -110.770729 -24.825422 -118.639786
v -114.383331 -43.845009 -91.937263
v -110.770729 -24.825422 -118.639786
v -111.197479 -33.674767 -90.034019
v -112.273163 -11.854020 -126.632118
v -110.770729 -24.825422 -118.639786
v -113.343239 -12.078972 -131.991364
v -111.197479 -33.674767 -90.034019
v -110.770729 -24.825422 -118.639786
v -110.535858 -14.520699 -96.666153
v -112.273163 -11.854020 -126.632118
v -110.535858 -14.520699 -96.666153
v -110.770729 -24.825422 -118.639786
v -185.889404 22.223873 -166.439453
v -193.432144 26.864044 -141.440216
v -171.744003 23.777086 -129.398621
v -188.365250 28.842875 -114.942757
v -171.744003 23.777086 -129.398621
v -193.432144 26.864044 -141.440216
v -139.060837 12.135873 -137.359299
v -131.986145 7.760661 -132.390823
v -113.343239 -12.078972 -131.991364
v -112.273163 -11.854020 -126.632118
v -113.343239 -12.078972 -131.991364
v -131.986145 7.760661 -132.390823
v -112.273163 -11.854020 -126.632118
v -131.986145 7.760661 -132.390823
v -129.551666 10.874827 -92.912720
v -129.551666 10.874827 -92.912720
v -138.695023 17.932613 -108.469032
v -148.592255 11.929548 -64.703613
v -141.757996 13.830216 -136.923950
v -138.695023 17.932613 -108.469032
v -139.060837 12.135873 -137.359299
v -139.060837 12.135873 -137.359299
v -138.695023 17.932613 -108.469032
v -131.986145 7.760661 -132.390823
v -131.986145 7.760661 -132.390823
v -138.695023 17.932613 -108.469032
v -129.551666 10.874827 -92.912720
v -138.695023 17.932613 -108.469032
v -150.059036 16.863649 -86.390747
v -148.592255 11.929548 -64.703613
v -163.310471 12.922709 -66.421654
v -170.291748 24.554945 -97.635551
v -206.578354 29.363464 -120.209679
v -206.578354 29.363464 -120.209679
v -170.291748 24.554945 -97.635551
v -188.365250 28.842875 -114.942757
v -148.592255 11.929548 -64.703613
v -170.291748 24.554945 -97.635551
v -163.310471 12.922709 -66.421654
v -129.781754 3.372437 -73.161423
v -125.769974 -24.767660 -76.405373
v -112.445374 -31.711172 -88.888786
v -111.197479 -33.674767 -90.034019
v -112.445374 -31.711172 -88.888786
v -125.769974 -24.767660 -76.405373
v -111.197479 -33.674767 -90.034019
v -125.769974 -24.767660 -76.405373
v -120.716515 -43.488644 -82.090950
v -166.549652 -23.352310 -54.120449
v -125.769974 -24.767660 -76.405373
v -129.781754 3.372437 -73.161423
v -148.592255 11.929548 -64.703613
v -169.045273 24.506229 -98.109993
v -170.291748 24.554945 -97.635551
v -150.059036 16.863649 -86.390747
v -168.294205 24.817820 -99.991928
v -148.592255 11.929548 -64.703613
v -148.592255 11.929548 -64.703613
v -168.294205 24.817820 -99.991928
v -169.045273 24.506229 -98.109993
v -138.695023 17.932613 -108.469032
v -168.294205 24.817820 -99.991928
v -150.059036 16.863649 -86.390747
v -170.291748 24.554945 -97.635551
v -168.294205 24.817820 -99.991928
v -188.365250 28.842875 -114.942757
v -169.045273 24.506229 -98.109993
v -168.294205 24.817820 -99.991928
v -170.291748 24.554945 -97.635551
v -188.365250 28.842875 -114.942757
v -168.294205 24.817820 -99.991928
v -171.830536 25.537189 -103.409920
v -125.769974 -24.767660 -76.405373
v -127.920654 -28.414902 -75.493645
v -120.716515 -43.488644 -82.090950
v -172.250076 -57.628510 -55.089893
v -127.920654 -28.414902 -75.493645
v -166.549652 -23.352310 -54.120449
v -166.549652 -23.352310 -54.120449
v -127.920654 -28.414902 -75.493645
v -125.769974 -24.767660 -76.405373
v -185.889404 22.223873 -166.439453
v -155.803162 19.898029 -127.218452
v -141.757996 13.830216 -136.923950
v -138.209534 -85.677910 -78.846153
v -130.535034 -41.090641 -75.716766
v -158.639587 -66.692398 -64.138870
v -120.716515 -43.488644 -82.090950
v -130.535034 -41.090641 -75.716766
v -138.209534 -85.677910 -78.846153
v -127.920654 -28.414902 -75.493645
v -130.535034 -41.090641 -75.716766
v -120.716515 -43.488644 -82.090950
v -158.639587 -66.692398 -64.138870
v -130.535034 -41.090641 -75.716766
v -172.250076 -57.628510 -55.089893
v -172.250076 -57.628510 -55.089893
v -130.535034 -41.090641 -75.716766
v -127.920654 -28.414902 -75.493645
v -188.365250 28.842875 -114.942757
v -150.379944 20.559959 -114.067192
v -171.744003 23.777086 -129.398621
v -188.365250 28.842875 -114.942757
v -171.830536 25.537189 -103.409920
v -150.379944 20.559959 -114.067192
v -138.695023 17.932613 -108.469032
v -150.379944 20.559959 -114.067192
v -168.294205 24.817820 -99.991928
v -168.294205 24.817820 -99.991928
v -150.379944 20.559959 -114.067192
v -171.830536 25.537189 -103.409920
v -141.757996 13.830216 -136.923950
v -150.379944 20.559959 -114.067192
v -138.695023 17.932613 -108.469032
v -155.803162 19.898029 -127.218452
v -150.379944 20.559959 -114.067192
v -141.757996 13.830216 -136.923950
v -185.889404 22.223873 -166.439453
v -171.744003 23.777086 -129.398621
v -150.379944 20.559959 -114.067192
v -185.889404 22.223873 -166.439453
v -150.379944 20.559959 -114.067192
v -155.803162 19.898029 -127.218452
v -185.889404 22.223873 -166.439453
v -221.396729 -34.426052 -111.089218
v -237.569366 -4.625171 -83.018272
v -185.889404 22.223873 -166.439453
v -186.035706 14.076836 -165.908798
v -221.396729 -34.426052 -111.089218
v -236.893921 -17.921549 -75.524857
v -237.505325 -8.613954 -81.878754
v -221.396729 -34.426052 -111.089218
v -213.441498 -80.508224 -74.137985
v -236.893921 -17.921549 -75.524857
v -221.396729 -34.426052 -111.089218
v -213.441498 -80.508224 -74.137985
v -221.396729 -34.426052 -111.089218
v -200.795074 -91.665237 -100.380798
v -179.274673 -54.694908 -166.655670
v -221.396729 -34.426052 -111.089218
v -186.035706 14.076836 -165.908798
v -237.569366 -4.625171 -83.018272
v -221.396729 -34.426052 -111.089218
v -237.505325 -8.613954 -81.878754
v -179.274673 -54.694908 -166.655670
v -200.795074 -91.665237 -100.380798
v -221.396729 -34.426052 -111.089218
v -143.841125 -46.037998 -167.536011
v -110.770729 -24.825422 -118.639786
v -120.245781 -40.665524 -120.983208
v -143.841125 -46.037998 -167.536011
v -124.580688 -52.354256 -115.132202
v -147.140976 -81.779243 -122.579727
v -143.841125 -46.037998 -167.536011
v -120.245781 -40.665524 -120.983208
v -124.580688 -52.354256 -115.132202
v -114.383331 -43.845009 -91.937263
v -139.606293 -84.319504 -94.041748
v -124.580688 -52.354256 -115.132202
v -114.383331 -43.845009 -91.937263
v -124.580688 -52.354256 -115.132202
v -110.770729 -24.825422 -118.639786
v -110.770729 -24.825422 -118.639786
v -124.580688 -52.354256 -115.132202
v -120.245781 -40.665524 -120.983208
v -147.140976 -81.779243 -122.579727
v -124.580688 -52.354256 -115.132202
v -139.606293 -84.319504 -94.041748
vn -0.850360 0.224902 0.475718
vn -0.823610 0.249804 0.509180
vn -0.845865 0.220726 0.485585
vn -0.725341 0.326568 0.605998
vn -0.992086 0.019507 0.124039
vn -0.699937 -0.191795 0.687971
vn -0.719241 -0.255194 0.646196
vn -0.542267 0.118131 0.831860
vn -0.442086 0.500378 0.744434
vn -0.475331 0.208027 0.854860
vn -0.340851 0.586325 0.734877
vn -0.153345 -0.933850 0.323125
vn -0.851030 0.300855 -0.430388
vn -0.681864 0.612581 -0.399756
vn -0.736811 0.676088 0.003893
vn 0.147035 -0.955427 0.256009
vn -0.209875 0.947741 -0.240290
vn 0.019126 0.994266 -0.105209
vn 0.144258 0.979822 -0.138342
vn -0.056199 -0.728097 0.683167
vn 0.260520 0.175727 -0.949341
vn 0.425424 -0.904849 -0.016226
vn 0.080133 -0.992755 0.089531
vn 0.064636 -0.690472 0.720466
vn -0.021365 -0.684768 0.728448
vn -0.052567 -0.627141 0.777130
vn -0.546567 -0.044652 -0.836224
vn -0.024998 0.000660 -0.999687
vn -0.144017 -0.510249 0.847883
vn -0.055439 -0.614066 0.787306
vn 0.002788 -0.998775 0.049404
vn 0.008756 -0.998611 0.051962
vn -0.015534 -0.997979 -0.061623
vn 0.845008 -0.520137 -0.124170
vn 0.596444 -0.792752 -0.125692
vn -0.305412 0.604356 0.735851
vn -0.064478 -0.433392 0.898896
vn 0.017384 -0.544098 0.838841
vn 0.220686 -0.460411 0.859837
vn 0.127721 -0.500498 0.856265
vn 0.017068 -0.265097 0.964071
vn -0.370197 0.303984 0.877809
vn 0.098995 -0.076778 0.992122
vn -0.291034 0.310691 0.904859
vn 0.470424 0.180300 0.863825
vn 0.457550 -0.181885 0.870382
vn -0.302912 0.815615 0.492966
vn -0.307931 0.623094 0.718980
vn -0.305373 0.607740 0.733075
vn -0.025948 0.752953 0.657562
vn 0.094289 -0.930811 -0.353128
vn -0.143936 -0.843598 -0.517325
vn -0.067685 -0.925443 -0.372792
vn 0.070017 -0.931781 -0.356205
vn -0.303380 0.591863 0.746766
vn -0.247132 0.506204 0.826247
vn -0.319157 0.442606 0.837997
vn -0.299039 0.396368 0.868026
vn 0.052853 0.995028 -0.084415
vn 0.153779 -0.700318 -0.697070
vn 0.059644 -0.795705 -0.602740
vn 0.208069 -0.751368 -0.626222
vn 0.820296 0.161628 0.548626
vn 0.664432 -0.708280 -0.238472
vn 0.553946 -0.769431 -0.317992
vn 0.495205 -0.697390 -0.518092
vn 0.690393 0.016940 0.723236
vn 0.222106 -0.064455 0.972890
vn 0.319354 0.046305 0.946504
vn 0.463080 -0.005632 0.886298
vn 0.859097 -0.508228 -0.060471
vn 0.941849 -0.316281 0.113524
vn 0.472074 0.286535 -0.833693
vn 0.624683 0.222456 -0.748521
vn 0.501512 0.593488 -0.629490
vn 0.795826 0.562930 0.223096
vn 0.800933 0.598715 0.006845
vn 0.505950 0.804378 0.311431
vn 0.502732 0.631249 -0.590580
vn 0.651469 0.584740 -0.483392
vn 0.432949 0.797269 -0.420615
vn 0.757662 -0.268396 0.594905
vn 0.761478 -0.256956 0.595084
vn 0.846003 -0.294691 -0.444338
vn 0.955525 -0.285462 -0.074054
vn 0.980675 -0.006882 -0.195522
vn 0.999448 -0.032883 0.004738
vn 0.995172 0.084343 -0.050190
vn 0.204231 0.971695 -0.118739
vn 0.200171 0.973456 -0.110975
vn 0.669819 0.621227 -0.406718
vn 0.719618 0.672749 -0.171924
vn 0.716231 0.690853 -0.098664
vn 0.354734 0.912141 0.205334
vn 0.503085 0.846098 -0.176137
vn 0.599872 0.782962 -0.164695
vn 0.707942 0.699323 -0.098821
vn 0.288379 0.937692 0.193833
vn -0.106568 0.923677 0.368054
vn -0.058789 0.952916 0.297481
vn 0.023106 0.938477 0.344567
vn 0.687595 0.014340 0.725952
vn 0.687293 0.013206 0.726260
vn 0.667330 -0.045624 0.743364
vn 0.478398 -0.032957 0.877524
vn 0.140795 0.951895 0.272163
vn 0.264933 0.943961 0.196845
vn 0.198351 0.951136 0.236639
vn 0.272871 0.943870 0.186150
vn 0.070759 0.982962 0.169641
vn 0.116927 0.971228 0.207470
vn 0.187454 0.982190 0.012773
vn 0.538302 -0.108507 0.835737
vn 0.471166 -0.103135 0.875994
vn 0.476954 -0.062084 0.876733
vn 0.291171 0.941893 -0.167501
vn 0.486372 -0.144200 0.861771
vn 0.512931 -0.147639 0.845639
vn 0.519316 -0.121998 0.845829
vn 0.482598 -0.138691 0.864791
vn 0.476190 -0.113563 0.871978
vn 0.214175 0.972219 -0.094439
vn 0.213554 0.976578 -0.026255
vn 0.223868 0.974569 -0.009886
vn 0.216981 0.975989 -0.019081
vn 0.291848 0.941739 -0.167188
vn 0.291183 0.941893 -0.167483
vn 0.239412 0.961936 -0.131764
vn 0.291116 0.941918 -0.167457
vn -0.853619 0.026761 -0.520210
vn -0.831493 -0.021227 -0.555130
vn -0.924193 -0.254880 -0.284434
vn -0.908367 -0.345599 -0.235438
vn -0.888536 -0.370445 -0.270693
vn -0.807426 -0.073021 -0.585432
vn -0.911641 -0.126361 -0.391080
vn -0.799400 -0.375468 -0.469025
vn 0.821519 -0.437271 -0.365924
vn 0.784082 -0.512583 -0.349963
vn 0.805532 -0.475638 -0.353393
vn 0.838940 -0.513428 -0.180474
vn 0.862753 -0.459646 -0.210673
vn 0.838794 -0.458245 -0.294002
vn 0.797053 -0.545550 -0.259001
f 1//1 2//1 3//1
f 4//2 5//2 6//2
f 7//3 8//3 9//3
f 10//4 11//4 12//4
f 13//5 14//5 15//5
f 16//6 17//6 18//6
f 19//7 20//7 21//7
f 22//8 23//8 24//8
f 25//9 26//9 27//9
f 28//10 29//10 30//10
f 31//11 32//11 33//11
f 34//12 35//12 36//12
f 37//13 38//13 39//13
f 40//14 41//14 42//14
f 43//15 44//15 45//15
f 46//16 47//16 48//16
f 49//17 50//17 51//17
f 52//18 53//18 54//18
f 55//19 56//19 57//19
f 58//20 59//20 60//20
f 61//21 62//21 63//21
f 64//22 65//22 66//22
f 67//23 68//23 69//23
f 70//24 71//24 72//24
f 73//25 74//25 75//25
f 76//26 77//26 78//26
f 79//27 80//27 81//27
f 82//28 83//28 84//28
f 85//29 86//29 87//29
f 88//30 89//30 90//30
f 91//31 92//31 93//31
f 94//32 95//32 96//32
f 97//33 98//33 99//33
f 100//34 101//34 102//34
f 103//35 104//35 105//35
f 106//36 107//36 108//36
f 109//37 110//37 111//37
f 112//38 113//38 114//38
f 115//39 116//39 117//39
f 118//40 119//40 120//40
f 121//41 122//41 123//41
f 124//42 125//42 126//42
f 127//43 128//43 129//43
f 130//44 131//44 132//44
f 133//45 134//45 135//45
f 136//46 137//46 138//46
f 139//47 140//47 141//47
f 142//48 143//48 144//48
f 145//49 146//49 147//49
f 148//50 149//50 150//50
f 151//51 152//51 153//51
f 154//52 155//52 156//52
f 157//53 158//53 159//53
f 160//54 161//54 162//54
f 163//55 164//55 165//55
f 166//56 167//56 168//56
f 169//57 170//57 171//57
f 172//58 173//58 174//58
f 175//59 176//59 177//59
f 178//60 179//60 180//60
f 181//61 182//61 183//61
f 184//62 185//62 186//62
f 187//63 188//63 189//63
f 190//64 191//64 192//64
f 193//65 194//65 195//65
f 196//66 197//66 198//66
f 199//67 200//67 201//67
f 202//68 203//68 204//68
f 205//69 206//69 207//69
f 208//70 209//70 210//70
f 211//71 212//71 213//71
f 214//72 215//72 216//72
f 217//73 218//73 219//73
f 220//74 221//74 222//74
f 223//75 224//75 225//75
f 226//76 227//76 228//76
f 229//77 230//77 231//77
f 232//78 233//78 234//78
f 235//79 236//79 237//79
f 238//80 239//80 240//80
f 241//81 242//81 243//81
f 244//82 245//82 246//82
f 247//83 248//83 249//83
f 250//84 251//84 252//84
f 253//85 254//85 255//85
f 256//86 257//86 258//86
f 259//87 260//87 261//87
f 262//88 263//88 264//88
f 265//89 266//89 267//89
f 268//90 269//90 270//90
f 271//91 272//91 273//91
f 274//92 275//92 276//92
f 277//93 278//93 279//93
f 280//94 281//94 282//94
f 283//95 284//95 285//95
f 286//96 287//96 288//96
f 289//97 290//97 291//97
f 292//98 293//98 294//98
f 295//99 296//99 297//99
f 298//100 299//100 300//100
f 301//101 302//101 303//101
f 304//102 305//102 306//102
f 307//103 308//103 309//103
f 310//104 311//104 312//104
f 313//105 314//105 315//105
f 316//106 317//106 318//106
f 319//107 320//107 321//107
f 322//108 323//108 324//108
f 325//109 326//109 327//109
f 328//110 329//110 330//110
f 331//111 332//111 333//111
f 334//112 335//112 336//112
f 337//113 338//113 339//113
f 340//114 341//114 342//114
f 343//115 344//115 345//115
f 346//116 347//116 348//116
f 349//117 350//117 351//117
f 352//118 353//118 354//118
f 355//119 356//119 357//119
f 358//120 359//120 360//120
f 361//121 362//121 363//121
f 364//122 365//122 366//122
f 367//123 368//123 369//123
f 370//124 371//124 372//124
f 373//125 374//125 375//125
f 376//126 377//126 378//126
f 379//127 380//127 381//127
f 382//128 383//128 384//128
f 385//129 386//129 387//129
f 388//130 389//130 390//130
f 391//131 392//131 393//131
f 394//132 395//132 396//132
f 397//133 398//133 399//133
f 400//134 401//134 402//134
f 403//135 404//135 405//135
f 406//136 407//136 408//136
f 409//137 410//137 411//137
f 412//138 413//138 414//138
f 415//139 416//139 417//139
f 418//140 419//140 420//140
f 421//141 422//141 423//141
f 424//142 425//142 426//142
f 427//143 428//143 429//143
f 430//144 431//144 432//144
