o
v 42.346489 28.112535 204.436127
v 43.847271 27.487312 206.088455
v 42.960510 27.859875 205.087769
v 42.346489 28.112535 204.436127
v -149.238434 -94.766273 155.866425
v 43.847271 27.487312 206.088455
v 42.346489 28.112535 204.436127
v 96.484528 -4.094827 18.443232
v -149.238434 -94.766273 155.866425
v 42.346489 28.112535 204.436127
v 109.166557 -2.647624 97.765160
v 96.484528 -4.094827 18.443232
v 43.847271 27.487312 206.088455
v 131.613602 -41.426781 159.255676
v 173.536407 -28.548853 139.296494
v 96.484528 -4.094827 18.443232
v 102.969933 -112.955299 -135.366013
v -149.238434 -94.766273 155.866425
v 42.346489 28.112535 204.436127
v 42.960510 27.859875 205.087769
v 187.933044 -34.464634 70.837166
v 42.346489 28.112535 204.436127
v 187.933044 -34.464634 70.837166
v 109.166557 -2.647624 97.765160
v 43.847271 27.487312 206.088455
v 187.933044 -34.464634 70.837166
v 42.960510 27.859875 205.087769
v 43.847271 27.487312 206.088455
v 173.536407 -28.548853 139.296494
v 187.933044 -34.464634 70.837166
v 109.166557 -2.647624 97.765160
v 187.933044 -34.464634 70.837166
v 96.484528 -4.094827 18.443232
v 187.641006 -102.855186 -110.003113
v 96.484528 -4.094827 18.443232
v 187.933044 -34.464634 70.837166
v 173.536407 -28.548853 139.296494
v 188.092407 -35.859486 70.589767
v 187.933044 -34.464634 70.837166
v 102.969933 -112.955299 -135.366013
v 187.522644 -102.772697 -109.926102
v 187.641006 -102.855186 -110.003113
v 96.484528 -4.094827 18.443232
v 187.522644 -102.772697 -109.926102
v 102.969933 -112.955299 -135.366013
v 187.641006 -102.855186 -110.003113
v 187.522644 -102.772697 -109.926102
v 96.484528 -4.094827 18.443232
v 187.641006 -102.855186 -110.003113
v 187.933044 -34.464634 70.837166
v 188.444855 -39.434120 66.919563
v 188.092407 -35.859486 70.589767
v 188.444855 -39.434120 66.919563
v 187.933044 -34.464634 70.837166
v -149.238434 -94.766273 155.866425
v 28.825050 -183.770386 -99.202438
v 12.077078 -204.616165 -82.413116
v 102.969933 -112.955299 -135.366013
v 30.771555 -201.349884 -94.757187
v 28.825050 -183.770386 -99.202438
v 28.825050 -183.770386 -99.202438
v 30.771555 -201.349884 -94.757187
v 12.077078 -204.616165 -82.413116
v 102.969933 -112.955299 -135.366013
v 187.641006 -102.855186 -110.003113
v 32.497334 -211.499344 -89.526024
v 102.969933 -112.955299 -135.366013
v 32.497334 -211.499344 -89.526024
v 30.771555 -201.349884 -94.757187
v 30.771555 -201.349884 -94.757187
v 32.497334 -211.499344 -89.526024
v 12.077078 -204.616165 -82.413116
v 102.969933 -112.955299 -135.366013
v 29.591909 -180.011917 -97.874512
v -149.238434 -94.766273 155.866425
v -149.238434 -94.766273 155.866425
v 29.591909 -180.011917 -97.874512
v 28.825050 -183.770386 -99.202438
v 102.969933 -112.955299 -135.366013
v 28.825050 -183.770386 -99.202438
v 29.591909 -180.011917 -97.874512
v 173.536407 -28.548853 139.296494
v 186.239716 -113.584702 106.049187
v 188.092407 -35.859486 70.589767
v 181.197357 -117.924942 116.285843
v 186.239716 -113.584702 106.049187
v 173.536407 -28.548853 139.296494
v 188.092407 -35.859486 70.589767
v 186.239716 -113.584702 106.049187
v 188.444855 -39.434120 66.919563
v 131.613602 -41.426781 159.255676
v 180.657394 -119.215553 116.366882
v 173.536407 -28.548853 139.296494
v 181.197357 -117.924942 116.285843
v 173.536407 -28.548853 139.296494
v 180.657394 -119.215553 116.366882
v 181.197357 -117.924942 116.285843
v 180.657394 -119.215553 116.366882
v 186.239716 -113.584702 106.049187
v 131.613602 -41.426781 159.255676
v 114.433792 -138.359421 134.517197
v 180.657394 -119.215553 116.366882
v 32.497334 -211.499344 -89.526024
v 80.654861 -237.995148 39.040596
v 12.077078 -204.616165 -82.413116
v 142.876511 -236.472076 4.008429
v 80.654861 -237.995148 39.040596
v 32.497334 -211.499344 -89.526024
v -149.238434 -94.766273 155.866425
v 12.077078 -204.616165 -82.413116
v 80.654861 -237.995148 39.040596
v 143.529526 -236.568756 4.580841
v 80.654861 -237.995148 39.040596
v 142.876511 -236.472076 4.008429
v 187.641006 -102.855186 -110.003113
v 147.285187 -233.515228 2.739236
v 32.497334 -211.499344 -89.526024
v 142.876511 -236.472076 4.008429
v 32.497334 -211.499344 -89.526024
v 147.285187 -233.515228 2.739236
v 143.529526 -236.568756 4.580841
v 142.876511 -236.472076 4.008429
v 147.285187 -233.515228 2.739236
v 143.529526 -236.568756 4.580841
v 147.285187 -233.515228 2.739236
v 147.205292 -233.738861 3.418184
v -149.238434 -94.766273 155.866425
v 80.654861 -237.995148 39.040596
v 83.343498 -238.043274 42.553070
v 143.529526 -236.568756 4.580841
v 83.343498 -238.043274 42.553070
v 80.654861 -237.995148 39.040596
v 43.847271 27.487312 206.088455
v 94.993156 -171.091202 130.554413
v 131.613602 -41.426781 159.255676
v 131.613602 -41.426781 159.255676
v 94.993156 -171.091202 130.554413
v 114.433792 -138.359421 134.517197
v -149.238434 -94.766273 155.866425
v 94.993156 -171.091202 130.554413
v 43.847271 27.487312 206.088455
v 114.433792 -138.359421 134.517197
v 94.993156 -171.091202 130.554413
v 180.657394 -119.215553 116.366882
v -149.238434 -94.766273 155.866425
v 83.343498 -238.043274 42.553070
v 94.661903 -172.343201 129.238007
v -149.238434 -94.766273 155.866425
v 94.661903 -172.343201 129.238007
v 94.993156 -171.091202 130.554413
v 187.641006 -102.855186 -110.003113
v 188.444855 -39.434120 66.919563
v 185.923599 -151.225571 -3.392184
v 186.239716 -113.584702 106.049187
v 185.923599 -151.225571 -3.392184
v 188.444855 -39.434120 66.919563
v 147.285187 -233.515228 2.739236
v 169.780045 -206.935852 15.648724
v 147.205292 -233.738861 3.418184
v 180.657394 -119.215553 116.366882
v 169.622101 -207.115402 15.913739
v 186.239716 -113.584702 106.049187
v 186.239716 -113.584702 106.049187
v 169.622101 -207.115402 15.913739
v 169.780045 -206.935852 15.648724
v 143.529526 -236.568756 4.580841
v 147.205292 -233.738861 3.418184
v 169.622101 -207.115402 15.913739
v 169.780045 -206.935852 15.648724
v 169.622101 -207.115402 15.913739
v 147.205292 -233.738861 3.418184
v 187.641006 -102.855186 -110.003113
v 170.086792 -205.893692 14.406165
v 147.285187 -233.515228 2.739236
v 147.285187 -233.515228 2.739236
v 170.086792 -205.893692 14.406165
v 169.780045 -206.935852 15.648724
v 187.641006 -102.855186 -110.003113
v 185.923599 -151.225571 -3.392184
v 170.086792 -205.893692 14.406165
v 186.239716 -113.584702 106.049187
v 176.163116 -185.908997 10.240917
v 185.923599 -151.225571 -3.392184
v 186.239716 -113.584702 106.049187
v 169.780045 -206.935852 15.648724
v 176.163116 -185.908997 10.240917
v 170.086792 -205.893692 14.406165
v 176.163116 -185.908997 10.240917
v 169.780045 -206.935852 15.648724
v 185.923599 -151.225571 -3.392184
v 176.163116 -185.908997 10.240917
v 170.086792 -205.893692 14.406165
v 94.661903 -172.343201 129.238007
v 138.563446 -205.008408 71.875053
v 94.993156 -171.091202 130.554413
v 143.529526 -236.568756 4.580841
v 138.563446 -205.008408 71.875053
v 83.343498 -238.043274 42.553070
v 83.343498 -238.043274 42.553070
v 138.563446 -205.008408 71.875053
v 94.661903 -172.343201 129.238007
v 94.993156 -171.091202 130.554413
v 138.563446 -205.008408 71.875053
v 180.657394 -119.215553 116.366882
v 180.657394 -119.215553 116.366882
v 138.563446 -205.008408 71.875053
v 169.622101 -207.115402 15.913739
v 143.529526 -236.568756 4.580841
v 169.622101 -207.115402 15.913739
v 138.563446 -205.008408 71.875053
vn 0.262991 0.956899 0.123210
vn -0.513765 0.536362 0.669598
vn -0.466624 0.838617 -0.281042
vn 0.324124 0.943492 -0.069035
vn 0.441163 -0.047184 0.896186
vn -0.532678 0.680049 -0.503774
vn 0.388254 0.921513 -0.008541
vn 0.361871 0.931287 -0.041870
vn 0.391529 0.920155 -0.004374
vn 0.398621 0.917104 0.004578
vn 0.351890 0.933168 -0.073286
vn 0.456876 0.831775 -0.315300
vn 0.977047 0.076356 0.198870
vn 0.104130 0.754438 -0.648059
vn 0.074501 0.815454 -0.574007
vn 0.309538 0.847222 -0.431741
vn 0.987533 0.146700 -0.057074
vn 0.992999 0.116697 -0.018301
vn -0.785961 0.147965 -0.600310
vn -0.209798 -0.261464 -0.942137
vn -0.498934 -0.263975 -0.825459
vn 0.297490 -0.569273 -0.766439
vn 0.050583 -0.450745 -0.891219
vn -0.427485 -0.470541 -0.771912
vn -0.680005 0.400863 -0.613923
vn -0.701133 0.360426 -0.615228
vn -0.666207 0.365588 -0.650010
vn 0.977470 0.067880 0.199861
vn 0.902119 -0.033430 0.430190
vn 0.996515 0.013781 0.082273
vn 0.467704 -0.182010 0.864942
vn 0.528533 -0.168887 0.831943
vn 0.889709 -0.354144 0.288098
vn 0.329656 -0.287897 0.899134
vn -0.339364 -0.938319 -0.066258
vn -0.074235 -0.981848 -0.174539
vn -0.509157 -0.859139 0.051375
vn -0.042654 -0.991991 -0.118886
vn 0.383929 -0.668335 -0.637124
vn 0.328494 -0.741116 -0.585524
vn 0.357716 -0.763905 -0.537110
vn 0.557245 -0.805931 -0.199885
vn -0.395233 -0.871405 0.290593
vn 0.010688 -0.999703 -0.021879
vn 0.271167 -0.280400 0.920784
vn 0.293731 -0.284925 0.912436
vn -0.015459 -0.358956 0.933226
vn 0.332860 -0.305697 0.892050
vn -0.179263 -0.772642 0.609006
vn -0.145606 -0.698334 0.700806
vn 0.999666 -0.025420 0.004570
vn 0.999631 -0.026451 0.006210
vn 0.784239 -0.610826 -0.108910
vn 0.878894 -0.402645 0.255777
vn 0.880524 -0.400606 0.253360
vn 0.639129 -0.693859 0.331774
vn 0.761449 -0.648057 0.014744
vn 0.792667 -0.519762 -0.318632
vn 0.795666 -0.546267 -0.261742
vn 0.940848 -0.314003 -0.127310
vn 0.967282 -0.240758 0.080012
vn 0.958956 -0.265501 0.099565
vn 0.956162 -0.292687 -0.009437
vn 0.943373 -0.310931 -0.115629
vn 0.274076 -0.730363 0.625662
vn 0.288495 -0.858520 0.423928
vn 0.167477 -0.796108 0.581518
vn 0.460716 -0.576160 0.675115
vn 0.712020 -0.565323 0.416458
vn 0.620055 -0.691738 0.370176
f 1//1 2//1 3//1
f 4//2 5//2 6//2
f 7//3 8//3 9//3
f 10//4 11//4 12//4
f 13//5 14//5 15//5
f 16//6 17//6 18//6
f 19//7 20//7 21//7
f 22//8 23//8 24//8
f 25//9 26//9 27//9
f 28//10 29//10 30//10
f 31//11 32//11 33//11
f 34//12 35//12 36//12
f 37//13 38//13 39//13
f 40//14 41//14 42//14
f 43//15 44//15 45//15
f 46//16 47//16 48//16
f 49//17 50//17 51//17
f 52//18 53//18 54//18
f 55//19 56//19 57//19
f 58//20 59//20 60//20
f 61//21 62//21 63//21
f 64//22 65//22 66//22
f 67//23 68//23 69//23
f 70//24 71//24 72//24
f 73//25 74//25 75//25
f 76//26 77//26 78//26
f 79//27 80//27 81//27
f 82//28 83//28 84//28
f 85//29 86//29 87//29
f 88//30 89//30 90//30
f 91//31 92//31 93//31
f 94//32 95//32 96//32
f 97//33 98//33 99//33
f 100//34 101//34 102//34
f 103//35 104//35 105//35
f 106//36 107//36 108//36
f 109//37 110//37 111//37
f 112//38 113//38 114//38
f 115//39 116//39 117//39
f 118//40 119//40 120//40
f 121//41 122//41 123//41
f 124//42 125//42 126//42
f 127//43 128//43 129//43
f 130//44 131//44 132//44
f 133//45 134//45 135//45
f 136//46 137//46 138//46
f 139//47 140//47 141//47
f 142//48 143//48 144//48
f 145//49 146//49 147//49
f 148//50 149//50 150//50
f 151//51 152//51 153//51
f 154//52 155//52 156//52
f 157//53 158//53 159//53
f 160//54 161//54 162//54
f 163//55 164//55 165//55
f 166//56 167//56 168//56
f 169//57 170//57 171//57
f 172//58 173//58 174//58
f 175//59 176//59 177//59
f 178//60 179//60 180//60
f 181//61 182//61 183//61
f 184//62 185//62 186//62
f 187//63 188//63 189//63
f 190//64 191//64 192//64
f 193//65 194//65 195//65
f 196//66 197//66 198//66
f 199//67 200//67 201//67
f 202//68 203//68 204//68
f 205//69 206//69 207//69
f 208//70 209//70 210//70
