o
v 51.748638 -53.479881 -241.337051
v 131.877853 5.395103 -212.308899
v 157.424026 -118.904770 -167.098831
v 51.748638 -53.479881 -241.337051
v 157.424026 -118.904770 -167.098831
v 78.038002 -147.947586 -178.994293
v 51.748638 -53.479881 -241.337051
v 78.038002 -147.947586 -178.994293
v 78.024284 -147.945557 -178.997116
v 150.334442 -132.112656 -148.593018
v 136.400757 -153.383682 -123.979897
v 157.424026 -118.904770 -167.098831
v 131.877853 5.395103 -212.308899
v 166.433411 -1.820096 -163.561813
v 157.424026 -118.904770 -167.098831
v 78.038002 -147.947586 -178.994293
v 30.286238 -196.609848 -134.484421
v 78.024284 -147.945557 -178.997116
v 150.334442 -132.112656 -148.593018
v 92.836792 -246.761658 35.817917
v 136.400757 -153.383682 -123.979897
v 30.286238 -196.609848 -134.484421
v 36.761890 -198.692322 -125.406235
v 92.836792 -246.761658 35.817917
v 36.761890 -198.692322 -125.406235
v 36.859089 -198.718567 -125.278107
v 92.836792 -246.761658 35.817917
v 51.748638 -53.479881 -241.337051
v 78.024284 -147.945557 -178.997116
v 30.079842 -167.403992 -158.711823
v 30.286238 -196.609848 -134.484421
v 30.079842 -167.403992 -158.711823
v 78.024284 -147.945557 -178.997116
v 51.748638 -53.479881 -241.337051
v -126.686447 39.316563 -204.906647
v -71.020943 37.683998 -226.208755
v 157.424026 -118.904770 -167.098831
v 87.289917 -192.070236 -101.930466
v 78.038002 -147.947586 -178.994293
v 78.038002 -147.947586 -178.994293
v 87.289917 -192.070236 -101.930466
v 30.286238 -196.609848 -134.484421
v 136.400757 -153.383682 -123.979897
v 87.289917 -192.070236 -101.930466
v 157.424026 -118.904770 -167.098831
v 30.286238 -196.609848 -134.484421
v 87.289917 -192.070236 -101.930466
v 36.761890 -198.692322 -125.406235
v 92.836792 -246.761658 35.817917
v 87.289917 -192.070236 -101.930466
v 136.400757 -153.383682 -123.979897
v 36.859089 -198.718567 -125.278107
v 87.289917 -192.070236 -101.930466
v 92.836792 -246.761658 35.817917
v 36.761890 -198.692322 -125.406235
v 87.289917 -192.070236 -101.930466
v 36.859089 -198.718567 -125.278107
v 150.334442 -132.112656 -148.593018
v 157.424026 -118.904770 -167.098831
v 110.617340 -221.221756 23.755070
v 150.334442 -132.112656 -148.593018
v 110.617340 -221.221756 23.755070
v 92.836792 -246.761658 35.817917
v -126.686447 39.316563 -204.906647
v -139.001785 98.299530 -172.420029
v -71.020943 37.683998 -226.208755
v 51.748638 -53.479881 -241.337051
v 30.079842 -167.403992 -158.711823
v -18.940516 -180.908966 -127.306030
v 51.748638 -53.479881 -241.337051
v -18.940516 -180.908966 -127.306030
v -126.686447 39.316563 -204.906647
v 30.286238 -196.609848 -134.484421
v -18.940516 -180.908966 -127.306030
v 30.079842 -167.403992 -158.711823
v 166.433411 -1.820096 -163.561813
v 179.550354 -23.866199 -110.674713
v 157.424026 -118.904770 -167.098831
v -126.686447 39.316563 -204.906647
v -192.178391 35.537655 -114.058983
v -139.001785 98.299530 -172.420029
v -216.358353 -74.034142 -48.450352
v -192.178391 35.537655 -114.058983
v -126.686447 39.316563 -204.906647
v 51.748638 -53.479881 -241.337051
v -7.350038 110.869675 -209.079361
v 131.877853 5.395103 -212.308899
v 51.748638 -53.479881 -241.337051
v -71.020943 37.683998 -226.208755
v -7.350038 110.869675 -209.079361
v -139.001785 98.299530 -172.420029
v -7.350038 110.869675 -209.079361
v -71.020943 37.683998 -226.208755
v 30.286238 -196.609848 -134.484421
v 92.836792 -246.761658 35.817917
v -9.416560 -232.284897 -29.326271
v 30.286238 -196.609848 -134.484421
v -9.416560 -232.284897 -29.326271
v -18.940516 -180.908966 -127.306030
v 92.836792 -246.761658 35.817917
v -5.300050 -236.257996 -7.642957
v -9.416560 -232.284897 -29.326271
v -18.940516 -180.908966 -127.306030
v -114.702675 -156.345703 -90.932808
v -126.686447 39.316563 -204.906647
v -216.358353 -74.034142 -48.450352
v -126.686447 39.316563 -204.906647
v -114.702675 -156.345703 -90.932808
v -9.416560 -232.284897 -29.326271
v -114.702675 -156.345703 -90.932808
v -18.940516 -180.908966 -127.306030
v 92.836792 -246.761658 35.817917
v -7.350419 -238.111557 6.585738
v -5.300050 -236.257996 -7.642957
v -5.300050 -236.257996 -7.642957
v -7.350419 -238.111557 6.585738
v -9.416560 -232.284897 -29.326271
v -192.178391 35.537655 -114.058983
v -224.169754 95.950195 62.313046
v -139.001785 98.299530 -172.420029
v -216.358353 -74.034142 -48.450352
v -224.169754 95.950195 62.313046
v -192.178391 35.537655 -114.058983
v 131.877853 5.395103 -212.308899
v 68.017838 147.074768 -166.620087
v 166.433411 -1.820096 -163.561813
v -7.350038 110.869675 -209.079361
v 68.017838 147.074768 -166.620087
v 131.877853 5.395103 -212.308899
v 157.424026 -118.904770 -167.098831
v 147.874756 -129.146591 -45.809849
v 110.617340 -221.221756 23.755070
v 179.550354 -23.866199 -110.674713
v 147.874756 -129.146591 -45.809849
v 157.424026 -118.904770 -167.098831
v 92.836792 -246.761658 35.817917
v -29.239883 -228.194336 39.184940
v -7.350419 -238.111557 6.585738
v -216.358353 -74.034142 -48.450352
v -114.702675 -156.345703 -90.932808
v -153.313431 -155.330322 25.236916
v -9.416560 -232.284897 -29.326271
v -153.313431 -155.330322 25.236916
v -114.702675 -156.345703 -90.932808
v -7.350419 -238.111557 6.585738
v -153.313431 -155.330322 25.236916
v -9.416560 -232.284897 -29.326271
v -29.239883 -228.194336 39.184940
v -153.313431 -155.330322 25.236916
v -7.350419 -238.111557 6.585738
v -139.001785 98.299530 -172.420029
v -46.518188 162.080109 -149.949356
v -7.350038 110.869675 -209.079361
v -7.350038 110.869675 -209.079361
v -46.518188 162.080109 -149.949356
v 68.017838 147.074768 -166.620087
v 147.874756 -129.146591 -45.809849
v 186.585861 70.745605 138.471207
v 110.617340 -221.221756 23.755070
v 179.550354 -23.866199 -110.674713
v 186.585861 70.745605 138.471207
v 147.874756 -129.146591 -45.809849
v 166.433411 -1.820096 -163.561813
v 178.588120 116.772202 -2.537254
v 179.550354 -23.866199 -110.674713
v 68.017838 147.074768 -166.620087
v 178.588120 116.772202 -2.537254
v 166.433411 -1.820096 -163.561813
v 179.550354 -23.866199 -110.674713
v 184.949265 109.540024 31.629755
v 186.585861 70.745605 138.471207
v 178.588120 116.772202 -2.537254
v 184.949265 109.540024 31.629755
v 179.550354 -23.866199 -110.674713
v -216.358353 -74.034142 -48.450352
v -194.489975 43.870121 123.642876
v -224.169754 95.950195 62.313046
v -224.169754 95.950195 62.313046
v -194.489975 43.870121 123.642876
v -202.905304 86.516685 104.736313
v -46.518188 162.080109 -149.949356
v 65.949303 252.089172 6.105904
v 68.017838 147.074768 -166.620087
v -224.169754 95.950195 62.313046
v -144.529327 151.059052 -57.871170
v -139.001785 98.299530 -172.420029
v -29.239883 -228.194336 39.184940
v -149.389877 -38.079426 180.035172
v -153.313431 -155.330322 25.236916
v -216.358353 -74.034142 -48.450352
v -153.313431 -155.330322 25.236916
v -149.389877 -38.079426 180.035172
v -216.358353 -74.034142 -48.450352
v -149.389877 -38.079426 180.035172
v -194.489975 43.870121 123.642876
v -139.001785 98.299530 -172.420029
v -70.726952 195.301376 -89.401917
v -46.518188 162.080109 -149.949356
v -46.518188 162.080109 -149.949356
v -70.726952 195.301376 -89.401917
v 65.949303 252.089172 6.105904
v 110.617340 -221.221756 23.755070
v 123.939484 -3.206961 211.477936
v 92.836792 -246.761658 35.817917
v 186.585861 70.745605 138.471207
v 123.939484 -3.206961 211.477936
v 110.617340 -221.221756 23.755070
v 186.585861 70.745605 138.471207
v 123.764977 -2.841998 211.600876
v 123.939484 -3.206961 211.477936
v -224.169754 95.950195 62.313046
v -111.355392 210.297424 -20.381308
v -144.529327 151.059052 -57.871170
v -144.529327 151.059052 -57.871170
v -111.355392 210.297424 -20.381308
v -139.001785 98.299530 -172.420029
v -139.001785 98.299530 -172.420029
v -111.355392 210.297424 -20.381308
v -70.726952 195.301376 -89.401917
v 184.949265 109.540024 31.629755
v 155.998825 136.544830 112.009644
v 186.585861 70.745605 138.471207
v 68.017838 147.074768 -166.620087
v 120.293854 200.200104 23.402290
v 178.588120 116.772202 -2.537254
v 65.949303 252.089172 6.105904
v 120.293854 200.200104 23.402290
v 68.017838 147.074768 -166.620087
v 178.588120 116.772202 -2.537254
v 120.293854 200.200104 23.402290
v 184.949265 109.540024 31.629755
v 184.949265 109.540024 31.629755
v 120.293854 200.200104 23.402290
v 155.998825 136.544830 112.009644
v -224.169754 95.950195 62.313046
v -202.905304 86.516685 104.736313
v -122.295303 184.222443 137.725266
v -224.169754 95.950195 62.313046
v -122.295303 184.222443 137.725266
v -121.722618 184.759399 137.923050
v -194.489975 43.870121 123.642876
v -142.106384 -14.207804 184.113480
v -202.905304 86.516685 104.736313
v -202.905304 86.516685 104.736313
v -142.106384 -14.207804 184.113480
v -122.295303 184.222443 137.725266
v -149.389877 -38.079426 180.035172
v -142.106384 -14.207804 184.113480
v -194.489975 43.870121 123.642876
v -70.726952 195.301376 -89.401917
v -57.864170 241.483200 25.090012
v 65.949303 252.089172 6.105904
v -111.355392 210.297424 -20.381308
v -57.864170 241.483200 25.090012
v -70.726952 195.301376 -89.401917
v -121.722618 184.759399 137.923050
v -57.864170 241.483200 25.090012
v -111.355392 210.297424 -20.381308
v 65.949303 252.089172 6.105904
v 117.143951 193.747482 60.682121
v 120.293854 200.200104 23.402290
v 120.293854 200.200104 23.402290
v 117.143951 193.747482 60.682121
v 155.998825 136.544830 112.009644
v -224.169754 95.950195 62.313046
v -128.499725 185.809509 84.527252
v -111.355392 210.297424 -20.381308
v -224.169754 95.950195 62.313046
v -121.722618 184.759399 137.923050
v -128.499725 185.809509 84.527252
v -121.722618 184.759399 137.923050
v -111.355392 210.297424 -20.381308
v -128.499725 185.809509 84.527252
v 155.998825 136.544830 112.009644
v 108.622169 141.326843 166.340576
v 186.585861 70.745605 138.471207
v 117.143951 193.747482 60.682121
v 108.622169 141.326843 166.340576
v 155.998825 136.544830 112.009644
v 186.585861 70.745605 138.471207
v 94.403412 126.628471 183.298828
v 123.764977 -2.841998 211.600876
v 108.622169 141.326843 166.340576
v 94.403412 126.628471 183.298828
v 186.585861 70.745605 138.471207
v -149.389877 -38.079426 180.035172
v -51.795223 -3.872195 232.075882
v -142.106384 -14.207804 184.113480
v 108.622169 141.326843 166.340576
v 15.351950 134.577545 218.056885
v 94.403412 126.628471 183.298828
v 94.403412 126.628471 183.298828
v 15.351950 134.577545 218.056885
v 123.764977 -2.841998 211.600876
v 92.836792 -246.761658 35.817917
v -18.808601 -45.820049 223.165619
v -29.239883 -228.194336 39.184940
v -29.239883 -228.194336 39.184940
v -18.808601 -45.820049 223.165619
v -149.389877 -38.079426 180.035172
v -149.389877 -38.079426 180.035172
v -18.808601 -45.820049 223.165619
v -51.795223 -3.872195 232.075882
v 123.939484 -3.206961 211.477936
v -18.808601 -45.820049 223.165619
v 92.836792 -246.761658 35.817917
v -57.864170 241.483200 25.090012
v -11.863451 230.473129 92.062248
v 65.949303 252.089172 6.105904
v -121.722618 184.759399 137.923050
v -63.669800 215.662857 96.716721
v -57.864170 241.483200 25.090012
v -57.864170 241.483200 25.090012
v -63.669800 215.662857 96.716721
v -11.863451 230.473129 92.062248
v -11.863451 230.473129 92.062248
v -63.638771 215.656204 96.757973
v -121.722618 184.759399 137.923050
v -121.722618 184.759399 137.923050
v -63.638771 215.656204 96.757973
v -63.669800 215.662857 96.716721
v -63.669800 215.662857 96.716721
v -63.638771 215.656204 96.757973
v -11.863451 230.473129 92.062248
v 15.351950 134.577545 218.056885
v 37.944996 -4.777626 227.565063
v 123.764977 -2.841998 211.600876
v -51.795223 -3.872195 232.075882
v 37.944996 -4.777626 227.565063
v 15.351950 134.577545 218.056885
v 123.764977 -2.841998 211.600876
v 37.944996 -4.777626 227.565063
v 123.939484 -3.206961 211.477936
v 123.939484 -3.206961 211.477936
v 37.944996 -4.777626 227.565063
v -18.808601 -45.820049 223.165619
v -18.808601 -45.820049 223.165619
v 37.944996 -4.777626 227.565063
v -51.795223 -3.872195 232.075882
v 15.351950 134.577545 218.056885
v 8.653175 159.570206 197.396805
v -121.722618 184.759399 137.923050
v -121.722618 184.759399 137.923050
v 8.653175 159.570206 197.396805
v -62.429878 188.963165 152.060974
v 108.622169 141.326843 166.340576
v 8.653175 159.570206 197.396805
v 15.351950 134.577545 218.056885
v 65.949303 252.089172 6.105904
v 56.061836 199.355682 124.665894
v 117.143951 193.747482 60.682121
v 117.143951 193.747482 60.682121
v 56.061836 199.355682 124.665894
v 108.622169 141.326843 166.340576
v -11.863451 230.473129 92.062248
v 56.061836 199.355682 124.665894
v 65.949303 252.089172 6.105904
v -122.295303 184.222443 137.725266
v -114.374008 53.413567 184.704193
v -121.722618 184.759399 137.923050
v -142.106384 -14.207804 184.113480
v -114.374008 53.413567 184.704193
v -122.295303 184.222443 137.725266
v -51.795223 -3.872195 232.075882
v -114.374008 53.413567 184.704193
v -142.106384 -14.207804 184.113480
v -11.863451 230.473129 92.062248
v 55.691185 199.388199 124.718864
v 56.061836 199.355682 124.665894
v 56.061836 199.355682 124.665894
v 55.691185 199.388199 124.718864
v 8.653175 159.570206 197.396805
v -11.863451 230.473129 92.062248
v 8.653175 159.570206 197.396805
v 54.598156 199.484055 124.852379
v -11.863451 230.473129 92.062248
v 54.598156 199.484055 124.852379
v 55.691185 199.388199 124.718864
v 55.691185 199.388199 124.718864
v 54.598156 199.484055 124.852379
v 8.653175 159.570206 197.396805
v 8.653175 159.570206 197.396805
v -32.652443 202.152695 138.562286
v -62.429878 188.963165 152.060974
v -11.863451 230.473129 92.062248
v -32.652443 202.152695 138.562286
v 8.653175 159.570206 197.396805
v -11.863451 230.473129 92.062248
v -121.722618 184.759399 137.923050
v -32.652443 202.152695 138.562286
v -121.722618 184.759399 137.923050
v -62.429878 188.963165 152.060974
v -32.652443 202.152695 138.562286
v 15.351950 134.577545 218.056885
v -121.722618 184.759399 137.923050
v -33.187778 111.861366 215.470718
v -114.374008 53.413567 184.704193
v -33.187778 111.861366 215.470718
v -121.722618 184.759399 137.923050
v -51.795223 -3.872195 232.075882
v -33.187778 111.861366 215.470718
v -114.374008 53.413567 184.704193
v 108.622169 141.326843 166.340576
v 40.257553 170.221863 169.013748
v 8.653175 159.570206 197.396805
v 56.061836 199.355682 124.665894
v 40.257553 170.221863 169.013748
v 108.622169 141.326843 166.340576
v 56.061836 199.355682 124.665894
v 8.653175 159.570206 197.396805
v 40.257553 170.221863 169.013748
v -51.795223 -3.872195 232.075882
v 15.351950 134.577545 218.056885
v -29.219093 68.612175 224.762100
v 15.351950 134.577545 218.056885
v -33.187778 111.861366 215.470718
v -29.219093 68.612175 224.762100
v -51.795223 -3.872195 232.075882
v -29.219093 68.612175 224.762100
v -33.187778 111.861366 215.470718
vn 0.468587 -0.215320 -0.856775
vn 0.295836 -0.467437 -0.833057
vn 0.095065 -0.529747 -0.842811
vn 0.607046 -0.738169 -0.294283
vn 0.811848 -0.044884 -0.582141
vn 0.044014 -0.697442 -0.715288
vn 0.671844 -0.704551 -0.228547
vn 0.174094 -0.925458 -0.336479
vn 0.207902 -0.915218 -0.345184
vn -0.113625 -0.569053 -0.814412
vn -0.066165 -0.637337 -0.767739
vn -0.346721 -0.320651 -0.881458
vn 0.362955 -0.789189 -0.495423
vn 0.347168 -0.795271 -0.497009
vn 0.436074 -0.794476 -0.422667
vn 0.304830 -0.857634 -0.414177
vn 0.483078 -0.806936 -0.339838
vn 0.285237 -0.886817 -0.363587
vn 0.301483 -0.862961 -0.405471
vn 0.782886 -0.607620 -0.133744
vn 0.782477 -0.608075 -0.134073
vn -0.316176 0.406192 -0.857345
vn -0.365308 -0.500000 -0.785207
vn -0.406015 -0.473967 -0.781349
vn -0.301428 -0.610025 -0.732810
vn 0.961708 -0.065965 -0.266018
vn -0.805147 0.148183 -0.574265
vn -0.795666 -0.172156 -0.580756
vn 0.164720 0.246674 -0.954997
vn 0.030072 0.202915 -0.978735
vn -0.279517 0.442601 -0.852042
vn 0.057203 -0.951810 -0.301306
vn -0.330858 -0.848601 -0.412806
vn -0.027813 -0.984166 -0.175052
vn -0.416342 -0.476542 -0.774317
vn -0.619130 -0.423232 -0.661477
vn -0.368114 -0.837683 -0.403459
vn -0.045903 -0.989708 -0.135543
vn -0.154880 -0.976551 -0.149533
vn -0.847328 0.436101 -0.303070
vn -0.973992 0.090576 -0.207693
vn 0.746174 0.483808 -0.457334
vn 0.290345 0.409737 -0.864763
vn 0.937330 -0.345574 0.044617
vn 0.964920 -0.256872 0.054279
vn -0.141956 -0.969534 0.199629
vn -0.667321 -0.712892 -0.215563
vn -0.512634 -0.842990 -0.163014
vn -0.500946 -0.858401 -0.110453
vn -0.499010 -0.863570 -0.072359
vn -0.262708 0.636435 -0.725214
vn 0.004152 0.757267 -0.653092
vn 0.948440 -0.293650 0.119292
vn 0.966112 -0.249182 0.067344
vn 0.972733 0.145517 -0.180596
vn 0.760553 0.494053 -0.421272
vn 0.999615 -0.017387 -0.021625
vn 0.979695 0.126380 -0.155647
vn -0.938176 -0.218211 0.268717
vn -0.891507 0.024617 0.452337
vn 0.036378 0.854097 -0.518840
vn -0.797154 0.532867 -0.283897
vn -0.470445 -0.697642 0.540348
vn -0.866758 -0.386739 0.314902
vn -0.906719 -0.285240 0.310642
vn -0.375683 0.740892 -0.556724
vn -0.021883 0.872778 -0.487627
vn 0.830766 -0.391478 0.395692
vn 0.856415 -0.365934 0.364206
vn 0.703303 0.099158 0.703940
vn -0.772625 0.586495 -0.243053
vn -0.729037 0.607654 -0.315056
vn -0.498100 0.738924 -0.453748
vn 0.870124 0.467367 0.156374
vn 0.706533 0.606868 -0.364035
vn 0.701168 0.612930 -0.364254
vn 0.815071 0.578622 -0.029271
vn 0.806465 0.583704 0.094361
vn -0.750013 0.457502 0.477673
vn -0.701377 0.701500 0.126364
vn -0.633120 0.205871 0.746175
vn -0.601070 0.238341 0.762829
vn -0.705342 0.095199 0.702446
vn -0.134013 0.924164 -0.357718
vn -0.241339 0.909088 -0.339579
vn -0.560935 0.822285 0.095918
vn 0.647905 0.739477 0.182737
vn 0.733972 0.656093 0.175576
vn -0.690390 0.721302 0.055543
vn -0.693537 0.713156 0.102050
vn -0.590427 0.801978 0.090710
vn 0.664501 0.523398 0.533379
vn 0.542177 0.734488 0.408132
vn 0.556826 0.295937 0.776123
vn 0.565935 0.326147 0.757196
vn -0.468303 -0.008061 0.883531
vn 0.388748 0.509564 0.767607
vn 0.409767 0.282526 0.867335
vn -0.087811 -0.704963 0.703787
vn -0.266733 -0.676867 0.686080
vn -0.306757 -0.422397 0.852925
vn 0.238785 -0.587917 0.772875
vn -0.053535 0.978803 0.197684
vn -0.267842 0.913092 0.307446
vn -0.235003 0.920318 0.312713
vn -0.226378 0.905105 0.359915
vn -0.247827 0.909731 0.333123
vn -0.233144 0.917136 0.323274
vn 0.179946 0.095970 0.978984
vn 0.050823 0.076183 0.995798
vn 0.182899 -0.234188 0.954832
vn 0.178638 -0.345763 0.921160
vn 0.047732 -0.171485 0.984030
vn -0.243430 0.578380 0.778600
vn -0.223297 0.620050 0.752114
vn 0.330879 0.652354 0.681875
vn 0.480250 0.785863 0.389590
vn 0.505114 0.756219 0.415924
vn 0.208630 0.887012 0.411927
vn -0.523695 0.259681 0.811363
vn -0.598035 0.238578 0.765137
vn -0.477370 0.188278 0.858295
vn 0.146836 0.850214 0.505544
vn 0.150514 0.822720 0.548158
vn 0.123825 0.834191 0.537394
vn 0.137378 0.843711 0.518921
vn 0.138986 0.827827 0.543494
vn -0.068366 0.784779 0.615994
vn 0.083276 0.834128 0.545249
vn -0.173870 0.873679 0.454373
vn -0.172744 0.867469 0.466536
vn -0.284155 0.515118 0.808647
vn -0.502610 0.264972 0.822905
vn -0.469237 0.198889 0.860383
vn 0.324028 0.708655 0.626749
vn 0.331837 0.729819 0.597703
vn 0.280275 0.753411 0.594826
vn 0.002038 0.099763 0.995009
vn -0.143098 0.195310 0.970246
vn -0.267522 0.178857 0.946806
f 1//1 2//1 3//1
f 4//2 5//2 6//2
f 7//3 8//3 9//3
f 10//4 11//4 12//4
f 13//5 14//5 15//5
f 16//6 17//6 18//6
f 19//7 20//7 21//7
f 22//8 23//8 24//8
f 25//9 26//9 27//9
f 28//10 29//10 30//10
f 31//11 32//11 33//11
f 34//12 35//12 36//12
f 37//13 38//13 39//13
f 40//14 41//14 42//14
f 43//15 44//15 45//15
f 46//16 47//16 48//16
f 49//17 50//17 51//17
f 52//18 53//18 54//18
f 55//19 56//19 57//19
f 58//20 59//20 60//20
f 61//21 62//21 63//21
f 64//22 65//22 66//22
f 67//23 68//23 69//23
f 70//24 71//24 72//24
f 73//25 74//25 75//25
f 76//26 77//26 78//26
f 79//27 80//27 81//27
f 82//28 83//28 84//28
f 85//29 86//29 87//29
f 88//30 89//30 90//30
f 91//31 92//31 93//31
f 94//32 95//32 96//32
f 97//33 98//33 99//33
f 100//34 101//34 102//34
f 103//35 104//35 105//35
f 106//36 107//36 108//36
f 109//37 110//37 111//37
f 112//38 113//38 114//38
f 115//39 116//39 117//39
f 118//40 119//40 120//40
f 121//41 122//41 123//41
f 124//42 125//42 126//42
f 127//43 128//43 129//43
f 130//44 131//44 132//44
f 133//45 134//45 135//45
f 136//46 137//46 138//46
f 139//47 140//47 141//47
f 142//48 143//48 144//48
f 145//49 146//49 147//49
f 148//50 149//50 150//50
f 151//51 152//51 153//51
f 154//52 155//52 156//52
f 157//53 158//53 159//53
f 160//54 161//54 162//54
f 163//55 164//55 165//55
f 166//56 167//56 168//56
f 169//57 170//57 171//57
f 172//58 173//58 174//58
f 175//59 176//59 177//59
f 178//60 179//60 180//60
f 181//61 182//61 183//61
f 184//62 185//62 186//62
f 187//63 188//63 189//63
f 190//64 191//64 192//64
f 193//65 194//65 195//65
f 196//66 197//66 198//66
f 199//67 200//67 201//67
f 202//68 203//68 204//68
f 205//69 206//69 207//69
f 208//70 209//70 210//70
f 211//71 212//71 213//71
f 214//72 215//72 216//72
f 217//73 218//73 219//73
f 220//74 221//74 222//74
f 223//75 224//75 225//75
f 226//76 227//76 228//76
f 229//77 230//77 231//77
f 232//78 233//78 234//78
f 235//79 236//79 237//79
f 238//80 239//80 240//80
f 241//81 242//81 243//81
f 244//82 245//82 246//82
f 247//83 248//83 249//83
f 250//84 251//84 252//84
f 253//85 254//85 255//85
f 256//86 257//86 258//86
f 259//87 260//87 261//87
f 262//88 263//88 264//88
f 265//89 266//89 267//89
f 268//90 269//90 270//90
f 271//91 272//91 273//91
f 274//92 275//92 276//92
f 277//93 278//93 279//93
f 280//94 281//94 282//94
f 283//95 284//95 285//95
f 286//96 287//96 288//96
f 289//97 290//97 291//97
f 292//98 293//98 294//98
f 295//99 296//99 297//99
f 298//100 299//100 300//100
f 301//101 302//101 303//101
f 304//102 305//102 306//102
f 307//103 308//103 309//103
f 310//104 311//104 312//104
f 313//105 314//105 315//105
f 316//106 317//106 318//106
f 319//107 320//107 321//107
f 322//108 323//108 324//108
f 325//109 326//109 327//109
f 328//110 329//110 330//110
f 331//111 332//111 333//111
f 334//112 335//112 336//112
f 337//113 338//113 339//113
f 340//114 341//114 342//114
f 343//115 344//115 345//115
f 346//116 347//116 348//116
f 349//117 350//117 351//117
f 352//118 353//118 354//118
f 355//119 356//119 357//119
f 358//120 359//120 360//120
f 361//121 362//121 363//121
f 364//122 365//122 366//122
f 367//123 368//123 369//123
f 370//124 371//124 372//124
f 373//125 374//125 375//125
f 376//126 377//126 378//126
f 379//127 380//127 381//127
f 382//128 383//128 384//128
f 385//129 386//129 387//129
f 388//130 389//130 390//130
f 391//131 392//131 393//131
f 394//132 395//132 396//132
f 397//133 398//133 399//133
f 400//134 401//134 402//134
f 403//135 404//135 405//135
f 406//136 407//136 408//136
f 409//137 410//137 411//137
f 412//138 413//138 414//138
f 415//139 416//139 417//139
f 418//140 419//140 420//140
