o
v 6.061652 -40.549969 0.488479
v -9.358974 -46.611561 7.290968
v -2.482030 -44.293602 -6.151646
v 6.061652 -40.549969 0.488479
v -2.482030 -44.293602 -6.151646
v -2.032438 3.143441 10.061975
v 6.061652 -40.549969 0.488479
v -2.032438 3.143441 10.061975
v 26.861580 -8.554281 32.070751
v 26.861580 -8.554281 32.070751
v -2.032438 3.143441 10.061975
v 26.328213 -8.292575 31.842258
v -2.032438 3.143441 10.061975
v -5.677371 4.327456 16.430634
v 26.328213 -8.292575 31.842258
v -9.358974 -46.611561 7.290968
v -27.991423 -29.763582 16.898718
v -2.482030 -44.293602 -6.151646
v -9.358974 -46.611561 7.290968
v -17.476141 -38.238110 22.745861
v -27.991423 -29.763582 16.898718
v -2.482030 -44.293602 -6.151646
v -17.205194 -13.330172 10.367464
v -2.032438 3.143441 10.061975
v -27.991423 -29.763582 16.898718
v -17.205194 -13.330172 10.367464
v -2.482030 -44.293602 -6.151646
v -2.032438 3.143441 10.061975
v -17.205194 -13.330172 10.367464
v -5.677371 4.327456 16.430634
v -9.358974 -46.611561 7.290968
v -16.592138 -38.005116 30.603455
v -17.476141 -38.238110 22.745861
v -17.476141 -38.238110 22.745861
v -16.592138 -38.005116 30.603455
v -27.991423 -29.763582 16.898718
v -9.358974 -46.611561 7.290968
v -12.460762 -38.007259 29.708191
v -16.592138 -38.005116 30.603455
v -16.592138 -38.005116 30.603455
v -18.184553 -36.536243 30.906389
v -27.991423 -29.763582 16.898718
v -16.592138 -38.005116 30.603455
v -17.492926 -36.305180 32.354431
v -18.184553 -36.536243 30.906389
v 26.861580 -8.554281 32.070751
v 26.328213 -8.292575 31.842258
v -8.442623 3.465242 45.385582
v -5.677371 4.327456 16.430634
v -8.442623 3.465242 45.385582
v 26.328213 -8.292575 31.842258
v 6.061652 -40.549969 0.488479
v 26.861580 -8.554281 32.070751
v 6.417995 -25.123711 37.444469
v -5.677371 4.327456 16.430634
v -11.350604 3.806269 38.485859
v -8.442623 3.465242 45.385582
v -12.460762 -38.007259 29.708191
v -3.437010 -32.760319 39.002472
v -16.592138 -38.005116 30.603455
v -16.592138 -38.005116 30.603455
v -3.437010 -32.760319 39.002472
v -17.492926 -36.305180 32.354431
v 6.061652 -40.549969 0.488479
v -3.437010 -32.760319 39.002472
v -9.358974 -46.611561 7.290968
v 6.061652 -40.549969 0.488479
v 6.417995 -25.123711 37.444469
v -3.437010 -32.760319 39.002472
v -9.358974 -46.611561 7.290968
v -3.437010 -32.760319 39.002472
v -12.460762 -38.007259 29.708191
v 26.861580 -8.554281 32.070751
v -8.442623 3.465242 45.385582
v 4.266455 -10.417608 46.310757
v 26.861580 -8.554281 32.070751
v 4.266455 -10.417608 46.310757
v 6.417995 -25.123711 37.444469
v 6.417995 -25.123711 37.444469
v -2.739026 -29.800320 41.063854
v -3.437010 -32.760319 39.002472
v 4.266455 -10.417608 46.310757
v -2.739026 -29.800320 41.063854
v 6.417995 -25.123711 37.444469
v -8.442623 3.465242 45.385582
v -6.385956 -3.159014 47.461193
v 4.266455 -10.417608 46.310757
v -18.184553 -36.536243 30.906389
v -31.173143 -17.332302 36.682312
v -27.991423 -29.763582 16.898718
v -17.492926 -36.305180 32.354431
v -31.173143 -17.332302 36.682312
v -18.184553 -36.536243 30.906389
v -27.991423 -29.763582 16.898718
v -31.173143 -17.332302 36.682312
v -17.205194 -13.330172 10.367464
v -11.350604 3.806269 38.485859
v -15.103862 -2.416177 46.143887
v -8.442623 3.465242 45.385582
v -8.442623 3.465242 45.385582
v -15.104237 -2.417141 46.144470
v -6.385956 -3.159014 47.461193
v -15.103862 -2.416177 46.143887
v -15.104237 -2.417141 46.144470
v -8.442623 3.465242 45.385582
v -31.173143 -17.332302 36.682312
v -15.104237 -2.417141 46.144470
v -15.103862 -2.416177 46.143887
v -17.205194 -13.330172 10.367464
v -20.404980 -1.740302 32.668053
v -5.677371 4.327456 16.430634
v -31.173143 -17.332302 36.682312
v -20.404980 -1.740302 32.668053
v -17.205194 -13.330172 10.367464
v -5.677371 4.327456 16.430634
v -20.404980 -1.740302 32.668053
v -11.350604 3.806269 38.485859
v -11.350604 3.806269 38.485859
v -20.404980 -1.740302 32.668053
v -15.103862 -2.416177 46.143887
v -31.173143 -17.332302 36.682312
v -15.103862 -2.416177 46.143887
v -20.404980 -1.740302 32.668053
v -15.104237 -2.417141 46.144470
v -15.277437 -13.166927 48.025181
v -6.385956 -3.159014 47.461193
v -31.173143 -17.332302 36.682312
v -18.700966 -11.924861 46.480885
v -15.104237 -2.417141 46.144470
v -15.104237 -2.417141 46.144470
v -18.700966 -11.924861 46.480885
v -15.277437 -13.166927 48.025181
v -6.385956 -3.159014 47.461193
v -13.425226 -12.985117 48.049053
v 4.266455 -10.417608 46.310757
v -15.277437 -13.166927 48.025181
v -13.425226 -12.985117 48.049053
v -6.385956 -3.159014 47.461193
v -13.425226 -12.985117 48.049053
v -10.961284 -13.994908 47.695766
v 4.266455 -10.417608 46.310757
v 4.266455 -10.417608 46.310757
v -9.426703 -19.821638 46.145214
v -2.739026 -29.800320 41.063854
v -2.739026 -29.800320 41.063854
v -9.426703 -19.821638 46.145214
v -9.435925 -20.727537 45.759903
v -10.961284 -13.994908 47.695766
v -9.426703 -19.821638 46.145214
v 4.266455 -10.417608 46.310757
v -15.277437 -13.166927 48.025181
v -9.426703 -19.821638 46.145214
v -13.425226 -12.985117 48.049053
v -13.425226 -12.985117 48.049053
v -9.426703 -19.821638 46.145214
v -10.961284 -13.994908 47.695766
v -31.173143 -17.332302 36.682312
v -22.007263 -16.787354 43.188286
v -18.700966 -11.924861 46.480885
v -18.700966 -11.924861 46.480885
v -22.007263 -16.787354 43.188286
v -15.277437 -13.166927 48.025181
v -3.437010 -32.760319 39.002472
v -14.258195 -23.759439 42.848995
v -17.492926 -36.305180 32.354431
v -2.739026 -29.800320 41.063854
v -12.438951 -22.804804 43.936756
v -3.437010 -32.760319 39.002472
v -2.739026 -29.800320 41.063854
v -9.435925 -20.727537 45.759903
v -12.438951 -22.804804 43.936756
v -3.437010 -32.760319 39.002472
v -12.438951 -22.804804 43.936756
v -14.258195 -23.759439 42.848995
v -9.426703 -19.821638 46.145214
v -15.937972 -19.088816 45.730377
v -9.435925 -20.727537 45.759903
v -15.277437 -13.166927 48.025181
v -15.937972 -19.088816 45.730377
v -9.426703 -19.821638 46.145214
v -17.492926 -36.305180 32.354431
v -15.937972 -19.088816 45.730377
v -31.173143 -17.332302 36.682312
v -31.173143 -17.332302 36.682312
v -15.937972 -19.088816 45.730377
v -22.007263 -16.787354 43.188286
v -14.258195 -23.759439 42.848995
v -15.937972 -19.088816 45.730377
v -17.492926 -36.305180 32.354431
v -22.007263 -16.787354 43.188286
v -15.937972 -19.088816 45.730377
v -15.277437 -13.166927 48.025181
v -12.438951 -22.804804 43.936756
v -15.937972 -19.088816 45.730377
v -14.258195 -23.759439 42.848995
v -9.435925 -20.727537 45.759903
v -15.937972 -19.088816 45.730377
v -12.438951 -22.804804 43.936756
vn 0.378664 -0.924901 0.034232
vn 0.512771 0.273311 -0.813859
vn 0.650596 0.275574 -0.707661
vn 0.503003 0.836986 -0.215503
vn 0.354494 0.934604 0.029130
vn -0.714587 -0.529717 -0.456908
vn -0.649126 -0.757501 0.069482
vn -0.349992 0.305935 -0.885387
vn -0.631420 0.109327 -0.767696
vn -0.649260 0.589069 -0.481102
vn -0.623441 -0.776301 0.093158
vn -0.656433 -0.748246 0.096038
vn 0.078988 -0.926971 0.366724
vn -0.663210 -0.740874 0.106108
vn -0.582422 -0.712217 0.391830
vn 0.374444 0.911537 0.169978
vn 0.340808 0.938185 0.060485
vn 0.647518 -0.705441 0.288223
vn 0.037959 0.998722 0.033365
vn 0.090817 -0.902384 0.421254
vn -0.123699 -0.743027 0.657731
vn 0.456472 -0.843472 0.283176
vn 0.613574 -0.730786 0.299130
vn 0.149234 -0.916055 0.372254
vn 0.446102 0.459564 0.767980
vn 0.514370 -0.386335 0.765616
vn 0.536234 -0.563864 0.628100
vn 0.503992 -0.390678 0.770301
vn 0.349685 0.377268 0.857548
vn -0.765690 -0.592888 0.249406
vn -0.686765 -0.591542 0.422412
vn -0.834744 0.395713 -0.382901
vn -0.613391 0.732722 0.294738
vn -0.122287 0.261986 0.957293
vn -0.437903 0.584082 0.683439
vn -0.738396 0.535382 0.410045
vn -0.694088 0.593192 -0.407879
vn -0.808783 0.466294 -0.358386
vn -0.471872 0.875900 -0.100680
vn -0.626620 0.726157 0.282920
vn -0.738890 0.592781 0.320395
vn -0.132688 0.172886 0.975963
vn -0.664934 0.276097 0.693998
vn -0.354552 0.166680 0.920060
vn 0.099463 -0.011728 0.994972
vn -0.020121 0.074064 0.997050
vn 0.109040 -0.080567 0.990767
vn 0.212939 -0.326272 0.920980
vn 0.112683 -0.389881 0.913945
vn 0.139530 -0.220164 0.965432
vn 0.013187 -0.261084 0.965226
vn 0.037249 -0.247809 0.968093
vn -0.564478 -0.163983 0.808996
vn -0.472234 -0.251060 0.844964
vn -0.217329 -0.592709 0.775541
vn -0.145763 -0.542006 0.827637
vn -0.137598 -0.533513 0.834524
vn -0.184249 -0.565161 0.804143
vn -0.102067 -0.388478 0.915788
vn -0.098737 -0.349971 0.931543
vn -0.481936 -0.510017 0.712475
vn -0.487703 -0.482563 0.727516
vn -0.274267 -0.574429 0.771239
vn -0.458517 -0.276181 0.844681
vn -0.185693 -0.563421 0.805031
vn -0.138119 -0.532982 0.834777
f 1//1 2//1 3//1
f 4//2 5//2 6//2
f 7//3 8//3 9//3
f 10//4 11//4 12//4
f 13//5 14//5 15//5
f 16//6 17//6 18//6
f 19//7 20//7 21//7
f 22//8 23//8 24//8
f 25//9 26//9 27//9
f 28//10 29//10 30//10
f 31//11 32//11 33//11
f 34//12 35//12 36//12
f 37//13 38//13 39//13
f 40//14 41//14 42//14
f 43//15 44//15 45//15
f 46//16 47//16 48//16
f 49//17 50//17 51//17
f 52//18 53//18 54//18
f 55//19 56//19 57//19
f 58//20 59//20 60//20
f 61//21 62//21 63//21
f 64//22 65//22 66//22
f 67//23 68//23 69//23
f 70//24 71//24 72//24
f 73//25 74//25 75//25
f 76//26 77//26 78//26
f 79//27 80//27 81//27
f 82//28 83//28 84//28
f 85//29 86//29 87//29
f 88//30 89//30 90//30
f 91//31 92//31 93//31
f 94//32 95//32 96//32
f 97//33 98//33 99//33
f 100//34 101//34 102//34
f 103//35 104//35 105//35
f 106//36 107//36 108//36
f 109//37 110//37 111//37
f 112//38 113//38 114//38
f 115//39 116//39 117//39
f 118//40 119//40 120//40
f 121//41 122//41 123//41
f 124//42 125//42 126//42
f 127//43 128//43 129//43
f 130//44 131//44 132//44
f 133//45 134//45 135//45
f 136//46 137//46 138//46
f 139//47 140//47 141//47
f 142//48 143//48 144//48
f 145//49 146//49 147//49
f 148//50 149//50 150//50
f 151//51 152//51 153//51
f 154//52 155//52 156//52
f 157//53 158//53 159//53
f 160//54 161//54 162//54
f 163//55 164//55 165//55
f 166//56 167//56 168//56
f 169//57 170//57 171//57
f 172//58 173//58 174//58
f 175//59 176//59 177//59
f 178//60 179//60 180//60
f 181//61 182//61 183//61
f 184//62 185//62 186//62
f 187//63 188//63 189//63
f 190//64 191//64 192//64
f 193//65 194//65 195//65
f 196//66 197//66 198//66
