o
v 10.349728 -10.695976 -48.267410
v 10.492576 -27.551174 -21.211380
v 9.091585 -11.854565 -46.806355
v 10.492576 -27.551174 -21.211380
v 10.177530 -27.511921 -21.334980
v 9.091585 -11.854565 -46.806355
v 10.349728 -10.695976 -48.267410
v 20.305714 -17.633764 -20.695686
v 10.492576 -27.551174 -21.211380
v 10.177530 -27.511921 -21.334980
v -41.899971 18.523571 16.237545
v 9.091585 -11.854565 -46.806355
v 10.492576 -27.551174 -21.211380
v -0.026880 -18.353777 -2.672834
v 10.177530 -27.511921 -21.334980
v 10.177530 -27.511921 -21.334980
v -0.026880 -18.353777 -2.672834
v -41.899971 18.523571 16.237545
v 10.349728 -10.695976 -48.267410
v 9.091585 -11.854565 -46.806355
v -22.161243 30.203424 -8.287290
v -41.899971 18.523571 16.237545
v -22.161243 30.203424 -8.287290
v 9.091585 -11.854565 -46.806355
v 10.349728 -10.695976 -48.267410
v -10.346358 35.136520 -15.535202
v 13.603567 29.414955 -33.324017
v 10.349728 -10.695976 -48.267410
v -22.161243 30.203424 -8.287290
v -10.346358 35.136520 -15.535202
v -22.161243 30.203424 -8.287290
v -9.597012 37.005074 -14.458728
v -10.346358 35.136520 -15.535202
v -10.346358 35.136520 -15.535202
v -9.597012 37.005074 -14.458728
v 13.603567 29.414955 -33.324017
v 10.349728 -10.695976 -48.267410
v 35.717625 23.354441 -0.507451
v 20.305714 -17.633764 -20.695686
v 10.349728 -10.695976 -48.267410
v 13.603567 29.414955 -33.324017
v 35.717625 23.354441 -0.507451
v -41.899971 18.523571 16.237545
v -2.500209 44.968998 -3.437530
v -22.161243 30.203424 -8.287290
v -22.161243 30.203424 -8.287290
v -2.500209 44.968998 -3.437530
v -9.597012 37.005074 -14.458728
v -9.597012 37.005074 -14.458728
v -2.500209 44.968998 -3.437530
v 13.603567 29.414955 -33.324017
v -41.899971 18.523571 16.237545
v 6.083822 48.563923 2.300256
v -2.500209 44.968998 -3.437530
v -2.500209 44.968998 -3.437530
v 6.083822 48.563923 2.300256
v 13.603567 29.414955 -33.324017
v 10.492576 -27.551174 -21.211380
v 3.908819 -2.844848 34.210751
v -0.026880 -18.353777 -2.672834
v 13.603567 29.414955 -33.324017
v 24.058769 40.040020 4.680458
v 35.717625 23.354441 -0.507451
v 6.083822 48.563923 2.300256
v 24.058769 40.040020 4.680458
v 13.603567 29.414955 -33.324017
v -0.026880 -18.353777 -2.672834
v -1.548894 -0.135040 34.143288
v -41.899971 18.523571 16.237545
v 3.908819 -2.844848 34.210751
v -1.548894 -0.135040 34.143288
v -0.026880 -18.353777 -2.672834
v 5.742621 3.371040 41.895515
v -1.548894 -0.135040 34.143288
v 3.908819 -2.844848 34.210751
v 20.305714 -17.633764 -20.695686
v 24.411894 1.132163 18.495991
v 10.492576 -27.551174 -21.211380
v 10.492576 -27.551174 -21.211380
v 24.411894 1.132163 18.495991
v 3.908819 -2.844848 34.210751
v 35.717625 23.354441 -0.507451
v 24.411894 1.132163 18.495991
v 20.305714 -17.633764 -20.695686
v 5.742621 3.371040 41.895515
v 3.908819 -2.844848 34.210751
v 24.411894 1.132163 18.495991
v -1.548894 -0.135040 34.143288
v -5.502942 3.230360 34.108116
v -41.899971 18.523571 16.237545
v 5.742621 3.371040 41.895515
v -5.502942 3.230360 34.108116
v -1.548894 -0.135040 34.143288
v -41.899971 18.523571 16.237545
v -5.502942 3.230360 34.108116
v -6.637556 22.372274 43.094143
v -6.637556 22.372274 43.094143
v -5.502942 3.230360 34.108116
v 5.742621 3.371040 41.895515
v -6.637556 22.372274 43.094143
v 5.742621 3.371040 41.895515
v 3.070390 26.915510 43.611378
v 5.742621 3.371040 41.895515
v 3.202525 26.838070 43.570602
v 3.070390 26.915510 43.611378
v 3.202525 26.838070 43.570602
v 3.925959 26.508368 43.277512
v 3.070390 26.915510 43.611378
v 5.742621 3.371040 41.895515
v 3.925959 26.508368 43.277512
v 3.202525 26.838070 43.570602
v -41.899971 18.523571 16.237545
v -6.637556 22.372274 43.094143
v -4.753990 30.134670 36.781235
v -6.637556 22.372274 43.094143
v 3.070390 26.915510 43.611378
v -4.753990 30.134670 36.781235
v 3.070390 26.915510 43.611378
v -0.739183 38.065601 28.524372
v -4.753990 30.134670 36.781235
v -41.899971 18.523571 16.237545
v -0.739183 38.065601 28.524372
v 6.083822 48.563923 2.300256
v -41.899971 18.523571 16.237545
v -4.753990 30.134670 36.781235
v -0.739183 38.065601 28.524372
v 3.070390 26.915510 43.611378
v 0.259398 37.702209 28.786144
v -0.739183 38.065601 28.524372
v -0.739183 38.065601 28.524372
v 1.660890 37.822918 27.950785
v 6.083822 48.563923 2.300256
v 0.259398 37.702209 28.786144
v 1.660890 37.822918 27.950785
v -0.739183 38.065601 28.524372
v 5.742621 3.371040 41.895515
v 24.411894 1.132163 18.495991
v 11.917453 19.500250 38.881039
v 5.742621 3.371040 41.895515
v 11.917453 19.500250 38.881039
v 3.925959 26.508368 43.277512
v 3.925959 26.508368 43.277512
v 7.524296 30.846783 36.033707
v 3.070390 26.915510 43.611378
v 3.070390 26.915510 43.611378
v 7.524296 30.846783 36.033707
v 0.259398 37.702209 28.786144
v 0.259398 37.702209 28.786144
v 7.524296 30.846783 36.033707
v 1.660890 37.822918 27.950785
v 6.083822 48.563923 2.300256
v 17.535746 37.439247 16.961157
v 24.058769 40.040020 4.680458
v 1.660890 37.822918 27.950785
v 15.945063 38.036327 17.109619
v 6.083822 48.563923 2.300256
v 6.083822 48.563923 2.300256
v 15.945063 38.036327 17.109619
v 17.535746 37.439247 16.961157
v 7.524296 30.846783 36.033707
v 15.945063 38.036327 17.109619
v 1.660890 37.822918 27.950785
v 17.535746 37.439247 16.961157
v 15.945063 38.036327 17.109619
v 7.524296 30.846783 36.033707
v 35.717625 23.354441 -0.507451
v 25.467562 13.985535 17.111126
v 24.411894 1.132163 18.495991
v 24.411894 1.132163 18.495991
v 25.467562 13.985535 17.111126
v 11.917453 19.500250 38.881039
v 35.717625 23.354441 -0.507451
v 11.917453 19.500250 38.881039
v 25.467562 13.985535 17.111126
v 11.917453 19.500250 38.881039
v 19.558836 33.835201 20.278139
v 3.925959 26.508368 43.277512
v 3.925959 26.508368 43.277512
v 19.558836 33.835201 20.278139
v 7.524296 30.846783 36.033707
v 24.058769 40.040020 4.680458
v 19.558836 33.835201 20.278139
v 35.717625 23.354441 -0.507451
v 17.535746 37.439247 16.961157
v 19.558836 33.835201 20.278139
v 24.058769 40.040020 4.680458
v 35.717625 23.354441 -0.507451
v 19.558836 33.835201 20.278139
v 11.917453 19.500250 38.881039
v 17.535746 37.439247 16.961157
v 7.524296 30.846783 36.033707
v 19.558836 33.835201 20.278139
vn 0.164210 -0.836859 -0.522208
vn 0.100260 -0.845712 -0.524137
vn 0.662160 -0.634463 -0.398750
vn -0.747046 -0.580068 -0.324721
vn -0.239433 -0.916986 0.319075
vn -0.658559 -0.752473 0.009166
vn -0.765479 0.020208 -0.643144
vn -0.778267 -0.003233 -0.627925
vn -0.508351 0.336546 -0.792664
vn -0.584240 0.280159 -0.761692
vn -0.589548 0.567538 -0.574747
vn -0.396362 0.572459 -0.717766
vn 0.914595 -0.161248 -0.370829
vn 0.833140 0.132462 -0.536964
vn -0.584578 0.806735 -0.086291
vn -0.547920 0.804678 -0.228643
vn -0.144231 0.843824 -0.516874
vn -0.482293 0.856237 0.185073
vn -0.045666 0.875844 -0.480428
vn -0.102442 -0.913020 0.394841
vn 0.706533 0.606868 -0.364035
vn 0.438707 0.826878 -0.351864
vn -0.518742 -0.774574 0.361858
vn -0.413346 -0.822791 0.390076
vn -0.348643 -0.686297 0.638313
vn 0.680157 -0.686390 0.257399
vn 0.463958 -0.787300 0.406081
vn 0.916728 -0.389173 0.090298
vn 0.500631 -0.727577 0.469042
vn -0.539343 -0.627815 0.561211
vn -0.471879 -0.547191 0.691312
vn -0.532093 -0.385436 0.753867
vn -0.521492 -0.387723 0.760077
vn -0.018153 -0.074722 0.997039
vn 0.273720 -0.038970 0.961020
vn 0.512495 0.511169 0.689967
vn 0.364781 -0.026950 0.930703
vn -0.520715 0.611152 0.596112
vn -0.337100 0.641904 0.688711
vn -0.226386 0.755131 0.615245
vn -0.471121 0.854337 0.219441
vn -0.489139 0.735572 0.468697
vn 0.148127 0.812844 0.563332
vn 0.187609 0.894073 0.406737
vn 0.196624 0.868328 0.455351
vn 0.761426 -0.174835 0.624231
vn 0.471381 -0.015658 0.881791
vn 0.521539 0.592517 0.613939
vn 0.217139 0.808449 0.547048
vn 0.243583 0.814615 0.526374
vn 0.357258 0.857047 0.371265
vn 0.299841 0.860435 0.412004
vn 0.356434 0.857095 0.371945
vn 0.338413 0.819762 0.462025
vn 0.348882 0.813965 0.464481
vn 0.868337 -0.017915 0.495651
vn 0.847498 -0.012432 0.530652
vn 0.853133 0.044171 0.519821
vn 0.688488 0.409651 0.598473
vn 0.672098 0.438629 0.596564
vn 0.803766 0.435641 0.405187
vn 0.546075 0.712322 0.440907
vn 0.821267 0.236200 0.519356
vn 0.473630 0.725465 0.499374
f 1//1 2//1 3//1
f 4//2 5//2 6//2
f 7//3 8//3 9//3
f 10//4 11//4 12//4
f 13//5 14//5 15//5
f 16//6 17//6 18//6
f 19//7 20//7 21//7
f 22//8 23//8 24//8
f 25//9 26//9 27//9
f 28//10 29//10 30//10
f 31//11 32//11 33//11
f 34//12 35//12 36//12
f 37//13 38//13 39//13
f 40//14 41//14 42//14
f 43//15 44//15 45//15
f 46//16 47//16 48//16
f 49//17 50//17 51//17
f 52//18 53//18 54//18
f 55//19 56//19 57//19
f 58//20 59//20 60//20
f 61//21 62//21 63//21
f 64//22 65//22 66//22
f 67//23 68//23 69//23
f 70//24 71//24 72//24
f 73//25 74//25 75//25
f 76//26 77//26 78//26
f 79//27 80//27 81//27
f 82//28 83//28 84//28
f 85//29 86//29 87//29
f 88//30 89//30 90//30
f 91//31 92//31 93//31
f 94//32 95//32 96//32
f 97//33 98//33 99//33
f 100//34 101//34 102//34
f 103//35 104//35 105//35
f 106//36 107//36 108//36
f 109//37 110//37 111//37
f 112//38 113//38 114//38
f 115//39 116//39 117//39
f 118//40 119//40 120//40
f 121//41 122//41 123//41
f 124//42 125//42 126//42
f 127//43 128//43 129//43
f 130//44 131//44 132//44
f 133//45 134//45 135//45
f 136//46 137//46 138//46
f 139//47 140//47 141//47
f 142//48 143//48 144//48
f 145//49 146//49 147//49
f 148//50 149//50 150//50
f 151//51 152//51 153//51
f 154//52 155//52 156//52
f 157//53 158//53 159//53
f 160//54 161//54 162//54
f 163//55 164//55 165//55
f 166//56 167//56 168//56
f 169//57 170//57 171//57
f 172//58 173//58 174//58
f 175//59 176//59 177//59
f 178//60 179//60 180//60
f 181//61 182//61 183//61
f 184//62 185//62 186//62
f 187//63 188//63 189//63
f 190//64 191//64 192//64
