o
v 5.297523 5.872039 13.288610
v 10.565172 22.617657 3.016106
v 5.293288 5.871912 13.282441
v 5.293288 5.871912 13.282441
v 10.565172 22.617657 3.016106
v 16.231287 1.368329 -35.048805
v 5.293288 5.871912 13.282441
v 16.231287 1.368329 -35.048805
v 15.701753 -14.928379 -23.329964
v 5.293288 5.871912 13.282441
v 15.701753 -14.928379 -23.329964
v 16.734819 -33.019985 -12.515764
v 16.231287 1.368329 -35.048805
v 16.749418 -33.058605 -12.556269
v 15.701753 -14.928379 -23.329964
v 16.734819 -33.019985 -12.515764
v 15.701753 -14.928379 -23.329964
v 16.749418 -33.058605 -12.556269
v 16.734819 -33.019985 -12.515764
v 16.749418 -33.058605 -12.556269
v 22.208927 -43.462250 12.072145
v 5.297523 5.872039 13.288610
v 5.293288 5.871912 13.282441
v 22.208927 -43.462250 12.072145
v 5.293288 5.871912 13.282441
v 16.734819 -33.019985 -12.515764
v 22.208927 -43.462250 12.072145
v 10.565172 22.617657 3.016106
v 30.305765 34.847420 -14.363464
v 16.231287 1.368329 -35.048805
v 16.231287 1.368329 -35.048805
v 27.916826 -30.532064 -20.390455
v 16.749418 -33.058605 -12.556269
v 16.749418 -33.058605 -12.556269
v 27.916826 -30.532064 -20.390455
v 22.208927 -43.462250 12.072145
v 27.916826 -30.532064 -20.390455
v 27.917900 -30.532724 -20.388943
v 22.208927 -43.462250 12.072145
v 5.297523 5.872039 13.288610
v 22.208927 -43.462250 12.072145
v 29.065556 -2.355846 41.915646
v 5.297523 5.872039 13.288610
v 29.065556 -2.355846 41.915646
v 10.565172 22.617657 3.016106
v 22.208927 -43.462250 12.072145
v 29.335760 -2.485018 41.906330
v 29.065556 -2.355846 41.915646
v 22.208927 -43.462250 12.072145
v 30.536728 -39.040257 11.553720
v 29.335760 -2.485018 41.906330
v 27.917900 -30.532724 -20.388943
v 30.540670 -39.040092 11.551444
v 22.208927 -43.462250 12.072145
v 22.208927 -43.462250 12.072145
v 30.540670 -39.040092 11.551444
v 30.536728 -39.040257 11.553720
v 30.536728 -39.040257 11.553720
v 30.540670 -39.040092 11.551444
v 29.335760 -2.485018 41.906330
v 16.231287 1.368329 -35.048805
v 40.127201 -20.493456 -22.992817
v 27.916826 -30.532064 -20.390455
v 27.916826 -30.532064 -20.390455
v 40.127201 -20.493456 -22.992817
v 27.917900 -30.532724 -20.388943
v 40.127201 -20.493456 -22.992817
v 40.682262 -20.534691 -22.374086
v 27.917900 -30.532724 -20.388943
v 16.231287 1.368329 -35.048805
v 39.730083 -17.407940 -23.942259
v 40.127201 -20.493456 -22.992817
v 30.305765 34.847420 -14.363464
v 41.180065 -15.949040 -23.256844
v 16.231287 1.368329 -35.048805
v 16.231287 1.368329 -35.048805
v 41.180065 -15.949040 -23.256844
v 39.730083 -17.407940 -23.942259
v 40.127201 -20.493456 -22.992817
v 41.180065 -15.949040 -23.256844
v 40.682262 -20.534691 -22.374086
v 39.730083 -17.407940 -23.942259
v 41.180065 -15.949040 -23.256844
v 40.127201 -20.493456 -22.992817
v 41.180065 -15.949040 -23.256844
v 47.046303 -14.358365 -13.097902
v 40.682262 -20.534691 -22.374086
v 40.682262 -20.534691 -22.374086
v 47.046303 -14.358365 -13.097902
v 46.342670 -16.004955 -13.645447
v 30.305765 34.847420 -14.363464
v 47.046303 -14.358365 -13.097902
v 41.180065 -15.949040 -23.256844
v 40.682262 -20.534691 -22.374086
v 46.342670 -16.004955 -13.645447
v 45.847752 -21.101168 -9.771010
v 29.335760 -2.485018 41.906330
v 39.396519 7.123525 31.574865
v 29.065556 -2.355846 41.915646
v 27.917900 -30.532724 -20.388943
v 44.326405 -23.732252 -7.615469
v 30.540670 -39.040092 11.551444
v 40.682262 -20.534691 -22.374086
v 44.326405 -23.732252 -7.615469
v 27.917900 -30.532724 -20.388943
v 40.682262 -20.534691 -22.374086
v 45.847752 -21.101168 -9.771010
v 44.326405 -23.732252 -7.615469
v 47.046303 -14.358365 -13.097902
v 48.215958 -17.362192 -6.658466
v 46.342670 -16.004955 -13.645447
v 46.342670 -16.004955 -13.645447
v 48.215958 -17.362192 -6.658466
v 45.847752 -21.101168 -9.771010
v 44.326405 -23.732252 -7.615469
v 48.215958 -17.362192 -6.658466
v 30.540670 -39.040092 11.551444
v 45.847752 -21.101168 -9.771010
v 48.215958 -17.362192 -6.658466
v 44.326405 -23.732252 -7.615469
v 29.065556 -2.355846 41.915646
v 37.451328 9.022909 30.276541
v 10.565172 22.617657 3.016106
v 39.396519 7.123525 31.574865
v 37.451328 9.022909 30.276541
v 29.065556 -2.355846 41.915646
v 10.565172 22.617657 3.016106
v 37.451328 9.022909 30.276541
v 30.305765 34.847420 -14.363464
v 41.842453 9.239484 28.962757
v 37.451328 9.022909 30.276541
v 39.396519 7.123525 31.574865
v 48.209976 9.520815 20.963346
v 44.305954 13.462814 23.000740
v 41.842453 9.239484 28.962757
v 37.451328 9.022909 30.276541
v 44.305954 13.462814 23.000740
v 30.305765 34.847420 -14.363464
v 41.842453 9.239484 28.962757
v 44.305954 13.462814 23.000740
v 37.451328 9.022909 30.276541
v 47.046303 -14.358365 -13.097902
v 49.350090 -12.283438 -6.164730
v 48.215958 -17.362192 -6.658466
v 29.335760 -2.485018 41.906330
v 43.118439 3.479083 28.869411
v 39.396519 7.123525 31.574865
v 41.842453 9.239484 28.962757
v 39.396519 7.123525 31.574865
v 43.118439 3.479083 28.869411
v 48.209976 9.520815 20.963346
v 41.842453 9.239484 28.962757
v 43.118439 3.479083 28.869411
v 48.209976 9.520815 20.963346
v 43.118439 3.479083 28.869411
v 45.461861 5.182404 25.195910
v 48.209976 9.520815 20.963346
v 46.322338 14.852282 7.072646
v 44.305954 13.462814 23.000740
v 44.305954 13.462814 23.000740
v 46.322338 14.852282 7.072646
v 30.305765 34.847420 -14.363464
v 30.305765 34.847420 -14.363464
v 46.322338 14.852282 7.072646
v 47.046303 -14.358365 -13.097902
v 47.046303 -14.358365 -13.097902
v 46.322338 14.852282 7.072646
v 49.350090 -12.283438 -6.164730
v 49.350090 -12.283438 -6.164730
v 46.322338 14.852282 7.072646
v 48.209976 9.520815 20.963346
v 49.350090 -12.283438 -6.164730
v 47.456154 2.340040 21.660685
v 48.215958 -17.362192 -6.658466
v 49.350090 -12.283438 -6.164730
v 48.209976 9.520815 20.963346
v 47.456154 2.340040 21.660685
v 43.118439 3.479083 28.869411
v 47.456154 2.340040 21.660685
v 45.461861 5.182404 25.195910
v 48.209976 9.520815 20.963346
v 45.461861 5.182404 25.195910
v 47.456154 2.340040 21.660685
v 30.540670 -39.040092 11.551444
v 38.245636 -12.554147 26.438334
v 29.335760 -2.485018 41.906330
v 30.540670 -39.040092 11.551444
v 39.996830 -11.423515 25.828085
v 38.245636 -12.554147 26.438334
v 29.335760 -2.485018 41.906330
v 39.996830 -11.423515 25.828085
v 43.118439 3.479083 28.869411
v 38.245636 -12.554147 26.438334
v 39.996830 -11.423515 25.828085
v 29.335760 -2.485018 41.906330
v 43.118439 3.479083 28.869411
v 39.996830 -11.423515 25.828085
v 47.456154 2.340040 21.660685
v 48.215958 -17.362192 -6.658466
v 44.366070 -9.755148 15.965817
v 30.540670 -39.040092 11.551444
v 30.540670 -39.040092 11.551444
v 44.366070 -9.755148 15.965817
v 39.996830 -11.423515 25.828085
v 47.456154 2.340040 21.660685
v 44.366070 -9.755148 15.965817
v 48.215958 -17.362192 -6.658466
v 39.996830 -11.423515 25.828085
v 44.366070 -9.755148 15.965817
v 47.456154 2.340040 21.660685
vn -0.710926 0.516458 0.477341
vn -0.959489 0.159811 -0.232037
vn -0.970783 -0.118501 -0.208659
vn -0.969427 -0.164299 -0.182255
vn -0.753677 -0.367394 -0.544970
vn -0.967585 -0.167975 -0.188582
vn -0.920250 -0.389329 0.039534
vn -0.787875 -0.283557 0.546671
vn -0.942951 -0.325081 0.071874
vn -0.715287 0.559452 -0.418781
vn -0.418066 -0.501263 -0.757599
vn -0.056061 -0.924128 -0.377947
vn -0.039727 -0.925863 -0.375766
vn -0.776608 -0.280129 0.564277
vn -0.554711 0.554849 0.620030
vn -0.233056 -0.545568 0.805010
vn 0.358078 -0.589466 0.724093
vn 0.439131 -0.858534 -0.264731
vn 0.393358 -0.666561 0.633218
vn 0.428925 -0.568685 0.701869
vn 0.116160 -0.379260 -0.917970
vn 0.428348 -0.676356 -0.599217
vn 0.490035 -0.722467 -0.487757
vn 0.236779 -0.257771 -0.936744
vn 0.553046 0.257140 -0.792476
vn 0.427338 0.000032 -0.904092
vn 0.721616 -0.205593 -0.661061
vn 0.560408 -0.176846 -0.809116
vn 0.863391 -0.184151 -0.469727
vn 0.866648 -0.221717 -0.446949
vn 0.816597 0.264625 -0.512975
vn 0.856544 -0.362468 -0.367355
vn 0.287793 0.545234 0.787334
vn 0.534542 -0.804724 -0.258233
vn 0.557422 -0.772200 -0.304939
vn 0.689202 -0.654015 -0.311872
vn 0.909211 -0.288813 -0.299872
vn 0.898736 -0.317339 -0.302605
vn 0.829172 -0.532050 0.171452
vn 0.855031 -0.517791 -0.028556
vn -0.216491 0.771500 0.598264
vn 0.143098 0.654197 0.742663
vn -0.082765 0.856823 0.508925
vn 0.180883 0.674507 0.715766
vn 0.709027 0.403169 0.578564
vn -0.024856 0.863595 0.503573
vn 0.144424 0.778328 0.611022
vn 0.947684 -0.186437 -0.259105
vn 0.655673 0.115728 0.746123
vn 0.666005 0.135640 0.733512
vn 0.769502 0.160435 0.618165
vn 0.846522 -0.017122 0.532079
vn 0.740270 0.655164 0.150865
vn 0.687638 0.710592 0.149038
vn 0.876345 0.288219 -0.385940
vn 0.881805 0.282582 -0.377580
vn 0.986004 0.147721 -0.077293
vn 0.954811 -0.231356 0.186577
vn 0.988933 -0.092556 0.115954
vn 0.852299 -0.049621 0.520696
vn 0.856223 -0.039866 0.515066
vn 0.542604 -0.525966 0.654936
vn 0.561362 -0.523543 0.640917
vn 0.720863 -0.280352 0.633844
vn 0.557828 -0.511021 0.653977
vn 0.803687 -0.275938 0.527204
vn 0.846682 -0.443936 0.293343
vn 0.844690 -0.443868 0.299132
vn 0.893878 -0.356410 0.271945
vn 0.869766 -0.373857 0.322084
f 1//1 2//1 3//1
f 4//2 5//2 6//2
f 7//3 8//3 9//3
f 10//4 11//4 12//4
f 13//5 14//5 15//5
f 16//6 17//6 18//6
f 19//7 20//7 21//7
f 22//8 23//8 24//8
f 25//9 26//9 27//9
f 28//10 29//10 30//10
f 31//11 32//11 33//11
f 34//12 35//12 36//12
f 37//13 38//13 39//13
f 40//14 41//14 42//14
f 43//15 44//15 45//15
f 46//16 47//16 48//16
f 49//17 50//17 51//17
f 52//18 53//18 54//18
f 55//19 56//19 57//19
f 58//20 59//20 60//20
f 61//21 62//21 63//21
f 64//22 65//22 66//22
f 67//23 68//23 69//23
f 70//24 71//24 72//24
f 73//25 74//25 75//25
f 76//26 77//26 78//26
f 79//27 80//27 81//27
f 82//28 83//28 84//28
f 85//29 86//29 87//29
f 88//30 89//30 90//30
f 91//31 92//31 93//31
f 94//32 95//32 96//32
f 97//33 98//33 99//33
f 100//34 101//34 102//34
f 103//35 104//35 105//35
f 106//36 107//36 108//36
f 109//37 110//37 111//37
f 112//38 113//38 114//38
f 115//39 116//39 117//39
f 118//40 119//40 120//40
f 121//41 122//41 123//41
f 124//42 125//42 126//42
f 127//43 128//43 129//43
f 130//44 131//44 132//44
f 133//45 134//45 135//45
f 136//46 137//46 138//46
f 139//47 140//47 141//47
f 142//48 143//48 144//48
f 145//49 146//49 147//49
f 148//50 149//50 150//50
f 151//51 152//51 153//51
f 154//52 155//52 156//52
f 157//53 158//53 159//53
f 160//54 161//54 162//54
f 163//55 164//55 165//55
f 166//56 167//56 168//56
f 169//57 170//57 171//57
f 172//58 173//58 174//58
f 175//59 176//59 177//59
f 178//60 179//60 180//60
f 181//61 182//61 183//61
f 184//62 185//62 186//62
f 187//63 188//63 189//63
f 190//64 191//64 192//64
f 193//65 194//65 195//65
f 196//66 197//66 198//66
f 199//67 200//67 201//67
f 202//68 203//68 204//68
f 205//69 206//69 207//69
f 208//70 209//70 210//70
