o
v 7.006610 6.517038 40.650074
v -12.787512 3.406758 27.394234
v -15.512602 2.670901 39.990868
v 7.006610 6.517038 40.650074
v 7.685727 6.095436 40.125916
v 30.309153 3.008962 8.402667
v -12.787512 3.406758 27.394234
v -23.029579 -36.299290 -4.001011
v -15.512602 2.670901 39.990868
v -23.029579 -36.299290 -4.001011
v -14.417383 -48.120598 9.777518
v -15.512602 2.670901 39.990868
v 7.006610 6.517038 40.650074
v -15.512602 2.670901 39.990868
v 8.112434 -6.822446 43.619663
v 7.006610 6.517038 40.650074
v 23.727234 3.814999 6.010399
v -12.787512 3.406758 27.394234
v 31.991989 -7.103793 -19.840471
v 23.727234 3.814999 6.010399
v 30.309153 3.008962 8.402667
v 7.006610 6.517038 40.650074
v 30.309153 3.008962 8.402667
v 23.727234 3.814999 6.010399
v -15.512602 2.670901 39.990868
v 8.229692 -10.066214 44.204647
v 8.112434 -6.822446 43.619663
v -14.417383 -48.120598 9.777518
v -9.502995 -17.818590 40.647957
v -15.512602 2.670901 39.990868
v -15.512602 2.670901 39.990868
v -9.502995 -17.818590 40.647957
v 8.229692 -10.066214 44.204647
v -23.029579 -36.299290 -4.001011
v -9.977060 -48.443333 4.826007
v -14.417383 -48.120598 9.777518
v -12.787512 3.406758 27.394234
v -6.084081 -4.104746 -14.246959
v -23.029579 -36.299290 -4.001011
v 23.727234 3.814999 6.010399
v -6.084081 -4.104746 -14.246959
v -12.787512 3.406758 27.394234
v 7.006610 6.517038 40.650074
v 22.101456 -6.091667 31.875868
v 7.685727 6.095436 40.125916
v 7.685727 6.095436 40.125916
v 22.101456 -6.091667 31.875868
v 30.309153 3.008962 8.402667
v 7.006610 6.517038 40.650074
v 8.112434 -6.822446 43.619663
v 22.101456 -6.091667 31.875868
v 8.229692 -10.066214 44.204647
v 22.101456 -6.091667 31.875868
v 8.112434 -6.822446 43.619663
v -6.084081 -4.104746 -14.246959
v 7.434439 -34.995468 -26.534348
v -23.029579 -36.299290 -4.001011
v 7.543448 -35.031593 -26.536554
v 7.434439 -34.995468 -26.534348
v 31.991989 -7.103793 -19.840471
v -23.029579 -36.299290 -4.001011
v -10.997573 -41.501904 -7.977085
v -9.977060 -48.443333 4.826007
v 7.434439 -34.995468 -26.534348
v -10.997573 -41.501904 -7.977085
v -23.029579 -36.299290 -4.001011
v 7.543448 -35.031593 -26.536554
v -10.997573 -41.501904 -7.977085
v 7.434439 -34.995468 -26.534348
v 31.991989 -7.103793 -19.840471
v 10.390686 -2.916011 -15.334744
v 23.727234 3.814999 6.010399
v 23.727234 3.814999 6.010399
v 10.390686 -2.916011 -15.334744
v -6.084081 -4.104746 -14.246959
v 31.991989 -7.103793 -19.840471
v -6.084081 -4.104746 -14.246959
v 10.390686 -2.916011 -15.334744
v -6.084081 -4.104746 -14.246959
v 12.875979 -10.264684 -19.342247
v 7.434439 -34.995468 -26.534348
v 7.434439 -34.995468 -26.534348
v 12.875979 -10.264684 -19.342247
v 31.991989 -7.103793 -19.840471
v 31.991989 -7.103793 -19.840471
v 12.875979 -10.264684 -19.342247
v -6.084081 -4.104746 -14.246959
v -9.977060 -48.443333 4.826007
v 2.918977 -49.321674 5.060492
v -14.417383 -48.120598 9.777518
v -10.997573 -41.501904 -7.977085
v 9.249719 -46.167160 -6.437838
v -9.977060 -48.443333 4.826007
v 7.543448 -35.031593 -26.536554
v 9.249719 -46.167160 -6.437838
v -10.997573 -41.501904 -7.977085
v -9.977060 -48.443333 4.826007
v 9.249719 -46.167160 -6.437838
v 2.918977 -49.321674 5.060492
v 9.249719 -46.167160 -6.437838
v 9.323072 -46.190525 -6.359468
v 2.918977 -49.321674 5.060492
v 7.543448 -35.031593 -26.536554
v 9.323072 -46.190525 -6.359468
v 9.249719 -46.167160 -6.437838
v 9.323072 -46.190525 -6.359468
v 9.349550 -46.199810 -6.311196
v 2.918977 -49.321674 5.060492
v 7.543448 -35.031593 -26.536554
v 9.349550 -46.199810 -6.311196
v 9.323072 -46.190525 -6.359468
v 31.991989 -7.103793 -19.840471
v 30.309153 3.008962 8.402667
v 29.103556 -20.746973 19.388176
v 22.101456 -6.091667 31.875868
v 29.103556 -20.746973 19.388176
v 30.309153 3.008962 8.402667
v 8.229692 -10.066214 44.204647
v 27.291676 -21.845509 24.180517
v 22.101456 -6.091667 31.875868
v 22.101456 -6.091667 31.875868
v 27.291676 -21.845509 24.180517
v 29.103556 -20.746973 19.388176
v -9.502995 -17.818590 40.647957
v 7.377844 -26.526142 37.324902
v 8.229692 -10.066214 44.204647
v 8.229692 -10.066214 44.204647
v 7.377844 -26.526142 37.324902
v 27.291676 -21.845509 24.180517
v -14.417383 -48.120598 9.777518
v 1.400115 -43.614479 20.513416
v -9.502995 -17.818590 40.647957
v 2.918977 -49.321674 5.060492
v 1.400115 -43.614479 20.513416
v -14.417383 -48.120598 9.777518
v 7.543448 -35.031593 -26.536554
v 31.991989 -7.103793 -19.840471
v 22.758520 -28.529858 -11.382138
v 27.291676 -21.845509 24.180517
v 29.086372 -23.358639 11.554173
v 29.103556 -20.746973 19.388176
v 31.991989 -7.103793 -19.840471
v 29.103556 -20.746973 19.388176
v 29.086372 -23.358639 11.554173
v 31.991989 -7.103793 -19.840471
v 29.086372 -23.358639 11.554173
v 26.306316 -29.785891 -4.567142
v -9.502995 -17.818590 40.647957
v 5.971167 -41.567112 23.910719
v 7.377844 -26.526142 37.324902
v 1.400115 -43.614479 20.513416
v 5.971167 -41.567112 23.910719
v -9.502995 -17.818590 40.647957
v 2.918977 -49.321674 5.060492
v 5.971167 -41.567112 23.910719
v 1.400115 -43.614479 20.513416
v 27.291676 -21.845509 24.180517
v 5.971167 -41.567112 23.910719
v 2.918977 -49.321674 5.060492
v 7.377844 -26.526142 37.324902
v 5.971167 -41.567112 23.910719
v 27.291676 -21.845509 24.180517
v 7.543448 -35.031593 -26.536554
v 24.194891 -32.294701 -5.400105
v 9.349550 -46.199810 -6.311196
v 7.543448 -35.031593 -26.536554
v 22.758520 -28.529858 -11.382138
v 24.194891 -32.294701 -5.400105
v 31.991989 -7.103793 -19.840471
v 24.194891 -32.294701 -5.400105
v 22.758520 -28.529858 -11.382138
v 31.991989 -7.103793 -19.840471
v 26.306316 -29.785891 -4.567142
v 24.194891 -32.294701 -5.400105
v 9.349550 -46.199810 -6.311196
v 24.194891 -32.294701 -5.400105
v 2.918977 -49.321674 5.060492
v 27.291676 -21.845509 24.180517
v 24.194891 -32.294701 -5.400105
v 29.086372 -23.358639 11.554173
v 27.291676 -21.845509 24.180517
v 2.918977 -49.321674 5.060492
v 24.194891 -32.294701 -5.400105
v 29.086372 -23.358639 11.554173
v 24.194891 -32.294701 -5.400105
v 26.306316 -29.785891 -4.567142
vn -0.168916 0.985406 0.021022
vn 0.693480 0.571306 0.438970
vn -0.910915 0.373530 -0.175242
vn -0.901996 -0.234925 0.362234
vn -0.064708 0.211728 0.975184
vn -0.078496 0.990244 -0.115133
vn 0.227707 0.920962 -0.316193
vn 0.127244 0.991743 -0.015939
vn -0.080798 0.174068 0.981413
vn -0.888777 -0.248325 0.385241
vn -0.186803 -0.023293 0.982121
vn -0.479979 -0.791259 -0.378853
vn -0.890705 0.400212 -0.215579
vn -0.125446 0.972619 -0.195642
vn 0.703302 0.472144 0.531457
vn 0.712183 0.533755 0.455962
vn 0.620614 0.219055 0.752897
vn 0.629788 0.159850 0.760141
vn -0.595272 0.058271 -0.801409
vn 0.044964 0.195527 -0.979667
vn -0.471109 -0.790629 -0.391103
vn -0.470058 -0.575952 -0.668823
vn -0.273044 -0.790427 -0.548336
vn 0.105129 0.927697 -0.358226
vn -0.086108 0.964333 -0.250294
vn -0.091889 0.470343 -0.877686
vn -0.152778 0.306816 -0.939427
vn -0.073348 0.293341 -0.953190
vn -0.096265 0.441571 -0.892047
vn -0.068024 -0.997676 0.004026
vn -0.166059 -0.872387 -0.459744
vn -0.164623 -0.868642 -0.467290
vn -0.059608 -0.953794 -0.294488
vn -0.015398 -0.962057 -0.272414
vn 0.251762 -0.837324 -0.485287
vn 0.071667 -0.971449 -0.226165
vn 0.553938 -0.706907 -0.439812
vn 0.997586 -0.019853 0.066548
vn 0.920599 0.124449 0.370148
vn 0.679169 -0.129178 0.722525
vn 0.919270 0.119686 0.374991
vn -0.016849 -0.384842 0.922829
vn 0.572364 -0.341265 0.745613
vn -0.282871 -0.661604 0.694453
vn 0.030036 -0.936681 0.348894
vn 0.708671 -0.501364 -0.496406
vn 0.814692 -0.550662 0.181790
vn 0.993263 -0.110566 0.034681
vn 0.959200 -0.277362 -0.054831
vn -0.186254 -0.644188 0.741843
vn -0.236602 -0.657996 0.714885
vn 0.149114 -0.922726 0.355445
vn 0.665479 -0.722021 0.189270
vn 0.537071 -0.588876 0.603971
vn 0.635106 -0.650788 -0.416072
vn 0.706570 -0.509964 -0.490607
vn 0.715701 -0.500658 -0.486943
vn 0.753055 -0.486816 -0.442626
vn 0.666792 -0.723570 0.178423
vn 0.675642 -0.714498 0.181660
vn 0.667852 -0.720995 0.184770
vn 0.734705 -0.664182 0.138099
f 1//1 2//1 3//1
f 4//2 5//2 6//2
f 7//3 8//3 9//3
f 10//4 11//4 12//4
f 13//5 14//5 15//5
f 16//6 17//6 18//6
f 19//7 20//7 21//7
f 22//8 23//8 24//8
f 25//9 26//9 27//9
f 28//10 29//10 30//10
f 31//11 32//11 33//11
f 34//12 35//12 36//12
f 37//13 38//13 39//13
f 40//14 41//14 42//14
f 43//15 44//15 45//15
f 46//16 47//16 48//16
f 49//17 50//17 51//17
f 52//18 53//18 54//18
f 55//19 56//19 57//19
f 58//20 59//20 60//20
f 61//21 62//21 63//21
f 64//22 65//22 66//22
f 67//23 68//23 69//23
f 70//24 71//24 72//24
f 73//25 74//25 75//25
f 76//26 77//26 78//26
f 79//27 80//27 81//27
f 82//28 83//28 84//28
f 85//29 86//29 87//29
f 88//30 89//30 90//30
f 91//31 92//31 93//31
f 94//32 95//32 96//32
f 97//33 98//33 99//33
f 100//34 101//34 102//34
f 103//35 104//35 105//35
f 106//36 107//36 108//36
f 109//37 110//37 111//37
f 112//38 113//38 114//38
f 115//39 116//39 117//39
f 118//40 119//40 120//40
f 121//41 122//41 123//41
f 124//42 125//42 126//42
f 127//43 128//43 129//43
f 130//44 131//44 132//44
f 133//45 134//45 135//45
f 136//46 137//46 138//46
f 139//47 140//47 141//47
f 142//48 143//48 144//48
f 145//49 146//49 147//49
f 148//50 149//50 150//50
f 151//51 152//51 153//51
f 154//52 155//52 156//52
f 157//53 158//53 159//53
f 160//54 161//54 162//54
f 163//55 164//55 165//55
f 166//56 167//56 168//56
f 169//57 170//57 171//57
f 172//58 173//58 174//58
f 175//59 176//59 177//59
f 178//60 179//60 180//60
f 181//61 182//61 183//61
f 184//62 185//62 186//62
