o
v -27.583956 -32.975925 -15.638824
v -27.560312 -33.002136 -15.707182
v 17.909168 -41.307976 -18.271338
v -27.583956 -32.975925 -15.638824
v 17.909168 -41.307976 -18.271338
v -30.651506 -6.524931 -11.570022
v 17.909168 -41.307976 -18.271338
v 35.173168 -7.243354 -22.055563
v -30.651506 -6.524931 -11.570022
v 17.909168 -41.307976 -18.271338
v 38.319725 -16.966000 -24.248232
v 35.173168 -7.243354 -22.055563
v 35.173168 -7.243354 -22.055563
v -24.175425 17.635738 -18.495159
v -30.651506 -6.524931 -11.570022
v -27.560312 -33.002136 -15.707182
v 1.557416 -33.761406 -36.297726
v 17.909168 -41.307976 -18.271338
v -27.560312 -33.002136 -15.707182
v 1.059219 -31.239515 -39.798016
v 1.557416 -33.761406 -36.297726
v 17.909168 -41.307976 -18.271338
v 1.059219 -31.239515 -39.798016
v 38.319725 -16.966000 -24.248232
v 1.557416 -33.761406 -36.297726
v 1.059219 -31.239515 -39.798016
v 17.909168 -41.307976 -18.271338
v 38.319725 -16.966000 -24.248232
v 25.251894 2.692307 -37.036907
v 35.173168 -7.243354 -22.055563
v -13.646582 17.977858 -35.544159
v -15.257529 17.659138 -38.183754
v -24.175425 17.635738 -18.495159
v -13.646582 17.977858 -35.544159
v -12.300763 18.003794 -37.184711
v -15.257529 17.659138 -38.183754
v -13.646582 17.977858 -35.544159
v -24.175425 17.635738 -18.495159
v -8.923916 18.077478 -36.629776
v -13.646582 17.977858 -35.544159
v -8.923916 18.077478 -36.629776
v -12.300763 18.003794 -37.184711
v -15.257529 17.659138 -38.183754
v -16.990124 15.959124 -37.460411
v -24.175425 17.635738 -18.495159
v -27.583956 -32.975925 -15.638824
v -29.513758 -11.922621 -38.162361
v -27.560312 -33.002136 -15.707182
v -27.583956 -32.975925 -15.638824
v -30.651506 -6.524931 -11.570022
v -29.513758 -11.922621 -38.162361
v -24.175425 17.635738 -18.495159
v -29.513758 -11.922621 -38.162361
v -30.651506 -6.524931 -11.570022
v -16.990124 15.959124 -37.460411
v -29.513758 -11.922621 -38.162361
v -24.175425 17.635738 -18.495159
v 35.173168 -7.243354 -22.055563
v -5.229600 17.852718 -38.051224
v -24.175425 17.635738 -18.495159
v -24.175425 17.635738 -18.495159
v -5.229600 17.852718 -38.051224
v -8.923916 18.077478 -36.629776
v -15.257529 17.659138 -38.183754
v -9.699594 13.490127 -48.217438
v -16.990124 15.959124 -37.460411
v -16.990124 15.959124 -37.460411
v -9.699594 13.490127 -48.217438
v -29.513758 -11.922621 -38.162361
v -12.300763 18.003794 -37.184711
v -3.283000 17.608675 -40.468155
v -15.257529 17.659138 -38.183754
v -8.923916 18.077478 -36.629776
v -3.283000 17.608675 -40.468155
v -12.300763 18.003794 -37.184711
v -5.229600 17.852718 -38.051224
v -3.283000 17.608675 -40.468155
v -8.923916 18.077478 -36.629776
v 25.251894 2.692307 -37.036907
v -3.116622 17.593498 -40.120579
v 35.173168 -7.243354 -22.055563
v 35.173168 -7.243354 -22.055563
v -3.116622 17.593498 -40.120579
v -5.229600 17.852718 -38.051224
v -5.229600 17.852718 -38.051224
v -3.116622 17.593498 -40.120579
v -3.283000 17.608675 -40.468155
v -15.257529 17.659138 -38.183754
v -3.267529 16.021477 -44.318329
v -9.699594 13.490127 -48.217438
v -3.283000 17.608675 -40.468155
v -3.267529 16.021477 -44.318329
v -15.257529 17.659138 -38.183754
v 25.251894 2.692307 -37.036907
v -2.139196 16.650862 -42.165207
v -3.116622 17.593498 -40.120579
v -3.116622 17.593498 -40.120579
v -2.139196 16.650862 -42.165207
v -3.283000 17.608675 -40.468155
v -3.283000 17.608675 -40.468155
v -2.139196 16.650862 -42.165207
v -3.267529 16.021477 -44.318329
v 25.251894 2.692307 -37.036907
v -3.267529 16.021477 -44.318329
v -2.139196 16.650862 -42.165207
v 1.059219 -31.239515 -39.798016
v 3.843604 -22.401329 -45.139610
v 38.319725 -16.966000 -24.248232
v 38.319725 -16.966000 -24.248232
v 3.843604 -22.401329 -45.139610
v 25.251894 2.692307 -37.036907
v -3.267529 16.021477 -44.318329
v -5.687856 10.840918 -49.956547
v -9.699594 13.490127 -48.217438
v 25.251894 2.692307 -37.036907
v -5.687856 10.840918 -49.956547
v -3.267529 16.021477 -44.318329
v -5.687856 10.840918 -49.956547
v -8.656568 9.782159 -50.044102
v -9.699594 13.490127 -48.217438
v -5.687856 10.840918 -49.956547
v -6.317868 9.308159 -50.161102
v -8.656568 9.782159 -50.044102
v -6.317868 9.308159 -50.161102
v -8.873915 6.962765 -50.435593
v -8.656568 9.782159 -50.044102
v -9.699594 13.490127 -48.217438
v -9.667046 7.379188 -49.942772
v -29.513758 -11.922621 -38.162361
v -8.656568 9.782159 -50.044102
v -9.667046 7.379188 -49.942772
v -9.699594 13.490127 -48.217438
v -8.873915 6.962765 -50.435593
v -9.667046 7.379188 -49.942772
v -8.656568 9.782159 -50.044102
v -1.763964 -27.516310 -41.207821
v 0.280285 -20.849627 -45.606567
v 1.059219 -31.239515 -39.798016
v 1.059219 -31.239515 -39.798016
v 0.280285 -20.849627 -45.606567
v 3.843604 -22.401329 -45.139610
v 3.843604 -22.401329 -45.139610
v 1.698921 -17.966557 -46.907902
v 25.251894 2.692307 -37.036907
v 0.280285 -20.849627 -45.606567
v 1.698921 -17.966557 -46.907902
v 3.843604 -22.401329 -45.139610
v -27.560312 -33.002136 -15.707182
v -13.909573 -19.518030 -42.261044
v 1.059219 -31.239515 -39.798016
v -29.513758 -11.922621 -38.162361
v -13.909573 -19.518030 -42.261044
v -27.560312 -33.002136 -15.707182
v -1.763964 -27.516310 -41.207821
v 1.059219 -31.239515 -39.798016
v -13.909573 -19.518030 -42.261044
v -1.763964 -27.516310 -41.207821
v -13.909573 -19.518030 -42.261044
v 0.280285 -20.849627 -45.606567
v 25.251894 2.692307 -37.036907
v -2.021582 0.746356 -51.193272
v -5.687856 10.840918 -49.956547
v -5.687856 10.840918 -49.956547
v -2.021582 0.746356 -51.193272
v -6.317868 9.308159 -50.161102
v -6.317868 9.308159 -50.161102
v -2.021582 0.746356 -51.193272
v -8.873915 6.962765 -50.435593
v 1.698921 -17.966557 -46.907902
v -2.021582 0.746356 -51.193272
v 25.251894 2.692307 -37.036907
v -8.873915 6.962765 -50.435593
v -11.951623 1.990677 -48.986385
v -9.667046 7.379188 -49.942772
v -2.021582 0.746356 -51.193272
v -11.951623 1.990677 -48.986385
v -8.873915 6.962765 -50.435593
v -9.667046 7.379188 -49.942772
v -12.790814 1.336697 -48.519962
v -29.513758 -11.922621 -38.162361
v -11.951623 1.990677 -48.986385
v -12.790814 1.336697 -48.519962
v -9.667046 7.379188 -49.942772
v 1.698921 -17.966557 -46.907902
v -6.834939 -12.883425 -47.252277
v -2.021582 0.746356 -51.193272
v -2.021582 0.746356 -51.193272
v -6.834939 -12.883425 -47.252277
v -11.951623 1.990677 -48.986385
v -29.513758 -11.922621 -38.162361
v -6.834939 -12.883425 -47.252277
v -13.909573 -19.518030 -42.261044
v -12.790814 1.336697 -48.519962
v -6.834939 -12.883425 -47.252277
v -29.513758 -11.922621 -38.162361
v -11.951623 1.990677 -48.986385
v -6.834939 -12.883425 -47.252277
v -12.790814 1.336697 -48.519962
v 0.280285 -20.849627 -45.606567
v -6.834939 -12.883425 -47.252277
v 1.698921 -17.966557 -46.907902
v -13.909573 -19.518030 -42.261044
v -6.834939 -12.883425 -47.252277
v 0.280285 -20.849627 -45.606567
vn -0.154263 -0.939200 0.306768
vn 0.029987 -0.148569 0.988447
vn 0.157559 0.029801 0.987060
vn 0.374229 -0.087098 0.923237
vn 0.155449 0.233457 0.959861
vn -0.187412 -0.955021 -0.229809
vn -0.377568 -0.775949 -0.505317
vn 0.492799 -0.573821 -0.654125
vn 0.297589 -0.754000 -0.585598
vn 0.870093 0.357994 -0.338790
vn -0.113790 0.992228 -0.050361
vn -0.094835 0.993555 -0.062090
vn -0.019204 0.999782 0.008203
vn -0.021513 0.999767 -0.001842
vn -0.727785 0.601774 -0.328933
vn -0.930187 -0.304538 -0.204962
vn -0.993492 -0.112180 -0.019736
vn -0.968157 0.234019 -0.088923
vn -0.849002 0.390312 -0.356164
vn 0.377434 0.846688 0.375050
vn 0.102616 0.988578 0.110382
vn -0.684695 0.455849 -0.568678
vn -0.737866 0.346017 -0.579505
vn -0.038353 0.974164 -0.222563
vn -0.001398 0.992374 -0.123259
vn 0.031757 0.996673 -0.075060
vn 0.419680 0.859410 0.292033
vn 0.409654 0.857644 0.310856
vn 0.111925 0.993664 -0.010188
vn -0.095393 0.899419 -0.426551
vn -0.068695 0.922242 -0.380462
vn 0.472683 0.864193 -0.172456
vn 0.458821 0.869762 -0.181650
vn 0.205550 0.905072 -0.372282
vn 0.469500 0.750333 -0.465371
vn 0.492502 -0.558542 -0.667438
vn 0.530474 -0.185477 -0.827161
vn 0.153325 0.693986 -0.703473
vn 0.440558 0.558824 -0.702583
vn -0.120053 0.411343 -0.903540
vn -0.020997 0.140728 -0.989826
vn -0.021334 0.139119 -0.990046
vn -0.639661 0.205697 -0.740623
vn -0.591787 0.216106 -0.776587
vn -0.460535 0.156819 -0.873679
vn -0.222759 -0.488387 -0.843716
vn -0.100535 -0.491237 -0.865205
vn 0.471595 -0.120258 -0.873577
vn -0.049595 -0.390522 -0.919257
vn -0.442904 -0.686725 -0.576407
vn -0.474598 -0.661971 -0.580130
vn -0.265584 -0.510953 -0.817553
vn -0.243697 -0.480961 -0.842193
vn 0.429812 0.261967 -0.864081
vn 0.014017 0.126607 -0.991854
vn -0.002197 0.118602 -0.992939
vn 0.464061 -0.109047 -0.879065
vn -0.503663 0.060586 -0.861773
vn -0.231282 -0.137554 -0.963113
vn -0.587371 0.115017 -0.801104
vn -0.527644 0.073503 -0.846280
vn -0.105100 -0.241799 -0.964618
vn -0.235793 -0.192174 -0.952613
vn -0.367636 -0.276064 -0.888050
vn -0.370174 -0.235159 -0.898706
vn -0.335639 -0.222184 -0.915413
vn -0.163787 -0.337769 -0.926869
vn -0.245691 -0.401696 -0.882200
f 1//1 2//1 3//1
f 4//2 5//2 6//2
f 7//3 8//3 9//3
f 10//4 11//4 12//4
f 13//5 14//5 15//5
f 16//6 17//6 18//6
f 19//7 20//7 21//7
f 22//8 23//8 24//8
f 25//9 26//9 27//9
f 28//10 29//10 30//10
f 31//11 32//11 33//11
f 34//12 35//12 36//12
f 37//13 38//13 39//13
f 40//14 41//14 42//14
f 43//15 44//15 45//15
f 46//16 47//16 48//16
f 49//17 50//17 51//17
f 52//18 53//18 54//18
f 55//19 56//19 57//19
f 58//20 59//20 60//20
f 61//21 62//21 63//21
f 64//22 65//22 66//22
f 67//23 68//23 69//23
f 70//24 71//24 72//24
f 73//25 74//25 75//25
f 76//26 77//26 78//26
f 79//27 80//27 81//27
f 82//28 83//28 84//28
f 85//29 86//29 87//29
f 88//30 89//30 90//30
f 91//31 92//31 93//31
f 94//32 95//32 96//32
f 97//33 98//33 99//33
f 100//34 101//34 102//34
f 103//35 104//35 105//35
f 106//36 107//36 108//36
f 109//37 110//37 111//37
f 112//38 113//38 114//38
f 115//39 116//39 117//39
f 118//40 119//40 120//40
f 121//41 122//41 123//41
f 124//42 125//42 126//42
f 127//43 128//43 129//43
f 130//44 131//44 132//44
f 133//45 134//45 135//45
f 136//46 137//46 138//46
f 139//47 140//47 141//47
f 142//48 143//48 144//48
f 145//49 146//49 147//49
f 148//50 149//50 150//50
f 151//51 152//51 153//51
f 154//52 155//52 156//52
f 157//53 158//53 159//53
f 160//54 161//54 162//54
f 163//55 164//55 165//55
f 166//56 167//56 168//56
f 169//57 170//57 171//57
f 172//58 173//58 174//58
f 175//59 176//59 177//59
f 178//60 179//60 180//60
f 181//61 182//61 183//61
f 184//62 185//62 186//62
f 187//63 188//63 189//63
f 190//64 191//64 192//64
f 193//65 194//65 195//65
f 196//66 197//66 198//66
f 199//67 200//67 201//67
f 202//68 203//68 204//68
