o
v -2.573697 32.753899 34.373135
v -2.488307 32.760387 34.275356
v -1.814358 39.117126 19.657370
v -2.573697 32.753899 34.373135
v -1.814358 39.117126 19.657370
v -7.125380 34.276604 31.416296
v -1.814358 39.117126 19.657370
v -11.694150 40.238747 12.467789
v -7.125380 34.276604 31.416296
v -1.814358 39.117126 19.657370
v -11.554315 40.229755 12.518707
v -11.694150 40.238747 12.467789
v -1.814358 39.117126 19.657370
v -6.806480 40.325066 8.528532
v -11.554315 40.229755 12.518707
v -11.554315 40.229755 12.518707
v -6.806480 40.325066 8.528532
v -11.694150 40.238747 12.467789
v -11.694150 40.238747 12.467789
v -6.806480 40.325066 8.528532
v -13.126512 40.596298 7.699118
v -2.573697 32.753899 34.373135
v -7.125380 34.276604 31.416296
v -18.088961 11.784909 41.878582
v -2.573697 32.753899 34.373135
v 12.305009 27.205444 23.955004
v -2.488307 32.760387 34.275356
v -2.488307 32.760387 34.275356
v 12.305009 27.205444 23.955004
v -1.814358 39.117126 19.657370
v -2.573697 32.753899 34.373135
v -18.088961 11.784909 41.878582
v -9.248184 9.159742 43.331978
v -18.088961 11.784909 41.878582
v -10.359045 -0.774439 46.415176
v -9.248184 9.159742 43.331978
v -2.573697 32.753899 34.373135
v -10.359045 -0.774439 46.415176
v 12.305009 27.205444 23.955004
v -2.573697 32.753899 34.373135
v -9.248184 9.159742 43.331978
v -10.359045 -0.774439 46.415176
v -6.806480 40.325066 8.528532
v -27.800356 19.659906 -34.484005
v -13.126512 40.596298 7.699118
v -11.694150 40.238747 12.467789
v -41.379642 13.266748 20.862944
v -7.125380 34.276604 31.416296
v -7.125380 34.276604 31.416296
v -41.379642 13.266748 20.862944
v -18.088961 11.784909 41.878582
v -11.694150 40.238747 12.467789
v -13.126512 40.596298 7.699118
v -41.379642 13.266748 20.862944
v -41.379642 13.266748 20.862944
v -41.068035 13.525578 20.138597
v -27.800356 19.659906 -34.484005
v -27.800356 19.659906 -34.484005
v -22.858238 33.187229 0.321909
v -13.126512 40.596298 7.699118
v -41.068035 13.525578 20.138597
v -22.858238 33.187229 0.321909
v -27.800356 19.659906 -34.484005
v -13.126512 40.596298 7.699118
v -22.858238 33.187229 0.321909
v -41.379642 13.266748 20.862944
v -41.379642 13.266748 20.862944
v -22.858238 33.187229 0.321909
v -41.068035 13.525578 20.138597
v -6.806480 40.325066 8.528532
v -19.575127 18.900267 -33.682640
v -27.800356 19.659906 -34.484005
v 35.236565 -7.899059 -23.976276
v -19.575127 18.900267 -33.682640
v -6.806480 40.325066 8.528532
v -1.814358 39.117126 19.657370
v 18.274012 23.829226 6.955764
v -6.806480 40.325066 8.528532
v 12.305009 27.205444 23.955004
v 18.274012 23.829226 6.955764
v -1.814358 39.117126 19.657370
v 36.265366 -8.518663 -23.146448
v 18.274012 23.829226 6.955764
v 12.305009 27.205444 23.955004
v 36.106773 -8.438324 -23.400837
v 18.274012 23.829226 6.955764
v 36.265366 -8.518663 -23.146448
v 35.236565 -7.899059 -23.976276
v 18.274012 23.829226 6.955764
v 36.106773 -8.438324 -23.400837
v 35.236565 -7.899059 -23.976276
v -6.806480 40.325066 8.528532
v 18.274012 23.829226 6.955764
v -41.379642 13.266748 20.862944
v -27.800356 19.659906 -34.484005
v -38.435677 7.107531 -22.811796
v -27.800356 19.659906 -34.484005
v -34.280975 4.891595 -26.501230
v -38.435677 7.107531 -22.811796
v -18.088961 11.784909 41.878582
v -31.878897 -9.092537 30.132517
v -10.359045 -0.774439 46.415176
v -41.379642 13.266748 20.862944
v -31.878897 -9.092537 30.132517
v -18.088961 11.784909 41.878582
v 36.265366 -8.518663 -23.146448
v 12.305009 27.205444 23.955004
v 20.600250 7.695005 9.977299
v -10.359045 -0.774439 46.415176
v 10.820556 -19.506458 30.858742
v 12.305009 27.205444 23.955004
v -10.359045 -0.774439 46.415176
v -10.356589 -0.777918 46.413322
v 10.820556 -19.506458 30.858742
v 12.305009 27.205444 23.955004
v 10.859710 -19.463802 30.783422
v 20.600250 7.695005 9.977299
v 10.820556 -19.506458 30.858742
v 10.859710 -19.463802 30.783422
v 12.305009 27.205444 23.955004
v 36.265366 -8.518663 -23.146448
v 20.600250 7.695005 9.977299
v 10.859710 -19.463802 30.783422
v 36.265366 -8.518663 -23.146448
v 10.859710 -19.463802 30.783422
v 22.123468 -44.244350 4.751014
v 22.123468 -44.244350 4.751014
v 10.859710 -19.463802 30.783422
v 10.820556 -19.506458 30.858742
v -34.280975 4.891595 -26.501230
v -43.271671 -14.806829 -9.690070
v -38.435677 7.107531 -22.811796
v -41.379642 13.266748 20.862944
v -38.435677 7.107531 -22.811796
v -43.271671 -14.806829 -9.690070
v -41.379642 13.266748 20.862944
v -43.271671 -14.806829 -9.690070
v -31.878897 -9.092537 30.132517
v 36.106773 -8.438324 -23.400837
v 36.265366 -8.518663 -23.146448
v 17.457983 -38.414047 -20.386093
v 36.265366 -8.518663 -23.146448
v 22.123468 -44.244350 4.751014
v 17.457983 -38.414047 -20.386093
v 35.236565 -7.899059 -23.976276
v 36.106773 -8.438324 -23.400837
v 6.015968 -33.480797 -31.742363
v 36.106773 -8.438324 -23.400837
v 17.457983 -38.414047 -20.386093
v 6.015968 -33.480797 -31.742363
v -31.878897 -9.092537 30.132517
v -21.770315 -26.341320 27.872559
v -10.359045 -0.774439 46.415176
v -21.770315 -26.341320 27.872559
v -21.715567 -26.347591 27.893623
v -10.359045 -0.774439 46.415176
v -19.575127 18.900267 -33.682640
v 0.210279 -31.509174 -33.867710
v -27.800356 19.659906 -34.484005
v 35.236565 -7.899059 -23.976276
v 0.210279 -31.509174 -33.867710
v -19.575127 18.900267 -33.682640
v 35.236565 -7.899059 -23.976276
v 6.015968 -33.480797 -31.742363
v 0.210279 -31.509174 -33.867710
v -21.715567 -26.347591 27.893623
v -20.196836 -30.103416 26.462080
v -10.359045 -0.774439 46.415176
v -21.770315 -26.341320 27.872559
v -20.196836 -30.103416 26.462080
v -21.715567 -26.347591 27.893623
v 17.457983 -38.414047 -20.386093
v 6.646832 -39.500740 -25.982643
v 6.015968 -33.480797 -31.742363
v 6.015968 -33.480797 -31.742363
v 6.646832 -39.500740 -25.982643
v 0.210279 -31.509174 -33.867710
v 17.457983 -38.414047 -20.386093
v 7.352378 -39.738464 -25.081247
v 6.646832 -39.500740 -25.982643
v -10.359045 -0.774439 46.415176
v -2.650273 -36.992153 25.176174
v -10.356589 -0.777918 46.413322
v -20.196836 -30.103416 26.462080
v -2.650273 -36.992153 25.176174
v -10.359045 -0.774439 46.415176
v -10.356589 -0.777918 46.413322
v -2.650273 -36.992153 25.176174
v 10.820556 -19.506458 30.858742
v 22.123468 -44.244350 4.751014
v 10.820556 -19.506458 30.858742
v -2.650273 -36.992153 25.176174
v -27.800356 19.659906 -34.484005
v -23.261465 -11.947269 -29.587217
v -34.280975 4.891595 -26.501230
v -34.280975 4.891595 -26.501230
v -23.261465 -11.947269 -29.587217
v -43.271671 -14.806829 -9.690070
v 0.210279 -31.509174 -33.867710
v -23.261465 -11.947269 -29.587217
v -27.800356 19.659906 -34.484005
v -43.271671 -14.806829 -9.690070
v -29.646049 -29.190870 15.555289
v -31.878897 -9.092537 30.132517
v -31.878897 -9.092537 30.132517
v -29.646049 -29.190870 15.555289
v -21.770315 -26.341320 27.872559
v -21.770315 -26.341320 27.872559
v -29.646049 -29.190870 15.555289
v -20.196836 -30.103416 26.462080
v 7.352378 -39.738464 -25.081247
v 3.069105 -45.288788 -18.028095
v 6.646832 -39.500740 -25.982643
v 22.123468 -44.244350 4.751014
v 3.069105 -45.288788 -18.028095
v 17.457983 -38.414047 -20.386093
v 17.457983 -38.414047 -20.386093
v 3.069105 -45.288788 -18.028095
v 7.352378 -39.738464 -25.081247
v -20.196836 -30.103416 26.462080
v -20.906647 -40.728752 15.421884
v -2.650273 -36.992153 25.176174
v -29.646049 -29.190870 15.555289
v -20.906647 -40.728752 15.421884
v -20.196836 -30.103416 26.462080
v 22.123468 -44.244350 4.751014
v 3.914725 -47.611977 -2.526454
v 3.069105 -45.288788 -18.028095
v 6.646832 -39.500740 -25.982643
v -3.477904 -41.521942 -21.428955
v 0.210279 -31.509174 -33.867710
v 3.069105 -45.288788 -18.028095
v -3.477904 -41.521942 -21.428955
v 6.646832 -39.500740 -25.982643
v 22.123468 -44.244350 4.751014
v -12.749943 -48.920273 -0.748529
v 3.914725 -47.611977 -2.526454
v 3.914725 -47.611977 -2.526454
v -12.749943 -48.920273 -0.748529
v 3.069105 -45.288788 -18.028095
v -23.261465 -11.947269 -29.587217
v -19.124689 -30.001295 -25.191143
v -43.271671 -14.806829 -9.690070
v 0.210279 -31.509174 -33.867710
v -19.124689 -30.001295 -25.191143
v -23.261465 -11.947269 -29.587217
v -43.271671 -14.806829 -9.690070
v -30.662685 -31.066063 5.047383
v -29.646049 -29.190870 15.555289
v -29.646049 -29.190870 15.555289
v -30.662685 -31.066063 5.047383
v -20.906647 -40.728752 15.421884
v -20.906647 -40.728752 15.421884
v -30.662685 -31.066063 5.047383
v -12.749943 -48.920273 -0.748529
v -3.477904 -41.521942 -21.428955
v -20.089613 -33.094147 -22.161318
v 0.210279 -31.509174 -33.867710
v 0.210279 -31.509174 -33.867710
v -20.089613 -33.094147 -22.161318
v -19.124689 -30.001295 -25.191143
v -19.124689 -30.001295 -25.191143
v -20.089613 -33.094147 -22.161318
v -43.271671 -14.806829 -9.690070
v -20.906647 -40.728752 15.421884
v -5.847977 -45.638866 7.836988
v -2.650273 -36.992153 25.176174
v -20.906647 -40.728752 15.421884
v -12.749943 -48.920273 -0.748529
v -5.847977 -45.638866 7.836988
v 22.123468 -44.244350 4.751014
v -2.650273 -36.992153 25.176174
v -5.847977 -45.638866 7.836988
v 22.123468 -44.244350 4.751014
v -5.847977 -45.638866 7.836988
v -12.749943 -48.920273 -0.748529
v 3.069105 -45.288788 -18.028095
v -17.163004 -43.035610 -11.885428
v -3.477904 -41.521942 -21.428955
v -12.749943 -48.920273 -0.748529
v -17.163004 -43.035610 -11.885428
v 3.069105 -45.288788 -18.028095
v -43.271671 -14.806829 -9.690070
v -17.163004 -43.035610 -11.885428
v -30.662685 -31.066063 5.047383
v -30.662685 -31.066063 5.047383
v -17.163004 -43.035610 -11.885428
v -12.749943 -48.920273 -0.748529
v -20.089613 -33.094147 -22.161318
v -17.163004 -43.035610 -11.885428
v -43.271671 -14.806829 -9.690070
v -3.477904 -41.521942 -21.428955
v -17.627935 -37.158783 -18.980387
v -20.089613 -33.094147 -22.161318
v -17.163004 -43.035610 -11.885428
v -17.627935 -37.158783 -18.980387
v -3.477904 -41.521942 -21.428955
v -20.089613 -33.094147 -22.161318
v -17.627935 -37.158783 -18.980387
v -17.163004 -43.035610 -11.885428
vn 0.375715 0.843398 0.384080
vn 0.047535 0.915931 0.398510
vn -0.131077 0.936179 0.326173
vn 0.014858 0.990848 0.134161
vn 0.051412 0.995059 0.084943
vn 0.038669 0.996810 0.069822
vn 0.034342 0.997329 0.064464
vn -0.332451 0.526144 0.782719
vn 0.605003 0.560477 0.565541
vn 0.536357 0.764655 0.357244
vn -0.044297 0.365557 0.929734
vn -0.066478 0.302532 0.950818
vn 0.602756 0.142044 0.785180
vn 0.364827 0.238531 0.900002
vn 0.099308 0.877125 -0.469882
vn -0.565901 0.737533 0.368512
vn -0.536753 0.556602 0.634106
vn -0.614467 0.751265 0.240896
vn -0.788367 0.602617 -0.123816
vn -0.446448 0.853618 -0.268367
vn -0.786931 0.604607 -0.123244
vn -0.659176 0.741562 0.124794
vn -0.786478 0.605450 -0.121991
vn 0.126896 0.868486 -0.479196
vn 0.449195 0.734487 -0.508677
vn 0.536635 0.830266 -0.150603
vn 0.631124 0.772682 0.068147
vn 0.925936 0.260598 0.273370
vn 0.727192 0.638639 -0.251658
vn 0.648022 0.680294 -0.342443
vn 0.451562 0.734815 -0.506102
vn -0.814212 0.564766 -0.134529
vn -0.687286 -0.088141 -0.721019
vn -0.585078 -0.068201 0.808104
vn -0.668891 0.023800 0.742980
vn 0.919014 0.122221 0.374801
vn 0.641149 0.092223 0.761855
vn 0.573460 -0.031459 0.818629
vn 0.883302 0.040976 0.467011
vn 0.876258 0.043082 0.479913
vn 0.904454 0.002404 0.426564
vn 0.906579 -0.030148 0.420959
vn 0.897742 -0.051537 0.437496
vn -0.712782 -0.237801 -0.659842
vn -0.982518 0.163368 -0.089267
vn -0.916356 -0.264927 0.300174
vn 0.671560 -0.474991 -0.568675
vn 0.802992 -0.530285 -0.272031
vn 0.433326 -0.230463 -0.871272
vn 0.545731 -0.412853 -0.729198
vn -0.462235 -0.376107 0.803046
vn -0.366420 -0.433542 0.823273
vn 0.100832 0.043225 -0.993964
vn 0.215289 0.088070 -0.972571
vn 0.319268 -0.077966 -0.944452
vn -0.334654 -0.450745 0.827548
vn -0.364542 -0.456712 0.811494
vn 0.412675 -0.606757 -0.679371
vn 0.030891 -0.689296 -0.723821
vn 0.326453 -0.819179 -0.471565
vn -0.092246 -0.518240 0.850246
vn -0.143850 -0.523203 0.839979
vn 0.228743 -0.455773 0.860202
vn 0.424224 -0.558479 0.712837
vn -0.540430 -0.204069 -0.816267
vn -0.651230 -0.298288 -0.697799
vn -0.327467 -0.190406 -0.925479
vn -0.897990 -0.319329 0.302726
vn -0.687470 -0.474877 0.549433
vn -0.679027 -0.489212 0.547351
vn 0.312214 -0.829475 -0.463135
vn 0.377386 -0.884240 -0.275134
vn 0.321208 -0.829194 -0.457451
vn -0.222850 -0.695198 0.683402
vn -0.669437 -0.513277 0.537029
vn 0.239811 -0.958095 -0.156669
vn -0.140636 -0.750453 -0.645788
vn -0.123997 -0.774993 -0.619686
vn 0.098297 -0.973874 0.204712
vn 0.061323 -0.986599 -0.151204
vn -0.645544 -0.317092 -0.694784
vn -0.409715 -0.303357 -0.860295
vn -0.847739 -0.501894 0.171584
vn -0.782823 -0.595055 0.181929
vn -0.705422 -0.708780 0.003220
vn -0.320925 -0.689031 -0.649803
vn -0.368582 -0.589298 -0.718940
vn -0.661199 -0.409498 -0.628592
vn -0.060895 -0.888708 0.454412
vn -0.086087 -0.905591 0.415325
vn 0.092274 -0.897773 0.430685
vn 0.080376 -0.950916 0.298827
vn -0.238978 -0.845876 -0.476848
vn -0.217366 -0.895968 -0.387291
vn -0.733872 -0.670091 -0.111402
vn -0.716746 -0.692508 -0.081902
vn -0.690460 -0.608140 -0.391703
vn -0.325494 -0.697084 -0.638848
vn -0.329436 -0.737623 -0.589393
vn -0.446304 -0.703315 -0.553317
f 1//1 2//1 3//1
f 4//2 5//2 6//2
f 7//3 8//3 9//3
f 10//4 11//4 12//4
f 13//5 14//5 15//5
f 16//6 17//6 18//6
f 19//7 20//7 21//7
f 22//8 23//8 24//8
f 25//9 26//9 27//9
f 28//10 29//10 30//10
f 31//11 32//11 33//11
f 34//12 35//12 36//12
f 37//13 38//13 39//13
f 40//14 41//14 42//14
f 43//15 44//15 45//15
f 46//16 47//16 48//16
f 49//17 50//17 51//17
f 52//18 53//18 54//18
f 55//19 56//19 57//19
f 58//20 59//20 60//20
f 61//21 62//21 63//21
f 64//22 65//22 66//22
f 67//23 68//23 69//23
f 70//24 71//24 72//24
f 73//25 74//25 75//25
f 76//26 77//26 78//26
f 79//27 80//27 81//27
f 82//28 83//28 84//28
f 85//29 86//29 87//29
f 88//30 89//30 90//30
f 91//31 92//31 93//31
f 94//32 95//32 96//32
f 97//33 98//33 99//33
f 100//34 101//34 102//34
f 103//35 104//35 105//35
f 106//36 107//36 108//36
f 109//37 110//37 111//37
f 112//38 113//38 114//38
f 115//39 116//39 117//39
f 118//40 119//40 120//40
f 121//41 122//41 123//41
f 124//42 125//42 126//42
f 127//43 128//43 129//43
f 130//44 131//44 132//44
f 133//45 134//45 135//45
f 136//46 137//46 138//46
f 139//47 140//47 141//47
f 142//48 143//48 144//48
f 145//49 146//49 147//49
f 148//50 149//50 150//50
f 151//51 152//51 153//51
f 154//52 155//52 156//52
f 157//53 158//53 159//53
f 160//54 161//54 162//54
f 163//55 164//55 165//55
f 166//56 167//56 168//56
f 169//57 170//57 171//57
f 172//58 173//58 174//58
f 175//59 176//59 177//59
f 178//60 179//60 180//60
f 181//61 182//61 183//61
f 184//62 185//62 186//62
f 187//63 188//63 189//63
f 190//64 191//64 192//64
f 193//65 194//65 195//65
f 196//66 197//66 198//66
f 199//67 200//67 201//67
f 202//68 203//68 204//68
f 205//69 206//69 207//69
f 208//70 209//70 210//70
f 211//71 212//71 213//71
f 214//72 215//72 216//72
f 217//73 218//73 219//73
f 220//74 221//74 222//74
f 223//75 224//75 225//75
f 226//76 227//76 228//76
f 229//77 230//77 231//77
f 232//78 233//78 234//78
f 235//79 236//79 237//79
f 238//80 239//80 240//80
f 241//81 242//81 243//81
f 244//82 245//82 246//82
f 247//83 248//83 249//83
f 250//84 251//84 252//84
f 253//85 254//85 255//85
f 256//86 257//86 258//86
f 259//87 260//87 261//87
f 262//88 263//88 264//88
f 265//89 266//89 267//89
f 268//90 269//90 270//90
f 271//91 272//91 273//91
f 274//92 275//92 276//92
f 277//93 278//93 279//93
f 280//94 281//94 282//94
f 283//95 284//95 285//95
f 286//96 287//96 288//96
f 289//97 290//97 291//97
f 292//98 293//98 294//98
f 295//99 296//99 297//99
f 298//100 299//100 300//100
