o
v -7.228625 42.063763 2.329313
v -3.566720 39.131649 -8.054449
v -4.478190 39.189178 -7.959191
v -7.228625 42.063763 2.329313
v -12.825185 37.251942 -6.620078
v -15.448089 34.793423 -6.859451
v -7.228625 42.063763 2.329313
v 25.098970 6.515319 -7.779834
v -3.566720 39.131649 -8.054449
v -7.228625 42.063763 2.329313
v -4.478190 39.189178 -7.959191
v -9.832029 38.262054 -10.383929
v -7.228625 42.063763 2.329313
v -9.832029 38.262054 -10.383929
v -12.825185 37.251942 -6.620078
v 38.319725 -16.966000 -24.248232
v 35.173168 -7.243354 -22.055563
v 25.098970 6.515319 -7.779834
v 38.319725 -16.966000 -24.248232
v 25.098970 6.515319 -7.779834
v 17.909168 -41.307976 -18.271338
v -7.228625 42.063763 2.329313
v -0.241493 -18.942135 -2.873730
v 25.098970 6.515319 -7.779834
v 25.098970 6.515319 -7.779834
v -0.241493 -18.942135 -2.873730
v 17.909168 -41.307976 -18.271338
v -0.241493 -18.942135 -2.873730
v -25.057112 -25.820616 -7.868119
v 17.909168 -41.307976 -18.271338
v -7.228625 42.063763 2.329313
v -25.057112 -25.820616 -7.868119
v -0.241493 -18.942135 -2.873730
v 25.098970 6.515319 -7.779834
v 26.436155 3.201210 -24.222206
v -3.566720 39.131649 -8.054449
v 35.173168 -7.243354 -22.055563
v 26.436155 3.201210 -24.222206
v 25.098970 6.515319 -7.779834
v -3.566720 39.131649 -8.054449
v -9.552788 34.326530 -23.232653
v -4.478190 39.189178 -7.959191
v -4.478190 39.189178 -7.959191
v -9.552788 34.326530 -23.232653
v -9.832029 38.262054 -10.383929
v -9.832029 38.262054 -10.383929
v -9.552788 34.326530 -23.232653
v -12.825185 37.251942 -6.620078
v -25.057112 -25.820616 -7.868119
v -24.600554 -34.345829 -14.936224
v 17.909168 -41.307976 -18.271338
v -27.583956 -32.975925 -15.638824
v -24.600554 -34.345829 -14.936224
v -25.057112 -25.820616 -7.868119
v -27.560312 -33.002136 -15.707182
v -24.600554 -34.345829 -14.936224
v -27.583956 -32.975925 -15.638824
v -7.228625 42.063763 2.329313
v -15.448089 34.793423 -6.859451
v -30.651506 -6.524931 -11.570022
v -7.228625 42.063763 2.329313
v -30.651506 -6.524931 -11.570022
v -25.057112 -25.820616 -7.868119
v -27.583956 -32.975925 -15.638824
v -25.057112 -25.820616 -7.868119
v -30.651506 -6.524931 -11.570022
v 38.319725 -16.966000 -24.248232
v 25.251894 2.692307 -37.036907
v 35.173168 -7.243354 -22.055563
v 35.173168 -7.243354 -22.055563
v 25.251894 2.692307 -37.036907
v 26.436155 3.201210 -24.222206
v 26.436155 3.201210 -24.222206
v 25.251894 2.692307 -37.036907
v -3.566720 39.131649 -8.054449
v -3.566720 39.131649 -8.054449
v 25.251894 2.692307 -37.036907
v 1.692655 32.043785 -15.727338
v -27.560312 -33.002136 -15.707182
v -26.462954 -33.254887 -17.957968
v -24.600554 -34.345829 -14.936224
v -15.448089 34.793423 -6.859451
v -24.175425 17.635738 -18.495159
v -30.651506 -6.524931 -11.570022
v -3.566720 39.131649 -8.054449
v 2.385288 14.007343 -50.856945
v -9.552788 34.326530 -23.232653
v -3.566720 39.131649 -8.054449
v 1.692655 32.043785 -15.727338
v 2.385288 14.007343 -50.856945
v 25.251894 2.692307 -37.036907
v 2.385288 14.007343 -50.856945
v 1.692655 32.043785 -15.727338
v 25.251894 2.692307 -37.036907
v 1.865177 12.318501 -51.762768
v 2.385288 14.007343 -50.856945
v 1.865177 12.318501 -51.762768
v -0.013045 14.137930 -50.582451
v 2.385288 14.007343 -50.856945
v -12.878189 26.928030 -34.013752
v -13.233228 26.793486 -34.217598
v -9.552788 34.326530 -23.232653
v -13.233228 26.793486 -34.217598
v -14.001915 26.514952 -34.269985
v -9.552788 34.326530 -23.232653
v -12.825185 37.251942 -6.620078
v -14.503410 26.403883 -33.711025
v -15.448089 34.793423 -6.859451
v -9.552788 34.326530 -23.232653
v -14.503410 26.403883 -33.711025
v -12.825185 37.251942 -6.620078
v -14.001915 26.514952 -34.269985
v -14.503410 26.403883 -33.711025
v -9.552788 34.326530 -23.232653
v 2.385288 14.007343 -50.856945
v -2.369785 17.391661 -47.080006
v -9.552788 34.326530 -23.232653
v -12.878189 26.928030 -34.013752
v -9.552788 34.326530 -23.232653
v -2.369785 17.391661 -47.080006
v -0.013045 14.137930 -50.582451
v -2.369785 17.391661 -47.080006
v 2.385288 14.007343 -50.856945
v -12.878189 26.928030 -34.013752
v -2.369785 17.391661 -47.080006
v -13.233228 26.793486 -34.217598
v -13.233228 26.793486 -34.217598
v -2.369785 17.391661 -47.080006
v -14.001915 26.514952 -34.269985
v 1.865177 12.318501 -51.762768
v -9.243693 10.798205 -50.661091
v -0.013045 14.137930 -50.582451
v -24.600554 -34.345829 -14.936224
v -3.292776 -36.621769 -26.150331
v 17.909168 -41.307976 -18.271338
v -26.462954 -33.254887 -17.957968
v -3.292776 -36.621769 -26.150331
v -24.600554 -34.345829 -14.936224
v -27.583956 -32.975925 -15.638824
v -30.651506 -6.524931 -11.570022
v -31.596437 -6.195580 -21.835819
v -24.175425 17.635738 -18.495159
v -31.596437 -6.195580 -21.835819
v -30.651506 -6.524931 -11.570022
v 38.319725 -16.966000 -24.248232
v 9.459737 -1.989261 -47.150913
v 25.251894 2.692307 -37.036907
v 25.251894 2.692307 -37.036907
v 9.459737 -1.989261 -47.150913
v 1.865177 12.318501 -51.762768
v -0.013045 14.137930 -50.582451
v -9.699594 13.490127 -48.217438
v -2.369785 17.391661 -47.080006
v -9.243693 10.798205 -50.661091
v -9.699594 13.490127 -48.217438
v -0.013045 14.137930 -50.582451
v -2.369785 17.391661 -47.080006
v -9.699594 13.490127 -48.217438
v -14.001915 26.514952 -34.269985
v 38.319725 -16.966000 -24.248232
v 17.909168 -41.307976 -18.271338
v 8.468287 -24.236700 -41.836342
v 38.319725 -16.966000 -24.248232
v 8.468287 -24.236700 -41.836342
v 9.459737 -1.989261 -47.150913
v -26.462954 -33.254887 -17.957968
v 1.557416 -33.761406 -36.297726
v -3.292776 -36.621769 -26.150331
v -3.292776 -36.621769 -26.150331
v 1.557416 -33.761406 -36.297726
v 17.909168 -41.307976 -18.271338
v 1.865177 12.318501 -51.762768
v -2.021582 0.746356 -51.193272
v -9.243693 10.798205 -50.661091
v -9.243693 10.798205 -50.661091
v -2.021582 0.746356 -51.193272
v -8.873915 6.962765 -50.435593
v -26.462954 -33.254887 -17.957968
v -23.384420 -29.762451 -28.037926
v 1.557416 -33.761406 -36.297726
v -9.243693 10.798205 -50.661091
v -8.873915 6.962765 -50.435593
v -28.803326 -0.545206 -43.773441
v -27.560312 -33.002136 -15.707182
v -26.792437 -25.738085 -29.028261
v -26.462954 -33.254887 -17.957968
v 17.909168 -41.307976 -18.271338
v 1.059219 -31.239515 -39.798016
v 8.468287 -24.236700 -41.836342
v 1.557416 -33.761406 -36.297726
v 1.059219 -31.239515 -39.798016
v 17.909168 -41.307976 -18.271338
v -23.384420 -29.762451 -28.037926
v 1.059219 -31.239515 -39.798016
v 1.557416 -33.761406 -36.297726
v 8.468287 -24.236700 -41.836342
v 3.843604 -22.401329 -45.139610
v 9.459737 -1.989261 -47.150913
v 1.059219 -31.239515 -39.798016
v 3.843604 -22.401329 -45.139610
v 8.468287 -24.236700 -41.836342
v 9.459737 -1.989261 -47.150913
v 4.310169 -5.480159 -48.390491
v 1.865177 12.318501 -51.762768
v 1.865177 12.318501 -51.762768
v 4.310169 -5.480159 -48.390491
v -2.021582 0.746356 -51.193272
v -28.803326 -0.545206 -43.773441
v -31.596437 -6.195580 -21.835819
v -29.352648 3.087176 -38.809223
v -9.243693 10.798205 -50.661091
v -28.803326 -0.545206 -43.773441
v -23.333683 5.340887 -44.547165
v -14.001915 26.514952 -34.269985
v -24.255505 7.788266 -42.402191
v -14.503410 26.403883 -33.711025
v -14.503410 26.403883 -33.711025
v -24.255505 7.788266 -42.402191
v -29.352648 3.087176 -38.809223
v -28.803326 -0.545206 -43.773441
v -29.352648 3.087176 -38.809223
v -24.255505 7.788266 -42.402191
v -9.699594 13.490127 -48.217438
v -24.255505 7.788266 -42.402191
v -14.001915 26.514952 -34.269985
v -28.803326 -0.545206 -43.773441
v -24.255505 7.788266 -42.402191
v -23.333683 5.340887 -44.547165
v -9.243693 10.798205 -50.661091
v -24.255505 7.788266 -42.402191
v -9.699594 13.490127 -48.217438
v -9.243693 10.798205 -50.661091
v -23.333683 5.340887 -44.547165
v -24.255505 7.788266 -42.402191
v -26.462954 -33.254887 -17.957968
v -24.031954 -27.241520 -31.343889
v -23.384420 -29.762451 -28.037926
v -26.792437 -25.738085 -29.028261
v -24.031954 -27.241520 -31.343889
v -26.462954 -33.254887 -17.957968
v -23.384420 -29.762451 -28.037926
v -24.031954 -27.241520 -31.343889
v 1.059219 -31.239515 -39.798016
v -15.448089 34.793423 -6.859451
v -29.458838 4.225285 -35.893093
v -24.175425 17.635738 -18.495159
v -14.503410 26.403883 -33.711025
v -29.458838 4.225285 -35.893093
v -15.448089 34.793423 -6.859451
v -14.503410 26.403883 -33.711025
v -29.352648 3.087176 -38.809223
v -29.458838 4.225285 -35.893093
v -24.175425 17.635738 -18.495159
v -29.458838 4.225285 -35.893093
v -31.596437 -6.195580 -21.835819
v -31.596437 -6.195580 -21.835819
v -29.458838 4.225285 -35.893093
v -29.352648 3.087176 -38.809223
v 3.843604 -22.401329 -45.139610
v 1.698921 -17.966557 -46.907902
v 9.459737 -1.989261 -47.150913
v 9.459737 -1.989261 -47.150913
v 1.698921 -17.966557 -46.907902
v 4.310169 -5.480159 -48.390491
v 4.310169 -5.480159 -48.390491
v 1.698921 -17.966557 -46.907902
v -2.021582 0.746356 -51.193272
v -27.560312 -33.002136 -15.707182
v -27.583956 -32.975925 -15.638824
v -29.513758 -11.922621 -38.162361
v -27.560312 -33.002136 -15.707182
v -29.513758 -11.922621 -38.162361
v -26.792437 -25.738085 -29.028261
v -26.792437 -25.738085 -29.028261
v -29.513758 -11.922621 -38.162361
v -24.031954 -27.241520 -31.343889
v -27.583956 -32.975925 -15.638824
v -31.596437 -6.195580 -21.835819
v -29.513758 -11.922621 -38.162361
v -28.803326 -0.545206 -43.773441
v -29.513758 -11.922621 -38.162361
v -31.596437 -6.195580 -21.835819
v -2.021582 0.746356 -51.193272
v -11.951623 1.990677 -48.986385
v -8.873915 6.962765 -50.435593
v -8.873915 6.962765 -50.435593
v -11.951623 1.990677 -48.986385
v -28.803326 -0.545206 -43.773441
v 1.059219 -31.239515 -39.798016
v 0.280285 -20.849627 -45.606567
v 3.843604 -22.401329 -45.139610
v 3.843604 -22.401329 -45.139610
v 0.280285 -20.849627 -45.606567
v 1.698921 -17.966557 -46.907902
v -29.513758 -11.922621 -38.162361
v -24.336048 -25.208586 -32.697540
v -24.031954 -27.241520 -31.343889
v 1.698921 -17.966557 -46.907902
v -6.834939 -12.883425 -47.252277
v -2.021582 0.746356 -51.193272
v 0.280285 -20.849627 -45.606567
v -6.834939 -12.883425 -47.252277
v 1.698921 -17.966557 -46.907902
v 0.280285 -20.849627 -45.606567
v -12.541709 -10.634209 -47.021992
v -6.834939 -12.883425 -47.252277
v -2.021582 0.746356 -51.193272
v -12.541709 -10.634209 -47.021992
v -11.951623 1.990677 -48.986385
v -11.951623 1.990677 -48.986385
v -12.541709 -10.634209 -47.021992
v -28.803326 -0.545206 -43.773441
v -6.834939 -12.883425 -47.252277
v -12.541709 -10.634209 -47.021992
v -2.021582 0.746356 -51.193272
v -12.541709 -10.634209 -47.021992
v -19.139177 -8.854752 -44.976723
v -28.803326 -0.545206 -43.773441
v -12.567563 -10.662724 -47.001865
v -19.139177 -8.854752 -44.976723
v -12.541709 -10.634209 -47.021992
v -24.031954 -27.241520 -31.343889
v -17.464642 -23.619535 -38.061020
v 1.059219 -31.239515 -39.798016
v 1.059219 -31.239515 -39.798016
v -16.096952 -19.326124 -42.356033
v 0.280285 -20.849627 -45.606567
v 0.280285 -20.849627 -45.606567
v -16.096952 -19.326124 -42.356033
v -12.541709 -10.634209 -47.021992
v -12.567563 -10.662724 -47.001865
v -12.541709 -10.634209 -47.021992
v -16.096952 -19.326124 -42.356033
v -28.803326 -0.545206 -43.773441
v -16.096952 -19.326124 -42.356033
v -29.513758 -11.922621 -38.162361
v -19.139177 -8.854752 -44.976723
v -16.096952 -19.326124 -42.356033
v -28.803326 -0.545206 -43.773441
v -12.567563 -10.662724 -47.001865
v -16.096952 -19.326124 -42.356033
v -19.139177 -8.854752 -44.976723
v -24.336048 -25.208586 -32.697540
v -16.096952 -19.326124 -42.356033
v -24.031954 -27.241520 -31.343889
v -24.031954 -27.241520 -31.343889
v -16.096952 -19.326124 -42.356033
v -17.464642 -23.619535 -38.061020
v -17.464642 -23.619535 -38.061020
v -16.096952 -19.326124 -42.356033
v 1.059219 -31.239515 -39.798016
v -29.513758 -11.922621 -38.162361
v -16.096952 -19.326124 -42.356033
v -24.336048 -25.208586 -32.697540
vn 0.033666 0.964865 -0.260581
vn -0.685211 0.727384 0.037408
vn 0.748517 0.658510 0.078023
vn -0.039912 0.959531 -0.278760
vn -0.487370 0.858955 -0.157055
vn 0.877966 0.184517 0.441735
vn 0.541013 -0.257012 0.800781
vn 0.242599 -0.054822 0.968576
vn 0.423890 -0.254423 0.869244
vn -0.006994 -0.570887 0.820999
vn -0.168757 -0.102933 0.980268
vn 0.749499 0.658112 -0.071695
vn 0.771977 0.632352 -0.064675
vn 0.027396 0.949849 -0.311508
vn -0.032593 0.955447 -0.293359
vn -0.577343 0.777103 -0.250572
vn -0.044413 -0.639030 0.767899
vn -0.431469 -0.589366 0.682995
vn -0.445402 -0.876622 0.182074
vn -0.809696 0.236714 0.536991
vn -0.526334 0.010514 0.850213
vn -0.880229 -0.170220 0.442969
vn 0.870093 0.357994 -0.338790
vn 0.773198 0.626804 -0.096346
vn 0.742676 0.662884 -0.094959
vn 0.728040 0.674261 -0.123817
vn -0.392535 -0.915462 -0.088577
vn -0.921561 0.312894 0.229831
vn 0.410648 0.810118 -0.418421
vn 0.482594 0.782979 -0.392487
vn 0.580163 0.729170 -0.362936
vn 0.585451 0.235739 -0.775677
vn -0.072890 0.488745 -0.869377
vn 0.015041 0.822260 -0.568913
vn -0.269356 0.833947 -0.481642
vn -0.650533 0.718104 -0.247252
vn -0.633419 0.731102 -0.253517
vn -0.539753 0.774271 -0.330411
vn 0.160517 0.826940 -0.538892
vn 0.032110 0.819450 -0.572250
vn -0.040374 0.718352 -0.694508
vn 0.022378 0.816028 -0.577579
vn -0.206463 0.698633 -0.685044
vn -0.146930 0.427107 -0.892183
vn -0.169864 -0.977591 -0.124350
vn -0.213700 -0.953500 -0.212533
vn -0.987974 -0.127934 0.086835
vn -0.954061 0.283507 0.096914
vn 0.564655 -0.152337 -0.811147
vn 0.536572 0.012843 -0.843757
vn -0.223077 0.634771 -0.739799
vn -0.223152 0.634200 -0.740266
vn -0.247291 0.668943 -0.700973
vn 0.512848 -0.584423 -0.628838
vn 0.534343 -0.218849 -0.816445
vn -0.262039 -0.888879 -0.375806
vn -0.093380 -0.945739 -0.311220
vn -0.096425 -0.016590 -0.995202
vn -0.176296 -0.074702 -0.981498
vn -0.269730 -0.881411 -0.387764
vn -0.287386 -0.083804 -0.954142
vn -0.790845 -0.517009 -0.327515
vn 0.430216 -0.640374 -0.636266
vn 0.297589 -0.754000 -0.585598
vn -0.302221 -0.793292 -0.528536
vn 0.507024 -0.221578 -0.832964
vn 0.321412 -0.561913 -0.762199
vn 0.317055 -0.134328 -0.938846
vn 0.281308 -0.141195 -0.949173
vn -0.992384 0.016717 -0.122045
vn -0.482443 0.342327 -0.806263
vn -0.663576 0.572473 -0.481602
vn -0.756055 0.556737 -0.344130
vn -0.756536 0.485038 -0.438624
vn -0.487028 0.558324 -0.671623
vn -0.554293 0.420670 -0.718190
vn -0.486098 0.540821 -0.686456
vn -0.497195 0.458376 -0.736674
vn -0.579863 -0.698621 -0.419150
vn -0.674188 -0.620188 -0.401046
vn -0.306504 -0.784910 -0.538491
vn -0.834324 0.529175 -0.154524
vn -0.802358 0.561069 -0.203529
vn -0.792044 0.558368 -0.246762
vn -0.955231 0.287901 0.068169
vn -0.991965 0.101379 -0.075688
vn 0.361246 -0.189359 -0.913041
vn 0.344702 -0.181444 -0.921010
vn 0.257282 -0.166821 -0.951828
vn -0.930187 -0.304538 -0.204962
vn -0.912197 -0.335349 -0.235450
vn -0.701946 -0.483829 -0.522668
vn -0.984217 -0.163265 -0.068280
vn -0.991979 -0.000397 -0.126402
vn -0.231282 -0.137554 -0.963113
vn -0.279399 -0.105228 -0.954392
vn -0.100535 -0.491237 -0.865205
vn -0.049595 -0.390522 -0.919257
vn -0.633104 -0.492397 -0.597264
vn -0.105100 -0.241799 -0.964618
vn -0.163787 -0.337769 -0.926869
vn -0.173335 -0.345359 -0.922324
vn -0.231411 -0.139004 -0.962874
vn -0.274164 -0.135332 -0.952113
vn -0.130553 -0.232567 -0.963778
vn -0.352455 -0.280633 -0.892760
vn -0.355633 -0.301872 -0.884533
vn -0.332961 -0.654731 -0.678576
vn -0.213363 -0.488879 -0.845857
vn -0.214052 -0.392603 -0.894452
vn -0.300910 -0.352582 -0.886081
vn -0.457091 -0.370280 -0.808678
vn -0.389603 -0.328523 -0.860396
vn -0.358800 -0.323381 -0.875607
vn -0.448126 -0.540946 -0.711731
vn -0.404487 -0.579182 -0.707770
vn -0.321086 -0.616712 -0.718728
vn -0.494287 -0.488419 -0.719116
f 1//1 2//1 3//1
f 4//2 5//2 6//2
f 7//3 8//3 9//3
f 10//4 11//4 12//4
f 13//5 14//5 15//5
f 16//6 17//6 18//6
f 19//7 20//7 21//7
f 22//8 23//8 24//8
f 25//9 26//9 27//9
f 28//10 29//10 30//10
f 31//11 32//11 33//11
f 34//12 35//12 36//12
f 37//13 38//13 39//13
f 40//14 41//14 42//14
f 43//15 44//15 45//15
f 46//16 47//16 48//16
f 49//17 50//17 51//17
f 52//18 53//18 54//18
f 55//19 56//19 57//19
f 58//20 59//20 60//20
f 61//21 62//21 63//21
f 64//22 65//22 66//22
f 67//23 68//23 69//23
f 70//24 71//24 72//24
f 73//25 74//25 75//25
f 76//26 77//26 78//26
f 79//27 80//27 81//27
f 82//28 83//28 84//28
f 85//29 86//29 87//29
f 88//30 89//30 90//30
f 91//31 92//31 93//31
f 94//32 95//32 96//32
f 97//33 98//33 99//33
f 100//34 101//34 102//34
f 103//35 104//35 105//35
f 106//36 107//36 108//36
f 109//37 110//37 111//37
f 112//38 113//38 114//38
f 115//39 116//39 117//39
f 118//40 119//40 120//40
f 121//41 122//41 123//41
f 124//42 125//42 126//42
f 127//43 128//43 129//43
f 130//44 131//44 132//44
f 133//45 134//45 135//45
f 136//46 137//46 138//46
f 139//47 140//47 141//47
f 142//48 143//48 144//48
f 145//49 146//49 147//49
f 148//50 149//50 150//50
f 151//51 152//51 153//51
f 154//52 155//52 156//52
f 157//53 158//53 159//53
f 160//54 161//54 162//54
f 163//55 164//55 165//55
f 166//56 167//56 168//56
f 169//57 170//57 171//57
f 172//58 173//58 174//58
f 175//59 176//59 177//59
f 178//60 179//60 180//60
f 181//61 182//61 183//61
f 184//62 185//62 186//62
f 187//63 188//63 189//63
f 190//64 191//64 192//64
f 193//65 194//65 195//65
f 196//66 197//66 198//66
f 199//67 200//67 201//67
f 202//68 203//68 204//68
f 205//69 206//69 207//69
f 208//70 209//70 210//70
f 211//71 212//71 213//71
f 214//72 215//72 216//72
f 217//73 218//73 219//73
f 220//74 221//74 222//74
f 223//75 224//75 225//75
f 226//76 227//76 228//76
f 229//77 230//77 231//77
f 232//78 233//78 234//78
f 235//79 236//79 237//79
f 238//80 239//80 240//80
f 241//81 242//81 243//81
f 244//82 245//82 246//82
f 247//83 248//83 249//83
f 250//84 251//84 252//84
f 253//85 254//85 255//85
f 256//86 257//86 258//86
f 259//87 260//87 261//87
f 262//88 263//88 264//88
f 265//89 266//89 267//89
f 268//90 269//90 270//90
f 271//91 272//91 273//91
f 274//92 275//92 276//92
f 277//93 278//93 279//93
f 280//94 281//94 282//94
f 283//95 284//95 285//95
f 286//96 287//96 288//96
f 289//97 290//97 291//97
f 292//98 293//98 294//98
f 295//99 296//99 297//99
f 298//100 299//100 300//100
f 301//101 302//101 303//101
f 304//102 305//102 306//102
f 307//103 308//103 309//103
f 310//104 311//104 312//104
f 313//105 314//105 315//105
f 316//106 317//106 318//106
f 319//107 320//107 321//107
f 322//108 323//108 324//108
f 325//109 326//109 327//109
f 328//110 329//110 330//110
f 331//111 332//111 333//111
f 334//112 335//112 336//112
f 337//113 338//113 339//113
f 340//114 341//114 342//114
f 343//115 344//115 345//115
f 346//116 347//116 348//116
f 349//117 350//117 351//117
f 352//118 353//118 354//118
