o
v 7.615684 -23.875786 -22.857862
v 10.537595 8.124705 -8.846821
v 7.450815 -3.815562 -32.613461
v 7.450815 -3.815562 -32.613461
v 10.537595 8.124705 -8.846821
v 10.517141 8.117723 -9.770703
v 7.615684 -23.875786 -22.857862
v 20.979027 4.234711 26.715067
v 10.537595 8.124705 -8.846821
v 7.450815 -3.815562 -32.613461
v 10.517141 8.117723 -9.770703
v 37.513451 34.104183 -0.117011
v 7.450815 -3.815562 -32.613461
v 37.513451 34.104183 -0.117011
v 27.863092 8.328392 -31.608004
v 10.537595 8.124705 -8.846821
v 35.898510 32.578514 -0.053674
v 10.517141 8.117723 -9.770703
v 10.517141 8.117723 -9.770703
v 35.898510 32.578514 -0.053674
v 37.513451 34.104183 -0.117011
v 7.615684 -23.875786 -22.857862
v 7.450815 -3.815562 -32.613461
v 28.538916 -12.272953 -25.418741
v 7.450815 -3.815562 -32.613461
v 27.863092 8.328392 -31.608004
v 28.538916 -12.272953 -25.418741
v 40.166462 11.617717 27.035587
v 35.895287 25.901646 12.841065
v 20.979027 4.234711 26.715067
v 37.513451 34.104183 -0.117011
v 35.895287 25.901646 12.841065
v 46.065632 11.222201 26.065868
v 46.065632 11.222201 26.065868
v 35.895287 25.901646 12.841065
v 40.166462 11.617717 27.035587
v 20.979027 4.234711 26.715067
v 33.108517 25.713306 10.579271
v 10.537595 8.124705 -8.846821
v 10.537595 8.124705 -8.846821
v 33.108517 25.713306 10.579271
v 35.898510 32.578514 -0.053674
v 35.898510 32.578514 -0.053674
v 33.108517 25.713306 10.579271
v 37.513451 34.104183 -0.117011
v 37.513451 34.104183 -0.117011
v 33.108517 25.713306 10.579271
v 35.895287 25.901646 12.841065
v 35.895287 25.901646 12.841065
v 33.108517 25.713306 10.579271
v 20.979027 4.234711 26.715067
v 46.065632 11.222201 26.065868
v 47.041340 10.526366 24.357161
v 46.080841 11.224775 26.044119
v 46.080841 11.224775 26.044119
v 47.041340 10.526366 24.357161
v 47.060703 11.762660 24.047098
v 37.513451 34.104183 -0.117011
v 46.065632 11.222201 26.065868
v 47.077400 12.141912 23.603308
v 46.065632 11.222201 26.065868
v 46.080841 11.224775 26.044119
v 47.077400 12.141912 23.603308
v 46.080841 11.224775 26.044119
v 47.060703 11.762660 24.047098
v 47.077400 12.141912 23.603308
v 47.041340 10.526366 24.357161
v 47.295006 11.010777 23.573465
v 47.060703 11.762660 24.047098
v 47.060703 11.762660 24.047098
v 47.295006 11.010777 23.573465
v 47.077400 12.141912 23.603308
v 40.166462 11.617717 27.035587
v 20.979027 4.234711 26.715067
v 42.761234 4.597460 25.327599
v 46.065632 11.222201 26.065868
v 40.166462 11.617717 27.035587
v 42.761234 4.597460 25.327599
v 46.065632 11.222201 26.065868
v 42.761234 4.597460 25.327599
v 47.041340 10.526366 24.357161
v 27.863092 8.328392 -31.608004
v 45.570679 -16.260509 -18.291384
v 28.538916 -12.272953 -25.418741
v 7.615684 -23.875786 -22.857862
v 28.538916 -12.272953 -25.418741
v 45.570679 -16.260509 -18.291384
v 37.513451 34.104183 -0.117011
v 47.077400 12.141912 23.603308
v 43.777046 25.777580 5.178418
v 45.570679 -16.260509 -18.291384
v 46.172611 -19.683893 -10.199471
v 46.111717 -19.799326 -10.177554
v 7.615684 -23.875786 -22.857862
v 45.570679 -16.260509 -18.291384
v 43.743668 -20.911165 -9.241169
v 45.570679 -16.260509 -18.291384
v 46.111717 -19.799326 -10.177554
v 43.743668 -20.911165 -9.241169
v 37.513451 34.104183 -0.117011
v 43.777046 25.777580 5.178418
v 45.049194 23.002663 2.975306
v 45.570679 -16.260509 -18.291384
v 48.215958 -17.362192 -6.658466
v 46.172611 -19.683893 -10.199471
v 46.172611 -19.683893 -10.199471
v 48.215958 -17.362192 -6.658466
v 46.111717 -19.799326 -10.177554
v 46.111717 -19.799326 -10.177554
v 48.163052 -17.385237 -6.582183
v 43.743668 -20.911165 -9.241169
v 48.215958 -17.362192 -6.658466
v 48.163052 -17.385237 -6.582183
v 46.111717 -19.799326 -10.177554
v 27.863092 8.328392 -31.608004
v 42.754532 -6.165849 -21.517836
v 45.570679 -16.260509 -18.291384
v 27.863092 8.328392 -31.608004
v 42.787621 -6.178734 -21.497578
v 42.754532 -6.165849 -21.517836
v 42.754532 -6.165849 -21.517836
v 42.787621 -6.178734 -21.497578
v 45.570679 -16.260509 -18.291384
v 7.615684 -23.875786 -22.857862
v 43.743668 -20.911165 -9.241169
v 32.242363 -17.177465 -3.364344
v 37.513451 34.104183 -0.117011
v 44.066254 21.227365 -2.404774
v 27.863092 8.328392 -31.608004
v 37.513451 34.104183 -0.117011
v 45.049194 23.002663 2.975306
v 44.066254 21.227365 -2.404774
v 20.979027 4.234711 26.715067
v 39.142857 -7.368875 15.077251
v 42.761234 4.597460 25.327599
v 7.615684 -23.875786 -22.857862
v 38.352665 -7.298693 14.967322
v 20.979027 4.234711 26.715067
v 7.615684 -23.875786 -22.857862
v 32.242363 -17.177465 -3.364344
v 38.352665 -7.298693 14.967322
v 39.142857 -7.368875 15.077251
v 38.352665 -7.298693 14.967322
v 32.242363 -17.177465 -3.364344
v 20.979027 4.234711 26.715067
v 38.352665 -7.298693 14.967322
v 39.142857 -7.368875 15.077251
v 45.570679 -16.260509 -18.291384
v 49.907829 -6.801826 -10.667265
v 48.215958 -17.362192 -6.658466
v 48.215958 -17.362192 -6.658466
v 49.907829 -6.801826 -10.667265
v 49.350090 -12.283438 -6.164730
v 42.787621 -6.178734 -21.497578
v 47.816746 -6.136341 -13.893282
v 45.570679 -16.260509 -18.291384
v 45.570679 -16.260509 -18.291384
v 47.816746 -6.136341 -13.893282
v 49.907829 -6.801826 -10.667265
v 48.215958 -17.362192 -6.658466
v 45.729706 -11.947205 6.970715
v 48.163052 -17.385237 -6.582183
v 48.163052 -17.385237 -6.582183
v 45.729706 -11.947205 6.970715
v 43.743668 -20.911165 -9.241169
v 48.215958 -17.362192 -6.658466
v 45.738075 -11.933065 6.970697
v 45.729706 -11.947205 6.970715
v 43.743668 -20.911165 -9.241169
v 43.269958 -9.787988 11.469752
v 32.242363 -17.177465 -3.364344
v 39.142857 -7.368875 15.077251
v 32.242363 -17.177465 -3.364344
v 43.269958 -9.787988 11.469752
v 39.142857 -7.368875 15.077251
v 43.269958 -9.787988 11.469752
v 42.761234 4.597460 25.327599
v 42.761234 4.597460 25.327599
v 43.269958 -9.787988 11.469752
v 45.729706 -11.947205 6.970715
v 45.729706 -11.947205 6.970715
v 43.269958 -9.787988 11.469752
v 43.743668 -20.911165 -9.241169
v 42.761234 4.597460 25.327599
v 48.485806 -3.924525 11.083192
v 47.041340 10.526366 24.357161
v 42.761234 4.597460 25.327599
v 45.729706 -11.947205 6.970715
v 48.485806 -3.924525 11.083192
v 48.215958 -17.362192 -6.658466
v 48.485806 -3.924525 11.083192
v 45.738075 -11.933065 6.970697
v 45.738075 -11.933065 6.970697
v 48.485806 -3.924525 11.083192
v 45.729706 -11.947205 6.970715
v 43.777046 25.777580 5.178418
v 51.988358 7.376871 2.684480
v 45.049194 23.002663 2.975306
v 47.077400 12.141912 23.603308
v 51.988358 7.376871 2.684480
v 43.777046 25.777580 5.178418
v 47.295006 11.010777 23.573465
v 51.988358 7.376871 2.684480
v 47.077400 12.141912 23.603308
v 47.041340 10.526366 24.357161
v 52.737370 4.970887 0.284077
v 47.295006 11.010777 23.573465
v 47.295006 11.010777 23.573465
v 52.737370 4.970887 0.284077
v 51.988358 7.376871 2.684480
v 27.863092 8.328392 -31.608004
v 42.165115 3.510484 -17.756674
v 42.787621 -6.178734 -21.497578
v 44.066254 21.227365 -2.404774
v 42.165115 3.510484 -17.756674
v 27.863092 8.328392 -31.608004
v 48.215958 -17.362192 -6.658466
v 49.350090 -12.283438 -6.164730
v 52.723385 2.034954 -1.186408
v 48.215958 -17.362192 -6.658466
v 52.723385 2.034954 -1.186408
v 48.485806 -3.924525 11.083192
v 48.485806 -3.924525 11.083192
v 52.723385 2.034954 -1.186408
v 47.041340 10.526366 24.357161
v 47.041340 10.526366 24.357161
v 52.723385 2.034954 -1.186408
v 52.737370 4.970887 0.284077
v 49.907829 -6.801826 -10.667265
v 52.723385 2.034954 -1.186408
v 49.350090 -12.283438 -6.164730
v 45.049194 23.002663 2.975306
v 51.916817 6.636077 -1.862853
v 44.066254 21.227365 -2.404774
v 51.988358 7.376871 2.684480
v 51.916817 6.636077 -1.862853
v 45.049194 23.002663 2.975306
v 52.737370 4.970887 0.284077
v 51.916817 6.636077 -1.862853
v 51.988358 7.376871 2.684480
v 52.723385 2.034954 -1.186408
v 51.916817 6.636077 -1.862853
v 52.737370 4.970887 0.284077
v 49.907829 -6.801826 -10.667265
v 51.916817 6.636077 -1.862853
v 52.723385 2.034954 -1.186408
v 47.816746 -6.136341 -13.893282
v 48.786514 1.222536 -9.388578
v 49.907829 -6.801826 -10.667265
v 42.787621 -6.178734 -21.497578
v 48.786514 1.222536 -9.388578
v 47.816746 -6.136341 -13.893282
v 49.907829 -6.801826 -10.667265
v 48.786514 1.222536 -9.388578
v 51.916817 6.636077 -1.862853
v 44.066254 21.227365 -2.404774
v 47.181065 4.109461 -10.524371
v 42.165115 3.510484 -17.756674
v 51.916817 6.636077 -1.862853
v 47.181065 4.109461 -10.524371
v 44.066254 21.227365 -2.404774
v 42.165115 3.510484 -17.756674
v 47.181065 4.109461 -10.524371
v 42.787621 -6.178734 -21.497578
v 42.787621 -6.178734 -21.497578
v 47.181065 4.109461 -10.524371
v 48.786514 1.222536 -9.388578
v 48.786514 1.222536 -9.388578
v 47.181065 4.109461 -10.524371
v 51.916817 6.636077 -1.862853
vn -0.993294 0.043859 0.106973
vn -0.976912 0.212701 0.020020
vn -0.959941 -0.034120 0.278119
vn -0.601628 0.738284 -0.304927
vn -0.427592 0.759332 -0.490489
vn -0.695872 0.718097 0.009978
vn -0.687040 0.725884 -0.032692
vn 0.130785 -0.432715 -0.891994
vn 0.209824 -0.275001 -0.938269
vn -0.258672 0.640877 0.722749
vn 0.400598 0.750752 0.525256
vn 0.159362 0.719443 0.676022
vn -0.728937 0.623688 0.282248
vn -0.715671 0.657171 0.236519
vn -0.652888 0.702817 0.282464
vn -0.417270 0.790517 0.448295
vn -0.487300 0.683488 0.543491
vn 0.814056 -0.198674 0.545749
vn 0.882018 0.101587 0.460135
vn 0.494128 0.728174 0.474974
vn 0.580055 0.655760 0.483233
vn 0.692031 0.535713 0.483844
vn 0.934905 0.072489 0.347416
vn 0.964905 0.180597 0.190637
vn 0.065642 -0.212917 0.974863
vn 0.147606 -0.181965 0.972163
vn 0.706267 -0.416111 0.572746
vn 0.319392 -0.263030 -0.910387
vn 0.208045 -0.553201 -0.806651
vn 0.580949 0.700553 0.414395
vn 0.830007 -0.488843 -0.268553
vn 0.226555 -0.884147 -0.408603
vn 0.254704 -0.880043 -0.400811
vn 0.836662 0.520045 -0.171904
vn 0.880156 -0.410137 -0.238985
vn 0.856469 -0.485242 -0.176073
vn 0.494963 -0.825324 0.271758
vn 0.600108 -0.779216 0.180809
vn 0.443769 -0.158130 -0.882079
vn 0.491993 -0.096832 -0.865198
vn 0.474973 -0.144920 -0.867986
vn -0.082076 -0.906094 0.415038
vn 0.681954 0.449537 -0.576936
vn 0.824951 0.474393 -0.307257
vn 0.058714 -0.659612 0.749310
vn -0.196670 -0.829197 0.523215
vn -0.176525 -0.840716 0.511894
vn -0.145945 -0.849756 0.506572
vn -0.151010 -0.807821 0.569755
vn 0.941261 -0.240703 -0.236834
vn 0.970463 -0.204228 -0.128424
vn 0.832704 0.054633 -0.551016
vn 0.842562 0.046190 -0.536615
vn 0.754293 -0.551243 0.356613
vn 0.410890 -0.818229 0.402083
vn 0.810040 -0.479079 0.338111
vn -0.044731 -0.880527 0.471880
vn -0.079257 -0.867511 0.491062
vn 0.223083 -0.672190 0.705971
vn 0.597002 -0.545525 0.588210
vn 0.095554 -0.876039 0.472678
vn 0.719101 -0.429739 0.546093
vn 0.646065 -0.512088 0.566008
vn 0.827216 -0.453894 0.331201
vn 0.794705 -0.469946 0.384181
vn 0.913920 0.405542 0.016929
vn 0.912211 0.390092 0.125295
vn 0.965841 0.180912 0.185534
vn 0.963024 -0.098772 0.250659
vn 0.974187 0.102733 0.201009
vn 0.714342 0.291519 -0.636186
vn 0.699814 0.423417 -0.575308
vn 0.975823 -0.213258 -0.047852
vn 0.942411 -0.273358 0.192710
vn 0.954864 -0.143470 0.260098
vn 0.957093 -0.133404 0.257248
vn 0.975232 -0.190937 -0.111652
vn 0.844528 0.443220 -0.300547
vn 0.910417 0.405798 -0.080431
vn 0.928972 0.362737 -0.073708
vn 0.955499 0.128456 -0.265558
vn 0.921617 0.106699 -0.373145
vn 0.840678 0.197807 -0.504117
vn 0.812582 0.222645 -0.538645
vn 0.846843 0.197055 -0.493991
vn 0.739851 0.393473 -0.545710
vn 0.756585 0.387504 -0.526706
vn 0.781141 0.267920 -0.563948
vn 0.806285 0.234777 -0.542940
vn 0.817027 0.249925 -0.519620
f 1//1 2//1 3//1
f 4//2 5//2 6//2
f 7//3 8//3 9//3
f 10//4 11//4 12//4
f 13//5 14//5 15//5
f 16//6 17//6 18//6
f 19//7 20//7 21//7
f 22//8 23//8 24//8
f 25//9 26//9 27//9
f 28//10 29//10 30//10
f 31//11 32//11 33//11
f 34//12 35//12 36//12
f 37//13 38//13 39//13
f 40//14 41//14 42//14
f 43//15 44//15 45//15
f 46//16 47//16 48//16
f 49//17 50//17 51//17
f 52//18 53//18 54//18
f 55//19 56//19 57//19
f 58//20 59//20 60//20
f 61//21 62//21 63//21
f 64//22 65//22 66//22
f 67//23 68//23 69//23
f 70//24 71//24 72//24
f 73//25 74//25 75//25
f 76//26 77//26 78//26
f 79//27 80//27 81//27
f 82//28 83//28 84//28
f 85//29 86//29 87//29
f 88//30 89//30 90//30
f 91//31 92//31 93//31
f 94//32 95//32 96//32
f 97//33 98//33 99//33
f 100//34 101//34 102//34
f 103//35 104//35 105//35
f 106//36 107//36 108//36
f 109//37 110//37 111//37
f 112//38 113//38 114//38
f 115//39 116//39 117//39
f 118//40 119//40 120//40
f 121//41 122//41 123//41
f 124//42 125//42 126//42
f 127//43 128//43 129//43
f 130//44 131//44 132//44
f 133//45 134//45 135//45
f 136//46 137//46 138//46
f 139//47 140//47 141//47
f 142//48 143//48 144//48
f 145//49 146//49 147//49
f 148//50 149//50 150//50
f 151//51 152//51 153//51
f 154//52 155//52 156//52
f 157//53 158//53 159//53
f 160//54 161//54 162//54
f 163//55 164//55 165//55
f 166//56 167//56 168//56
f 169//57 170//57 171//57
f 172//58 173//58 174//58
f 175//59 176//59 177//59
f 178//60 179//60 180//60
f 181//61 182//61 183//61
f 184//62 185//62 186//62
f 187//63 188//63 189//63
f 190//64 191//64 192//64
f 193//65 194//65 195//65
f 196//66 197//66 198//66
f 199//67 200//67 201//67
f 202//68 203//68 204//68
f 205//69 206//69 207//69
f 208//70 209//70 210//70
f 211//71 212//71 213//71
f 214//72 215//72 216//72
f 217//73 218//73 219//73
f 220//74 221//74 222//74
f 223//75 224//75 225//75
f 226//76 227//76 228//76
f 229//77 230//77 231//77
f 232//78 233//78 234//78
f 235//79 236//79 237//79
f 238//80 239//80 240//80
f 241//81 242//81 243//81
f 244//82 245//82 246//82
f 247//83 248//83 249//83
f 250//84 251//84 252//84
f 253//85 254//85 255//85
f 256//86 257//86 258//86
f 259//87 260//87 261//87
f 262//88 263//88 264//88
f 265//89 266//89 267//89
f 268//90 269//90 270//90
