o
v -13.829240 99.880562 199.543121
v -14.622464 99.431694 199.770813
v -14.088604 99.677498 199.577042
v -13.829240 99.880562 199.543121
v -14.088604 99.677498 199.577042
v -2.802460 22.762499 61.496574
v -14.622464 99.431694 199.770813
v -2.802460 22.762499 61.496574
v -14.088604 99.677498 199.577042
v -13.829240 99.880562 199.543121
v -2.802460 22.762499 61.496574
v -90.077194 -44.405754 -220.251022
v -2.802460 22.762499 61.496574
v -159.470520 -86.257545 -55.900822
v -90.077194 -44.405754 -220.251022
v -14.622464 99.431694 199.770813
v -235.130066 -40.282688 93.432739
v -2.802460 22.762499 61.496574
v -2.802460 22.762499 61.496574
v -235.130066 -40.282688 93.432739
v -159.470520 -86.257545 -55.900822
v -13.829240 99.880562 199.543121
v -231.772369 142.578735 -34.978199
v -14.622464 99.431694 199.770813
v -13.829240 99.880562 199.543121
v -90.077194 -44.405754 -220.251022
v -231.772369 142.578735 -34.978199
v -235.130066 -40.282688 93.432739
v -244.693634 -36.708717 76.239868
v -159.470520 -86.257545 -55.900822
v -235.130066 -40.282688 93.432739
v -242.995880 -28.018215 90.274971
v -244.693634 -36.708717 76.239868
v -242.995880 -28.018215 90.274971
v -243.378769 -27.645180 89.578629
v -244.693634 -36.708717 76.239868
v -243.378769 -27.645180 89.578629
v -248.899750 -24.734211 76.088074
v -244.693634 -36.708717 76.239868
v -242.995880 -28.018215 90.274971
v -246.690247 -22.544399 84.391174
v -243.378769 -27.645180 89.578629
v -243.378769 -27.645180 89.578629
v -246.690247 -22.544399 84.391174
v -248.899750 -24.734211 76.088074
v -14.622464 99.431694 199.770813
v -180.019958 5.580767 132.913040
v -235.130066 -40.282688 93.432739
v -235.130066 -40.282688 93.432739
v -180.019958 5.580767 132.913040
v -242.995880 -28.018215 90.274971
v -242.995880 -28.018215 90.274971
v -245.386383 -16.305260 86.046341
v -246.690247 -22.544399 84.391174
v -180.019958 5.580767 132.913040
v -245.386383 -16.305260 86.046341
v -242.995880 -28.018215 90.274971
v -180.019958 5.580767 132.913040
v -194.092636 12.385097 120.379097
v -245.386383 -16.305260 86.046341
v -14.622464 99.431694 199.770813
v -194.091736 12.590104 120.320976
v -180.019958 5.580767 132.913040
v -180.019958 5.580767 132.913040
v -194.091736 12.590104 120.320976
v -194.092636 12.385097 120.379097
v -194.092636 12.385097 120.379097
v -194.091736 12.590104 120.320976
v -245.386383 -16.305260 86.046341
v -159.470520 -86.257545 -55.900822
v -203.699936 -6.799008 -68.694374
v -90.077194 -44.405754 -220.251022
v -231.772369 142.578735 -34.978199
v -233.756073 97.123672 44.299286
v -14.622464 99.431694 199.770813
v -14.622464 99.431694 199.770813
v -233.756073 97.123672 44.299286
v -194.091736 12.590104 120.320976
v -194.091736 12.590104 120.320976
v -233.756073 97.123672 44.299286
v -245.386383 -16.305260 86.046341
v -233.756073 97.123672 44.299286
v -240.299088 87.774765 39.302792
v -245.386383 -16.305260 86.046341
v -231.772369 142.578735 -34.978199
v -240.299088 87.774765 39.302792
v -233.756073 97.123672 44.299286
v -244.693634 -36.708717 76.239868
v -252.122833 6.036836 15.139902
v -159.470520 -86.257545 -55.900822
v -248.899750 -24.734211 76.088074
v -252.122833 6.036836 15.139902
v -244.693634 -36.708717 76.239868
v -252.122833 6.036836 15.139902
v -258.415619 53.589634 -40.325592
v -159.470520 -86.257545 -55.900822
v -248.899750 -24.734211 76.088074
v -258.415619 53.589634 -40.325592
v -252.122833 6.036836 15.139902
v -231.772369 142.578735 -34.978199
v -258.415619 53.589634 -40.325592
v -251.333466 79.544205 -30.488628
v -90.077194 -44.405754 -220.251022
v -237.284683 73.014610 -59.401199
v -231.772369 142.578735 -34.978199
v -231.772369 142.578735 -34.978199
v -237.284683 73.014610 -59.401199
v -258.415619 53.589634 -40.325592
v -159.470520 -86.257545 -55.900822
v -252.647949 50.550728 -47.799072
v -203.699936 -6.799008 -68.694374
v -258.415619 53.589634 -40.325592
v -252.647949 50.550728 -47.799072
v -159.470520 -86.257545 -55.900822
v -203.699936 -6.799008 -68.694374
v -252.647949 50.550728 -47.799072
v -90.077194 -44.405754 -220.251022
v -90.077194 -44.405754 -220.251022
v -252.647949 50.550728 -47.799072
v -237.284683 73.014610 -59.401199
v -237.284683 73.014610 -59.401199
v -252.647949 50.550728 -47.799072
v -258.415619 53.589634 -40.325592
v -246.690247 -22.544399 84.391174
v -258.437958 58.078491 -11.163697
v -248.899750 -24.734211 76.088074
v -245.386383 -16.305260 86.046341
v -258.437958 58.078491 -11.163697
v -246.690247 -22.544399 84.391174
v -240.299088 87.774765 39.302792
v -258.437958 58.078491 -11.163697
v -245.386383 -16.305260 86.046341
v -231.772369 142.578735 -34.978199
v -258.437958 58.078491 -11.163697
v -240.299088 87.774765 39.302792
v -231.772369 142.578735 -34.978199
v -251.333466 79.544205 -30.488628
v -258.437958 58.078491 -11.163697
v -248.899750 -24.734211 76.088074
v -258.437958 58.078491 -11.163697
v -258.415619 53.589634 -40.325592
v -258.415619 53.589634 -40.325592
v -258.437958 58.078491 -11.163697
v -251.333466 79.544205 -30.488628
vn 0.490975 -0.508999 0.707010
vn 0.591000 -0.683215 0.428878
vn 0.503159 -0.736832 0.451564
vn 0.593372 0.721963 -0.355919
vn 0.558489 -0.829145 0.024668
vn 0.290546 -0.826083 0.482877
vn 0.290960 -0.862959 0.413091
vn -0.333654 0.822906 0.459891
vn 0.536698 0.763215 -0.359804
vn -0.435867 -0.898285 0.055721
vn -0.822923 -0.433103 0.367721
vn -0.890499 -0.330701 0.312488
vn -0.900856 -0.312612 0.301218
vn -0.899416 -0.177851 0.399274
vn -0.909835 -0.271600 0.313742
vn 0.168786 -0.751663 0.637585
vn -0.515502 -0.111880 0.849553
vn -0.834452 0.028384 0.550349
vn -0.609545 0.156188 0.777213
vn -0.610528 0.164422 0.774739
vn -0.517319 0.357925 0.777348
vn -0.585820 0.223433 0.779033
vn -0.623604 0.215758 0.751376
vn -0.751631 -0.489555 -0.442025
vn -0.336463 0.820547 0.462055
vn -0.528926 0.416700 0.739323
vn -0.644578 0.321404 0.693699
vn -0.801184 0.277317 0.530282
vn -0.850947 0.464571 0.245077
vn -0.778185 -0.555110 -0.293735
vn -0.936508 -0.330441 -0.117306
vn -0.782111 -0.514150 -0.352068
vn -0.985004 -0.169273 -0.033372
vn -0.953645 0.290288 -0.079337
vn -0.577171 0.310856 -0.755144
vn -0.768929 0.265174 -0.581748
vn -0.758378 -0.491139 -0.428538
vn -0.771301 -0.502160 -0.391062
vn -0.754460 -0.481368 -0.446178
vn -0.693608 0.106399 -0.712451
vn -0.743626 0.175344 -0.645194
vn -0.966492 0.124940 0.224238
vn -0.961999 0.138634 0.235240
vn -0.955169 0.158884 0.249818
vn -0.932480 0.333423 0.138958
vn -0.955278 0.294751 -0.023789
vn -0.994952 -0.099296 0.014522
vn -0.959496 0.278332 -0.043578
f 1//1 2//1 3//1
f 4//2 5//2 6//2
f 7//3 8//3 9//3
f 10//4 11//4 12//4
f 13//5 14//5 15//5
f 16//6 17//6 18//6
f 19//7 20//7 21//7
f 22//8 23//8 24//8
f 25//9 26//9 27//9
f 28//10 29//10 30//10
f 31//11 32//11 33//11
f 34//12 35//12 36//12
f 37//13 38//13 39//13
f 40//14 41//14 42//14
f 43//15 44//15 45//15
f 46//16 47//16 48//16
f 49//17 50//17 51//17
f 52//18 53//18 54//18
f 55//19 56//19 57//19
f 58//20 59//20 60//20
f 61//21 62//21 63//21
f 64//22 65//22 66//22
f 67//23 68//23 69//23
f 70//24 71//24 72//24
f 73//25 74//25 75//25
f 76//26 77//26 78//26
f 79//27 80//27 81//27
f 82//28 83//28 84//28
f 85//29 86//29 87//29
f 88//30 89//30 90//30
f 91//31 92//31 93//31
f 94//32 95//32 96//32
f 97//33 98//33 99//33
f 100//34 101//34 102//34
f 103//35 104//35 105//35
f 106//36 107//36 108//36
f 109//37 110//37 111//37
f 112//38 113//38 114//38
f 115//39 116//39 117//39
f 118//40 119//40 120//40
f 121//41 122//41 123//41
f 124//42 125//42 126//42
f 127//43 128//43 129//43
f 130//44 131//44 132//44
f 133//45 134//45 135//45
f 136//46 137//46 138//46
f 139//47 140//47 141//47
f 142//48 143//48 144//48
