o
v -252.533524 96.561752 10.147584
v -256.660583 82.464821 14.697157
v -252.586060 96.550652 10.175702
v -252.614044 96.554878 10.220264
v -252.586060 96.550652 10.175702
v -256.660583 82.464821 14.697157
v -252.614044 96.554878 10.220264
v -256.660583 82.464821 14.697157
v -252.603470 96.517410 10.326687
v -256.022919 79.967041 15.020492
v -256.796753 37.178040 46.794998
v -256.660583 82.464821 14.697157
v -256.796753 37.178040 46.794998
v -227.326248 12.723223 92.020798
v -229.204407 15.141080 90.954857
v -256.796753 37.178040 46.794998
v -228.074554 13.657351 88.853050
v -227.326248 12.723223 92.020798
v -252.533524 96.561752 10.147584
v -252.586060 96.550652 10.175702
v -241.925446 114.094093 22.931841
v -252.614044 96.554878 10.220264
v -241.925446 114.094093 22.931841
v -252.586060 96.550652 10.175702
v -198.169174 149.188217 54.058353
v -198.163666 149.139526 53.968254
v -241.925446 114.094093 22.931841
v -256.660583 82.464821 14.697157
v -241.934692 114.079514 22.965380
v -252.603470 96.517410 10.326687
v -252.614044 96.554878 10.220264
v -252.603470 96.517410 10.326687
v -241.934692 114.079514 22.965380
v -252.614044 96.554878 10.220264
v -241.934692 114.079514 22.965380
v -241.925446 114.094093 22.931841
v -186.282745 135.818542 91.040680
v -198.169174 149.188217 54.058353
v -241.934692 114.079514 22.965380
v -198.169174 149.188217 54.058353
v -241.925446 114.094093 22.931841
v -241.934692 114.079514 22.965380
v -252.533524 96.561752 10.147584
v -249.652954 80.131393 11.954602
v -256.660583 82.464821 14.697157
v -256.022919 79.967041 15.020492
v -256.660583 82.464821 14.697157
v -249.652954 80.131393 11.954602
v -184.937531 85.246536 145.991196
v -232.368713 45.569290 112.281937
v -226.554306 12.771483 92.203987
v -227.326248 12.723223 92.020798
v -226.554306 12.771483 92.203987
v -232.368713 45.569290 112.281937
v -227.326248 12.723223 92.020798
v -232.368713 45.569290 112.281937
v -229.204407 15.141080 90.954857
v -256.796753 37.178040 46.794998
v -232.368713 45.569290 112.281937
v -256.660583 82.464821 14.697157
v -256.660583 82.464821 14.697157
v -232.368713 45.569290 112.281937
v -241.934692 114.079514 22.965380
v -184.937531 85.246536 145.991196
v -147.780945 69.223328 98.885300
v -147.206909 71.040497 97.101395
v -147.780945 69.223328 98.885300
v -147.160095 70.641029 96.167152
v -147.206909 71.040497 97.101395
v -252.533524 96.561752 10.147584
v -241.925446 114.094093 22.931841
v -238.784058 112.050735 20.297026
v -198.163666 149.139526 53.968254
v -238.784058 112.050735 20.297026
v -241.925446 114.094093 22.931841
v -147.160095 70.641029 96.167152
v -139.050491 88.242851 55.914711
v -147.206909 71.040497 97.101395
v -198.169174 149.188217 54.058353
v -172.027435 133.711121 46.488625
v -198.163666 149.139526 53.968254
v -256.796753 37.178040 46.794998
v -229.204407 15.141080 90.954857
v -236.618301 25.695354 85.182022
v -232.368713 45.569290 112.281937
v -236.618301 25.695354 85.182022
v -229.204407 15.141080 90.954857
v -256.796753 37.178040 46.794998
v -236.618301 25.695354 85.182022
v -232.368713 45.569290 112.281937
v -186.282745 135.818542 91.040680
v -158.994080 123.704453 60.225105
v -198.169174 149.188217 54.058353
v -198.169174 149.188217 54.058353
v -158.994080 123.704453 60.225105
v -172.027435 133.711121 46.488625
v -139.656952 92.105255 37.920399
v -158.994080 123.704453 60.225105
v -139.050491 88.242851 55.914711
v -172.027435 133.711121 46.488625
v -184.809998 138.548172 47.943260
v -198.163666 149.139526 53.968254
v -172.027435 133.711121 46.488625
v -162.588379 126.031631 47.936733
v -139.656952 92.105255 37.920399
v -158.994080 123.704453 60.225105
v -162.588379 126.031631 47.936733
v -172.027435 133.711121 46.488625
v -139.656952 92.105255 37.920399
v -162.588379 126.031631 47.936733
v -158.994080 123.704453 60.225105
v -139.656952 92.105255 37.920399
v -139.050491 88.242851 55.914711
v -141.863602 71.067772 30.240002
v -256.022919 79.967041 15.020492
v -246.857422 50.834614 20.088207
v -256.796753 37.178040 46.794998
v -184.937531 85.246536 145.991196
v -177.409744 117.266685 99.687225
v -186.282745 135.818542 91.040680
v -139.656952 92.105255 37.920399
v -141.863602 71.067772 30.240002
v -147.057922 80.312897 21.539473
v -172.027435 133.711121 46.488625
v -139.656952 92.105255 37.920399
v -147.057922 80.312897 21.539473
v -252.533524 96.561752 10.147584
v -238.784058 112.050735 20.297026
v -234.621567 102.331223 11.813823
v -198.163666 149.139526 53.968254
v -234.621567 102.331223 11.813823
v -238.784058 112.050735 20.297026
v -139.050491 88.242851 55.914711
v -145.158173 86.507141 76.989716
v -147.206909 71.040497 97.101395
v -158.994080 123.704453 60.225105
v -145.158173 86.507141 76.989716
v -139.050491 88.242851 55.914711
v -186.282745 135.818542 91.040680
v -157.433563 93.914955 97.352562
v -158.994080 123.704453 60.225105
v -177.409744 117.266685 99.687225
v -157.433563 93.914955 97.352562
v -186.282745 135.818542 91.040680
v -184.937531 85.246536 145.991196
v -147.206909 71.040497 97.101395
v -157.433563 93.914955 97.352562
v -184.937531 85.246536 145.991196
v -157.433563 93.914955 97.352562
v -177.409744 117.266685 99.687225
v -158.994080 123.704453 60.225105
v -157.433563 93.914955 97.352562
v -145.158173 86.507141 76.989716
v -145.158173 86.507141 76.989716
v -157.433563 93.914955 97.352562
v -147.206909 71.040497 97.101395
v -141.863602 71.067772 30.240002
v -151.241608 57.973267 16.772524
v -147.057922 80.312897 21.539473
v -141.863602 71.067772 30.240002
v -145.542435 64.615227 27.951996
v -151.241608 57.973267 16.772524
v -139.050491 88.242851 55.914711
v -141.680710 73.144905 43.676167
v -141.863602 71.067772 30.240002
v -256.022919 79.967041 15.020492
v -249.652954 80.131393 11.954602
v -241.417328 46.615170 18.814905
v -256.022919 79.967041 15.020492
v -241.417328 46.615170 18.814905
v -246.857422 50.834614 20.088207
v -246.857422 50.834614 20.088207
v -241.417328 46.615170 18.814905
v -256.796753 37.178040 46.794998
v -147.780945 69.223328 98.885300
v -150.724609 62.128254 87.846573
v -147.136032 67.206161 84.154541
v -184.937531 85.246536 145.991196
v -226.554306 12.771483 92.203987
v -209.239426 25.785324 98.581276
v -147.780945 69.223328 98.885300
v -143.808792 69.685684 61.191898
v -147.160095 70.641029 96.167152
v -147.160095 70.641029 96.167152
v -143.808792 69.685684 61.191898
v -139.050491 88.242851 55.914711
v -139.050491 88.242851 55.914711
v -143.808792 69.685684 61.191898
v -141.680710 73.144905 43.676167
v -141.863602 71.067772 30.240002
v -143.808792 69.685684 61.191898
v -145.542435 64.615227 27.951996
v -147.780945 69.223328 98.885300
v -147.136032 67.206161 84.154541
v -143.808792 69.685684 61.191898
v -141.680710 73.144905 43.676167
v -143.808792 69.685684 61.191898
v -141.863602 71.067772 30.240002
v -145.542435 64.615227 27.951996
v -171.123459 25.113516 23.591413
v -151.241608 57.973267 16.772524
v -172.027435 133.711121 46.488625
v -147.057922 80.312897 21.539473
v -160.323883 77.244469 9.320770
v -151.241608 57.973267 16.772524
v -160.323883 77.244469 9.320770
v -147.057922 80.312897 21.539473
v -252.533524 96.561752 10.147584
v -235.568207 76.459564 9.187950
v -249.652954 80.131393 11.954602
v -249.652954 80.131393 11.954602
v -235.568207 76.459564 9.187950
v -241.417328 46.615170 18.814905
v -184.937531 85.246536 145.991196
v -209.239426 25.785324 98.581276
v -205.589844 26.728142 97.999748
v -226.554306 12.771483 92.203987
v -205.589844 26.728142 97.999748
v -209.239426 25.785324 98.581276
v -228.074554 13.657351 88.853050
v -182.665894 14.920012 42.507740
v -227.326248 12.723223 92.020798
v -227.326248 12.723223 92.020798
v -182.665894 14.920012 42.507740
v -226.554306 12.771483 92.203987
v -256.796753 37.178040 46.794998
v -226.885101 28.076609 29.044912
v -228.074554 13.657351 88.853050
v -228.074554 13.657351 88.853050
v -226.885101 28.076609 29.044912
v -182.665894 14.920012 42.507740
v -241.417328 46.615170 18.814905
v -226.885101 28.076609 29.044912
v -256.796753 37.178040 46.794998
v -241.417328 46.615170 18.814905
v -171.123459 25.113516 23.591413
v -226.885101 28.076609 29.044912
v -143.808792 69.685684 61.191898
v -163.507156 36.381943 27.442631
v -145.542435 64.615227 27.951996
v -145.542435 64.615227 27.951996
v -163.507156 36.381943 27.442631
v -171.123459 25.113516 23.591413
v -182.665894 14.920012 42.507740
v -179.094376 16.126274 55.144890
v -226.554306 12.771483 92.203987
v -182.665894 14.920012 42.507740
v -171.123459 25.113516 23.591413
v -179.094376 16.126274 55.144890
v -184.937531 85.246536 145.991196
v -168.760483 35.445847 87.987503
v -147.780945 69.223328 98.885300
v -147.780945 69.223328 98.885300
v -168.760483 35.445847 87.987503
v -150.724609 62.128254 87.846573
v -184.809998 138.548172 47.943260
v -205.656281 124.226791 33.263817
v -198.163666 149.139526 53.968254
v -198.163666 149.139526 53.968254
v -205.656281 124.226791 33.263817
v -234.621567 102.331223 11.813823
v -172.027435 133.711121 46.488625
v -205.656281 124.226791 33.263817
v -184.809998 138.548172 47.943260
v -172.027435 133.711121 46.488625
v -234.621567 102.331223 11.813823
v -205.656281 124.226791 33.263817
v -184.937531 85.246536 145.991196
v -205.589844 26.728142 97.999748
v -183.147888 42.327671 103.610443
v -184.937531 85.246536 145.991196
v -183.147888 42.327671 103.610443
v -168.760483 35.445847 87.987503
v -168.760483 35.445847 87.987503
v -183.147888 42.327671 103.610443
v -205.589844 26.728142 97.999748
v -226.554306 12.771483 92.203987
v -181.507431 23.757507 80.475868
v -205.589844 26.728142 97.999748
v -168.760483 35.445847 87.987503
v -205.589844 26.728142 97.999748
v -181.507431 23.757507 80.475868
v -179.094376 16.126274 55.144890
v -181.507431 23.757507 80.475868
v -226.554306 12.771483 92.203987
v -168.760483 35.445847 87.987503
v -181.507431 23.757507 80.475868
v -179.094376 16.126274 55.144890
v -252.533524 96.561752 10.147584
v -220.752167 83.573914 5.097312
v -235.568207 76.459564 9.187950
v -235.568207 76.459564 9.187950
v -224.751648 74.839325 7.419483
v -241.417328 46.615170 18.814905
v -220.752167 83.573914 5.097312
v -224.751648 74.839325 7.419483
v -235.568207 76.459564 9.187950
v -226.885101 28.076609 29.044912
v -185.533859 24.216022 27.391432
v -182.665894 14.920012 42.507740
v -171.123459 25.113516 23.591413
v -185.533859 24.216022 27.391432
v -226.885101 28.076609 29.044912
v -182.665894 14.920012 42.507740
v -185.533859 24.216022 27.391432
v -171.123459 25.113516 23.591413
v -171.123459 25.113516 23.591413
v -171.560532 49.490101 13.666990
v -151.241608 57.973267 16.772524
v -151.241608 57.973267 16.772524
v -172.128647 49.614868 13.467583
v -160.323883 77.244469 9.320770
v -171.560532 49.490101 13.666990
v -172.128647 49.614868 13.467583
v -151.241608 57.973267 16.772524
v -171.123459 25.113516 23.591413
v -172.128647 49.614868 13.467583
v -171.560532 49.490101 13.666990
v -252.533524 96.561752 10.147584
v -234.621567 102.331223 11.813823
v -214.602448 85.031357 4.862697
v -252.533524 96.561752 10.147584
v -214.602448 85.031357 4.862697
v -220.752167 83.573914 5.097312
v -160.323883 77.244469 9.320770
v -214.602448 85.031357 4.862697
v -234.621567 102.331223 11.813823
v -150.724609 62.128254 87.846573
v -170.050217 29.207403 62.099026
v -147.136032 67.206161 84.154541
v -147.136032 67.206161 84.154541
v -170.050217 29.207403 62.099026
v -143.808792 69.685684 61.191898
v -163.507156 36.381943 27.442631
v -170.050217 29.207403 62.099026
v -171.123459 25.113516 23.591413
v -171.123459 25.113516 23.591413
v -170.050217 29.207403 62.099026
v -179.094376 16.126274 55.144890
v -143.808792 69.685684 61.191898
v -170.050217 29.207403 62.099026
v -163.507156 36.381943 27.442631
v -168.760483 35.445847 87.987503
v -170.050217 29.207403 62.099026
v -150.724609 62.128254 87.846573
v -168.760483 35.445847 87.987503
v -179.094376 16.126274 55.144890
v -170.050217 29.207403 62.099026
v -220.752167 83.573914 5.097312
v -178.276505 63.925831 8.117137
v -224.751648 74.839325 7.419483
v -172.128647 49.614868 13.467583
v -178.276505 63.925831 8.117137
v -160.323883 77.244469 9.320770
v -224.751648 74.839325 7.419483
v -218.305618 69.132500 8.840652
v -241.417328 46.615170 18.814905
v -178.276505 63.925831 8.117137
v -218.305618 69.132500 8.840652
v -224.751648 74.839325 7.419483
v -160.323883 77.244469 9.320770
v -180.544098 66.710190 7.569176
v -214.602448 85.031357 4.862697
v -178.276505 63.925831 8.117137
v -180.544098 66.710190 7.569176
v -160.323883 77.244469 9.320770
v -214.602448 85.031357 4.862697
v -180.544098 66.710190 7.569176
v -220.752167 83.573914 5.097312
v -220.752167 83.573914 5.097312
v -180.544098 66.710190 7.569176
v -178.276505 63.925831 8.117137
v -172.027435 133.711121 46.488625
v -160.323883 77.244469 9.320770
v -191.621826 97.204315 16.292156
v -172.027435 133.711121 46.488625
v -191.621826 97.204315 16.292156
v -234.621567 102.331223 11.813823
v -160.323883 77.244469 9.320770
v -234.621567 102.331223 11.813823
v -191.621826 97.204315 16.292156
v -241.417328 46.615170 18.814905
v -194.039352 45.881756 15.624871
v -171.123459 25.113516 23.591413
v -171.123459 25.113516 23.591413
v -194.039352 45.881756 15.624871
v -172.128647 49.614868 13.467583
v -172.128647 49.614868 13.467583
v -194.039352 45.881756 15.624871
v -178.276505 63.925831 8.117137
v -218.305618 69.132500 8.840652
v -194.039352 45.881756 15.624871
v -241.417328 46.615170 18.814905
v -184.937531 85.246536 145.991196
v -223.257278 85.338242 86.331711
v -232.368713 45.569290 112.281937
v -184.937531 85.246536 145.991196
v -186.282745 135.818542 91.040680
v -223.257278 85.338242 86.331711
v -186.282745 135.818542 91.040680
v -241.934692 114.079514 22.965380
v -223.257278 85.338242 86.331711
v -232.368713 45.569290 112.281937
v -223.257278 85.338242 86.331711
v -241.934692 114.079514 22.965380
v -178.276505 63.925831 8.117137
v -195.793106 63.462044 9.310749
v -218.305618 69.132500 8.840652
v -194.039352 45.881756 15.624871
v -195.793106 63.462044 9.310749
v -178.276505 63.925831 8.117137
v -218.305618 69.132500 8.840652
v -195.793106 63.462044 9.310749
v -194.039352 45.881756 15.624871
vn -0.440160 -0.156493 -0.884177
vn -0.841611 0.071616 -0.535315
vn -0.920665 0.330437 0.207815
vn -0.878149 -0.274869 -0.391538
vn -0.814986 -0.523811 0.247831
vn -0.504827 -0.853023 -0.132292
vn -0.450160 0.687701 -0.569582
vn -0.592448 0.677244 -0.436286
vn -0.329048 0.822203 -0.464446
vn -0.896649 0.345122 0.277329
vn -0.896103 0.383203 0.223952
vn -0.851649 0.524067 -0.006985
vn -0.730699 0.532417 0.427330
vn -0.674893 0.726425 0.129715
vn -0.407752 -0.170150 -0.897099
vn -0.418345 -0.220849 -0.881030
vn -0.143970 -0.535111 0.832424
vn -0.163061 -0.535988 0.828328
vn -0.787006 -0.406885 0.463752
vn -0.921830 0.225969 0.314908
vn -0.882998 0.321971 0.341539
vn 0.798202 0.274332 0.536298
vn 0.974833 -0.183124 0.127149
vn -0.191963 0.651402 -0.734047
vn -0.098658 0.725960 -0.680624
vn 0.977653 -0.171098 0.122148
vn 0.366958 0.827579 -0.424799
vn -0.848664 -0.421028 0.320165
vn -0.838083 -0.368870 0.401935
vn -0.876044 -0.312958 0.366885
vn 0.525297 0.840159 0.134896
vn 0.529755 0.840988 0.109999
vn 0.873039 0.481998 0.074035
vn 0.148847 0.624034 -0.767089
vn 0.547612 0.555009 -0.626168
vn 0.634232 0.772144 -0.039281
vn 0.804408 0.580710 -0.125311
vn 0.994993 -0.085429 -0.051871
vn -0.812253 -0.338217 -0.475240
vn 0.674467 0.551409 0.490961
vn 0.888338 0.072368 -0.453451
vn 0.537815 0.550016 -0.638934
vn -0.127895 0.620512 -0.773698
vn 0.017248 0.661651 -0.749614
vn 0.923527 0.252762 0.288462
vn 0.850277 0.443800 0.282967
vn 0.718135 0.557208 0.416896
vn 0.695683 0.548776 0.463541
vn 0.788550 0.346968 0.507743
vn 0.687834 0.539899 0.485174
vn 0.825594 0.456542 0.331609
vn 0.847918 0.374970 0.374742
vn 0.838169 -0.040915 -0.543873
vn 0.880348 -0.434269 -0.190783
vn 0.982930 -0.183370 0.014968
vn -0.410667 -0.278613 -0.868175
vn -0.420779 -0.282350 -0.862104
vn -0.593587 -0.605246 -0.530406
vn 0.847261 -0.520019 0.108302
vn 0.236746 -0.663010 0.710189
vn 0.967260 -0.233654 0.099064
vn 0.970316 -0.220648 0.099002
vn 0.970878 -0.228219 0.072886
vn 0.863398 -0.503522 0.031777
vn 0.920371 -0.379991 0.092328
vn 0.932772 -0.357937 0.042638
vn 0.839664 -0.531357 -0.112361
vn 0.495206 0.546942 -0.675001
vn 0.673178 0.031580 -0.738806
vn -0.227130 -0.145721 -0.962900
vn -0.249495 -0.252654 -0.934836
vn 0.282080 -0.665937 0.690622
vn 0.285176 -0.700178 0.654542
vn -0.209149 -0.950254 -0.230811
vn 0.060057 -0.998146 0.009885
vn -0.402096 -0.888240 -0.222144
vn -0.211462 -0.949195 -0.233049
vn -0.514015 -0.686636 -0.514120
vn -0.110247 -0.545054 -0.831121
vn 0.842769 -0.536935 0.037950
vn 0.840059 -0.532672 -0.102764
vn 0.117912 -0.991131 0.061283
vn 0.577063 -0.812206 -0.085562
vn 0.556480 -0.547320 0.625117
vn 0.820976 -0.554211 0.137288
vn 0.131224 0.609993 -0.781466
vn 0.113466 0.614627 -0.780615
vn 0.138821 0.603079 -0.785509
vn 0.148818 0.584517 -0.797617
vn 0.291244 -0.665996 0.686751
vn 0.411357 -0.631689 0.657080
vn 0.336425 -0.707519 0.621478
vn 0.332554 -0.741517 0.582718
vn 0.333924 -0.739665 0.584286
vn 0.299236 -0.905373 0.301259
vn 0.549125 -0.784330 0.288598
vn -0.206418 -0.127898 -0.970069
vn -0.194265 -0.266456 -0.944067
vn -0.184100 -0.172941 -0.967574
vn -0.100194 -0.855901 -0.507340
vn -0.098986 -0.816848 -0.568297
vn -0.081410 -0.855808 -0.510847
vn 0.285024 -0.357047 -0.889539
vn 0.246797 -0.246118 -0.937292
vn 0.260610 -0.286728 -0.921884
vn 0.236709 -0.362716 -0.901336
vn -0.024850 0.347825 -0.937230
vn -0.080804 0.183240 -0.979742
vn 0.142516 0.506582 -0.850332
vn 0.836958 -0.543228 0.066367
vn 0.838081 -0.541905 0.062921
vn 0.821925 -0.568359 0.037517
vn 0.812022 -0.582303 0.039275
vn 0.838683 -0.542674 0.045998
vn 0.825109 -0.557237 0.093174
vn 0.790693 -0.602981 0.105911
vn -0.041537 -0.238905 -0.970154
vn 0.244968 -0.245436 -0.937951
vn -0.084581 -0.329697 -0.940290
vn -0.056322 -0.300706 -0.952052
vn 0.082816 0.006738 -0.996542
vn 0.131145 -0.087533 -0.987491
vn -0.002156 -0.150058 -0.988675
vn -0.031209 -0.217411 -0.975581
vn 0.182426 0.566686 -0.803485
vn 0.152496 0.580029 -0.800195
vn 0.149972 0.527277 -0.836354
vn -0.067417 -0.421312 -0.904406
vn -0.025733 -0.382655 -0.923533
vn -0.030183 -0.361387 -0.931927
vn -0.068374 -0.344552 -0.936274
vn -0.738236 0.479028 0.474911
vn -0.732043 0.492256 0.470953
vn -0.741398 0.501439 0.445969
vn -0.771747 0.461978 0.437016
vn -0.056746 -0.304127 -0.950940
vn -0.054850 -0.342352 -0.937969
vn -0.066873 -0.343164 -0.936892
f 1//1 2//1 3//1
f 4//2 5//2 6//2
f 7//3 8//3 9//3
f 10//4 11//4 12//4
f 13//5 14//5 15//5
f 16//6 17//6 18//6
f 19//7 20//7 21//7
f 22//8 23//8 24//8
f 25//9 26//9 27//9
f 28//10 29//10 30//10
f 31//11 32//11 33//11
f 34//12 35//12 36//12
f 37//13 38//13 39//13
f 40//14 41//14 42//14
f 43//15 44//15 45//15
f 46//16 47//16 48//16
f 49//17 50//17 51//17
f 52//18 53//18 54//18
f 55//19 56//19 57//19
f 58//20 59//20 60//20
f 61//21 62//21 63//21
f 64//22 65//22 66//22
f 67//23 68//23 69//23
f 70//24 71//24 72//24
f 73//25 74//25 75//25
f 76//26 77//26 78//26
f 79//27 80//27 81//27
f 82//28 83//28 84//28
f 85//29 86//29 87//29
f 88//30 89//30 90//30
f 91//31 92//31 93//31
f 94//32 95//32 96//32
f 97//33 98//33 99//33
f 100//34 101//34 102//34
f 103//35 104//35 105//35
f 106//36 107//36 108//36
f 109//37 110//37 111//37
f 112//38 113//38 114//38
f 115//39 116//39 117//39
f 118//40 119//40 120//40
f 121//41 122//41 123//41
f 124//42 125//42 126//42
f 127//43 128//43 129//43
f 130//44 131//44 132//44
f 133//45 134//45 135//45
f 136//46 137//46 138//46
f 139//47 140//47 141//47
f 142//48 143//48 144//48
f 145//49 146//49 147//49
f 148//50 149//50 150//50
f 151//51 152//51 153//51
f 154//52 155//52 156//52
f 157//53 158//53 159//53
f 160//54 161//54 162//54
f 163//55 164//55 165//55
f 166//56 167//56 168//56
f 169//57 170//57 171//57
f 172//58 173//58 174//58
f 175//59 176//59 177//59
f 178//60 179//60 180//60
f 181//61 182//61 183//61
f 184//62 185//62 186//62
f 187//63 188//63 189//63
f 190//64 191//64 192//64
f 193//65 194//65 195//65
f 196//66 197//66 198//66
f 199//67 200//67 201//67
f 202//68 203//68 204//68
f 205//69 206//69 207//69
f 208//70 209//70 210//70
f 211//71 212//71 213//71
f 214//72 215//72 216//72
f 217//73 218//73 219//73
f 220//74 221//74 222//74
f 223//75 224//75 225//75
f 226//76 227//76 228//76
f 229//77 230//77 231//77
f 232//78 233//78 234//78
f 235//79 236//79 237//79
f 238//80 239//80 240//80
f 241//81 242//81 243//81
f 244//82 245//82 246//82
f 247//83 248//83 249//83
f 250//84 251//84 252//84
f 253//85 254//85 255//85
f 256//86 257//86 258//86
f 259//87 260//87 261//87
f 262//88 263//88 264//88
f 265//89 266//89 267//89
f 268//90 269//90 270//90
f 271//91 272//91 273//91
f 274//92 275//92 276//92
f 277//93 278//93 279//93
f 280//94 281//94 282//94
f 283//95 284//95 285//95
f 286//96 287//96 288//96
f 289//97 290//97 291//97
f 292//98 293//98 294//98
f 295//99 296//99 297//99
f 298//100 299//100 300//100
f 301//101 302//101 303//101
f 304//102 305//102 306//102
f 307//103 308//103 309//103
f 310//104 311//104 312//104
f 313//105 314//105 315//105
f 316//106 317//106 318//106
f 319//107 320//107 321//107
f 322//108 323//108 324//108
f 325//109 326//109 327//109
f 328//110 329//110 330//110
f 331//111 332//111 333//111
f 334//112 335//112 336//112
f 337//113 338//113 339//113
f 340//114 341//114 342//114
f 343//115 344//115 345//115
f 346//116 347//116 348//116
f 349//117 350//117 351//117
f 352//118 353//118 354//118
f 355//119 356//119 357//119
f 358//120 359//120 360//120
f 361//121 362//121 363//121
f 364//122 365//122 366//122
f 367//123 368//123 369//123
f 370//124 371//124 372//124
f 373//125 374//125 375//125
f 376//126 377//126 378//126
f 379//127 380//127 381//127
f 382//128 383//128 384//128
f 385//129 386//129 387//129
f 388//130 389//130 390//130
f 391//131 392//131 393//131
f 394//132 395//132 396//132
f 397//133 398//133 399//133
f 400//134 401//134 402//134
f 403//135 404//135 405//135
f 406//136 407//136 408//136
f 409//137 410//137 411//137
f 412//138 413//138 414//138
