o
v -139.001785 98.299530 -172.420029
v -34.032402 201.625336 42.642658
v -97.875633 94.501335 -168.413193
v -139.001785 98.299530 -172.420029
v -97.875633 94.501335 -168.413193
v 78.024284 -147.945557 -178.997116
v 78.038002 -147.947586 -178.994293
v 78.024284 -147.945557 -178.997116
v -97.875633 94.501335 -168.413193
v -40.478222 89.082352 191.035614
v -9.250071 25.986252 197.050766
v -40.419128 89.068863 190.997742
v -40.478222 89.082352 191.035614
v -34.032402 201.625336 42.642658
v -106.531807 107.892937 79.960258
v -40.478222 89.082352 191.035614
v -106.531807 107.892937 79.960258
v -216.358353 -74.034142 -48.450352
v -139.001785 98.299530 -172.420029
v -106.531807 107.892937 79.960258
v -34.032402 201.625336 42.642658
v -139.001785 98.299530 -172.420029
v -216.358353 -74.034142 -48.450352
v -106.531807 107.892937 79.960258
v 78.038002 -147.947586 -178.994293
v -97.875633 94.501335 -168.413193
v 156.588120 -35.366322 -101.143852
v -40.478222 89.082352 191.035614
v -40.419128 89.068863 190.997742
v 91.370064 119.146133 34.778820
v -40.478222 89.082352 191.035614
v 91.370064 119.146133 34.778820
v -34.032402 201.625336 42.642658
v -34.032402 201.625336 42.642658
v 91.370064 119.146133 34.778820
v -97.875633 94.501335 -168.413193
v -97.875633 94.501335 -168.413193
v 91.370064 119.146133 34.778820
v 156.588120 -35.366322 -101.143852
v -139.001785 98.299530 -172.420029
v 78.024284 -147.945557 -178.997116
v 30.079842 -167.403992 -158.711823
v 78.038002 -147.947586 -178.994293
v 30.286238 -196.609848 -134.484421
v 78.024284 -147.945557 -178.997116
v 78.024284 -147.945557 -178.997116
v 30.286238 -196.609848 -134.484421
v 30.079842 -167.403992 -158.711823
v -40.478222 89.082352 191.035614
v -69.079468 -49.252384 166.468201
v -9.250071 25.986252 197.050766
v 78.038002 -147.947586 -178.994293
v 87.289917 -192.070236 -101.930466
v 30.286238 -196.609848 -134.484421
v -40.478222 89.082352 191.035614
v -216.358353 -74.034142 -48.450352
v -148.230255 -145.954346 77.776443
v -40.478222 89.082352 191.035614
v -148.230255 -145.954346 77.776443
v -69.079468 -49.252384 166.468201
v 87.289917 -192.070236 -101.930466
v 36.761890 -198.692322 -125.406235
v 30.286238 -196.609848 -134.484421
v 110.617340 -221.221756 23.755070
v 36.859089 -198.718567 -125.278107
v 87.289917 -192.070236 -101.930466
v 87.289917 -192.070236 -101.930466
v 36.859089 -198.718567 -125.278107
v 36.761890 -198.692322 -125.406235
v -216.358353 -74.034142 -48.450352
v -153.313431 -155.330322 25.236916
v -148.230255 -145.954346 77.776443
v -69.079468 -49.252384 166.468201
v 54.102779 -97.532288 154.293716
v -9.250071 25.986252 197.050766
v -148.230255 -145.954346 77.776443
v 54.102779 -97.532288 154.293716
v -69.079468 -49.252384 166.468201
v 110.617340 -221.221756 23.755070
v 54.298550 -97.319008 153.917114
v 54.102779 -97.532288 154.293716
v -9.250071 25.986252 197.050766
v 63.158459 26.106909 128.015106
v -40.419128 89.068863 190.997742
v -40.419128 89.068863 190.997742
v 63.158459 26.106909 128.015106
v 91.370064 119.146133 34.778820
v 54.102779 -97.532288 154.293716
v 63.158459 26.106909 128.015106
v -9.250071 25.986252 197.050766
v 91.370064 119.146133 34.778820
v 63.158459 26.106909 128.015106
v 156.588120 -35.366322 -101.143852
v 54.298550 -97.319008 153.917114
v 63.158459 26.106909 128.015106
v 54.102779 -97.532288 154.293716
v 78.038002 -147.947586 -178.994293
v 156.588120 -35.366322 -101.143852
v 111.061928 -189.400238 -45.602264
v 78.038002 -147.947586 -178.994293
v 111.061928 -189.400238 -45.602264
v 87.289917 -192.070236 -101.930466
v 110.617340 -221.221756 23.755070
v 87.289917 -192.070236 -101.930466
v 111.061928 -189.400238 -45.602264
v 110.617340 -221.221756 23.755070
v 111.061928 -189.400238 -45.602264
v 156.588120 -35.366322 -101.143852
v -139.001785 98.299530 -172.420029
v -114.702675 -156.345703 -90.932808
v -216.358353 -74.034142 -48.450352
v -139.001785 98.299530 -172.420029
v 30.079842 -167.403992 -158.711823
v -114.702675 -156.345703 -90.932808
v -216.358353 -74.034142 -48.450352
v -114.702675 -156.345703 -90.932808
v -153.313431 -155.330322 25.236916
v 30.286238 -196.609848 -134.484421
v -18.940516 -180.908966 -127.306030
v 30.079842 -167.403992 -158.711823
v 30.079842 -167.403992 -158.711823
v -18.940516 -180.908966 -127.306030
v -114.702675 -156.345703 -90.932808
v -153.313431 -155.330322 25.236916
v -7.350419 -238.111557 6.585738
v -148.230255 -145.954346 77.776443
v 110.617340 -221.221756 23.755070
v -7.350419 -238.111557 6.585738
v -5.300050 -236.257996 -7.642957
v -114.702675 -156.345703 -90.932808
v -9.416560 -232.284897 -29.326271
v -153.313431 -155.330322 25.236916
v -153.313431 -155.330322 25.236916
v -9.416560 -232.284897 -29.326271
v -7.350419 -238.111557 6.585738
v 110.617340 -221.221756 23.755070
v -9.416560 -232.284897 -29.326271
v 36.859089 -198.718567 -125.278107
v 110.617340 -221.221756 23.755070
v -5.300050 -236.257996 -7.642957
v -9.416560 -232.284897 -29.326271
v 36.859089 -198.718567 -125.278107
v -9.416560 -232.284897 -29.326271
v 36.761890 -198.692322 -125.406235
v 36.761890 -198.692322 -125.406235
v -9.416560 -232.284897 -29.326271
v 30.286238 -196.609848 -134.484421
v 30.286238 -196.609848 -134.484421
v -9.416560 -232.284897 -29.326271
v -18.940516 -180.908966 -127.306030
v -18.940516 -180.908966 -127.306030
v -9.416560 -232.284897 -29.326271
v -114.702675 -156.345703 -90.932808
v -7.350419 -238.111557 6.585738
v -9.416560 -232.284897 -29.326271
v -5.300050 -236.257996 -7.642957
v 110.617340 -221.221756 23.755070
v 54.102779 -97.532288 154.293716
v 62.162334 -151.357300 102.851173
v 110.617340 -221.221756 23.755070
v 77.893402 -53.797840 102.358856
v 54.298550 -97.319008 153.917114
v 54.298550 -97.319008 153.917114
v 77.893402 -53.797840 102.358856
v 63.158459 26.106909 128.015106
v 63.158459 26.106909 128.015106
v 77.893402 -53.797840 102.358856
v 156.588120 -35.366322 -101.143852
v 110.617340 -221.221756 23.755070
v 156.588120 -35.366322 -101.143852
v 77.893402 -53.797840 102.358856
v 110.617340 -221.221756 23.755070
v 5.205569 -160.082794 97.040665
v -7.350419 -238.111557 6.585738
v 110.617340 -221.221756 23.755070
v 62.162334 -151.357300 102.851173
v 5.205569 -160.082794 97.040665
v -148.230255 -145.954346 77.776443
v 5.205569 -160.082794 97.040665
v 54.102779 -97.532288 154.293716
v 54.102779 -97.532288 154.293716
v 5.205569 -160.082794 97.040665
v 62.162334 -151.357300 102.851173
v -7.350419 -238.111557 6.585738
v 5.205569 -160.082794 97.040665
v -148.230255 -145.954346 77.776443
vn 0.126896 0.868486 -0.479196
vn 0.107315 0.120940 -0.986842
vn 0.226363 0.205793 -0.952055
vn 0.560823 0.349137 0.750721
vn -0.599874 0.649823 0.466777
vn -0.840811 0.138148 0.523404
vn -0.773927 0.628738 0.075670
vn -0.880607 0.464093 0.095653
vn 0.392197 0.322170 -0.861619
vn 0.506016 0.660965 0.554142
vn 0.485380 0.686340 0.541612
vn 0.450617 0.733622 -0.508668
vn 0.491414 0.682904 -0.540514
vn -0.295842 -0.236015 -0.925621
vn 0.044014 -0.697442 -0.715288
vn -0.066165 -0.637337 -0.767739
vn -0.361026 -0.090196 0.928183
vn 0.347168 -0.795271 -0.497009
vn -0.839444 0.130646 0.527509
vn -0.769735 0.046072 0.636698
vn 0.304830 -0.857634 -0.414177
vn 0.244335 -0.933653 -0.261901
vn 0.301483 -0.862961 -0.405471
vn -0.847739 -0.501894 0.171584
vn -0.043206 -0.346527 0.937044
vn -0.155524 -0.595544 0.788124
vn 0.897744 -0.051533 0.437493
vn 0.638080 0.379556 0.669918
vn 0.645770 0.433829 0.628310
vn 0.686306 0.102767 0.720016
vn 0.930302 0.077241 0.358570
vn 0.877895 0.037170 0.477409
vn 0.865827 -0.375242 -0.330963
vn 0.846240 -0.412197 -0.337597
vn 0.732804 -0.620222 -0.279864
vn 0.933548 -0.328029 -0.144517
vn -0.564316 -0.299973 -0.769132
vn -0.422217 -0.312579 -0.850898
vn -0.667321 -0.712892 -0.215563
vn -0.301428 -0.610025 -0.732810
vn -0.413363 -0.400861 -0.817583
vn -0.464106 -0.863151 0.198936
vn 0.155962 -0.982117 -0.105465
vn -0.512634 -0.842990 -0.163014
vn -0.500946 -0.858401 -0.110453
vn 0.193585 -0.951410 -0.239465
vn 0.181616 -0.960578 -0.210489
vn 0.111417 -0.953558 -0.279844
vn 0.095982 -0.953081 -0.287096
vn -0.330858 -0.848601 -0.412806
vn -0.368114 -0.837683 -0.403459
vn -0.154880 -0.976551 -0.149533
vn 0.233598 -0.653303 0.720158
vn 0.913242 -0.012688 0.407221
vn 0.900320 0.026539 0.434419
vn 0.929642 0.054421 0.364423
vn 0.932241 0.012433 0.361625
vn 0.013636 -0.758066 0.652035
vn 0.043662 -0.735354 0.676275
vn -0.153820 -0.599023 0.785819
vn 0.031463 -0.688118 0.724916
vn -0.150536 -0.738142 0.657636
f 1//1 2//1 3//1
f 4//2 5//2 6//2
f 7//3 8//3 9//3
f 10//4 11//4 12//4
f 13//5 14//5 15//5
f 16//6 17//6 18//6
f 19//7 20//7 21//7
f 22//8 23//8 24//8
f 25//9 26//9 27//9
f 28//10 29//10 30//10
f 31//11 32//11 33//11
f 34//12 35//12 36//12
f 37//13 38//13 39//13
f 40//14 41//14 42//14
f 43//15 44//15 45//15
f 46//16 47//16 48//16
f 49//17 50//17 51//17
f 52//18 53//18 54//18
f 55//19 56//19 57//19
f 58//20 59//20 60//20
f 61//21 62//21 63//21
f 64//22 65//22 66//22
f 67//23 68//23 69//23
f 70//24 71//24 72//24
f 73//25 74//25 75//25
f 76//26 77//26 78//26
f 79//27 80//27 81//27
f 82//28 83//28 84//28
f 85//29 86//29 87//29
f 88//30 89//30 90//30
f 91//31 92//31 93//31
f 94//32 95//32 96//32
f 97//33 98//33 99//33
f 100//34 101//34 102//34
f 103//35 104//35 105//35
f 106//36 107//36 108//36
f 109//37 110//37 111//37
f 112//38 113//38 114//38
f 115//39 116//39 117//39
f 118//40 119//40 120//40
f 121//41 122//41 123//41
f 124//42 125//42 126//42
f 127//43 128//43 129//43
f 130//44 131//44 132//44
f 133//45 134//45 135//45
f 136//46 137//46 138//46
f 139//47 140//47 141//47
f 142//48 143//48 144//48
f 145//49 146//49 147//49
f 148//50 149//50 150//50
f 151//51 152//51 153//51
f 154//52 155//52 156//52
f 157//53 158//53 159//53
f 160//54 161//54 162//54
f 163//55 164//55 165//55
f 166//56 167//56 168//56
f 169//57 170//57 171//57
f 172//58 173//58 174//58
f 175//59 176//59 177//59
f 178//60 179//60 180//60
f 181//61 182//61 183//61
f 184//62 185//62 186//62
