o
v 21.890282 -35.509724 -16.047291
v 21.856579 -35.529167 -16.084846
v 27.280151 -30.676735 -24.795980
v 21.856579 -35.529167 -16.084846
v 21.835491 -35.539349 -16.104256
v 27.280151 -30.676735 -24.795980
v 31.484806 -23.780954 -33.419765
v 29.574951 -25.829319 -9.161970
v 27.280151 -30.676735 -24.795980
v 21.890282 -35.509724 -16.047291
v 27.280151 -30.676735 -24.795980
v 29.574951 -25.829319 -9.161970
v -6.532319 40.428932 27.711620
v -0.409404 29.627897 33.543053
v -6.530488 40.430538 27.712458
v -6.532319 40.428932 27.711620
v -6.530488 40.430538 27.712458
v -24.024210 41.371029 -4.154336
v -0.409404 29.627897 33.543053
v 3.490725 31.595907 31.525566
v -6.530488 40.430538 27.712458
v -6.530488 40.430538 27.712458
v -23.803013 41.804531 -5.040872
v -24.024210 41.371029 -4.154336
v -23.803013 41.804531 -5.040872
v -25.337290 7.863313 -40.981331
v -24.024210 41.371029 -4.154336
v 31.484806 -23.780954 -33.419765
v 26.375570 1.079021 -42.461781
v 31.945889 0.309531 -32.366879
v 31.945889 0.309531 -32.366879
v 26.375570 1.079021 -42.461781
v 23.428789 38.749496 12.136424
v -6.530488 40.430538 27.712458
v -22.271078 42.059486 -4.076262
v -23.803013 41.804531 -5.040872
v -0.409404 29.627897 33.543053
v 12.981524 19.243053 32.118389
v 3.490725 31.595907 31.525566
v 3.490725 31.595907 31.525566
v 12.981524 19.243053 32.118389
v 23.428789 38.749496 12.136424
v 12.981524 19.243053 32.118389
v 13.229467 19.335175 31.867115
v 23.428789 38.749496 12.136424
v 21.890282 -35.509724 -16.047291
v 11.944647 -37.904816 -17.886179
v 21.856579 -35.529167 -16.084846
v 21.856579 -35.529167 -16.084846
v 11.944647 -37.904816 -17.886179
v 21.835491 -35.539349 -16.104256
v 31.484806 -23.780954 -33.419765
v 27.280151 -30.676735 -24.795980
v 11.944647 -37.904816 -17.886179
v 21.835491 -35.539349 -16.104256
v 11.944647 -37.904816 -17.886179
v 27.280151 -30.676735 -24.795980
v 23.428789 38.749496 12.136424
v -1.368718 41.025490 21.774027
v -6.530488 40.430538 27.712458
v 3.490725 31.595907 31.525566
v 11.288392 35.447289 22.970327
v -6.530488 40.430538 27.712458
v 3.490725 31.595907 31.525566
v 23.428789 38.749496 12.136424
v 11.288392 35.447289 22.970327
v 23.428789 38.749496 12.136424
v -6.530488 40.430538 27.712458
v 11.288392 35.447289 22.970327
v 31.484806 -23.780954 -33.419765
v 32.840752 -3.611357 -11.852591
v 29.574951 -25.829319 -9.161970
v 31.945889 0.309531 -32.366879
v 23.428789 38.749496 12.136424
v 32.840752 -3.611357 -11.852591
v 31.484806 -23.780954 -33.419765
v 31.945889 0.309531 -32.366879
v 32.840752 -3.611357 -11.852591
v 31.484806 -23.780954 -33.419765
v 16.731997 -10.045934 -43.606285
v 26.375570 1.079021 -42.461781
v 31.484806 -23.780954 -33.419765
v 11.944647 -37.904816 -17.886179
v 14.655047 -27.897882 -28.627485
v 31.484806 -23.780954 -33.419765
v 14.655047 -27.897882 -28.627485
v 16.731997 -10.045934 -43.606285
v 21.890282 -35.509724 -16.047291
v 29.574951 -25.829319 -9.161970
v -3.834336 2.229773 29.997833
v 29.574951 -25.829319 -9.161970
v 12.981524 19.243053 32.118389
v -3.834336 2.229773 29.997833
v 21.890282 -35.509724 -16.047291
v -3.834336 2.229773 29.997833
v 11.944647 -37.904816 -17.886179
v -0.409404 29.627897 33.543053
v -3.834336 2.229773 29.997833
v 12.981524 19.243053 32.118389
v -6.532319 40.428932 27.711620
v -3.854537 2.256818 29.983475
v -0.409404 29.627897 33.543053
v -0.409404 29.627897 33.543053
v -3.854537 2.256818 29.983475
v -3.834336 2.229773 29.997833
v -6.532319 40.428932 27.711620
v -24.024210 41.371029 -4.154336
v -22.132635 31.400686 1.672808
v -6.532319 40.428932 27.711620
v -22.132635 31.400686 1.672808
v -3.854537 2.256818 29.983475
v -6.530488 40.430538 27.712458
v -5.792915 43.968037 8.859527
v -22.271078 42.059486 -4.076262
v 16.731997 -10.045934 -43.606285
v -14.204188 7.536799 -45.241749
v 26.375570 1.079021 -42.461781
v -3.834336 2.229773 29.997833
v -24.260921 -13.907641 -5.062877
v 11.944647 -37.904816 -17.886179
v -3.854537 2.256818 29.983475
v -24.260921 -13.907641 -5.062877
v -3.834336 2.229773 29.997833
v -25.337290 7.863313 -40.981331
v -24.260921 -13.907641 -5.062877
v -24.024210 41.371029 -4.154336
v -24.024210 41.371029 -4.154336
v -24.260921 -13.907641 -5.062877
v -22.132635 31.400686 1.672808
v -22.132635 31.400686 1.672808
v -24.260921 -13.907641 -5.062877
v -3.854537 2.256818 29.983475
v -22.271078 42.059486 -4.076262
v -7.286090 44.282837 3.336690
v -23.803013 41.804531 -5.040872
v -5.792915 43.968037 8.859527
v -7.286090 44.282837 3.336690
v -22.271078 42.059486 -4.076262
v 23.428789 38.749496 12.136424
v 1.740290 43.933041 5.215442
v -1.368718 41.025490 21.774027
v -1.368718 41.025490 21.774027
v 1.740290 43.933041 5.215442
v -6.530488 40.430538 27.712458
v -6.530488 40.430538 27.712458
v 1.740290 43.933041 5.215442
v -5.792915 43.968037 8.859527
v -5.792915 43.968037 8.859527
v 1.740290 43.933041 5.215442
v -7.286090 44.282837 3.336690
v 11.944647 -37.904816 -17.886179
v 2.789247 -28.270311 -26.824389
v 14.655047 -27.897882 -28.627485
v 14.655047 -27.897882 -28.627485
v 2.789247 -28.270311 -26.824389
v 16.731997 -10.045934 -43.606285
v 16.731997 -10.045934 -43.606285
v 2.789247 -28.270311 -26.824389
v -14.204188 7.536799 -45.241749
v -14.204188 7.536799 -45.241749
v 2.789247 -28.270311 -26.824389
v -25.337290 7.863313 -40.981331
v -24.260921 -13.907641 -5.062877
v 2.789247 -28.270311 -26.824389
v 11.944647 -37.904816 -17.886179
v -25.337290 7.863313 -40.981331
v 2.789247 -28.270311 -26.824389
v -24.260921 -13.907641 -5.062877
v 12.981524 19.243053 32.118389
v 22.741590 5.261132 14.636200
v 13.229467 19.335175 31.867115
v 29.574951 -25.829319 -9.161970
v 22.741590 5.261132 14.636200
v 12.981524 19.243053 32.118389
v 32.840752 -3.611357 -11.852591
v 22.741590 5.261132 14.636200
v 29.574951 -25.829319 -9.161970
v 13.229467 19.335175 31.867115
v 22.741590 5.261132 14.636200
v 23.428789 38.749496 12.136424
v 23.428789 38.749496 12.136424
v 22.741590 5.261132 14.636200
v 32.840752 -3.611357 -11.852591
v 23.428789 38.749496 12.136424
v 1.863398 43.877224 5.079627
v 1.740290 43.933041 5.215442
v -23.803013 41.804531 -5.040872
v -14.145391 39.060276 -17.880383
v -25.337290 7.863313 -40.981331
v -7.286090 44.282837 3.336690
v -14.145391 39.060276 -17.880383
v -23.803013 41.804531 -5.040872
v 1.740290 43.933041 5.215442
v -14.145391 39.060276 -17.880383
v -7.286090 44.282837 3.336690
v 1.863398 43.877224 5.079627
v -14.145391 39.060276 -17.880383
v 1.740290 43.933041 5.215442
v -14.204188 7.536799 -45.241749
v -25.337290 7.863313 -40.981331
v -4.620857 24.883663 -36.190357
v -14.145391 39.060276 -17.880383
v -4.620857 24.883663 -36.190357
v -25.337290 7.863313 -40.981331
v -14.204188 7.536799 -45.241749
v 1.233824 24.502867 -37.662884
v 26.375570 1.079021 -42.461781
v -14.204188 7.536799 -45.241749
v -4.620857 24.883663 -36.190357
v 1.233824 24.502867 -37.662884
v -14.145391 39.060276 -17.880383
v 1.233824 24.502867 -37.662884
v -4.620857 24.883663 -36.190357
v -14.145391 39.060276 -17.880383
v 1.721066 27.319586 -34.270836
v 1.233824 24.502867 -37.662884
v 1.233824 24.502867 -37.662884
v 1.721066 27.319586 -34.270836
v 26.375570 1.079021 -42.461781
v 23.428789 38.749496 12.136424
v 10.192815 29.270351 -24.432047
v 1.863398 43.877224 5.079627
v 1.863398 43.877224 5.079627
v 10.192815 29.270351 -24.432047
v -14.145391 39.060276 -17.880383
v -14.145391 39.060276 -17.880383
v 10.192815 29.270351 -24.432047
v 1.721066 27.319586 -34.270836
v 26.375570 1.079021 -42.461781
v 10.192815 29.270351 -24.432047
v 23.428789 38.749496 12.136424
v 1.721066 27.319586 -34.270836
v 10.192815 29.270351 -24.432047
v 26.375570 1.079021 -42.461781
vn 0.574725 -0.812820 -0.094947
vn 0.529763 -0.837096 -0.136462
vn 0.867857 -0.496110 0.026436
vn 0.745650 -0.659525 0.095041
vn -0.521492 0.157163 0.838657
vn -0.700831 0.589183 0.402119
vn 0.157867 0.536794 0.828813
vn -0.477804 0.830330 0.286803
vn -0.969456 0.197628 -0.145249
vn 0.875683 0.004344 -0.482867
vn 0.731919 0.578677 -0.359760
vn -0.272675 0.944461 0.183415
vn 0.320473 0.289507 0.901933
vn 0.536346 0.446453 0.716249
vn 0.560659 0.426676 0.709654
vn 0.161445 -0.928067 0.335601
vn 0.168400 -0.936301 0.308190
vn 0.114169 -0.802313 -0.585883
vn 0.275569 -0.902106 -0.332064
vn 0.187135 0.947948 0.257632
vn 0.360126 0.682842 0.635638
vn 0.426382 0.613414 0.664771
vn 0.359914 0.700095 0.616708
vn 0.988320 -0.137253 0.066222
vn 0.976072 0.217445 -0.001017
vn 0.998757 -0.017069 -0.046830
vn 0.386927 -0.243920 -0.889264
vn -0.016239 -0.729533 -0.683753
vn -0.062855 -0.637196 -0.768135
vn 0.238583 -0.681484 0.691850
vn 0.430951 -0.518043 0.738859
vn 0.061090 -0.754965 0.652914
vn 0.005462 -0.128996 0.991630
vn -0.695163 -0.005984 0.718827
vn -0.603470 -0.027679 0.796905
vn -0.869251 0.115959 0.480579
vn -0.853032 -0.028829 0.521062
vn -0.243765 0.954884 0.169634
vn 0.074328 0.038087 -0.996506
vn -0.321175 -0.775231 0.543934
vn -0.771990 -0.271506 0.574732
vn -0.999474 0.003750 0.032224
vn -0.951630 -0.000975 0.307245
vn -0.856217 -0.036392 0.515333
vn -0.081204 0.987898 -0.132147
vn -0.198530 0.973993 0.109193
vn 0.166644 0.965355 0.200797
vn 0.107945 0.975527 0.191562
vn 0.095085 0.977714 0.187175
vn 0.028446 0.998383 0.049217
vn -0.082350 -0.718742 -0.690382
vn -0.096829 -0.633113 -0.767979
vn -0.262847 -0.537029 -0.801568
vn -0.313003 -0.547656 -0.775952
vn -0.592560 -0.773074 -0.226338
vn -0.652795 -0.656338 -0.378258
vn 0.733045 -0.269274 0.624609
vn 0.665300 -0.356061 0.656199
vn 0.920361 -0.089172 0.380767
vn 0.881204 0.017182 0.472424
vn 0.935172 0.007243 0.354119
vn 0.273101 0.951239 -0.143385
vn -0.563151 0.612658 -0.554537
vn -0.029318 0.972757 -0.229965
vn 0.092570 0.959489 -0.266104
vn 0.119386 0.951689 -0.282904
vn -0.281334 0.561479 -0.778198
vn -0.364237 0.635077 -0.681182
vn 0.114831 0.316185 -0.941722
vn -0.174363 0.529511 -0.830190
vn -0.112863 0.756370 -0.644334
vn -0.079269 0.772480 -0.630072
vn 0.481067 0.639259 -0.599935
vn 0.322528 0.881368 -0.345204
vn 0.259857 0.892592 -0.368448
vn 0.250757 0.885370 -0.391461
vn 0.658347 0.635698 -0.403072
vn 0.506012 0.651769 -0.564933
f 1//1 2//1 3//1
f 4//2 5//2 6//2
f 7//3 8//3 9//3
f 10//4 11//4 12//4
f 13//5 14//5 15//5
f 16//6 17//6 18//6
f 19//7 20//7 21//7
f 22//8 23//8 24//8
f 25//9 26//9 27//9
f 28//10 29//10 30//10
f 31//11 32//11 33//11
f 34//12 35//12 36//12
f 37//13 38//13 39//13
f 40//14 41//14 42//14
f 43//15 44//15 45//15
f 46//16 47//16 48//16
f 49//17 50//17 51//17
f 52//18 53//18 54//18
f 55//19 56//19 57//19
f 58//20 59//20 60//20
f 61//21 62//21 63//21
f 64//22 65//22 66//22
f 67//23 68//23 69//23
f 70//24 71//24 72//24
f 73//25 74//25 75//25
f 76//26 77//26 78//26
f 79//27 80//27 81//27
f 82//28 83//28 84//28
f 85//29 86//29 87//29
f 88//30 89//30 90//30
f 91//31 92//31 93//31
f 94//32 95//32 96//32
f 97//33 98//33 99//33
f 100//34 101//34 102//34
f 103//35 104//35 105//35
f 106//36 107//36 108//36
f 109//37 110//37 111//37
f 112//38 113//38 114//38
f 115//39 116//39 117//39
f 118//40 119//40 120//40
f 121//41 122//41 123//41
f 124//42 125//42 126//42
f 127//43 128//43 129//43
f 130//44 131//44 132//44
f 133//45 134//45 135//45
f 136//46 137//46 138//46
f 139//47 140//47 141//47
f 142//48 143//48 144//48
f 145//49 146//49 147//49
f 148//50 149//50 150//50
f 151//51 152//51 153//51
f 154//52 155//52 156//52
f 157//53 158//53 159//53
f 160//54 161//54 162//54
f 163//55 164//55 165//55
f 166//56 167//56 168//56
f 169//57 170//57 171//57
f 172//58 173//58 174//58
f 175//59 176//59 177//59
f 178//60 179//60 180//60
f 181//61 182//61 183//61
f 184//62 185//62 186//62
f 187//63 188//63 189//63
f 190//64 191//64 192//64
f 193//65 194//65 195//65
f 196//66 197//66 198//66
f 199//67 200//67 201//67
f 202//68 203//68 204//68
f 205//69 206//69 207//69
f 208//70 209//70 210//70
f 211//71 212//71 213//71
f 214//72 215//72 216//72
f 217//73 218//73 219//73
f 220//74 221//74 222//74
f 223//75 224//75 225//75
f 226//76 227//76 228//76
f 229//77 230//77 231//77
f 232//78 233//78 234//78
