o
v -109.999962 186.879745 -65.423340
v -107.930756 185.589386 -67.219452
v -165.915604 0.390066 -154.582489
v -109.999962 186.879745 -65.423340
v -165.915604 0.390066 -154.582489
v -116.947418 152.272278 -38.616978
v -107.930756 185.589386 -67.219452
v 30.226883 189.702789 -116.842186
v -165.915604 0.390066 -154.582489
v -109.999962 186.879745 -65.423340
v 30.226883 189.702789 -116.842186
v -107.930756 185.589386 -67.219452
v -165.915604 0.390066 -154.582489
v 143.443848 -58.096931 -186.448975
v 57.339691 -154.281036 -122.764069
v -165.915604 0.390066 -154.582489
v 57.339691 -154.281036 -122.764069
v 83.747093 -165.293030 -62.781342
v 143.443848 -58.096931 -186.448975
v 113.546707 -150.351608 -98.635216
v 57.339691 -154.281036 -122.764069
v 57.339691 -154.281036 -122.764069
v 113.546707 -150.351608 -98.635216
v 83.747093 -165.293030 -62.781342
v 143.443848 -58.096931 -186.448975
v 141.188522 -73.290375 -169.747589
v 113.546707 -150.351608 -98.635216
v 30.226883 189.702789 -116.842186
v 69.597450 52.325890 -180.071243
v -165.915604 0.390066 -154.582489
v -165.915604 0.390066 -154.582489
v 69.597450 52.325890 -180.071243
v 143.443848 -58.096931 -186.448975
v -165.915604 0.390066 -154.582489
v 83.747093 -165.293030 -62.781342
v -4.487511 -100.357368 -78.097466
v 83.674095 -165.099930 -62.578819
v -4.487511 -100.357368 -78.097466
v 83.747093 -165.293030 -62.781342
v 143.443848 -58.096931 -186.448975
v 204.477829 -87.811722 -96.617058
v 141.188522 -73.290375 -169.747589
v 141.188522 -73.290375 -169.747589
v 204.477829 -87.811722 -96.617058
v 113.546707 -150.351608 -98.635216
v 30.226883 189.702789 -116.842186
v 196.389526 64.359138 -130.550064
v 69.597450 52.325890 -180.071243
v 151.528824 174.237091 -71.817322
v 196.389526 64.359138 -130.550064
v 30.226883 189.702789 -116.842186
v 69.597450 52.325890 -180.071243
v 196.389526 64.359138 -130.550064
v 143.443848 -58.096931 -186.448975
v -109.999962 186.879745 -65.423340
v 107.318001 196.952301 46.988239
v 30.226883 189.702789 -116.842186
v 151.528824 174.237091 -71.817322
v 30.226883 189.702789 -116.842186
v 107.297371 196.939682 46.801720
v 151.528824 174.237091 -71.817322
v 107.297371 196.939682 46.801720
v 107.318001 196.952301 46.988239
v 107.318001 196.952301 46.988239
v 107.297371 196.939682 46.801720
v 30.226883 189.702789 -116.842186
v 113.546707 -150.351608 -98.635216
v 235.231506 -71.791824 -65.489510
v 83.747093 -165.293030 -62.781342
v 83.747093 -165.293030 -62.781342
v 235.231506 -71.791824 -65.489510
v 128.193222 -130.613068 -27.182570
v 204.477829 -87.811722 -96.617058
v 235.231506 -71.791824 -65.489510
v 113.546707 -150.351608 -98.635216
v 143.443848 -58.096931 -186.448975
v 235.231506 -71.791824 -65.489510
v 204.477829 -87.811722 -96.617058
v 196.389526 64.359138 -130.550064
v 235.231506 -71.791824 -65.489510
v 143.443848 -58.096931 -186.448975
v -109.999962 186.879745 -65.423340
v 96.448914 169.865509 132.467224
v 107.318001 196.952301 46.988239
v -109.999962 186.879745 -65.423340
v 84.277634 163.259369 130.951019
v 96.448914 169.865509 132.467224
v 235.231506 -71.791824 -65.489510
v 143.738953 -116.042664 -14.260777
v 128.193222 -130.613068 -27.182570
v -109.999962 186.879745 -65.423340
v -116.947418 152.272278 -38.616978
v 84.932243 143.456024 151.340210
v -109.999962 186.879745 -65.423340
v 84.932243 143.456024 151.340210
v 84.277634 163.259369 130.951019
v 84.277634 163.259369 130.951019
v 84.932243 143.456024 151.340210
v 96.448914 169.865509 132.467224
v 84.932243 143.456024 151.340210
v 89.638588 142.378723 153.717316
v 96.448914 169.865509 132.467224
v -165.915604 0.390066 -154.582489
v -4.487511 -100.357368 -78.097466
v 137.871140 -8.648697 212.782059
v 83.674095 -165.099930 -62.578819
v 137.871140 -8.648697 212.782059
v -4.487511 -100.357368 -78.097466
v 83.674095 -165.099930 -62.578819
v 83.747093 -165.293030 -62.781342
v 137.871140 -8.648697 212.782059
v 137.871140 -8.648697 212.782059
v 146.678802 -12.425088 209.531647
v 143.254379 -5.486170 212.469788
v 83.747093 -165.293030 -62.781342
v 146.678802 -12.425088 209.531647
v 137.871140 -8.648697 212.782059
v -165.915604 0.390066 -154.582489
v 86.557076 48.070724 196.971207
v -116.947418 152.272278 -38.616978
v -165.915604 0.390066 -154.582489
v 137.871140 -8.648697 212.782059
v 86.557076 48.070724 196.971207
v -116.947418 152.272278 -38.616978
v 86.557076 48.070724 196.971207
v 84.932243 143.456024 151.340210
v 84.932243 143.456024 151.340210
v 86.557076 48.070724 196.971207
v 89.638588 142.378723 153.717316
v 137.871140 -8.648697 212.782059
v 143.254379 -5.486170 212.469788
v 86.557076 48.070724 196.971207
v 96.448914 169.865509 132.467224
v 150.401810 161.032318 99.019592
v 107.318001 196.952301 46.988239
v 151.528824 174.237091 -71.817322
v 107.318001 196.952301 46.988239
v 164.130081 159.632095 85.697319
v 150.401810 161.032318 99.019592
v 164.130081 159.632095 85.697319
v 107.318001 196.952301 46.988239
v 89.638588 142.378723 153.717316
v 138.454376 82.584038 177.848083
v 96.448914 169.865509 132.467224
v 86.557076 48.070724 196.971207
v 138.454376 82.584038 177.848083
v 89.638588 142.378723 153.717316
v 143.254379 -5.486170 212.469788
v 138.454376 82.584038 177.848083
v 86.557076 48.070724 196.971207
v 96.448914 169.865509 132.467224
v 204.953033 132.538284 91.494263
v 150.401810 161.032318 99.019592
v 138.454376 82.584038 177.848083
v 204.953033 132.538284 91.494263
v 96.448914 169.865509 132.467224
v 150.401810 161.032318 99.019592
v 204.953033 132.538284 91.494263
v 164.130081 159.632095 85.697319
v 151.528824 174.237091 -71.817322
v 217.098633 127.682159 27.765930
v 196.389526 64.359138 -130.550064
v 151.528824 174.237091 -71.817322
v 164.130081 159.632095 85.697319
v 217.098633 127.682159 27.765930
v 204.953033 132.538284 91.494263
v 217.098633 127.682159 27.765930
v 164.130081 159.632095 85.697319
v 83.747093 -165.293030 -62.781342
v 128.193222 -130.613068 -27.182570
v 168.862595 -34.469246 152.180359
v 143.738953 -116.042664 -14.260777
v 168.862595 -34.469246 152.180359
v 128.193222 -130.613068 -27.182570
v 83.747093 -165.293030 -62.781342
v 166.855347 -35.667133 151.155594
v 146.678802 -12.425088 209.531647
v 83.747093 -165.293030 -62.781342
v 168.862595 -34.469246 152.180359
v 166.855347 -35.667133 151.155594
v 146.678802 -12.425088 209.531647
v 166.855347 -35.667133 151.155594
v 168.862595 -34.469246 152.180359
v 143.254379 -5.486170 212.469788
v 196.982590 35.617622 157.874329
v 138.454376 82.584038 177.848083
v 146.678802 -12.425088 209.531647
v 215.592194 17.395416 144.347061
v 143.254379 -5.486170 212.469788
v 143.254379 -5.486170 212.469788
v 215.592194 17.395416 144.347061
v 196.982590 35.617622 157.874329
v 146.678802 -12.425088 209.531647
v 168.862595 -34.469246 152.180359
v 212.018188 -12.546700 133.928558
v 146.678802 -12.425088 209.531647
v 216.710266 -8.646895 132.374817
v 215.592194 17.395416 144.347061
v 146.678802 -12.425088 209.531647
v 212.018188 -12.546700 133.928558
v 216.710266 -8.646895 132.374817
v 235.231506 -71.791824 -65.489510
v 216.710266 -8.646895 132.374817
v 212.018188 -12.546700 133.928558
v 138.454376 82.584038 177.848083
v 209.212265 46.197418 144.813782
v 204.953033 132.538284 91.494263
v 196.982590 35.617622 157.874329
v 209.212265 46.197418 144.813782
v 138.454376 82.584038 177.848083
v 215.592194 17.395416 144.347061
v 209.212265 46.197418 144.813782
v 196.982590 35.617622 157.874329
v 204.953033 132.538284 91.494263
v 241.049881 47.604073 104.816734
v 217.098633 127.682159 27.765930
v 209.212265 46.197418 144.813782
v 241.049881 47.604073 104.816734
v 204.953033 132.538284 91.494263
v 215.592194 17.395416 144.347061
v 241.049881 47.604073 104.816734
v 209.212265 46.197418 144.813782
v 227.309296 25.912020 125.979546
v 241.049881 47.604073 104.816734
v 215.592194 17.395416 144.347061
v 216.710266 -8.646895 132.374817
v 237.280762 11.700202 108.303421
v 215.592194 17.395416 144.347061
v 227.309296 25.912020 125.979546
v 215.592194 17.395416 144.347061
v 237.280762 11.700202 108.303421
v 241.049881 47.604073 104.816734
v 237.280762 11.700202 108.303421
v 235.231506 -71.791824 -65.489510
v 227.309296 25.912020 125.979546
v 237.280762 11.700202 108.303421
v 241.049881 47.604073 104.816734
v 235.231506 -71.791824 -65.489510
v 183.804199 -44.338612 104.412880
v 143.738953 -116.042664 -14.260777
v 235.231506 -71.791824 -65.489510
v 212.018188 -12.546700 133.928558
v 183.804199 -44.338612 104.412880
v 143.738953 -116.042664 -14.260777
v 183.804199 -44.338612 104.412880
v 168.862595 -34.469246 152.180359
v 168.862595 -34.469246 152.180359
v 183.804199 -44.338612 104.412880
v 212.018188 -12.546700 133.928558
v 235.231506 -71.791824 -65.489510
v 229.541595 -7.330213 93.602974
v 216.710266 -8.646895 132.374817
v 216.710266 -8.646895 132.374817
v 229.541595 -7.330213 93.602974
v 237.280762 11.700202 108.303421
v 237.280762 11.700202 108.303421
v 229.541595 -7.330213 93.602974
v 235.231506 -71.791824 -65.489510
v 196.389526 64.359138 -130.550064
v 231.611694 74.261406 35.363228
v 235.231506 -71.791824 -65.489510
v 217.098633 127.682159 27.765930
v 231.611694 74.261406 35.363228
v 196.389526 64.359138 -130.550064
v 241.049881 47.604073 104.816734
v 231.611694 74.261406 35.363228
v 217.098633 127.682159 27.765930
v 241.049881 47.604073 104.816734
v 235.231506 -71.791824 -65.489510
v 231.611694 74.261406 35.363228
vn -0.377509 0.489110 -0.786294
vn -0.964526 0.252722 0.076291
vn -0.308667 0.483140 -0.819329
vn -0.288814 0.588257 -0.755341
vn -0.172789 -0.431547 -0.885388
vn -0.576403 -0.810394 0.104984
vn 0.320639 -0.705507 -0.632021
vn 0.174567 -0.951953 -0.251618
vn 0.468975 -0.683926 -0.558845
vn -0.179928 0.368259 -0.912146
vn -0.104827 -0.012670 -0.994410
vn -0.600123 -0.749582 0.279247
vn -0.580039 -0.683709 0.442828
vn 0.482820 -0.679251 -0.552723
vn 0.480963 -0.681507 -0.551564
vn 0.282963 0.466746 -0.837902
vn 0.351487 0.548891 -0.758403
vn 0.327691 0.271415 -0.904960
vn -0.030979 0.999081 -0.029632
vn 0.170491 0.977586 -0.123527
vn 0.246866 0.964618 -0.092566
vn 0.064706 0.995121 -0.074482
vn 0.524505 -0.847370 0.082812
vn 0.520038 -0.837699 0.166796
vn 0.563380 -0.814706 -0.137322
vn 0.750914 -0.274067 -0.600846
vn 0.791401 -0.064696 -0.607864
vn -0.186081 0.943200 0.275223
vn -0.453624 0.713078 0.534551
vn 0.535096 -0.803172 0.261890
vn -0.545155 0.579027 0.606245
vn -0.532244 0.598687 0.598573
vn -0.427555 0.641566 0.636859
vn -0.230229 0.630266 0.741458
vn -0.616605 -0.612328 0.494826
vn -0.570895 -0.660514 0.487648
vn -0.492114 -0.711741 0.501247
vn 0.221741 -0.285379 0.932411
vn -0.171826 -0.841547 0.512127
vn -0.783372 -0.197427 0.589365
vn -0.687240 -0.466528 0.556824
vn -0.641220 0.322235 0.696421
vn -0.338042 0.401451 0.851214
vn -0.067339 0.210915 0.975182
vn 0.344613 0.881385 0.323115
vn 0.531456 0.846322 0.035956
vn 0.375959 0.878393 0.295094
vn 0.275168 0.544423 0.792393
vn 0.058915 0.414574 0.908107
vn 0.095517 0.368692 0.924631
vn 0.448224 0.717188 0.533608
vn 0.454625 0.573236 0.681701
vn 0.467221 0.789238 0.398508
vn 0.813815 0.494995 -0.304441
vn 0.543433 0.838752 0.034295
vn 0.548482 0.835162 0.040892
vn 0.365507 -0.852360 0.374014
vn 0.490479 -0.809502 0.322704
vn 0.245770 -0.868391 0.430690
vn 0.309021 -0.861846 0.402153
vn 0.285170 -0.852546 0.437999
vn 0.533511 0.334469 0.776851
vn 0.680946 0.026160 0.731866
vn 0.659481 0.122979 0.741594
vn 0.549961 -0.685991 0.476403
vn 0.720631 -0.263818 0.641163
vn 0.634241 -0.544356 0.549013
vn 0.666756 -0.689658 0.282504
vn 0.558095 0.455747 0.693415
vn 0.535108 0.337482 0.774445
vn 0.666004 0.135640 0.733512
vn 0.902953 0.405895 0.141159
vn 0.712352 0.393863 0.580884
vn 0.769502 0.160435 0.618165
vn 0.846522 -0.017123 0.532078
vn 0.823362 -0.207489 0.528227
vn 0.852299 -0.049621 0.520695
vn 0.994229 -0.100808 0.036706
vn 0.856223 -0.039866 0.515066
vn 0.543902 -0.786794 0.291764
vn 0.562080 -0.772689 0.294987
vn 0.493896 -0.807933 0.321419
vn 0.534448 -0.778916 0.328108
vn 0.804062 -0.540468 0.247746
vn 0.813244 -0.524858 0.251314
vn 0.820654 -0.518787 0.239554
vn 0.961512 0.171864 -0.214379
vn 0.949724 0.227412 -0.215192
vn 0.965670 0.257755 -0.032297
vn 0.990744 0.092901 -0.098978
f 1//1 2//1 3//1
f 4//2 5//2 6//2
f 7//3 8//3 9//3
f 10//4 11//4 12//4
f 13//5 14//5 15//5
f 16//6 17//6 18//6
f 19//7 20//7 21//7
f 22//8 23//8 24//8
f 25//9 26//9 27//9
f 28//10 29//10 30//10
f 31//11 32//11 33//11
f 34//12 35//12 36//12
f 37//13 38//13 39//13
f 40//14 41//14 42//14
f 43//15 44//15 45//15
f 46//16 47//16 48//16
f 49//17 50//17 51//17
f 52//18 53//18 54//18
f 55//19 56//19 57//19
f 58//20 59//20 60//20
f 61//21 62//21 63//21
f 64//22 65//22 66//22
f 67//23 68//23 69//23
f 70//24 71//24 72//24
f 73//25 74//25 75//25
f 76//26 77//26 78//26
f 79//27 80//27 81//27
f 82//28 83//28 84//28
f 85//29 86//29 87//29
f 88//30 89//30 90//30
f 91//31 92//31 93//31
f 94//32 95//32 96//32
f 97//33 98//33 99//33
f 100//34 101//34 102//34
f 103//35 104//35 105//35
f 106//36 107//36 108//36
f 109//37 110//37 111//37
f 112//38 113//38 114//38
f 115//39 116//39 117//39
f 118//40 119//40 120//40
f 121//41 122//41 123//41
f 124//42 125//42 126//42
f 127//43 128//43 129//43
f 130//44 131//44 132//44
f 133//45 134//45 135//45
f 136//46 137//46 138//46
f 139//47 140//47 141//47
f 142//48 143//48 144//48
f 145//49 146//49 147//49
f 148//50 149//50 150//50
f 151//51 152//51 153//51
f 154//52 155//52 156//52
f 157//53 158//53 159//53
f 160//54 161//54 162//54
f 163//55 164//55 165//55
f 166//56 167//56 168//56
f 169//57 170//57 171//57
f 172//58 173//58 174//58
f 175//59 176//59 177//59
f 178//60 179//60 180//60
f 181//61 182//61 183//61
f 184//62 185//62 186//62
f 187//63 188//63 189//63
f 190//64 191//64 192//64
f 193//65 194//65 195//65
f 196//66 197//66 198//66
f 199//67 200//67 201//67
f 202//68 203//68 204//68
f 205//69 206//69 207//69
f 208//70 209//70 210//70
f 211//71 212//71 213//71
f 214//72 215//72 216//72
f 217//73 218//73 219//73
f 220//74 221//74 222//74
f 223//75 224//75 225//75
f 226//76 227//76 228//76
f 229//77 230//77 231//77
f 232//78 233//78 234//78
f 235//79 236//79 237//79
f 238//80 239//80 240//80
f 241//81 242//81 243//81
f 244//82 245//82 246//82
f 247//83 248//83 249//83
f 250//84 251//84 252//84
f 253//85 254//85 255//85
f 256//86 257//86 258//86
f 259//87 260//87 261//87
f 262//88 263//88 264//88
f 265//89 266//89 267//89
f 268//90 269//90 270//90
