o
v -0.084110 -37.452721 -17.564713
v 1.737518 -36.203102 -17.458899
v 4.509589 -36.279285 -17.647791
v -0.084110 -37.452721 -17.564713
v 8.668666 -17.643978 -13.500191
v 1.737518 -36.203102 -17.458899
v 1.737518 -36.203102 -17.458899
v 8.668666 -17.643978 -13.500191
v 4.509589 -36.279285 -17.647791
v 4.509589 -36.279285 -17.647791
v 8.668666 -17.643978 -13.500191
v 13.080846 -27.102062 -10.611821
v 8.668666 -17.643978 -13.500191
v 9.177940 -15.174109 -7.732888
v 13.080846 -27.102062 -10.611821
v 4.509589 -36.279285 -17.647791
v 13.080846 -27.102062 -10.611821
v 21.104258 -35.828186 18.724789
v -0.084110 -37.452721 -17.564713
v 4.509589 -36.279285 -17.647791
v 7.691439 -46.801624 16.370533
v 4.509589 -36.279285 -17.647791
v 21.104258 -35.828186 18.724789
v 7.691439 -46.801624 16.370533
v -0.084110 -37.452721 -17.564713
v 7.691439 -46.801624 16.370533
v -20.549034 -31.475779 12.372350
v 21.104258 -35.828186 18.724789
v 8.949443 -45.846935 17.394787
v 7.691439 -46.801624 16.370533
v 20.894413 -35.980488 18.892828
v 8.949443 -45.846935 17.394787
v 21.104258 -35.828186 18.724789
v 20.894413 -35.980488 18.892828
v 9.727846 -45.014080 18.330681
v 8.949443 -45.846935 17.394787
v 8.668666 -17.643978 -13.500191
v 3.683395 13.284258 19.808718
v 9.177940 -15.174109 -7.732888
v 8.949443 -45.846935 17.394787
v 6.991941 -45.114090 23.244343
v 7.691439 -46.801624 16.370533
v 9.727846 -45.014080 18.330681
v 6.991941 -45.114090 23.244343
v 8.949443 -45.846935 17.394787
v 20.894413 -35.980488 18.892828
v 10.815881 -42.375572 23.038383
v 9.727846 -45.014080 18.330681
v -17.289665 1.157067 29.510988
v -16.238325 1.244252 34.491764
v 3.683395 13.284258 19.808718
v -19.102917 -0.265140 30.451363
v -16.238325 1.244252 34.491764
v -17.289665 1.157067 29.510988
v -0.084110 -37.452721 -17.564713
v -17.501438 -14.210323 13.271284
v 8.668666 -17.643978 -13.500191
v -0.084110 -37.452721 -17.564713
v -20.549034 -31.475779 12.372350
v -17.501438 -14.210323 13.271284
v -20.549034 -31.475779 12.372350
v -25.170303 -17.471188 31.670757
v -17.501438 -14.210323 13.271284
v -25.170303 -17.471188 31.670757
v -19.102917 -0.265140 30.451363
v -17.501438 -14.210323 13.271284
v 8.668666 -17.643978 -13.500191
v -17.501438 -14.210323 13.271284
v 3.683395 13.284258 19.808718
v -17.289665 1.157067 29.510988
v 3.683395 13.284258 19.808718
v -17.501438 -14.210323 13.271284
v -19.102917 -0.265140 30.451363
v -17.289665 1.157067 29.510988
v -17.501438 -14.210323 13.271284
v 7.691439 -46.801624 16.370533
v 1.378624 -43.676300 20.508665
v -20.549034 -31.475779 12.372350
v 6.991941 -45.114090 23.244343
v 1.378624 -43.676300 20.508665
v 7.691439 -46.801624 16.370533
v -19.102917 -0.265140 30.451363
v -14.456471 0.782328 40.973694
v -16.238325 1.244252 34.491764
v -25.170303 -17.471188 31.670757
v -14.456471 0.782328 40.973694
v -19.102917 -0.265140 30.451363
v 9.727846 -45.014080 18.330681
v 10.173182 -42.006512 25.229479
v 6.991941 -45.114090 23.244343
v 10.815881 -42.375572 23.038383
v 10.173182 -42.006512 25.229479
v 9.727846 -45.014080 18.330681
v 20.894413 -35.980488 18.892828
v 10.173182 -42.006512 25.229479
v 10.815881 -42.375572 23.038383
v -16.238325 1.244252 34.491764
v -8.213212 3.838704 44.708916
v 3.683395 13.284258 19.808718
v -14.456471 0.782328 40.973694
v -8.213212 3.838704 44.708916
v -16.238325 1.244252 34.491764
v -8.213212 3.838704 44.708916
v -3.239423 5.492746 46.120270
v 3.683395 13.284258 19.808718
v -3.799364 5.075194 46.518612
v -3.239423 5.492746 46.120270
v -8.213212 3.838704 44.708916
v -20.549034 -31.475779 12.372350
v 0.815177 -42.478859 22.513765
v -25.170303 -17.471188 31.670757
v 1.378624 -43.676300 20.508665
v 0.815177 -42.478859 22.513765
v -20.549034 -31.475779 12.372350
v 6.991941 -45.114090 23.244343
v 0.815177 -42.478859 22.513765
v 1.378624 -43.676300 20.508665
v -3.239423 5.492746 46.120270
v -2.203300 4.923287 47.199165
v 3.683395 13.284258 19.808718
v -3.799364 5.075194 46.518612
v -2.203300 4.923287 47.199165
v -3.239423 5.492746 46.120270
v -3.799364 5.075194 46.518612
v -2.439670 4.660694 47.323635
v -2.203300 4.923287 47.199165
v -25.170303 -17.471188 31.670757
v -10.352585 -0.783141 46.406803
v -14.456471 0.782328 40.973694
v -14.456471 0.782328 40.973694
v -10.352585 -0.783141 46.406803
v -8.213212 3.838704 44.708916
v -2.439670 4.660694 47.323635
v -3.289722 3.373776 47.935966
v -2.203300 4.923287 47.199165
v -3.799364 5.075194 46.518612
v -8.213212 3.838704 44.708916
v -3.289722 3.373776 47.935966
v -10.352585 -0.783141 46.406803
v -3.289722 3.373776 47.935966
v -8.213212 3.838704 44.708916
v -3.799364 5.075194 46.518612
v -3.289722 3.373776 47.935966
v -2.439670 4.660694 47.323635
v -3.289722 3.373776 47.935966
v -2.169269 4.008718 47.482437
v -2.203300 4.923287 47.199165
v -3.289722 3.373776 47.935966
v -2.420302 3.552961 47.656483
v -2.169269 4.008718 47.482437
v -2.203300 4.923287 47.199165
v 4.363066 5.393547 42.052074
v 3.683395 13.284258 19.808718
v 10.173182 -42.006512 25.229479
v 5.866533 -39.853374 28.101250
v 6.991941 -45.114090 23.244343
v 4.363066 5.393547 42.052074
v 6.953827 4.952882 37.408585
v 3.683395 13.284258 19.808718
v 6.953827 4.952882 37.408585
v 9.143837 2.876770 37.875462
v 3.683395 13.284258 19.808718
v 4.363066 5.393547 42.052074
v 9.143837 2.876770 37.875462
v 6.953827 4.952882 37.408585
v -2.169269 4.008718 47.482437
v 8.927591 -0.134136 42.219021
v -2.203300 4.923287 47.199165
v -2.203300 4.923287 47.199165
v 8.927591 -0.134136 42.219021
v 4.363066 5.393547 42.052074
v 4.363066 5.393547 42.052074
v 8.927591 -0.134136 42.219021
v 9.143837 2.876770 37.875462
v 0.815177 -42.478859 22.513765
v 2.500604 -38.400837 29.032215
v -25.170303 -17.471188 31.670757
v 6.991941 -45.114090 23.244343
v 2.500604 -38.400837 29.032215
v 0.815177 -42.478859 22.513765
v 5.866533 -39.853374 28.101250
v 2.500604 -38.400837 29.032215
v 6.991941 -45.114090 23.244343
v 9.177940 -15.174109 -7.732888
v 13.683783 -6.117745 34.452774
v 13.080846 -27.102062 -10.611821
v 3.683395 13.284258 19.808718
v 13.683783 -6.117745 34.452774
v 9.177940 -15.174109 -7.732888
v 9.143837 2.876770 37.875462
v 13.683783 -6.117745 34.452774
v 3.683395 13.284258 19.808718
v 13.080846 -27.102062 -10.611821
v 13.751414 -6.286238 34.487297
v 21.104258 -35.828186 18.724789
v 13.683783 -6.117745 34.452774
v 13.751414 -6.286238 34.487297
v 13.080846 -27.102062 -10.611821
v 21.104258 -35.828186 18.724789
v 13.751414 -6.286238 34.487297
v 8.927591 -0.134136 42.219021
v 8.927591 -0.134136 42.219021
v 13.751414 -6.286238 34.487297
v 9.143837 2.876770 37.875462
v 9.143837 2.876770 37.875462
v 13.751414 -6.286238 34.487297
v 13.683783 -6.117745 34.452774
v -10.352585 -0.783141 46.406803
v -2.250722 -7.594108 47.372837
v -3.289722 3.373776 47.935966
v -3.289722 3.373776 47.935966
v -0.115873 -7.617376 47.153870
v -2.420302 3.552961 47.656483
v -2.250722 -7.594108 47.372837
v -0.115873 -7.617376 47.153870
v -3.289722 3.373776 47.935966
v 20.894413 -35.980488 18.892828
v 21.104258 -35.828186 18.724789
v 4.245064 -8.509111 45.687702
v 21.104258 -35.828186 18.724789
v 8.927591 -0.134136 42.219021
v 4.245064 -8.509111 45.687702
v -2.420302 3.552961 47.656483
v 4.245064 -8.509111 45.687702
v -2.169269 4.008718 47.482437
v -2.169269 4.008718 47.482437
v 4.245064 -8.509111 45.687702
v 8.927591 -0.134136 42.219021
v -0.115873 -7.617376 47.153870
v 4.245064 -8.509111 45.687702
v -2.420302 3.552961 47.656483
v -25.170303 -17.471188 31.670757
v -6.583920 -17.873993 44.175621
v -10.352585 -0.783141 46.406803
v 2.500604 -38.400837 29.032215
v -6.583920 -17.873993 44.175621
v -25.170303 -17.471188 31.670757
v -10.352585 -0.783141 46.406803
v -6.583920 -17.873993 44.175621
v -2.250722 -7.594108 47.372837
v 5.866533 -39.853374 28.101250
v -6.583920 -17.873993 44.175621
v 2.500604 -38.400837 29.032215
v -2.250722 -7.594108 47.372837
v -6.583920 -17.873993 44.175621
v -0.115873 -7.617376 47.153870
v -0.115873 -7.617376 47.153870
v -0.770550 -14.132862 44.583309
v 4.245064 -8.509111 45.687702
v -6.583920 -17.873993 44.175621
v -0.770550 -14.132862 44.583309
v -0.115873 -7.617376 47.153870
v -6.583920 -17.873993 44.175621
v -1.353558 -15.615232 44.024223
v -0.770550 -14.132862 44.583309
v 20.894413 -35.980488 18.892828
v 4.314523 -18.783018 40.960278
v 10.173182 -42.006512 25.229479
v 20.894413 -35.980488 18.892828
v 4.245064 -8.509111 45.687702
v 4.314523 -18.783018 40.960278
v 10.173182 -42.006512 25.229479
v 4.314523 -18.783018 40.960278
v 5.866533 -39.853374 28.101250
v -0.770550 -14.132862 44.583309
v 4.314523 -18.783018 40.960278
v 4.245064 -8.509111 45.687702
v -1.353558 -15.615232 44.024223
v 4.314523 -18.783018 40.960278
v -0.770550 -14.132862 44.583309
v 5.866533 -39.853374 28.101250
v 4.314523 -18.783018 40.960278
v -6.583920 -17.873993 44.175621
v -6.583920 -17.873993 44.175621
v 4.314523 -18.783018 40.960278
v -1.353558 -15.615232 44.024223
vn -0.062191 0.173879 -0.982801
vn -0.114126 0.247831 -0.962058
vn -0.059886 0.229577 -0.971446
vn 0.607338 0.041034 -0.793383
vn 0.906849 0.352489 -0.231033
vn 0.803378 -0.473824 -0.360658
vn 0.230315 -0.923370 -0.307153
vn 0.636715 -0.717843 -0.281593
vn -0.457384 -0.878614 -0.137251
vn 0.639054 -0.765874 -0.071038
vn 0.628345 -0.773421 0.083679
vn 0.613986 -0.769811 0.174391
vn 0.873188 0.415361 -0.254986
vn 0.443430 -0.858971 0.256004
vn 0.526805 -0.803595 0.276967
vn 0.594302 -0.752317 0.284295
vn -0.469505 0.878952 0.083718
vn -0.578298 0.808657 0.107912
vn -0.624569 0.412095 -0.663394
vn -0.797178 0.170862 -0.579062
vn -0.918828 0.180460 -0.350983
vn -0.899549 0.294334 -0.322767
vn -0.550253 0.569230 -0.610901
vn -0.593994 0.588176 -0.548836
vn -0.680049 0.536939 -0.499229
vn -0.470554 -0.880801 -0.052615
vn -0.330731 -0.923753 0.193127
vn -0.694897 0.678109 0.239348
vn -0.874286 0.333309 0.352887
vn 0.564863 -0.769164 0.298858
vn 0.571793 -0.764921 0.296561
vn 0.596038 -0.744700 0.300266
vn -0.444689 0.887055 0.124033
vn -0.525985 0.825804 0.203441
vn -0.355654 0.917488 0.178115
vn -0.384041 0.852745 0.354031
vn -0.561653 -0.727744 0.393618
vn -0.547525 -0.777149 0.310253
vn -0.400364 -0.831882 0.384293
vn 0.176167 0.930265 0.321826
vn -0.174181 0.791915 0.585262
vn -0.265657 0.597683 0.756440
vn -0.771332 0.135846 0.621766
vn -0.611590 0.506404 0.607876
vn -0.006806 0.433307 0.901221
vn -0.444687 0.490899 0.749181
vn -0.447455 0.483499 0.752338
vn -0.288871 0.560207 0.776352
vn 0.209221 0.296413 0.931862
vn 0.257794 0.217510 0.941399
vn 0.187028 0.927612 0.323351
vn 0.170505 -0.648473 0.741896
vn 0.587113 0.768409 0.254649
vn 0.644351 0.730544 0.226089
vn 0.627888 0.725629 0.281458
vn 0.493750 0.273997 0.825310
vn 0.528004 0.457609 0.715406
vn 0.687160 0.580616 0.436687
vn -0.468700 -0.689307 0.552427
vn -0.380405 -0.736611 0.559192
vn -0.096760 -0.686258 0.720894
vn 0.923138 0.343662 -0.172377
vn 0.922518 0.345191 -0.172639
vn 0.891407 0.453126 -0.008389
vn 0.934237 0.318335 -0.160821
vn 0.926134 0.337048 -0.169337
vn 0.798348 -0.116532 0.590813
vn 0.894704 0.344998 0.283692
vn 0.904383 0.395727 0.159662
vn -0.173378 -0.066873 0.982582
vn 0.302335 0.019491 0.953002
vn 0.101499 -0.041419 0.993973
vn 0.704233 -0.228749 0.672109
vn 0.756052 -0.159843 0.634694
vn 0.440793 0.097944 0.892249
vn 0.458849 0.108688 0.881842
vn 0.323002 0.024065 0.946092
vn -0.547156 -0.225871 0.805979
vn -0.433242 -0.651321 0.622962
vn -0.266071 -0.182244 0.946569
vn -0.041069 -0.604871 0.795264
vn 0.092705 -0.331128 0.939021
vn 0.224959 -0.377070 0.898450
vn 0.178594 -0.376577 0.909007
vn 0.204843 -0.414914 0.886502
vn 0.611294 -0.332308 0.718255
vn 0.616368 -0.325722 0.716935
vn 0.308636 -0.478840 0.821861
vn 0.257820 -0.402439 0.878391
vn 0.236492 -0.422931 0.874758
vn 0.206785 -0.498537 0.841844
vn 0.218461 -0.447749 0.867061
f 1//1 2//1 3//1
f 4//2 5//2 6//2
f 7//3 8//3 9//3
f 10//4 11//4 12//4
f 13//5 14//5 15//5
f 16//6 17//6 18//6
f 19//7 20//7 21//7
f 22//8 23//8 24//8
f 25//9 26//9 27//9
f 28//10 29//10 30//10
f 31//11 32//11 33//11
f 34//12 35//12 36//12
f 37//13 38//13 39//13
f 40//14 41//14 42//14
f 43//15 44//15 45//15
f 46//16 47//16 48//16
f 49//17 50//17 51//17
f 52//18 53//18 54//18
f 55//19 56//19 57//19
f 58//20 59//20 60//20
f 61//21 62//21 63//21
f 64//22 65//22 66//22
f 67//23 68//23 69//23
f 70//24 71//24 72//24
f 73//25 74//25 75//25
f 76//26 77//26 78//26
f 79//27 80//27 81//27
f 82//28 83//28 84//28
f 85//29 86//29 87//29
f 88//30 89//30 90//30
f 91//31 92//31 93//31
f 94//32 95//32 96//32
f 97//33 98//33 99//33
f 100//34 101//34 102//34
f 103//35 104//35 105//35
f 106//36 107//36 108//36
f 109//37 110//37 111//37
f 112//38 113//38 114//38
f 115//39 116//39 117//39
f 118//40 119//40 120//40
f 121//41 122//41 123//41
f 124//42 125//42 126//42
f 127//43 128//43 129//43
f 130//44 131//44 132//44
f 133//45 134//45 135//45
f 136//46 137//46 138//46
f 139//47 140//47 141//47
f 142//48 143//48 144//48
f 145//49 146//49 147//49
f 148//50 149//50 150//50
f 151//51 152//51 153//51
f 154//52 155//52 156//52
f 157//53 158//53 159//53
f 160//54 161//54 162//54
f 163//55 164//55 165//55
f 166//56 167//56 168//56
f 169//57 170//57 171//57
f 172//58 173//58 174//58
f 175//59 176//59 177//59
f 178//60 179//60 180//60
f 181//61 182//61 183//61
f 184//62 185//62 186//62
f 187//63 188//63 189//63
f 190//64 191//64 192//64
f 193//65 194//65 195//65
f 196//66 197//66 198//66
f 199//67 200//67 201//67
f 202//68 203//68 204//68
f 205//69 206//69 207//69
f 208//70 209//70 210//70
f 211//71 212//71 213//71
f 214//72 215//72 216//72
f 217//73 218//73 219//73
f 220//74 221//74 222//74
f 223//75 224//75 225//75
f 226//76 227//76 228//76
f 229//77 230//77 231//77
f 232//78 233//78 234//78
f 235//79 236//79 237//79
f 238//80 239//80 240//80
f 241//81 242//81 243//81
f 244//82 245//82 246//82
f 247//83 248//83 249//83
f 250//84 251//84 252//84
f 253//85 254//85 255//85
f 256//86 257//86 258//86
f 259//87 260//87 261//87
f 262//88 263//88 264//88
f 265//89 266//89 267//89
f 268//90 269//90 270//90
f 271//91 272//91 273//91
f 274//92 275//92 276//92
