o
v 215.310883 -12.188290 126.398552
v 110.633713 -85.723167 -52.346096
v 73.633072 -165.419724 -140.758667
v 215.310883 -12.188290 126.398552
v 233.444885 64.213425 97.333488
v 233.388077 64.151222 97.597412
v 215.310883 -12.188290 126.398552
v 233.388077 64.151222 97.597412
v 193.759155 137.396332 82.078171
v 233.444885 64.213425 97.333488
v 193.759155 137.396332 82.078171
v 233.388077 64.151222 97.597412
v 215.310883 -12.188290 126.398552
v 191.701645 135.749390 82.392090
v 137.681885 177.324478 39.013000
v 137.681885 177.324478 39.013000
v 191.701645 135.749390 82.392090
v 193.759155 137.396332 82.078171
v 215.310883 -12.188290 126.398552
v 193.759155 137.396332 82.078171
v 191.701645 135.749390 82.392090
v 110.633713 -85.723167 -52.346096
v 112.944283 1.045270 -34.830585
v 73.633072 -165.419724 -140.758667
v 73.633072 -165.419724 -140.758667
v 112.944283 1.045270 -34.830585
v 137.681885 177.324478 39.013000
v 137.681885 177.324478 39.013000
v 112.944283 1.045270 -34.830585
v 110.633713 -85.723167 -52.346096
v 73.633072 -165.419724 -140.758667
v 137.681885 177.324478 39.013000
v 118.454865 60.840462 -125.191910
v 137.681885 177.324478 39.013000
v 141.412781 170.028778 8.311071
v 141.361618 169.913651 7.929389
v 215.310883 -12.188290 126.398552
v 154.824188 1.517859 36.148075
v 110.633713 -85.723167 -52.346096
v 215.310883 -12.188290 126.398552
v 137.681885 177.324478 39.013000
v 154.824188 1.517859 36.148075
v 137.681885 177.324478 39.013000
v 110.633713 -85.723167 -52.346096
v 154.824188 1.517859 36.148075
v 238.731613 32.435631 -106.309166
v 237.841644 28.670757 -106.838509
v 239.454849 58.172859 -114.105148
v 238.731613 32.435631 -106.309166
v 239.454849 58.172859 -114.105148
v 239.851074 58.689098 -111.108353
v 137.681885 177.324478 39.013000
v 137.172714 138.802948 -47.177521
v 118.454865 60.840462 -125.191910
v 137.681885 177.324478 39.013000
v 141.361618 169.913651 7.929389
v 137.172714 138.802948 -47.177521
v 215.310883 -12.188290 126.398552
v 73.633072 -165.419724 -140.758667
v 233.809677 13.463889 -101.269386
v 137.172714 138.802948 -47.177521
v 140.740295 140.795013 -48.256115
v 118.454865 60.840462 -125.191910
v 141.361618 169.913651 7.929389
v 140.740295 140.795013 -48.256115
v 137.172714 138.802948 -47.177521
v 237.841644 28.670757 -106.838509
v 226.662994 15.728902 -113.753471
v 239.454849 58.172859 -114.105148
v 233.809677 13.463889 -101.269386
v 226.662994 15.728902 -113.753471
v 237.841644 28.670757 -106.838509
v 73.633072 -165.419724 -140.758667
v 226.662994 15.728902 -113.753471
v 233.809677 13.463889 -101.269386
v 73.633072 -165.419724 -140.758667
v 179.374619 58.771576 -155.357697
v 226.662994 15.728902 -113.753471
v 73.633072 -165.419724 -140.758667
v 118.454865 60.840462 -125.191910
v 172.761780 60.008514 -153.186249
v 73.633072 -165.419724 -140.758667
v 172.761780 60.008514 -153.186249
v 179.374619 58.771576 -155.357697
v 140.740295 140.795013 -48.256115
v 172.761780 60.008514 -153.186249
v 118.454865 60.840462 -125.191910
v 215.310883 -12.188290 126.398552
v 238.046524 28.211452 -58.407986
v 233.444885 64.213425 97.333488
v 238.731613 32.435631 -106.309166
v 238.046524 28.211452 -58.407986
v 237.841644 28.670757 -106.838509
v 233.444885 64.213425 97.333488
v 238.046524 28.211452 -58.407986
v 239.851074 58.689098 -111.108353
v 238.731613 32.435631 -106.309166
v 239.851074 58.689098 -111.108353
v 238.046524 28.211452 -58.407986
v 233.809677 13.463889 -101.269386
v 237.841644 28.670757 -106.838509
v 238.046524 28.211452 -58.407986
v 215.310883 -12.188290 126.398552
v 233.809677 13.463889 -101.269386
v 237.683807 27.294279 -57.774841
v 215.310883 -12.188290 126.398552
v 237.683807 27.294279 -57.774841
v 238.046524 28.211452 -58.407986
v 233.809677 13.463889 -101.269386
v 238.046524 28.211452 -58.407986
v 237.683807 27.294279 -57.774841
v 226.662994 15.728902 -113.753471
v 225.259048 57.458038 -124.405251
v 239.454849 58.172859 -114.105148
v 239.454849 58.172859 -114.105148
v 225.259048 57.458038 -124.405251
v 179.374619 58.771576 -155.357697
v 179.374619 58.771576 -155.357697
v 225.259048 57.458038 -124.405251
v 226.662994 15.728902 -113.753471
v 233.444885 64.213425 97.333488
v 214.327240 139.166718 -4.366274
v 193.759155 137.396332 82.078171
v 137.681885 177.324478 39.013000
v 193.759155 137.396332 82.078171
v 214.327240 139.166718 -4.366274
v 137.681885 177.324478 39.013000
v 212.714905 137.366287 -28.743168
v 141.412781 170.028778 8.311071
v 137.681885 177.324478 39.013000
v 214.327240 139.166718 -4.366274
v 212.714905 137.366287 -28.743168
v 141.412781 170.028778 8.311071
v 212.714905 137.366287 -28.743168
v 141.361618 169.913651 7.929389
v 233.444885 64.213425 97.333488
v 239.851074 58.689098 -111.108353
v 228.570465 102.531013 -50.007793
v 233.444885 64.213425 97.333488
v 228.570465 102.531013 -50.007793
v 214.327240 139.166718 -4.366274
v 239.454849 58.172859 -114.105148
v 228.570465 102.531013 -50.007793
v 239.851074 58.689098 -111.108353
v 239.454849 58.172859 -114.105148
v 212.714905 137.366287 -28.743168
v 228.570465 102.531013 -50.007793
v 214.327240 139.166718 -4.366274
v 228.570465 102.531013 -50.007793
v 212.714905 137.366287 -28.743168
v 172.761780 60.008514 -153.186249
v 175.854568 120.959015 -86.721504
v 179.374619 58.771576 -155.357697
v 140.740295 140.795013 -48.256115
v 175.854568 120.959015 -86.721504
v 172.761780 60.008514 -153.186249
v 141.361618 169.913651 7.929389
v 175.854568 120.959015 -86.721504
v 140.740295 140.795013 -48.256115
v 212.714905 137.366287 -28.743168
v 175.854568 120.959015 -86.721504
v 141.361618 169.913651 7.929389
v 239.454849 58.172859 -114.105148
v 179.374619 58.771576 -155.357697
v 175.934616 120.497078 -87.199509
v 175.854568 120.959015 -86.721504
v 175.934616 120.497078 -87.199509
v 179.374619 58.771576 -155.357697
v 239.454849 58.172859 -114.105148
v 175.934616 120.497078 -87.199509
v 175.854568 120.959015 -86.721504
v 239.454849 58.172859 -114.105148
v 200.153397 102.772232 -89.984695
v 212.714905 137.366287 -28.743168
v 212.714905 137.366287 -28.743168
v 200.153397 102.772232 -89.984695
v 175.854568 120.959015 -86.721504
v 239.454849 58.172859 -114.105148
v 175.854568 120.959015 -86.721504
v 200.153397 102.772232 -89.984695
vn -0.780085 -0.266053 0.566289
vn 0.971383 -0.165891 0.169988
vn 0.198102 0.304582 0.931657
vn 0.813398 0.502263 0.293456
vn -0.540609 0.159440 0.826027
vn -0.274823 0.499886 0.821332
vn -0.072742 0.273681 0.959066
vn -0.898910 -0.063571 0.433497
vn -0.914334 -0.040479 0.402932
vn -0.883635 -0.069918 0.462926
vn -0.980333 0.195864 -0.024154
vn -0.235113 0.938822 -0.251663
vn -0.832847 -0.125068 0.539188
vn -0.833585 -0.090161 0.544984
vn -0.851934 -0.091471 0.515598
vn 0.894578 -0.152397 -0.420125
vn 0.990706 -0.064168 -0.119934
vn -0.907921 0.384635 -0.166543
vn -0.838255 0.499649 -0.218358
vn 0.746478 -0.665256 -0.014303
vn -0.529641 0.660143 -0.532628
vn -0.535927 0.751985 -0.383797
vn 0.678793 -0.210406 -0.703540
vn 0.766845 -0.390005 -0.509750
vn 0.699100 -0.516938 -0.493998
vn 0.477999 -0.279672 -0.832647
vn -0.451197 0.149908 -0.879744
vn -0.297737 0.078475 -0.951417
vn -0.317820 0.701927 -0.637408
vn 0.976265 -0.202901 0.075749
vn 0.973358 -0.229205 -0.006291
vn 0.999507 -0.005797 0.030872
vn 0.999116 -0.040646 0.010705
vn 0.965985 -0.258517 -0.006538
vn 0.929371 -0.367569 0.034099
vn 0.938390 -0.343206 0.040418
vn 0.936048 -0.350745 0.028155
vn 0.583421 -0.182390 -0.791425
vn 0.503158 0.468789 -0.725995
vn 0.545293 -0.190052 -0.816416
vn 0.840400 0.499548 0.210191
vn 0.502542 0.853620 0.137054
vn 0.330852 0.926371 -0.179928
vn 0.400650 0.911416 -0.093815
vn 0.257751 0.914951 -0.310529
vn 0.975803 0.217307 0.024231
vn 0.949964 0.308522 0.048807
vn 0.847699 0.492569 -0.196931
vn 0.835196 0.508302 -0.209943
vn 0.883814 0.458637 -0.092331
vn -0.082741 0.736407 -0.671461
vn -0.297247 0.710556 -0.637773
vn -0.002474 0.887857 -0.460113
vn 0.210185 0.897537 -0.387621
vn 0.417596 0.683883 -0.598262
vn 0.363373 0.699603 -0.615236
vn 0.422309 0.686133 -0.592349
vn 0.495978 0.708540 -0.501972
vn 0.472734 0.722203 -0.504922
vn 0.446161 0.696858 -0.561542
f 1//1 2//1 3//1
f 4//2 5//2 6//2
f 7//3 8//3 9//3
f 10//4 11//4 12//4
f 13//5 14//5 15//5
f 16//6 17//6 18//6
f 19//7 20//7 21//7
f 22//8 23//8 24//8
f 25//9 26//9 27//9
f 28//10 29//10 30//10
f 31//11 32//11 33//11
f 34//12 35//12 36//12
f 37//13 38//13 39//13
f 40//14 41//14 42//14
f 43//15 44//15 45//15
f 46//16 47//16 48//16
f 49//17 50//17 51//17
f 52//18 53//18 54//18
f 55//19 56//19 57//19
f 58//20 59//20 60//20
f 61//21 62//21 63//21
f 64//22 65//22 66//22
f 67//23 68//23 69//23
f 70//24 71//24 72//24
f 73//25 74//25 75//25
f 76//26 77//26 78//26
f 79//27 80//27 81//27
f 82//28 83//28 84//28
f 85//29 86//29 87//29
f 88//30 89//30 90//30
f 91//31 92//31 93//31
f 94//32 95//32 96//32
f 97//33 98//33 99//33
f 100//34 101//34 102//34
f 103//35 104//35 105//35
f 106//36 107//36 108//36
f 109//37 110//37 111//37
f 112//38 113//38 114//38
f 115//39 116//39 117//39
f 118//40 119//40 120//40
f 121//41 122//41 123//41
f 124//42 125//42 126//42
f 127//43 128//43 129//43
f 130//44 131//44 132//44
f 133//45 134//45 135//45
f 136//46 137//46 138//46
f 139//47 140//47 141//47
f 142//48 143//48 144//48
f 145//49 146//49 147//49
f 148//50 149//50 150//50
f 151//51 152//51 153//51
f 154//52 155//52 156//52
f 157//53 158//53 159//53
f 160//54 161//54 162//54
f 163//55 164//55 165//55
f 166//56 167//56 168//56
f 169//57 170//57 171//57
f 172//58 173//58 174//58
f 175//59 176//59 177//59
f 178//60 179//60 180//60
