o
v -196.975922 -104.739693 62.043182
v -130.836334 -24.168131 -80.895195
v 196.779510 -58.923622 -107.259766
v 196.779510 -58.923622 -107.259766
v -130.836334 -24.168131 -80.895195
v -26.177818 34.867176 -169.652069
v -196.975922 -104.739693 62.043182
v 196.779510 -58.923622 -107.259766
v -126.130760 -26.164839 140.635681
v -196.975922 -104.739693 62.043182
v -126.130760 -26.164839 140.635681
v -126.461288 -26.277164 140.632782
v -130.836334 -24.168131 -80.895195
v -183.840546 28.271011 -85.193901
v -26.177818 34.867176 -169.652069
v -142.400711 38.494835 -109.773552
v -26.177818 34.867176 -169.652069
v -183.840546 28.271011 -85.193901
v -196.975922 -104.739693 62.043182
v -183.840546 28.271011 -85.193901
v -130.836334 -24.168131 -80.895195
v 196.779510 -58.923622 -107.259766
v -26.177818 34.867176 -169.652069
v -21.258745 199.975403 -102.440201
v -196.975922 -104.739693 62.043182
v -126.461288 -26.277164 140.632782
v -182.641113 9.624184 145.433746
v -142.400711 38.494835 -109.773552
v -30.061895 197.141556 -105.286713
v -26.177818 34.867176 -169.652069
v -26.177818 34.867176 -169.652069
v -30.061895 197.141556 -105.286713
v -21.258745 199.975403 -102.440201
v 196.779510 -58.923622 -107.259766
v 7.539843 147.581207 192.229950
v -44.918457 113.449203 208.948837
v -126.130760 -26.164839 140.635681
v -44.918457 113.449203 208.948837
v -126.461288 -26.277164 140.632782
v 196.779510 -58.923622 -107.259766
v -4.707564 35.588272 120.435760
v -126.130760 -26.164839 140.635681
v 196.779510 -58.923622 -107.259766
v -44.918457 113.449203 208.948837
v -4.707564 35.588272 120.435760
v -126.130760 -26.164839 140.635681
v -4.707564 35.588272 120.435760
v -44.918457 113.449203 208.948837
v -196.975922 -104.739693 62.043182
v -214.213882 12.429081 51.151348
v -183.840546 28.271011 -85.193901
v -196.975922 -104.739693 62.043182
v -182.641113 9.624184 145.433746
v -214.213882 12.429081 51.151348
v -126.461288 -26.277164 140.632782
v -100.076004 82.295998 194.628540
v -182.641113 9.624184 145.433746
v -44.918457 113.449203 208.948837
v -100.076004 82.295998 194.628540
v -126.461288 -26.277164 140.632782
v 196.779510 -58.923622 -107.259766
v 6.128387 156.155502 158.181885
v 7.539843 147.581207 192.229950
v 6.128387 156.155502 158.181885
v -41.374660 233.331543 -22.196880
v 7.539843 147.581207 192.229950
v 196.779510 -58.923622 -107.259766
v -21.258745 199.975403 -102.440201
v -41.374660 233.331543 -22.196880
v 196.779510 -58.923622 -107.259766
v -41.374660 233.331543 -22.196880
v 6.128387 156.155502 158.181885
v -30.061895 197.141556 -105.286713
v -53.920441 237.451645 -21.330166
v -21.258745 199.975403 -102.440201
v -21.258745 199.975403 -102.440201
v -53.920441 237.451645 -21.330166
v -41.374660 233.331543 -22.196880
v -100.076004 82.295998 194.628540
v -137.583191 95.181183 177.091660
v -182.641113 9.624184 145.433746
v -53.920441 237.451645 -21.330166
v -54.281734 237.513184 -20.508032
v -41.374660 233.331543 -22.196880
v -44.918457 113.449203 208.948837
v -132.680786 122.527046 179.035004
v -100.076004 82.295998 194.628540
v -100.076004 82.295998 194.628540
v -137.121567 123.140701 177.499573
v -137.583191 95.181183 177.091660
v -132.680786 122.527046 179.035004
v -137.121567 123.140701 177.499573
v -100.076004 82.295998 194.628540
v -137.583191 95.181183 177.091660
v -137.121567 123.140701 177.499573
v -182.641113 9.624184 145.433746
v -44.918457 113.449203 208.948837
v -137.121567 123.140701 177.499573
v -132.680786 122.527046 179.035004
v -142.400711 38.494835 -109.773552
v -183.840546 28.271011 -85.193901
v -141.137207 99.693283 -82.779434
v -142.400711 38.494835 -109.773552
v -141.137207 99.693283 -82.779434
v -30.061895 197.141556 -105.286713
v 7.539843 147.581207 192.229950
v -106.954300 157.354034 173.971527
v -44.918457 113.449203 208.948837
v -44.918457 113.449203 208.948837
v -132.210373 140.355850 173.859955
v -137.121567 123.140701 177.499573
v -106.954300 157.354034 173.971527
v -132.210373 140.355850 173.859955
v -44.918457 113.449203 208.948837
v 7.539843 147.581207 192.229950
v -57.468868 173.264343 156.135040
v -106.954300 157.354034 173.971527
v -106.954300 157.354034 173.971527
v -116.462631 155.879715 169.416946
v -132.210373 140.355850 173.859955
v -41.374660 233.331543 -22.196880
v -64.153641 215.669342 96.116577
v 7.539843 147.581207 192.229950
v -54.281734 237.513184 -20.508032
v -64.153641 215.669342 96.116577
v -41.374660 233.331543 -22.196880
v 7.539843 147.581207 192.229950
v -64.153641 215.669342 96.116577
v -57.468868 173.264343 156.135040
v -54.281734 237.513184 -20.508032
v -70.981773 226.763443 54.552429
v -64.153641 215.669342 96.116577
v -54.281734 237.513184 -20.508032
v -71.145241 226.812820 54.297367
v -70.981773 226.763443 54.552429
v -106.954300 157.354034 173.971527
v -122.728539 183.852005 137.737534
v -116.462631 155.879715 169.416946
v -57.468868 173.264343 156.135040
v -122.728539 183.852005 137.737534
v -106.954300 157.354034 173.971527
v -64.153641 215.669342 96.116577
v -122.728539 183.852005 137.737534
v -57.468868 173.264343 156.135040
v -116.462631 155.879715 169.416946
v -122.728539 183.852005 137.737534
v -132.210373 140.355850 173.859955
v -70.981773 226.763443 54.552429
v -75.514671 223.229660 69.296234
v -64.153641 215.669342 96.116577
v -54.281734 237.513184 -20.508032
v -83.290192 226.891113 52.930389
v -71.145241 226.812820 54.297367
v -71.145241 226.812820 54.297367
v -83.290192 226.891113 52.930389
v -70.981773 226.763443 54.552429
v -70.981773 226.763443 54.552429
v -83.290192 226.891113 52.930389
v -75.514671 223.229660 69.296234
v -30.061895 197.141556 -105.286713
v -198.771530 168.465454 6.630510
v -53.920441 237.451645 -21.330166
v -141.137207 99.693283 -82.779434
v -198.771530 168.465454 6.630510
v -30.061895 197.141556 -105.286713
v -53.920441 237.451645 -21.330166
v -198.771530 168.465454 6.630510
v -54.281734 237.513184 -20.508032
v -183.840546 28.271011 -85.193901
v -198.771530 168.465454 6.630510
v -141.137207 99.693283 -82.779434
v -64.153641 215.669342 96.116577
v -116.435577 215.631104 71.545631
v -122.728539 183.852005 137.737534
v -75.514671 223.229660 69.296234
v -116.435577 215.631104 71.545631
v -64.153641 215.669342 96.116577
v -83.290192 226.891113 52.930389
v -116.435577 215.631104 71.545631
v -75.514671 223.229660 69.296234
v -54.281734 237.513184 -20.508032
v -108.947342 218.843521 51.040760
v -83.290192 226.891113 52.930389
v -83.290192 226.891113 52.930389
v -108.947342 218.843521 51.040760
v -116.435577 215.631104 71.545631
v -214.213882 12.429081 51.151348
v -211.770935 133.953461 33.686676
v -183.840546 28.271011 -85.193901
v -182.641113 9.624184 145.433746
v -211.770935 133.953461 33.686676
v -214.213882 12.429081 51.151348
v -183.840546 28.271011 -85.193901
v -211.770935 133.953461 33.686676
v -198.771530 168.465454 6.630510
v -122.728539 183.852005 137.737534
v -160.846786 185.329041 100.058609
v -132.210373 140.355850 173.859955
v -116.435577 215.631104 71.545631
v -160.846786 185.329041 100.058609
v -122.728539 183.852005 137.737534
v -160.846786 185.329041 100.058609
v -161.672638 185.258621 99.070160
v -132.210373 140.355850 173.859955
v -198.771530 168.465454 6.630510
v -191.981110 173.839050 12.372883
v -54.281734 237.513184 -20.508032
v -54.281734 237.513184 -20.508032
v -191.981110 173.839050 12.372883
v -108.947342 218.843521 51.040760
v -161.672638 185.258621 99.070160
v -160.200958 179.068115 105.634842
v -132.210373 140.355850 173.859955
v -116.435577 215.631104 71.545631
v -164.002106 185.933197 95.148651
v -160.846786 185.329041 100.058609
v -160.846786 185.329041 100.058609
v -164.002106 185.933197 95.148651
v -161.672638 185.258621 99.070160
v -108.947342 218.843521 51.040760
v -118.086662 214.806961 55.652309
v -116.435577 215.631104 71.545631
v -191.981110 173.839050 12.372883
v -118.086662 214.806961 55.652309
v -108.947342 218.843521 51.040760
v -191.981110 173.839050 12.372883
v -116.435577 215.631104 71.545631
v -118.086662 214.806961 55.652309
v -116.435577 215.631104 71.545631
v -164.282089 185.991287 94.088150
v -164.002106 185.933197 95.148651
v -191.981110 173.839050 12.372883
v -164.282089 185.991287 94.088150
v -116.435577 215.631104 71.545631
v -198.771530 168.465454 6.630510
v -164.282089 185.991287 94.088150
v -191.981110 173.839050 12.372883
v -211.770935 133.953461 33.686676
v -202.936432 156.397202 36.742157
v -198.771530 168.465454 6.630510
v -164.282089 185.991287 94.088150
v -202.936432 156.397202 36.742157
v -164.002106 185.933197 95.148651
v -132.210373 140.355850 173.859955
v -180.752502 139.813965 103.694916
v -137.121567 123.140701 177.499573
v -198.771530 168.465454 6.630510
v -201.112732 158.964172 36.441010
v -164.282089 185.991287 94.088150
v -202.936432 156.397202 36.742157
v -201.112732 158.964172 36.441010
v -198.771530 168.465454 6.630510
v -164.282089 185.991287 94.088150
v -201.112732 158.964172 36.441010
v -202.936432 156.397202 36.742157
v -137.121567 123.140701 177.499573
v -186.993591 136.905121 95.660484
v -182.641113 9.624184 145.433746
v -180.752502 139.813965 103.694916
v -186.993591 136.905121 95.660484
v -137.121567 123.140701 177.499573
v -182.641113 9.624184 145.433746
v -186.993591 136.905121 95.660484
v -211.770935 133.953461 33.686676
v -160.200958 179.068115 105.634842
v -185.345078 147.623932 91.622284
v -132.210373 140.355850 173.859955
v -132.210373 140.355850 173.859955
v -185.345078 147.623932 91.622284
v -180.752502 139.813965 103.694916
v -161.672638 185.258621 99.070160
v -185.345078 147.623932 91.622284
v -160.200958 179.068115 105.634842
v -164.002106 185.933197 95.148651
v -185.345078 147.623932 91.622284
v -161.672638 185.258621 99.070160
v -211.770935 133.953461 33.686676
v -185.345078 147.623932 91.622284
v -202.936432 156.397202 36.742157
v -186.993591 136.905121 95.660484
v -185.345078 147.623932 91.622284
v -211.770935 133.953461 33.686676
v -202.936432 156.397202 36.742157
v -185.345078 147.623932 91.622284
v -164.002106 185.933197 95.148651
v -180.752502 139.813965 103.694916
v -185.345078 147.623932 91.622284
v -186.993591 136.905121 95.660484
vn -0.131553 -0.836290 -0.532272
vn -0.131684 -0.746735 -0.651956
vn 0.314082 -0.797860 0.514560
vn 0.263825 -0.790591 0.552596
vn -0.401395 -0.470155 -0.786026
vn -0.450422 -0.241065 -0.859655
vn -0.543871 -0.597993 -0.588734
vn 0.382922 0.338488 -0.859533
vn -0.279094 -0.542677 0.792217
vn -0.425110 0.324916 -0.844814
vn 0.177346 0.366521 -0.913351
vn 0.539096 -0.494632 0.681700
vn 0.165757 -0.509548 0.844325
vn 0.429428 -0.633989 0.643156
vn 0.536747 -0.497499 0.681467
vn 0.412794 -0.582665 0.700073
vn -0.958890 -0.162687 -0.232513
vn -0.943495 -0.109741 0.312688
vn -0.180497 -0.402464 0.897465
vn 0.022010 -0.449469 0.893025
vn 0.808227 0.578107 0.112079
vn 0.612534 0.772154 0.169058
vn 0.761953 0.643119 -0.076325
vn 0.782230 0.620157 0.059336
vn -0.134007 0.877951 -0.459613
vn 0.277464 0.909810 -0.308640
vn -0.447805 -0.093212 0.889260
vn 0.315518 0.946494 0.067810
vn -0.309842 0.114725 0.943841
vn -0.425284 -0.006182 0.905039
vn -0.310519 0.114119 0.943692
vn -0.571667 -0.002532 0.820482
vn -0.307400 0.133039 0.942235
vn -0.540275 0.348917 -0.765741
vn -0.479815 0.362359 -0.799046
vn -0.086893 0.542747 0.835389
vn -0.284309 0.275269 0.918366
vn -0.248744 0.363693 0.897694
vn -0.031046 0.787136 0.615998
vn -0.416350 0.614216 0.670367
vn 0.499163 0.837805 0.221175
vn 0.325601 0.923977 0.200623
vn 0.002423 0.816842 0.576856
vn 0.298473 0.933216 0.200056
vn 0.057552 0.986383 0.154069
vn -0.409912 0.641987 0.647939
vn -0.039964 0.798172 0.601102
vn -0.031071 0.814689 0.579065
vn -0.438724 0.628790 0.641985
vn 0.055827 0.966915 0.248913
vn -0.009322 0.990173 0.139535
vn -0.016199 0.979655 0.200033
vn -0.019849 0.973633 0.227257
vn -0.450376 0.748187 -0.487214
vn -0.544176 0.457905 -0.702990
vn -0.455791 0.850056 -0.263930
vn -0.609630 0.387867 -0.691311
vn -0.193184 0.891544 0.409669
vn -0.154973 0.931773 0.328302
vn -0.159600 0.944501 0.287135
vn -0.300515 0.953583 0.019221
vn -0.301672 0.952611 0.039073
vn -0.975714 -0.011820 -0.218731
vn -0.945669 0.064799 0.318608
vn -0.942553 0.106910 -0.316488
vn -0.549787 0.601333 0.579770
vn -0.342333 0.859302 0.380010
vn -0.697709 0.458715 0.550257
vn -0.455609 0.851855 -0.258386
vn -0.437328 0.893617 -0.100956
vn -0.761714 0.377400 0.526651
vn -0.368894 0.863731 0.343345
vn -0.623748 0.619177 0.477031
vn -0.406200 0.913769 -0.005185
vn -0.440903 0.892794 -0.092321
vn -0.487261 0.873240 0.005338
vn -0.460174 0.871551 0.169231
vn -0.510544 0.858654 0.045365
vn -0.677144 0.725733 0.121605
vn -0.931164 0.364196 0.017169
vn -0.788598 0.566466 0.239227
vn -0.776230 0.334435 0.534435
vn -0.730354 0.665322 0.154694
vn -0.802113 0.584318 0.123240
vn -0.781289 0.581634 0.226472
vn -0.826129 0.180489 0.533792
vn -0.806198 0.254526 0.534098
vn -0.924624 0.110875 0.364387
vn -0.762945 0.375616 0.526144
vn -0.766998 0.364866 0.527813
vn -0.763118 0.375984 0.525630
vn -0.765654 0.378701 0.519960
vn -0.891515 0.305376 0.334585
vn -0.898719 0.268764 0.346511
vn -0.835276 0.434315 0.337171
vn -0.801411 0.314842 0.508542
f 1//1 2//1 3//1
f 4//2 5//2 6//2
f 7//3 8//3 9//3
f 10//4 11//4 12//4
f 13//5 14//5 15//5
f 16//6 17//6 18//6
f 19//7 20//7 21//7
f 22//8 23//8 24//8
f 25//9 26//9 27//9
f 28//10 29//10 30//10
f 31//11 32//11 33//11
f 34//12 35//12 36//12
f 37//13 38//13 39//13
f 40//14 41//14 42//14
f 43//15 44//15 45//15
f 46//16 47//16 48//16
f 49//17 50//17 51//17
f 52//18 53//18 54//18
f 55//19 56//19 57//19
f 58//20 59//20 60//20
f 61//21 62//21 63//21
f 64//22 65//22 66//22
f 67//23 68//23 69//23
f 70//24 71//24 72//24
f 73//25 74//25 75//25
f 76//26 77//26 78//26
f 79//27 80//27 81//27
f 82//28 83//28 84//28
f 85//29 86//29 87//29
f 88//30 89//30 90//30
f 91//31 92//31 93//31
f 94//32 95//32 96//32
f 97//33 98//33 99//33
f 100//34 101//34 102//34
f 103//35 104//35 105//35
f 106//36 107//36 108//36
f 109//37 110//37 111//37
f 112//38 113//38 114//38
f 115//39 116//39 117//39
f 118//40 119//40 120//40
f 121//41 122//41 123//41
f 124//42 125//42 126//42
f 127//43 128//43 129//43
f 130//44 131//44 132//44
f 133//45 134//45 135//45
f 136//46 137//46 138//46
f 139//47 140//47 141//47
f 142//48 143//48 144//48
f 145//49 146//49 147//49
f 148//50 149//50 150//50
f 151//51 152//51 153//51
f 154//52 155//52 156//52
f 157//53 158//53 159//53
f 160//54 161//54 162//54
f 163//55 164//55 165//55
f 166//56 167//56 168//56
f 169//57 170//57 171//57
f 172//58 173//58 174//58
f 175//59 176//59 177//59
f 178//60 179//60 180//60
f 181//61 182//61 183//61
f 184//62 185//62 186//62
f 187//63 188//63 189//63
f 190//64 191//64 192//64
f 193//65 194//65 195//65
f 196//66 197//66 198//66
f 199//67 200//67 201//67
f 202//68 203//68 204//68
f 205//69 206//69 207//69
f 208//70 209//70 210//70
f 211//71 212//71 213//71
f 214//72 215//72 216//72
f 217//73 218//73 219//73
f 220//74 221//74 222//74
f 223//75 224//75 225//75
f 226//76 227//76 228//76
f 229//77 230//77 231//77
f 232//78 233//78 234//78
f 235//79 236//79 237//79
f 238//80 239//80 240//80
f 241//81 242//81 243//81
f 244//82 245//82 246//82
f 247//83 248//83 249//83
f 250//84 251//84 252//84
f 253//85 254//85 255//85
f 256//86 257//86 258//86
f 259//87 260//87 261//87
f 262//88 263//88 264//88
f 265//89 266//89 267//89
f 268//90 269//90 270//90
f 271//91 272//91 273//91
f 274//92 275//92 276//92
f 277//93 278//93 279//93
f 280//94 281//94 282//94
f 283//95 284//95 285//95
f 286//96 287//96 288//96
