o
v -21.258745 199.975403 -102.440201
v 2.048709 151.424805 149.337402
v 89.552040 -206.548706 -91.335442
v -21.258745 199.975403 -102.440201
v 89.552040 -206.548706 -91.335442
v -92.337250 -47.090130 -213.370270
v 89.552040 -206.548706 -91.335442
v -121.037170 -126.139717 -169.158646
v -92.337250 -47.090130 -213.370270
v -94.416969 -189.778442 114.389008
v -94.706345 -205.351868 42.204762
v 89.552040 -206.548706 -91.335442
v -95.083832 -189.670959 114.429314
v -94.706345 -205.351868 42.204762
v -94.416969 -189.778442 114.389008
v 2.048709 151.424805 149.337402
v -46.791424 34.962444 210.684570
v 89.552040 -206.548706 -91.335442
v 2.048709 151.424805 149.337402
v -70.841225 27.102118 224.639465
v -46.791424 34.962444 210.684570
v 89.552040 -206.548706 -91.335442
v -129.834122 -163.379959 -93.495094
v -121.037170 -126.139717 -169.158646
v -94.706345 -205.351868 42.204762
v -129.834122 -163.379959 -93.495094
v 89.552040 -206.548706 -91.335442
v -121.037170 -126.139717 -169.158646
v -185.406128 -2.532259 -164.692474
v -92.337250 -47.090130 -213.370270
v -21.258745 199.975403 -102.440201
v -92.337250 -47.090130 -213.370270
v -185.375031 -2.440299 -164.698792
v -185.406128 -2.532259 -164.692474
v -185.375031 -2.440299 -164.698792
v -92.337250 -47.090130 -213.370270
v -94.416969 -189.778442 114.389008
v 89.552040 -206.548706 -91.335442
v -105.576866 -108.580559 182.386780
v -46.791424 34.962444 210.684570
v -105.576866 -108.580559 182.386780
v 89.552040 -206.548706 -91.335442
v -95.083832 -189.670959 114.429314
v -94.416969 -189.778442 114.389008
v -105.576866 -108.580559 182.386780
v -70.841225 27.102118 224.639465
v -105.576866 -108.580559 182.386780
v -46.791424 34.962444 210.684570
v -129.834122 -163.379959 -93.495094
v -198.966354 -122.194946 -86.624214
v -121.037170 -126.139717 -169.158646
v -121.037170 -126.139717 -169.158646
v -195.021301 -36.738766 -141.576859
v -185.406128 -2.532259 -164.692474
v -198.966354 -122.194946 -86.624214
v -195.021301 -36.738766 -141.576859
v -121.037170 -126.139717 -169.158646
v 2.048709 151.424805 149.337402
v -137.583191 95.181183 177.091660
v -70.841225 27.102118 224.639465
v -129.834122 -163.379959 -93.495094
v -202.495178 -130.398911 -64.382797
v -198.966354 -122.194946 -86.624214
v -95.083832 -189.670959 114.429314
v -212.346191 -130.264130 -50.086178
v -94.706345 -205.351868 42.204762
v -94.706345 -205.351868 42.204762
v -212.346191 -130.264130 -50.086178
v -129.834122 -163.379959 -93.495094
v -202.495178 -130.398911 -64.382797
v -212.346191 -130.264130 -50.086178
v -198.966354 -122.194946 -86.624214
v -129.834122 -163.379959 -93.495094
v -202.565948 -131.922150 -60.942387
v -202.495178 -130.398911 -64.382797
v -212.346191 -130.264130 -50.086178
v -202.565948 -131.922150 -60.942387
v -129.834122 -163.379959 -93.495094
v -202.495178 -130.398911 -64.382797
v -202.565948 -131.922150 -60.942387
v -212.346191 -130.264130 -50.086178
v -195.021301 -36.738766 -141.576859
v -221.396729 -34.426052 -111.089218
v -185.406128 -2.532259 -164.692474
v -198.966354 -122.194946 -86.624214
v -221.396729 -34.426052 -111.089218
v -195.021301 -36.738766 -141.576859
v -221.396729 -34.426052 -111.089218
v -221.303467 -33.995457 -111.093994
v -185.406128 -2.532259 -164.692474
v -212.346191 -130.264130 -50.086178
v -217.122742 -112.613586 -58.423862
v -198.966354 -122.194946 -86.624214
v -185.406128 -2.532259 -164.692474
v -221.142822 -29.429491 -109.211311
v -185.375031 -2.440299 -164.698792
v -221.303467 -33.995457 -111.093994
v -221.142822 -29.429491 -109.211311
v -185.406128 -2.532259 -164.692474
v -221.396729 -34.426052 -111.089218
v -221.142822 -29.429491 -109.211311
v -221.303467 -33.995457 -111.093994
v -21.258745 199.975403 -102.440201
v -160.345795 152.596161 12.632140
v 2.048709 151.424805 149.337402
v -21.258745 199.975403 -102.440201
v -185.375031 -2.440299 -164.698792
v -136.815170 97.445236 -108.863289
v -198.966354 -122.194946 -86.624214
v -230.568832 -89.357719 -52.883553
v -221.396729 -34.426052 -111.089218
v -217.122742 -112.613586 -58.423862
v -230.568832 -89.357719 -52.883553
v -198.966354 -122.194946 -86.624214
v -212.346191 -130.264130 -50.086178
v -230.568832 -89.357719 -52.883553
v -217.122742 -112.613586 -58.423862
v -221.142822 -29.429491 -109.211311
v -211.329025 92.013504 -52.740631
v -185.375031 -2.440299 -164.698792
v -21.258745 199.975403 -102.440201
v -211.329025 92.013504 -52.740631
v -160.345795 152.596161 12.632140
v -21.258745 199.975403 -102.440201
v -136.815170 97.445236 -108.863289
v -211.329025 92.013504 -52.740631
v -185.375031 -2.440299 -164.698792
v -211.329025 92.013504 -52.740631
v -136.815170 97.445236 -108.863289
v 2.048709 151.424805 149.337402
v -176.077438 103.025131 126.330170
v -137.583191 95.181183 177.091660
v -160.345795 152.596161 12.632140
v -176.077438 103.025131 126.330170
v 2.048709 151.424805 149.337402
v -95.083832 -189.670959 114.429314
v -105.576866 -108.580559 182.386780
v -254.011307 -46.996147 39.539856
v -95.083832 -189.670959 114.429314
v -254.011307 -46.996147 39.539856
v -212.346191 -130.264130 -50.086178
v -221.396729 -34.426052 -111.089218
v -254.011307 -46.996147 39.539856
v -221.142822 -29.429491 -109.211311
v -230.568832 -89.357719 -52.883553
v -254.011307 -46.996147 39.539856
v -221.396729 -34.426052 -111.089218
v -212.346191 -130.264130 -50.086178
v -254.011307 -46.996147 39.539856
v -230.568832 -89.357719 -52.883553
v -221.142822 -29.429491 -109.211311
v -254.011307 -46.996147 39.539856
v -211.329025 92.013504 -52.740631
v -211.329025 92.013504 -52.740631
v -202.905289 86.516685 104.736313
v -160.345795 152.596161 12.632140
v -160.345795 152.596161 12.632140
v -202.905289 86.516685 104.736313
v -176.077438 103.025131 126.330170
v -176.077438 103.025131 126.330170
v -202.905289 86.516685 104.736313
v -137.583191 95.181183 177.091660
v -254.011307 -46.996147 39.539856
v -225.856644 55.981453 92.706947
v -211.329025 92.013504 -52.740631
v -211.329025 92.013504 -52.740631
v -225.856644 55.981453 92.706947
v -202.905289 86.516685 104.736313
v -202.905289 86.516685 104.736313
v -225.856644 55.981453 92.706947
v -137.583191 95.181183 177.091660
v -70.841225 27.102118 224.639465
v -193.651047 -13.401115 144.940689
v -105.576866 -108.580559 182.386780
v -137.583191 95.181183 177.091660
v -193.651047 -13.401115 144.940689
v -70.841225 27.102118 224.639465
v -254.011307 -46.996147 39.539856
v -193.651047 -13.401115 144.940689
v -225.856644 55.981453 92.706947
v -225.856644 55.981453 92.706947
v -193.651047 -13.401115 144.940689
v -137.583191 95.181183 177.091660
v -105.576866 -108.580559 182.386780
v -204.115387 -40.758064 112.774628
v -254.011307 -46.996147 39.539856
v -193.651047 -13.401115 144.940689
v -204.115387 -40.758064 112.774628
v -105.576866 -108.580559 182.386780
v -254.011307 -46.996147 39.539856
v -204.115387 -40.758064 112.774628
v -193.651047 -13.401115 144.940689
vn 0.964342 0.261802 -0.038787
vn 0.639993 0.153886 -0.752813
vn 0.116219 -0.516631 -0.848284
vn 0.144554 -0.967362 0.208124
vn -0.143259 -0.967308 0.209267
vn 0.869470 -0.111078 0.481336
vn 0.409829 0.284628 0.866618
vn -0.168045 -0.876576 -0.450972
vn -0.184778 -0.951383 -0.246430
vn -0.540619 -0.252534 -0.802469
vn -0.232621 0.453272 -0.860484
vn -0.430085 0.083689 -0.898901
vn 0.655282 -0.430017 0.621040
vn 0.673388 -0.398527 0.622676
vn -0.058039 -0.645632 0.761440
vn 0.553859 -0.373518 0.744127
vn -0.493296 -0.756363 -0.429621
vn -0.632568 -0.303668 -0.712491
vn -0.683697 -0.372120 -0.627762
vn -0.049779 0.538623 0.841075
vn -0.502578 -0.782180 -0.368254
vn -0.618766 -0.768355 0.163586
vn -0.438954 -0.884177 -0.159846
vn -0.540537 -0.757871 -0.365310
vn -0.501201 -0.787383 -0.358923
vn -0.493327 -0.808463 -0.320961
vn -0.524050 -0.774728 -0.353790
vn -0.746523 -0.215540 -0.629481
vn -0.721208 -0.350812 -0.597319
vn -0.863027 0.181693 -0.471351
vn -0.824380 -0.408285 -0.392046
vn -0.864134 0.262733 -0.429236
vn -0.865179 0.216871 -0.452142
vn -0.902248 0.191129 -0.386547
vn -0.162496 0.965955 0.201309
vn -0.492286 0.594650 -0.635646
vn -0.828184 -0.336569 -0.448144
vn -0.830281 -0.383764 -0.404176
vn -0.841251 -0.399653 -0.364107
vn -0.863864 0.268106 -0.426448
vn -0.529721 0.787017 -0.316228
vn -0.505449 0.608019 -0.612237
vn -0.510715 0.595130 -0.620476
vn -0.287565 0.889342 0.355497
vn -0.287437 0.891915 0.349094
vn -0.696454 -0.511725 0.503080
vn -0.710668 -0.648693 0.272301
vn -0.971839 0.124564 -0.200030
vn -0.974007 -0.066732 -0.216463
vn -0.911475 -0.409026 -0.043715
vn -0.966537 0.168179 -0.193708
vn -0.796321 0.601522 0.063593
vn -0.638265 0.734105 0.231749
vn -0.710212 0.374068 0.596382
vn -0.960550 0.276756 -0.027380
vn -0.809637 0.583467 0.063675
vn -0.725406 0.301467 0.618793
vn -0.507676 -0.135010 0.850904
vn -0.553006 0.039122 0.832258
vn -0.864363 -0.023035 0.502340
vn -0.719586 0.172393 0.672664
vn -0.702144 -0.486592 0.519829
vn -0.698161 -0.417116 0.581881
vn -0.758944 -0.353030 0.547150
f 1//1 2//1 3//1
f 4//2 5//2 6//2
f 7//3 8//3 9//3
f 10//4 11//4 12//4
f 13//5 14//5 15//5
f 16//6 17//6 18//6
f 19//7 20//7 21//7
f 22//8 23//8 24//8
f 25//9 26//9 27//9
f 28//10 29//10 30//10
f 31//11 32//11 33//11
f 34//12 35//12 36//12
f 37//13 38//13 39//13
f 40//14 41//14 42//14
f 43//15 44//15 45//15
f 46//16 47//16 48//16
f 49//17 50//17 51//17
f 52//18 53//18 54//18
f 55//19 56//19 57//19
f 58//20 59//20 60//20
f 61//21 62//21 63//21
f 64//22 65//22 66//22
f 67//23 68//23 69//23
f 70//24 71//24 72//24
f 73//25 74//25 75//25
f 76//26 77//26 78//26
f 79//27 80//27 81//27
f 82//28 83//28 84//28
f 85//29 86//29 87//29
f 88//30 89//30 90//30
f 91//31 92//31 93//31
f 94//32 95//32 96//32
f 97//33 98//33 99//33
f 100//34 101//34 102//34
f 103//35 104//35 105//35
f 106//36 107//36 108//36
f 109//37 110//37 111//37
f 112//38 113//38 114//38
f 115//39 116//39 117//39
f 118//40 119//40 120//40
f 121//41 122//41 123//41
f 124//42 125//42 126//42
f 127//43 128//43 129//43
f 130//44 131//44 132//44
f 133//45 134//45 135//45
f 136//46 137//46 138//46
f 139//47 140//47 141//47
f 142//48 143//48 144//48
f 145//49 146//49 147//49
f 148//50 149//50 150//50
f 151//51 152//51 153//51
f 154//52 155//52 156//52
f 157//53 158//53 159//53
f 160//54 161//54 162//54
f 163//55 164//55 165//55
f 166//56 167//56 168//56
f 169//57 170//57 171//57
f 172//58 173//58 174//58
f 175//59 176//59 177//59
f 178//60 179//60 180//60
f 181//61 182//61 183//61
f 184//62 185//62 186//62
f 187//63 188//63 189//63
f 190//64 191//64 192//64
