o
v -181.911407 -20.955158 -117.226662
v -124.911720 12.438854 -160.389328
v -27.833813 -108.681335 -20.909540
v -124.911720 12.438854 -160.389328
v 3.447420 -58.974140 -57.758095
v -27.833813 -108.681335 -20.909540
v -7.350038 110.869675 -209.079361
v 3.447420 -58.974140 -57.758095
v -124.911720 12.438854 -160.389328
v -7.350038 110.869675 -209.079361
v -124.911720 12.438854 -160.389328
v -88.160660 56.747025 -170.514145
v -7.350038 110.869675 -209.079361
v 99.217949 159.125473 62.601879
v 3.447420 -58.974140 -57.758095
v -7.350038 110.869675 -209.079361
v 74.010803 208.099884 -8.432597
v 99.217949 159.125473 62.601879
v -124.911720 12.438854 -160.389328
v -46.518188 162.080109 -149.949356
v -88.160660 56.747025 -170.514145
v -7.350038 110.869675 -209.079361
v -88.160660 56.747025 -170.514145
v -46.518188 162.080109 -149.949356
v 3.447420 -58.974140 -57.758095
v 45.453979 5.464098 73.924370
v -27.833813 -108.681335 -20.909540
v 99.217949 159.125473 62.601879
v 45.453979 5.464098 73.924370
v 3.447420 -58.974140 -57.758095
v 74.010803 208.099884 -8.432597
v 81.863968 183.236023 76.530403
v 99.217949 159.125473 62.601879
v -181.911407 -20.955158 -117.226662
v -27.833813 -108.681335 -20.909540
v -109.902260 -14.794990 102.262009
v 45.453979 5.464098 73.924370
v -109.902260 -14.794990 102.262009
v -27.833813 -108.681335 -20.909540
v -7.350038 110.869675 -209.079361
v 23.766737 209.188141 -66.068893
v 74.010803 208.099884 -8.432597
v -7.350038 110.869675 -209.079361
v -46.518188 162.080109 -149.949356
v 23.766737 209.188141 -66.068893
v -181.911407 -20.955158 -117.226662
v -144.529327 151.059052 -57.871170
v -124.911720 12.438854 -160.389328
v -124.911720 12.438854 -160.389328
v -144.529327 151.059052 -57.871170
v -46.518188 162.080109 -149.949356
v -144.529327 151.059052 -57.871170
v -144.070358 152.044342 -56.007526
v -46.518188 162.080109 -149.949356
v -46.518188 162.080109 -149.949356
v -143.970367 152.201355 -55.669716
v 23.766737 209.188141 -66.068893
v -144.070358 152.044342 -56.007526
v -143.970367 152.201355 -55.669716
v -46.518188 162.080109 -149.949356
v -181.911407 -20.955158 -117.226662
v -151.552017 73.058937 92.240067
v -144.529327 151.059052 -57.871170
v -181.911407 -20.955158 -117.226662
v -109.902260 -14.794990 102.262009
v -151.552017 73.058937 92.240067
v 99.217949 159.125473 62.601879
v 1.880581 136.660294 206.295486
v 45.453979 5.464098 73.924370
v 81.863968 183.236023 76.530403
v 1.880581 136.660294 206.295486
v 99.217949 159.125473 62.601879
v 45.453979 5.464098 73.924370
v 1.880581 136.660294 206.295486
v -109.902260 -14.794990 102.262009
v -144.529327 151.059052 -57.871170
v -122.295303 184.222443 137.725266
v -144.070358 152.044342 -56.007526
v -151.552017 73.058937 92.240067
v -122.295303 184.222443 137.725266
v -144.529327 151.059052 -57.871170
v -144.070358 152.044342 -56.007526
v -122.295303 184.222443 137.725266
v -143.970367 152.201355 -55.669716
v -122.295303 184.222443 137.725266
v -121.722618 184.759399 137.923050
v -143.970367 152.201355 -55.669716
v -109.902260 -14.794990 102.262009
v -112.874947 80.264709 163.225876
v -151.552017 73.058937 92.240067
v -151.552017 73.058937 92.240067
v -112.874947 80.264709 163.225876
v -122.295303 184.222443 137.725266
v 1.880581 136.660294 206.295486
v -112.874947 80.264709 163.225876
v -109.902260 -14.794990 102.262009
v -122.295303 184.222443 137.725266
v -116.073624 160.429047 149.183670
v -121.722618 184.759399 137.923050
v -112.874947 80.264709 163.225876
v -116.073624 160.429047 149.183670
v -122.295303 184.222443 137.725266
v 1.880581 136.660294 206.295486
v -116.073624 160.429047 149.183670
v -112.874947 80.264709 163.225876
v -121.722618 184.759399 137.923050
v -116.073624 160.429047 149.183670
v 1.880581 136.660294 206.295486
v 23.766737 209.188141 -66.068893
v -30.024380 213.483795 40.267117
v 74.010803 208.099884 -8.432597
v -27.714071 212.303757 29.326679
v -30.024380 213.483795 40.267117
v 23.766737 209.188141 -66.068893
v 81.863968 183.236023 76.530403
v -33.503414 202.956604 114.510017
v 1.880581 136.660294 206.295486
v -121.722618 184.759399 137.923050
v 1.880581 136.660294 206.295486
v -33.503414 202.956604 114.510017
v 74.010803 208.099884 -8.432597
v -32.675430 203.546371 112.128181
v 81.863968 183.236023 76.530403
v 81.863968 183.236023 76.530403
v -32.675430 203.546371 112.128181
v -33.503414 202.956604 114.510017
v -30.024380 213.483795 40.267117
v -32.675430 203.546371 112.128181
v 74.010803 208.099884 -8.432597
v -143.970367 152.201355 -55.669716
v -73.980072 205.743149 68.219032
v 23.766737 209.188141 -66.068893
v -27.714071 212.303757 29.326679
v 23.766737 209.188141 -66.068893
v -73.980072 205.743149 68.219032
v -30.024380 213.483795 40.267117
v -73.980072 205.743149 68.219032
v -32.675430 203.546371 112.128181
v -121.722618 184.759399 137.923050
v -33.503414 202.956604 114.510017
v -73.980072 205.743149 68.219032
v -32.675430 203.546371 112.128181
v -73.980072 205.743149 68.219032
v -33.503414 202.956604 114.510017
v -121.722618 184.759399 137.923050
v -73.980072 205.743149 68.219032
v -143.970367 152.201355 -55.669716
v -27.714071 212.303757 29.326679
v -73.980072 205.743149 68.219032
v -30.024380 213.483795 40.267117
vn -0.036008 -0.766834 -0.640835
vn 0.206300 -0.663178 -0.719469
vn 0.231129 -0.638976 -0.733682
vn -0.563772 0.290985 -0.772974
vn 0.919671 -0.227012 -0.320423
vn 0.932597 -0.040222 -0.358671
vn -0.644971 0.383982 -0.660734
vn -0.591205 0.373307 -0.714926
vn 0.844040 -0.536236 -0.006843
vn 0.932411 -0.336038 -0.133000
vn 0.831139 0.549678 0.084037
vn -0.580411 -0.786113 0.212483
vn 0.215358 -0.702139 0.678691
vn 0.621684 0.575730 -0.531078
vn 0.161620 0.796444 -0.582714
vn -0.688502 0.365726 -0.626267
vn -0.653891 0.387878 -0.649598
vn -0.416560 0.842078 -0.342610
vn -0.325568 0.914364 -0.240716
vn -0.376030 0.877820 -0.296704
vn -0.979481 0.193905 0.054933
vn -0.875292 -0.380980 0.297856
vn 0.819526 -0.248700 0.516261
vn 0.786737 0.236991 0.569983
vn 0.217364 -0.656556 0.722279
vn -0.937025 0.345969 0.047855
vn -0.971417 0.226172 0.072076
vn -0.851901 0.523630 0.008779
vn -0.674684 0.736650 -0.046353
vn -0.813939 -0.331444 0.477125
vn -0.879087 0.036912 0.475229
vn -0.049757 -0.540276 0.840015
vn -0.521105 0.255859 0.814240
vn -0.808321 0.070141 0.584549
vn -0.408119 0.141693 0.901866
vn -0.359233 0.321998 0.875939
vn 0.042983 0.998902 -0.018609
vn -0.220615 0.963675 -0.150530
vn 0.299059 0.824555 0.480284
vn -0.010694 0.808643 0.588203
vn 0.244231 0.936536 0.251497
vn 0.260078 0.912310 0.316307
vn 0.116543 0.983231 0.140267
vn -0.326101 0.920854 -0.213742
vn -0.290671 0.938271 -0.187506
vn -0.089114 0.987073 0.133211
vn -0.149879 0.970381 0.189467
vn -0.148871 0.970704 0.188605
vn -0.504092 0.859299 -0.086585
vn -0.268523 0.950031 -0.159175
f 1//1 2//1 3//1
f 4//2 5//2 6//2
f 7//3 8//3 9//3
f 10//4 11//4 12//4
f 13//5 14//5 15//5
f 16//6 17//6 18//6
f 19//7 20//7 21//7
f 22//8 23//8 24//8
f 25//9 26//9 27//9
f 28//10 29//10 30//10
f 31//11 32//11 33//11
f 34//12 35//12 36//12
f 37//13 38//13 39//13
f 40//14 41//14 42//14
f 43//15 44//15 45//15
f 46//16 47//16 48//16
f 49//17 50//17 51//17
f 52//18 53//18 54//18
f 55//19 56//19 57//19
f 58//20 59//20 60//20
f 61//21 62//21 63//21
f 64//22 65//22 66//22
f 67//23 68//23 69//23
f 70//24 71//24 72//24
f 73//25 74//25 75//25
f 76//26 77//26 78//26
f 79//27 80//27 81//27
f 82//28 83//28 84//28
f 85//29 86//29 87//29
f 88//30 89//30 90//30
f 91//31 92//31 93//31
f 94//32 95//32 96//32
f 97//33 98//33 99//33
f 100//34 101//34 102//34
f 103//35 104//35 105//35
f 106//36 107//36 108//36
f 109//37 110//37 111//37
f 112//38 113//38 114//38
f 115//39 116//39 117//39
f 118//40 119//40 120//40
f 121//41 122//41 123//41
f 124//42 125//42 126//42
f 127//43 128//43 129//43
f 130//44 131//44 132//44
f 133//45 134//45 135//45
f 136//46 137//46 138//46
f 139//47 140//47 141//47
f 142//48 143//48 144//48
f 145//49 146//49 147//49
f 148//50 149//50 150//50
