o
v -89.911301 -42.355438 -37.719692
v -14.450159 -122.118607 -109.544350
v 29.726048 -221.775513 -49.000980
v 29.726048 -221.775513 -49.000980
v -14.450159 -122.118607 -109.544350
v 55.746250 -154.915878 -121.216408
v -89.911301 -42.355438 -37.719692
v -48.420101 -51.098549 -93.557182
v -14.450159 -122.118607 -109.544350
v -81.025917 -10.853792 -38.236282
v -48.420101 -51.098549 -93.557182
v -89.911301 -42.355438 -37.719692
v 29.726048 -221.775513 -49.000980
v 55.746250 -154.915878 -121.216408
v 104.109703 -188.253693 -49.559769
v 55.746250 -154.915878 -121.216408
v 131.448929 -136.516846 -51.745766
v 104.109703 -188.253693 -49.559769
v 131.448929 -136.516846 -51.745766
v 129.364853 -135.612671 -37.651615
v 104.109703 -188.253693 -49.559769
v 132.272934 -131.458557 -43.499325
v 129.364853 -135.612671 -37.651615
v 131.448929 -136.516846 -51.745766
v -14.450159 -122.118607 -109.544350
v 82.705467 -51.983898 -108.962952
v 55.746250 -154.915878 -121.216408
v -48.420101 -51.098549 -93.557182
v 82.705467 -51.983898 -108.962952
v -14.450159 -122.118607 -109.544350
v 55.746250 -154.915878 -121.216408
v 82.705467 -51.983898 -108.962952
v 131.448929 -136.516846 -51.745766
v 129.364853 -135.612671 -37.651615
v 129.564545 -42.032532 154.981354
v 104.109703 -188.253693 -49.559769
v 104.109703 -188.253693 -49.559769
v 129.564545 -42.032532 154.981354
v 129.176712 -40.824665 157.376099
v 132.272934 -131.458557 -43.499325
v 129.564545 -42.032532 154.981354
v 129.364853 -135.612671 -37.651615
v 82.705467 -51.983898 -108.962952
v 112.352097 -66.062813 -72.038055
v 131.448929 -136.516846 -51.745766
v -89.911301 -42.355438 -37.719692
v 29.726048 -221.775513 -49.000980
v 2.763778 -106.586761 134.597443
v 46.308300 -1.848214 184.484390
v 128.884155 -40.158375 158.039520
v 125.204430 -33.710163 157.480301
v 34.996410 1.659208 181.591370
v 46.308300 -1.848214 184.484390
v 50.073357 41.890324 162.160248
v 46.308300 -1.848214 184.484390
v 125.204430 -33.710163 157.480301
v 50.073357 41.890324 162.160248
v 29.726048 -221.775513 -49.000980
v 18.480177 -107.944901 142.328049
v 2.763778 -106.586761 134.597443
v 2.763778 -106.586761 134.597443
v 18.480177 -107.944901 142.328049
v 34.996410 1.659208 181.591370
v 34.996410 1.659208 181.591370
v 18.480177 -107.944901 142.328049
v 46.308300 -1.848214 184.484390
v 46.308300 -1.848214 184.484390
v 59.809109 -14.617822 182.512848
v 128.884155 -40.158375 158.039520
v 18.480177 -107.944901 142.328049
v 59.809109 -14.617822 182.512848
v 46.308300 -1.848214 184.484390
v -89.911301 -42.355438 -37.719692
v 2.763778 -106.586761 134.597443
v -6.852955 -54.752983 133.189972
v 2.763778 -106.586761 134.597443
v 34.996410 1.659208 181.591370
v -6.852955 -54.752983 133.189972
v 34.996410 1.659208 181.591370
v 50.073357 41.890324 162.160248
v 12.214216 17.235516 142.726990
v -81.025917 -10.853792 -38.236282
v -89.911301 -42.355438 -37.719692
v 12.214216 17.235516 142.726990
v -89.911301 -42.355438 -37.719692
v -6.852955 -54.752983 133.189972
v 0.094114 -25.279255 139.474167
v -89.911301 -42.355438 -37.719692
v 0.094114 -25.279255 139.474167
v 12.214216 17.235516 142.726990
v 34.996410 1.659208 181.591370
v 0.094114 -25.279255 139.474167
v -6.852955 -54.752983 133.189972
v 34.996410 1.659208 181.591370
v 12.214216 17.235516 142.726990
v 0.094114 -25.279255 139.474167
v 112.352097 -66.062813 -72.038055
v 126.376251 -43.175674 -36.129299
v 131.448929 -136.516846 -51.745766
v 82.705467 -51.983898 -108.962952
v 126.376251 -43.175674 -36.129299
v 112.352097 -66.062813 -72.038055
v 29.726048 -221.775513 -49.000980
v 104.109703 -188.253693 -49.559769
v 53.417164 -89.829803 148.179657
v 29.726048 -221.775513 -49.000980
v 53.417164 -89.829803 148.179657
v 18.480177 -107.944901 142.328049
v 104.109703 -188.253693 -49.559769
v 129.176712 -40.824665 157.376099
v 53.417164 -89.829803 148.179657
v 129.176712 -40.824665 157.376099
v 128.884155 -40.158375 158.039520
v 53.417164 -89.829803 148.179657
v 59.809109 -14.617822 182.512848
v 53.417164 -89.829803 148.179657
v 128.884155 -40.158375 158.039520
v 18.480177 -107.944901 142.328049
v 53.417164 -89.829803 148.179657
v 59.809109 -14.617822 182.512848
v -81.025917 -10.853792 -38.236282
v 51.580345 -9.843246 -69.426003
v -48.420101 -51.098549 -93.557182
v -48.420101 -51.098549 -93.557182
v 51.580345 -9.843246 -69.426003
v 82.705467 -51.983898 -108.962952
v 128.884155 -40.158375 158.039520
v 82.213280 71.131638 86.382088
v 125.204430 -33.710163 157.480301
v 125.204430 -33.710163 157.480301
v 82.213280 71.131638 86.382088
v 50.073357 41.890324 162.160248
v 82.213280 71.131638 86.382088
v 78.776428 71.765762 87.492828
v 50.073357 41.890324 162.160248
v 128.884155 -40.158375 158.039520
v 86.181870 64.904823 83.726173
v 82.213280 71.131638 86.382088
v 132.272934 -131.458557 -43.499325
v 131.448929 -136.516846 -51.745766
v 137.328522 -31.856054 11.408716
v 126.376251 -43.175674 -36.129299
v 137.328522 -31.856054 11.408716
v 131.448929 -136.516846 -51.745766
v 132.272934 -131.458557 -43.499325
v 137.328522 -31.856054 11.408716
v 129.564545 -42.032532 154.981354
v 129.564545 -42.032532 154.981354
v 137.213196 -29.878265 13.374766
v 129.176712 -40.824665 157.376099
v 137.328522 -31.856054 11.408716
v 137.213196 -29.878265 13.374766
v 129.564545 -42.032532 154.981354
v 129.176712 -40.824665 157.376099
v 137.213196 -29.878265 13.374766
v 128.884155 -40.158375 158.039520
v 128.884155 -40.158375 158.039520
v 137.213196 -29.878265 13.374766
v 86.181870 64.904823 83.726173
v 82.705467 -51.983898 -108.962952
v 129.195847 -17.999289 -7.619156
v 126.376251 -43.175674 -36.129299
v 86.181870 64.904823 83.726173
v 129.195847 -17.999289 -7.619156
v 82.213280 71.131638 86.382088
v 137.213196 -29.878265 13.374766
v 129.195847 -17.999289 -7.619156
v 86.181870 64.904823 83.726173
v 126.376251 -43.175674 -36.129299
v 129.195847 -17.999289 -7.619156
v 137.328522 -31.856054 11.408716
v 137.328522 -31.856054 11.408716
v 129.195847 -17.999289 -7.619156
v 137.213196 -29.878265 13.374766
v 82.705467 -51.983898 -108.962952
v 111.869751 -24.010803 -36.653236
v 129.195847 -17.999289 -7.619156
v 50.073357 41.890324 162.160248
v -2.322493 31.675125 56.531891
v 12.214216 17.235516 142.726990
v -81.025917 -10.853792 -38.236282
v 12.214216 17.235516 142.726990
v -2.322493 31.675125 56.531891
v 78.776428 71.765762 87.492828
v -2.322493 31.675125 56.531891
v 50.073357 41.890324 162.160248
v -81.025917 -10.853792 -38.236282
v -2.322493 31.675125 56.531891
v 78.776428 71.765762 87.492828
v 129.195847 -17.999289 -7.619156
v 120.937119 -10.804992 -7.744853
v 82.213280 71.131638 86.382088
v 111.869751 -24.010803 -36.653236
v 120.937119 -10.804992 -7.744853
v 129.195847 -17.999289 -7.619156
v 120.937119 -10.804992 -7.744853
v 106.506775 -13.081776 -27.816767
v 82.213280 71.131638 86.382088
v 82.705467 -51.983898 -108.962952
v 106.506775 -13.081776 -27.816767
v 111.869751 -24.010803 -36.653236
v 111.869751 -24.010803 -36.653236
v 106.506775 -13.081776 -27.816767
v 120.937119 -10.804992 -7.744853
v 82.213280 71.131638 86.382088
v 61.750950 48.445492 29.151295
v 78.776428 71.765762 87.492828
v 51.580345 -9.843246 -69.426003
v 61.750950 48.445492 29.151295
v 82.705467 -51.983898 -108.962952
v 82.705467 -51.983898 -108.962952
v 61.750950 48.445492 29.151295
v 106.506775 -13.081776 -27.816767
v 106.506775 -13.081776 -27.816767
v 61.750950 48.445492 29.151295
v 82.213280 71.131638 86.382088
v -81.025917 -10.853792 -38.236282
v 61.750950 48.445492 29.151295
v 51.580345 -9.843246 -69.426003
v -81.025917 -10.853792 -38.236282
v 78.776428 71.765762 87.492828
v 61.750950 48.445492 29.151295
vn -0.808910 -0.522424 -0.269700
vn -0.395491 -0.598546 -0.696656
vn -0.794646 -0.256200 -0.550362
vn -0.769452 0.207124 -0.604189
vn 0.333102 -0.748695 -0.573148
vn 0.673445 -0.382593 -0.632530
vn 0.875691 -0.456033 0.158742
vn 0.899915 -0.406000 0.159115
vn -0.097113 0.142693 -0.984991
vn -0.113962 0.165988 -0.979521
vn 0.685412 -0.093554 -0.722121
vn 0.858067 -0.462267 0.223677
vn 0.529198 -0.720039 0.448879
vn 0.907553 -0.378095 0.182736
vn 0.785784 0.035136 -0.617502
vn -0.803602 -0.550123 0.227132
vn 0.418163 0.312595 0.852892
vn -0.084000 0.458729 0.884597
vn 0.433171 0.379884 0.817344
vn -0.304439 -0.826365 0.473749
vn -0.445023 -0.241823 0.862251
vn -0.317792 -0.276957 0.906809
vn 0.417084 0.309003 0.854727
vn -0.171259 -0.324681 0.930190
vn -0.893009 -0.154200 0.422797
vn -0.686419 -0.107823 0.719168
vn -0.632532 0.516022 0.577603
vn -0.875337 0.253649 0.411640
vn -0.890040 0.115772 0.440938
vn -0.878470 0.217900 0.425219
vn -0.785462 0.053674 0.616578
vn -0.812122 0.189291 0.551929
vn 0.896413 0.120095 -0.426639
vn 0.794434 0.321578 -0.515230
vn 0.361646 -0.794342 0.488092
vn 0.332556 -0.801771 0.496558
vn 0.431451 -0.758620 0.488207
vn 0.300652 -0.603400 0.738591
vn 0.160558 -0.421137 0.892673
vn 0.065559 -0.418977 0.905627
vn -0.156174 0.752674 -0.639602
vn -0.084574 0.647832 -0.757074
vn 0.837172 0.497455 0.227334
vn 0.630552 0.595848 0.497363
vn 0.300953 0.839861 0.451730
vn 0.862422 0.474747 0.175622
vn 0.994621 0.006502 -0.103373
vn 0.965121 0.093371 -0.244587
vn 0.995840 -0.077216 0.048379
vn 0.981381 0.179475 0.068412
vn 0.998516 0.004248 0.054298
vn 0.939065 0.334805 0.077858
vn 0.901680 0.424541 0.082083
vn 0.726871 0.477533 -0.493580
vn 0.806347 0.574268 -0.141496
vn 0.864532 0.500372 -0.047030
vn 0.945176 0.192701 -0.263644
vn 0.941379 0.263852 -0.210207
vn 0.594558 0.639612 -0.487234
vn -0.611220 0.757320 0.229950
vn -0.663030 0.712028 0.231100
vn -0.485301 0.860034 0.157556
vn -0.427016 0.902831 -0.050531
vn 0.616626 0.701620 -0.357074
vn 0.579680 0.657026 -0.481962
vn 0.498861 0.744828 -0.443134
vn 0.562749 0.668869 -0.485723
vn 0.566118 0.668150 -0.482790
vn 0.046652 0.922789 -0.382471
vn 0.408553 0.766574 -0.495427
vn 0.424100 0.761842 -0.489628
vn 0.454665 0.760290 -0.463938
vn -0.123134 0.859743 -0.495662
vn -0.242673 0.923145 -0.298182
f 1//1 2//1 3//1
f 4//2 5//2 6//2
f 7//3 8//3 9//3
f 10//4 11//4 12//4
f 13//5 14//5 15//5
f 16//6 17//6 18//6
f 19//7 20//7 21//7
f 22//8 23//8 24//8
f 25//9 26//9 27//9
f 28//10 29//10 30//10
f 31//11 32//11 33//11
f 34//12 35//12 36//12
f 37//13 38//13 39//13
f 40//14 41//14 42//14
f 43//15 44//15 45//15
f 46//16 47//16 48//16
f 49//17 50//17 51//17
f 52//18 53//18 54//18
f 55//19 56//19 57//19
f 58//20 59//20 60//20
f 61//21 62//21 63//21
f 64//22 65//22 66//22
f 67//23 68//23 69//23
f 70//24 71//24 72//24
f 73//25 74//25 75//25
f 76//26 77//26 78//26
f 79//27 80//27 81//27
f 82//28 83//28 84//28
f 85//29 86//29 87//29
f 88//30 89//30 90//30
f 91//31 92//31 93//31
f 94//32 95//32 96//32
f 97//33 98//33 99//33
f 100//34 101//34 102//34
f 103//35 104//35 105//35
f 106//36 107//36 108//36
f 109//37 110//37 111//37
f 112//38 113//38 114//38
f 115//39 116//39 117//39
f 118//40 119//40 120//40
f 121//41 122//41 123//41
f 124//42 125//42 126//42
f 127//43 128//43 129//43
f 130//44 131//44 132//44
f 133//45 134//45 135//45
f 136//46 137//46 138//46
f 139//47 140//47 141//47
f 142//48 143//48 144//48
f 145//49 146//49 147//49
f 148//50 149//50 150//50
f 151//51 152//51 153//51
f 154//52 155//52 156//52
f 157//53 158//53 159//53
f 160//54 161//54 162//54
f 163//55 164//55 165//55
f 166//56 167//56 168//56
f 169//57 170//57 171//57
f 172//58 173//58 174//58
f 175//59 176//59 177//59
f 178//60 179//60 180//60
f 181//61 182//61 183//61
f 184//62 185//62 186//62
f 187//63 188//63 189//63
f 190//64 191//64 192//64
f 193//65 194//65 195//65
f 196//66 197//66 198//66
f 199//67 200//67 201//67
f 202//68 203//68 204//68
f 205//69 206//69 207//69
f 208//70 209//70 210//70
f 211//71 212//71 213//71
f 214//72 215//72 216//72
f 217//73 218//73 219//73
f 220//74 221//74 222//74
