o
v 22.237335 -41.525227 3.043516
v 22.381834 -41.484634 3.191303
v 21.418911 -41.850227 2.367281
v 21.418911 -41.850227 2.367281
v 22.381834 -41.484634 3.191303
v 22.363314 -41.491455 3.179587
v 21.277525 -41.842522 2.222277
v 27.534212 -29.024137 1.246757
v 21.418911 -41.850227 2.367281
v 22.237335 -41.525227 3.043516
v 21.418911 -41.850227 2.367281
v 27.534212 -29.024137 1.246757
v 22.237335 -41.525227 3.043516
v 27.534212 -29.024137 1.246757
v 22.381834 -41.484634 3.191303
v 21.277525 -41.842522 2.222277
v 25.953253 -27.407417 1.013920
v 27.534212 -29.024137 1.246757
v 25.953253 -27.407417 1.013920
v 28.769341 -26.758839 2.347330
v 27.534212 -29.024137 1.246757
v 25.953253 -27.407417 1.013920
v 43.626598 -17.656240 14.537242
v 28.769341 -26.758839 2.347330
v 28.769341 -26.758839 2.347330
v 43.626598 -17.656240 14.537242
v 27.534212 -29.024137 1.246757
v 27.534212 -29.024137 1.246757
v 43.626598 -17.656240 14.537242
v 22.381834 -41.484634 3.191303
v 25.953253 -27.407417 1.013920
v 9.594590 4.563925 44.339455
v 43.626598 -17.656240 14.537242
v 21.277525 -41.842522 2.222277
v 6.032087 -1.194915 39.002029
v 25.953253 -27.407417 1.013920
v 25.953253 -27.407417 1.013920
v 6.324594 -0.807586 38.977737
v 9.594590 4.563925 44.339455
v 9.594590 4.563925 44.339455
v 6.324594 -0.807586 38.977737
v 6.032087 -1.194915 39.002029
v 6.032087 -1.194915 39.002029
v 6.324594 -0.807586 38.977737
v 25.953253 -27.407417 1.013920
v 43.626598 -17.656240 14.537242
v 34.276997 -29.825111 15.108284
v 22.381834 -41.484634 3.191303
v 43.626598 -17.656240 14.537242
v 43.626949 -17.655085 14.544388
v 34.276997 -29.825111 15.108284
v 43.626949 -17.655085 14.544388
v 32.109142 -31.097822 18.457224
v 34.276997 -29.825111 15.108284
v 21.418911 -41.850227 2.367281
v 22.363314 -41.491455 3.179587
v 26.531235 -35.939735 20.461933
v 22.381834 -41.484634 3.191303
v 26.531235 -35.939735 20.461933
v 22.363314 -41.491455 3.179587
v 34.276997 -29.825111 15.108284
v 26.531235 -35.939735 20.461933
v 22.381834 -41.484634 3.191303
v 32.109142 -31.097822 18.457224
v 26.531235 -35.939735 20.461933
v 34.276997 -29.825111 15.108284
v 21.277525 -41.842522 2.222277
v 8.102100 -24.602024 37.656048
v 6.032087 -1.194915 39.002029
v 9.594590 4.563925 44.339455
v 6.032087 -1.194915 39.002029
v 8.102100 -24.602024 37.656048
v 21.277525 -41.842522 2.222277
v 21.418911 -41.850227 2.367281
v 8.102100 -24.602024 37.656048
v 21.418911 -41.850227 2.367281
v 26.531235 -35.939735 20.461933
v 8.102100 -24.602024 37.656048
v 32.109142 -31.097822 18.457224
v 28.929358 -32.388710 22.108309
v 26.531235 -35.939735 20.461933
v 43.626949 -17.655085 14.544388
v 28.929358 -32.388710 22.108309
v 32.109142 -31.097822 18.457224
v 28.929358 -32.388710 22.108309
v 27.218412 -33.384079 23.011316
v 26.531235 -35.939735 20.461933
v 9.594590 4.563925 44.339455
v 26.249704 -2.979885 42.520287
v 27.195665 -2.922866 41.946373
v 26.249704 -2.979885 42.520287
v 27.055965 -3.539428 42.394882
v 27.195665 -2.922866 41.946373
v 43.626598 -17.656240 14.537242
v 27.093468 -2.189493 40.586292
v 43.626949 -17.655085 14.544388
v 9.594590 4.563925 44.339455
v 27.093468 -2.189493 40.586292
v 43.626598 -17.656240 14.537242
v 9.594590 4.563925 44.339455
v 27.195665 -2.922866 41.946373
v 27.093468 -2.189493 40.586292
v 27.093468 -2.189493 40.586292
v 29.029507 -3.850685 41.212074
v 43.626949 -17.655085 14.544388
v 27.195665 -2.922866 41.946373
v 29.029507 -3.850685 41.212074
v 27.093468 -2.189493 40.586292
v 29.029507 -3.850685 41.212074
v 29.386835 -4.600093 41.665310
v 43.626949 -17.655085 14.544388
v 27.195665 -2.922866 41.946373
v 29.386835 -4.600093 41.665310
v 29.029507 -3.850685 41.212074
v 29.386835 -4.600093 41.665310
v 29.535360 -5.248466 41.985992
v 43.626949 -17.655085 14.544388
v 27.055965 -3.539428 42.394882
v 29.535360 -5.248466 41.985992
v 27.195665 -2.922866 41.946373
v 27.195665 -2.922866 41.946373
v 29.535360 -5.248466 41.985992
v 29.386835 -4.600093 41.665310
v 26.531235 -35.939735 20.461933
v 19.472557 -19.743279 43.061047
v 8.102100 -24.602024 37.656048
v 27.218412 -33.384079 23.011316
v 19.472557 -19.743279 43.061047
v 26.531235 -35.939735 20.461933
v 9.594590 4.563925 44.339455
v 8.102100 -24.602024 37.656048
v 19.472557 -19.743279 43.061047
v 9.594590 4.563925 44.339455
v 22.789520 -13.394278 42.781094
v 26.249704 -2.979885 42.520287
v 9.594590 4.563925 44.339455
v 19.472557 -19.743279 43.061047
v 22.789520 -13.394278 42.781094
v 26.249704 -2.979885 42.520287
v 22.789520 -13.394278 42.781094
v 27.055965 -3.539428 42.394882
v 27.055965 -3.539428 42.394882
v 22.789520 -13.394278 42.781094
v 29.535360 -5.248466 41.985992
v 29.535360 -5.248466 41.985992
v 22.789520 -13.394278 42.781094
v 19.472557 -19.743279 43.061047
v 29.535360 -5.248466 41.985992
v 19.472557 -19.743279 43.061047
v 23.191769 -18.245049 41.612892
v 43.626949 -17.655085 14.544388
v 26.951374 -15.781289 39.583679
v 28.929358 -32.388710 22.108309
v 29.535360 -5.248466 41.985992
v 26.951374 -15.781289 39.583679
v 43.626949 -17.655085 14.544388
v 29.535360 -5.248466 41.985992
v 23.191769 -18.245049 41.612892
v 26.951374 -15.781289 39.583679
v 28.929358 -32.388710 22.108309
v 23.082684 -19.515062 40.786892
v 27.218412 -33.384079 23.011316
v 27.218412 -33.384079 23.011316
v 23.082684 -19.515062 40.786892
v 19.472557 -19.743279 43.061047
v 19.472557 -19.743279 43.061047
v 23.082684 -19.515062 40.786892
v 23.191769 -18.245049 41.612892
v 26.951374 -15.781289 39.583679
v 23.082684 -19.515062 40.786892
v 28.929358 -32.388710 22.108309
v 23.191769 -18.245049 41.612892
v 23.082684 -19.515062 40.786892
v 26.951374 -15.781289 39.583679
vn 0.606279 -0.684534 -0.404770
vn 0.318121 -0.946817 0.048328
vn 0.655279 -0.369964 -0.658586
vn 0.674335 -0.376984 -0.634945
vn 0.710433 -0.385633 -0.588704
vn 0.046054 -0.098134 -0.994107
vn 0.371542 0.233929 -0.898462
vn 0.192222 0.659476 -0.726734
vn 0.616866 0.045413 -0.785757
vn 0.734354 -0.390314 -0.555319
vn 0.008072 0.806064 -0.591773
vn -0.798080 0.211272 -0.564299
vn -0.200588 0.750572 -0.629609
vn -0.796475 0.594595 -0.109928
vn -0.634540 0.439316 -0.635893
vn 0.775461 -0.604378 -0.182721
vn 0.792923 -0.606444 0.059150
vn 0.767955 -0.577131 0.277787
vn 0.124561 -0.953022 0.276105
vn 0.184614 -0.947810 0.259948
vn 0.652842 -0.752730 0.084821
vn 0.680045 -0.713405 0.169092
vn -0.945256 -0.065207 -0.319750
vn -0.771563 -0.104319 0.627541
vn -0.354936 -0.885785 0.299007
vn -0.222690 -0.906389 0.358983
vn 0.681273 -0.631634 0.370008
vn 0.734591 -0.494023 0.465098
vn 0.615821 -0.633237 0.468802
vn 0.366315 0.647628 0.668125
vn 0.439817 0.461007 0.770736
vn 0.527150 0.834409 -0.160856
vn 0.267451 0.893487 -0.360763
vn 0.403613 0.817643 0.410556
vn 0.656575 0.753635 -0.030717
vn 0.533121 0.760767 0.370156
vn 0.835970 0.514332 0.191355
vn 0.540536 0.608875 0.580597
vn 0.888023 0.350572 0.297514
vn 0.443538 0.459337 0.769599
vn 0.460492 0.476046 0.749218
vn 0.060518 -0.802274 0.593881
vn 0.347424 -0.707419 0.615512
vn -0.353321 -0.191740 0.915642
vn 0.104222 -0.009722 0.994507
vn 0.103533 -0.010235 0.994573
vn 0.139118 -0.021428 0.990044
vn 0.146185 -0.024530 0.988953
vn 0.172248 -0.046603 0.983951
vn 0.433851 -0.236718 0.869332
vn 0.724076 -0.457181 0.516430
vn 0.778963 -0.314794 0.542329
vn 0.602331 -0.315051 0.733444
vn 0.616779 -0.544549 0.568375
vn 0.429508 -0.660808 0.615512
vn 0.482311 -0.506347 0.714835
vn 0.660521 -0.505492 0.555148
vn 0.635673 -0.458513 0.621036
f 1//1 2//1 3//1
f 4//2 5//2 6//2
f 7//3 8//3 9//3
f 10//4 11//4 12//4
f 13//5 14//5 15//5
f 16//6 17//6 18//6
f 19//7 20//7 21//7
f 22//8 23//8 24//8
f 25//9 26//9 27//9
f 28//10 29//10 30//10
f 31//11 32//11 33//11
f 34//12 35//12 36//12
f 37//13 38//13 39//13
f 40//14 41//14 42//14
f 43//15 44//15 45//15
f 46//16 47//16 48//16
f 49//17 50//17 51//17
f 52//18 53//18 54//18
f 55//19 56//19 57//19
f 58//20 59//20 60//20
f 61//21 62//21 63//21
f 64//22 65//22 66//22
f 67//23 68//23 69//23
f 70//24 71//24 72//24
f 73//25 74//25 75//25
f 76//26 77//26 78//26
f 79//27 80//27 81//27
f 82//28 83//28 84//28
f 85//29 86//29 87//29
f 88//30 89//30 90//30
f 91//31 92//31 93//31
f 94//32 95//32 96//32
f 97//33 98//33 99//33
f 100//34 101//34 102//34
f 103//35 104//35 105//35
f 106//36 107//36 108//36
f 109//37 110//37 111//37
f 112//38 113//38 114//38
f 115//39 116//39 117//39
f 118//40 119//40 120//40
f 121//41 122//41 123//41
f 124//42 125//42 126//42
f 127//43 128//43 129//43
f 130//44 131//44 132//44
f 133//45 134//45 135//45
f 136//46 137//46 138//46
f 139//47 140//47 141//47
f 142//48 143//48 144//48
f 145//49 146//49 147//49
f 148//50 149//50 150//50
f 151//51 152//51 153//51
f 154//52 155//52 156//52
f 157//53 158//53 159//53
f 160//54 161//54 162//54
f 163//55 164//55 165//55
f 166//56 167//56 168//56
f 169//57 170//57 171//57
f 172//58 173//58 174//58
