o
v 144.046249 -5.273098 212.761475
v 130.935333 -131.160095 -73.576218
v 131.016556 -131.141098 -73.483109
v 130.935333 -131.160095 -73.576218
v 144.361801 -75.498886 -177.020187
v 131.016556 -131.141098 -73.483109
v 130.935333 -131.160095 -73.576218
v 91.814049 -103.982956 -107.545967
v 144.361801 -75.498886 -177.020187
v 144.361801 -75.498886 -177.020187
v 164.363007 -35.853600 -163.313416
v 131.016556 -131.141098 -73.483109
v 144.361801 -75.498886 -177.020187
v 142.486328 -56.712814 -185.664825
v 164.838287 -33.775612 -164.459595
v 144.361801 -75.498886 -177.020187
v 164.838287 -33.775612 -164.459595
v 164.363007 -35.853600 -163.313416
v 130.935333 -131.160095 -73.576218
v 33.784920 -78.538025 -72.319084
v 91.814049 -103.982956 -107.545967
v 144.046249 -5.273098 212.761475
v 33.784920 -78.538025 -72.319084
v 130.935333 -131.160095 -73.576218
v 164.363007 -35.853600 -163.313416
v 182.562225 6.650746 -149.222458
v 131.016556 -131.141098 -73.483109
v 164.838287 -33.775612 -164.459595
v 182.562225 6.650746 -149.222458
v 164.363007 -35.853600 -163.313416
v 142.486328 -56.712814 -185.664825
v 182.562225 6.650746 -149.222458
v 164.838287 -33.775612 -164.459595
v -44.929649 202.359909 81.789917
v -45.442436 201.067871 80.919762
v 144.046249 -5.273098 212.761475
v -45.442436 201.067871 80.919762
v -45.484848 200.652527 80.687180
v 144.046249 -5.273098 212.761475
v 144.046249 -5.273098 212.761475
v 131.016556 -131.141098 -73.483109
v 179.826447 35.574776 102.357903
v 182.562225 6.650746 -149.222458
v 179.826447 35.574776 102.357903
v 131.016556 -131.141098 -73.483109
v -44.929649 202.359909 81.789917
v 144.046249 -5.273098 212.761475
v -43.697319 205.280441 81.301559
v -44.929649 202.359909 81.789917
v -43.697319 205.280441 81.301559
v -45.442436 201.067871 80.919762
v 144.046249 -5.273098 212.761475
v -43.533073 205.342682 81.338425
v -43.697319 205.280441 81.301559
v 91.814049 -103.982956 -107.545967
v -39.336960 114.619965 -150.198761
v 144.361801 -75.498886 -177.020187
v 33.784920 -78.538025 -72.319084
v -39.336960 114.619965 -150.198761
v 91.814049 -103.982956 -107.545967
v 144.361801 -75.498886 -177.020187
v -39.336960 114.619965 -150.198761
v 142.486328 -56.712814 -185.664825
v -45.442436 201.067871 80.919762
v -57.199402 149.979950 -29.188999
v -45.484848 200.652527 80.687180
v -39.336960 114.619965 -150.198761
v -42.846146 98.999779 -13.689490
v -57.199402 149.979950 -29.188999
v -57.199402 149.979950 -29.188999
v -42.268452 97.430435 -12.198963
v -45.484848 200.652527 80.687180
v -42.846146 98.999779 -13.689490
v -42.268452 97.430435 -12.198963
v -57.199402 149.979950 -29.188999
v 182.562225 6.650746 -149.222458
v 204.352295 99.009560 -85.734779
v 179.826447 35.574776 102.357903
v -39.336960 114.619965 -150.198761
v -57.199402 149.979950 -29.188999
v -41.416084 200.815247 -31.988686
v -43.697319 205.280441 81.301559
v -41.416084 200.815247 -31.988686
v -45.442436 201.067871 80.919762
v -45.442436 201.067871 80.919762
v -41.416084 200.815247 -31.988686
v -57.199402 149.979950 -29.188999
v 144.046249 -5.273098 212.761475
v 179.826447 35.574776 102.357903
v 201.280487 123.418732 39.666206
v 204.352295 99.009560 -85.734779
v 201.280487 123.418732 39.666206
v 179.826447 35.574776 102.357903
v 33.784920 -78.538025 -72.319084
v -16.912230 33.436264 -47.943306
v -39.336960 114.619965 -150.198761
v -39.336960 114.619965 -150.198761
v -16.912230 33.436264 -47.943306
v -42.846146 98.999779 -13.689490
v -42.268452 97.430435 -12.198963
v -16.912230 33.436264 -47.943306
v 33.784920 -78.538025 -72.319084
v -42.846146 98.999779 -13.689490
v -16.912230 33.436264 -47.943306
v -42.268452 97.430435 -12.198963
v -42.268452 97.430435 -12.198963
v -37.288025 95.484940 -2.272969
v -45.484848 200.652527 80.687180
v -42.268452 97.430435 -12.198963
v 33.784920 -78.538025 -72.319084
v -34.991829 86.235352 -9.084306
v 204.352295 99.009560 -85.734779
v 207.648071 159.625916 -4.236300
v 201.280487 123.418732 39.666206
v 144.046249 -5.273098 212.761475
v 35.463329 19.294800 78.563057
v 33.784920 -78.538025 -72.319084
v -45.484848 200.652527 80.687180
v 35.463329 19.294800 78.563057
v 144.046249 -5.273098 212.761475
v -37.288025 95.484940 -2.272969
v 35.463329 19.294800 78.563057
v -45.484848 200.652527 80.687180
v 33.784920 -78.538025 -72.319084
v 35.463329 19.294800 78.563057
v -34.991829 86.235352 -9.084306
v -42.268452 97.430435 -12.198963
v 35.463329 19.294800 78.563057
v -37.288025 95.484940 -2.272969
v -42.268452 97.430435 -12.198963
v -34.991829 86.235352 -9.084306
v 35.463329 19.294800 78.563057
v 144.046249 -5.273098 212.761475
v 201.280487 123.418732 39.666206
v 202.658966 187.795990 2.840844
v 207.648071 159.625916 -4.236300
v 202.658966 187.795990 2.840844
v 201.280487 123.418732 39.666206
v -43.697319 205.280441 81.301559
v -20.913300 244.507538 -1.742850
v -41.416084 200.815247 -31.988686
v 204.352295 99.009560 -85.734779
v 206.195541 165.452454 -14.662733
v 207.648071 159.625916 -4.236300
v 204.352295 99.009560 -85.734779
v 204.410568 179.536270 -9.072241
v 206.195541 165.452454 -14.662733
v 207.648071 159.625916 -4.236300
v 204.410568 179.536270 -9.072241
v 202.658966 187.795990 2.840844
v 206.195541 165.452454 -14.662733
v 204.410568 179.536270 -9.072241
v 207.648071 159.625916 -4.236300
v 204.410568 179.536270 -9.072241
v 202.820740 186.047287 -3.318563
v 202.658966 187.795990 2.840844
v 182.562225 6.650746 -149.222458
v 193.066498 104.898415 -108.177383
v 204.352295 99.009560 -85.734779
v -39.336960 114.619965 -150.198761
v -41.416084 200.815247 -31.988686
v -24.129730 216.030487 -66.471466
v -20.913300 244.507538 -1.742850
v -24.129730 216.030487 -66.471466
v -41.416084 200.815247 -31.988686
v 142.486328 -56.712814 -185.664825
v 155.637848 100.897911 -169.883026
v 182.562225 6.650746 -149.222458
v 182.562225 6.650746 -149.222458
v 155.637848 100.897911 -169.883026
v 193.066498 104.898415 -108.177383
v -39.336960 114.619965 -150.198761
v 85.561172 100.292816 -209.235474
v 142.486328 -56.712814 -185.664825
v -43.533073 205.342682 81.338425
v 1.438532 258.102631 -4.104724
v -43.697319 205.280441 81.301559
v -43.697319 205.280441 81.301559
v 1.438532 258.102631 -4.104724
v -20.913300 244.507538 -1.742850
v -14.289715 213.939301 77.580650
v 1.438532 258.102631 -4.104724
v -43.533073 205.342682 81.338425
v 155.637848 100.897911 -169.883026
v 181.718735 124.214622 -114.090843
v 193.066498 104.898415 -108.177383
v 142.486328 -56.712814 -185.664825
v 116.872215 95.862053 -194.740173
v 155.637848 100.897911 -169.883026
v 85.561172 100.292816 -209.235474
v 116.872215 95.862053 -194.740173
v 142.486328 -56.712814 -185.664825
v 155.637848 100.897911 -169.883026
v 116.872215 95.862053 -194.740173
v 85.561172 100.292816 -209.235474
v 204.352295 99.009560 -85.734779
v 189.508682 156.622040 -71.031097
v 204.410568 179.536270 -9.072241
v 193.066498 104.898415 -108.177383
v 189.508682 156.622040 -71.031097
v 204.352295 99.009560 -85.734779
v 204.410568 179.536270 -9.072241
v 189.508682 156.622040 -71.031097
v 202.820740 186.047287 -3.318563
v 181.718735 124.214622 -114.090843
v 189.508682 156.622040 -71.031097
v 193.066498 104.898415 -108.177383
v 155.637848 100.897911 -169.883026
v 189.508682 156.622040 -71.031097
v 181.718735 124.214622 -114.090843
v -39.336960 114.619965 -150.198761
v -24.129730 216.030487 -66.471466
v -7.818330 210.284729 -100.624992
v -20.913300 244.507538 -1.742850
v -3.899829 239.522156 -48.664055
v -24.129730 216.030487 -66.471466
v 1.438532 258.102631 -4.104724
v -3.899829 239.522156 -48.664055
v -20.913300 244.507538 -1.742850
v -24.129730 216.030487 -66.471466
v -3.899829 239.522156 -48.664055
v -7.818330 210.284729 -100.624992
v -14.289715 213.939301 77.580650
v -43.533073 205.342682 81.338425
v 26.320412 218.959122 81.589859
v -14.289715 213.939301 77.580650
v 26.320412 218.959122 81.589859
v 1.438532 258.102631 -4.104724
v -39.336960 114.619965 -150.198761
v 22.362139 178.179199 -163.291153
v 85.561172 100.292816 -209.235474
v -39.336960 114.619965 -150.198761
v -7.818330 210.284729 -100.624992
v 22.362139 178.179199 -163.291153
v -7.818330 210.284729 -100.624992
v 22.473032 179.069138 -162.597168
v 22.362139 178.179199 -163.291153
v 22.362139 178.179199 -163.291153
v 22.473032 179.069138 -162.597168
v 85.561172 100.292816 -209.235474
v 26.320412 218.959122 81.589859
v 18.605160 248.346436 19.458790
v 1.438532 258.102631 -4.104724
v 144.046249 -5.273098 212.761475
v 50.423603 200.433380 99.835472
v -43.533073 205.342682 81.338425
v -43.533073 205.342682 81.338425
v 50.423603 200.433380 99.835472
v 26.320412 218.959122 81.589859
v 26.320412 218.959122 81.589859
v 34.973446 228.642517 63.266483
v 18.605160 248.346436 19.458790
v 35.904102 218.130356 81.657448
v 34.973446 228.642517 63.266483
v 26.320412 218.959122 81.589859
v 202.658966 187.795990 2.840844
v 188.225952 193.690720 5.107711
v 57.909695 211.166656 88.976807
v 144.046249 -5.273098 212.761475
v 202.658966 187.795990 2.840844
v 57.909695 211.166656 88.976807
v 144.046249 -5.273098 212.761475
v 57.909695 211.166656 88.976807
v 50.423603 200.433380 99.835472
v 50.423603 200.433380 99.835472
v 57.909695 211.166656 88.976807
v 26.320412 218.959122 81.589859
v 35.904102 218.130356 81.657448
v 26.320412 218.959122 81.589859
v 57.909695 211.166656 88.976807
v 35.904102 218.130356 81.657448
v 57.909695 211.166656 88.976807
v 34.973446 228.642517 63.266483
v -3.899829 239.522156 -48.664055
v 17.902355 223.610474 -99.148285
v -7.818330 210.284729 -100.624992
v -7.818330 210.284729 -100.624992
v 17.902355 223.610474 -99.148285
v 22.473032 179.069138 -162.597168
v 17.902355 223.610474 -99.148285
v 20.558149 226.238220 -96.128708
v 22.473032 179.069138 -162.597168
v 1.438532 258.102631 -4.104724
v 20.558149 226.238220 -96.128708
v -3.899829 239.522156 -48.664055
v -3.899829 239.522156 -48.664055
v 20.558149 226.238220 -96.128708
v 17.902355 223.610474 -99.148285
v 34.973446 228.642517 63.266483
v 48.334328 243.953842 30.041807
v 18.605160 248.346436 19.458790
v 18.605160 248.346436 19.458790
v 57.902176 252.042404 11.888361
v 1.438532 258.102631 -4.104724
v 48.334328 243.953842 30.041807
v 57.902176 252.042404 11.888361
v 18.605160 248.346436 19.458790
v 57.909695 211.166656 88.976807
v 57.902176 252.042404 11.888361
v 34.973446 228.642517 63.266483
v 34.973446 228.642517 63.266483
v 57.902176 252.042404 11.888361
v 48.334328 243.953842 30.041807
v 1.438532 258.102631 -4.104724
v 50.234150 252.071075 -36.707024
v 20.558149 226.238220 -96.128708
v 57.902176 252.042404 11.888361
v 70.949036 251.758057 -2.221117
v 1.438532 258.102631 -4.104724
v 1.438532 258.102631 -4.104724
v 70.949036 251.758057 -2.221117
v 50.234150 252.071075 -36.707024
v 188.225952 193.690720 5.107711
v 73.404190 243.800751 14.932136
v 57.909695 211.166656 88.976807
v 57.909695 211.166656 88.976807
v 73.404190 243.800751 14.932136
v 57.902176 252.042404 11.888361
v 189.508682 156.622040 -71.031097
v 134.610931 178.645477 -104.564751
v 202.820740 186.047287 -3.318563
v 155.637848 100.897911 -169.883026
v 134.610931 178.645477 -104.564751
v 189.508682 156.622040 -71.031097
v 70.949036 251.758057 -2.221117
v 72.511559 247.852249 -21.655396
v 50.234150 252.071075 -36.707024
v 70.949036 251.758057 -2.221117
v 87.586586 245.290298 -8.105093
v 72.511559 247.852249 -21.655396
v 202.658966 187.795990 2.840844
v 96.727722 241.625366 -5.149292
v 188.225952 193.690720 5.107711
v 188.225952 193.690720 5.107711
v 96.727722 241.625366 -5.149292
v 73.404190 243.800751 14.932136
v 57.902176 252.042404 11.888361
v 96.727722 241.625366 -5.149292
v 70.949036 251.758057 -2.221117
v 73.404190 243.800751 14.932136
v 96.727722 241.625366 -5.149292
v 57.902176 252.042404 11.888361
v 202.820740 186.047287 -3.318563
v 96.727722 241.625366 -5.149292
v 202.658966 187.795990 2.840844
v 70.949036 251.758057 -2.221117
v 96.727722 241.625366 -5.149292
v 87.586586 245.290298 -8.105093
v 50.234150 252.071075 -36.707024
v 62.402939 236.960678 -60.113216
v 20.558149 226.238220 -96.128708
v 155.637848 100.897911 -169.883026
v 85.561172 100.292816 -209.235474
v 98.008583 187.568420 -122.748711
v 155.637848 100.897911 -169.883026
v 98.008583 187.568420 -122.748711
v 134.610931 178.645477 -104.564751
v 22.473032 179.069138 -162.597168
v 98.008583 187.568420 -122.748711
v 85.561172 100.292816 -209.235474
v 20.558149 226.238220 -96.128708
v 73.199432 210.800018 -102.385094
v 22.473032 179.069138 -162.597168
v 22.473032 179.069138 -162.597168
v 73.199432 210.800018 -102.385094
v 98.008583 187.568420 -122.748711
v 62.402939 236.960678 -60.113216
v 73.199432 210.800018 -102.385094
v 20.558149 226.238220 -96.128708
v 202.820740 186.047287 -3.318563
v 113.410881 214.885193 -56.576038
v 96.727722 241.625366 -5.149292
v 72.511559 247.852249 -21.655396
v 90.827927 220.380112 -74.732124
v 50.234150 252.071075 -36.707024
v 50.234150 252.071075 -36.707024
v 90.827927 220.380112 -74.732124
v 62.402939 236.960678 -60.113216
v 87.586586 245.290298 -8.105093
v 90.827927 220.380112 -74.732124
v 72.511559 247.852249 -21.655396
v 96.727722 241.625366 -5.149292
v 90.827927 220.380112 -74.732124
v 87.586586 245.290298 -8.105093
v 113.410881 214.885193 -56.576038
v 90.827927 220.380112 -74.732124
v 96.727722 241.625366 -5.149292
v 98.008583 187.568420 -122.748711
v 90.827927 220.380112 -74.732124
v 134.610931 178.645477 -104.564751
v 73.199432 210.800018 -102.385094
v 90.827927 220.380112 -74.732124
v 98.008583 187.568420 -122.748711
v 134.610931 178.645477 -104.564751
v 90.827927 220.380112 -74.732124
v 202.820740 186.047287 -3.318563
v 202.820740 186.047287 -3.318563
v 90.827927 220.380112 -74.732124
v 113.410881 214.885193 -56.576038
v 62.402939 236.960678 -60.113216
v 90.827927 220.380112 -74.732124
v 73.199432 210.800018 -102.385094
vn -0.251350 -0.881753 0.399167
vn 0.560798 -0.757289 -0.334694
vn -0.175255 -0.857311 -0.484050
vn 0.902114 -0.417710 -0.108206
vn 0.774256 -0.199135 -0.600727
vn 0.893335 -0.355767 -0.274559
vn -0.472337 -0.868422 -0.150804
vn -0.437010 -0.815851 0.378695
vn 0.924466 -0.377019 -0.056746
vn 0.922206 -0.325814 -0.208284
vn 0.713705 -0.049562 -0.698690
vn -0.693118 -0.192702 0.694589
vn -0.732317 -0.274251 0.623296
vn 0.900774 -0.411173 0.139799
vn 0.943883 -0.326797 0.047836
vn -0.315098 0.284363 0.905456
vn -0.922629 0.384706 -0.027515
vn -0.312084 0.287152 0.905620
vn -0.592640 -0.481537 -0.645678
vn -0.599306 -0.483971 -0.637655
vn -0.522808 -0.398869 -0.753376
vn -0.995181 0.056900 0.079861
vn -0.956303 -0.286691 -0.057388
vn -0.957837 -0.208104 0.198094
vn -0.964060 -0.232135 0.129237
vn 0.966036 -0.255314 0.039858
vn -0.935126 0.278257 -0.219344
vn -0.922251 0.385115 -0.033749
vn -0.954992 0.294594 -0.034714
vn 0.952957 -0.016754 0.302641
vn 0.978870 -0.194884 0.061912
vn -0.914247 -0.390148 -0.109255
vn -0.938856 -0.338522 -0.062870
vn -0.888586 -0.434394 0.147365
vn -0.932829 -0.359900 -0.017388
vn -0.861981 -0.353676 0.363183
vn -0.836709 -0.462060 0.293969
vn 0.991977 -0.117304 0.047133
vn -0.656205 -0.629783 0.415654
vn -0.759464 -0.345440 0.551259
vn -0.836551 -0.378035 0.396576
vn -0.828790 -0.465248 0.310889
vn -0.832659 -0.444178 0.330733
vn -0.831753 -0.450290 0.324694
vn 0.849696 0.247980 0.465320
vn 0.965958 0.112558 0.232931
vn -0.895024 0.444600 -0.035546
vn 0.992510 0.075336 -0.096169
vn 0.953372 0.207732 -0.218927
vn 0.985487 0.167269 0.028925
vn 0.987566 0.147137 -0.055356
vn 0.957690 0.282489 -0.055047
vn 0.898902 0.083578 -0.430104
vn -0.886473 0.366368 -0.282736
vn -0.832816 0.520749 -0.187718
vn 0.654133 0.021125 -0.756085
vn 0.844391 0.127139 -0.520423
vn -0.436106 -0.286201 -0.853171
vn -0.397778 0.859385 0.321294
vn -0.480898 0.836362 0.263128
vn -0.201942 0.877284 0.435422
vn 0.801987 0.315951 -0.506943
vn 0.535688 0.039759 -0.843480
vn 0.422022 0.016933 -0.906427
vn 0.421368 0.497875 -0.758004
vn 0.890309 0.313637 -0.330123
vn 0.877972 0.317616 -0.358168
vn 0.766568 0.520064 -0.376705
vn 0.832342 0.359947 -0.421480
vn 0.643609 0.551037 -0.531155
vn -0.757996 0.479100 -0.442612
vn -0.600796 0.742296 -0.296716
vn -0.520690 0.808350 -0.274688
vn -0.536479 0.752126 -0.382750
vn -0.156181 0.790283 0.592503
vn -0.153073 0.881330 0.447019
vn -0.399241 0.203405 -0.893998
vn -0.644750 0.508278 -0.570921
vn -0.630078 0.524823 -0.572331
vn 0.159885 0.594563 -0.787992
vn -0.087427 0.896280 0.434787
vn -0.154025 0.420693 0.894032
vn -0.121986 0.611360 0.781894
vn -0.083426 0.896786 0.434529
vn 0.071548 0.867512 0.492244
vn 0.397277 0.799388 0.450721
vn 0.485805 0.571546 0.661308
vn 0.308218 0.561748 0.767750
vn 0.009472 0.707897 0.706252
vn 0.066416 0.814967 0.575689
vn 0.111175 0.865213 0.488924
vn -0.396445 0.812550 -0.427310
vn -0.357800 0.751961 -0.553654
vn -0.142369 0.805272 -0.575559
vn -0.197118 0.913029 -0.357102
vn -0.354303 0.837085 -0.416843
vn -0.012975 0.910097 0.414193
vn -0.011539 0.920876 0.389684
vn -0.008367 0.915031 0.403297
vn 0.146453 0.873963 0.463400
vn 0.108297 0.885590 0.451667
vn -0.116452 0.930796 -0.346494
vn 0.089046 0.994077 0.062306
vn 0.092043 0.994680 -0.046260
vn 0.390735 0.809360 0.438478
vn 0.353367 0.826499 0.438213
vn 0.547544 0.722737 -0.421719
vn 0.576438 0.611381 -0.542155
vn 0.290624 0.942325 -0.166018
vn 0.306578 0.937647 -0.163795
vn 0.400635 0.842030 0.361217
vn 0.397899 0.838955 0.371256
vn 0.377507 0.864578 0.331652
vn 0.384023 0.852921 0.353627
vn 0.454500 0.859947 -0.232208
vn 0.367414 0.929907 0.016734
vn 0.179201 0.866372 -0.466140
vn 0.378643 0.623673 -0.683857
vn 0.461187 0.640563 -0.613992
vn 0.295683 0.650808 -0.699300
vn 0.168994 0.806081 -0.567164
vn 0.228870 0.768342 -0.597720
vn 0.193875 0.855589 -0.479979
vn 0.447514 0.844577 -0.293975
vn 0.379693 0.868548 -0.318525
vn 0.296759 0.865170 -0.404246
vn 0.416064 0.858206 -0.300621
vn 0.436432 0.849520 -0.296382
vn 0.443720 0.845906 -0.295897
vn 0.421729 0.776770 -0.467731
vn 0.341980 0.798901 -0.494780
vn 0.485912 0.784774 -0.384733
vn 0.456576 0.831591 -0.316220
vn 0.259187 0.849502 -0.459531
f 1//1 2//1 3//1
f 4//2 5//2 6//2
f 7//3 8//3 9//3
f 10//4 11//4 12//4
f 13//5 14//5 15//5
f 16//6 17//6 18//6
f 19//7 20//7 21//7
f 22//8 23//8 24//8
f 25//9 26//9 27//9
f 28//10 29//10 30//10
f 31//11 32//11 33//11
f 34//12 35//12 36//12
f 37//13 38//13 39//13
f 40//14 41//14 42//14
f 43//15 44//15 45//15
f 46//16 47//16 48//16
f 49//17 50//17 51//17
f 52//18 53//18 54//18
f 55//19 56//19 57//19
f 58//20 59//20 60//20
f 61//21 62//21 63//21
f 64//22 65//22 66//22
f 67//23 68//23 69//23
f 70//24 71//24 72//24
f 73//25 74//25 75//25
f 76//26 77//26 78//26
f 79//27 80//27 81//27
f 82//28 83//28 84//28
f 85//29 86//29 87//29
f 88//30 89//30 90//30
f 91//31 92//31 93//31
f 94//32 95//32 96//32
f 97//33 98//33 99//33
f 100//34 101//34 102//34
f 103//35 104//35 105//35
f 106//36 107//36 108//36
f 109//37 110//37 111//37
f 112//38 113//38 114//38
f 115//39 116//39 117//39
f 118//40 119//40 120//40
f 121//41 122//41 123//41
f 124//42 125//42 126//42
f 127//43 128//43 129//43
f 130//44 131//44 132//44
f 133//45 134//45 135//45
f 136//46 137//46 138//46
f 139//47 140//47 141//47
f 142//48 143//48 144//48
f 145//49 146//49 147//49
f 148//50 149//50 150//50
f 151//51 152//51 153//51
f 154//52 155//52 156//52
f 157//53 158//53 159//53
f 160//54 161//54 162//54
f 163//55 164//55 165//55
f 166//56 167//56 168//56
f 169//57 170//57 171//57
f 172//58 173//58 174//58
f 175//59 176//59 177//59
f 178//60 179//60 180//60
f 181//61 182//61 183//61
f 184//62 185//62 186//62
f 187//63 188//63 189//63
f 190//64 191//64 192//64
f 193//65 194//65 195//65
f 196//66 197//66 198//66
f 199//67 200//67 201//67
f 202//68 203//68 204//68
f 205//69 206//69 207//69
f 208//70 209//70 210//70
f 211//71 212//71 213//71
f 214//72 215//72 216//72
f 217//73 218//73 219//73
f 220//74 221//74 222//74
f 223//75 224//75 225//75
f 226//76 227//76 228//76
f 229//77 230//77 231//77
f 232//78 233//78 234//78
f 235//79 236//79 237//79
f 238//80 239//80 240//80
f 241//81 242//81 243//81
f 244//82 245//82 246//82
f 247//83 248//83 249//83
f 250//84 251//84 252//84
f 253//85 254//85 255//85
f 256//86 257//86 258//86
f 259//87 260//87 261//87
f 262//88 263//88 264//88
f 265//89 266//89 267//89
f 268//90 269//90 270//90
f 271//91 272//91 273//91
f 274//92 275//92 276//92
f 277//93 278//93 279//93
f 280//94 281//94 282//94
f 283//95 284//95 285//95
f 286//96 287//96 288//96
f 289//97 290//97 291//97
f 292//98 293//98 294//98
f 295//99 296//99 297//99
f 298//100 299//100 300//100
f 301//101 302//101 303//101
f 304//102 305//102 306//102
f 307//103 308//103 309//103
f 310//104 311//104 312//104
f 313//105 314//105 315//105
f 316//106 317//106 318//106
f 319//107 320//107 321//107
f 322//108 323//108 324//108
f 325//109 326//109 327//109
f 328//110 329//110 330//110
f 331//111 332//111 333//111
f 334//112 335//112 336//112
f 337//113 338//113 339//113
f 340//114 341//114 342//114
f 343//115 344//115 345//115
f 346//116 347//116 348//116
f 349//117 350//117 351//117
f 352//118 353//118 354//118
f 355//119 356//119 357//119
f 358//120 359//120 360//120
f 361//121 362//121 363//121
f 364//122 365//122 366//122
f 367//123 368//123 369//123
f 370//124 371//124 372//124
f 373//125 374//125 375//125
f 376//126 377//126 378//126
f 379//127 380//127 381//127
f 382//128 383//128 384//128
f 385//129 386//129 387//129
f 388//130 389//130 390//130
f 391//131 392//131 393//131
f 394//132 395//132 396//132
f 397//133 398//133 399//133
f 400//134 401//134 402//134
