o
v 6.538141 37.953835 12.445995
v -2.807495 20.809742 39.960163
v -2.765848 19.976112 39.908623
v -2.765848 19.976112 39.908623
v -2.924493 19.886339 39.954163
v -2.817721 19.935499 39.915409
v 6.538141 37.953835 12.445995
v -6.962376 22.254944 42.993443
v -2.807495 20.809742 39.960163
v -2.807495 20.809742 39.960163
v -6.962376 22.254944 42.993443
v -2.765848 19.976112 39.908623
v -2.765848 19.976112 39.908623
v -6.962376 22.254944 42.993443
v -2.924493 19.886339 39.954163
v -6.962376 22.254944 42.993443
v -7.008578 22.202957 42.995159
v -2.924493 19.886339 39.954163
v -7.008578 22.202957 42.995159
v -8.595564 21.618935 43.457237
v -2.924493 19.886339 39.954163
v -6.962376 22.254944 42.993443
v -8.595564 21.618935 43.457237
v -7.008578 22.202957 42.995159
v -8.595564 21.618935 43.457237
v -8.330922 20.507010 42.769569
v -2.924493 19.886339 39.954163
v 6.538141 37.953835 12.445995
v -0.560492 4.552500 12.299314
v -18.015438 -8.881151 -44.050205
v 6.538141 37.953835 12.445995
v -2.765848 19.976112 39.908623
v -0.560492 4.552500 12.299314
v -2.765848 19.976112 39.908623
v -2.817721 19.935499 39.915409
v -0.560492 4.552500 12.299314
v -2.924493 19.886339 39.954163
v -0.560492 4.552500 12.299314
v -2.817721 19.935499 39.915409
v 6.538141 37.953835 12.445995
v -8.906007 22.742453 42.800144
v -6.962376 22.254944 42.993443
v -6.962376 22.254944 42.993443
v -9.113195 22.578354 43.029156
v -8.595564 21.618935 43.457237
v -8.906007 22.742453 42.800144
v -9.113195 22.578354 43.029156
v -6.962376 22.254944 42.993443
v -9.113195 22.578354 43.029156
v -9.713461 22.290268 43.055920
v -8.595564 21.618935 43.457237
v -0.560492 4.552500 12.299314
v -29.520500 -10.881367 -23.479439
v -18.015438 -8.881151 -44.050205
v -18.015438 -8.881151 -44.050205
v -29.520500 -10.881367 -23.479439
v -35.854935 -10.938982 -33.331135
v -35.854935 -10.938982 -33.331135
v -29.520500 -10.881367 -23.479439
v -35.785774 -10.935154 -33.144718
v 6.538141 37.953835 12.445995
v -18.015438 -8.881151 -44.050205
v -7.928446 30.773989 -19.252668
v 6.538141 37.953835 12.445995
v -7.928446 30.773989 -19.252668
v -13.576097 37.927971 -15.188630
v -0.560492 4.552500 12.299314
v -30.173042 -7.645767 -5.570445
v -29.520500 -10.881367 -23.479439
v 6.538141 37.953835 12.445995
v -13.576097 37.927971 -15.188630
v -24.340139 44.143364 2.180176
v -18.015438 -8.881151 -44.050205
v -15.216847 31.658104 -21.880604
v -7.928446 30.773989 -19.252668
v -7.928446 30.773989 -19.252668
v -15.216847 31.658104 -21.880604
v -13.576097 37.927971 -15.188630
v 6.538141 37.953835 12.445995
v -24.337132 44.133411 2.208989
v -8.906007 22.742453 42.800144
v 6.538141 37.953835 12.445995
v -24.340139 44.143364 2.180176
v -24.337132 44.133411 2.208989
v -8.906007 22.742453 42.800144
v -27.116682 23.942173 36.503693
v -9.113195 22.578354 43.029156
v -24.337132 44.133411 2.208989
v -27.116682 23.942173 36.503693
v -8.906007 22.742453 42.800144
v -9.113195 22.578354 43.029156
v -27.116682 23.942173 36.503693
v -9.713461 22.290268 43.055920
v -9.713461 22.290268 43.055920
v -27.116682 23.942173 36.503693
v -8.595564 21.618935 43.457237
v -8.595564 21.618935 43.457237
v -27.116682 23.942173 36.503693
v -46.230858 -0.579541 23.206038
v -35.854935 -10.938982 -33.331135
v -46.230858 -0.579541 23.206038
v -49.836006 1.364024 22.013256
v -46.230858 -0.579541 23.206038
v -49.838718 1.366508 22.013786
v -49.836006 1.364024 22.013256
v -27.116682 23.942173 36.503693
v -49.849281 1.379513 22.019053
v -46.230858 -0.579541 23.206038
v -46.230858 -0.579541 23.206038
v -49.849281 1.379513 22.019053
v -49.838718 1.366508 22.013786
v -35.854935 -10.938982 -33.331135
v -35.785774 -10.935154 -33.144718
v -42.280670 -2.294454 19.480280
v -35.854935 -10.938982 -33.331135
v -42.280670 -2.294454 19.480280
v -46.230858 -0.579541 23.206038
v -29.520500 -10.881367 -23.479439
v -42.280670 -2.294454 19.480280
v -35.785774 -10.935154 -33.144718
v -30.173042 -7.645767 -5.570445
v -42.280670 -2.294454 19.480280
v -29.520500 -10.881367 -23.479439
v -8.595564 21.618935 43.457237
v -36.003990 1.116153 26.582609
v -8.330922 20.507010 42.769569
v -8.595564 21.618935 43.457237
v -46.230858 -0.579541 23.206038
v -36.003990 1.116153 26.582609
v -8.330922 20.507010 42.769569
v -36.003990 1.116153 26.582609
v -2.924493 19.886339 39.954163
v -42.280670 -2.294454 19.480280
v -36.003990 1.116153 26.582609
v -46.230858 -0.579541 23.206038
v -2.924493 19.886339 39.954163
v -36.003990 1.116153 26.582609
v -0.560492 4.552500 12.299314
v -0.560492 4.552500 12.299314
v -36.003990 1.116153 26.582609
v -30.173042 -7.645767 -5.570445
v -30.173042 -7.645767 -5.570445
v -36.003990 1.116153 26.582609
v -42.280670 -2.294454 19.480280
v -13.576097 37.927971 -15.188630
v -28.826216 43.136730 -3.678795
v -24.340139 44.143364 2.180176
v -35.854935 -10.938982 -33.331135
v -49.836006 1.364024 22.013256
v -50.424568 1.207367 3.027980
v -49.838718 1.366508 22.013786
v -50.424568 1.207367 3.027980
v -49.836006 1.364024 22.013256
v -49.849281 1.379513 22.019053
v -50.424568 1.207367 3.027980
v -49.838718 1.366508 22.013786
v -27.116682 23.942173 36.503693
v -36.987507 17.049307 29.198240
v -49.849281 1.379513 22.019053
v -15.216847 31.658104 -21.880604
v -36.494316 33.845097 -13.203346
v -13.576097 37.927971 -15.188630
v -13.576097 37.927971 -15.188630
v -36.494316 33.845097 -13.203346
v -28.826216 43.136730 -3.678795
v -28.826216 43.136730 -3.678795
v -43.616718 34.605450 -4.357216
v -24.340139 44.143364 2.180176
v -43.176498 34.711082 -5.696837
v -43.616718 34.605450 -4.357216
v -28.826216 43.136730 -3.678795
v -24.340139 44.143364 2.180176
v -43.616718 34.605450 -4.357216
v -24.337132 44.133411 2.208989
v -35.854935 -10.938982 -33.331135
v -50.424568 1.207367 3.027980
v -51.683125 10.717927 -8.065119
v -49.849281 1.379513 22.019053
v -51.683125 10.717927 -8.065119
v -50.424568 1.207367 3.027980
v -36.494316 33.845097 -13.203346
v -43.964306 33.614418 -7.721746
v -28.826216 43.136730 -3.678795
v -43.176498 34.711082 -5.696837
v -28.826216 43.136730 -3.678795
v -43.964306 33.614418 -7.721746
v -43.176498 34.711082 -5.696837
v -43.964306 33.614418 -7.721746
v -44.422802 33.573917 -6.498336
v -43.176498 34.711082 -5.696837
v -45.528286 32.744671 -6.365868
v -43.616718 34.605450 -4.357216
v -43.176498 34.711082 -5.696837
v -44.422802 33.573917 -6.498336
v -45.528286 32.744671 -6.365868
v -43.964306 33.614418 -7.721746
v -45.528286 32.744671 -6.365868
v -44.422802 33.573917 -6.498336
v -45.528286 32.744671 -6.365868
v -45.461933 32.795925 -6.220620
v -43.616718 34.605450 -4.357216
v -51.683125 10.717927 -8.065119
v -45.701244 32.493404 -6.129463
v -45.528286 32.744671 -6.365868
v -45.461933 32.795925 -6.220620
v -45.701244 32.493404 -6.129463
v -43.616718 34.605450 -4.357216
v -45.528286 32.744671 -6.365868
v -45.701244 32.493404 -6.129463
v -45.461933 32.795925 -6.220620
v -51.683125 10.717927 -8.065119
v -45.528286 32.744671 -6.365868
v -45.458336 32.258202 -6.884012
v -43.964306 33.614418 -7.721746
v -42.037567 31.746525 -12.099140
v -45.528286 32.744671 -6.365868
v -45.528286 32.744671 -6.365868
v -42.037567 31.746525 -12.099140
v -45.458336 32.258202 -6.884012
v -36.494316 33.845097 -13.203346
v -42.037567 31.746525 -12.099140
v -43.964306 33.614418 -7.721746
v -15.216847 31.658104 -21.880604
v -37.551521 31.335941 -14.567515
v -36.494316 33.845097 -13.203346
v -45.701244 32.493404 -6.129463
v -45.447029 31.996513 -3.581439
v -43.616718 34.605450 -4.357216
v -24.337132 44.133411 2.208989
v -41.065193 31.385876 7.357005
v -27.116682 23.942173 36.503693
v -43.616718 34.605450 -4.357216
v -41.065193 31.385876 7.357005
v -24.337132 44.133411 2.208989
v -27.116682 23.942173 36.503693
v -41.065193 31.385876 7.357005
v -36.987507 17.049307 29.198240
v -36.987507 17.049307 29.198240
v -44.651455 17.067648 17.266342
v -49.849281 1.379513 22.019053
v -41.065193 31.385876 7.357005
v -44.651455 17.067648 17.266342
v -36.987507 17.049307 29.198240
v -49.849281 1.379513 22.019053
v -51.480301 16.339403 1.047782
v -51.683125 10.717927 -8.065119
v -51.332115 16.492964 2.939431
v -51.480301 16.339403 1.047782
v -49.849281 1.379513 22.019053
v -51.683125 10.717927 -8.065119
v -51.480301 16.339403 1.047782
v -45.701244 32.493404 -6.129463
v -18.015438 -8.881151 -44.050205
v -40.522797 27.721819 -16.009871
v -15.216847 31.658104 -21.880604
v -15.216847 31.658104 -21.880604
v -40.522797 27.721819 -16.009871
v -37.551521 31.335941 -14.567515
v -36.494316 33.845097 -13.203346
v -40.522797 27.721819 -16.009871
v -42.037567 31.746525 -12.099140
v -37.551521 31.335941 -14.567515
v -40.522797 27.721819 -16.009871
v -36.494316 33.845097 -13.203346
v -42.037567 31.746525 -12.099140
v -42.755875 28.182774 -13.634676
v -45.458336 32.258202 -6.884012
v -40.522797 27.721819 -16.009871
v -42.755875 28.182774 -13.634676
v -42.037567 31.746525 -12.099140
v -45.447029 31.996513 -3.581439
v -46.809811 28.155218 0.913222
v -43.616718 34.605450 -4.357216
v -43.616718 34.605450 -4.357216
v -46.809811 28.155218 0.913222
v -41.065193 31.385876 7.357005
v -45.701244 32.493404 -6.129463
v -46.809811 28.155218 0.913222
v -45.447029 31.996513 -3.581439
v -51.332115 16.492964 2.939431
v -50.522812 19.310976 2.044053
v -51.480301 16.339403 1.047782
v -51.332115 16.492964 2.939431
v -50.520695 19.303482 2.065337
v -50.522812 19.310976 2.044053
v -18.015438 -8.881151 -44.050205
v -35.854935 -10.938982 -33.331135
v -44.678200 19.285728 -17.184864
v -18.015438 -8.881151 -44.050205
v -44.678200 19.285728 -17.184864
v -40.522797 27.721819 -16.009871
v -42.755875 28.182774 -13.634676
v -44.678200 19.285728 -17.184864
v -45.458336 32.258202 -6.884012
v -40.522797 27.721819 -16.009871
v -44.678200 19.285728 -17.184864
v -42.755875 28.182774 -13.634676
v -51.683125 10.717927 -8.065119
v -45.458336 32.258202 -6.884012
v -44.678200 19.285728 -17.184864
v -35.854935 -10.938982 -33.331135
v -51.683125 10.717927 -8.065119
v -44.678200 19.285728 -17.184864
v -51.480301 16.339403 1.047782
v -48.986496 23.844807 1.086245
v -45.701244 32.493404 -6.129463
v -50.522812 19.310976 2.044053
v -48.986496 23.844807 1.086245
v -51.480301 16.339403 1.047782
v -50.520695 19.303482 2.065337
v -48.986496 23.844807 1.086245
v -50.522812 19.310976 2.044053
v -45.701244 32.493404 -6.129463
v -48.986496 23.844807 1.086245
v -46.809811 28.155218 0.913222
v -41.065193 31.385876 7.357005
v -48.386940 22.815903 4.593076
v -44.651455 17.067648 17.266342
v -46.809811 28.155218 0.913222
v -48.386940 22.815903 4.593076
v -41.065193 31.385876 7.357005
v -51.332115 16.492964 2.939431
v -49.849281 1.379513 22.019053
v -48.386940 22.815903 4.593076
v -51.332115 16.492964 2.939431
v -48.386940 22.815903 4.593076
v -50.520695 19.303482 2.065337
v -44.651455 17.067648 17.266342
v -48.386940 22.815903 4.593076
v -49.849281 1.379513 22.019053
v -50.520695 19.303482 2.065337
v -48.386940 22.815903 4.593076
v -48.986496 23.844807 1.086245
v -48.986496 23.844807 1.086245
v -48.386940 22.815903 4.593076
v -46.809811 28.155218 0.913222
vn 0.941448 0.026251 0.336135
vn 0.490956 -0.508920 0.707079
vn 0.605189 0.566963 0.558837
vn 0.584752 -0.020924 0.810942
vn 0.431364 -0.337967 0.836483
vn 0.424049 -0.349275 0.835577
vn 0.389224 -0.401857 0.828864
vn 0.365842 -0.295999 0.882352
vn 0.381076 -0.418997 0.824150
vn 0.948323 -0.200463 -0.245964
vn 0.959953 -0.204854 0.191117
vn 0.591014 -0.683206 0.428873
vn 0.503152 -0.736835 0.451565
vn 0.161986 0.846741 0.506745
vn 0.081351 0.442392 0.893124
vn 0.123602 0.750293 0.649448
vn -0.125173 0.347160 0.929415
vn 0.358081 -0.927174 0.110117
vn 0.085325 -0.995145 -0.049042
vn -0.053876 -0.997727 0.040476
vn 0.906426 0.032756 -0.421093
vn 0.579285 0.697208 -0.422293
vn 0.279498 -0.943016 0.180558
vn 0.251649 0.950156 -0.184056
vn 0.351920 0.430296 -0.831263
vn 0.326596 0.648458 -0.687631
vn 0.025839 0.888396 0.458349
vn 0.083771 0.944544 0.317519
vn -0.118415 0.854754 0.505345
vn -0.115190 0.860055 0.497027
vn -0.240376 0.573604 0.783070
vn -0.354853 -0.032343 0.934363
vn -0.366498 -0.206310 0.907257
vn -0.491005 -0.868419 0.069011
vn -0.533612 -0.687676 0.492300
vn -0.393891 -0.181588 0.901042
vn -0.530526 -0.650834 0.543099
vn -0.276927 -0.953075 0.122311
vn -0.299200 -0.946795 0.118573
vn -0.199526 -0.970585 0.134739
vn -0.072401 -0.981944 0.174769
vn -0.108317 -0.541412 0.833751
vn -0.218066 -0.429680 0.876255
vn 0.211798 -0.786521 0.580109
vn 0.009271 -0.904583 0.426196
vn 0.275587 -0.830509 0.484052
vn 0.208224 -0.933436 0.292129
vn 0.183220 -0.939552 0.289261
vn 0.128417 0.956313 -0.262630
vn -0.602205 -0.797942 0.025253
vn -0.672310 -0.739779 0.026947
vn -0.770087 -0.637275 0.029104
vn -0.680692 0.241910 0.691475
vn -0.187726 0.739319 -0.646658
vn -0.190263 0.774899 -0.602771
vn -0.493790 0.837449 0.234201
vn -0.494176 0.864238 -0.094246
vn -0.505996 0.797601 0.328330
vn -0.893690 -0.385685 -0.229271
vn -0.994946 -0.095500 0.031005
vn -0.373748 0.796186 -0.475816
vn -0.456535 0.844568 -0.279788
vn -0.589672 0.783737 -0.195045
vn -0.611513 0.778833 -0.139539
vn -0.604394 0.779246 -0.165781
vn -0.603139 0.772030 -0.200480
vn -0.752136 0.648969 0.114589
vn -0.891681 0.276790 -0.358179
vn -0.758129 0.638967 0.130237
vn -0.760182 0.638136 0.122088
vn -0.883490 0.276066 -0.378462
vn -0.712156 0.475575 -0.516394
vn -0.725936 0.449789 -0.520295
vn -0.391896 0.771245 -0.501596
vn -0.268012 0.544888 -0.794523
vn -0.774842 0.601458 0.194596
vn -0.464187 0.779210 0.421143
vn -0.506099 0.797127 0.329321
vn -0.712252 0.518394 0.473249
vn -0.769131 0.404681 0.494641
vn -0.725862 0.505008 0.467003
vn -0.997983 -0.041651 0.047905
vn -0.996950 0.000706 0.078041
vn -0.950221 0.274188 -0.147989
vn -0.268343 0.476404 -0.837276
vn -0.269012 0.539561 -0.797813
vn -0.363700 0.575131 -0.732767
vn -0.283954 0.547572 -0.787105
vn -0.755203 0.381798 -0.532821
vn -0.622542 0.412130 -0.665275
vn -0.739260 0.605977 0.293746
vn -0.714004 0.619699 0.325840
vn -0.838849 0.512459 0.183626
vn -0.955447 0.290678 0.051250
vn -0.920632 0.330460 0.207924
vn -0.517928 0.280511 -0.808124
vn -0.462861 0.341904 -0.817839
vn -0.759415 0.375960 -0.530983
vn -0.626972 0.401792 -0.667434
vn -0.869664 0.273840 -0.410727
vn -0.819809 0.064632 -0.568979
vn -0.947533 0.315110 -0.053719
vn -0.948546 0.315319 -0.028880
vn -0.910212 0.353880 0.215134
vn -0.881731 0.450836 0.138917
vn -0.746806 0.494677 0.444495
vn -0.753255 0.509322 0.416171
vn -0.886277 0.327053 0.327947
vn -0.896649 0.345122 0.277329
vn -0.815423 0.397618 0.420697
vn -0.896897 0.358752 0.258599
vn -0.853562 0.442099 0.275644
f 1//1 2//1 3//1
f 4//2 5//2 6//2
f 7//3 8//3 9//3
f 10//4 11//4 12//4
f 13//5 14//5 15//5
f 16//6 17//6 18//6
f 19//7 20//7 21//7
f 22//8 23//8 24//8
f 25//9 26//9 27//9
f 28//10 29//10 30//10
f 31//11 32//11 33//11
f 34//12 35//12 36//12
f 37//13 38//13 39//13
f 40//14 41//14 42//14
f 43//15 44//15 45//15
f 46//16 47//16 48//16
f 49//17 50//17 51//17
f 52//18 53//18 54//18
f 55//19 56//19 57//19
f 58//20 59//20 60//20
f 61//21 62//21 63//21
f 64//22 65//22 66//22
f 67//23 68//23 69//23
f 70//24 71//24 72//24
f 73//25 74//25 75//25
f 76//26 77//26 78//26
f 79//27 80//27 81//27
f 82//28 83//28 84//28
f 85//29 86//29 87//29
f 88//30 89//30 90//30
f 91//31 92//31 93//31
f 94//32 95//32 96//32
f 97//33 98//33 99//33
f 100//34 101//34 102//34
f 103//35 104//35 105//35
f 106//36 107//36 108//36
f 109//37 110//37 111//37
f 112//38 113//38 114//38
f 115//39 116//39 117//39
f 118//40 119//40 120//40
f 121//41 122//41 123//41
f 124//42 125//42 126//42
f 127//43 128//43 129//43
f 130//44 131//44 132//44
f 133//45 134//45 135//45
f 136//46 137//46 138//46
f 139//47 140//47 141//47
f 142//48 143//48 144//48
f 145//49 146//49 147//49
f 148//50 149//50 150//50
f 151//51 152//51 153//51
f 154//52 155//52 156//52
f 157//53 158//53 159//53
f 160//54 161//54 162//54
f 163//55 164//55 165//55
f 166//56 167//56 168//56
f 169//57 170//57 171//57
f 172//58 173//58 174//58
f 175//59 176//59 177//59
f 178//60 179//60 180//60
f 181//61 182//61 183//61
f 184//62 185//62 186//62
f 187//63 188//63 189//63
f 190//64 191//64 192//64
f 193//65 194//65 195//65
f 196//66 197//66 198//66
f 199//67 200//67 201//67
f 202//68 203//68 204//68
f 205//69 206//69 207//69
f 208//70 209//70 210//70
f 211//71 212//71 213//71
f 214//72 215//72 216//72
f 217//73 218//73 219//73
f 220//74 221//74 222//74
f 223//75 224//75 225//75
f 226//76 227//76 228//76
f 229//77 230//77 231//77
f 232//78 233//78 234//78
f 235//79 236//79 237//79
f 238//80 239//80 240//80
f 241//81 242//81 243//81
f 244//82 245//82 246//82
f 247//83 248//83 249//83
f 250//84 251//84 252//84
f 253//85 254//85 255//85
f 256//86 257//86 258//86
f 259//87 260//87 261//87
f 262//88 263//88 264//88
f 265//89 266//89 267//89
f 268//90 269//90 270//90
f 271//91 272//91 273//91
f 274//92 275//92 276//92
f 277//93 278//93 279//93
f 280//94 281//94 282//94
f 283//95 284//95 285//95
f 286//96 287//96 288//96
f 289//97 290//97 291//97
f 292//98 293//98 294//98
f 295//99 296//99 297//99
f 298//100 299//100 300//100
f 301//101 302//101 303//101
f 304//102 305//102 306//102
f 307//103 308//103 309//103
f 310//104 311//104 312//104
f 313//105 314//105 315//105
f 316//106 317//106 318//106
f 319//107 320//107 321//107
f 322//108 323//108 324//108
f 325//109 326//109 327//109
f 328//110 329//110 330//110
f 331//111 332//111 333//111
f 334//112 335//112 336//112
