o
v 27.280151 -30.676735 -24.795980
v 11.944647 -37.904816 -17.886179
v 31.484806 -23.780954 -33.419765
v 27.280151 -30.676735 -24.795980
v 11.990170 -37.821663 -17.833754
v 11.944647 -37.904816 -17.886179
v 27.280151 -30.676735 -24.795980
v 12.029189 -37.765923 -17.810862
v 11.990170 -37.821663 -17.833754
v 27.280151 -30.676735 -24.795980
v 12.172729 -37.550758 -17.716747
v 12.029189 -37.765923 -17.810862
v 12.029189 -37.765923 -17.810862
v 12.172729 -37.550758 -17.716747
v 11.990170 -37.821663 -17.833754
v 27.280151 -30.676735 -24.795980
v 12.189410 -37.523872 -17.704029
v 12.172729 -37.550758 -17.716747
v 12.172729 -37.550758 -17.716747
v 12.189410 -37.523872 -17.704029
v 11.990170 -37.821663 -17.833754
v 27.280151 -30.676735 -24.795980
v 31.484806 -23.780954 -33.419765
v 32.840752 -3.611357 -11.852591
v 11.944647 -37.904816 -17.886179
v 2.789247 -28.270311 -26.824389
v 31.484806 -23.780954 -33.419765
v 11.944647 -37.904816 -17.886179
v -23.059778 -11.976764 -38.295662
v 2.789247 -28.270311 -26.824389
v 2.789247 -28.270311 -26.824389
v -23.059778 -11.976764 -38.295662
v 31.484806 -23.780954 -33.419765
v 16.731997 -10.045934 -43.606285
v 31.484806 -23.780954 -33.419765
v -23.059778 -11.976764 -38.295662
v 27.280151 -30.676735 -24.795980
v 32.840752 -3.611357 -11.852591
v 22.741590 5.261132 14.636200
v 23.428789 38.749496 12.136424
v 22.741590 5.261132 14.636200
v 32.840752 -3.611357 -11.852591
v 23.428789 38.749496 12.136424
v 16.816231 25.278973 29.184938
v 22.741590 5.261132 14.636200
v 27.280151 -30.676735 -24.795980
v 22.741590 5.261132 14.636200
v 12.189410 -37.523872 -17.704029
v 16.816231 25.278973 29.184938
v 16.450750 25.091169 29.465832
v 22.741590 5.261132 14.636200
v 12.189410 -37.523872 -17.704029
v 22.741590 5.261132 14.636200
v 11.990170 -37.821663 -17.833754
v 16.731997 -10.045934 -43.606285
v -23.059778 -11.976764 -38.295662
v -14.301444 -5.728316 -41.772102
v 16.816231 25.278973 29.184938
v 3.490725 31.595907 31.525566
v 16.450750 25.091169 29.465832
v -23.059778 -11.976764 -38.295662
v -14.204188 7.536799 -45.241749
v -14.301444 -5.728316 -41.772102
v 16.731997 -10.045934 -43.606285
v -14.301444 -5.728316 -41.772102
v -14.204188 7.536799 -45.241749
v 3.490725 31.595907 31.525566
v -0.409404 29.627897 33.543053
v 16.450750 25.091169 29.465832
v -23.059778 -11.976764 -38.295662
v -25.337290 7.863313 -40.981331
v -14.204188 7.536799 -45.241749
v 11.944647 -37.904816 -17.886179
v -15.119356 -25.707418 -17.453175
v -23.059778 -11.976764 -38.295662
v -24.344524 36.951881 27.584610
v -23.214724 32.085812 29.836733
v -0.409404 29.627897 33.543053
v -24.459061 36.844490 27.545052
v -23.214724 32.085812 29.836733
v -24.344524 36.951881 27.584610
v 23.428789 38.749496 12.136424
v 11.288392 35.447289 22.970327
v 16.816231 25.278973 29.184938
v 16.816231 25.278973 29.184938
v 11.288392 35.447289 22.970327
v 3.490725 31.595907 31.525566
v -23.059778 -11.976764 -38.295662
v -36.382278 -4.191031 -23.445332
v -25.337290 7.863313 -40.981331
v -15.119356 -25.707418 -17.453175
v -36.382278 -4.191031 -23.445332
v -23.059778 -11.976764 -38.295662
v -24.459061 36.844490 27.545052
v -24.358782 33.205074 27.650709
v -23.214724 32.085812 29.836733
v 3.490725 31.595907 31.525566
v -6.530488 40.430538 27.712458
v -0.409404 29.627897 33.543053
v -24.344524 36.951881 27.584610
v -0.409404 29.627897 33.543053
v -6.530488 40.430538 27.712458
v 23.428789 38.749496 12.136424
v -6.530488 40.430538 27.712458
v 11.288392 35.447289 22.970327
v 11.288392 35.447289 22.970327
v -6.530488 40.430538 27.712458
v 3.490725 31.595907 31.525566
v -24.459061 36.844490 27.545052
v -24.734446 33.514454 26.851412
v -24.358782 33.205074 27.650709
v 16.731997 -10.045934 -43.606285
v -14.204188 7.536799 -45.241749
v -1.470008 22.173935 -41.815872
v -25.337290 7.863313 -40.981331
v -1.470008 22.173935 -41.815872
v -14.204188 7.536799 -45.241749
v 31.484806 -23.780954 -33.419765
v 11.338665 47.547829 -11.870532
v 32.840752 -3.611357 -11.852591
v 23.428789 38.749496 12.136424
v 32.840752 -3.611357 -11.852591
v 11.338665 47.547829 -11.870532
v 16.731997 -10.045934 -43.606285
v 11.338665 47.547829 -11.870532
v 31.484806 -23.780954 -33.419765
v -0.409404 29.627897 33.543053
v -6.811554 15.584518 32.616642
v 16.450750 25.091169 29.465832
v -23.214724 32.085812 29.836733
v -6.811554 15.584518 32.616642
v -0.409404 29.627897 33.543053
v 23.428789 38.749496 12.136424
v -1.368718 41.025490 21.774027
v -6.530488 40.430538 27.712458
v 23.428789 38.749496 12.136424
v 11.338665 47.547829 -11.870532
v -1.368718 41.025490 21.774027
v -6.530488 40.430538 27.712458
v -1.368718 41.025490 21.774027
v 11.338665 47.547829 -11.870532
v 16.731997 -10.045934 -43.606285
v -1.470008 22.173935 -41.815872
v 1.233824 24.502867 -37.662884
v 11.338665 47.547829 -11.870532
v 1.233824 24.502867 -37.662884
v -1.470008 22.173935 -41.815872
v 11.944647 -37.904816 -17.886179
v -5.566762 -21.736267 -4.181908
v -15.119356 -25.707418 -17.453175
v 11.990170 -37.821663 -17.833754
v -4.728795 3.422055 26.171474
v 11.944647 -37.904816 -17.886179
v 22.741590 5.261132 14.636200
v -4.728795 3.422055 26.171474
v 11.990170 -37.821663 -17.833754
v 16.450750 25.091169 29.465832
v -4.728795 3.422055 26.171474
v 22.741590 5.261132 14.636200
v -6.811554 15.584518 32.616642
v -4.728795 3.422055 26.171474
v 16.450750 25.091169 29.465832
v 11.944647 -37.904816 -17.886179
v -4.728795 3.422055 26.171474
v -5.566762 -21.736267 -4.181908
v 16.731997 -10.045934 -43.606285
v 5.330691 28.263088 -30.899771
v 11.338665 47.547829 -11.870532
v 16.731997 -10.045934 -43.606285
v 1.233824 24.502867 -37.662884
v 5.330691 28.263088 -30.899771
v 11.338665 47.547829 -11.870532
v 5.330691 28.263088 -30.899771
v 1.233824 24.502867 -37.662884
v -24.358782 33.205074 27.650709
v -26.131182 23.815817 20.753290
v -23.214724 32.085812 29.836733
v -24.734446 33.514454 26.851412
v -26.131182 23.815817 20.753290
v -24.358782 33.205074 27.650709
v -5.566762 -21.736267 -4.181908
v -24.260921 -13.907641 -5.062877
v -15.119356 -25.707418 -17.453175
v -4.728795 3.422055 26.171474
v -24.260921 -13.907641 -5.062877
v -5.566762 -21.736267 -4.181908
v -15.119356 -25.707418 -17.453175
v -24.260921 -13.907641 -5.062877
v -36.382278 -4.191031 -23.445332
v -23.214724 32.085812 29.836733
v -22.988541 7.968394 21.368296
v -6.811554 15.584518 32.616642
v -6.811554 15.584518 32.616642
v -22.988541 7.968394 21.368296
v -4.728795 3.422055 26.171474
v -4.728795 3.422055 26.171474
v -22.988541 7.968394 21.368296
v -24.260921 -13.907641 -5.062877
v -24.260921 -13.907641 -5.062877
v -23.781410 9.299618 20.927074
v -36.382278 -4.191031 -23.445332
v -22.988541 7.968394 21.368296
v -23.781410 9.299618 20.927074
v -24.260921 -13.907641 -5.062877
v -26.131182 23.815817 20.753290
v -23.781410 9.299618 20.927074
v -23.214724 32.085812 29.836733
v -23.214724 32.085812 29.836733
v -23.781410 9.299618 20.927074
v -22.988541 7.968394 21.368296
v -24.344524 36.951881 27.584610
v -6.530488 40.430538 27.712458
v -5.792915 43.968037 8.859527
v -6.530488 40.430538 27.712458
v 11.338665 47.547829 -11.870532
v -5.792915 43.968037 8.859527
v -36.382278 -4.191031 -23.445332
v -23.803013 41.804531 -5.040872
v -25.337290 7.863313 -40.981331
v -24.459061 36.844490 27.545052
v -24.344524 36.951881 27.584610
v -23.803013 41.804531 -5.040872
v -24.459061 36.844490 27.545052
v -23.803013 41.804531 -5.040872
v -24.024210 41.371029 -4.154336
v -24.344524 36.951881 27.584610
v -5.792915 43.968037 8.859527
v -22.271078 42.059486 -4.076262
v -24.344524 36.951881 27.584610
v -22.271078 42.059486 -4.076262
v -23.803013 41.804531 -5.040872
v 11.338665 47.547829 -11.870532
v -23.803013 41.804531 -5.040872
v -22.271078 42.059486 -4.076262
v -36.382278 -4.191031 -23.445332
v -26.493166 9.142610 14.235891
v -26.131182 23.815817 20.753290
v -23.781410 9.299618 20.927074
v -26.493166 9.142610 14.235891
v -36.382278 -4.191031 -23.445332
v -26.131182 23.815817 20.753290
v -26.493166 9.142610 14.235891
v -23.781410 9.299618 20.927074
v 11.338665 47.547829 -11.870532
v -7.286090 44.282837 3.336690
v -5.792915 43.968037 8.859527
v -5.792915 43.968037 8.859527
v -7.286090 44.282837 3.336690
v -22.271078 42.059486 -4.076262
v 11.338665 47.547829 -11.870532
v -22.271078 42.059486 -4.076262
v -7.286090 44.282837 3.336690
v -24.459061 36.844490 27.545052
v -31.595896 18.506363 -0.842668
v -24.734446 33.514454 26.851412
v -24.734446 33.514454 26.851412
v -31.595896 18.506363 -0.842668
v -26.131182 23.815817 20.753290
v -36.382278 -4.191031 -23.445332
v -26.131182 23.815817 20.753290
v -31.595896 18.506363 -0.842668
v -24.459061 36.844490 27.545052
v -24.024210 41.371029 -4.154336
v -31.595896 18.506363 -0.842668
v -36.382278 -4.191031 -23.445332
v -31.595896 18.506363 -0.842668
v -23.803013 41.804531 -5.040872
v -23.803013 41.804531 -5.040872
v -31.595896 18.506363 -0.842668
v -24.024210 41.371029 -4.154336
v -25.337290 7.863313 -40.981331
v -14.145391 39.060276 -17.880383
v -1.470008 22.173935 -41.815872
v -23.803013 41.804531 -5.040872
v -14.145391 39.060276 -17.880383
v -25.337290 7.863313 -40.981331
v 11.338665 47.547829 -11.870532
v -1.470008 22.173935 -41.815872
v -14.145391 39.060276 -17.880383
v 11.338665 47.547829 -11.870532
v -14.145391 39.060276 -17.880383
v -23.803013 41.804531 -5.040872
vn 0.114169 -0.802313 -0.585883
vn 0.545487 -0.639895 0.541275
vn 0.546293 -0.615650 0.567926
vn 0.546332 -0.613760 0.569930
vn 0.501980 -0.605154 0.617898
vn 0.546443 -0.610319 0.573507
vn 0.487062 -0.601653 0.633070
vn 0.930340 -0.295184 0.217565
vn -0.052126 -0.705367 -0.706923
vn -0.213357 -0.765688 -0.606795
vn -0.072651 -0.648646 -0.757615
vn -0.070721 -0.642099 -0.763353
vn 0.816382 -0.376959 0.437519
vn 0.935172 0.007243 0.354119
vn 0.930056 0.008334 0.367323
vn 0.546883 -0.586484 0.597457
vn 0.672844 -0.294167 0.678783
vn 0.482998 -0.600687 0.637093
vn -0.105606 -0.366324 -0.924475
vn 0.367020 0.478691 0.797591
vn -0.200472 -0.246536 -0.948173
vn -0.091917 -0.251347 -0.963523
vn 0.303107 0.319636 0.897752
vn -0.356709 -0.165411 -0.919455
vn -0.381426 -0.832022 -0.402808
vn -0.105312 0.397441 0.911565
vn -0.521113 0.255854 0.814236
vn 0.416009 0.628074 0.657616
vn 0.413452 0.627818 0.659471
vn -0.776301 -0.171235 -0.606659
vn -0.662778 -0.716015 -0.219198
vn -0.888276 -0.011145 0.459174
vn 0.157867 0.536794 0.828813
vn -0.090918 0.432618 0.896981
vn 0.359914 0.700095 0.616708
vn 0.360126 0.682842 0.635638
vn -0.906844 -0.012757 0.421272
vn 0.122484 0.123914 -0.984705
vn -0.305391 0.460735 -0.833343
vn 0.849947 0.357095 -0.387392
vn 0.877470 0.368691 -0.306780
vn 0.737812 0.377452 -0.559610
vn 0.193453 -0.152131 0.969243
vn -0.159608 0.007643 0.987151
vn 0.187135 0.947948 0.257632
vn 0.185913 0.949111 0.254213
vn 0.181136 0.950447 0.252668
vn 0.647804 0.401926 -0.647151
vn 0.598544 0.466464 -0.651272
vn -0.351319 -0.796962 0.491352
vn 0.325019 -0.625265 0.709512
vn 0.339016 -0.618722 0.708697
vn 0.366819 -0.479710 0.797071
vn 0.284999 -0.410263 0.866291
vn -0.201993 -0.751300 0.628289
vn 0.669344 0.405657 -0.622431
vn 0.664039 0.405902 -0.627930
vn 0.656480 0.416249 -0.629103
vn -0.904169 -0.128575 0.407366
vn -0.915303 -0.111526 0.387018
vn -0.355643 -0.793715 0.493493
vn -0.330991 -0.722010 0.607574
vn -0.722450 -0.681607 0.116098
vn -0.445143 -0.300382 0.843575
vn -0.333451 -0.485391 0.808211
vn -0.338786 -0.716734 0.609521
vn -0.851072 -0.383741 0.358357
vn -0.849047 -0.386199 0.360514
vn -0.898325 -0.140430 0.416283
vn -0.738359 -0.229588 0.634126
vn -0.189939 0.966276 0.173878
vn 0.018658 0.982544 0.185091
vn -0.880467 0.362884 -0.305111
vn -0.698043 0.709860 0.093997
vn -0.824540 0.561595 0.068882
vn -0.222465 0.964683 0.141056
vn -0.246864 0.959094 0.138556
vn -0.161970 0.986789 -0.003586
vn -0.952379 -0.103844 0.286689
vn -0.857661 -0.370779 0.356287
vn -0.915973 -0.143786 0.374593
vn -0.104519 0.990906 0.084740
vn -0.198530 0.973993 0.109193
vn -0.156545 0.987463 0.020282
vn -0.974249 0.034143 0.222876
vn -0.968281 -0.017283 0.249266
vn -0.964959 -0.052529 0.257091
vn -0.947389 0.318434 0.032475
vn -0.948895 0.299419 -0.099734
vn -0.949290 0.301400 -0.089475
vn -0.402994 0.633601 -0.660413
vn -0.563151 0.612658 -0.554537
vn -0.115826 0.781691 -0.612816
vn -0.217961 0.907925 -0.358001
f 1//1 2//1 3//1
f 4//2 5//2 6//2
f 7//3 8//3 9//3
f 10//4 11//4 12//4
f 13//5 14//5 15//5
f 16//6 17//6 18//6
f 19//7 20//7 21//7
f 22//8 23//8 24//8
f 25//9 26//9 27//9
f 28//10 29//10 30//10
f 31//11 32//11 33//11
f 34//12 35//12 36//12
f 37//13 38//13 39//13
f 40//14 41//14 42//14
f 43//15 44//15 45//15
f 46//16 47//16 48//16
f 49//17 50//17 51//17
f 52//18 53//18 54//18
f 55//19 56//19 57//19
f 58//20 59//20 60//20
f 61//21 62//21 63//21
f 64//22 65//22 66//22
f 67//23 68//23 69//23
f 70//24 71//24 72//24
f 73//25 74//25 75//25
f 76//26 77//26 78//26
f 79//27 80//27 81//27
f 82//28 83//28 84//28
f 85//29 86//29 87//29
f 88//30 89//30 90//30
f 91//31 92//31 93//31
f 94//32 95//32 96//32
f 97//33 98//33 99//33
f 100//34 101//34 102//34
f 103//35 104//35 105//35
f 106//36 107//36 108//36
f 109//37 110//37 111//37
f 112//38 113//38 114//38
f 115//39 116//39 117//39
f 118//40 119//40 120//40
f 121//41 122//41 123//41
f 124//42 125//42 126//42
f 127//43 128//43 129//43
f 130//44 131//44 132//44
f 133//45 134//45 135//45
f 136//46 137//46 138//46
f 139//47 140//47 141//47
f 142//48 143//48 144//48
f 145//49 146//49 147//49
f 148//50 149//50 150//50
f 151//51 152//51 153//51
f 154//52 155//52 156//52
f 157//53 158//53 159//53
f 160//54 161//54 162//54
f 163//55 164//55 165//55
f 166//56 167//56 168//56
f 169//57 170//57 171//57
f 172//58 173//58 174//58
f 175//59 176//59 177//59
f 178//60 179//60 180//60
f 181//61 182//61 183//61
f 184//62 185//62 186//62
f 187//63 188//63 189//63
f 190//64 191//64 192//64
f 193//65 194//65 195//65
f 196//66 197//66 198//66
f 199//67 200//67 201//67
f 202//68 203//68 204//68
f 205//69 206//69 207//69
f 208//70 209//70 210//70
f 211//71 212//71 213//71
f 214//72 215//72 216//72
f 217//73 218//73 219//73
f 220//74 221//74 222//74
f 223//75 224//75 225//75
f 226//76 227//76 228//76
f 229//77 230//77 231//77
f 232//78 233//78 234//78
f 235//79 236//79 237//79
f 238//80 239//80 240//80
f 241//81 242//81 243//81
f 244//82 245//82 246//82
f 247//83 248//83 249//83
f 250//84 251//84 252//84
f 253//85 254//85 255//85
f 256//86 257//86 258//86
f 259//87 260//87 261//87
f 262//88 263//88 264//88
f 265//89 266//89 267//89
f 268//90 269//90 270//90
f 271//91 272//91 273//91
f 274//92 275//92 276//92
f 277//93 278//93 279//93
f 280//94 281//94 282//94
