o
v 16.231287 1.368329 -35.048805
v 6.607773 -23.176918 -22.599743
v -9.670183 0.523254 37.469055
v 9.443286 -41.177670 -16.308123
v 6.607773 -23.176918 -22.599743
v 9.548914 -41.192509 -16.366232
v 6.607773 -23.176918 -22.599743
v -1.600829 -18.825890 14.316846
v -9.670183 0.523254 37.469055
v 9.443286 -41.177670 -16.308123
v -1.600829 -18.825890 14.316846
v 6.607773 -23.176918 -22.599743
v -9.670183 0.523254 37.469055
v 10.248650 0.480075 42.674297
v 9.601425 4.548706 44.334854
v 16.231287 1.368329 -35.048805
v 30.305765 34.847420 -14.363464
v 27.863092 8.328392 -31.608004
v 35.287598 38.850048 2.233507
v 35.358616 38.820217 2.190503
v 30.305765 34.847420 -14.363464
v 16.231287 1.368329 -35.048805
v 27.863092 8.328392 -31.608004
v 27.980165 -15.006640 -33.652107
v 16.231287 1.368329 -35.048805
v 28.641581 -20.322096 -32.664726
v 6.607773 -23.176918 -22.599743
v 16.231287 1.368329 -35.048805
v 27.980165 -15.006640 -33.652107
v 28.641581 -20.322096 -32.664726
v 6.607773 -23.176918 -22.599743
v 28.641581 -20.322096 -32.664726
v 9.548914 -41.192509 -16.366232
v 9.548914 -41.192509 -16.366232
v 28.641581 -20.322096 -32.664726
v 10.843486 -41.233212 -16.063534
v 16.231287 1.368329 -35.048805
v -9.670183 0.523254 37.469055
v 10.565172 22.617657 3.016106
v 16.231287 1.368329 -35.048805
v 10.565172 22.617657 3.016106
v 30.305765 34.847420 -14.363464
v -9.670183 0.523254 37.469055
v 8.753865 21.520744 24.520430
v 10.565172 22.617657 3.016106
v 35.287598 38.850048 2.233507
v 10.565172 22.617657 3.016106
v 8.753865 21.520744 24.520430
v 35.287598 38.850048 2.233507
v 30.305765 34.847420 -14.363464
v 10.565172 22.617657 3.016106
v -9.670183 0.523254 37.469055
v 9.601425 4.548706 44.334854
v 18.933630 13.396182 39.819511
v -9.670183 0.523254 37.469055
v 18.933630 13.396182 39.819511
v 8.753865 21.520744 24.520430
v 28.641581 -20.322096 -32.664726
v 19.969173 -42.798744 -9.580951
v 10.843486 -41.233212 -16.063534
v 9.601425 4.548706 44.334854
v 20.254093 7.073131 42.825191
v 18.933630 13.396182 39.819511
v 35.287598 38.850048 2.233507
v 8.753865 21.520744 24.520430
v 22.864046 14.633680 38.921005
v 18.933630 13.396182 39.819511
v 22.864046 14.633680 38.921005
v 8.753865 21.520744 24.520430
v 20.254093 7.073131 42.825191
v 22.864046 14.633680 38.921005
v 18.933630 13.396182 39.819511
v -9.670183 0.523254 37.469055
v 16.430470 -6.244833 40.814621
v 10.248650 0.480075 42.674297
v 10.248650 0.480075 42.674297
v 16.430470 -6.244833 40.814621
v 9.601425 4.548706 44.334854
v 20.254093 7.073131 42.825191
v 24.392883 11.260694 39.584454
v 22.864046 14.633680 38.921005
v 9.443286 -41.177670 -16.308123
v 9.548914 -41.192509 -16.366232
v 29.174297 -47.402290 0.684591
v 9.548914 -41.192509 -16.366232
v 10.843486 -41.233212 -16.063534
v 29.174297 -47.402290 0.684591
v 19.969173 -42.798744 -9.580951
v 29.174297 -47.402290 0.684591
v 10.843486 -41.233212 -16.063534
v 28.641581 -20.322096 -32.664726
v 29.174297 -47.402290 0.684591
v 19.969173 -42.798744 -9.580951
v 28.641581 -20.322096 -32.664726
v 40.127201 -20.493456 -22.992817
v 29.174297 -47.402290 0.684591
v 35.287598 38.850048 2.233507
v 22.864046 14.633680 38.921005
v 27.849443 13.955812 36.795322
v 24.392883 11.260694 39.584454
v 27.849443 13.955812 36.795322
v 22.864046 14.633680 38.921005
v 27.863092 8.328392 -31.608004
v 41.180065 -15.949040 -23.256844
v 27.980165 -15.006640 -33.652107
v 27.980165 -15.006640 -33.652107
v 41.180065 -15.949040 -23.256844
v 28.641581 -20.322096 -32.664726
v 28.641581 -20.322096 -32.664726
v 41.180065 -15.949040 -23.256844
v 40.127201 -20.493456 -22.992817
v 40.127201 -20.493456 -22.992817
v 40.682262 -20.534691 -22.374086
v 29.174297 -47.402290 0.684591
v 41.180065 -15.949040 -23.256844
v 40.682262 -20.534691 -22.374086
v 40.127201 -20.493456 -22.992817
v 9.443286 -41.177670 -16.308123
v 22.208927 -43.462250 12.072145
v -1.600829 -18.825890 14.316846
v 9.443286 -41.177670 -16.308123
v 29.174297 -47.402290 0.684591
v 22.208927 -43.462250 12.072145
v -1.600829 -18.825890 14.316846
v 22.208927 -43.462250 12.072145
v -9.670183 0.523254 37.469055
v -9.670183 0.523254 37.469055
v 22.208927 -43.462250 12.072145
v 16.430470 -6.244833 40.814621
v 35.358616 38.820217 2.190503
v 40.119663 24.924879 -0.758063
v 30.305765 34.847420 -14.363464
v 22.594873 5.377176 42.365154
v 28.802351 6.323607 39.462330
v 20.254093 7.073131 42.825191
v 20.254093 7.073131 42.825191
v 28.802351 6.323607 39.462330
v 24.392883 11.260694 39.584454
v 24.392883 11.260694 39.584454
v 28.802351 6.323607 39.462330
v 27.849443 13.955812 36.795322
v 16.430470 -6.244833 40.814621
v 29.335760 -2.485018 41.906330
v 9.601425 4.548706 44.334854
v 9.601425 4.548706 44.334854
v 29.335760 -2.485018 41.906330
v 20.254093 7.073131 42.825191
v 22.594873 5.377176 42.365154
v 20.254093 7.073131 42.825191
v 29.335760 -2.485018 41.906330
v 22.594873 5.377176 42.365154
v 29.335760 -2.485018 41.906330
v 28.802351 6.323607 39.462330
v 27.863092 8.328392 -31.608004
v 45.570679 -16.260509 -18.291384
v 41.180065 -15.949040 -23.256844
v 41.180065 -15.949040 -23.256844
v 45.570679 -16.260509 -18.291384
v 40.682262 -20.534691 -22.374086
v 40.682262 -20.534691 -22.374086
v 45.570679 -16.260509 -18.291384
v 43.916130 -19.617445 -18.893394
v 35.358616 38.820217 2.190503
v 43.737080 21.196466 8.118375
v 40.119663 24.924879 -0.758063
v 40.682262 -20.534691 -22.374086
v 38.071594 -28.253244 -14.898313
v 29.174297 -47.402290 0.684591
v 29.174297 -47.402290 0.684591
v 38.071594 -28.253244 -14.898313
v 43.916130 -19.617445 -18.893394
v 40.682262 -20.534691 -22.374086
v 43.916130 -19.617445 -18.893394
v 38.071594 -28.253244 -14.898313
v 35.358616 38.820217 2.190503
v 47.077400 12.141912 23.603308
v 43.737080 21.196466 8.118375
v 35.358616 38.820217 2.190503
v 46.080841 11.224775 26.044119
v 47.077400 12.141912 23.603308
v 47.077400 12.141912 23.603308
v 46.080841 11.224775 26.044119
v 47.060703 11.762660 24.047098
v 35.287598 38.850048 2.233507
v 46.065632 11.222201 26.065868
v 35.358616 38.820217 2.190503
v 35.358616 38.820217 2.190503
v 46.065632 11.222201 26.065868
v 46.080841 11.224775 26.044119
v 35.287598 38.850048 2.233507
v 27.849443 13.955812 36.795322
v 46.065632 11.222201 26.065868
v 28.802351 6.323607 39.462330
v 46.065632 11.222201 26.065868
v 27.849443 13.955812 36.795322
v 29.335760 -2.485018 41.906330
v 46.065632 11.222201 26.065868
v 28.802351 6.323607 39.462330
v 30.305765 34.847420 -14.363464
v 47.577717 -7.051103 -13.066715
v 27.863092 8.328392 -31.608004
v 27.863092 8.328392 -31.608004
v 47.577717 -7.051103 -13.066715
v 45.570679 -16.260509 -18.291384
v 40.119663 24.924879 -0.758063
v 47.577717 -7.051103 -13.066715
v 30.305765 34.847420 -14.363464
v 43.737080 21.196466 8.118375
v 47.577717 -7.051103 -13.066715
v 40.119663 24.924879 -0.758063
v 47.077400 12.141912 23.603308
v 47.060703 11.762660 24.047098
v 47.295006 11.010777 23.573465
v 47.077400 12.141912 23.603308
v 47.295006 11.010777 23.573465
v 47.279671 10.988160 22.759865
v 47.577717 -7.051103 -13.066715
v 48.062424 -13.265099 -11.755305
v 45.570679 -16.260509 -18.291384
v 46.065632 11.222201 26.065868
v 47.061272 9.100488 25.219612
v 46.080841 11.224775 26.044119
v 29.335760 -2.485018 41.906330
v 47.061272 9.100488 25.219612
v 46.065632 11.222201 26.065868
v 46.080841 11.224775 26.044119
v 47.061272 9.100488 25.219612
v 47.060703 11.762660 24.047098
v 47.060703 11.762660 24.047098
v 47.061272 9.100488 25.219612
v 47.295006 11.010777 23.573465
v 29.174297 -47.402290 0.684591
v 30.540670 -39.040092 11.551444
v 22.208927 -43.462250 12.072145
v 47.077400 12.141912 23.603308
v 46.239086 13.961001 10.112320
v 43.737080 21.196466 8.118375
v 47.077400 12.141912 23.603308
v 47.279671 10.988160 22.759865
v 46.239086 13.961001 10.112320
v 43.737080 21.196466 8.118375
v 46.239086 13.961001 10.112320
v 47.577717 -7.051103 -13.066715
v 22.208927 -43.462250 12.072145
v 25.399012 -33.962551 20.532307
v 16.430470 -6.244833 40.814621
v 16.430470 -6.244833 40.814621
v 25.399012 -33.962551 20.532307
v 29.335760 -2.485018 41.906330
v 30.540670 -39.040092 11.551444
v 25.399012 -33.962551 20.532307
v 22.208927 -43.462250 12.072145
v 47.577717 -7.051103 -13.066715
v 49.350090 -12.283438 -6.164730
v 48.062424 -13.265099 -11.755305
v 46.239086 13.961001 10.112320
v 49.350090 -12.283438 -6.164730
v 47.577717 -7.051103 -13.066715
v 29.174297 -47.402290 0.684591
v 43.916130 -19.617445 -18.893394
v 43.659683 -27.712412 -5.039155
v 47.541115 -22.400497 -4.457418
v 43.659683 -27.712412 -5.039155
v 43.916130 -19.617445 -18.893394
v 47.061272 9.100488 25.219612
v 50.223221 -20.438314 0.301625
v 47.295006 11.010777 23.573465
v 45.570679 -16.260509 -18.291384
v 50.223221 -20.438314 0.301625
v 43.916130 -19.617445 -18.893394
v 47.541115 -22.400497 -4.457418
v 43.916130 -19.617445 -18.893394
v 50.223221 -20.438314 0.301625
v 48.062424 -13.265099 -11.755305
v 50.223221 -20.438314 0.301625
v 45.570679 -16.260509 -18.291384
v 49.350090 -12.283438 -6.164730
v 50.223221 -20.438314 0.301625
v 48.062424 -13.265099 -11.755305
v 29.335760 -2.485018 41.906330
v 43.118439 3.479083 28.869411
v 47.061272 9.100488 25.219612
v 25.399012 -33.962551 20.532307
v 34.238663 -9.835941 35.144634
v 29.335760 -2.485018 41.906330
v 29.335760 -2.485018 41.906330
v 34.238663 -9.835941 35.144634
v 43.118439 3.479083 28.869411
v 29.174297 -47.402290 0.684591
v 43.659683 -27.712412 -5.039155
v 45.363972 -27.608761 0.761258
v 47.541115 -22.400497 -4.457418
v 45.363972 -27.608761 0.761258
v 43.659683 -27.712412 -5.039155
v 47.541115 -22.400497 -4.457418
v 50.223221 -20.438314 0.301625
v 45.363972 -27.608761 0.761258
v 47.061272 9.100488 25.219612
v 47.456154 2.340040 21.660685
v 50.223221 -20.438314 0.301625
v 47.295006 11.010777 23.573465
v 47.767300 5.902128 13.567914
v 47.279671 10.988160 22.759865
v 47.279671 10.988160 22.759865
v 47.767300 5.902128 13.567914
v 46.239086 13.961001 10.112320
v 46.239086 13.961001 10.112320
v 47.767300 5.902128 13.567914
v 49.350090 -12.283438 -6.164730
v 50.223221 -20.438314 0.301625
v 47.767300 5.902128 13.567914
v 47.295006 11.010777 23.573465
v 49.350090 -12.283438 -6.164730
v 47.767300 5.902128 13.567914
v 50.223221 -20.438314 0.301625
v 29.174297 -47.402290 0.684591
v 42.890850 -29.959923 7.061950
v 30.540670 -39.040092 11.551444
v 29.174297 -47.402290 0.684591
v 45.363972 -27.608761 0.761258
v 42.890850 -29.959923 7.061950
v 50.223221 -20.438314 0.301625
v 42.890850 -29.959923 7.061950
v 45.363972 -27.608761 0.761258
v 43.118439 3.479083 28.869411
v 43.342052 -1.729379 26.474962
v 47.061272 9.100488 25.219612
v 47.061272 9.100488 25.219612
v 43.342052 -1.729379 26.474962
v 47.456154 2.340040 21.660685
v 34.238663 -9.835941 35.144634
v 43.342052 -1.729379 26.474962
v 43.118439 3.479083 28.869411
v 47.456154 2.340040 21.660685
v 48.993244 -17.170559 6.048816
v 50.223221 -20.438314 0.301625
v 47.456154 2.340040 21.660685
v 47.229580 -18.813683 9.748521
v 48.993244 -17.170559 6.048816
v 50.223221 -20.438314 0.301625
v 47.229580 -18.813683 9.748521
v 42.890850 -29.959923 7.061950
v 48.993244 -17.170559 6.048816
v 47.229580 -18.813683 9.748521
v 50.223221 -20.438314 0.301625
v 47.229580 -18.813683 9.748521
v 43.404678 -25.818508 10.516405
v 42.890850 -29.959923 7.061950
v 30.540670 -39.040092 11.551444
v 36.131481 -23.843109 23.273376
v 25.399012 -33.962551 20.532307
v 25.399012 -33.962551 20.532307
v 36.131481 -23.843109 23.273376
v 34.238663 -9.835941 35.144634
v 42.890850 -29.959923 7.061950
v 36.131481 -23.843109 23.273376
v 30.540670 -39.040092 11.551444
v 43.404678 -25.818508 10.516405
v 36.131481 -23.843109 23.273376
v 42.890850 -29.959923 7.061950
v 36.131481 -23.843109 23.273376
v 38.883045 -18.076706 24.699501
v 34.238663 -9.835941 35.144634
v 43.342052 -1.729379 26.474962
v 42.939903 -17.720987 19.332067
v 47.456154 2.340040 21.660685
v 47.456154 2.340040 21.660685
v 42.939903 -17.720987 19.332067
v 47.229580 -18.813683 9.748521
v 34.238663 -9.835941 35.144634
v 42.939903 -17.720987 19.332067
v 43.342052 -1.729379 26.474962
v 38.883045 -18.076706 24.699501
v 42.939903 -17.720987 19.332067
v 34.238663 -9.835941 35.144634
v 47.229580 -18.813683 9.748521
v 42.939903 -17.720987 19.332067
v 43.404678 -25.818508 10.516405
v 43.404678 -25.818508 10.516405
v 42.939903 -17.720987 19.332067
v 36.131481 -23.843109 23.273376
v 36.131481 -23.843109 23.273376
v 42.939903 -17.720987 19.332067
v 38.883045 -18.076706 24.699501
vn -0.924173 0.196084 -0.327805
vn -0.488368 -0.355479 -0.796952
vn -0.966036 -0.169798 -0.194791
vn -0.958110 -0.216468 -0.187528
vn -0.232644 -0.399003 0.886946
vn -0.082147 0.548612 -0.832032
vn 0.216187 0.932368 -0.289747
vn 0.234948 0.085991 -0.968197
vn -0.362866 -0.304418 -0.880714
vn -0.163649 -0.199817 -0.966070
vn -0.349507 -0.356815 -0.866330
vn 0.144689 -0.687841 -0.711294
vn -0.891519 0.325888 -0.314629
vn -0.715287 0.559452 -0.418781
vn -0.760706 0.648356 -0.031002
vn -0.548929 0.835861 -0.003600
vn -0.549294 0.834834 -0.036455
vn -0.365088 0.698943 0.614971
vn -0.365230 0.699360 0.614412
vn 0.302664 -0.737197 -0.604099
vn 0.024952 0.433429 0.900842
vn -0.116749 0.846594 0.519277
vn -0.139860 0.832942 0.535394
vn 0.066344 0.439638 0.895721
vn -0.226974 -0.447804 0.864844
vn -0.156751 -0.394477 0.905437
vn 0.350714 0.331257 0.875939
vn -0.202805 -0.971778 -0.120488
vn 0.066901 -0.910292 -0.408524
vn 0.299963 -0.740707 -0.601145
vn 0.304281 -0.737103 -0.603400
vn 0.463817 -0.684106 -0.562914
vn 0.352162 0.721861 0.595733
vn 0.407260 0.350484 0.843386
vn 0.620263 0.071537 -0.781125
vn 0.614128 -0.069611 -0.786130
vn 0.630755 -0.189849 -0.752400
vn 0.528576 -0.671784 -0.518954
vn 0.721616 -0.205593 -0.661061
vn -0.684134 -0.684199 0.252651
vn -0.371224 -0.923914 0.092605
vn -0.663633 -0.671419 0.329830
vn -0.255185 -0.615500 0.745682
vn 0.860363 0.369326 -0.351247
vn 0.372786 0.274049 0.886526
vn 0.371463 0.310118 0.875124
vn 0.410811 0.346044 0.843497
vn 0.008381 -0.305261 0.952232
vn 0.133008 0.031145 0.990626
vn 0.364158 0.260032 0.894300
vn 0.374055 0.268910 0.887564
vn 0.741905 0.185296 -0.644393
vn 0.726796 -0.205089 -0.655520
vn 0.741060 -0.253770 -0.621635
vn 0.907661 0.357615 -0.219688
vn 0.583007 -0.658339 -0.476123
vn 0.662347 -0.633382 -0.400154
vn 0.642737 -0.633962 -0.430095
vn 0.891758 0.447200 0.069128
vn 0.589268 0.647112 0.483745
vn 0.692031 0.535713 0.483844
vn 0.573986 0.651661 0.495861
vn 0.585922 0.648135 0.486433
vn 0.445922 0.678018 0.584332
vn 0.514683 0.339391 0.787347
vn 0.546801 0.254429 0.797668
vn 0.767035 0.298621 -0.567876
vn 0.748629 0.196139 -0.633312
vn 0.862463 0.344047 -0.371198
vn 0.919103 0.308649 -0.244919
vn 0.964905 0.180597 0.190637
vn 0.981600 0.189465 -0.023769
vn 0.934718 -0.002090 -0.355384
vn 0.802548 0.145877 0.578478
vn 0.676833 0.024158 0.735740
vn 0.854286 0.209671 0.475639
vn 0.952978 0.122317 0.277256
vn 0.426186 -0.742047 0.517428
vn 0.946270 0.323017 -0.015245
vn 0.979826 0.196881 -0.034338
vn 0.942548 0.272785 -0.192850
vn -0.184006 -0.618529 0.763914
vn 0.096108 -0.567357 0.817845
vn 0.399713 -0.680827 0.613762
vn 0.973045 0.027579 -0.228962
vn 0.976552 0.184529 -0.110881
vn 0.703697 -0.619055 -0.348685
vn 0.785283 -0.540795 -0.301448
vn 0.991053 -0.006377 0.133318
vn 0.875087 -0.376853 -0.303652
vn 0.848299 -0.438067 -0.297467
vn 0.943720 -0.181008 -0.276820
vn 0.974869 -0.064666 -0.213185
vn 0.690459 -0.014721 0.723222
vn 0.239876 -0.565712 0.788942
vn 0.713266 -0.153357 0.683910
vn 0.756967 -0.618325 -0.211364
vn 0.798344 -0.558756 -0.224586
vn 0.800574 -0.556738 -0.221641
vn 0.988204 -0.022056 0.151543
vn 0.990521 0.135518 -0.022437
vn 0.984745 0.169034 -0.041289
vn 0.985149 0.158187 -0.066764
vn 0.995656 0.093104 -0.000539
vn 0.995117 0.098129 -0.010615
vn 0.631632 -0.650769 0.421356
vn 0.772170 -0.631840 0.067312
vn 0.825526 -0.551870 0.118097
vn 0.810831 -0.215375 0.544211
vn 0.826269 -0.223844 0.516888
vn 0.772459 -0.237588 0.588947
vn 0.942735 -0.159936 0.292695
vn 0.915778 -0.204499 0.345732
vn 0.846267 -0.411092 0.338873
vn 0.913645 -0.236995 0.330283
vn 0.831330 -0.413191 0.371704
vn 0.448274 -0.643494 0.620457
vn 0.355078 -0.576027 0.736283
vn 0.624958 -0.607798 0.489908
vn 0.719418 -0.495371 0.486873
vn 0.623433 -0.454780 0.636008
vn 0.829554 -0.245002 0.501810
vn 0.874075 -0.245439 0.419228
vn 0.779488 -0.271710 0.564422
vn 0.774334 -0.281748 0.566591
vn 0.817996 -0.401502 0.411920
vn 0.722682 -0.489630 0.487845
vn 0.718957 -0.469760 0.512276
f 1//1 2//1 3//1
f 4//2 5//2 6//2
f 7//3 8//3 9//3
f 10//4 11//4 12//4
f 13//5 14//5 15//5
f 16//6 17//6 18//6
f 19//7 20//7 21//7
f 22//8 23//8 24//8
f 25//9 26//9 27//9
f 28//10 29//10 30//10
f 31//11 32//11 33//11
f 34//12 35//12 36//12
f 37//13 38//13 39//13
f 40//14 41//14 42//14
f 43//15 44//15 45//15
f 46//16 47//16 48//16
f 49//17 50//17 51//17
f 52//18 53//18 54//18
f 55//19 56//19 57//19
f 58//20 59//20 60//20
f 61//21 62//21 63//21
f 64//22 65//22 66//22
f 67//23 68//23 69//23
f 70//24 71//24 72//24
f 73//25 74//25 75//25
f 76//26 77//26 78//26
f 79//27 80//27 81//27
f 82//28 83//28 84//28
f 85//29 86//29 87//29
f 88//30 89//30 90//30
f 91//31 92//31 93//31
f 94//32 95//32 96//32
f 97//33 98//33 99//33
f 100//34 101//34 102//34
f 103//35 104//35 105//35
f 106//36 107//36 108//36
f 109//37 110//37 111//37
f 112//38 113//38 114//38
f 115//39 116//39 117//39
f 118//40 119//40 120//40
f 121//41 122//41 123//41
f 124//42 125//42 126//42
f 127//43 128//43 129//43
f 130//44 131//44 132//44
f 133//45 134//45 135//45
f 136//46 137//46 138//46
f 139//47 140//47 141//47
f 142//48 143//48 144//48
f 145//49 146//49 147//49
f 148//50 149//50 150//50
f 151//51 152//51 153//51
f 154//52 155//52 156//52
f 157//53 158//53 159//53
f 160//54 161//54 162//54
f 163//55 164//55 165//55
f 166//56 167//56 168//56
f 169//57 170//57 171//57
f 172//58 173//58 174//58
f 175//59 176//59 177//59
f 178//60 179//60 180//60
f 181//61 182//61 183//61
f 184//62 185//62 186//62
f 187//63 188//63 189//63
f 190//64 191//64 192//64
f 193//65 194//65 195//65
f 196//66 197//66 198//66
f 199//67 200//67 201//67
f 202//68 203//68 204//68
f 205//69 206//69 207//69
f 208//70 209//70 210//70
f 211//71 212//71 213//71
f 214//72 215//72 216//72
f 217//73 218//73 219//73
f 220//74 221//74 222//74
f 223//75 224//75 225//75
f 226//76 227//76 228//76
f 229//77 230//77 231//77
f 232//78 233//78 234//78
f 235//79 236//79 237//79
f 238//80 239//80 240//80
f 241//81 242//81 243//81
f 244//82 245//82 246//82
f 247//83 248//83 249//83
f 250//84 251//84 252//84
f 253//85 254//85 255//85
f 256//86 257//86 258//86
f 259//87 260//87 261//87
f 262//88 263//88 264//88
f 265//89 266//89 267//89
f 268//90 269//90 270//90
f 271//91 272//91 273//91
f 274//92 275//92 276//92
f 277//93 278//93 279//93
f 280//94 281//94 282//94
f 283//95 284//95 285//95
f 286//96 287//96 288//96
f 289//97 290//97 291//97
f 292//98 293//98 294//98
f 295//99 296//99 297//99
f 298//100 299//100 300//100
f 301//101 302//101 303//101
f 304//102 305//102 306//102
f 307//103 308//103 309//103
f 310//104 311//104 312//104
f 313//105 314//105 315//105
f 316//106 317//106 318//106
f 319//107 320//107 321//107
f 322//108 323//108 324//108
f 325//109 326//109 327//109
f 328//110 329//110 330//110
f 331//111 332//111 333//111
f 334//112 335//112 336//112
f 337//113 338//113 339//113
f 340//114 341//114 342//114
f 343//115 344//115 345//115
f 346//116 347//116 348//116
f 349//117 350//117 351//117
f 352//118 353//118 354//118
f 355//119 356//119 357//119
f 358//120 359//120 360//120
f 361//121 362//121 363//121
f 364//122 365//122 366//122
f 367//123 368//123 369//123
f 370//124 371//124 372//124
f 373//125 374//125 375//125
f 376//126 377//126 378//126
f 379//127 380//127 381//127
f 382//128 383//128 384//128
