o
v 10.349728 -10.695976 -48.267410
v 26.375570 1.079021 -42.461781
v 31.484806 -23.780954 -33.419765
v 10.349728 -10.695976 -48.267410
v 31.484806 -23.780954 -33.419765
v 15.607600 -29.589516 -35.798859
v 10.349728 -10.695976 -48.267410
v 15.607600 -29.589516 -35.798859
v 15.604857 -29.589109 -35.799423
v 30.066887 -26.422529 -29.718603
v 27.280151 -30.676735 -24.795980
v 31.484806 -23.780954 -33.419765
v 26.375570 1.079021 -42.461781
v 33.286682 -0.364019 -32.712364
v 31.484806 -23.780954 -33.419765
v 15.607600 -29.589516 -35.798859
v 6.057248 -39.321972 -26.896883
v 15.604857 -29.589109 -35.799423
v 30.066887 -26.422529 -29.718603
v 18.567358 -49.352333 7.163583
v 27.280151 -30.676735 -24.795980
v 6.057248 -39.321972 -26.896883
v 7.352378 -39.738464 -25.081247
v 18.567358 -49.352333 7.163583
v 7.352378 -39.738464 -25.081247
v 7.371818 -39.743713 -25.055622
v 18.567358 -49.352333 7.163583
v 10.349728 -10.695976 -48.267410
v 15.604857 -29.589109 -35.799423
v 6.015968 -33.480797 -31.742363
v 6.057248 -39.321972 -26.896883
v 6.015968 -33.480797 -31.742363
v 15.604857 -29.589109 -35.799423
v 10.349728 -10.695976 -48.267410
v -25.337290 7.863313 -40.981331
v -14.204188 7.536799 -45.241749
v 31.484806 -23.780954 -33.419765
v 17.457983 -38.414047 -20.386093
v 15.607600 -29.589516 -35.798859
v 15.607600 -29.589516 -35.798859
v 17.457983 -38.414047 -20.386093
v 6.057248 -39.321972 -26.896883
v 27.280151 -30.676735 -24.795980
v 17.457983 -38.414047 -20.386093
v 31.484806 -23.780954 -33.419765
v 6.057248 -39.321972 -26.896883
v 17.457983 -38.414047 -20.386093
v 7.352378 -39.738464 -25.081247
v 18.567358 -49.352333 7.163583
v 17.457983 -38.414047 -20.386093
v 27.280151 -30.676735 -24.795980
v 7.371818 -39.743713 -25.055622
v 17.457983 -38.414047 -20.386093
v 18.567358 -49.352333 7.163583
v 7.352378 -39.738464 -25.081247
v 17.457983 -38.414047 -20.386093
v 7.371818 -39.743713 -25.055622
v 30.066887 -26.422529 -29.718603
v 31.484806 -23.780954 -33.419765
v 22.123468 -44.244350 4.751014
v 30.066887 -26.422529 -29.718603
v 22.123468 -44.244350 4.751014
v 18.567358 -49.352333 7.163583
v -25.337290 7.863313 -40.981331
v -27.800356 19.659906 -34.484005
v -14.204188 7.536799 -45.241749
v 10.349728 -10.695976 -48.267410
v 6.015968 -33.480797 -31.742363
v -3.788103 -36.181793 -25.461206
v 10.349728 -10.695976 -48.267410
v -3.788103 -36.181793 -25.461206
v -25.337290 7.863313 -40.981331
v 6.057248 -39.321972 -26.896883
v -3.788103 -36.181793 -25.461206
v 6.015968 -33.480797 -31.742363
v 33.286682 -0.364019 -32.712364
v 35.910069 -4.773240 -22.134943
v 31.484806 -23.780954 -33.419765
v -25.337290 7.863313 -40.981331
v -38.435677 7.107531 -22.811796
v -27.800356 19.659906 -34.484005
v -43.271671 -14.806829 -9.690070
v -38.435677 7.107531 -22.811796
v -25.337290 7.863313 -40.981331
v 10.349728 -10.695976 -48.267410
v -1.470008 22.173935 -41.815872
v 26.375570 1.079021 -42.461781
v 10.349728 -10.695976 -48.267410
v -14.204188 7.536799 -45.241749
v -1.470008 22.173935 -41.815872
v -27.800356 19.659906 -34.484005
v -1.470008 22.173935 -41.815872
v -14.204188 7.536799 -45.241749
v 6.057248 -39.321972 -26.896883
v 18.567358 -49.352333 7.163583
v -1.883312 -46.456978 -5.865254
v 6.057248 -39.321972 -26.896883
v -1.883312 -46.456978 -5.865254
v -3.788103 -36.181793 -25.461206
v 18.567358 -49.352333 7.163583
v -1.060010 -47.251598 -1.528591
v -1.883312 -46.456978 -5.865254
v -3.788103 -36.181793 -25.461206
v -22.940535 -31.269142 -18.186562
v -25.337290 7.863313 -40.981331
v -43.271671 -14.806829 -9.690070
v -25.337290 7.863313 -40.981331
v -22.940535 -31.269142 -18.186562
v -1.883312 -46.456978 -5.865254
v -22.940535 -31.269142 -18.186562
v -3.788103 -36.181793 -25.461206
v 18.567358 -49.352333 7.163583
v -1.470084 -47.622311 1.317147
v -1.060010 -47.251598 -1.528591
v -1.060010 -47.251598 -1.528591
v -1.470084 -47.622311 1.317147
v -1.883312 -46.456978 -5.865254
v -38.435677 7.107531 -22.811796
v -44.833950 19.190039 12.462609
v -27.800356 19.659906 -34.484005
v -43.271671 -14.806829 -9.690070
v -44.833950 19.190039 12.462609
v -38.435677 7.107531 -22.811796
v 26.375570 1.079021 -42.461781
v 13.603567 29.414955 -33.324017
v 33.286682 -0.364019 -32.712364
v -1.470008 22.173935 -41.815872
v 13.603567 29.414955 -33.324017
v 26.375570 1.079021 -42.461781
v 31.484806 -23.780954 -33.419765
v 29.574951 -25.829319 -9.161970
v 22.123468 -44.244350 4.751014
v 35.910069 -4.773240 -22.134943
v 29.574951 -25.829319 -9.161970
v 31.484806 -23.780954 -33.419765
v 18.567358 -49.352333 7.163583
v -5.847977 -45.638866 7.836988
v -1.470084 -47.622311 1.317147
v -43.271671 -14.806829 -9.690070
v -22.940535 -31.269142 -18.186562
v -30.662685 -31.066063 5.047383
v -1.883312 -46.456978 -5.865254
v -30.662685 -31.066063 5.047383
v -22.940535 -31.269142 -18.186562
v -1.470084 -47.622311 1.317147
v -30.662685 -31.066063 5.047383
v -1.883312 -46.456978 -5.865254
v -5.847977 -45.638866 7.836988
v -30.662685 -31.066063 5.047383
v -1.470084 -47.622311 1.317147
v -27.800356 19.659906 -34.484005
v -9.303638 32.416023 -29.989872
v -1.470008 22.173935 -41.815872
v -1.470008 22.173935 -41.815872
v -9.303638 32.416023 -29.989872
v 13.603567 29.414955 -33.324017
v 29.574951 -25.829319 -9.161970
v 37.317173 14.149121 27.694241
v 22.123468 -44.244350 4.751014
v 35.910069 -4.773240 -22.134943
v 37.317173 14.149121 27.694241
v 29.574951 -25.829319 -9.161970
v 33.286682 -0.364019 -32.712364
v 35.717625 23.354441 -0.507451
v 35.910069 -4.773240 -22.134943
v 13.603567 29.414955 -33.324017
v 35.717625 23.354441 -0.507451
v 33.286682 -0.364019 -32.712364
v 35.910069 -4.773240 -22.134943
v 36.989853 21.908005 6.325951
v 37.317173 14.149121 27.694241
v 35.717625 23.354441 -0.507451
v 36.989853 21.908005 6.325951
v 35.910069 -4.773240 -22.134943
v -43.271671 -14.806829 -9.690070
v -38.897995 8.774024 24.728575
v -44.833950 19.190039 12.462609
v -44.833950 19.190039 12.462609
v -38.897995 8.774024 24.728575
v -40.581059 17.303337 20.947262
v -9.303638 32.416023 -29.989872
v 13.189860 50.417835 1.221181
v 13.603567 29.414955 -33.324017
v -44.833950 19.190039 12.462609
v -28.905867 30.211809 -11.574234
v -27.800356 19.659906 -34.484005
v -5.847977 -45.638866 7.836988
v -29.877975 -7.615885 36.007034
v -30.662685 -31.066063 5.047383
v -43.271671 -14.806829 -9.690070
v -30.662685 -31.066063 5.047383
v -29.877975 -7.615885 36.007034
v -43.271671 -14.806829 -9.690070
v -29.877975 -7.615885 36.007034
v -38.897995 8.774024 24.728575
v -27.800356 19.659906 -34.484005
v -14.145391 39.060276 -17.880383
v -9.303638 32.416023 -29.989872
v -9.303638 32.416023 -29.989872
v -14.145391 39.060276 -17.880383
v 13.189860 50.417835 1.221181
v 22.123468 -44.244350 4.751014
v 24.787897 -0.641392 42.295586
v 18.567358 -49.352333 7.163583
v 37.317173 14.149121 27.694241
v 24.787897 -0.641392 42.295586
v 22.123468 -44.244350 4.751014
v 37.317173 14.149121 27.694241
v 24.752995 -0.568400 42.320175
v 24.787897 -0.641392 42.295586
v -44.833950 19.190039 12.462609
v -22.271078 42.059486 -4.076262
v -28.905867 30.211809 -11.574234
v -28.905867 30.211809 -11.574234
v -22.271078 42.059486 -4.076262
v -27.800356 19.659906 -34.484005
v -27.800356 19.659906 -34.484005
v -22.271078 42.059486 -4.076262
v -14.145391 39.060276 -17.880383
v 36.989853 21.908005 6.325951
v 31.199766 27.308966 22.401928
v 37.317173 14.149121 27.694241
v 13.603567 29.414955 -33.324017
v 24.058769 40.040020 4.680458
v 35.717625 23.354441 -0.507451
v 13.189860 50.417835 1.221181
v 24.058769 40.040020 4.680458
v 13.603567 29.414955 -33.324017
v 35.717625 23.354441 -0.507451
v 24.058769 40.040020 4.680458
v 36.989853 21.908005 6.325951
v 36.989853 21.908005 6.325951
v 24.058769 40.040020 4.680458
v 31.199766 27.308966 22.401928
v -44.833950 19.190039 12.462609
v -40.581059 17.303337 20.947262
v -24.459061 36.844490 27.545052
v -44.833950 19.190039 12.462609
v -24.459061 36.844490 27.545052
v -24.344524 36.951881 27.584610
v -38.897995 8.774024 24.728575
v -28.421278 -2.841561 36.822697
v -40.581059 17.303337 20.947262
v -40.581059 17.303337 20.947262
v -28.421278 -2.841561 36.822697
v -24.459061 36.844490 27.545052
v -29.877975 -7.615885 36.007034
v -28.421278 -2.841561 36.822697
v -38.897995 8.774024 24.728575
v -14.145391 39.060276 -17.880383
v -11.572834 48.296638 5.018003
v 13.189860 50.417835 1.221181
v -22.271078 42.059486 -4.076262
v -11.572834 48.296638 5.018003
v -14.145391 39.060276 -17.880383
v -24.344524 36.951881 27.584610
v -11.572834 48.296638 5.018003
v -22.271078 42.059486 -4.076262
v 13.189860 50.417835 1.221181
v 23.428789 38.749496 12.136424
v 24.058769 40.040020 4.680458
v 24.058769 40.040020 4.680458
v 23.428789 38.749496 12.136424
v 31.199766 27.308966 22.401928
v -44.833950 19.190039 12.462609
v -25.699944 37.161903 16.905451
v -22.271078 42.059486 -4.076262
v -44.833950 19.190039 12.462609
v -24.344524 36.951881 27.584610
v -25.699944 37.161903 16.905451
v -24.344524 36.951881 27.584610
v -22.271078 42.059486 -4.076262
v -25.699944 37.161903 16.905451
v 31.199766 27.308966 22.401928
v 21.724434 28.265368 33.268116
v 37.317173 14.149121 27.694241
v 23.428789 38.749496 12.136424
v 21.724434 28.265368 33.268116
v 31.199766 27.308966 22.401928
v 37.317173 14.149121 27.694241
v 18.880682 25.325695 36.659767
v 24.752995 -0.568400 42.320175
v 21.724434 28.265368 33.268116
v 18.880682 25.325695 36.659767
v 37.317173 14.149121 27.694241
v -29.877975 -7.615885 36.007034
v -10.359045 -0.774439 46.415176
v -28.421278 -2.841561 36.822697
v 21.724434 28.265368 33.268116
v 3.070390 26.915510 43.611378
v 18.880682 25.325695 36.659767
v 18.880682 25.325695 36.659767
v 3.070390 26.915510 43.611378
v 24.752995 -0.568400 42.320175
v 18.567358 -49.352333 7.163583
v -3.761720 -9.164010 44.633125
v -5.847977 -45.638866 7.836988
v -5.847977 -45.638866 7.836988
v -3.761720 -9.164010 44.633125
v -29.877975 -7.615885 36.007034
v -29.877975 -7.615885 36.007034
v -3.761720 -9.164010 44.633125
v -10.359045 -0.774439 46.415176
v 24.787897 -0.641392 42.295586
v -3.761720 -9.164010 44.633125
v 18.567358 -49.352333 7.163583
v -11.572834 48.296638 5.018003
v -2.372690 46.094627 18.412451
v 13.189860 50.417835 1.221181
v -24.344524 36.951881 27.584610
v -12.733960 43.132572 19.343344
v -11.572834 48.296638 5.018003
v -11.572834 48.296638 5.018003
v -12.733960 43.132572 19.343344
v -2.372690 46.094627 18.412451
v -2.372690 46.094627 18.412451
v -12.727754 43.131241 19.351595
v -24.344524 36.951881 27.584610
v -24.344524 36.951881 27.584610
v -12.727754 43.131241 19.351595
v -12.733960 43.132572 19.343344
v -12.733960 43.132572 19.343344
v -12.727754 43.131241 19.351595
v -2.372690 46.094627 18.412451
v 3.070390 26.915510 43.611378
v 7.588999 -0.955525 45.513012
v 24.752995 -0.568400 42.320175
v -10.359045 -0.774439 46.415176
v 7.588999 -0.955525 45.513012
v 3.070390 26.915510 43.611378
v 24.752995 -0.568400 42.320175
v 7.588999 -0.955525 45.513012
v 24.787897 -0.641392 42.295586
v 24.787897 -0.641392 42.295586
v 7.588999 -0.955525 45.513012
v -3.761720 -9.164010 44.633125
v -3.761720 -9.164010 44.633125
v 7.588999 -0.955525 45.513012
v -10.359045 -0.774439 46.415176
v 3.070390 26.915510 43.611378
v 1.730635 31.914040 39.479359
v -24.344524 36.951881 27.584610
v -24.344524 36.951881 27.584610
v 1.730635 31.914040 39.479359
v -12.485976 37.792633 30.412195
v 21.724434 28.265368 33.268116
v 1.730635 31.914040 39.479359
v 3.070390 26.915510 43.611378
v 13.189860 50.417835 1.221181
v 11.212367 39.871136 24.933178
v 23.428789 38.749496 12.136424
v 23.428789 38.749496 12.136424
v 11.212367 39.871136 24.933178
v 21.724434 28.265368 33.268116
v -2.372690 46.094627 18.412451
v 11.212367 39.871136 24.933178
v 13.189860 50.417835 1.221181
v -24.459061 36.844490 27.545052
v -22.874802 10.682714 36.940842
v -24.344524 36.951881 27.584610
v -28.421278 -2.841561 36.822697
v -22.874802 10.682714 36.940842
v -24.459061 36.844490 27.545052
v -10.359045 -0.774439 46.415176
v -22.874802 10.682714 36.940842
v -28.421278 -2.841561 36.822697
v -2.372690 46.094627 18.412451
v 11.138237 39.877640 24.943773
v 11.212367 39.871136 24.933178
v 11.212367 39.871136 24.933178
v 11.138237 39.877640 24.943773
v 1.730635 31.914040 39.479359
v -2.372690 46.094627 18.412451
v 1.730635 31.914040 39.479359
v 10.919631 39.896812 24.970476
v -2.372690 46.094627 18.412451
v 10.919631 39.896812 24.970476
v 11.138237 39.877640 24.943773
v 11.138237 39.877640 24.943773
v 10.919631 39.896812 24.970476
v 1.730635 31.914040 39.479359
v 1.730635 31.914040 39.479359
v -6.530488 40.430538 27.712458
v -12.485976 37.792633 30.412195
v -2.372690 46.094627 18.412451
v -6.530488 40.430538 27.712458
v 1.730635 31.914040 39.479359
v -2.372690 46.094627 18.412451
v -24.344524 36.951881 27.584610
v -6.530488 40.430538 27.712458
v -24.344524 36.951881 27.584610
v -12.485976 37.792633 30.412195
v -6.530488 40.430538 27.712458
v 3.070390 26.915510 43.611378
v -24.344524 36.951881 27.584610
v -6.637556 22.372274 43.094143
v -22.874802 10.682714 36.940842
v -6.637556 22.372274 43.094143
v -24.344524 36.951881 27.584610
v -10.359045 -0.774439 46.415176
v -6.637556 22.372274 43.094143
v -22.874802 10.682714 36.940842
v 21.724434 28.265368 33.268116
v 8.051511 34.044373 33.802750
v 1.730635 31.914040 39.479359
v 11.212367 39.871136 24.933178
v 8.051511 34.044373 33.802750
v 21.724434 28.265368 33.268116
v 11.212367 39.871136 24.933178
v 1.730635 31.914040 39.479359
v 8.051511 34.044373 33.802750
v -10.359045 -0.774439 46.415176
v 3.070390 26.915510 43.611378
v -5.843819 13.722435 44.952419
v 3.070390 26.915510 43.611378
v -6.637556 22.372274 43.094143
v -5.843819 13.722435 44.952419
v -10.359045 -0.774439 46.415176
v -5.843819 13.722435 44.952419
v -6.637556 22.372274 43.094143
vn 0.468587 -0.215320 -0.856775
vn 0.295836 -0.467437 -0.833057
vn 0.095016 -0.529759 -0.842809
vn 0.607050 -0.738167 -0.294279
vn 0.811848 -0.044884 -0.582141
vn 0.043942 -0.697407 -0.715327
vn 0.671844 -0.704551 -0.228547
vn 0.174096 -0.925458 -0.336479
vn 0.207890 -0.915222 -0.345181
vn -0.113626 -0.569053 -0.814412
vn -0.066165 -0.637337 -0.767739
vn -0.346721 -0.320651 -0.881458
vn 0.362955 -0.789189 -0.495423
vn 0.347168 -0.795271 -0.497009
vn 0.436074 -0.794476 -0.422667
vn 0.304829 -0.857635 -0.414176
vn 0.483078 -0.806936 -0.339838
vn 0.285237 -0.886817 -0.363587
vn 0.301486 -0.862956 -0.405478
vn 0.782883 -0.607623 -0.133746
vn 0.782477 -0.608075 -0.134073
vn -0.316176 0.406192 -0.857345
vn -0.365308 -0.500000 -0.785207
vn -0.406015 -0.473967 -0.781349
vn -0.301428 -0.610025 -0.732810
vn 0.961708 -0.065965 -0.266018
vn -0.805147 0.148183 -0.574265
vn -0.795667 -0.172155 -0.580756
vn 0.164720 0.246674 -0.954997
vn 0.030072 0.202915 -0.978735
vn -0.279517 0.442601 -0.852042
vn 0.057203 -0.951810 -0.301306
vn -0.330858 -0.848601 -0.412806
vn -0.027813 -0.984166 -0.175052
vn -0.416342 -0.476542 -0.774317
vn -0.619130 -0.423232 -0.661477
vn -0.368113 -0.837683 -0.403459
vn -0.045903 -0.989708 -0.135543
vn -0.154880 -0.976551 -0.149533
vn -0.847328 0.436101 -0.303070
vn -0.973992 0.090576 -0.207693
vn 0.746174 0.483808 -0.457334
vn 0.290345 0.409737 -0.864763
vn 0.937330 -0.345574 0.044617
vn 0.964920 -0.256872 0.054279
vn -0.141956 -0.969534 0.199629
vn -0.667321 -0.712893 -0.215563
vn -0.512634 -0.842990 -0.163014
vn -0.500946 -0.858401 -0.110453
vn -0.499010 -0.863570 -0.072359
vn -0.262708 0.636435 -0.725214
vn 0.004152 0.757267 -0.653092
vn 0.948440 -0.293650 0.119292
vn 0.966112 -0.249182 0.067344
vn 0.972733 0.145516 -0.180596
vn 0.760553 0.494053 -0.421272
vn 0.999615 -0.017387 -0.021625
vn 0.979695 0.126380 -0.155646
vn -0.938176 -0.218211 0.268717
vn -0.891507 0.024617 0.452338
vn 0.036378 0.854097 -0.518840
vn -0.797154 0.532867 -0.283897
vn -0.470445 -0.697642 0.540348
vn -0.866758 -0.386739 0.314902
vn -0.906719 -0.285240 0.310643
vn -0.375684 0.740892 -0.556724
vn -0.021884 0.872778 -0.487627
vn 0.830766 -0.391478 0.395692
vn 0.856415 -0.365934 0.364206
vn 0.703305 0.099155 0.703939
vn -0.772625 0.586495 -0.243053
vn -0.729037 0.607654 -0.315056
vn -0.498100 0.738924 -0.453748
vn 0.870124 0.467367 0.156374
vn 0.706533 0.606868 -0.364035
vn 0.701168 0.612930 -0.364254
vn 0.815071 0.578622 -0.029270
vn 0.806465 0.583704 0.094361
vn -0.750013 0.457502 0.477674
vn -0.701381 0.701493 0.126378
vn -0.633120 0.205871 0.746175
vn -0.601070 0.238341 0.762829
vn -0.705342 0.095199 0.702446
vn -0.134013 0.924164 -0.357718
vn -0.241339 0.909088 -0.339579
vn -0.560935 0.822285 0.095918
vn 0.647905 0.739477 0.182737
vn 0.733972 0.656093 0.175576
vn -0.690390 0.721302 0.055543
vn -0.693537 0.713156 0.102050
vn -0.590427 0.801977 0.090710
vn 0.664501 0.523398 0.533379
vn 0.542177 0.734488 0.408132
vn 0.556826 0.295937 0.776123
vn 0.565935 0.326147 0.757196
vn -0.468303 -0.008061 0.883531
vn 0.388748 0.509564 0.767606
vn 0.409767 0.282526 0.867335
vn -0.087811 -0.704963 0.703787
vn -0.266733 -0.676867 0.686080
vn -0.306757 -0.422397 0.852925
vn 0.238785 -0.587917 0.772875
vn -0.053535 0.978803 0.197684
vn -0.267842 0.913092 0.307446
vn -0.235003 0.920318 0.312712
vn -0.226378 0.905105 0.359914
vn -0.247790 0.909724 0.333170
vn -0.233133 0.917116 0.323338
vn 0.179945 0.095970 0.978984
vn 0.050823 0.076183 0.995798
vn 0.182899 -0.234203 0.954828
vn 0.178638 -0.345763 0.921160
vn 0.047732 -0.171485 0.984030
vn -0.243429 0.578381 0.778600
vn -0.223297 0.620050 0.752115
vn 0.330878 0.652355 0.681874
vn 0.480250 0.785863 0.389590
vn 0.505114 0.756219 0.415924
vn 0.208630 0.887012 0.411927
vn -0.523705 0.259679 0.811357
vn -0.598035 0.238578 0.765137
vn -0.477370 0.188278 0.858295
vn 0.146851 0.850224 0.505523
vn 0.150532 0.822712 0.548165
vn 0.123825 0.834191 0.537394
vn 0.137383 0.843715 0.518914
vn 0.138992 0.827824 0.543497
vn -0.068365 0.784779 0.615994
vn 0.083276 0.834128 0.545249
vn -0.173870 0.873678 0.454374
vn -0.172744 0.867470 0.466536
vn -0.284155 0.515118 0.808647
vn -0.502609 0.264972 0.822906
vn -0.469237 0.198889 0.860383
vn 0.324027 0.708655 0.626749
vn 0.331837 0.729819 0.597703
vn 0.280274 0.753411 0.594826
vn 0.002038 0.099763 0.995009
vn -0.143098 0.195310 0.970246
vn -0.267522 0.178857 0.946806
f 1//1 2//1 3//1
f 4//2 5//2 6//2
f 7//3 8//3 9//3
f 10//4 11//4 12//4
f 13//5 14//5 15//5
f 16//6 17//6 18//6
f 19//7 20//7 21//7
f 22//8 23//8 24//8
f 25//9 26//9 27//9
f 28//10 29//10 30//10
f 31//11 32//11 33//11
f 34//12 35//12 36//12
f 37//13 38//13 39//13
f 40//14 41//14 42//14
f 43//15 44//15 45//15
f 46//16 47//16 48//16
f 49//17 50//17 51//17
f 52//18 53//18 54//18
f 55//19 56//19 57//19
f 58//20 59//20 60//20
f 61//21 62//21 63//21
f 64//22 65//22 66//22
f 67//23 68//23 69//23
f 70//24 71//24 72//24
f 73//25 74//25 75//25
f 76//26 77//26 78//26
f 79//27 80//27 81//27
f 82//28 83//28 84//28
f 85//29 86//29 87//29
f 88//30 89//30 90//30
f 91//31 92//31 93//31
f 94//32 95//32 96//32
f 97//33 98//33 99//33
f 100//34 101//34 102//34
f 103//35 104//35 105//35
f 106//36 107//36 108//36
f 109//37 110//37 111//37
f 112//38 113//38 114//38
f 115//39 116//39 117//39
f 118//40 119//40 120//40
f 121//41 122//41 123//41
f 124//42 125//42 126//42
f 127//43 128//43 129//43
f 130//44 131//44 132//44
f 133//45 134//45 135//45
f 136//46 137//46 138//46
f 139//47 140//47 141//47
f 142//48 143//48 144//48
f 145//49 146//49 147//49
f 148//50 149//50 150//50
f 151//51 152//51 153//51
f 154//52 155//52 156//52
f 157//53 158//53 159//53
f 160//54 161//54 162//54
f 163//55 164//55 165//55
f 166//56 167//56 168//56
f 169//57 170//57 171//57
f 172//58 173//58 174//58
f 175//59 176//59 177//59
f 178//60 179//60 180//60
f 181//61 182//61 183//61
f 184//62 185//62 186//62
f 187//63 188//63 189//63
f 190//64 191//64 192//64
f 193//65 194//65 195//65
f 196//66 197//66 198//66
f 199//67 200//67 201//67
f 202//68 203//68 204//68
f 205//69 206//69 207//69
f 208//70 209//70 210//70
f 211//71 212//71 213//71
f 214//72 215//72 216//72
f 217//73 218//73 219//73
f 220//74 221//74 222//74
f 223//75 224//75 225//75
f 226//76 227//76 228//76
f 229//77 230//77 231//77
f 232//78 233//78 234//78
f 235//79 236//79 237//79
f 238//80 239//80 240//80
f 241//81 242//81 243//81
f 244//82 245//82 246//82
f 247//83 248//83 249//83
f 250//84 251//84 252//84
f 253//85 254//85 255//85
f 256//86 257//86 258//86
f 259//87 260//87 261//87
f 262//88 263//88 264//88
f 265//89 266//89 267//89
f 268//90 269//90 270//90
f 271//91 272//91 273//91
f 274//92 275//92 276//92
f 277//93 278//93 279//93
f 280//94 281//94 282//94
f 283//95 284//95 285//95
f 286//96 287//96 288//96
f 289//97 290//97 291//97
f 292//98 293//98 294//98
f 295//99 296//99 297//99
f 298//100 299//100 300//100
f 301//101 302//101 303//101
f 304//102 305//102 306//102
f 307//103 308//103 309//103
f 310//104 311//104 312//104
f 313//105 314//105 315//105
f 316//106 317//106 318//106
f 319//107 320//107 321//107
f 322//108 323//108 324//108
f 325//109 326//109 327//109
f 328//110 329//110 330//110
f 331//111 332//111 333//111
f 334//112 335//112 336//112
f 337//113 338//113 339//113
f 340//114 341//114 342//114
f 343//115 344//115 345//115
f 346//116 347//116 348//116
f 349//117 350//117 351//117
f 352//118 353//118 354//118
f 355//119 356//119 357//119
f 358//120 359//120 360//120
f 361//121 362//121 363//121
f 364//122 365//122 366//122
f 367//123 368//123 369//123
f 370//124 371//124 372//124
f 373//125 374//125 375//125
f 376//126 377//126 378//126
f 379//127 380//127 381//127
f 382//128 383//128 384//128
f 385//129 386//129 387//129
f 388//130 389//130 390//130
f 391//131 392//131 393//131
f 394//132 395//132 396//132
f 397//133 398//133 399//133
f 400//134 401//134 402//134
f 403//135 404//135 405//135
f 406//136 407//136 408//136
f 409//137 410//137 411//137
f 412//138 413//138 414//138
f 415//139 416//139 417//139
f 418//140 419//140 420//140
