o
v -66.258316 -12.573784 94.934387
v -5.288135 36.712566 120.445412
v 6.365957 62.055973 124.922112
v -66.258316 -12.573784 94.934387
v 6.365957 62.055973 124.922112
v 2.467587 203.442444 70.866745
v 6.365957 62.055973 124.922112
v 55.080185 166.908112 85.855453
v 2.467587 203.442444 70.866745
v -66.258316 -12.573784 94.934387
v 15.795792 -169.079422 -122.286301
v -5.288135 36.712566 120.445412
v -66.258316 -12.573784 94.934387
v 13.629580 -169.372314 -121.698029
v 15.795792 -169.079422 -122.286301
v 13.629580 -169.372314 -121.698029
v 14.529484 -168.382477 -123.223122
v 15.795792 -169.079422 -122.286301
v 13.833612 -168.571533 -122.837837
v 14.529484 -168.382477 -123.223122
v 13.629580 -169.372314 -121.698029
v 13.833612 -168.571533 -122.837837
v 13.629580 -169.372314 -121.698029
v -110.602684 6.117918 -192.148010
v -66.258316 -12.573784 94.934387
v 2.467587 203.442444 70.866745
v -22.783062 171.242432 56.093346
v -66.258316 -12.573784 94.934387
v -98.355591 -43.291824 -56.909618
v 13.629580 -169.372314 -121.698029
v 13.629580 -169.372314 -121.698029
v -98.355591 -43.291824 -56.909618
v -110.602684 6.117918 -192.148010
v -66.258316 -12.573784 94.934387
v -98.212906 -42.222309 -55.868423
v -98.355591 -43.291824 -56.909618
v -98.355591 -43.291824 -56.909618
v -98.212906 -42.222309 -55.868423
v -110.602684 6.117918 -192.148010
v 2.467587 203.442444 70.866745
v -84.868561 149.354263 -19.665054
v -22.783062 171.242432 56.093346
v -58.091789 216.152939 -40.437325
v -84.868561 149.354263 -19.665054
v 2.467587 203.442444 70.866745
v -66.258316 -12.573784 94.934387
v -22.783062 171.242432 56.093346
v -84.868561 149.354263 -19.665054
v -66.258316 -12.573784 94.934387
v -84.868561 149.354263 -19.665054
v -98.212906 -42.222309 -55.868423
v -98.212906 -42.222309 -55.868423
v -84.868561 149.354263 -19.665054
v -110.602684 6.117918 -192.148010
v -110.602684 6.117918 -192.148010
v -84.868561 149.354263 -19.665054
v -58.091789 216.152939 -40.437325
v -5.288135 36.712566 120.445412
v 80.123024 24.757183 33.565296
v 6.365957 62.055973 124.922112
v 6.365957 62.055973 124.922112
v 80.123024 24.757183 33.565296
v 55.080185 166.908112 85.855453
v 151.458618 -32.930405 -101.976669
v 55.080185 166.908112 85.855453
v 80.123024 24.757183 33.565296
v 15.795792 -169.079422 -122.286301
v 80.123024 24.757183 33.565296
v -5.288135 36.712566 120.445412
v 15.795792 -169.079422 -122.286301
v 151.458618 -32.930405 -101.976669
v 80.123024 24.757183 33.565296
v 14.529484 -168.382477 -123.223122
v 27.269020 -57.991890 -219.545731
v 15.795792 -169.079422 -122.286301
v 15.795792 -169.079422 -122.286301
v 27.269020 -57.991890 -219.545731
v 151.458618 -32.930405 -101.976669
v 13.833612 -168.571533 -122.837837
v 27.269020 -57.991890 -219.545731
v 14.529484 -168.382477 -123.223122
v 13.833612 -168.571533 -122.837837
v -110.602684 6.117918 -192.148010
v 27.269020 -57.991890 -219.545731
v 27.269020 -57.991890 -219.545731
v 47.328621 -8.625542 -236.850433
v 151.458618 -32.930405 -101.976669
v -110.602684 6.117918 -192.148010
v 47.328621 -8.625542 -236.850433
v 27.269020 -57.991890 -219.545731
v 55.080185 166.908112 85.855453
v 22.647085 229.798752 -56.367813
v 2.467587 203.442444 70.866745
v -58.091789 216.152939 -40.437325
v 2.467587 203.442444 70.866745
v 22.647085 229.798752 -56.367813
v 47.328621 -8.625542 -236.850433
v 90.911415 -0.232734 -181.236496
v 151.458618 -32.930405 -101.976669
v 151.458618 -32.930405 -101.976669
v 94.609566 130.283875 -42.856270
v 55.080185 166.908112 85.855453
v 47.328621 -8.625542 -236.850433
v 94.724007 50.182930 -170.225616
v 90.911415 -0.232734 -181.236496
v 90.911415 -0.232734 -181.236496
v 94.724007 50.182930 -170.225616
v 151.458618 -32.930405 -101.976669
v 47.328621 -8.625542 -236.850433
v 89.751015 147.895294 -125.569946
v 94.724007 50.182930 -170.225616
v 151.458618 -32.930405 -101.976669
v 89.751015 147.895294 -125.569946
v 94.609566 130.283875 -42.856270
v 94.724007 50.182930 -170.225616
v 89.751015 147.895294 -125.569946
v 151.458618 -32.930405 -101.976669
v 55.080185 166.908112 85.855453
v 89.611969 148.077103 -125.472412
v 22.647085 229.798752 -56.367813
v 94.609566 130.283875 -42.856270
v 89.611969 148.077103 -125.472412
v 55.080185 166.908112 85.855453
v 89.751015 147.895294 -125.569946
v 89.611969 148.077103 -125.472412
v 94.609566 130.283875 -42.856270
v 22.647085 229.798752 -56.367813
v 89.611969 148.077103 -125.472412
v 22.648209 229.587036 -56.841656
v -110.602684 6.117918 -192.148010
v -58.091789 216.152939 -40.437325
v -39.595608 187.656784 -114.701195
v -58.091789 216.152939 -40.437325
v 22.647085 229.798752 -56.367813
v -22.251196 199.839447 -104.167595
v 22.647085 229.798752 -56.367813
v 22.648209 229.587036 -56.841656
v -22.251196 199.839447 -104.167595
v -58.091789 216.152939 -40.437325
v -22.251196 199.839447 -104.167595
v -39.595608 187.656784 -114.701195
v -110.602684 6.117918 -192.148010
v -39.595608 187.656784 -114.701195
v -53.415558 106.841660 -179.689011
v -22.251196 199.839447 -104.167595
v -16.157516 184.332108 -139.638245
v -39.595608 187.656784 -114.701195
v 89.611969 148.077103 -125.472412
v -16.157516 184.332108 -139.638245
v 22.648209 229.587036 -56.841656
v 22.648209 229.587036 -56.841656
v -16.157516 184.332108 -139.638245
v -22.251196 199.839447 -104.167595
v -39.595608 187.656784 -114.701195
v -27.711649 169.782135 -144.756256
v -53.415558 106.841660 -179.689011
v -16.157516 184.332108 -139.638245
v -27.711649 169.782135 -144.756256
v -39.595608 187.656784 -114.701195
v 89.751015 147.895294 -125.569946
v -12.369169 176.233841 -146.822418
v 89.611969 148.077103 -125.472412
v 89.611969 148.077103 -125.472412
v -12.369169 176.233841 -146.822418
v -16.157516 184.332108 -139.638245
v -27.711649 169.782135 -144.756256
v -32.126492 130.185135 -174.905548
v -53.415558 106.841660 -179.689011
v -16.157516 184.332108 -139.638245
v -32.126492 130.185135 -174.905548
v -27.711649 169.782135 -144.756256
v -12.369169 176.233841 -146.822418
v -29.457567 128.682983 -177.637039
v -16.157516 184.332108 -139.638245
v -16.157516 184.332108 -139.638245
v -29.457567 128.682983 -177.637039
v -32.126492 130.185135 -174.905548
v -32.126492 130.185135 -174.905548
v -29.457567 128.682983 -177.637039
v -53.415558 106.841660 -179.689011
v -110.602684 6.117918 -192.148010
v -11.912794 114.558670 -190.724258
v 47.328621 -8.625542 -236.850433
v -110.602684 6.117918 -192.148010
v -53.415558 106.841660 -179.689011
v -11.912794 114.558670 -190.724258
v -29.457567 128.682983 -177.637039
v -11.912794 114.558670 -190.724258
v -53.415558 106.841660 -179.689011
v -12.369169 176.233841 -146.822418
v -11.912794 114.558670 -190.724258
v -29.457567 128.682983 -177.637039
v 47.328621 -8.625542 -236.850433
v -6.852181 112.087593 -190.932129
v 89.751015 147.895294 -125.569946
v -11.912794 114.558670 -190.724258
v -6.852181 112.087593 -190.932129
v 47.328621 -8.625542 -236.850433
v 89.751015 147.895294 -125.569946
v -6.852181 112.087593 -190.932129
v -12.369169 176.233841 -146.822418
v -12.369169 176.233841 -146.822418
v -6.852181 112.087593 -190.932129
v -11.912794 114.558670 -190.724258
vn -0.401638 0.022975 0.915510
vn -0.593337 0.273135 0.757198
vn -0.018476 0.356608 0.934071
vn 0.311363 -0.711333 0.630125
vn 0.269246 -0.730272 0.627861
vn -0.040427 -0.827066 -0.560649
vn -0.104795 -0.804821 -0.584192
vn -0.571002 -0.620165 -0.537914
vn -0.738131 0.302051 0.603264
vn -0.641755 -0.713935 0.280085
vn -0.776584 -0.611162 -0.152963
vn -0.970899 -0.087502 0.222933
vn -0.994214 0.033185 0.102159
vn -0.769529 0.362111 0.526023
vn -0.761748 0.450224 0.465873
vn -0.778429 0.300560 0.551100
vn -0.979019 0.030109 0.201531
vn -0.992994 0.048834 0.107599
vn -0.933453 0.331805 -0.136274
vn 0.623577 -0.404879 0.668748
vn 0.751834 -0.106884 0.650632
vn 0.881561 -0.018216 0.471718
vn 0.504400 -0.636516 0.583462
vn 0.546577 -0.627367 0.554675
vn 0.178437 -0.658523 -0.731101
vn 0.631145 -0.546829 -0.550122
vn -0.243370 -0.621598 -0.744571
vn -0.407606 -0.572583 -0.711341
vn 0.654240 -0.472768 -0.590305
vn -0.284436 -0.212148 -0.934928
vn 0.502823 0.827119 0.251084
vn -0.128959 0.974900 0.181495
vn 0.788822 -0.027662 -0.613999
vn 0.943380 0.249341 0.218778
vn 0.779094 0.076964 -0.622165
vn 0.806082 0.067450 -0.587947
vn 0.576947 0.363613 -0.731381
vn 0.945782 0.324519 0.013542
vn 0.870100 0.240816 -0.430040
vn 0.802603 0.591331 0.078456
vn 0.803141 0.590580 0.078611
vn 0.811245 0.579773 0.075793
vn 0.570925 0.750086 -0.333789
vn -0.795175 0.472931 -0.379517
vn -0.223836 0.906523 -0.357930
vn -0.171858 0.899274 -0.402208
vn -0.344356 0.844646 -0.409869
vn -0.756054 0.483787 -0.440832
vn -0.332964 0.841649 -0.425160
vn 0.333948 0.752408 -0.567768
vn -0.152959 0.895567 -0.417809
vn -0.599101 0.561472 -0.570813
vn -0.527309 0.622252 -0.578573
vn 0.321630 0.626740 -0.709754
vn 0.326572 0.708129 -0.626022
vn -0.470074 0.567267 -0.676194
vn -0.419530 0.579049 -0.699069
vn -0.225096 0.585553 -0.778755
vn -0.399787 0.580127 -0.709664
vn -0.432412 0.542016 -0.720582
vn -0.244386 0.234763 -0.940830
vn -0.295018 0.280482 -0.913397
vn -0.305083 0.415169 -0.857064
vn -0.140371 0.573478 -0.807105
vn 0.368268 0.470354 -0.801964
vn 0.165766 0.414744 -0.894712
vn 0.314427 0.556084 -0.769355
vn 0.242845 0.563742 -0.789444
f 1//1 2//1 3//1
f 4//2 5//2 6//2
f 7//3 8//3 9//3
f 10//4 11//4 12//4
f 13//5 14//5 15//5
f 16//6 17//6 18//6
f 19//7 20//7 21//7
f 22//8 23//8 24//8
f 25//9 26//9 27//9
f 28//10 29//10 30//10
f 31//11 32//11 33//11
f 34//12 35//12 36//12
f 37//13 38//13 39//13
f 40//14 41//14 42//14
f 43//15 44//15 45//15
f 46//16 47//16 48//16
f 49//17 50//17 51//17
f 52//18 53//18 54//18
f 55//19 56//19 57//19
f 58//20 59//20 60//20
f 61//21 62//21 63//21
f 64//22 65//22 66//22
f 67//23 68//23 69//23
f 70//24 71//24 72//24
f 73//25 74//25 75//25
f 76//26 77//26 78//26
f 79//27 80//27 81//27
f 82//28 83//28 84//28
f 85//29 86//29 87//29
f 88//30 89//30 90//30
f 91//31 92//31 93//31
f 94//32 95//32 96//32
f 97//33 98//33 99//33
f 100//34 101//34 102//34
f 103//35 104//35 105//35
f 106//36 107//36 108//36
f 109//37 110//37 111//37
f 112//38 113//38 114//38
f 115//39 116//39 117//39
f 118//40 119//40 120//40
f 121//41 122//41 123//41
f 124//42 125//42 126//42
f 127//43 128//43 129//43
f 130//44 131//44 132//44
f 133//45 134//45 135//45
f 136//46 137//46 138//46
f 139//47 140//47 141//47
f 142//48 143//48 144//48
f 145//49 146//49 147//49
f 148//50 149//50 150//50
f 151//51 152//51 153//51
f 154//52 155//52 156//52
f 157//53 158//53 159//53
f 160//54 161//54 162//54
f 163//55 164//55 165//55
f 166//56 167//56 168//56
f 169//57 170//57 171//57
f 172//58 173//58 174//58
f 175//59 176//59 177//59
f 178//60 179//60 180//60
f 181//61 182//61 183//61
f 184//62 185//62 186//62
f 187//63 188//63 189//63
f 190//64 191//64 192//64
f 193//65 194//65 195//65
f 196//66 197//66 198//66
f 199//67 200//67 201//67
f 202//68 203//68 204//68
