o
v -7.923243 38.204689 1.782870
v -7.971334 38.335892 0.617786
v -9.713831 36.218315 24.696129
v -7.971334 38.335892 0.617786
v -8.158418 38.246849 0.534366
v -9.713831 36.218315 24.696129
v -7.923243 38.204689 1.782870
v -7.875827 38.139927 0.572055
v -7.971334 38.335892 0.617786
v -8.158418 38.246849 0.534366
v -16.261093 33.580620 -9.782844
v -9.713831 36.218315 24.696129
v -7.971334 38.335892 0.617786
v -16.261093 33.580620 -9.782844
v -8.158418 38.246849 0.534366
v -30.613974 17.721939 6.747436
v -9.713831 36.218315 24.696129
v -31.022348 22.483030 -5.418623
v -16.261093 33.580620 -9.782844
v -28.524498 24.742804 -9.442545
v -9.713831 36.218315 24.696129
v -9.713831 36.218315 24.696129
v -28.524498 24.742804 -9.442545
v -31.022348 22.483030 -5.418623
v -30.613974 17.721939 6.747436
v -31.022348 22.483030 -5.418623
v -38.634117 13.294496 -17.810032
v -30.613974 17.721939 6.747436
v -38.659180 13.260880 -17.894674
v -30.599716 16.954960 6.355315
v -30.613974 17.721939 6.747436
v -38.634117 13.294496 -17.810032
v -38.659180 13.260880 -17.894674
v -28.524498 24.742804 -9.442545
v -38.659180 13.260880 -17.894674
v -31.022348 22.483030 -5.418623
v -31.022348 22.483030 -5.418623
v -38.659180 13.260880 -17.894674
v -38.634117 13.294496 -17.810032
v -28.524498 24.742804 -9.442545
v -38.665882 13.251170 -17.921577
v -38.659180 13.260880 -17.894674
v -7.923243 38.204689 1.782870
v -9.713831 36.218315 24.696129
v 14.473449 -15.234705 -19.326893
v -7.923243 38.204689 1.782870
v 14.473449 -15.234705 -19.326893
v -7.875827 38.139927 0.572055
v -7.971334 38.335892 0.617786
v 2.463299 10.853986 -48.236397
v -0.013045 14.137930 -50.582451
v -7.875827 38.139927 0.572055
v 2.516857 10.774199 -48.164249
v -7.971334 38.335892 0.617786
v -7.971334 38.335892 0.617786
v 2.516857 10.774199 -48.164249
v 2.463299 10.853986 -48.236397
v 14.473449 -15.234705 -19.326893
v 2.516857 10.774199 -48.164249
v -7.875827 38.139927 0.572055
v -16.261093 33.580620 -9.782844
v -15.224917 26.874224 -30.843712
v -28.524498 24.742804 -9.442545
v -28.524498 24.742804 -9.442545
v -15.224917 26.874224 -30.843712
v -38.665882 13.251170 -17.921577
v -7.971334 38.335892 0.617786
v -15.224917 26.874224 -30.843712
v -16.261093 33.580620 -9.782844
v -7.971334 38.335892 0.617786
v -0.013045 14.137930 -50.582451
v -15.214107 26.868744 -30.856375
v -7.971334 38.335892 0.617786
v -15.214107 26.868744 -30.856375
v -15.224917 26.874224 -30.843712
v -38.659180 13.260880 -17.894674
v -35.897026 5.421818 -15.212872
v -30.599716 16.954960 6.355315
v -38.665882 13.251170 -17.921577
v -35.897026 5.421818 -15.212872
v -38.659180 13.260880 -17.894674
v -0.013045 14.137930 -50.582451
v -9.243693 10.798205 -50.661091
v -15.214107 26.868744 -30.856375
v -15.214107 26.868744 -30.856375
v -9.243693 10.798205 -50.661091
v -15.224917 26.874224 -30.843712
v -38.665882 13.251170 -17.921577
v -37.243439 -5.667171 -30.512356
v -35.897026 5.421818 -15.212872
v -9.713831 36.218315 24.696129
v 4.784996 -9.727751 -6.813528
v 14.473449 -15.234705 -19.326893
v 14.473449 -15.234705 -19.326893
v 5.172904 -23.500250 -16.054979
v 4.108650 -33.626434 -24.792059
v 4.784996 -9.727751 -6.813528
v 5.172904 -23.500250 -16.054979
v 14.473449 -15.234705 -19.326893
v 3.860863 -33.673737 -24.700125
v 4.108650 -33.626434 -24.792059
v 5.172904 -23.500250 -16.054979
v 3.860863 -33.673737 -24.700125
v -2.036663 -35.759293 -26.450682
v 4.108650 -33.626434 -24.792059
v -15.224917 26.874224 -30.843712
v -26.905313 5.621553 -39.187386
v -38.665882 13.251170 -17.921577
v -9.243693 10.798205 -50.661091
v -26.905313 5.621553 -39.187386
v -15.224917 26.874224 -30.843712
v -38.665882 13.251170 -17.921577
v -26.905313 5.621553 -39.187386
v -37.243439 -5.667171 -30.512356
v -30.613974 17.721939 6.747436
v -25.057112 -25.820616 -7.868119
v -9.713831 36.218315 24.696129
v -30.613974 17.721939 6.747436
v -30.599716 16.954960 6.355315
v -25.057112 -25.820616 -7.868119
v -35.897026 5.421818 -15.212872
v -25.057112 -25.820616 -7.868119
v -30.599716 16.954960 6.355315
v -37.243439 -5.667171 -30.512356
v -25.057112 -25.820616 -7.868119
v -35.897026 5.421818 -15.212872
v -9.713831 36.218315 24.696129
v -25.057112 -25.820616 -7.868119
v 4.784996 -9.727751 -6.813528
v 4.784996 -9.727751 -6.813528
v -25.057112 -25.820616 -7.868119
v 5.172904 -23.500250 -16.054979
v 3.860863 -33.673737 -24.700125
v 5.172904 -23.500250 -16.054979
v -25.057112 -25.820616 -7.868119
v 14.473449 -15.234705 -19.326893
v 2.788077 -13.779912 -38.685654
v 2.516857 10.774199 -48.164249
v 14.473449 -15.234705 -19.326893
v 4.108650 -33.626434 -24.792059
v 2.788077 -13.779912 -38.685654
v 2.516857 10.774199 -48.164249
v 2.788077 -13.779912 -38.685654
v 2.463299 10.853986 -48.236397
v -2.036663 -35.759293 -26.450682
v 2.788077 -13.779912 -38.685654
v 4.108650 -33.626434 -24.792059
v -37.243439 -5.667171 -30.512356
v -24.441792 -31.773447 -17.699541
v -25.057112 -25.820616 -7.868119
v 3.860863 -33.673737 -24.700125
v -10.595284 -34.647644 -21.467237
v -2.036663 -35.759293 -26.450682
v 3.860863 -33.673737 -24.700125
v -25.057112 -25.820616 -7.868119
v -10.595284 -34.647644 -21.467237
v -24.441792 -31.773447 -17.699541
v -10.595284 -34.647644 -21.467237
v -25.057112 -25.820616 -7.868119
v -37.243439 -5.667171 -30.512356
v -26.792437 -25.738085 -29.028261
v -24.441792 -31.773447 -17.699541
v -10.595284 -34.647644 -21.467237
v -23.384420 -29.762451 -28.037926
v -2.036663 -35.759293 -26.450682
v -24.441792 -31.773447 -17.699541
v -23.384420 -29.762451 -28.037926
v -10.595284 -34.647644 -21.467237
v -26.792437 -25.738085 -29.028261
v -23.384420 -29.762451 -28.037926
v -24.441792 -31.773447 -17.699541
v -9.243693 10.798205 -50.661091
v -22.564699 -2.203370 -43.884823
v -26.905313 5.621553 -39.187386
v -26.905313 5.621553 -39.187386
v -22.564699 -2.203370 -43.884823
v -37.243439 -5.667171 -30.512356
v -26.792437 -25.738085 -29.028261
v -24.031954 -27.241520 -31.343889
v -23.384420 -29.762451 -28.037926
v 2.463299 10.853986 -48.236397
v -11.521318 -6.996369 -47.643661
v -0.013045 14.137930 -50.582451
v 2.788077 -13.779912 -38.685654
v -11.521318 -6.996369 -47.643661
v 2.463299 10.853986 -48.236397
v -0.013045 14.137930 -50.582451
v -11.521318 -6.996369 -47.643661
v -9.243693 10.798205 -50.661091
v -9.243693 10.798205 -50.661091
v -11.521318 -6.996369 -47.643661
v -22.564699 -2.203370 -43.884823
v -37.243439 -5.667171 -30.512356
v -24.336048 -25.208586 -32.697540
v -26.792437 -25.738085 -29.028261
v -26.792437 -25.738085 -29.028261
v -24.336048 -25.208586 -32.697540
v -24.031954 -27.241520 -31.343889
v -23.384420 -29.762451 -28.037926
v -18.537292 -28.504017 -31.515404
v -2.036663 -35.759293 -26.450682
v -24.031954 -27.241520 -31.343889
v -18.537292 -28.504017 -31.515404
v -23.384420 -29.762451 -28.037926
v -22.564699 -2.203370 -43.884823
v -18.173216 -13.625478 -43.905506
v -37.243439 -5.667171 -30.512356
v -37.243439 -5.667171 -30.512356
v -18.173216 -13.625478 -43.905506
v -24.336048 -25.208586 -32.697540
v -11.521318 -6.996369 -47.643661
v -18.173216 -13.625478 -43.905506
v -22.564699 -2.203370 -43.884823
v -24.336048 -25.208586 -32.697540
v -16.096952 -19.326124 -42.356033
v -24.031954 -27.241520 -31.343889
v -18.173216 -13.625478 -43.905506
v -16.096952 -19.326124 -42.356033
v -24.336048 -25.208586 -32.697540
v -11.521318 -6.996369 -47.643661
v -16.096952 -19.326124 -42.356033
v -18.173216 -13.625478 -43.905506
v -2.036663 -35.759293 -26.450682
v -14.812281 -19.581112 -42.278316
v 2.788077 -13.779912 -38.685654
v 2.788077 -13.779912 -38.685654
v -14.812281 -19.581112 -42.278316
v -11.521318 -6.996369 -47.643661
v -11.521318 -6.996369 -47.643661
v -14.812281 -19.581112 -42.278316
v -16.096952 -19.326124 -42.356033
v -24.031954 -27.241520 -31.343889
v -17.464642 -23.619535 -38.061020
v -18.537292 -28.504017 -31.515404
v -16.096952 -19.326124 -42.356033
v -17.464642 -23.619535 -38.061020
v -24.031954 -27.241520 -31.343889
v -18.537292 -28.504017 -31.515404
v -17.464642 -23.619535 -38.061020
v -2.036663 -35.759293 -26.450682
v -2.036663 -35.759293 -26.450682
v -17.464642 -23.619535 -38.061020
v -14.812281 -19.581112 -42.278316
v -14.812281 -19.581112 -42.278316
v -17.464642 -23.619535 -38.061020
v -16.096952 -19.326124 -42.356033
vn 0.211034 0.972270 0.100779
vn -0.446063 0.893802 0.046325
vn 0.899952 0.435826 0.011932
vn -0.533323 0.845119 0.036620
vn -0.386488 0.915640 -0.110591
vn -0.755609 0.600973 0.260549
vn -0.583078 0.810956 0.048682
vn -0.606755 0.791965 0.068112
vn -0.871181 0.446570 0.204005
vn -0.922958 -0.188675 0.335486
vn -0.935102 -0.131459 0.329093
vn -0.724305 0.686495 -0.064088
vn -0.733494 0.677706 -0.051967
vn -0.722492 0.687997 -0.068303
vn 0.931225 0.349563 0.103076
vn 0.924373 0.381163 0.015812
vn 0.833085 0.538800 -0.125154
vn 0.891421 0.448917 -0.061980
vn 0.863838 0.494939 -0.093913
vn 0.918693 0.394155 -0.025415
vn -0.567113 0.776336 -0.275110
vn -0.596804 0.745545 -0.296627
vn -0.154037 0.939269 -0.306669
vn 0.249908 0.889854 -0.381714
vn 0.058921 0.933513 -0.353670
vn -0.918215 -0.208285 0.336897
vn -0.925006 -0.219940 0.309824
vn -0.252311 0.712772 -0.654442
vn -0.433088 0.631589 -0.643063
vn -0.935535 -0.241749 0.257549
vn 0.721060 -0.222471 0.656186
vn 0.658820 -0.529950 0.533956
vn 0.613721 -0.427925 0.663496
vn 0.373213 -0.628239 0.682662
vn 0.263639 -0.937200 0.228365
vn -0.625137 0.557879 -0.545870
vn -0.562149 0.551067 -0.616696
vn -0.784324 0.301756 -0.542014
vn -0.424331 -0.336350 0.840721
vn -0.816911 -0.274516 0.507245
vn -0.908081 -0.233308 0.347788
vn -0.927739 -0.258628 0.269097
vn 0.238500 -0.496943 0.834365
vn 0.259039 -0.533133 0.805399
vn 0.245352 -0.645935 0.722891
vn 0.834013 -0.190657 -0.517756
vn 0.805699 -0.302780 -0.509091
vn 0.591918 -0.284564 -0.754093
vn 0.384951 -0.511969 -0.767919
vn -0.915161 -0.367628 0.165318
vn 0.164533 -0.864269 0.475361
vn 0.198569 -0.712118 0.673393
vn -0.037282 -0.855851 0.515876
vn -0.883172 -0.464624 -0.064275
vn -0.249000 -0.943859 -0.217091
vn -0.253081 -0.944467 -0.209599
vn -0.722172 -0.661404 -0.202516
vn -0.570967 0.165946 -0.804026
vn -0.680053 0.061350 -0.730592
vn -0.663249 -0.652060 -0.367312
vn 0.382605 -0.328422 -0.863570
vn 0.383879 -0.329389 -0.862636
vn 0.071932 -0.175693 -0.981813
vn -0.362872 -0.110452 -0.925270
vn -0.725740 -0.418283 -0.546205
vn -0.703905 -0.463612 -0.538129
vn -0.186739 -0.811367 -0.553907
vn -0.201005 -0.797544 -0.568789
vn -0.622781 -0.238093 -0.745289
vn -0.631328 -0.339005 -0.697496
vn -0.373625 -0.141989 -0.916648
vn -0.448126 -0.540946 -0.711731
vn -0.561703 -0.401241 -0.723530
vn -0.197632 -0.323499 -0.925359
vn 0.330846 -0.513393 -0.791813
vn 0.316744 -0.440877 -0.839822
vn -0.021139 -0.387412 -0.921664
vn -0.195925 -0.770258 -0.606890
vn -0.404487 -0.579182 -0.707770
vn -0.156270 -0.779159 -0.607034
vn -0.031998 -0.711759 -0.701695
vn -0.093312 -0.689139 -0.718596
f 1//1 2//1 3//1
f 4//2 5//2 6//2
f 7//3 8//3 9//3
f 10//4 11//4 12//4
f 13//5 14//5 15//5
f 16//6 17//6 18//6
f 19//7 20//7 21//7
f 22//8 23//8 24//8
f 25//9 26//9 27//9
f 28//10 29//10 30//10
f 31//11 32//11 33//11
f 34//12 35//12 36//12
f 37//13 38//13 39//13
f 40//14 41//14 42//14
f 43//15 44//15 45//15
f 46//16 47//16 48//16
f 49//17 50//17 51//17
f 52//18 53//18 54//18
f 55//19 56//19 57//19
f 58//20 59//20 60//20
f 61//21 62//21 63//21
f 64//22 65//22 66//22
f 67//23 68//23 69//23
f 70//24 71//24 72//24
f 73//25 74//25 75//25
f 76//26 77//26 78//26
f 79//27 80//27 81//27
f 82//28 83//28 84//28
f 85//29 86//29 87//29
f 88//30 89//30 90//30
f 91//31 92//31 93//31
f 94//32 95//32 96//32
f 97//33 98//33 99//33
f 100//34 101//34 102//34
f 103//35 104//35 105//35
f 106//36 107//36 108//36
f 109//37 110//37 111//37
f 112//38 113//38 114//38
f 115//39 116//39 117//39
f 118//40 119//40 120//40
f 121//41 122//41 123//41
f 124//42 125//42 126//42
f 127//43 128//43 129//43
f 130//44 131//44 132//44
f 133//45 134//45 135//45
f 136//46 137//46 138//46
f 139//47 140//47 141//47
f 142//48 143//48 144//48
f 145//49 146//49 147//49
f 148//50 149//50 150//50
f 151//51 152//51 153//51
f 154//52 155//52 156//52
f 157//53 158//53 159//53
f 160//54 161//54 162//54
f 163//55 164//55 165//55
f 166//56 167//56 168//56
f 169//57 170//57 171//57
f 172//58 173//58 174//58
f 175//59 176//59 177//59
f 178//60 179//60 180//60
f 181//61 182//61 183//61
f 184//62 185//62 186//62
f 187//63 188//63 189//63
f 190//64 191//64 192//64
f 193//65 194//65 195//65
f 196//66 197//66 198//66
f 199//67 200//67 201//67
f 202//68 203//68 204//68
f 205//69 206//69 207//69
f 208//70 209//70 210//70
f 211//71 212//71 213//71
f 214//72 215//72 216//72
f 217//73 218//73 219//73
f 220//74 221//74 222//74
f 223//75 224//75 225//75
f 226//76 227//76 228//76
f 229//77 230//77 231//77
f 232//78 233//78 234//78
f 235//79 236//79 237//79
f 238//80 239//80 240//80
f 241//81 242//81 243//81
f 244//82 245//82 246//82
