o
v 32.942722 15.118443 17.068050
v 15.181508 18.580894 32.261467
v -2.679580 -21.241392 -4.694912
v 32.942722 15.118443 17.068050
v 16.018772 24.880583 30.176819
v 15.181508 18.580894 32.261467
v -20.396528 33.603199 -11.466990
v -20.821396 33.228413 -12.178794
v -15.525208 29.555943 -1.617117
v -2.679580 -21.241392 -4.694912
v -15.525208 29.555943 -1.617117
v -20.821396 33.228413 -12.178794
v -2.679580 -21.241392 -4.694912
v -20.821396 33.228413 -12.178794
v -10.275059 12.027447 -34.764122
v -20.821396 33.228413 -12.178794
v -17.817381 29.477800 -17.662584
v -10.275059 12.027447 -34.764122
v -2.679580 -21.241392 -4.694912
v -10.275059 12.027447 -34.764122
v 3.019961 3.460830 -47.012478
v -20.396528 33.603199 -11.466990
v -15.525208 29.555943 -1.617117
v -0.354201 39.347572 2.613937
v 32.942722 15.118443 17.068050
v -2.679580 -21.241392 -4.694912
v 19.469908 -5.942419 -13.122321
v -2.679580 -21.241392 -4.694912
v 3.019961 3.460830 -47.012478
v 19.469908 -5.942419 -13.122321
v 32.942722 15.118443 17.068050
v 19.469908 -5.942419 -13.122321
v 24.751665 1.576050 -14.539354
v 3.019961 3.460830 -47.012478
v 21.216583 0.445018 -23.239069
v 19.469908 -5.942419 -13.122321
v 19.469908 -5.942419 -13.122321
v 21.216583 0.445018 -23.239069
v 24.751665 1.576050 -14.539354
v 32.942722 15.118443 17.068050
v 21.384888 32.030029 -19.422728
v 16.018772 24.880583 30.176819
v 16.018772 24.880583 30.176819
v 21.384888 32.030029 -19.422728
v -0.354201 39.347572 2.613937
v 15.181508 18.580894 32.261467
v -7.232457 21.716824 13.141654
v -2.679580 -21.241392 -4.694912
v 16.018772 24.880583 30.176819
v -7.232457 21.716824 13.141654
v 15.181508 18.580894 32.261467
v -15.525208 29.555943 -1.617117
v -7.232457 21.716824 13.141654
v -0.354201 39.347572 2.613937
v 16.018772 24.880583 30.176819
v -0.354201 39.347572 2.613937
v -7.232457 21.716824 13.141654
v -20.396528 33.603199 -11.466990
v 7.271258 37.104343 -24.691198
v -20.821396 33.228413 -12.178794
v -20.821396 33.228413 -12.178794
v 7.271258 37.104343 -24.691198
v -17.817381 29.477800 -17.662584
v -17.817381 29.477800 -17.662584
v 7.271258 37.104343 -24.691198
v -10.275059 12.027447 -34.764122
v -10.275059 12.027447 -34.764122
v 7.271258 37.104343 -24.691198
v 3.019961 3.460830 -47.012478
v -20.396528 33.603199 -11.466990
v -0.354201 39.347572 2.613937
v 7.271258 37.104343 -24.691198
v 21.384888 32.030029 -19.422728
v 7.271258 37.104343 -24.691198
v -0.354201 39.347572 2.613937
v 32.942722 15.118443 17.068050
v 24.751665 1.576050 -14.539354
v 24.894150 4.764777 -17.107519
v 32.942722 15.118443 17.068050
v 22.084087 6.984107 -27.664225
v 21.384888 32.030029 -19.422728
v 32.942722 15.118443 17.068050
v 24.894150 4.764777 -17.107519
v 22.084087 6.984107 -27.664225
v 21.216583 0.445018 -23.239069
v 22.084087 6.984107 -27.664225
v 24.751665 1.576050 -14.539354
v 24.751665 1.576050 -14.539354
v 22.084087 6.984107 -27.664225
v 24.894150 4.764777 -17.107519
v 3.019961 3.460830 -47.012478
v 22.084087 6.984107 -27.664225
v 21.216583 0.445018 -23.239069
v -2.679580 -21.241392 -4.694912
v -7.245473 19.250244 11.706295
v -15.525208 29.555943 -1.617117
v -7.232457 21.716824 13.141654
v -7.245473 19.250244 11.706295
v -2.679580 -21.241392 -4.694912
v -15.525208 29.555943 -1.617117
v -7.245473 19.250244 11.706295
v -7.232457 21.716824 13.141654
v 22.084087 6.984107 -27.664225
v 15.627699 19.381359 -30.856049
v 21.384888 32.030029 -19.422728
v 3.019961 3.460830 -47.012478
v 15.627699 19.381359 -30.856049
v 22.084087 6.984107 -27.664225
v 7.271258 37.104343 -24.691198
v 12.439242 22.897411 -31.034912
v 3.019961 3.460830 -47.012478
v 3.019961 3.460830 -47.012478
v 12.439242 22.897411 -31.034912
v 15.627699 19.381359 -30.856049
v 21.384888 32.030029 -19.422728
v 12.439242 22.897411 -31.034912
v 7.271258 37.104343 -24.691198
v 15.627699 19.381359 -30.856049
v 12.439242 22.897411 -31.034912
v 21.384888 32.030029 -19.422728
vn 0.368082 -0.715802 0.593416
vn 0.659464 0.155717 0.735431
vn -0.876088 0.095636 0.472571
vn -0.897673 -0.249031 0.363549
vn -0.935571 -0.329172 -0.127874
vn -0.770217 0.244415 -0.589090
vn -0.731123 -0.541739 -0.414703
vn -0.558196 0.633155 0.536220
vn 0.612831 -0.749772 0.249560
vn 0.401757 -0.813393 -0.420695
vn 0.820662 -0.570530 0.031773
vn 0.427970 -0.795745 -0.428522
vn 0.773167 -0.587959 -0.237733
vn 0.591213 0.786770 0.177370
vn 0.469237 0.865454 0.175516
vn -0.635372 -0.352591 0.687010
vn -0.587474 0.323535 0.741754
vn -0.542492 0.576499 0.611026
vn -0.532215 0.577365 0.619191
vn -0.267537 0.909199 -0.319031
vn -0.381730 0.652043 -0.655074
vn -0.376928 0.560070 -0.737731
vn -0.347288 0.548518 -0.760604
vn -0.186296 0.973585 -0.132011
vn 0.333133 0.942751 0.015583
vn 0.967945 -0.182353 -0.172713
vn 0.961081 0.110192 -0.253338
vn 0.967688 0.057853 -0.245424
vn 0.887955 -0.332702 -0.317562
vn 0.910098 -0.283835 -0.301927
vn 0.668330 -0.475679 -0.571896
vn -0.897127 -0.248976 0.364929
vn -0.792520 -0.303599 0.528904
vn -0.895696 -0.220110 0.386368
vn 0.745593 0.226985 -0.626553
vn 0.685243 0.174838 -0.707018
vn 0.353814 0.485636 -0.799358
vn 0.486631 0.401830 -0.775708
vn 0.454492 0.495770 -0.740033
vn 0.517721 0.431915 -0.738522
f 1//1 2//1 3//1
f 4//2 5//2 6//2
f 7//3 8//3 9//3
f 10//4 11//4 12//4
f 13//5 14//5 15//5
f 16//6 17//6 18//6
f 19//7 20//7 21//7
f 22//8 23//8 24//8
f 25//9 26//9 27//9
f 28//10 29//10 30//10
f 31//11 32//11 33//11
f 34//12 35//12 36//12
f 37//13 38//13 39//13
f 40//14 41//14 42//14
f 43//15 44//15 45//15
f 46//16 47//16 48//16
f 49//17 50//17 51//17
f 52//18 53//18 54//18
f 55//19 56//19 57//19
f 58//20 59//20 60//20
f 61//21 62//21 63//21
f 64//22 65//22 66//22
f 67//23 68//23 69//23
f 70//24 71//24 72//24
f 73//25 74//25 75//25
f 76//26 77//26 78//26
f 79//27 80//27 81//27
f 82//28 83//28 84//28
f 85//29 86//29 87//29
f 88//30 89//30 90//30
f 91//31 92//31 93//31
f 94//32 95//32 96//32
f 97//33 98//33 99//33
f 100//34 101//34 102//34
f 103//35 104//35 105//35
f 106//36 107//36 108//36
f 109//37 110//37 111//37
f 112//38 113//38 114//38
f 115//39 116//39 117//39
f 118//40 119//40 120//40
