o
v 14.837295 -0.853887 38.872890
v 24.392883 11.260694 39.584454
v 12.993118 9.582030 38.114529
v 14.837295 -0.853887 38.872890
v 12.993118 9.582030 38.114529
v 9.443286 -41.177670 -16.308123
v 14.837295 -0.853887 38.872890
v 23.928974 4.261588 39.459900
v 24.392883 11.260694 39.584454
v 14.837295 -0.853887 38.872890
v 23.005526 1.195320 39.048706
v 23.928974 4.261588 39.459900
v 23.928974 4.261588 39.459900
v 28.802351 6.323607 39.462330
v 24.392883 11.260694 39.584454
v 23.005526 1.195320 39.048706
v 28.802351 6.323607 39.462330
v 23.928974 4.261588 39.459900
v 28.802351 6.323607 39.462330
v 47.061272 9.100488 25.219612
v 24.392883 11.260694 39.584454
v 47.061272 9.100488 25.219612
v 47.014912 9.158146 25.156305
v 24.392883 11.260694 39.584454
v 14.837295 -0.853887 38.872890
v 9.443286 -41.177670 -16.308123
v 14.318174 -36.659279 8.671765
v 24.392883 11.260694 39.584454
v 22.417097 11.410005 3.378963
v 12.993118 9.582030 38.114529
v 12.993118 9.582030 38.114529
v 15.701753 -14.928379 -23.329964
v 9.443286 -41.177670 -16.308123
v 22.417097 11.410005 3.378963
v 15.701753 -14.928379 -23.329964
v 12.993118 9.582030 38.114529
v 47.014912 9.158146 25.156305
v 24.204073 11.289357 3.112932
v 24.392883 11.260694 39.584454
v 24.392883 11.260694 39.584454
v 24.204073 11.289357 3.112932
v 22.417097 11.410005 3.378963
v 14.837295 -0.853887 38.872890
v 14.318174 -36.659279 8.671765
v 22.208927 -43.462250 12.072145
v 9.443286 -41.177670 -16.308123
v 22.208927 -43.462250 12.072145
v 14.318174 -36.659279 8.671765
v 15.701753 -14.928379 -23.329964
v 27.980165 -15.006640 -33.652107
v 9.443286 -41.177670 -16.308123
v 9.548914 -41.192509 -16.366232
v 9.443286 -41.177670 -16.308123
v 27.980165 -15.006640 -33.652107
v 24.204073 11.289357 3.112932
v 27.980165 -15.006640 -33.652107
v 22.417097 11.410005 3.378963
v 9.548914 -41.192509 -16.366232
v 10.843486 -41.233212 -16.063534
v 29.174297 -47.402290 0.684591
v 10.843486 -41.233212 -16.063534
v 19.969173 -42.798744 -9.580951
v 29.174297 -47.402290 0.684591
v 9.443286 -41.177670 -16.308123
v 29.174297 -47.402290 0.684591
v 22.208927 -43.462250 12.072145
v 9.548914 -41.192509 -16.366232
v 29.174297 -47.402290 0.684591
v 9.443286 -41.177670 -16.308123
v 22.417097 11.410005 3.378963
v 23.171791 -11.698538 -26.478466
v 15.701753 -14.928379 -23.329964
v 15.701753 -14.928379 -23.329964
v 23.171791 -11.698538 -26.478466
v 27.980165 -15.006640 -33.652107
v 27.980165 -15.006640 -33.652107
v 23.171791 -11.698538 -26.478466
v 22.417097 11.410005 3.378963
v 9.548914 -41.192509 -16.366232
v 27.980165 -15.006640 -33.652107
v 28.641581 -20.322096 -32.664726
v 9.548914 -41.192509 -16.366232
v 28.641581 -20.322096 -32.664726
v 10.843486 -41.233212 -16.063534
v 10.843486 -41.233212 -16.063534
v 28.641581 -20.322096 -32.664726
v 19.969173 -42.798744 -9.580951
v 19.969173 -42.798744 -9.580951
v 28.641581 -20.322096 -32.664726
v 29.174297 -47.402290 0.684591
v 29.174297 -47.402290 0.684591
v 30.540670 -39.040092 11.551444
v 22.208927 -43.462250 12.072145
v 22.208927 -43.462250 12.072145
v 30.540670 -39.040092 11.551444
v 30.536728 -39.040257 11.553720
v 14.837295 -0.853887 38.872890
v 34.094074 -16.254894 28.222984
v 23.005526 1.195320 39.048706
v 14.837295 -0.853887 38.872890
v 22.208927 -43.462250 12.072145
v 34.094074 -16.254894 28.222984
v 23.005526 1.195320 39.048706
v 34.094074 -16.254894 28.222984
v 28.802351 6.323607 39.462330
v 22.208927 -43.462250 12.072145
v 30.536728 -39.040257 11.553720
v 34.094074 -16.254894 28.222984
v 28.802351 6.323607 39.462330
v 39.996830 -11.423515 25.828085
v 47.061272 9.100488 25.219612
v 34.094074 -16.254894 28.222984
v 39.996830 -11.423515 25.828085
v 28.802351 6.323607 39.462330
v 27.980165 -15.006640 -33.652107
v 41.180065 -15.949040 -23.256844
v 28.641581 -20.322096 -32.664726
v 38.561146 -13.964293 -24.127548
v 41.180065 -15.949040 -23.256844
v 27.980165 -15.006640 -33.652107
v 47.014912 9.158146 25.156305
v 45.929569 -7.328337 -10.846244
v 24.204073 11.289357 3.112932
v 24.204073 11.289357 3.112932
v 45.929569 -7.328337 -10.846244
v 27.980165 -15.006640 -33.652107
v 47.061272 9.100488 25.219612
v 45.929569 -7.328337 -10.846244
v 47.014912 9.158146 25.156305
v 38.561146 -13.964293 -24.127548
v 45.929569 -7.328337 -10.846244
v 41.180065 -15.949040 -23.256844
v 47.061272 9.100488 25.219612
v 48.062424 -13.265099 -11.755305
v 45.929569 -7.328337 -10.846244
v 47.061272 9.100488 25.219612
v 50.223221 -20.438314 0.301625
v 48.062424 -13.265099 -11.755305
v 28.641581 -20.322096 -32.664726
v 40.127201 -20.493456 -22.992817
v 29.174297 -47.402290 0.684591
v 41.180065 -15.949040 -23.256844
v 40.127201 -20.493456 -22.992817
v 28.641581 -20.322096 -32.664726
v 40.127201 -20.493456 -22.992817
v 40.682262 -20.534691 -22.374086
v 29.174297 -47.402290 0.684591
v 41.180065 -15.949040 -23.256844
v 40.682262 -20.534691 -22.374086
v 40.127201 -20.493456 -22.992817
v 38.561146 -13.964293 -24.127548
v 27.980165 -15.006640 -33.652107
v 39.986618 -11.223074 -20.212719
v 45.929569 -7.328337 -10.846244
v 39.986618 -11.223074 -20.212719
v 27.980165 -15.006640 -33.652107
v 38.561146 -13.964293 -24.127548
v 39.986618 -11.223074 -20.212719
v 45.929569 -7.328337 -10.846244
v 45.929569 -7.328337 -10.846244
v 44.128716 -13.649673 -17.580610
v 41.180065 -15.949040 -23.256844
v 48.062424 -13.265099 -11.755305
v 44.128716 -13.649673 -17.580610
v 45.929569 -7.328337 -10.846244
v 48.062424 -13.265099 -11.755305
v 41.180065 -15.949040 -23.256844
v 44.128716 -13.649673 -17.580610
v 41.180065 -15.949040 -23.256844
v 43.916130 -19.617445 -18.893394
v 40.682262 -20.534691 -22.374086
v 48.062424 -13.265099 -11.755305
v 43.916130 -19.617445 -18.893394
v 41.180065 -15.949040 -23.256844
v 50.223221 -20.438314 0.301625
v 43.916130 -19.617445 -18.893394
v 48.062424 -13.265099 -11.755305
v 47.061272 9.100488 25.219612
v 48.993244 -17.170559 6.048816
v 50.223221 -20.438314 0.301625
v 34.094074 -16.254894 28.222984
v 42.939903 -17.720987 19.332067
v 39.996830 -11.423515 25.828085
v 39.996830 -11.423515 25.828085
v 42.939903 -17.720987 19.332067
v 47.061272 9.100488 25.219612
v 30.540670 -39.040092 11.551444
v 37.673370 -22.658281 20.985939
v 30.536728 -39.040257 11.553720
v 30.536728 -39.040257 11.553720
v 37.673370 -22.658281 20.985939
v 34.094074 -16.254894 28.222984
v 34.094074 -16.254894 28.222984
v 37.673370 -22.658281 20.985939
v 42.939903 -17.720987 19.332067
v 47.061272 9.100488 25.219612
v 47.229580 -18.813683 9.748521
v 48.993244 -17.170559 6.048816
v 42.939903 -17.720987 19.332067
v 47.229580 -18.813683 9.748521
v 47.061272 9.100488 25.219612
v 48.993244 -17.170559 6.048816
v 47.229580 -18.813683 9.748521
v 50.223221 -20.438314 0.301625
v 40.682262 -20.534691 -22.374086
v 38.071594 -28.253244 -14.898313
v 29.174297 -47.402290 0.684591
v 43.916130 -19.617445 -18.893394
v 38.071594 -28.253244 -14.898313
v 40.682262 -20.534691 -22.374086
v 43.916130 -19.617445 -18.893394
v 29.174297 -47.402290 0.684591
v 38.071594 -28.253244 -14.898313
v 30.540670 -39.040092 11.551444
v 42.890850 -29.959923 7.061950
v 37.673370 -22.658281 20.985939
v 37.673370 -22.658281 20.985939
v 42.890850 -29.959923 7.061950
v 42.939903 -17.720987 19.332067
v 29.174297 -47.402290 0.684591
v 42.890850 -29.959923 7.061950
v 30.540670 -39.040092 11.551444
v 47.229580 -18.813683 9.748521
v 42.890850 -29.959923 7.061950
v 50.223221 -20.438314 0.301625
v 50.223221 -20.438314 0.301625
v 42.890850 -29.959923 7.061950
v 45.363972 -27.608761 0.761258
v 45.363972 -27.608761 0.761258
v 42.890850 -29.959923 7.061950
v 29.174297 -47.402290 0.684591
v 42.939903 -17.720987 19.332067
v 43.404678 -25.818508 10.516405
v 47.229580 -18.813683 9.748521
v 42.890850 -29.959923 7.061950
v 43.404678 -25.818508 10.516405
v 42.939903 -17.720987 19.332067
v 47.229580 -18.813683 9.748521
v 43.404678 -25.818508 10.516405
v 42.890850 -29.959923 7.061950
v 43.916130 -19.617445 -18.893394
v 43.659683 -27.712412 -5.039155
v 29.174297 -47.402290 0.684591
v 45.363972 -27.608761 0.761258
v 29.174297 -47.402290 0.684591
v 43.659683 -27.712412 -5.039155
v 50.223221 -20.438314 0.301625
v 43.659683 -27.712412 -5.039155
v 43.916130 -19.617445 -18.893394
v 50.223221 -20.438314 0.301625
v 45.363972 -27.608761 0.761258
v 43.659683 -27.712412 -5.039155
vn -0.134703 0.048117 0.989717
vn -0.965674 -0.155530 0.208050
vn -0.056570 -0.014016 0.998300
vn 0.012985 -0.136742 0.990522
vn 0.007233 -0.018272 0.999807
vn 0.063581 -0.151430 0.986421
vn 0.510649 0.437772 0.739995
vn 0.370007 0.805582 0.462744
vn -0.960920 -0.170212 0.218314
vn -0.147201 0.989032 0.012112
vn -0.972317 0.199111 -0.122288
vn -0.872645 0.439143 -0.213644
vn 0.092735 0.995691 0.000302
vn 0.067426 0.997724 0.000435
vn -0.661263 -0.478037 0.578110
vn -0.692191 -0.674380 0.257066
vn -0.642842 -0.051182 -0.764287
vn -0.493741 -0.209599 -0.843972
vn -0.032107 0.811382 -0.583634
vn 0.066901 -0.910292 -0.408524
vn 0.299963 -0.740707 -0.601145
vn -0.371224 -0.923914 0.092605
vn -0.202805 -0.971778 -0.120488
vn -0.514924 0.671563 -0.532781
vn -0.516657 0.591465 -0.619059
vn -0.356242 0.734550 -0.577519
vn -0.485054 -0.217684 -0.846957
vn 0.144689 -0.687841 -0.711294
vn 0.302664 -0.737197 -0.604099
vn 0.304281 -0.737103 -0.603400
vn 0.426186 -0.742047 0.517428
vn 0.393358 -0.666561 0.633218
vn 0.100970 -0.477360 0.872888
vn 0.049272 -0.525664 0.849264
vn 0.270687 -0.377404 0.885604
vn 0.357020 -0.587197 0.726454
vn 0.621612 -0.191442 0.759571
vn 0.542850 -0.268833 0.795640
vn 0.614128 -0.069611 -0.786130
vn 0.571171 0.453535 -0.684156
vn 0.446297 0.808465 -0.383671
vn 0.333047 0.782782 -0.525673
vn 0.865990 0.444264 -0.229546
vn 0.600762 0.530269 -0.598248
vn 0.913968 0.357695 -0.191618
vn 0.982719 0.168964 -0.075595
vn 0.463817 -0.684106 -0.562914
vn 0.630755 -0.189849 -0.752400
vn 0.528576 -0.671784 -0.518954
vn 0.721616 -0.205593 -0.661061
vn 0.490375 0.619878 -0.612604
vn 0.384077 0.740436 -0.551579
vn 0.580819 0.552172 -0.598127
vn 0.760629 0.359316 -0.540681
vn 0.763141 0.356683 -0.538881
vn 0.764933 0.351496 -0.539748
vn 0.743442 -0.203357 -0.637134
vn 0.855524 0.022825 -0.517260
vn 0.917134 -0.248082 -0.311961
vn 0.950629 -0.134258 0.279784
vn 0.611208 -0.411659 0.675990
vn 0.769631 -0.247460 0.588584
vn 0.424152 -0.583517 0.692534
vn 0.396062 -0.581634 0.710518
vn 0.606996 -0.421872 0.673483
vn 0.916348 -0.189849 0.352510
vn 0.878969 -0.227108 0.419328
vn 0.913645 -0.236995 0.330283
vn 0.583007 -0.658339 -0.476123
vn 0.642737 -0.633962 -0.430095
vn 0.662347 -0.633382 -0.400154
vn 0.618176 -0.576736 0.534074
vn 0.663414 -0.531091 0.527090
vn 0.631632 -0.650769 0.421356
vn 0.846267 -0.411092 0.338873
vn 0.825526 -0.551870 0.118097
vn 0.772170 -0.631840 0.067312
vn 0.817996 -0.401502 0.411920
vn 0.702783 -0.505081 0.500988
vn 0.831330 -0.413191 0.371704
vn 0.703697 -0.619055 -0.348685
vn 0.756967 -0.618325 -0.211364
vn 0.806469 -0.516900 -0.287094
vn 0.799821 -0.556447 -0.225061
f 1//1 2//1 3//1
f 4//2 5//2 6//2
f 7//3 8//3 9//3
f 10//4 11//4 12//4
f 13//5 14//5 15//5
f 16//6 17//6 18//6
f 19//7 20//7 21//7
f 22//8 23//8 24//8
f 25//9 26//9 27//9
f 28//10 29//10 30//10
f 31//11 32//11 33//11
f 34//12 35//12 36//12
f 37//13 38//13 39//13
f 40//14 41//14 42//14
f 43//15 44//15 45//15
f 46//16 47//16 48//16
f 49//17 50//17 51//17
f 52//18 53//18 54//18
f 55//19 56//19 57//19
f 58//20 59//20 60//20
f 61//21 62//21 63//21
f 64//22 65//22 66//22
f 67//23 68//23 69//23
f 70//24 71//24 72//24
f 73//25 74//25 75//25
f 76//26 77//26 78//26
f 79//27 80//27 81//27
f 82//28 83//28 84//28
f 85//29 86//29 87//29
f 88//30 89//30 90//30
f 91//31 92//31 93//31
f 94//32 95//32 96//32
f 97//33 98//33 99//33
f 100//34 101//34 102//34
f 103//35 104//35 105//35
f 106//36 107//36 108//36
f 109//37 110//37 111//37
f 112//38 113//38 114//38
f 115//39 116//39 117//39
f 118//40 119//40 120//40
f 121//41 122//41 123//41
f 124//42 125//42 126//42
f 127//43 128//43 129//43
f 130//44 131//44 132//44
f 133//45 134//45 135//45
f 136//46 137//46 138//46
f 139//47 140//47 141//47
f 142//48 143//48 144//48
f 145//49 146//49 147//49
f 148//50 149//50 150//50
f 151//51 152//51 153//51
f 154//52 155//52 156//52
f 157//53 158//53 159//53
f 160//54 161//54 162//54
f 163//55 164//55 165//55
f 166//56 167//56 168//56
f 169//57 170//57 171//57
f 172//58 173//58 174//58
f 175//59 176//59 177//59
f 178//60 179//60 180//60
f 181//61 182//61 183//61
f 184//62 185//62 186//62
f 187//63 188//63 189//63
f 190//64 191//64 192//64
f 193//65 194//65 195//65
f 196//66 197//66 198//66
f 199//67 200//67 201//67
f 202//68 203//68 204//68
f 205//69 206//69 207//69
f 208//70 209//70 210//70
f 211//71 212//71 213//71
f 214//72 215//72 216//72
f 217//73 218//73 219//73
f 220//74 221//74 222//74
f 223//75 224//75 225//75
f 226//76 227//76 228//76
f 229//77 230//77 231//77
f 232//78 233//78 234//78
f 235//79 236//79 237//79
f 238//80 239//80 240//80
f 241//81 242//81 243//81
f 244//82 245//82 246//82
f 247//83 248//83 249//83
f 250//84 251//84 252//84
