o
v 111.186676 -207.626129 15.217579
v 111.909172 -207.423172 15.956515
v 107.094559 -209.251129 11.836407
v 107.094559 -209.251129 11.836407
v 111.909172 -207.423172 15.956515
v 111.816566 -207.457275 15.897935
v 106.387627 -209.212601 11.111383
v 137.671066 -145.120682 6.233786
v 107.094559 -209.251129 11.836407
v 111.186676 -207.626129 15.217579
v 107.094559 -209.251129 11.836407
v 137.671066 -145.120682 6.233786
v 111.186676 -207.626129 15.217579
v 137.671066 -145.120682 6.233786
v 111.909172 -207.423172 15.956515
v 106.387627 -209.212601 11.111383
v 129.766266 -137.037079 5.069601
v 137.671066 -145.120682 6.233786
v 129.766266 -137.037079 5.069601
v 143.846695 -133.794189 11.736650
v 137.671066 -145.120682 6.233786
v 129.766266 -137.037079 5.069601
v 218.132996 -88.281197 72.686211
v 143.846695 -133.794189 11.736650
v 143.846695 -133.794189 11.736650
v 218.132996 -88.281197 72.686211
v 137.671066 -145.120682 6.233786
v 137.671066 -145.120682 6.233786
v 218.132996 -88.281197 72.686211
v 111.909172 -207.423172 15.956515
v 129.766266 -137.037079 5.069601
v 47.972950 22.819626 221.697281
v 218.132996 -88.281197 72.686211
v 106.387627 -209.212601 11.111383
v 30.160437 -5.974576 195.010147
v 129.766266 -137.037079 5.069601
v 129.766266 -137.037079 5.069601
v 31.622967 -4.037932 194.888687
v 47.972950 22.819626 221.697281
v 47.972950 22.819626 221.697281
v 31.622967 -4.037932 194.888687
v 30.160437 -5.974576 195.010147
v 30.160437 -5.974576 195.010147
v 31.622967 -4.037932 194.888687
v 129.766266 -137.037079 5.069601
v 218.132996 -88.281197 72.686211
v 171.384979 -149.125549 75.541420
v 111.909172 -207.423172 15.956515
v 218.132996 -88.281197 72.686211
v 218.134750 -88.275429 72.721939
v 171.384979 -149.125549 75.541420
v 218.134750 -88.275429 72.721939
v 160.545715 -155.489105 92.286118
v 171.384979 -149.125549 75.541420
v 107.094559 -209.251129 11.836407
v 111.816566 -207.457275 15.897935
v 132.656174 -179.698669 102.309662
v 111.909172 -207.423172 15.956515
v 132.656174 -179.698669 102.309662
v 111.816566 -207.457275 15.897935
v 171.384979 -149.125549 75.541420
v 132.656174 -179.698669 102.309662
v 111.909172 -207.423172 15.956515
v 160.545715 -155.489105 92.286118
v 132.656174 -179.698669 102.309662
v 171.384979 -149.125549 75.541420
v 106.387627 -209.212601 11.111383
v 40.510502 -123.010117 188.280243
v 30.160437 -5.974576 195.010147
v 47.972950 22.819626 221.697281
v 30.160437 -5.974576 195.010147
v 40.510502 -123.010117 188.280243
v 106.387627 -209.212601 11.111383
v 107.094559 -209.251129 11.836407
v 40.510502 -123.010117 188.280243
v 107.094559 -209.251129 11.836407
v 132.656174 -179.698669 102.309662
v 40.510502 -123.010117 188.280243
v 160.545715 -155.489105 92.286118
v 144.646790 -161.943542 110.541542
v 132.656174 -179.698669 102.309662
v 218.134750 -88.275429 72.721939
v 144.646790 -161.943542 110.541542
v 160.545715 -155.489105 92.286118
v 144.646790 -161.943542 110.541542
v 136.092056 -166.920395 115.056580
v 132.656174 -179.698669 102.309662
v 47.972950 22.819626 221.697281
v 131.248520 -14.899423 212.601440
v 135.978333 -14.614330 209.731873
v 131.248520 -14.899423 212.601440
v 135.279831 -17.697142 211.974411
v 135.978333 -14.614330 209.731873
v 218.132996 -88.281197 72.686211
v 135.467346 -10.947463 202.931458
v 218.134750 -88.275429 72.721939
v 47.972950 22.819626 221.697281
v 135.467346 -10.947463 202.931458
v 218.132996 -88.281197 72.686211
v 47.972950 22.819626 221.697281
v 135.978333 -14.614330 209.731873
v 135.467346 -10.947463 202.931458
v 135.467346 -10.947463 202.931458
v 145.147537 -19.253426 206.060364
v 218.134750 -88.275429 72.721939
v 135.978333 -14.614330 209.731873
v 145.147537 -19.253426 206.060364
v 135.467346 -10.947463 202.931458
v 145.147537 -19.253426 206.060364
v 146.934174 -23.000467 208.326553
v 218.134750 -88.275429 72.721939
v 135.978333 -14.614330 209.731873
v 146.934174 -23.000467 208.326553
v 145.147537 -19.253426 206.060364
v 146.934174 -23.000467 208.326553
v 147.676804 -26.242332 209.929962
v 218.134750 -88.275429 72.721939
v 135.279831 -17.697142 211.974411
v 147.676804 -26.242332 209.929962
v 135.978333 -14.614330 209.731873
v 135.978333 -14.614330 209.731873
v 147.676804 -26.242332 209.929962
v 146.934174 -23.000467 208.326553
v 132.656174 -179.698669 102.309662
v 97.362785 -98.716393 215.305237
v 40.510502 -123.010117 188.280243
v 136.092056 -166.920395 115.056580
v 97.362785 -98.716393 215.305237
v 132.656174 -179.698669 102.309662
v 47.972950 22.819626 221.697281
v 40.510502 -123.010117 188.280243
v 97.362785 -98.716393 215.305237
v 47.972950 22.819626 221.697281
v 113.947601 -66.971390 213.905472
v 131.248520 -14.899423 212.601440
v 47.972950 22.819626 221.697281
v 97.362785 -98.716393 215.305237
v 113.947601 -66.971390 213.905472
v 131.248520 -14.899423 212.601440
v 113.947601 -66.971390 213.905472
v 135.279831 -17.697142 211.974411
v 135.279831 -17.697142 211.974411
v 113.947601 -66.971390 213.905472
v 147.676804 -26.242332 209.929962
v 147.676804 -26.242332 209.929962
v 113.947601 -66.971390 213.905472
v 97.362785 -98.716393 215.305237
v 147.676804 -26.242332 209.929962
v 97.362785 -98.716393 215.305237
v 115.958847 -91.225243 208.064453
v 218.134750 -88.275429 72.721939
v 134.756866 -78.906448 197.918396
v 144.646790 -161.943542 110.541542
v 147.676804 -26.242332 209.929962
v 134.756866 -78.906448 197.918396
v 218.134750 -88.275429 72.721939
v 147.676804 -26.242332 209.929962
v 115.958847 -91.225243 208.064453
v 134.756866 -78.906448 197.918396
v 144.646790 -161.943542 110.541542
v 115.413422 -97.575310 203.934464
v 136.092056 -166.920395 115.056580
v 136.092056 -166.920395 115.056580
v 115.413422 -97.575310 203.934464
v 97.362785 -98.716393 215.305237
v 97.362785 -98.716393 215.305237
v 115.413422 -97.575310 203.934464
v 115.958847 -91.225243 208.064453
v 134.756866 -78.906448 197.918396
v 115.413422 -97.575310 203.934464
v 144.646790 -161.943542 110.541542
v 115.958847 -91.225243 208.064453
v 115.413422 -97.575310 203.934464
v 134.756866 -78.906448 197.918396
vn 0.606287 -0.684517 -0.404787
vn 0.318079 -0.946829 0.048381
vn 0.655278 -0.369964 -0.658587
vn 0.674335 -0.376984 -0.634945
vn 0.710431 -0.385633 -0.588706
vn 0.046054 -0.098134 -0.994107
vn 0.371543 0.233930 -0.898461
vn 0.192222 0.659475 -0.726735
vn 0.616865 0.045414 -0.785758
vn 0.734354 -0.390314 -0.555319
vn 0.008072 0.806064 -0.591773
vn -0.798080 0.211272 -0.564299
vn -0.200588 0.750572 -0.629608
vn -0.796476 0.594595 -0.109927
vn -0.634540 0.439316 -0.635893
vn 0.775461 -0.604378 -0.182721
vn 0.792928 -0.606457 0.058960
vn 0.767955 -0.577131 0.277787
vn 0.124559 -0.953022 0.276106
vn 0.184606 -0.947811 0.259951
vn 0.652842 -0.752730 0.084821
vn 0.680045 -0.713405 0.169092
vn -0.945256 -0.065207 -0.319750
vn -0.771563 -0.104319 0.627541
vn -0.354935 -0.885785 0.299007
vn -0.222690 -0.906389 0.358983
vn 0.681273 -0.631634 0.370008
vn 0.734591 -0.494023 0.465098
vn 0.615821 -0.633237 0.468802
vn 0.366315 0.647627 0.668126
vn 0.439817 0.461006 0.770737
vn 0.527448 0.834272 -0.160586
vn 0.267451 0.893487 -0.360763
vn 0.403613 0.817643 0.410556
vn 0.656575 0.753635 -0.030717
vn 0.533121 0.760767 0.370156
vn 0.835970 0.514331 0.191355
vn 0.540537 0.608875 0.580595
vn 0.888023 0.350572 0.297513
vn 0.443538 0.459336 0.769600
vn 0.460492 0.476046 0.749218
vn 0.060518 -0.802274 0.593880
vn 0.347424 -0.707419 0.615512
vn -0.353321 -0.191740 0.915642
vn 0.104222 -0.009722 0.994507
vn 0.103533 -0.010235 0.994573
vn 0.139120 -0.021429 0.990044
vn 0.146185 -0.024530 0.988953
vn 0.172248 -0.046603 0.983951
vn 0.433852 -0.236718 0.869331
vn 0.724076 -0.457181 0.516430
vn 0.778963 -0.314795 0.542329
vn 0.602330 -0.315051 0.733444
vn 0.616779 -0.544549 0.568375
vn 0.429508 -0.660808 0.615512
vn 0.482311 -0.506346 0.714836
vn 0.660522 -0.505492 0.555148
vn 0.635673 -0.458513 0.621036
f 1//1 2//1 3//1
f 4//2 5//2 6//2
f 7//3 8//3 9//3
f 10//4 11//4 12//4
f 13//5 14//5 15//5
f 16//6 17//6 18//6
f 19//7 20//7 21//7
f 22//8 23//8 24//8
f 25//9 26//9 27//9
f 28//10 29//10 30//10
f 31//11 32//11 33//11
f 34//12 35//12 36//12
f 37//13 38//13 39//13
f 40//14 41//14 42//14
f 43//15 44//15 45//15
f 46//16 47//16 48//16
f 49//17 50//17 51//17
f 52//18 53//18 54//18
f 55//19 56//19 57//19
f 58//20 59//20 60//20
f 61//21 62//21 63//21
f 64//22 65//22 66//22
f 67//23 68//23 69//23
f 70//24 71//24 72//24
f 73//25 74//25 75//25
f 76//26 77//26 78//26
f 79//27 80//27 81//27
f 82//28 83//28 84//28
f 85//29 86//29 87//29
f 88//30 89//30 90//30
f 91//31 92//31 93//31
f 94//32 95//32 96//32
f 97//33 98//33 99//33
f 100//34 101//34 102//34
f 103//35 104//35 105//35
f 106//36 107//36 108//36
f 109//37 110//37 111//37
f 112//38 113//38 114//38
f 115//39 116//39 117//39
f 118//40 119//40 120//40
f 121//41 122//41 123//41
f 124//42 125//42 126//42
f 127//43 128//43 129//43
f 130//44 131//44 132//44
f 133//45 134//45 135//45
f 136//46 137//46 138//46
f 139//47 140//47 141//47
f 142//48 143//48 144//48
f 145//49 146//49 147//49
f 148//50 149//50 150//50
f 151//51 152//51 153//51
f 154//52 155//52 156//52
f 157//53 158//53 159//53
f 160//54 161//54 162//54
f 163//55 164//55 165//55
f 166//56 167//56 168//56
f 169//57 170//57 171//57
f 172//58 173//58 174//58
