o
v -21.999992 37.375950 -13.084667
v -21.586151 37.117878 -13.443890
v -0.897502 -20.071474 -15.619493
v -21.999992 37.375950 -13.084667
v 6.045377 37.940559 -23.368437
v -21.586151 37.117878 -13.443890
v -0.897502 -20.071474 -15.619493
v -0.761757 -20.118681 -15.713999
v -0.884197 -20.077744 -15.627363
v -0.761757 -20.118681 -15.713999
v -0.371055 -20.315468 -15.923941
v -0.884197 -20.077744 -15.627363
v 28.688770 -11.619387 -37.289795
v 22.709341 -30.070322 -19.727043
v -0.371055 -20.315468 -15.923941
v -0.897502 -20.071474 -15.619493
v -0.884197 -20.077744 -15.627363
v 16.738018 -33.003632 -12.507298
v -0.371055 -20.315468 -15.923941
v 16.738018 -33.003632 -12.507298
v -0.884197 -20.077744 -15.627363
v 22.709341 -30.070322 -19.727043
v 16.738018 -33.003632 -12.507298
v -0.371055 -20.315468 -15.923941
v -0.897502 -20.071474 -15.619493
v 16.738018 -33.003632 -12.507298
v 16.727619 -32.986336 -12.489113
v 6.045377 37.940559 -23.368437
v 13.919490 10.465178 -36.014248
v -21.586151 37.117878 -13.443890
v -21.586151 37.117878 -13.443890
v 13.919490 10.465178 -36.014248
v -0.897502 -20.071474 -15.619493
v -0.897502 -20.071474 -15.619493
v 13.919490 10.465178 -36.014248
v -0.761757 -20.118681 -15.713999
v -0.761757 -20.118681 -15.713999
v 13.919490 10.465178 -36.014248
v -0.371055 -20.315468 -15.923941
v 28.688770 -11.619387 -37.289795
v -0.371055 -20.315468 -15.923941
v 13.919490 10.465178 -36.014248
v 28.688770 -11.619387 -37.289795
v 29.598299 -24.437296 -15.856619
v 22.709341 -30.070322 -19.727043
v 6.045377 37.940559 -23.368437
v 39.277905 12.871827 -26.110012
v 13.919490 10.465178 -36.014248
v 28.688770 -11.619387 -37.289795
v 13.919490 10.465178 -36.014248
v 39.277905 12.871827 -26.110012
v 22.709341 -30.070322 -19.727043
v 28.747789 -23.208532 -2.852155
v 16.738018 -33.003632 -12.507298
v 29.598299 -24.437296 -15.856619
v 28.747789 -23.208532 -2.852155
v 22.709341 -30.070322 -19.727043
v 28.688770 -11.619387 -37.289795
v 36.098579 -6.360643 -15.910728
v 29.598299 -24.437296 -15.856619
v 28.688770 -11.619387 -37.289795
v 39.277905 12.871827 -26.110012
v 36.098579 -6.360643 -15.910728
v -21.999992 37.375950 -13.084667
v 21.463600 39.390461 9.397648
v 6.045377 37.940559 -23.368437
v 6.045377 37.940559 -23.368437
v 21.463600 39.390461 9.397648
v 21.459475 39.387936 9.360344
v 6.045377 37.940559 -23.368437
v 32.820648 27.695087 -13.352389
v 39.277905 12.871827 -26.110012
v 6.045377 37.940559 -23.368437
v 21.459475 39.387936 9.360344
v 32.820648 27.695087 -13.352389
v -21.999992 37.375950 -13.084667
v -0.897502 -20.071474 -15.619493
v 16.206638 -6.176141 40.764507
v -0.897502 -20.071474 -15.619493
v 16.727619 -32.986336 -12.489113
v 16.206638 -6.176141 40.764507
v 16.738018 -33.003632 -12.507298
v 16.206638 -6.176141 40.764507
v 16.727619 -32.986336 -12.489113
v 16.738018 -33.003632 -12.507298
v 16.430470 -6.244833 40.814621
v 16.206638 -6.176141 40.764507
v 16.430470 -6.244833 40.814621
v 16.396278 -6.189795 40.807220
v 16.206638 -6.176141 40.764507
v -21.999992 37.375950 -13.084667
v 19.289783 33.973103 26.493446
v 21.463600 39.390461 9.397648
v -21.999992 37.375950 -13.084667
v 16.855526 32.651875 26.190203
v 19.289783 33.973103 26.493446
v 16.855526 32.651875 26.190203
v 18.527390 31.975721 27.340065
v 19.289783 33.973103 26.493446
v 16.430470 -6.244833 40.814621
v 27.574228 -1.729739 42.556412
v 16.396278 -6.189795 40.807220
v 27.574228 -1.729739 42.556412
v 28.715204 -1.213197 42.431622
v 28.650877 -1.097234 42.493958
v 27.574228 -1.729739 42.556412
v 28.756113 -1.483205 42.250782
v 28.715204 -1.213197 42.431622
v -21.999992 37.375950 -13.084667
v 16.206638 -6.176141 40.764507
v 17.311415 9.614145 39.394241
v -21.999992 37.375950 -13.084667
v 17.311415 9.614145 39.394241
v 16.855526 32.651875 26.190203
v 16.855526 32.651875 26.190203
v 17.311415 9.614145 39.394241
v 18.527390 31.975721 27.340065
v 16.396278 -6.189795 40.807220
v 17.311415 9.614145 39.394241
v 16.206638 -6.176141 40.764507
v 27.574228 -1.729739 42.556412
v 17.311415 9.614145 39.394241
v 16.396278 -6.189795 40.807220
v 18.527390 31.975721 27.340065
v 17.311415 9.614145 39.394241
v 19.289783 33.973103 26.493446
v 27.574228 -1.729739 42.556412
v 28.650877 -1.097234 42.493958
v 17.311415 9.614145 39.394241
v 19.289783 33.973103 26.493446
v 30.080362 32.206463 19.803919
v 21.463600 39.390461 9.397648
v 21.463600 39.390461 9.397648
v 43.419727 25.536432 5.553186
v 21.459475 39.387936 9.360344
v 21.459475 39.387936 9.360344
v 43.419727 25.536432 5.553186
v 32.820648 27.695087 -13.352389
v 32.820648 27.695087 -13.352389
v 43.419727 25.536432 5.553186
v 39.277905 12.871827 -26.110012
v 30.080362 32.206463 19.803919
v 32.826015 31.926420 17.139463
v 21.463600 39.390461 9.397648
v 21.463600 39.390461 9.397648
v 32.826015 31.926420 17.139463
v 43.419727 25.536432 5.553186
v 16.430470 -6.244833 40.814621
v 33.772518 -6.893849 30.436071
v 27.574228 -1.729739 42.556412
v 28.747789 -23.208532 -2.852155
v 33.772518 -6.893849 30.436071
v 16.738018 -33.003632 -12.507298
v 27.574228 -1.729739 42.556412
v 33.772518 -6.893849 30.436071
v 28.756113 -1.483205 42.250782
v 16.738018 -33.003632 -12.507298
v 33.371071 -7.133427 30.231119
v 16.430470 -6.244833 40.814621
v 16.430470 -6.244833 40.814621
v 33.371071 -7.133427 30.231119
v 33.772518 -6.893849 30.436071
v 33.772518 -6.893849 30.436071
v 33.371071 -7.133427 30.231119
v 16.738018 -33.003632 -12.507298
v 19.289783 33.973103 26.493446
v 40.990608 26.507658 18.298853
v 30.080362 32.206463 19.803919
v 32.826015 31.926420 17.139463
v 40.990608 26.507658 18.298853
v 43.419727 25.536432 5.553186
v 30.080362 32.206463 19.803919
v 40.990608 26.507658 18.298853
v 32.826015 31.926420 17.139463
v 29.598299 -24.437296 -15.856619
v 43.342052 -1.729379 26.474962
v 28.747789 -23.208532 -2.852155
v 28.756113 -1.483205 42.250782
v 43.342052 -1.729379 26.474962
v 28.715204 -1.213197 42.431622
v 43.342052 -1.729379 26.474962
v 42.403637 -2.509340 26.785713
v 28.747789 -23.208532 -2.852155
v 33.772518 -6.893849 30.436071
v 42.403637 -2.509340 26.785713
v 28.756113 -1.483205 42.250782
v 28.756113 -1.483205 42.250782
v 42.403637 -2.509340 26.785713
v 43.342052 -1.729379 26.474962
v 17.311415 9.614145 39.394241
v 27.690876 16.516808 35.569618
v 19.289783 33.973103 26.493446
v 28.650877 -1.097234 42.493958
v 27.690876 16.516808 35.569618
v 17.311415 9.614145 39.394241
v 19.289783 33.973103 26.493446
v 27.690876 16.516808 35.569618
v 40.990608 26.507658 18.298853
v 28.747789 -23.208532 -2.852155
v 36.760841 -8.867723 20.882576
v 33.772518 -6.893849 30.436071
v 42.403637 -2.509340 26.785713
v 36.760841 -8.867723 20.882576
v 28.747789 -23.208532 -2.852155
v 33.772518 -6.893849 30.436071
v 36.760841 -8.867723 20.882576
v 42.403637 -2.509340 26.785713
v 40.990608 26.507658 18.298853
v 47.871788 9.400676 21.373413
v 43.419727 25.536432 5.553186
v 28.715204 -1.213197 42.431622
v 47.829220 9.279225 21.496778
v 28.650877 -1.097234 42.493958
v 43.342052 -1.729379 26.474962
v 47.829220 9.279225 21.496778
v 28.715204 -1.213197 42.431622
v 47.829220 9.279225 21.496778
v 47.682194 9.360581 21.609310
v 28.650877 -1.097234 42.493958
v 40.990608 26.507658 18.298853
v 47.682194 9.360581 21.609310
v 47.871788 9.400676 21.373413
v 47.871788 9.400676 21.373413
v 47.682194 9.360581 21.609310
v 47.829220 9.279225 21.496778
v 39.277905 12.871827 -26.110012
v 47.495354 4.139660 15.192002
v 36.098579 -6.360643 -15.910728
v 36.098579 -6.360643 -15.910728
v 47.495354 4.139660 15.192002
v 29.598299 -24.437296 -15.856619
v 29.598299 -24.437296 -15.856619
v 47.494530 4.138518 15.200877
v 43.342052 -1.729379 26.474962
v 47.495354 4.139660 15.192002
v 47.494530 4.138518 15.200877
v 29.598299 -24.437296 -15.856619
v 43.342052 -1.729379 26.474962
v 47.494530 4.138518 15.200877
v 47.829220 9.279225 21.496778
v 47.871788 9.400676 21.373413
v 47.829220 9.279225 21.496778
v 47.494530 4.138518 15.200877
v 47.871788 9.400676 21.373413
v 47.494530 4.138518 15.200877
v 47.495354 4.139660 15.192002
v 43.419727 25.536432 5.553186
v 46.239086 13.961001 10.112320
v 39.277905 12.871827 -26.110012
v 39.277905 12.871827 -26.110012
v 46.239086 13.961001 10.112320
v 47.495354 4.139660 15.192002
v 47.871788 9.400676 21.373413
v 46.239086 13.961001 10.112320
v 43.419727 25.536432 5.553186
v 47.871788 9.400676 21.373413
v 47.495354 4.139660 15.192002
v 46.239086 13.961001 10.112320
v 28.650877 -1.097234 42.493958
v 39.349480 10.780228 28.680214
v 27.690876 16.516808 35.569618
v 47.682194 9.360581 21.609310
v 39.349480 10.780228 28.680214
v 28.650877 -1.097234 42.493958
v 27.690876 16.516808 35.569618
v 38.977650 11.428497 28.695257
v 40.990608 26.507658 18.298853
v 39.349480 10.780228 28.680214
v 38.977650 11.428497 28.695257
v 27.690876 16.516808 35.569618
v 40.990608 26.507658 18.298853
v 38.977650 11.428497 28.695257
v 47.682194 9.360581 21.609310
v 47.682194 9.360581 21.609310
v 38.977650 11.428497 28.695257
v 39.349480 10.780228 28.680214
vn -0.716457 -0.234184 -0.657151
vn -0.288814 0.588257 -0.755341
vn -0.603015 -0.515886 -0.608459
vn -0.592783 -0.570989 -0.567961
vn -0.364418 -0.577374 -0.730643
vn -0.537259 -0.798214 -0.272408
vn -0.533605 -0.796270 -0.284993
vn -0.392363 -0.692187 -0.605746
vn -0.593315 -0.724844 0.350111
vn -0.329085 0.315358 -0.890085
vn -0.627518 -0.198367 -0.752909
vn -0.607353 -0.215912 -0.764529
vn -0.555019 -0.258396 -0.790686
vn -0.507939 -0.292902 -0.810065
vn 0.704170 -0.595813 -0.386202
vn 0.282963 0.466746 -0.837902
vn 0.327691 0.271415 -0.904960
vn 0.560790 -0.817415 0.131712
vn 0.589667 -0.799544 0.114112
vn 0.914242 -0.329463 -0.235829
vn 0.925048 -0.285681 -0.250343
vn -0.030979 0.999081 -0.029632
vn 0.064816 0.995110 -0.074533
vn 0.470301 0.684390 -0.557160
vn 0.423519 0.874032 -0.238115
vn -0.874799 -0.336716 0.348352
vn -0.592466 -0.721866 0.357623
vn -0.580867 -0.729327 0.361492
vn -0.350786 -0.837786 0.418407
vn -0.220107 -0.005574 0.975460
vn -0.186080 0.943200 0.275223
vn -0.453624 0.713078 0.534551
vn -0.358860 0.477035 0.802282
vn -0.165986 0.029423 0.985689
vn 0.254750 -0.344413 0.903594
vn 0.312890 -0.495354 0.810385
vn -0.767221 0.108535 0.632133
vn -0.636400 0.374051 0.674597
vn -0.371676 0.456094 0.808601
vn -0.211842 0.099193 0.972257
vn -0.192069 0.098422 0.976434
vn -0.293741 0.465901 0.834657
vn -0.067339 0.210915 0.975182
vn 0.344613 0.881385 0.323115
vn 0.515706 0.849078 -0.114513
vn 0.501256 0.845402 -0.184492
vn 0.722583 0.604060 -0.336132
vn 0.375959 0.878393 0.295094
vn 0.536654 0.843416 0.025525
vn 0.261065 -0.832711 0.488301
vn 0.404835 -0.843749 0.352416
vn 0.298765 -0.813287 0.499304
vn 0.227876 -0.869728 0.437774
vn 0.255805 -0.839193 0.479916
vn 0.309559 -0.862037 0.401329
vn 0.448224 0.717188 0.533607
vn 0.548482 0.835162 0.040892
vn 0.467221 0.789238 0.398508
vn 0.745113 -0.657658 0.110872
vn 0.691392 -0.326801 0.644344
vn 0.664444 -0.720829 0.197283
vn 0.551415 -0.644740 0.529389
vn 0.624119 -0.517788 0.585125
vn 0.015207 0.467007 0.884123
vn 0.095516 0.368692 0.924631
vn 0.454625 0.573236 0.681701
vn 0.493896 -0.807933 0.321419
vn 0.585811 -0.765901 0.264992
vn 0.534447 -0.778916 0.328109
vn 0.908975 0.391404 0.143411
vn 0.728768 0.036699 0.683776
vn 0.737228 0.005025 0.675626
vn 0.665827 0.215071 0.714436
vn 0.685637 0.386643 0.616773
vn 0.685824 0.386193 0.616847
vn 0.927501 -0.282907 -0.244348
vn 0.916794 -0.330347 -0.224410
vn 0.836054 -0.548181 0.022620
vn 0.843018 -0.537809 0.009063
vn 0.936136 -0.295112 0.191199
vn 0.968951 -0.214245 0.123425
vn 0.985377 -0.154619 0.071589
vn 0.968367 0.160659 -0.190931
vn 0.981503 0.027559 -0.189453
vn 0.974853 0.216265 -0.053761
vn 0.990937 0.066339 -0.116807
vn 0.594075 0.322139 0.737090
vn 0.651023 0.247961 0.717415
vn 0.601345 0.397558 0.693060
vn 0.594339 0.323815 0.736142
vn 0.636802 0.378225 0.671884
vn 0.639874 0.351153 0.683559
f 1//1 2//1 3//1
f 4//2 5//2 6//2
f 7//3 8//3 9//3
f 10//4 11//4 12//4
f 13//5 14//5 15//5
f 16//6 17//6 18//6
f 19//7 20//7 21//7
f 22//8 23//8 24//8
f 25//9 26//9 27//9
f 28//10 29//10 30//10
f 31//11 32//11 33//11
f 34//12 35//12 36//12
f 37//13 38//13 39//13
f 40//14 41//14 42//14
f 43//15 44//15 45//15
f 46//16 47//16 48//16
f 49//17 50//17 51//17
f 52//18 53//18 54//18
f 55//19 56//19 57//19
f 58//20 59//20 60//20
f 61//21 62//21 63//21
f 64//22 65//22 66//22
f 67//23 68//23 69//23
f 70//24 71//24 72//24
f 73//25 74//25 75//25
f 76//26 77//26 78//26
f 79//27 80//27 81//27
f 82//28 83//28 84//28
f 85//29 86//29 87//29
f 88//30 89//30 90//30
f 91//31 92//31 93//31
f 94//32 95//32 96//32
f 97//33 98//33 99//33
f 100//34 101//34 102//34
f 103//35 104//35 105//35
f 106//36 107//36 108//36
f 109//37 110//37 111//37
f 112//38 113//38 114//38
f 115//39 116//39 117//39
f 118//40 119//40 120//40
f 121//41 122//41 123//41
f 124//42 125//42 126//42
f 127//43 128//43 129//43
f 130//44 131//44 132//44
f 133//45 134//45 135//45
f 136//46 137//46 138//46
f 139//47 140//47 141//47
f 142//48 143//48 144//48
f 145//49 146//49 147//49
f 148//50 149//50 150//50
f 151//51 152//51 153//51
f 154//52 155//52 156//52
f 157//53 158//53 159//53
f 160//54 161//54 162//54
f 163//55 164//55 165//55
f 166//56 167//56 168//56
f 169//57 170//57 171//57
f 172//58 173//58 174//58
f 175//59 176//59 177//59
f 178//60 179//60 180//60
f 181//61 182//61 183//61
f 184//62 185//62 186//62
f 187//63 188//63 189//63
f 190//64 191//64 192//64
f 193//65 194//65 195//65
f 196//66 197//66 198//66
f 199//67 200//67 201//67
f 202//68 203//68 204//68
f 205//69 206//69 207//69
f 208//70 209//70 210//70
f 211//71 212//71 213//71
f 214//72 215//72 216//72
f 217//73 218//73 219//73
f 220//74 221//74 222//74
f 223//75 224//75 225//75
f 226//76 227//76 228//76
f 229//77 230//77 231//77
f 232//78 233//78 234//78
f 235//79 236//79 237//79
f 238//80 239//80 240//80
f 241//81 242//81 243//81
f 244//82 245//82 246//82
f 247//83 248//83 249//83
f 250//84 251//84 252//84
f 253//85 254//85 255//85
f 256//86 257//86 258//86
f 259//87 260//87 261//87
f 262//88 263//88 264//88
f 265//89 266//89 267//89
f 268//90 269//90 270//90
f 271//91 272//91 273//91
f 274//92 275//92 276//92
