o
v -17.982260 -8.471088 -7.543939
v -2.890032 -24.423721 -21.908871
v 5.945210 -44.355103 -9.800196
v 5.945210 -44.355103 -9.800196
v -2.890032 -24.423721 -21.908871
v 11.149250 -30.983175 -24.243282
v -17.982260 -8.471088 -7.543939
v -9.684020 -10.219710 -18.711437
v -2.890032 -24.423721 -21.908871
v -16.205183 -2.170758 -7.647256
v -9.684020 -10.219710 -18.711437
v -17.982260 -8.471088 -7.543939
v 5.945210 -44.355103 -9.800196
v 11.149250 -30.983175 -24.243282
v 20.821941 -37.650738 -9.911954
v 11.149250 -30.983175 -24.243282
v 26.289787 -27.303368 -10.349154
v 20.821941 -37.650738 -9.911954
v 26.289787 -27.303368 -10.349154
v 25.872972 -27.122534 -7.530323
v 20.821941 -37.650738 -9.911954
v 26.454586 -26.291712 -8.699865
v 25.872972 -27.122534 -7.530323
v 26.289787 -27.303368 -10.349154
v -2.890032 -24.423721 -21.908871
v 16.541094 -10.396780 -21.792589
v 11.149250 -30.983175 -24.243282
v -9.684020 -10.219710 -18.711437
v 16.541094 -10.396780 -21.792589
v -2.890032 -24.423721 -21.908871
v 11.149250 -30.983175 -24.243282
v 16.541094 -10.396780 -21.792589
v 26.289787 -27.303368 -10.349154
v 25.872972 -27.122534 -7.530323
v 25.912910 -8.406506 30.996271
v 20.821941 -37.650738 -9.911954
v 20.821941 -37.650738 -9.911954
v 25.912910 -8.406506 30.996271
v 25.835342 -8.164933 31.475220
v 26.454586 -26.291712 -8.699865
v 25.912910 -8.406506 30.996271
v 25.872972 -27.122534 -7.530323
v 16.541094 -10.396780 -21.792589
v 22.470419 -13.212563 -14.407611
v 26.289787 -27.303368 -10.349154
v -17.982260 -8.471088 -7.543939
v 5.945210 -44.355103 -9.800196
v 0.552756 -21.317352 26.919487
v 9.261660 -0.369643 36.896877
v 25.776831 -8.031675 31.607903
v 25.040886 -6.742033 31.496061
v 6.999282 0.331842 36.318275
v 9.261660 -0.369643 36.896877
v 10.014671 8.378065 32.432049
v 9.261660 -0.369643 36.896877
v 25.040886 -6.742033 31.496061
v 10.014671 8.378065 32.432049
v 5.945210 -44.355103 -9.800196
v 3.696035 -21.588980 28.465609
v 0.552756 -21.317352 26.919487
v 0.552756 -21.317352 26.919487
v 3.696035 -21.588980 28.465609
v 6.999282 0.331842 36.318275
v 6.999282 0.331842 36.318275
v 3.696035 -21.588980 28.465609
v 9.261660 -0.369643 36.896877
v 9.261660 -0.369643 36.896877
v 11.961822 -2.923564 36.502571
v 25.776831 -8.031675 31.607903
v 3.696035 -21.588980 28.465609
v 11.961822 -2.923564 36.502571
v 9.261660 -0.369643 36.896877
v -17.982260 -8.471088 -7.543939
v 0.552756 -21.317352 26.919487
v -1.370591 -10.950597 26.637993
v 0.552756 -21.317352 26.919487
v 6.999282 0.331842 36.318275
v -1.370591 -10.950597 26.637993
v 6.999282 0.331842 36.318275
v 10.014671 8.378065 32.432049
v 2.442843 3.447103 28.545399
v -16.205183 -2.170758 -7.647256
v -17.982260 -8.471088 -7.543939
v 2.442843 3.447103 28.545399
v -17.982260 -8.471088 -7.543939
v -1.370591 -10.950597 26.637993
v 0.018823 -5.055851 27.894833
v -17.982260 -8.471088 -7.543939
v 0.018823 -5.055851 27.894833
v 2.442843 3.447103 28.545399
v 6.999282 0.331842 36.318275
v 0.018823 -5.055851 27.894833
v -1.370591 -10.950597 26.637993
v 6.999282 0.331842 36.318275
v 2.442843 3.447103 28.545399
v 0.018823 -5.055851 27.894833
v 22.470419 -13.212563 -14.407611
v 25.275251 -8.635135 -7.225860
v 26.289787 -27.303368 -10.349154
v 16.541094 -10.396780 -21.792589
v 25.275251 -8.635135 -7.225860
v 22.470419 -13.212563 -14.407611
v 5.945210 -44.355103 -9.800196
v 20.821941 -37.650738 -9.911954
v 10.683433 -17.965961 29.635931
v 5.945210 -44.355103 -9.800196
v 10.683433 -17.965961 29.635931
v 3.696035 -21.588980 28.465609
v 20.821941 -37.650738 -9.911954
v 25.835342 -8.164933 31.475220
v 10.683433 -17.965961 29.635931
v 25.835342 -8.164933 31.475220
v 25.776831 -8.031675 31.607903
v 10.683433 -17.965961 29.635931
v 11.961822 -2.923564 36.502571
v 10.683433 -17.965961 29.635931
v 25.776831 -8.031675 31.607903
v 3.696035 -21.588980 28.465609
v 10.683433 -17.965961 29.635931
v 11.961822 -2.923564 36.502571
v -16.205183 -2.170758 -7.647256
v 10.316069 -1.968649 -13.885200
v -9.684020 -10.219710 -18.711437
v -9.684020 -10.219710 -18.711437
v 10.316069 -1.968649 -13.885200
v 16.541094 -10.396780 -21.792589
v 25.776831 -8.031675 31.607903
v 16.442656 14.226327 17.276417
v 25.040886 -6.742033 31.496061
v 25.040886 -6.742033 31.496061
v 16.442656 14.226327 17.276417
v 10.014671 8.378065 32.432049
v 16.442656 14.226327 17.276417
v 15.755286 14.353153 17.498566
v 10.014671 8.378065 32.432049
v 25.776831 -8.031675 31.607903
v 17.236374 12.980964 16.745234
v 16.442656 14.226327 17.276417
v 26.454586 -26.291712 -8.699865
v 26.289787 -27.303368 -10.349154
v 27.465704 -6.371211 2.281743
v 25.275251 -8.635135 -7.225860
v 27.465704 -6.371211 2.281743
v 26.289787 -27.303368 -10.349154
v 26.454586 -26.291712 -8.699865
v 27.465704 -6.371211 2.281743
v 25.912910 -8.406506 30.996271
v 25.912910 -8.406506 30.996271
v 27.442640 -5.975653 2.674953
v 25.835342 -8.164933 31.475220
v 27.465704 -6.371211 2.281743
v 27.442640 -5.975653 2.674953
v 25.912910 -8.406506 30.996271
v 25.835342 -8.164933 31.475220
v 27.442640 -5.975653 2.674953
v 25.776831 -8.031675 31.607903
v 25.776831 -8.031675 31.607903
v 27.442640 -5.975653 2.674953
v 17.236374 12.980964 16.745234
v 16.541094 -10.396780 -21.792589
v 25.839169 -3.599858 -1.523831
v 25.275251 -8.635135 -7.225860
v 17.236374 12.980964 16.745234
v 25.839169 -3.599858 -1.523831
v 16.442656 14.226327 17.276417
v 27.442640 -5.975653 2.674953
v 25.839169 -3.599858 -1.523831
v 17.236374 12.980964 16.745234
v 25.275251 -8.635135 -7.225860
v 25.839169 -3.599858 -1.523831
v 27.465704 -6.371211 2.281743
v 27.465704 -6.371211 2.281743
v 25.839169 -3.599858 -1.523831
v 27.442640 -5.975653 2.674953
v 16.541094 -10.396780 -21.792589
v 22.373949 -4.802161 -7.330647
v 25.839169 -3.599858 -1.523831
v 10.014671 8.378065 32.432049
v -0.464499 6.335025 11.306378
v 2.442843 3.447103 28.545399
v -16.205183 -2.170758 -7.647256
v 2.442843 3.447103 28.545399
v -0.464499 6.335025 11.306378
v 15.755286 14.353153 17.498566
v -0.464499 6.335025 11.306378
v 10.014671 8.378065 32.432049
v -16.205183 -2.170758 -7.647256
v -0.464499 6.335025 11.306378
v 15.755286 14.353153 17.498566
v 25.839169 -3.599858 -1.523831
v 24.187424 -2.160998 -1.548971
v 16.442656 14.226327 17.276417
v 22.373949 -4.802161 -7.330647
v 24.187424 -2.160998 -1.548971
v 25.839169 -3.599858 -1.523831
v 24.187424 -2.160998 -1.548971
v 21.301355 -2.616355 -5.563354
v 16.442656 14.226327 17.276417
v 16.541094 -10.396780 -21.792589
v 21.301355 -2.616355 -5.563354
v 22.373949 -4.802161 -7.330647
v 22.373949 -4.802161 -7.330647
v 21.301355 -2.616355 -5.563354
v 24.187424 -2.160998 -1.548971
v 16.442656 14.226327 17.276417
v 12.350190 9.689098 5.830259
v 15.755286 14.353153 17.498566
v 10.316069 -1.968649 -13.885200
v 12.350190 9.689098 5.830259
v 16.541094 -10.396780 -21.792589
v 16.541094 -10.396780 -21.792589
v 12.350190 9.689098 5.830259
v 21.301355 -2.616355 -5.563354
v 21.301355 -2.616355 -5.563354
v 12.350190 9.689098 5.830259
v 16.442656 14.226327 17.276417
v -16.205183 -2.170758 -7.647256
v 12.350190 9.689098 5.830259
v 10.316069 -1.968649 -13.885200
v -16.205183 -2.170758 -7.647256
v 15.755286 14.353153 17.498566
v 12.350190 9.689098 5.830259
vn -0.808910 -0.522424 -0.269700
vn -0.395491 -0.598546 -0.696656
vn -0.794646 -0.256200 -0.550362
vn -0.769452 0.207124 -0.604189
vn 0.333102 -0.748695 -0.573148
vn 0.673445 -0.382593 -0.632530
vn 0.875691 -0.456033 0.158742
vn 0.899916 -0.405998 0.159114
vn -0.097112 0.142693 -0.984991
vn -0.113962 0.165988 -0.979521
vn 0.685412 -0.093554 -0.722121
vn 0.858066 -0.462267 0.223677
vn 0.529197 -0.720040 0.448880
vn 0.907553 -0.378094 0.182735
vn 0.785784 0.035136 -0.617502
vn -0.803602 -0.550123 0.227132
vn 0.418162 0.312593 0.852893
vn -0.083999 0.458729 0.884597
vn 0.433171 0.379884 0.817344
vn -0.304439 -0.826365 0.473749
vn -0.445023 -0.241823 0.862251
vn -0.317791 -0.276957 0.906810
vn 0.417085 0.309004 0.854726
vn -0.171260 -0.324681 0.930189
vn -0.893009 -0.154200 0.422797
vn -0.686419 -0.107824 0.719168
vn -0.632532 0.516022 0.577603
vn -0.875337 0.253649 0.411640
vn -0.890040 0.115772 0.440938
vn -0.878470 0.217900 0.425219
vn -0.785462 0.053674 0.616578
vn -0.812122 0.189291 0.551929
vn 0.896413 0.120095 -0.426639
vn 0.794434 0.321578 -0.515230
vn 0.361646 -0.794342 0.488092
vn 0.332556 -0.801771 0.496558
vn 0.431451 -0.758620 0.488207
vn 0.300650 -0.603396 0.738595
vn 0.160559 -0.421137 0.892672
vn 0.065559 -0.418977 0.905627
vn -0.156174 0.752674 -0.639602
vn -0.084574 0.647832 -0.757074
vn 0.837173 0.497454 0.227333
vn 0.630552 0.595848 0.497363
vn 0.300956 0.839860 0.451731
vn 0.862422 0.474747 0.175622
vn 0.994622 0.006501 -0.103371
vn 0.965121 0.093371 -0.244587
vn 0.995840 -0.077216 0.048379
vn 0.981380 0.179481 0.068413
vn 0.998516 0.004245 0.054298
vn 0.939064 0.334808 0.077858
vn 0.901680 0.424541 0.082083
vn 0.726870 0.477533 -0.493580
vn 0.806347 0.574268 -0.141496
vn 0.864532 0.500373 -0.047030
vn 0.945176 0.192702 -0.263644
vn 0.941380 0.263850 -0.210209
vn 0.594558 0.639612 -0.487234
vn -0.611220 0.757320 0.229950
vn -0.663030 0.712028 0.231100
vn -0.485301 0.860034 0.157556
vn -0.427016 0.902831 -0.050531
vn 0.616626 0.701620 -0.357074
vn 0.579680 0.657026 -0.481962
vn 0.498862 0.744828 -0.443134
vn 0.562750 0.668869 -0.485723
vn 0.566118 0.668150 -0.482790
vn 0.046654 0.922789 -0.382472
vn 0.408553 0.766574 -0.495427
vn 0.424100 0.761842 -0.489628
vn 0.454665 0.760290 -0.463938
vn -0.123134 0.859743 -0.495662
vn -0.242673 0.923145 -0.298182
f 1//1 2//1 3//1
f 4//2 5//2 6//2
f 7//3 8//3 9//3
f 10//4 11//4 12//4
f 13//5 14//5 15//5
f 16//6 17//6 18//6
f 19//7 20//7 21//7
f 22//8 23//8 24//8
f 25//9 26//9 27//9
f 28//10 29//10 30//10
f 31//11 32//11 33//11
f 34//12 35//12 36//12
f 37//13 38//13 39//13
f 40//14 41//14 42//14
f 43//15 44//15 45//15
f 46//16 47//16 48//16
f 49//17 50//17 51//17
f 52//18 53//18 54//18
f 55//19 56//19 57//19
f 58//20 59//20 60//20
f 61//21 62//21 63//21
f 64//22 65//22 66//22
f 67//23 68//23 69//23
f 70//24 71//24 72//24
f 73//25 74//25 75//25
f 76//26 77//26 78//26
f 79//27 80//27 81//27
f 82//28 83//28 84//28
f 85//29 86//29 87//29
f 88//30 89//30 90//30
f 91//31 92//31 93//31
f 94//32 95//32 96//32
f 97//33 98//33 99//33
f 100//34 101//34 102//34
f 103//35 104//35 105//35
f 106//36 107//36 108//36
f 109//37 110//37 111//37
f 112//38 113//38 114//38
f 115//39 116//39 117//39
f 118//40 119//40 120//40
f 121//41 122//41 123//41
f 124//42 125//42 126//42
f 127//43 128//43 129//43
f 130//44 131//44 132//44
f 133//45 134//45 135//45
f 136//46 137//46 138//46
f 139//47 140//47 141//47
f 142//48 143//48 144//48
f 145//49 146//49 147//49
f 148//50 149//50 150//50
f 151//51 152//51 153//51
f 154//52 155//52 156//52
f 157//53 158//53 159//53
f 160//54 161//54 162//54
f 163//55 164//55 165//55
f 166//56 167//56 168//56
f 169//57 170//57 171//57
f 172//58 173//58 174//58
f 175//59 176//59 177//59
f 178//60 179//60 180//60
f 181//61 182//61 183//61
f 184//62 185//62 186//62
f 187//63 188//63 189//63
f 190//64 191//64 192//64
f 193//65 194//65 195//65
f 196//66 197//66 198//66
f 199//67 200//67 201//67
f 202//68 203//68 204//68
f 205//69 206//69 207//69
f 208//70 209//70 210//70
f 211//71 212//71 213//71
f 214//72 215//72 216//72
f 217//73 218//73 219//73
f 220//74 221//74 222//74
