o
v 28.809250 -1.054620 42.552296
v 11.163980 -27.988853 -20.962200
v 32.666897 -28.192146 -10.904485
v 28.809250 -1.054620 42.552296
v -19.671118 -8.658365 -11.381924
v 11.163980 -27.988853 -20.962200
v 28.809250 -1.054620 42.552296
v -19.642582 -8.444462 -11.173685
v -19.671118 -8.658365 -11.381924
v 11.163980 -27.988853 -20.962200
v 28.872360 -15.099777 -35.404037
v 32.666897 -28.192146 -10.904485
v 28.872360 -15.099777 -35.404037
v 33.621265 -10.927697 -34.697407
v 32.666897 -28.192146 -10.904485
v 28.809250 -1.054620 42.552296
v 32.666897 -28.192146 -10.904485
v 43.344051 -2.724632 -22.579582
v 33.621265 -10.927697 -34.697407
v 43.344051 -2.724632 -22.579582
v 32.666897 -28.192146 -10.904485
v 28.872360 -15.099777 -35.404037
v 30.982986 -10.739988 -37.217110
v 33.621265 -10.927697 -34.697407
v -19.642582 -8.444462 -11.173685
v -23.010498 32.729744 -10.697624
v -19.671118 -8.658365 -11.381924
v -19.642582 -8.444462 -11.173685
v -19.719723 31.284306 1.684719
v -23.010498 32.729744 -10.697624
v -23.010498 32.729744 -10.697624
v -19.783020 36.867840 -14.148016
v -19.981653 36.573364 -14.415209
v 28.872360 -15.099777 -35.404037
v 22.425150 -6.995707 -42.606411
v 30.982986 -10.739988 -37.217110
v 11.163980 -27.988853 -20.962200
v 22.425150 -6.995707 -42.606411
v 28.872360 -15.099777 -35.404037
v -19.719723 31.284306 1.684719
v -8.739464 41.056087 16.260311
v -23.010498 32.729744 -10.697624
v -23.010498 32.729744 -10.697624
v -8.739464 41.056087 16.260311
v -19.783020 36.867840 -14.148016
v -19.719723 31.284306 1.684719
v -8.985929 40.471981 16.357983
v -8.739464 41.056087 16.260311
v -19.719723 31.284306 1.684719
v -9.088488 40.213573 16.183952
v -8.985929 40.471981 16.357983
v 28.809250 -1.054620 42.552296
v 43.344051 -2.724632 -22.579582
v 36.433762 10.675550 17.905890
v 22.425150 -6.995707 -42.606411
v 20.060402 -3.334542 -45.474262
v 30.982986 -10.739988 -37.217110
v -8.739464 41.056087 16.260311
v 5.869535 33.859230 29.194693
v -8.706614 41.068535 16.267685
v -8.985929 40.471981 16.357983
v 5.869535 33.859230 29.194693
v -8.739464 41.056087 16.260311
v 28.809250 -1.054620 42.552296
v 5.869535 33.859230 29.194693
v -8.985929 40.471981 16.357983
v 20.060402 -3.334542 -45.474262
v 20.483232 -2.794631 -45.560375
v 30.982986 -10.739988 -37.217110
v 11.163980 -27.988853 -20.962200
v 17.591608 -3.206236 -45.541065
v 22.425150 -6.995707 -42.606411
v 22.425150 -6.995707 -42.606411
v 17.591608 -3.206236 -45.541065
v 20.060402 -3.334542 -45.474262
v 20.483232 -2.794631 -45.560375
v 20.633888 -0.790373 -45.626858
v 30.982986 -10.739988 -37.217110
v 20.483232 -2.794631 -45.560375
v 20.270353 -0.653276 -45.857574
v 20.633888 -0.790373 -45.626858
v 28.809250 -1.054620 42.552296
v 16.018772 24.880583 30.176819
v 5.869535 33.859230 29.194693
v 40.564148 37.209457 -0.663713
v 40.531792 37.559196 0.568169
v 40.882114 35.907253 -1.814448
v -19.671118 -8.658365 -11.381924
v 3.019961 3.460830 -47.012478
v 11.163980 -27.988853 -20.962200
v 11.163980 -27.988853 -20.962200
v 3.019961 3.460830 -47.012478
v 17.591608 -3.206236 -45.541065
v 40.531792 37.559196 0.568169
v 41.529613 31.925182 -0.847260
v 40.882114 35.907253 -1.814448
v 43.344051 -2.724632 -22.579582
v 41.239109 33.090492 -2.932547
v 41.529613 31.925182 -0.847260
v 41.529613 31.925182 -0.847260
v 41.239109 33.090492 -2.932547
v 40.882114 35.907253 -1.814448
v 43.344051 -2.724632 -22.579582
v 39.817505 27.066000 6.341084
v 36.433762 10.675550 17.905890
v 43.344051 -2.724632 -22.579582
v 41.529613 31.925182 -0.847260
v 39.817505 27.066000 6.341084
v 28.809250 -1.054620 42.552296
v 36.433762 10.675550 17.905890
v 39.817505 27.066000 6.341084
v 28.809250 -1.054620 42.552296
v 39.817505 27.066000 6.341084
v 40.531792 37.559196 0.568169
v 40.531792 37.559196 0.568169
v 39.817505 27.066000 6.341084
v 41.529613 31.925182 -0.847260
v 20.060402 -3.334542 -45.474262
v 5.379972 6.034936 -48.860023
v 20.483232 -2.794631 -45.560375
v 17.591608 -3.206236 -45.541065
v 5.379972 6.034936 -48.860023
v 20.060402 -3.334542 -45.474262
v 20.483232 -2.794631 -45.560375
v 5.379972 6.034936 -48.860023
v 20.270353 -0.653276 -45.857574
v 3.019961 3.460830 -47.012478
v 5.379972 6.034936 -48.860023
v 17.591608 -3.206236 -45.541065
v -23.010498 32.729744 -10.697624
v -10.275059 12.027447 -34.764122
v -19.671118 -8.658365 -11.381924
v -19.671118 -8.658365 -11.381924
v -10.275059 12.027447 -34.764122
v 3.019961 3.460830 -47.012478
v -23.010498 32.729744 -10.697624
v -19.981653 36.573364 -14.415209
v -10.275059 12.027447 -34.764122
v 3.019961 3.460830 -47.012478
v -10.275059 12.027447 -34.764122
v 5.379972 6.034936 -48.860023
v -8.739464 41.056087 16.260311
v -4.182660 48.901508 -0.348570
v -19.783020 36.867840 -14.148016
v -19.783020 36.867840 -14.148016
v -4.182660 48.901508 -0.348570
v -11.618358 43.230587 -8.087465
v -8.739464 41.056087 16.260311
v -8.706614 41.068535 16.267685
v 0.287706 51.620525 -0.820945
v -8.739464 41.056087 16.260311
v 0.287706 51.620525 -0.820945
v -4.182660 48.901508 -0.348570
v -2.857943 42.787861 15.516130
v 0.287706 51.620525 -0.820945
v -8.706614 41.068535 16.267685
v -4.182660 48.901508 -0.348570
v 0.287706 51.620525 -0.820945
v -11.618358 43.230587 -8.087465
v 5.869535 33.859230 29.194693
v 5.264082 43.791824 16.317972
v -8.706614 41.068535 16.267685
v -2.857943 42.787861 15.516130
v -8.706614 41.068535 16.267685
v 5.264082 43.791824 16.317972
v -2.857943 42.787861 15.516130
v 5.264082 43.791824 16.317972
v 0.287706 51.620525 -0.820945
v 43.344051 -2.724632 -22.579582
v 40.870461 19.801912 -17.146955
v 41.239109 33.090492 -2.932547
v 41.239109 33.090492 -2.932547
v 40.870461 19.801912 -17.146955
v 40.882114 35.907253 -1.814448
v 5.869535 33.859230 29.194693
v 11.581939 42.233330 17.795361
v 5.264082 43.791824 16.317972
v 5.264082 43.791824 16.317972
v 11.581939 42.233330 17.795361
v 7.180820 43.626072 16.331490
v 28.809250 -1.054620 42.552296
v -7.232457 21.716824 13.141654
v -19.642582 -8.444462 -11.173685
v -9.088488 40.213573 16.183952
v -7.232457 21.716824 13.141654
v -8.985929 40.471981 16.357983
v 28.809250 -1.054620 42.552296
v -8.985929 40.471981 16.357983
v -7.232457 21.716824 13.141654
v -19.642582 -8.444462 -11.173685
v -7.232457 21.716824 13.141654
v -19.719723 31.284306 1.684719
v -19.719723 31.284306 1.684719
v -7.232457 21.716824 13.141654
v -9.088488 40.213573 16.183952
v 5.264082 43.791824 16.317972
v 7.180820 43.626072 16.331490
v 6.994689 45.728504 12.653296
v 11.581939 42.233330 17.795361
v 6.994689 45.728504 12.653296
v 7.180820 43.626072 16.331490
v 5.264082 43.791824 16.317972
v 3.721032 49.669289 3.891758
v 0.287706 51.620525 -0.820945
v 5.264082 43.791824 16.317972
v 6.994689 45.728504 12.653296
v 3.721032 49.669289 3.891758
v 20.270353 -0.653276 -45.857574
v 13.962541 14.364761 -48.472946
v 20.633888 -0.790373 -45.626858
v 5.379972 6.034936 -48.860023
v 13.962541 14.364761 -48.472946
v 20.270353 -0.653276 -45.857574
v -10.275059 12.027447 -34.764122
v 7.216798 14.371802 -47.308613
v 5.379972 6.034936 -48.860023
v 5.379972 6.034936 -48.860023
v 7.216798 14.371802 -47.308613
v 13.962541 14.364761 -48.472946
v 43.344051 -2.724632 -22.579582
v 38.613300 20.979683 -21.635477
v 40.870461 19.801912 -17.146955
v 40.564148 37.209457 -0.663713
v 40.882114 35.907253 -1.814448
v 37.901737 31.324409 -14.206219
v 40.870461 19.801912 -17.146955
v 37.901737 31.324409 -14.206219
v 40.882114 35.907253 -1.814448
v 38.613300 20.979683 -21.635477
v 37.901737 31.324409 -14.206219
v 40.870461 19.801912 -17.146955
v 33.621265 -10.927697 -34.697407
v 30.615974 11.818464 -36.258625
v 43.344051 -2.724632 -22.579582
v 30.982986 -10.739988 -37.217110
v 30.615974 11.818464 -36.258625
v 33.621265 -10.927697 -34.697407
v 20.633888 -0.790373 -45.626858
v 30.615974 11.818464 -36.258625
v 30.982986 -10.739988 -37.217110
v 13.962541 14.364761 -48.472946
v 30.615974 11.818464 -36.258625
v 20.633888 -0.790373 -45.626858
v 28.809250 -1.054620 42.552296
v 21.849602 38.144688 15.739758
v 16.018772 24.880583 30.176819
v 28.809250 -1.054620 42.552296
v 40.531792 37.559196 0.568169
v 21.849602 38.144688 15.739758
v 16.018772 24.880583 30.176819
v 21.849602 38.144688 15.739758
v 5.869535 33.859230 29.194693
v 5.869535 33.859230 29.194693
v 21.849602 38.144688 15.739758
v 11.581939 42.233330 17.795361
v 6.994689 45.728504 12.653296
v 9.666865 48.790768 6.008361
v 3.721032 49.669289 3.891758
v 40.531792 37.559196 0.568169
v 16.213919 44.565388 12.128135
v 21.849602 38.144688 15.739758
v 21.849602 38.144688 15.739758
v 16.213919 44.565388 12.128135
v 11.581939 42.233330 17.795361
v 11.581939 42.233330 17.795361
v 16.213919 44.565388 12.128135
v 6.994689 45.728504 12.653296
v 3.721032 49.669289 3.891758
v 11.580435 50.408482 2.377672
v 0.287706 51.620525 -0.820945
v 9.666865 48.790768 6.008361
v 11.580435 50.408482 2.377672
v 3.721032 49.669289 3.891758
v 6.994689 45.728504 12.653296
v 11.580435 50.408482 2.377672
v 9.666865 48.790768 6.008361
v 16.213919 44.565388 12.128135
v 11.580435 50.408482 2.377672
v 6.994689 45.728504 12.653296
v 0.287706 51.620525 -0.820945
v -0.779966 47.904430 -9.732811
v -11.618358 43.230587 -8.087465
v 11.580435 50.408482 2.377672
v 14.189807 50.351612 -0.444223
v 0.287706 51.620525 -0.820945
v 38.613300 20.979683 -21.635477
v 36.343746 24.842924 -22.818169
v 37.901737 31.324409 -14.206219
v -19.981653 36.573364 -14.415209
v -7.304087 28.881733 -29.958622
v -10.275059 12.027447 -34.764122
v -10.275059 12.027447 -34.764122
v -7.304087 28.881733 -29.958622
v 7.216798 14.371802 -47.308613
v 40.531792 37.559196 0.568169
v 19.345545 48.325073 -1.029858
v 16.213919 44.565388 12.128135
v 16.213919 44.565388 12.128135
v 19.345545 48.325073 -1.029858
v 11.580435 50.408482 2.377672
v 11.580435 50.408482 2.377672
v 19.345545 48.325073 -1.029858
v 14.189807 50.351612 -0.444223
v 40.564148 37.209457 -0.663713
v 19.345545 48.325073 -1.029858
v 40.531792 37.559196 0.568169
v 19.345545 48.325073 -1.029858
v 17.517317 49.058060 -1.621019
v 14.189807 50.351612 -0.444223
v 43.344051 -2.724632 -22.579582
v 31.125574 20.182158 -33.981838
v 38.613300 20.979683 -21.635477
v 30.615974 11.818464 -36.258625
v 31.125574 20.182158 -33.981838
v 43.344051 -2.724632 -22.579582
v 13.962541 14.364761 -48.472946
v 31.125574 20.182158 -33.981838
v 30.615974 11.818464 -36.258625
v 36.343746 24.842924 -22.818169
v 31.125574 20.182158 -33.981838
v 37.901737 31.324409 -14.206219
v 38.613300 20.979683 -21.635477
v 31.125574 20.182158 -33.981838
v 36.343746 24.842924 -22.818169
v 14.189807 50.351612 -0.444223
v 10.046830 50.414215 -7.341404
v 0.287706 51.620525 -0.820945
v 17.517317 49.058060 -1.621019
v 14.502312 49.570450 -4.331079
v 14.189807 50.351612 -0.444223
v 14.189807 50.351612 -0.444223
v 14.502312 49.570450 -4.331079
v 10.046830 50.414215 -7.341404
v -19.783020 36.867840 -14.148016
v 2.197064 41.123882 -30.803959
v -19.981653 36.573364 -14.415209
v 7.216798 14.371802 -47.308613
v 2.197064 41.123882 -30.803959
v 13.962541 14.364761 -48.472946
v -19.783020 36.867840 -14.148016
v -11.618358 43.230587 -8.087465
v 1.719246 42.305408 -28.273033
v -0.779966 47.904430 -9.732811
v 1.719246 42.305408 -28.273033
v -11.618358 43.230587 -8.087465
v -19.783020 36.867840 -14.148016
v 1.719246 42.305408 -28.273033
v 2.197064 41.123882 -30.803959
v -19.981653 36.573364 -14.415209
v 0.979672 39.596977 -31.041349
v -7.304087 28.881733 -29.958622
v 2.197064 41.123882 -30.803959
v 0.979672 39.596977 -31.041349
v -19.981653 36.573364 -14.415209
v -7.304087 28.881733 -29.958622
v 0.979672 39.596977 -31.041349
v 7.216798 14.371802 -47.308613
v 7.216798 14.371802 -47.308613
v 0.979672 39.596977 -31.041349
v 2.197064 41.123882 -30.803959
v 0.287706 51.620525 -0.820945
v 2.201169 42.522465 -28.312366
v -0.779966 47.904430 -9.732811
v -0.779966 47.904430 -9.732811
v 2.201169 42.522465 -28.312366
v 1.719246 42.305408 -28.273033
v 10.046830 50.414215 -7.341404
v 2.201169 42.522465 -28.312366
v 0.287706 51.620525 -0.820945
v 1.719246 42.305408 -28.273033
v 2.201169 42.522465 -28.312366
v 2.197064 41.123882 -30.803959
v 2.197064 41.123882 -30.803959
v 5.446009 40.614128 -31.373207
v 13.962541 14.364761 -48.472946
v 2.201169 42.522465 -28.312366
v 5.446009 40.614128 -31.373207
v 2.197064 41.123882 -30.803959
v 13.962541 14.364761 -48.472946
v 20.436945 20.438953 -40.084740
v 31.125574 20.182158 -33.981838
v 5.446009 40.614128 -31.373207
v 20.436945 20.438953 -40.084740
v 13.962541 14.364761 -48.472946
v 10.046830 50.414215 -7.341404
v 7.037458 42.350918 -26.988947
v 2.201169 42.522465 -28.312366
v 2.201169 42.522465 -28.312366
v 7.037458 42.350918 -26.988947
v 5.446009 40.614128 -31.373207
v 40.564148 37.209457 -0.663713
v 22.682177 42.977039 -11.315207
v 19.345545 48.325073 -1.029858
v 10.046830 50.414215 -7.341404
v 10.499439 41.654819 -26.507963
v 7.037458 42.350918 -26.988947
v 7.037458 42.350918 -26.988947
v 10.499439 41.654819 -26.507963
v 5.446009 40.614128 -31.373207
v 40.564148 37.209457 -0.663713
v 18.165585 44.076023 -14.946425
v 22.682177 42.977039 -11.315207
v 19.345545 48.325073 -1.029858
v 18.165585 44.076023 -14.946425
v 17.517317 49.058060 -1.621019
v 22.682177 42.977039 -11.315207
v 18.165585 44.076023 -14.946425
v 19.345545 48.325073 -1.029858
v 17.517317 49.058060 -1.621019
v 18.165585 44.076023 -14.946425
v 14.502312 49.570450 -4.331079
v 14.502312 49.570450 -4.331079
v 18.165585 44.076023 -14.946425
v 10.046830 50.414215 -7.341404
v 10.046830 50.414215 -7.341404
v 18.165585 44.076023 -14.946425
v 10.499439 41.654819 -26.507963
v 40.564148 37.209457 -0.663713
v 37.901737 31.324409 -14.206219
v 26.922186 35.729095 -20.912951
v 31.125574 20.182158 -33.981838
v 26.922186 35.729095 -20.912951
v 37.901737 31.324409 -14.206219
v 40.564148 37.209457 -0.663713
v 26.922186 35.729095 -20.912951
v 18.165585 44.076023 -14.946425
v 18.165585 44.076023 -14.946425
v 26.922186 35.729095 -20.912951
v 10.499439 41.654819 -26.507963
v 20.436945 20.438953 -40.084740
v 11.620590 38.663811 -29.511147
v 31.125574 20.182158 -33.981838
v 5.446009 40.614128 -31.373207
v 11.620590 38.663811 -29.511147
v 20.436945 20.438953 -40.084740
v 10.499439 41.654819 -26.507963
v 11.620590 38.663811 -29.511147
v 5.446009 40.614128 -31.373207
v 31.125574 20.182158 -33.981838
v 11.620590 38.663811 -29.511147
v 26.922186 35.729095 -20.912951
v 26.922186 35.729095 -20.912951
v 12.701544 39.983727 -27.044363
v 10.499439 41.654819 -26.507963
v 10.499439 41.654819 -26.507963
v 12.701544 39.983727 -27.044363
v 11.620590 38.663811 -29.511147
v 11.620590 38.663811 -29.511147
v 12.701544 39.983727 -27.044363
v 26.922186 35.729095 -20.912951
vn -0.209675 -0.877884 0.430530
vn -0.370801 -0.813514 0.447997
vn -0.599808 -0.515628 0.611849
vn 0.219344 -0.845959 -0.486046
vn 0.628745 -0.641150 -0.440007
vn 0.931864 -0.291916 0.215439
vn 0.811800 -0.487620 -0.321261
vn 0.563448 -0.534680 -0.629796
vn -0.972586 -0.082070 0.217580
vn -0.965540 -0.081835 0.247053
vn -0.806929 0.588625 -0.048852
vn 0.302701 -0.487196 -0.819153
vn -0.076307 -0.695594 -0.714372
vn -0.817054 0.506088 0.276221
vn -0.707832 0.687463 0.162380
vn -0.838682 0.413210 0.354782
vn -0.761384 -0.126093 0.635921
vn 0.961664 -0.165262 0.218842
vn 0.333924 -0.438084 -0.834612
vn -0.377623 0.559486 0.737819
vn -0.518741 0.349361 0.780291
vn -0.688236 -0.183678 0.701850
vn 0.355098 -0.411939 -0.839173
vn -0.101876 -0.687073 -0.719411
vn -0.011070 -0.621037 -0.783703
vn 0.587128 -0.070881 -0.806385
vn 0.516463 -0.067138 -0.853674
vn 0.417253 0.550727 0.722911
vn 0.957690 0.282487 -0.055046
vn -0.557490 -0.610425 -0.562660
vn -0.227156 -0.655440 -0.720277
vn 0.985487 0.167269 0.028926
vn 0.991438 0.102588 -0.080790
vn 0.987566 0.147137 -0.055356
vn 0.979448 -0.068296 0.189783
vn 0.979849 -0.066760 0.188250
vn 0.952885 0.016972 0.302858
vn 0.904528 0.156624 0.396608
vn 0.951885 0.095422 0.291222
vn 0.083481 -0.220381 -0.971835
vn 0.008514 -0.328014 -0.944634
vn 0.143203 -0.122075 -0.982136
vn -0.137808 -0.491035 -0.860171
vn -0.904299 -0.065990 -0.421769
vn -0.745293 -0.321628 -0.584032
vn -0.828506 0.124906 -0.545872
vn -0.655124 0.060083 -0.753129
vn -0.683580 0.714323 0.149873
vn -0.633809 0.772290 0.043058
vn -0.397766 0.859388 0.321302
vn -0.480897 0.836362 0.263128
vn -0.201942 0.877284 0.435422
vn -0.525029 0.843467 -0.113618
vn -0.154008 0.778847 0.608013
vn -0.156181 0.790282 0.592504
vn -0.153073 0.881330 0.447019
vn 0.975892 0.146234 -0.162019
vn 0.953372 0.207732 -0.218927
vn 0.053089 0.791897 0.608342
vn 0.066415 0.814966 0.575690
vn -0.701911 -0.249133 0.667273
vn -0.703174 -0.183542 0.686920
vn -0.688752 -0.184624 0.701095
vn -0.742886 -0.207438 0.636467
vn -0.736608 -0.181091 0.651625
vn 0.071548 0.867512 0.492244
vn 0.111175 0.865213 0.488924
vn -0.087428 0.896279 0.434787
vn -0.083426 0.896786 0.434529
vn 0.557772 0.090594 -0.825035
vn 0.149497 -0.108363 -0.982806
vn -0.584689 0.271110 -0.764616
vn -0.165868 0.215617 -0.962287
vn 0.895857 0.194697 -0.399415
vn 0.766568 0.520065 -0.376705
vn 0.890309 0.313637 -0.330123
vn 0.877972 0.317616 -0.358168
vn 0.759921 0.055954 -0.647603
vn 0.691620 0.041889 -0.721046
vn 0.654484 0.042722 -0.754868
vn 0.598863 0.114777 -0.792584
vn 0.455479 0.556283 0.695046
vn 0.541483 0.538016 0.646015
vn 0.435338 0.568457 0.698096
vn 0.387570 0.639469 0.663980
vn -0.012974 0.910097 0.414193
vn 0.459499 0.706262 0.538568
vn 0.395899 0.688984 0.607095
vn 0.136781 0.871729 0.470510
vn -0.011539 0.920876 0.389684
vn -0.008367 0.915031 0.403297
vn 0.108292 0.885591 0.451666
vn 0.136881 0.877029 0.460525
vn -0.415774 0.856035 -0.307141
vn 0.089046 0.994077 0.062306
vn 0.832341 0.359947 -0.421481
vn -0.654911 0.311726 -0.688417
vn -0.580498 0.316262 -0.750334
vn 0.405728 0.848767 0.339086
vn 0.378964 0.862058 0.336514
vn 0.377507 0.864578 0.331652
vn 0.454500 0.859947 -0.232207
vn 0.367414 0.929907 0.016733
vn 0.834520 0.187187 -0.518205
vn 0.786151 0.117286 -0.606804
vn 0.599545 0.176007 -0.780748
vn 0.644086 0.550666 -0.530961
vn 0.802036 0.316016 -0.506826
vn 0.092043 0.994680 -0.046260
vn 0.306578 0.937647 -0.163795
vn 0.290624 0.942325 -0.166018
vn -0.489315 0.743562 -0.455726
vn -0.146867 0.499262 -0.853913
vn -0.423880 0.847707 -0.318932
vn -0.415748 0.853619 -0.313830
vn -0.482438 0.755260 -0.443662
vn -0.604693 0.397753 -0.690029
vn -0.567001 0.547718 -0.615236
vn -0.552651 0.350858 -0.755960
vn -0.382635 0.432040 -0.816659
vn -0.392749 0.864575 -0.313460
vn -0.411091 0.855854 -0.313877
vn -0.096425 0.942917 -0.318762
vn -0.397191 0.800558 -0.448715
vn -0.065044 0.529776 -0.845640
vn 0.050973 0.870845 -0.488907
vn 0.425772 0.544323 -0.722794
vn 0.375708 0.588343 -0.716028
vn 0.140091 0.908279 -0.394213
vn 0.143930 0.901030 -0.409181
vn 0.447514 0.844577 -0.293975
vn 0.233742 0.886399 -0.399577
vn 0.235034 0.871438 -0.430529
vn 0.456576 0.831591 -0.316220
vn 0.436432 0.849520 -0.296382
vn 0.443720 0.845906 -0.295897
vn 0.416064 0.858206 -0.300621
vn 0.379693 0.868548 -0.318525
vn 0.312514 0.866732 -0.388729
vn 0.547544 0.722737 -0.421719
vn 0.576418 0.611495 -0.542048
vn 0.485912 0.784774 -0.384733
vn 0.434939 0.779059 -0.451546
vn 0.408280 0.597774 -0.689908
vn 0.398528 0.596824 -0.696403
vn 0.398719 0.719898 -0.568129
vn 0.466101 0.639741 -0.611131
vn 0.440025 0.742135 -0.505582
vn 0.408042 0.718501 -0.563257
vn 0.450681 0.689822 -0.566597
f 1//1 2//1 3//1
f 4//2 5//2 6//2
f 7//3 8//3 9//3
f 10//4 11//4 12//4
f 13//5 14//5 15//5
f 16//6 17//6 18//6
f 19//7 20//7 21//7
f 22//8 23//8 24//8
f 25//9 26//9 27//9
f 28//10 29//10 30//10
f 31//11 32//11 33//11
f 34//12 35//12 36//12
f 37//13 38//13 39//13
f 40//14 41//14 42//14
f 43//15 44//15 45//15
f 46//16 47//16 48//16
f 49//17 50//17 51//17
f 52//18 53//18 54//18
f 55//19 56//19 57//19
f 58//20 59//20 60//20
f 61//21 62//21 63//21
f 64//22 65//22 66//22
f 67//23 68//23 69//23
f 70//24 71//24 72//24
f 73//25 74//25 75//25
f 76//26 77//26 78//26
f 79//27 80//27 81//27
f 82//28 83//28 84//28
f 85//29 86//29 87//29
f 88//30 89//30 90//30
f 91//31 92//31 93//31
f 94//32 95//32 96//32
f 97//33 98//33 99//33
f 100//34 101//34 102//34
f 103//35 104//35 105//35
f 106//36 107//36 108//36
f 109//37 110//37 111//37
f 112//38 113//38 114//38
f 115//39 116//39 117//39
f 118//40 119//40 120//40
f 121//41 122//41 123//41
f 124//42 125//42 126//42
f 127//43 128//43 129//43
f 130//44 131//44 132//44
f 133//45 134//45 135//45
f 136//46 137//46 138//46
f 139//47 140//47 141//47
f 142//48 143//48 144//48
f 145//49 146//49 147//49
f 148//50 149//50 150//50
f 151//51 152//51 153//51
f 154//52 155//52 156//52
f 157//53 158//53 159//53
f 160//54 161//54 162//54
f 163//55 164//55 165//55
f 166//56 167//56 168//56
f 169//57 170//57 171//57
f 172//58 173//58 174//58
f 175//59 176//59 177//59
f 178//60 179//60 180//60
f 181//61 182//61 183//61
f 184//62 185//62 186//62
f 187//63 188//63 189//63
f 190//64 191//64 192//64
f 193//65 194//65 195//65
f 196//66 197//66 198//66
f 199//67 200//67 201//67
f 202//68 203//68 204//68
f 205//69 206//69 207//69
f 208//70 209//70 210//70
f 211//71 212//71 213//71
f 214//72 215//72 216//72
f 217//73 218//73 219//73
f 220//74 221//74 222//74
f 223//75 224//75 225//75
f 226//76 227//76 228//76
f 229//77 230//77 231//77
f 232//78 233//78 234//78
f 235//79 236//79 237//79
f 238//80 239//80 240//80
f 241//81 242//81 243//81
f 244//82 245//82 246//82
f 247//83 248//83 249//83
f 250//84 251//84 252//84
f 253//85 254//85 255//85
f 256//86 257//86 258//86
f 259//87 260//87 261//87
f 262//88 263//88 264//88
f 265//89 266//89 267//89
f 268//90 269//90 270//90
f 271//91 272//91 273//91
f 274//92 275//92 276//92
f 277//93 278//93 279//93
f 280//94 281//94 282//94
f 283//95 284//95 285//95
f 286//96 287//96 288//96
f 289//97 290//97 291//97
f 292//98 293//98 294//98
f 295//99 296//99 297//99
f 298//100 299//100 300//100
f 301//101 302//101 303//101
f 304//102 305//102 306//102
f 307//103 308//103 309//103
f 310//104 311//104 312//104
f 313//105 314//105 315//105
f 316//106 317//106 318//106
f 319//107 320//107 321//107
f 322//108 323//108 324//108
f 325//109 326//109 327//109
f 328//110 329//110 330//110
f 331//111 332//111 333//111
f 334//112 335//112 336//112
f 337//113 338//113 339//113
f 340//114 341//114 342//114
f 343//115 344//115 345//115
f 346//116 347//116 348//116
f 349//117 350//117 351//117
f 352//118 353//118 354//118
f 355//119 356//119 357//119
f 358//120 359//120 360//120
f 361//121 362//121 363//121
f 364//122 365//122 366//122
f 367//123 368//123 369//123
f 370//124 371//124 372//124
f 373//125 374//125 375//125
f 376//126 377//126 378//126
f 379//127 380//127 381//127
f 382//128 383//128 384//128
f 385//129 386//129 387//129
f 388//130 389//130 390//130
f 391//131 392//131 393//131
f 394//132 395//132 396//132
f 397//133 398//133 399//133
f 400//134 401//134 402//134
f 403//135 404//135 405//135
f 406//136 407//136 408//136
f 409//137 410//137 411//137
f 412//138 413//138 414//138
f 415//139 416//139 417//139
f 418//140 419//140 420//140
f 421//141 422//141 423//141
f 424//142 425//142 426//142
f 427//143 428//143 429//143
f 430//144 431//144 432//144
f 433//145 434//145 435//145
f 436//146 437//146 438//146
f 439//147 440//147 441//147
f 442//148 443//148 444//148
f 445//149 446//149 447//149
f 448//150 449//150 450//150
