o
v -55.614681 -49.013386 -235.923325
v -62.837814 -53.313622 -235.009323
v -62.708546 -53.171043 -235.109955
v -55.614681 -49.013386 -235.923325
v -59.302719 -55.074017 -227.598343
v -62.837814 -53.313622 -235.009323
v -59.302719 -55.074017 -227.598343
v -67.327728 -56.252800 -231.481384
v -62.837814 -53.313622 -235.009323
v -55.614681 -49.013386 -235.923325
v -58.316635 -56.152195 -219.726410
v -59.302719 -55.074017 -227.598343
v -55.614681 -49.013386 -235.923325
v -36.603729 8.836185 -226.835419
v -53.416050 -46.648006 -225.960632
v -55.614681 -49.013386 -235.923325
v -57.404217 -54.825733 -220.273468
v -58.316635 -56.152195 -219.726410
v -55.614681 -49.013386 -235.923325
v -53.416050 -46.648006 -225.960632
v -57.404217 -54.825733 -220.273468
v -55.614681 -49.013386 -235.923325
v -62.708546 -53.171043 -235.109955
v -57.606590 -34.981846 -238.218307
v -55.614681 -49.013386 -235.923325
v -47.666763 -21.485283 -235.334656
v -36.603729 8.836185 -226.835419
v -62.837814 -53.313622 -235.009323
v -90.866081 -68.127388 -219.527527
v -62.708546 -53.171043 -235.109955
v -67.327728 -56.252800 -231.481384
v -90.866081 -68.127388 -219.527527
v -62.837814 -53.313622 -235.009323
v -59.302719 -55.074017 -227.598343
v -90.866081 -68.127388 -219.527527
v -67.327728 -56.252800 -231.481384
v -58.316635 -56.152195 -219.726410
v -90.866081 -68.127388 -219.527527
v -59.302719 -55.074017 -227.598343
v -58.316635 -56.152195 -219.726410
v -90.864548 -68.127373 -219.514725
v -90.866081 -68.127388 -219.527527
v -90.866081 -68.127388 -219.527527
v -90.892563 -68.126770 -219.426605
v -147.568787 -59.613106 -190.811798
v -90.864548 -68.127373 -219.514725
v -90.892563 -68.126770 -219.426605
v -90.866081 -68.127388 -219.527527
v -90.864548 -68.127373 -219.514725
v -90.858299 -68.095863 -219.223343
v -90.892563 -68.126770 -219.426605
v -90.892563 -68.126770 -219.426605
v -90.858299 -68.095863 -219.223343
v -147.568787 -59.613106 -190.811798
v -62.708546 -53.171043 -235.109955
v -59.758114 9.953385 -244.931931
v -57.606590 -34.981846 -238.218307
v -47.666763 -21.485283 -235.334656
v -59.758114 9.953385 -244.931931
v -36.603729 8.836185 -226.835419
v -55.614681 -49.013386 -235.923325
v -57.606590 -34.981846 -238.218307
v -59.758114 9.953385 -244.931931
v -55.614681 -49.013386 -235.923325
v -59.758114 9.953385 -244.931931
v -47.666763 -21.485283 -235.334656
v -36.603729 8.836185 -226.835419
v -52.713314 -40.494610 -219.927887
v -53.416050 -46.648006 -225.960632
v -53.416050 -46.648006 -225.960632
v -52.713314 -40.494610 -219.927887
v -57.404217 -54.825733 -220.273468
v -59.758114 9.953385 -244.931931
v -60.181679 29.968142 -235.990891
v -36.603729 8.836185 -226.835419
v -61.403759 28.460440 -237.612762
v -60.181679 29.968142 -235.990891
v -59.758114 9.953385 -244.931931
v -60.181679 29.968142 -235.990891
v -59.259224 30.832069 -234.798843
v -36.603729 8.836185 -226.835419
v -59.259224 30.832069 -234.798843
v -59.129135 31.558855 -234.173294
v -36.603729 8.836185 -226.835419
v -61.403759 28.460440 -237.612762
v -62.798931 42.117287 -229.721619
v -60.181679 29.968142 -235.990891
v -60.181679 29.968142 -235.990891
v -62.798931 42.117287 -229.721619
v -59.259224 30.832069 -234.798843
v -59.259224 30.832069 -234.798843
v -62.798931 42.117287 -229.721619
v -59.129135 31.558855 -234.173294
v -59.129135 31.558855 -234.173294
v -62.798931 42.117287 -229.721619
v -36.603729 8.836185 -226.835419
v -36.603729 8.836185 -226.835419
v -58.040939 37.239960 -227.680984
v -38.734837 16.574085 -219.551773
v -62.798931 42.117287 -229.721619
v -58.040939 37.239960 -227.680984
v -36.603729 8.836185 -226.835419
v -61.403759 28.460440 -237.612762
v -65.821587 42.222496 -230.636475
v -62.798931 42.117287 -229.721619
v -58.316635 -56.152195 -219.726410
v -71.421791 -59.545509 -194.036316
v -90.864548 -68.127373 -219.514725
v -90.864548 -68.127373 -219.514725
v -71.421791 -59.545509 -194.036316
v -90.858299 -68.095863 -219.223343
v -90.858299 -68.095863 -219.223343
v -115.298889 -59.883820 -191.478317
v -147.568787 -59.613106 -190.811798
v -71.421791 -59.545509 -194.036316
v -115.298889 -59.883820 -191.478317
v -90.858299 -68.095863 -219.223343
v -90.866081 -68.127388 -219.527527
v -147.568787 -59.613106 -190.811798
v -144.016632 -2.726029 -218.867203
v -90.866081 -68.127388 -219.527527
v -144.016632 -2.726029 -218.867203
v -62.708546 -53.171043 -235.109955
v -62.708546 -53.171043 -235.109955
v -144.016632 -2.726029 -218.867203
v -59.758114 9.953385 -244.931931
v -65.821587 42.222496 -230.636475
v -67.271027 45.407162 -225.765305
v -62.798931 42.117287 -229.721619
v -58.316635 -56.152195 -219.726410
v -66.643562 -54.684303 -194.364517
v -71.421791 -59.545509 -194.036316
v -71.657310 42.796570 -150.595688
v -56.900261 20.726374 -150.500504
v -55.729355 28.102566 -153.839935
v -62.002876 -11.707204 -144.958725
v -56.900261 20.726374 -150.500504
v -101.628922 2.314358 -131.659943
v -55.729355 28.102566 -153.839935
v -56.900261 20.726374 -150.500504
v -52.261299 18.626984 -154.368912
v -52.261299 18.626984 -154.368912
v -56.900261 20.726374 -150.500504
v -62.002876 -11.707204 -144.958725
v -71.657310 42.796570 -150.595688
v -55.729355 28.102566 -153.839935
v -69.240128 41.231468 -152.460419
v -55.729355 28.102566 -153.839935
v -57.661160 30.185507 -154.474625
v -69.240128 41.231468 -152.460419
v -71.657310 42.796570 -150.595688
v -75.159904 39.500385 -148.594620
v -56.900261 20.726374 -150.500504
v -71.657310 42.796570 -150.595688
v -77.769936 39.635342 -147.726410
v -75.159904 39.500385 -148.594620
v -75.159904 39.500385 -148.594620
v -77.769936 39.635342 -147.726410
v -56.900261 20.726374 -150.500504
v -147.568787 -59.613106 -190.811798
v -112.120888 -13.192425 -132.487015
v -146.966248 8.315306 -177.826431
v -112.120888 -13.192425 -132.487015
v -147.294189 21.126425 -179.465469
v -146.966248 8.315306 -177.826431
v -147.568787 -59.613106 -190.811798
v -146.966248 8.315306 -177.826431
v -147.294189 21.126425 -179.465469
v -62.002876 -11.707204 -144.958725
v -72.196312 -25.197504 -146.079208
v -64.836220 -18.236404 -146.919525
v -72.196312 -25.197504 -146.079208
v -76.496643 -19.628967 -141.915497
v -112.120888 -13.192425 -132.487015
v -62.002876 -11.707204 -144.958725
v -76.496643 -19.628967 -141.915497
v -72.196312 -25.197504 -146.079208
v -71.657310 42.796570 -150.595688
v -95.912666 34.798237 -142.668945
v -77.769936 39.635342 -147.726410
v -77.769936 39.635342 -147.726410
v -91.354347 34.145611 -142.648270
v -101.628922 2.314358 -131.659943
v -101.628922 2.314358 -131.659943
v -91.354347 34.145611 -142.648270
v -95.912666 34.798237 -142.668945
v -95.912666 34.798237 -142.668945
v -91.354347 34.145611 -142.648270
v -77.769936 39.635342 -147.726410
v -147.568787 -59.613106 -190.811798
v -146.763245 15.435879 -194.046112
v -144.016632 -2.726029 -218.867203
v -147.568787 -59.613106 -190.811798
v -147.294189 21.126425 -179.465469
v -146.763245 15.435879 -194.046112
v -71.421791 -59.545509 -194.036316
v -81.317444 -58.177475 -190.755676
v -115.298889 -59.883820 -191.478317
v -115.298889 -59.883820 -191.478317
v -122.663429 -36.616016 -158.996567
v -147.568787 -59.613106 -190.811798
v -147.568787 -59.613106 -190.811798
v -122.663429 -36.616016 -158.996567
v -112.120888 -13.192425 -132.487015
v -76.496643 -19.628967 -141.915497
v -84.784698 -9.292974 -137.628052
v -112.120888 -13.192425 -132.487015
v -112.120888 -13.192425 -132.487015
v -84.784698 -9.292974 -137.628052
v -101.628922 2.314358 -131.659943
v -62.002876 -11.707204 -144.958725
v -101.628922 2.314358 -131.659943
v -84.784698 -9.292974 -137.628052
v -62.002876 -11.707204 -144.958725
v -84.784698 -9.292974 -137.628052
v -76.496643 -19.628967 -141.915497
v -72.196312 -25.197504 -146.079208
v -112.120888 -13.192425 -132.487015
v -75.542236 -27.174440 -146.845627
v -81.317444 -58.177475 -190.755676
v -75.542236 -27.174440 -146.845627
v -115.298889 -59.883820 -191.478317
v -115.298889 -59.883820 -191.478317
v -75.542236 -27.174440 -146.845627
v -122.663429 -36.616016 -158.996567
v -71.657310 42.796570 -150.595688
v -85.653503 43.731861 -150.515396
v -95.912666 34.798237 -142.668945
v -71.421791 -59.545509 -194.036316
v -67.859962 -49.300709 -179.452469
v -81.317444 -58.177475 -190.755676
v -81.317444 -58.177475 -190.755676
v -67.859962 -49.300709 -179.452469
v -75.542236 -27.174440 -146.845627
v -72.196312 -25.197504 -146.079208
v -75.542236 -27.174440 -146.845627
v -67.859962 -49.300709 -179.452469
v -36.603729 8.836185 -226.835419
v -48.823071 -19.078123 -208.745361
v -52.713314 -40.494610 -219.927887
v -52.713314 -40.494610 -219.927887
v -48.823071 -19.078123 -208.745361
v -62.002876 -11.707204 -144.958725
v -36.603729 8.836185 -226.835419
v -38.734837 16.574085 -219.551773
v -46.187561 20.734287 -176.483322
v -55.729355 28.102566 -153.839935
v -52.261299 18.626984 -154.368912
v -46.187561 20.734287 -176.483322
v -52.261299 18.626984 -154.368912
v -62.002876 -11.707204 -144.958725
v -52.949181 10.487872 -158.465561
v -52.713314 -40.494610 -219.927887
v -65.076553 -45.405510 -176.834351
v -57.404217 -54.825733 -220.273468
v -52.713314 -40.494610 -219.927887
v -62.002876 -11.707204 -144.958725
v -65.076553 -45.405510 -176.834351
v -57.404217 -54.825733 -220.273468
v -65.076553 -45.405510 -176.834351
v -58.316635 -56.152195 -219.726410
v -58.316635 -56.152195 -219.726410
v -65.076553 -45.405510 -176.834351
v -66.643562 -54.684303 -194.364517
v -66.643562 -54.684303 -194.364517
v -65.076553 -45.405510 -176.834351
v -71.421791 -59.545509 -194.036316
v -71.421791 -59.545509 -194.036316
v -65.076553 -45.405510 -176.834351
v -67.859962 -49.300709 -179.452469
v -62.002876 -11.707204 -144.958725
v -64.836220 -18.236404 -146.919525
v -65.076553 -45.405510 -176.834351
v -72.196312 -25.197504 -146.079208
v -65.076553 -45.405510 -176.834351
v -64.836220 -18.236404 -146.919525
v -72.196312 -25.197504 -146.079208
v -67.859962 -49.300709 -179.452469
v -65.076553 -45.405510 -176.834351
v -85.653503 43.731861 -150.515396
v -101.819000 61.999691 -183.808319
v -95.912666 34.798237 -142.668945
v -56.900261 20.726374 -150.500504
v -82.415657 23.177835 -142.513992
v -101.628922 2.314358 -131.659943
v -77.769936 39.635342 -147.726410
v -82.415657 23.177835 -142.513992
v -56.900261 20.726374 -150.500504
v -77.769936 39.635342 -147.726410
v -101.628922 2.314358 -131.659943
v -82.415657 23.177835 -142.513992
v -62.798931 42.117287 -229.721619
v -52.686073 31.147341 -205.988647
v -58.040939 37.239960 -227.680984
v -57.661160 30.185507 -154.474625
v -52.686073 31.147341 -205.988647
v -69.240128 41.231468 -152.460419
v -58.040939 37.239960 -227.680984
v -52.686073 31.147341 -205.988647
v -38.734837 16.574085 -219.551773
v -38.734837 16.574085 -219.551773
v -52.686073 31.147341 -205.988647
v -46.187561 20.734287 -176.483322
v -55.729355 28.102566 -153.839935
v -52.686073 31.147341 -205.988647
v -57.661160 30.185507 -154.474625
v -55.729355 28.102566 -153.839935
v -46.187561 20.734287 -176.483322
v -52.686073 31.147341 -205.988647
v -67.271027 45.407162 -225.765305
v -72.026169 49.139851 -212.731964
v -62.798931 42.117287 -229.721619
v -101.819000 61.999691 -183.808319
v -72.026169 49.139851 -212.731964
v -67.271027 45.407162 -225.765305
v -62.798931 42.117287 -229.721619
v -72.026169 49.139851 -212.731964
v -52.686073 31.147341 -205.988647
v -52.686073 31.147341 -205.988647
v -72.026169 49.139851 -212.731964
v -69.240128 41.231468 -152.460419
v -122.663429 -36.616016 -158.996567
v -90.497253 -25.120520 -144.986389
v -112.120888 -13.192425 -132.487015
v -112.120888 -13.192425 -132.487015
v -90.497253 -25.120520 -144.986389
v -75.542236 -27.174440 -146.845627
v -75.542236 -27.174440 -146.845627
v -90.497253 -25.120520 -144.986389
v -122.663429 -36.616016 -158.996567
v -71.657310 42.796570 -150.595688
v -88.160660 56.747025 -170.514145
v -85.653503 43.731861 -150.515396
v -85.653503 43.731861 -150.515396
v -88.160660 56.747025 -170.514145
v -101.819000 61.999691 -183.808319
v -71.657310 42.796570 -150.595688
v -69.240128 41.231468 -152.460419
v -88.160660 56.747025 -170.514145
v -72.026169 49.139851 -212.731964
v -88.160660 56.747025 -170.514145
v -69.240128 41.231468 -152.460419
v -101.819000 61.999691 -183.808319
v -88.160660 56.747025 -170.514145
v -72.026169 49.139851 -212.731964
v -122.084373 52.849579 -182.610626
v -116.662582 50.766151 -176.301895
v -101.819000 61.999691 -183.808319
v -101.819000 61.999691 -183.808319
v -116.662582 50.766151 -176.301895
v -95.912666 34.798237 -142.668945
v -36.603729 8.836185 -226.835419
v -48.064159 9.505872 -176.630875
v -48.823071 -19.078123 -208.745361
v -52.261299 18.626984 -154.368912
v -48.064159 9.505872 -176.630875
v -46.187561 20.734287 -176.483322
v -52.261299 18.626984 -154.368912
v -52.949181 10.487872 -158.465561
v -48.064159 9.505872 -176.630875
v -62.002876 -11.707204 -144.958725
v -48.064159 9.505872 -176.630875
v -52.949181 10.487872 -158.465561
v -36.603729 8.836185 -226.835419
v -46.187561 20.734287 -176.483322
v -48.064159 9.505872 -176.630875
v -112.120888 -13.192425 -132.487015
v -113.807037 25.942514 -150.183014
v -147.294189 21.126425 -179.465469
v -101.628922 2.314358 -131.659943
v -95.912666 34.798237 -142.668945
v -113.807037 25.942514 -150.183014
v -112.120888 -13.192425 -132.487015
v -101.628922 2.314358 -131.659943
v -113.807037 25.942514 -150.183014
v -147.294189 21.126425 -179.465469
v -119.677032 44.513081 -170.236267
v -122.084373 52.849579 -182.610626
v -122.084373 52.849579 -182.610626
v -119.677032 44.513081 -170.236267
v -116.662582 50.766151 -176.301895
v -116.662582 50.766151 -176.301895
v -119.677032 44.513081 -170.236267
v -95.912666 34.798237 -142.668945
v -113.807037 25.942514 -150.183014
v -119.677032 44.513081 -170.236267
v -147.294189 21.126425 -179.465469
v -95.912666 34.798237 -142.668945
v -119.677032 44.513081 -170.236267
v -113.807037 25.942514 -150.183014
v -146.763245 15.435879 -194.046112
v -126.686447 39.316563 -204.906647
v -144.016632 -2.726029 -218.867203
v -147.294189 21.126425 -179.465469
v -126.686447 39.316563 -204.906647
v -146.763245 15.435879 -194.046112
v -147.294189 21.126425 -179.465469
v -122.084373 52.849579 -182.610626
v -126.686447 39.316563 -204.906647
v -126.686447 39.316563 -204.906647
v -121.277527 38.941330 -212.010956
v -144.016632 -2.726029 -218.867203
v -122.084373 52.849579 -182.610626
v -101.819000 61.999691 -183.808319
v -121.277527 38.941330 -212.010956
v -122.084373 52.849579 -182.610626
v -121.277527 38.941330 -212.010956
v -126.686447 39.316563 -204.906647
v -48.823071 -19.078123 -208.745361
v -52.524734 -3.076568 -173.180084
v -62.002876 -11.707204 -144.958725
v -48.064159 9.505872 -176.630875
v -52.524734 -3.076568 -173.180084
v -48.823071 -19.078123 -208.745361
v -62.002876 -11.707204 -144.958725
v -52.524734 -3.076568 -173.180084
v -48.064159 9.505872 -176.630875
v -65.821587 42.222496 -230.636475
v -112.057915 40.137535 -216.835175
v -67.271027 45.407162 -225.765305
v -101.819000 61.999691 -183.808319
v -67.271027 45.407162 -225.765305
v -112.057915 40.137535 -216.835175
v -101.819000 61.999691 -183.808319
v -112.057915 40.137535 -216.835175
v -121.277527 38.941330 -212.010956
v -121.277527 38.941330 -212.010956
v -116.668411 26.704433 -222.735825
v -144.016632 -2.726029 -218.867203
v -112.057915 40.137535 -216.835175
v -116.668411 26.704433 -222.735825
v -121.277527 38.941330 -212.010956
v -61.403759 28.460440 -237.612762
v -59.758114 9.953385 -244.931931
v -111.193153 25.839500 -225.979614
v -116.668411 26.704433 -222.735825
v -111.193153 25.839500 -225.979614
v -144.016632 -2.726029 -218.867203
v -61.403759 28.460440 -237.612762
v -111.193153 25.839500 -225.979614
v -65.821587 42.222496 -230.636475
v -65.821587 42.222496 -230.636475
v -111.193153 25.839500 -225.979614
v -112.057915 40.137535 -216.835175
v -112.057915 40.137535 -216.835175
v -111.193153 25.839500 -225.979614
v -116.668411 26.704433 -222.735825
v -144.016632 -2.726029 -218.867203
v -114.756126 13.083815 -227.515564
v -59.758114 9.953385 -244.931931
v -59.758114 9.953385 -244.931931
v -114.756126 13.083815 -227.515564
v -111.193153 25.839500 -225.979614
v -111.193153 25.839500 -225.979614
v -114.756126 13.083815 -227.515564
v -144.016632 -2.726029 -218.867203
vn 0.364960 -0.734599 -0.571986
vn 0.431541 -0.809483 -0.398132
vn 0.301362 -0.885340 -0.354054
vn 0.708797 -0.681495 -0.182129
vn 0.946944 -0.289147 -0.140327
vn 0.790521 -0.598098 -0.131739
vn 0.873392 -0.480627 -0.078634
vn -0.017117 -0.163757 -0.986352
vn 0.925990 -0.261529 -0.272296
vn -0.305120 -0.348800 -0.886138
vn 0.198426 -0.862315 -0.465876
vn 0.289374 -0.900467 -0.324688
vn 0.339389 -0.925295 -0.169247
vn 0.344786 -0.937821 -0.040183
vn -0.167085 -0.985217 -0.037810
vn -0.012902 -0.999908 0.002737
vn 0.284672 -0.953702 0.097027
vn -0.066651 -0.984707 0.160963
vn -0.064540 -0.150481 -0.986504
vn 0.615678 -0.003759 -0.787989
vn 0.147306 -0.139252 -0.979239
vn 0.434017 -0.106179 -0.894626
vn 0.942416 -0.282746 0.178622
vn 0.928334 -0.308854 0.206892
vn 0.589258 0.339903 -0.732968
vn 0.565884 0.346240 -0.748260
vn 0.597274 0.354765 -0.719309
vn 0.641603 0.431172 -0.634379
vn 0.418523 0.486054 -0.767196
vn 0.489633 0.480822 -0.727371
vn 0.562003 0.479497 -0.673970
vn 0.665979 0.474250 -0.575811
vn 0.747164 0.552929 -0.368802
vn 0.731823 0.539952 -0.415796
vn 0.266436 0.502479 -0.822512
vn 0.345122 -0.937101 0.052277
vn 0.293282 -0.951137 0.096565
vn -0.002224 -0.959409 0.282009
vn 0.025064 -0.952355 0.303959
vn -0.463446 -0.368498 -0.805870
vn -0.349557 -0.275036 -0.895637
vn -0.274164 -0.135332 -0.952113
vn 0.180796 0.846979 -0.499940
vn 0.696204 -0.666284 0.267144
vn 0.453505 0.306841 0.836769
vn 0.349362 0.104143 0.931182
vn 0.680450 0.209849 0.702105
vn 0.647681 0.028199 0.761390
vn 0.676674 0.662628 0.320993
vn 0.695454 0.697557 0.172505
vn 0.320864 0.218517 0.921573
vn 0.318089 0.221603 0.921798
vn 0.318230 0.215798 0.923126
vn -0.811642 -0.102729 0.575051
vn -0.777449 0.060196 0.626059
vn -0.994149 -0.011710 0.107385
vn 0.502263 -0.441281 0.743642
vn 0.126300 -0.529631 0.838772
vn 0.373196 -0.353245 0.857871
vn 0.060289 0.604433 0.794371
vn 0.252457 0.241926 0.936876
vn 0.040694 0.314278 0.948458
vn 0.077453 0.566955 0.820099
vn -0.993449 0.005744 -0.114135
vn -0.999163 0.009005 -0.039898
vn 0.034250 -0.881518 0.470907
vn 0.005229 -0.812372 0.583116
vn -0.276692 -0.662865 0.695738
vn 0.211024 -0.225333 0.951154
vn 0.207745 -0.191722 0.959211
vn 0.300771 -0.053127 0.952215
vn 0.286696 -0.161795 0.944260
vn 0.124068 -0.534170 0.836224
vn 0.028886 -0.818346 0.574000
vn 0.012000 -0.811596 0.584095
vn 0.046456 0.628550 0.776381
vn 0.072174 -0.824351 0.561459
vn 0.061315 -0.819145 0.570300
vn 0.310282 -0.751073 0.582765
vn 0.938455 -0.277706 0.205380
vn 0.931042 -0.286878 0.225525
vn 0.979982 0.121303 0.157862
vn 0.906672 0.316257 0.279155
vn 0.937442 -0.216467 0.272662
vn 0.923294 -0.307757 0.229815
vn 0.924727 -0.302668 0.230806
vn 0.842714 -0.475734 0.252010
vn 0.719963 -0.637933 0.273304
vn 0.692578 -0.661303 0.288122
vn 0.655711 -0.683760 0.320180
vn 0.782316 -0.464211 0.415319
vn 0.614757 -0.586309 0.527556
vn 0.446992 -0.696608 0.561192
vn -0.259256 0.788087 0.558306
vn 0.310083 0.198177 0.929825
vn 0.310289 0.206321 0.927983
vn 0.296796 0.211179 0.931298
vn 0.711050 0.702801 0.021866
vn 0.695312 0.714187 0.080486
vn 0.728180 0.685268 0.012713
vn 0.750940 0.657015 0.066481
vn 0.718101 0.691060 0.082255
vn 0.724017 0.684862 0.082239
vn 0.579940 0.814371 -0.021644
vn 0.227149 0.955018 -0.190639
vn 0.669247 0.740831 0.057257
vn 0.667098 0.741994 0.066522
vn -0.024732 -0.744248 0.667446
vn -0.017591 -0.738358 0.674180
vn -0.020593 -0.749209 0.662014
vn 0.059229 0.840044 0.539275
vn -0.227577 0.802855 0.551028
vn 0.584856 0.807112 0.080704
vn 0.586149 0.806371 0.078711
vn 0.377783 0.925623 -0.022408
vn -0.321393 0.781757 0.534380
vn -0.304731 0.773763 0.555364
vn 0.938056 -0.269528 0.217730
vn 0.955266 -0.162897 0.246842
vn 0.940669 -0.212611 0.264459
vn 0.938530 -0.221947 0.264388
vn 0.961314 -0.163576 0.221626
vn -0.653475 0.288319 0.699888
vn -0.505918 0.355396 0.785965
vn -0.543313 0.326352 0.773502
vn -0.649221 0.566269 0.507791
vn -0.378133 0.732017 0.566716
vn -0.365874 0.732840 0.573657
vn -0.615512 0.480244 0.624909
vn -0.538117 0.534055 0.652086
vn -0.778905 0.461923 -0.424186
vn -0.794119 0.555820 -0.245843
vn -0.776404 0.596959 -0.202080
vn -0.691125 0.467817 -0.550902
vn -0.396500 0.825608 -0.401447
vn -0.457461 0.798905 -0.390488
vn 0.931434 -0.285651 0.225465
vn 0.936897 -0.271850 0.219824
vn 0.935082 -0.267829 0.232140
vn -0.208073 0.789170 -0.577855
vn -0.198547 0.844469 -0.497444
vn -0.339737 0.829314 -0.443640
vn -0.554293 0.420670 -0.718190
vn -0.454125 0.484339 -0.747787
vn -0.230899 0.340003 -0.911638
vn -0.448809 0.306724 -0.839339
vn -0.229351 0.380517 -0.895882
vn -0.267368 0.507647 -0.819029
vn -0.390090 0.479246 -0.786227
vn -0.299982 0.033695 -0.953350
vn -0.286224 0.192961 -0.938532
vn -0.381794 0.214886 -0.898920
f 1//1 2//1 3//1
f 4//2 5//2 6//2
f 7//3 8//3 9//3
f 10//4 11//4 12//4
f 13//5 14//5 15//5
f 16//6 17//6 18//6
f 19//7 20//7 21//7
f 22//8 23//8 24//8
f 25//9 26//9 27//9
f 28//10 29//10 30//10
f 31//11 32//11 33//11
f 34//12 35//12 36//12
f 37//13 38//13 39//13
f 40//14 41//14 42//14
f 43//15 44//15 45//15
f 46//16 47//16 48//16
f 49//17 50//17 51//17
f 52//18 53//18 54//18
f 55//19 56//19 57//19
f 58//20 59//20 60//20
f 61//21 62//21 63//21
f 64//22 65//22 66//22
f 67//23 68//23 69//23
f 70//24 71//24 72//24
f 73//25 74//25 75//25
f 76//26 77//26 78//26
f 79//27 80//27 81//27
f 82//28 83//28 84//28
f 85//29 86//29 87//29
f 88//30 89//30 90//30
f 91//31 92//31 93//31
f 94//32 95//32 96//32
f 97//33 98//33 99//33
f 100//34 101//34 102//34
f 103//35 104//35 105//35
f 106//36 107//36 108//36
f 109//37 110//37 111//37
f 112//38 113//38 114//38
f 115//39 116//39 117//39
f 118//40 119//40 120//40
f 121//41 122//41 123//41
f 124//42 125//42 126//42
f 127//43 128//43 129//43
f 130//44 131//44 132//44
f 133//45 134//45 135//45
f 136//46 137//46 138//46
f 139//47 140//47 141//47
f 142//48 143//48 144//48
f 145//49 146//49 147//49
f 148//50 149//50 150//50
f 151//51 152//51 153//51
f 154//52 155//52 156//52
f 157//53 158//53 159//53
f 160//54 161//54 162//54
f 163//55 164//55 165//55
f 166//56 167//56 168//56
f 169//57 170//57 171//57
f 172//58 173//58 174//58
f 175//59 176//59 177//59
f 178//60 179//60 180//60
f 181//61 182//61 183//61
f 184//62 185//62 186//62
f 187//63 188//63 189//63
f 190//64 191//64 192//64
f 193//65 194//65 195//65
f 196//66 197//66 198//66
f 199//67 200//67 201//67
f 202//68 203//68 204//68
f 205//69 206//69 207//69
f 208//70 209//70 210//70
f 211//71 212//71 213//71
f 214//72 215//72 216//72
f 217//73 218//73 219//73
f 220//74 221//74 222//74
f 223//75 224//75 225//75
f 226//76 227//76 228//76
f 229//77 230//77 231//77
f 232//78 233//78 234//78
f 235//79 236//79 237//79
f 238//80 239//80 240//80
f 241//81 242//81 243//81
f 244//82 245//82 246//82
f 247//83 248//83 249//83
f 250//84 251//84 252//84
f 253//85 254//85 255//85
f 256//86 257//86 258//86
f 259//87 260//87 261//87
f 262//88 263//88 264//88
f 265//89 266//89 267//89
f 268//90 269//90 270//90
f 271//91 272//91 273//91
f 274//92 275//92 276//92
f 277//93 278//93 279//93
f 280//94 281//94 282//94
f 283//95 284//95 285//95
f 286//96 287//96 288//96
f 289//97 290//97 291//97
f 292//98 293//98 294//98
f 295//99 296//99 297//99
f 298//100 299//100 300//100
f 301//101 302//101 303//101
f 304//102 305//102 306//102
f 307//103 308//103 309//103
f 310//104 311//104 312//104
f 313//105 314//105 315//105
f 316//106 317//106 318//106
f 319//107 320//107 321//107
f 322//108 323//108 324//108
f 325//109 326//109 327//109
f 328//110 329//110 330//110
f 331//111 332//111 333//111
f 334//112 335//112 336//112
f 337//113 338//113 339//113
f 340//114 341//114 342//114
f 343//115 344//115 345//115
f 346//116 347//116 348//116
f 349//117 350//117 351//117
f 352//118 353//118 354//118
f 355//119 356//119 357//119
f 358//120 359//120 360//120
f 361//121 362//121 363//121
f 364//122 365//122 366//122
f 367//123 368//123 369//123
f 370//124 371//124 372//124
f 373//125 374//125 375//125
f 376//126 377//126 378//126
f 379//127 380//127 381//127
f 382//128 383//128 384//128
f 385//129 386//129 387//129
f 388//130 389//130 390//130
f 391//131 392//131 393//131
f 394//132 395//132 396//132
f 397//133 398//133 399//133
f 400//134 401//134 402//134
f 403//135 404//135 405//135
f 406//136 407//136 408//136
f 409//137 410//137 411//137
f 412//138 413//138 414//138
f 415//139 416//139 417//139
f 418//140 419//140 420//140
f 421//141 422//141 423//141
f 424//142 425//142 426//142
f 427//143 428//143 429//143
f 430//144 431//144 432//144
f 433//145 434//145 435//145
f 436//146 437//146 438//146
f 439//147 440//147 441//147
f 442//148 443//148 444//148
f 445//149 446//149 447//149
f 448//150 449//150 450//150
f 451//151 452//151 453//151
f 454//152 455//152 456//152
