o
v 5.367997 -179.290619 -130.653183
v 9.133832 -172.086655 -119.465477
v 4.946954 -179.505493 -130.044388
v 20.973068 151.499527 167.165680
v -6.774854 -166.536636 -82.745377
v 9.133832 -172.086655 -119.465477
v 9.133832 -172.086655 -119.465477
v -6.774854 -166.536636 -82.745377
v 4.946954 -179.505493 -130.044388
v 20.973068 151.499527 167.165680
v -52.964695 180.505066 135.517960
v -73.426865 168.391129 151.742401
v 20.973068 151.499527 167.165680
v -31.844814 -181.229935 -86.665146
v -6.774854 -166.536636 -82.745377
v -6.774854 -166.536636 -82.745377
v -31.844814 -181.229935 -86.665146
v 4.946954 -179.505493 -130.044388
v 20.973068 151.499527 167.165680
v 9.133832 -172.086655 -119.465477
v 24.709194 -87.181679 -152.849915
v 5.367997 -179.290619 -130.653183
v 24.709194 -87.181679 -152.849915
v 9.133832 -172.086655 -119.465477
v 5.367997 -179.290619 -130.653183
v 4.946954 -179.505493 -130.044388
v -28.130262 -171.891632 -130.883240
v -31.844814 -181.229935 -86.665146
v -49.263908 -180.390411 -101.314728
v 4.946954 -179.505493 -130.044388
v -31.844814 -181.229935 -86.665146
v -50.219654 -180.344406 -101.232162
v -49.263908 -180.390411 -101.314728
v 4.946954 -179.505493 -130.044388
v -50.219654 -180.344406 -101.232162
v -28.130262 -171.891632 -130.883240
v -49.263908 -180.390411 -101.314728
v -50.219654 -180.344406 -101.232162
v 4.946954 -179.505493 -130.044388
v -31.844814 -181.229935 -86.665146
v -236.618301 25.695354 85.182022
v -50.219654 -180.344406 -101.232162
v 20.973068 151.499527 167.165680
v -73.426865 168.391129 151.742401
v -235.890152 25.477896 85.342720
v -236.618301 25.695354 85.182022
v -235.890152 25.477896 85.342720
v -73.426865 168.391129 151.742401
v 20.973068 151.499527 167.165680
v -235.890152 25.477896 85.342720
v -31.844814 -181.229935 -86.665146
v -31.844814 -181.229935 -86.665146
v -235.890152 25.477896 85.342720
v -236.618301 25.695354 85.182022
v -236.618301 25.695354 85.182022
v -73.426865 168.391129 151.742401
v -235.202957 31.457253 85.127937
v -236.618301 25.695354 85.182022
v -235.202957 31.457253 85.127937
v -236.510452 26.719044 84.826218
v -52.964695 180.505066 135.517960
v -71.525032 246.387817 35.425049
v -73.426865 168.391129 151.742401
v -84.789200 183.177963 117.178688
v -73.426865 168.391129 151.742401
v -71.525032 246.387817 35.425049
v 20.973068 151.499527 167.165680
v -71.525032 246.387817 35.425049
v -52.964695 180.505066 135.517960
v -73.426865 168.391129 151.742401
v -192.735168 122.671997 71.913498
v -235.202957 31.457253 85.127937
v -84.789200 183.177963 117.178688
v -192.735168 122.671997 71.913498
v -73.426865 168.391129 151.742401
v -236.618301 25.695354 85.182022
v -240.379532 -26.211744 -47.358994
v -50.219654 -180.344406 -101.232162
v -236.618301 25.695354 85.182022
v -236.510452 26.719044 84.826218
v -240.379532 -26.211744 -47.358994
v -239.915741 -24.916733 -49.964626
v -238.676376 -26.135803 -52.157295
v -240.379532 -26.211744 -47.358994
v -50.219654 -180.344406 -101.232162
v -178.554153 -63.279320 -150.075989
v -28.130262 -171.891632 -130.883240
v -240.379532 -26.211744 -47.358994
v -178.554153 -63.279320 -150.075989
v -50.219654 -180.344406 -101.232162
v -240.379532 -26.211744 -47.358994
v -186.350174 -54.443756 -150.848709
v -178.554153 -63.279320 -150.075989
v -239.915741 -24.916733 -49.964626
v -189.434814 -50.858486 -150.755325
v -238.676376 -26.135803 -52.157295
v -238.676376 -26.135803 -52.157295
v -189.434814 -50.858486 -150.755325
v -240.379532 -26.211744 -47.358994
v -240.379532 -26.211744 -47.358994
v -189.434814 -50.858486 -150.755325
v -186.350174 -54.443756 -150.848709
v 5.367997 -179.290619 -130.653183
v -167.148376 -59.370827 -159.282806
v 24.709194 -87.181679 -152.849915
v 5.367997 -179.290619 -130.653183
v -28.130262 -171.891632 -130.883240
v -167.148376 -59.370827 -159.282806
v -178.554153 -63.279320 -150.075989
v -167.148376 -59.370827 -159.282806
v -28.130262 -171.891632 -130.883240
v -186.350174 -54.443756 -150.848709
v -167.148376 -59.370827 -159.282806
v -178.554153 -63.279320 -150.075989
v -189.434814 -50.858486 -150.755325
v -167.148376 -59.370827 -159.282806
v -186.350174 -54.443756 -150.848709
v -235.202957 31.457253 85.127937
v -193.764893 166.928314 5.450623
v -236.510452 26.719044 84.826218
v -192.735168 122.671997 71.913498
v -193.764893 166.928314 5.450623
v -235.202957 31.457253 85.127937
v -84.789200 183.177963 117.178688
v -159.160461 201.324677 -0.307437
v -192.735168 122.671997 71.913498
v -192.735168 122.671997 71.913498
v -159.160461 201.324677 -0.307437
v -193.764893 166.928314 5.450623
v -84.789200 183.177963 117.178688
v -71.525032 246.387817 35.425049
v -159.160461 201.324677 -0.307437
v -146.765945 207.985229 1.044841
v -159.160461 201.324677 -0.307437
v -71.525032 246.387817 35.425049
v -146.765945 207.985229 1.044841
v -71.525032 246.387817 35.425049
v -145.013168 208.703857 -1.869924
v -146.765945 207.985229 1.044841
v -145.013168 208.703857 -1.869924
v -159.160461 201.324677 -0.307437
v -167.148376 -59.370827 -159.282806
v -164.264801 -33.676502 -162.676300
v 24.709194 -87.181679 -152.849915
v 20.973068 151.499527 167.165680
v -58.764050 197.895721 -81.068726
v -71.525032 246.387817 35.425049
v 20.973068 151.499527 167.165680
v 24.709194 -87.181679 -152.849915
v -53.486355 186.295456 -80.806274
v 20.973068 151.499527 167.165680
v -53.486355 186.295456 -80.806274
v -58.764050 197.895721 -81.068726
v -58.764050 197.895721 -81.068726
v -53.486355 186.295456 -80.806274
v 24.709194 -87.181679 -152.849915
v -145.013168 208.703857 -1.869924
v -147.073395 204.691956 -12.097870
v -159.160461 201.324677 -0.307437
v -236.510452 26.719044 84.826218
v -222.724823 41.004021 -102.089302
v -240.379532 -26.211744 -47.358994
v -239.915741 -24.916733 -49.964626
v -240.379532 -26.211744 -47.358994
v -222.724823 41.004021 -102.089302
v -193.764893 166.928314 5.450623
v -222.724823 41.004021 -102.089302
v -236.510452 26.719044 84.826218
v -239.915741 -24.916733 -49.964626
v -222.724823 41.004021 -102.089302
v -189.434814 -50.858486 -150.755325
v -71.525032 246.387817 35.425049
v -131.284943 210.888580 -17.236832
v -145.013168 208.703857 -1.869924
v -121.284348 215.062057 -16.235077
v -131.284943 210.888580 -17.236832
v -71.525032 246.387817 35.425049
v -145.013168 208.703857 -1.869924
v -131.284943 210.888580 -17.236832
v -147.073395 204.691956 -12.097870
v -189.434814 -50.858486 -150.755325
v -186.035706 14.076836 -165.908798
v -167.148376 -59.370827 -159.282806
v -167.148376 -59.370827 -159.282806
v -186.035706 14.076836 -165.908798
v -164.264801 -33.676502 -162.676300
v -222.724823 41.004021 -102.089302
v -186.035706 14.076836 -165.908798
v -189.434814 -50.858486 -150.755325
v -222.724823 41.004021 -102.089302
v -185.889404 22.223873 -166.439453
v -186.035706 14.076836 -165.908798
v -58.764050 197.895721 -81.068726
v 24.709194 -87.181679 -152.849915
v -70.841568 172.248627 -116.747475
v -222.724823 41.004021 -102.089302
v -200.761002 83.575104 -132.171112
v -185.889404 22.223873 -166.439453
v -58.764050 197.895721 -81.068726
v -70.841568 172.248627 -116.747475
v -84.980766 180.767853 -114.373688
v -58.764050 197.895721 -81.068726
v -99.067085 196.098480 -92.794968
v -71.525032 246.387817 35.425049
v -121.284348 215.062057 -16.235077
v -71.525032 246.387817 35.425049
v -99.067085 196.098480 -92.794968
v -58.764050 197.895721 -81.068726
v -84.980766 180.767853 -114.373688
v -94.457321 188.727966 -107.773842
v -58.764050 197.895721 -81.068726
v -94.457321 188.727966 -107.773842
v -99.067085 196.098480 -92.794968
v -200.761002 83.575104 -132.171112
v -194.674225 93.428299 -137.202072
v -185.889404 22.223873 -166.439453
v -194.674225 93.428299 -137.202072
v -189.208603 87.255135 -145.430756
v -185.889404 22.223873 -166.439453
v -159.160461 201.324677 -0.307437
v -180.951553 161.627731 -78.466087
v -193.764893 166.928314 5.450623
v -193.764893 166.928314 5.450623
v -180.951553 161.627731 -78.466087
v -222.724823 41.004021 -102.089302
v -222.724823 41.004021 -102.089302
v -180.951553 161.627731 -78.466087
v -200.761002 83.575104 -132.171112
v 24.709194 -87.181679 -152.849915
v -88.843147 90.873848 -159.409637
v -70.841568 172.248627 -116.747475
v -147.073395 204.691956 -12.097870
v -180.875000 161.628723 -78.770599
v -159.160461 201.324677 -0.307437
v -159.160461 201.324677 -0.307437
v -180.875000 161.628723 -78.770599
v -180.951553 161.627731 -78.466087
v -200.761002 83.575104 -132.171112
v -180.875000 161.628723 -78.770599
v -194.674225 93.428299 -137.202072
v -180.951553 161.627731 -78.466087
v -180.875000 161.628723 -78.770599
v -200.761002 83.575104 -132.171112
v -189.208603 87.255135 -145.430756
v -182.885803 86.404022 -149.945633
v -185.889404 22.223873 -166.439453
v -194.674225 93.428299 -137.202072
v -180.529358 89.458344 -150.386292
v -189.208603 87.255135 -145.430756
v -189.208603 87.255135 -145.430756
v -180.529358 89.458344 -150.386292
v -182.885803 86.404022 -149.945633
v -164.264801 -33.676502 -162.676300
v -118.314682 82.024750 -174.910553
v 24.709194 -87.181679 -152.849915
v -186.035706 14.076836 -165.908798
v -118.314682 82.024750 -174.910553
v -164.264801 -33.676502 -162.676300
v -185.889404 22.223873 -166.439453
v -118.314682 82.024750 -174.910553
v -186.035706 14.076836 -165.908798
v 24.709194 -87.181679 -152.849915
v -118.314682 82.024750 -174.910553
v -88.843147 90.873848 -159.409637
v -182.885803 86.404022 -149.945633
v -178.761856 89.725685 -151.321045
v -185.889404 22.223873 -166.439453
v -180.529358 89.458344 -150.386292
v -178.761856 89.725685 -151.321045
v -182.885803 86.404022 -149.945633
v -194.674225 93.428299 -137.202072
v -180.787216 95.366882 -145.942520
v -180.529358 89.458344 -150.386292
v -180.529358 89.458344 -150.386292
v -180.787216 95.366882 -145.942520
v -178.761856 89.725685 -151.321045
v -88.843147 90.873848 -159.409637
v -122.287697 97.717453 -169.677673
v -70.841568 172.248627 -116.747475
v -118.314682 82.024750 -174.910553
v -122.287697 97.717453 -169.677673
v -88.843147 90.873848 -159.409637
v -121.284348 215.062057 -16.235077
v -137.660614 183.804840 -90.849640
v -131.284943 210.888580 -17.236832
v -121.284348 215.062057 -16.235077
v -99.067085 196.098480 -92.794968
v -137.660614 183.804840 -90.849640
v -131.284943 210.888580 -17.236832
v -137.660614 183.804840 -90.849640
v -147.073395 204.691956 -12.097870
v -147.073395 204.691956 -12.097870
v -137.660614 183.804840 -90.849640
v -180.875000 161.628723 -78.770599
v -185.889404 22.223873 -166.439453
v -134.629196 96.345428 -168.113358
v -118.314682 82.024750 -174.910553
v -118.314682 82.024750 -174.910553
v -134.629196 96.345428 -168.113358
v -122.287697 97.717453 -169.677673
v -178.761856 89.725685 -151.321045
v -134.629196 96.345428 -168.113358
v -185.889404 22.223873 -166.439453
v -137.660614 183.804840 -90.849640
v -132.839127 181.209930 -102.658501
v -180.875000 161.628723 -78.770599
v -94.457321 188.727966 -107.773842
v -132.839127 181.209930 -102.658501
v -99.067085 196.098480 -92.794968
v -99.067085 196.098480 -92.794968
v -132.839127 181.209930 -102.658501
v -137.660614 183.804840 -90.849640
v -94.457321 188.727966 -107.773842
v -121.306534 174.814453 -118.490997
v -132.839127 181.209930 -102.658501
v -70.841568 172.248627 -116.747475
v -111.164299 152.411652 -139.872391
v -84.980766 180.767853 -114.373688
v -122.287697 97.717453 -169.677673
v -111.164299 152.411652 -139.872391
v -70.841568 172.248627 -116.747475
v -84.980766 180.767853 -114.373688
v -111.164299 152.411652 -139.872391
v -94.457321 188.727966 -107.773842
v -134.629196 96.345428 -168.113358
v -111.164299 152.411652 -139.872391
v -122.287697 97.717453 -169.677673
v -94.457321 188.727966 -107.773842
v -116.115517 163.127136 -130.447083
v -121.306534 174.814453 -118.490997
v -111.164299 152.411652 -139.872391
v -116.115517 163.127136 -130.447083
v -94.457321 188.727966 -107.773842
v -134.629196 96.345428 -168.113358
v -116.115517 163.127136 -130.447083
v -111.164299 152.411652 -139.872391
v -180.787216 95.366882 -145.942520
v -165.547882 103.623299 -148.945801
v -178.761856 89.725685 -151.321045
v -178.761856 89.725685 -151.321045
v -165.547882 103.623299 -148.945801
v -134.629196 96.345428 -168.113358
v -121.306534 174.814453 -118.490997
v -136.917068 176.911972 -105.966690
v -132.839127 181.209930 -102.658501
v -180.875000 161.628723 -78.770599
v -139.662369 174.954971 -106.390907
v -194.674225 93.428299 -137.202072
v -132.839127 181.209930 -102.658501
v -139.662369 174.954971 -106.390907
v -180.875000 161.628723 -78.770599
v -136.917068 176.911972 -105.966690
v -139.662369 174.954971 -106.390907
v -132.839127 181.209930 -102.658501
v -180.787216 95.366882 -145.942520
v -126.355865 170.248627 -120.751923
v -165.547882 103.623299 -148.945801
v -116.115517 163.127136 -130.447083
v -126.355865 170.248627 -120.751923
v -121.306534 174.814453 -118.490997
v -194.674225 93.428299 -137.202072
v -126.355865 170.248627 -120.751923
v -180.787216 95.366882 -145.942520
v -139.662369 174.954971 -106.390907
v -126.355865 170.248627 -120.751923
v -194.674225 93.428299 -137.202072
v -121.306534 174.814453 -118.490997
v -126.355865 170.248627 -120.751923
v -136.917068 176.911972 -105.966690
v -136.917068 176.911972 -105.966690
v -126.355865 170.248627 -120.751923
v -139.662369 174.954971 -106.390907
v -134.629196 96.345428 -168.113358
v -138.046860 144.738052 -133.447128
v -116.115517 163.127136 -130.447083
v -165.547882 103.623299 -148.945801
v -138.046860 144.738052 -133.447128
v -134.629196 96.345428 -168.113358
v -126.355865 170.248627 -120.751923
v -138.046860 144.738052 -133.447128
v -165.547882 103.623299 -148.945801
v -116.115517 163.127136 -130.447083
v -138.046860 144.738052 -133.447128
v -126.355865 170.248627 -120.751923
vn 0.678664 -0.699998 0.222300
vn 0.818632 -0.397305 0.414716
vn 0.519334 -0.782592 0.343281
vn 0.036735 0.777984 0.627209
vn 0.241310 -0.612531 0.752712
vn 0.436324 -0.834339 0.336898
vn 0.984226 -0.136115 0.113011
vn 0.956119 -0.240937 -0.166690
vn -0.190646 -0.876856 -0.441337
vn -0.008607 -0.998857 -0.047007
vn -0.048085 -0.998843 -0.000065
vn -0.195824 -0.894904 -0.400999
vn -0.059950 -0.987826 -0.143549
vn -0.405942 -0.787229 0.464200
vn -0.195702 -0.221395 0.955346
vn -0.256153 -0.152311 0.954561
vn 0.047777 -0.610621 0.790480
vn -0.347806 -0.778314 0.522741
vn -0.464697 0.122379 0.876972
vn -0.900083 0.224600 0.373371
vn -0.050730 0.829872 0.555642
vn -0.506439 0.719978 0.474501
vn 0.100819 0.839521 0.533891
vn -0.610588 0.384573 0.692304
vn -0.573352 0.668069 0.474291
vn -0.540150 -0.778301 0.320135
vn -0.994834 0.100889 -0.011280
vn -0.888969 -0.326920 -0.320713
vn -0.447607 -0.714854 -0.537244
vn -0.645019 -0.755365 -0.115648
vn -0.726041 -0.658069 -0.199526
vn -0.896283 -0.193255 -0.399162
vn -0.837454 -0.453860 -0.304437
vn -0.743073 -0.633712 -0.215063
vn -0.001323 -0.234014 -0.972232
vn -0.063606 -0.317389 -0.946160
vn -0.355627 -0.616640 -0.702342
vn -0.453314 -0.466410 -0.759585
vn -0.451430 -0.367212 -0.813244
vn -0.962305 0.268359 -0.044192
vn -0.845794 0.437929 0.304713
vn -0.573221 0.673386 0.466871
vn -0.588880 0.668486 0.454255
vn -0.546880 0.702933 0.454761
vn -0.478008 0.875724 0.067937
vn -0.438715 0.897620 -0.042513
vn -0.467032 0.881965 -0.063401
vn 0.014029 -0.132469 -0.991088
vn 0.804447 0.574505 -0.151024
vn 0.917911 0.323124 -0.230283
vn 0.891439 0.400788 -0.211436
vn 0.804735 0.355367 -0.475516
vn -0.469691 0.849928 -0.238773
vn -0.975922 0.210846 -0.055864
vn -0.978017 0.193405 -0.077959
vn -0.962958 0.264828 -0.050782
vn -0.899718 -0.101108 -0.424599
vn -0.365997 0.909378 -0.197681
vn -0.359236 0.910242 -0.205936
vn -0.424126 0.868851 -0.255374
vn -0.412425 -0.186500 -0.891697
vn -0.111815 -0.117770 -0.986726
vn -0.876754 -0.065299 -0.476485
vn -0.869822 -0.016497 -0.493090
vn 0.775593 0.358007 -0.519891
vn -0.855045 0.078999 -0.512501
vn 0.324813 0.712416 -0.622061
vn 0.068496 0.923681 -0.376991
vn -0.262191 0.916205 -0.303026
vn 0.240583 0.773058 -0.586943
vn 0.081786 0.903994 -0.419650
vn -0.769213 0.159203 -0.618842
vn -0.760481 0.164151 -0.628270
vn -0.709393 0.688274 -0.151793
vn -0.922003 0.351215 -0.162966
vn -0.919754 0.352376 -0.172871
vn 0.521190 0.302988 -0.797846
vn -0.499130 0.820986 -0.277219
vn -0.684000 0.709482 -0.169644
vn -0.874934 0.404766 -0.265812
vn -0.896644 0.381807 -0.224170
vn -0.544245 0.232615 -0.806032
vn -0.523995 0.476810 -0.705749
vn -0.529093 0.293322 -0.796256
vn 0.019700 -0.112867 -0.993415
vn -0.044387 -0.087601 -0.995166
vn -0.068510 -0.063619 -0.995620
vn 0.400587 0.222726 -0.888776
vn -0.475437 0.239780 -0.846443
vn -0.481934 0.250689 -0.839580
vn -0.509619 0.502845 -0.698166
vn -0.459284 0.521035 -0.719431
vn 0.341417 0.376074 -0.861396
vn 0.341284 0.373968 -0.862365
vn -0.342008 0.891114 -0.298238
vn -0.302661 0.900934 -0.310988
vn -0.428191 0.859496 -0.279141
vn -0.498884 0.821075 -0.277400
vn -0.258825 0.157474 -0.953001
vn -0.151149 0.278052 -0.948599
vn -0.376474 0.240152 -0.894759
vn -0.504102 0.777206 -0.376607
vn -0.229923 0.843329 -0.485728
vn -0.302126 0.897730 -0.320626
vn -0.230227 0.832470 -0.503974
vn 0.195092 0.550051 -0.812024
vn 0.292981 0.410882 -0.863330
vn 0.025033 0.655559 -0.754729
vn -0.163295 0.497483 -0.851965
vn -0.075979 0.696342 -0.713677
vn 0.003468 0.661356 -0.750064
vn -0.332533 0.531566 -0.779012
vn -0.433079 0.535671 -0.724913
vn -0.373274 0.489592 -0.788015
vn -0.345006 0.755761 -0.556593
vn -0.570634 0.597825 -0.563012
vn -0.504510 0.776102 -0.378333
vn -0.489523 0.773834 -0.401930
vn -0.440544 0.557057 -0.703995
vn -0.248615 0.636486 -0.730120
vn -0.491315 0.576707 -0.652701
vn -0.494803 0.578838 -0.648165
vn -0.378848 0.711828 -0.591418
vn -0.401381 0.692902 -0.598983
vn -0.339734 0.531739 -0.775780
vn -0.354251 0.527923 -0.771883
vn -0.415029 0.550627 -0.724266
vn -0.348695 0.540751 -0.765507
f 1//1 2//1 3//1
f 4//2 5//2 6//2
f 7//3 8//3 9//3
f 10//4 11//4 12//4
f 13//5 14//5 15//5
f 16//6 17//6 18//6
f 19//7 20//7 21//7
f 22//8 23//8 24//8
f 25//9 26//9 27//9
f 28//10 29//10 30//10
f 31//11 32//11 33//11
f 34//12 35//12 36//12
f 37//13 38//13 39//13
f 40//14 41//14 42//14
f 43//15 44//15 45//15
f 46//16 47//16 48//16
f 49//17 50//17 51//17
f 52//18 53//18 54//18
f 55//19 56//19 57//19
f 58//20 59//20 60//20
f 61//21 62//21 63//21
f 64//22 65//22 66//22
f 67//23 68//23 69//23
f 70//24 71//24 72//24
f 73//25 74//25 75//25
f 76//26 77//26 78//26
f 79//27 80//27 81//27
f 82//28 83//28 84//28
f 85//29 86//29 87//29
f 88//30 89//30 90//30
f 91//31 92//31 93//31
f 94//32 95//32 96//32
f 97//33 98//33 99//33
f 100//34 101//34 102//34
f 103//35 104//35 105//35
f 106//36 107//36 108//36
f 109//37 110//37 111//37
f 112//38 113//38 114//38
f 115//39 116//39 117//39
f 118//40 119//40 120//40
f 121//41 122//41 123//41
f 124//42 125//42 126//42
f 127//43 128//43 129//43
f 130//44 131//44 132//44
f 133//45 134//45 135//45
f 136//46 137//46 138//46
f 139//47 140//47 141//47
f 142//48 143//48 144//48
f 145//49 146//49 147//49
f 148//50 149//50 150//50
f 151//51 152//51 153//51
f 154//52 155//52 156//52
f 157//53 158//53 159//53
f 160//54 161//54 162//54
f 163//55 164//55 165//55
f 166//56 167//56 168//56
f 169//57 170//57 171//57
f 172//58 173//58 174//58
f 175//59 176//59 177//59
f 178//60 179//60 180//60
f 181//61 182//61 183//61
f 184//62 185//62 186//62
f 187//63 188//63 189//63
f 190//64 191//64 192//64
f 193//65 194//65 195//65
f 196//66 197//66 198//66
f 199//67 200//67 201//67
f 202//68 203//68 204//68
f 205//69 206//69 207//69
f 208//70 209//70 210//70
f 211//71 212//71 213//71
f 214//72 215//72 216//72
f 217//73 218//73 219//73
f 220//74 221//74 222//74
f 223//75 224//75 225//75
f 226//76 227//76 228//76
f 229//77 230//77 231//77
f 232//78 233//78 234//78
f 235//79 236//79 237//79
f 238//80 239//80 240//80
f 241//81 242//81 243//81
f 244//82 245//82 246//82
f 247//83 248//83 249//83
f 250//84 251//84 252//84
f 253//85 254//85 255//85
f 256//86 257//86 258//86
f 259//87 260//87 261//87
f 262//88 263//88 264//88
f 265//89 266//89 267//89
f 268//90 269//90 270//90
f 271//91 272//91 273//91
f 274//92 275//92 276//92
f 277//93 278//93 279//93
f 280//94 281//94 282//94
f 283//95 284//95 285//95
f 286//96 287//96 288//96
f 289//97 290//97 291//97
f 292//98 293//98 294//98
f 295//99 296//99 297//99
f 298//100 299//100 300//100
f 301//101 302//101 303//101
f 304//102 305//102 306//102
f 307//103 308//103 309//103
f 310//104 311//104 312//104
f 313//105 314//105 315//105
f 316//106 317//106 318//106
f 319//107 320//107 321//107
f 322//108 323//108 324//108
f 325//109 326//109 327//109
f 328//110 329//110 330//110
f 331//111 332//111 333//111
f 334//112 335//112 336//112
f 337//113 338//113 339//113
f 340//114 341//114 342//114
f 343//115 344//115 345//115
f 346//116 347//116 348//116
f 349//117 350//117 351//117
f 352//118 353//118 354//118
f 355//119 356//119 357//119
f 358//120 359//120 360//120
f 361//121 362//121 363//121
f 364//122 365//122 366//122
f 367//123 368//123 369//123
f 370//124 371//124 372//124
f 373//125 374//125 375//125
f 376//126 377//126 378//126
f 379//127 380//127 381//127
f 382//128 383//128 384//128
