o
v 0.493517 40.688488 14.173348
v -13.251663 -2.514757 18.986877
v -1.057627 7.342513 24.089083
v 0.493517 40.688488 14.173348
v -1.057627 7.342513 24.089083
v 8.609654 26.685604 17.508944
v 0.493517 40.688488 14.173348
v 8.609654 26.685604 17.508944
v 15.706763 33.279213 12.584856
v 15.706763 33.279213 12.584856
v 8.609654 26.685604 17.508944
v -1.057627 7.342513 24.089083
v 0.493517 40.688488 14.173348
v 15.706763 33.279213 12.584856
v 15.726190 42.743210 3.439564
v 0.493517 40.688488 14.173348
v -4.556612 34.248486 11.218669
v -13.251663 -2.514757 18.986877
v 0.493517 40.688488 14.173348
v -7.228625 42.063763 2.329313
v -4.556612 34.248486 11.218669
v 32.099354 -18.009975 -29.381483
v 14.697211 -33.042927 -28.124710
v 32.153820 -17.948309 -29.423210
v -1.057627 7.342513 24.089083
v 14.486821 -31.869070 -25.506300
v 32.099354 -18.009975 -29.381483
v 32.099354 -18.009975 -29.381483
v 14.486821 -31.869070 -25.506300
v 14.697211 -33.042927 -28.124710
v 14.486821 -31.869070 -25.506300
v 13.158384 -31.859583 -24.858812
v 14.697211 -33.042927 -28.124710
v 14.697211 -33.042927 -28.124710
v 12.282844 -32.230591 -25.350792
v -17.456642 -33.076756 -19.044624
v -17.456642 -33.076756 -19.044624
v 12.282844 -32.230591 -25.350792
v 13.158384 -31.859583 -24.858812
v 13.158384 -31.859583 -24.858812
v 12.282844 -32.230591 -25.350792
v 14.697211 -33.042927 -28.124710
v 0.493517 40.688488 14.173348
v 15.726190 42.743210 3.439564
v 12.369935 47.428837 -12.037238
v 0.493517 40.688488 14.173348
v 12.369935 47.428837 -12.037238
v -7.228625 42.063763 2.329313
v 15.706763 33.279213 12.584856
v 30.291725 -6.586081 -20.395334
v 15.726190 42.743210 3.439564
v 32.099354 -18.009975 -29.381483
v 32.153820 -17.948309 -29.423210
v 30.291725 -6.586081 -20.395334
v -1.057627 7.342513 24.089083
v 32.099354 -18.009975 -29.381483
v 30.291725 -6.586081 -20.395334
v 15.726190 42.743210 3.439564
v 30.291725 -6.586081 -20.395334
v 12.369935 47.428837 -12.037238
v -7.228625 42.063763 2.329313
v -15.286864 39.951691 -7.804893
v -4.556612 34.248486 11.218669
v 12.369935 47.428837 -12.037238
v -15.286864 39.951691 -7.804893
v -7.228625 42.063763 2.329313
v -13.251663 -2.514757 18.986877
v -0.241493 -18.942135 -2.873730
v -1.057627 7.342513 24.089083
v -1.057627 7.342513 24.089083
v -0.241493 -18.942135 -2.873730
v 14.486821 -31.869070 -25.506300
v 14.486821 -31.869070 -25.506300
v -0.241493 -18.942135 -2.873730
v 13.158384 -31.859583 -24.858812
v -17.456642 -33.076756 -19.044624
v -0.241493 -18.942135 -2.873730
v -13.251663 -2.514757 18.986877
v -17.456642 -33.076756 -19.044624
v 13.158384 -31.859583 -24.858812
v -0.241493 -18.942135 -2.873730
v -17.456642 -33.076756 -19.044624
v -13.251663 -2.514757 18.986877
v -34.494907 4.322918 -26.242220
v 15.706763 33.279213 12.584856
v -1.057627 7.342513 24.089083
v 25.098970 6.515319 -7.779834
v 15.706763 33.279213 12.584856
v 25.098970 6.515319 -7.779834
v 30.291725 -6.586081 -20.395334
v -1.057627 7.342513 24.089083
v 30.291725 -6.586081 -20.395334
v 25.098970 6.515319 -7.779834
v -4.556612 34.248486 11.218669
v -16.973713 29.870853 -3.933011
v -13.251663 -2.514757 18.986877
v -15.286864 39.951691 -7.804893
v -16.973713 29.870853 -3.933011
v -4.556612 34.248486 11.218669
v -13.251663 -2.514757 18.986877
v -16.973713 29.870853 -3.933011
v -34.494907 4.322918 -26.242220
v -34.494907 4.322918 -26.242220
v -16.973713 29.870853 -3.933011
v -15.286864 39.951691 -7.804893
v -17.456642 -33.076756 -19.044624
v -34.494907 4.322918 -26.242220
v -24.715332 -15.123840 -30.514948
v 14.697211 -33.042927 -28.124710
v -17.456642 -33.076756 -19.044624
v -7.575328 -21.000235 -41.642410
v -17.456642 -33.076756 -19.044624
v -24.715332 -15.123840 -30.514948
v -7.575328 -21.000235 -41.642410
v 32.153820 -17.948309 -29.423210
v 26.436155 3.201210 -24.222206
v 30.291725 -6.586081 -20.395334
v 30.291725 -6.586081 -20.395334
v 26.436155 3.201210 -24.222206
v 12.369935 47.428837 -12.037238
v 12.369935 47.428837 -12.037238
v -4.450239 39.967888 -20.833519
v -15.286864 39.951691 -7.804893
v 32.153820 -17.948309 -29.423210
v 15.444760 31.119720 -30.609404
v 26.436155 3.201210 -24.222206
v 26.436155 3.201210 -24.222206
v 15.444760 31.119720 -30.609404
v 12.369935 47.428837 -12.037238
v -4.450239 39.967888 -20.833519
v -7.919121 37.531357 -22.940239
v -15.286864 39.951691 -7.804893
v -34.494907 4.322918 -26.242220
v -22.120537 1.223584 -38.429604
v -24.715332 -15.123840 -30.514948
v -24.715332 -15.123840 -30.514948
v -22.120537 1.223584 -38.429604
v -7.575328 -21.000235 -41.642410
v 14.697211 -33.042927 -28.124710
v 4.310169 -5.480159 -48.390491
v 32.153820 -17.948309 -29.423210
v 14.697211 -33.042927 -28.124710
v -7.575328 -21.000235 -41.642410
v 4.310169 -5.480159 -48.390491
v 4.310169 -5.480159 -48.390491
v 9.501398 -2.166445 -47.060989
v 32.153820 -17.948309 -29.423210
v 32.153820 -17.948309 -29.423210
v 9.459737 -1.989261 -47.150913
v 15.444760 31.119720 -30.609404
v 9.501398 -2.166445 -47.060989
v 9.459737 -1.989261 -47.150913
v 32.153820 -17.948309 -29.423210
v 4.310169 -5.480159 -48.390491
v 9.459737 -1.989261 -47.150913
v 9.501398 -2.166445 -47.060989
v 12.369935 47.428837 -12.037238
v -3.231503 36.866421 -27.927649
v -4.450239 39.967888 -20.833519
v 15.444760 31.119720 -30.609404
v -3.231503 36.866421 -27.927649
v 12.369935 47.428837 -12.037238
v -4.450239 39.967888 -20.833519
v -3.231503 36.866421 -27.927649
v -7.919121 37.531357 -22.940239
v -22.120537 1.223584 -38.429604
v -17.183973 3.282314 -42.198391
v -7.575328 -21.000235 -41.642410
v -7.575328 -21.000235 -41.642410
v -17.183973 3.282314 -42.198391
v 4.310169 -5.480159 -48.390491
v -34.494907 4.322918 -26.242220
v -18.724556 8.894393 -40.310612
v -22.120537 1.223584 -38.429604
v -22.120537 1.223584 -38.429604
v -18.724556 8.894393 -40.310612
v -17.183973 3.282314 -42.198391
v -18.724556 8.894393 -40.310612
v -18.652382 8.908556 -40.342304
v -17.183973 3.282314 -42.198391
v -34.494907 4.322918 -26.242220
v -15.286864 39.951691 -7.804893
v -15.289162 19.599546 -37.242844
v -7.919121 37.531357 -22.940239
v -15.289162 19.599546 -37.242844
v -15.286864 39.951691 -7.804893
v -3.231503 36.866421 -27.927649
v -15.289162 19.599546 -37.242844
v -7.919121 37.531357 -22.940239
v -34.494907 4.322918 -26.242220
v -15.289162 19.599546 -37.242844
v -18.724556 8.894393 -40.310612
v 9.459737 -1.989261 -47.150913
v 4.680866 18.808012 -44.767242
v 15.444760 31.119720 -30.609404
v 4.310169 -5.480159 -48.390491
v 4.680866 18.808012 -44.767242
v 9.459737 -1.989261 -47.150913
v -18.724556 8.894393 -40.310612
v -9.091974 21.203281 -40.674015
v -18.652382 8.908556 -40.342304
v -15.289162 19.599546 -37.242844
v -9.091974 21.203281 -40.674015
v -18.724556 8.894393 -40.310612
v -18.652382 8.908556 -40.342304
v -9.091974 21.203281 -40.674015
v -17.183973 3.282314 -42.198391
v -3.231503 36.866421 -27.927649
v -9.091974 21.203281 -40.674015
v -15.289162 19.599546 -37.242844
v 15.444760 31.119720 -30.609404
v 1.622167 21.987219 -42.284901
v -3.231503 36.866421 -27.927649
v 4.680866 18.808012 -44.767242
v 1.622167 21.987219 -42.284901
v 15.444760 31.119720 -30.609404
v -17.183973 3.282314 -42.198391
v -0.929834 20.292768 -43.597080
v 4.310169 -5.480159 -48.390491
v 4.310169 -5.480159 -48.390491
v -0.929834 20.292768 -43.597080
v 4.680866 18.808012 -44.767242
v -9.091974 21.203281 -40.674015
v -0.929834 20.292768 -43.597080
v -17.183973 3.282314 -42.198391
v 4.680866 18.808012 -44.767242
v -0.929834 20.292768 -43.597080
v 1.622167 21.987219 -42.284901
v -3.231503 36.866421 -27.927649
v -1.279687 22.373419 -41.784805
v -9.091974 21.203281 -40.674015
v -9.091974 21.203281 -40.674015
v -1.279687 22.373419 -41.784805
v -0.929834 20.292768 -43.597080
v 1.622167 21.987219 -42.284901
v -1.279687 22.373419 -41.784805
v -3.231503 36.866421 -27.927649
v -0.929834 20.292768 -43.597080
v -1.279687 22.373419 -41.784805
v 1.622167 21.987219 -42.284901
vn -0.545111 0.262151 0.796324
vn 0.090292 0.279999 0.955745
vn 0.272791 0.369689 0.888209
vn 0.576292 -0.010030 0.817182
vn 0.382002 0.641790 0.664967
vn -0.738131 0.302051 0.603264
vn -0.764776 0.352192 0.539518
vn 0.614864 -0.735547 -0.284450
vn 0.567568 -0.549961 0.612706
vn 0.624481 -0.692741 0.360739
vn 0.195547 -0.888921 0.414223
vn 0.102923 -0.926864 0.361013
vn 0.120895 -0.884036 0.451514
vn 0.157090 -0.902498 0.401023
vn 0.065251 0.958895 0.276157
vn -0.124200 0.973114 0.193970
vn 0.962004 0.188708 0.197328
vn 0.774313 -0.310989 0.551113
vn 0.701541 -0.368698 0.609838
vn 0.938992 0.327708 -0.104413
vn -0.767570 0.349045 0.537591
vn -0.260175 0.965545 0.005649
vn 0.270955 -0.685156 0.676125
vn 0.418875 -0.643839 0.640324
vn 0.292365 -0.735977 0.610623
vn 0.057722 -0.781306 0.621473
vn 0.139375 -0.814333 0.563415
vn -0.873075 -0.328385 0.360422
vn 0.753034 -0.210171 0.623512
vn 0.960961 0.172816 0.216076
vn 0.734375 -0.296734 0.610444
vn -0.778429 0.300560 0.551100
vn -0.773790 0.335780 0.537123
vn -0.871761 0.212298 0.441545
vn -0.885217 0.288332 0.365041
vn -0.897540 -0.428725 -0.103039
vn -0.144484 -0.845056 -0.514786
vn -0.571474 -0.593286 -0.566947
vn 0.937072 0.298049 -0.181835
vn 0.938623 0.327967 -0.106880
vn -0.287242 0.927880 -0.237761
vn 0.920870 0.307798 -0.239290
vn 0.931834 0.334876 -0.139796
vn -0.399380 0.854899 -0.331124
vn -0.712220 -0.211076 -0.669469
vn -0.588076 -0.274925 -0.760646
vn 0.344490 -0.468385 -0.813598
vn 0.216593 -0.524016 -0.823708
vn 0.426207 -0.329711 -0.842400
vn 0.691602 0.218870 -0.688319
vn 0.428238 -0.326878 -0.842474
vn 0.425411 -0.328040 -0.843454
vn -0.175642 0.890587 -0.419528
vn 0.140520 0.755366 -0.640059
vn -0.332964 0.841650 -0.425160
vn -0.528967 -0.228029 -0.817433
vn -0.330344 -0.152046 -0.931534
vn -0.680334 0.124068 -0.722324
vn -0.627395 0.088031 -0.773709
vn -0.425031 0.181614 -0.886772
vn -0.699931 0.587505 -0.406121
vn -0.668103 0.612064 -0.423103
vn -0.504709 0.655507 -0.561765
vn -0.672649 0.395144 -0.625623
vn 0.665031 0.234095 -0.709178
vn 0.138207 0.144065 -0.979869
vn -0.432696 0.313661 -0.845216
vn -0.521292 0.385470 -0.761359
vn -0.316892 0.221534 -0.922227
vn -0.489053 0.653304 -0.577945
vn 0.118437 0.709222 -0.694966
vn 0.142516 0.690685 -0.708974
vn -0.223448 0.134129 -0.965443
vn -0.164235 0.147993 -0.975256
vn -0.307467 0.217628 -0.926338
vn -0.002049 0.614200 -0.789148
vn -0.201798 0.662523 -0.721347
vn -0.200838 0.623998 -0.755176
vn -0.033268 0.688347 -0.724618
vn -0.043683 0.651987 -0.756971
f 1//1 2//1 3//1
f 4//2 5//2 6//2
f 7//3 8//3 9//3
f 10//4 11//4 12//4
f 13//5 14//5 15//5
f 16//6 17//6 18//6
f 19//7 20//7 21//7
f 22//8 23//8 24//8
f 25//9 26//9 27//9
f 28//10 29//10 30//10
f 31//11 32//11 33//11
f 34//12 35//12 36//12
f 37//13 38//13 39//13
f 40//14 41//14 42//14
f 43//15 44//15 45//15
f 46//16 47//16 48//16
f 49//17 50//17 51//17
f 52//18 53//18 54//18
f 55//19 56//19 57//19
f 58//20 59//20 60//20
f 61//21 62//21 63//21
f 64//22 65//22 66//22
f 67//23 68//23 69//23
f 70//24 71//24 72//24
f 73//25 74//25 75//25
f 76//26 77//26 78//26
f 79//27 80//27 81//27
f 82//28 83//28 84//28
f 85//29 86//29 87//29
f 88//30 89//30 90//30
f 91//31 92//31 93//31
f 94//32 95//32 96//32
f 97//33 98//33 99//33
f 100//34 101//34 102//34
f 103//35 104//35 105//35
f 106//36 107//36 108//36
f 109//37 110//37 111//37
f 112//38 113//38 114//38
f 115//39 116//39 117//39
f 118//40 119//40 120//40
f 121//41 122//41 123//41
f 124//42 125//42 126//42
f 127//43 128//43 129//43
f 130//44 131//44 132//44
f 133//45 134//45 135//45
f 136//46 137//46 138//46
f 139//47 140//47 141//47
f 142//48 143//48 144//48
f 145//49 146//49 147//49
f 148//50 149//50 150//50
f 151//51 152//51 153//51
f 154//52 155//52 156//52
f 157//53 158//53 159//53
f 160//54 161//54 162//54
f 163//55 164//55 165//55
f 166//56 167//56 168//56
f 169//57 170//57 171//57
f 172//58 173//58 174//58
f 175//59 176//59 177//59
f 178//60 179//60 180//60
f 181//61 182//61 183//61
f 184//62 185//62 186//62
f 187//63 188//63 189//63
f 190//64 191//64 192//64
f 193//65 194//65 195//65
f 196//66 197//66 198//66
f 199//67 200//67 201//67
f 202//68 203//68 204//68
f 205//69 206//69 207//69
f 208//70 209//70 210//70
f 211//71 212//71 213//71
f 214//72 215//72 216//72
f 217//73 218//73 219//73
f 220//74 221//74 222//74
f 223//75 224//75 225//75
f 226//76 227//76 228//76
f 229//77 230//77 231//77
f 232//78 233//78 234//78
f 235//79 236//79 237//79
f 238//80 239//80 240//80
