o
v -18.904202 -15.726937 -25.113537
v 15.707427 -6.809556 19.681049
v -13.322763 -16.897650 -19.417133
v -18.904202 -15.726937 -25.113537
v -13.322763 -16.897650 -19.417133
v 4.009174 -38.747631 -10.816323
v 15.707427 -6.809556 19.681049
v 4.009174 -38.747631 -10.816323
v -13.322763 -16.897650 -19.417133
v -18.904202 -15.726937 -25.113537
v 4.009174 -38.747631 -10.816323
v 3.276252 -39.598854 -10.512108
v 4.009174 -38.747631 -10.816323
v 4.844996 -46.389091 0.409722
v 3.276252 -39.598854 -10.512108
v -18.904202 -15.726937 -25.113537
v 3.276252 -39.598854 -10.512108
v -16.912264 -47.659210 -3.149079
v 4.844996 -46.389091 0.409722
v -12.749943 -48.920273 -0.748529
v 3.276252 -39.598854 -10.512108
v 3.276252 -39.598854 -10.512108
v -12.749943 -48.920273 -0.748529
v -16.912264 -47.659210 -3.149079
v -18.904202 -15.726937 -25.113537
v -16.912264 -47.659210 -3.149079
v -25.371389 -42.430130 0.860257
v -18.904202 -15.726937 -25.113537
v -25.371389 -42.430130 0.860257
v -30.755278 -37.241863 4.723746
v 15.707427 -6.809556 19.681049
v 10.150562 -40.583088 4.159844
v 4.009174 -38.747631 -10.816323
v 4.009174 -38.747631 -10.816323
v 10.150562 -40.583088 4.159844
v 4.844996 -46.389091 0.409722
v 4.844996 -46.389091 0.409722
v -0.272571 -51.580643 10.444532
v -12.749943 -48.920273 -0.748529
v 10.150562 -40.583088 4.159844
v -0.272571 -51.580643 10.444532
v 4.844996 -46.389091 0.409722
v 10.150562 -40.583088 4.159844
v -0.267755 -51.575066 10.444195
v -0.272571 -51.580643 10.444532
v 15.707427 -6.809556 19.681049
v 9.137140 -9.098449 34.327473
v 12.676669 -10.234626 30.052320
v -18.904202 -15.726937 -25.113537
v -0.489364 0.450082 22.572458
v 15.707427 -6.809556 19.681049
v 15.707427 -6.809556 19.681049
v -0.489364 0.450082 22.572458
v 9.137140 -9.098449 34.327473
v -25.371389 -42.430130 0.860257
v -24.844086 -41.775814 9.189501
v -30.755278 -37.241863 4.723746
v -18.904202 -15.726937 -25.113537
v -2.641104 0.539962 22.261463
v -0.489364 0.450082 22.572458
v -16.912264 -47.659210 -3.149079
v -22.176884 -43.872875 10.730705
v -25.371389 -42.430130 0.860257
v -12.749943 -48.920273 -0.748529
v -22.176884 -43.872875 10.730705
v -16.912264 -47.659210 -3.149079
v -0.272571 -51.580643 10.444532
v -22.176884 -43.872875 10.730705
v -12.749943 -48.920273 -0.748529
v -0.272571 -51.580643 10.444532
v -4.411058 -49.525631 12.605523
v -22.176884 -43.872875 10.730705
v -25.371389 -42.430130 0.860257
v -22.176884 -43.872875 10.730705
v -24.844086 -41.775814 9.189501
v -0.489364 0.450082 22.572458
v 6.899656 -12.317522 37.940395
v 9.137140 -9.098449 34.327473
v -2.641104 0.539962 22.261463
v 6.899656 -12.317522 37.940395
v -0.489364 0.450082 22.572458
v 9.137140 -9.098449 34.327473
v 6.899656 -12.317522 37.940395
v 12.676669 -10.234626 30.052320
v 12.676669 -10.234626 30.052320
v 6.899656 -12.317522 37.940395
v 9.171895 -13.991682 35.085308
v -24.844086 -41.775814 9.189501
v -24.038530 -41.926243 13.009151
v -30.755278 -37.241863 4.723746
v -4.411058 -49.525631 12.605523
v -24.038530 -41.926243 13.009151
v -22.176884 -43.872875 10.730705
v -22.176884 -43.872875 10.730705
v -24.038530 -41.926243 13.009151
v -24.844086 -41.775814 9.189501
v -24.038530 -41.926243 13.009151
v -24.328594 -41.359123 13.097536
v -30.755278 -37.241863 4.723746
v 15.707427 -6.809556 19.681049
v 10.887395 -20.132769 32.626472
v 10.150562 -40.583088 4.159844
v 15.707427 -6.809556 19.681049
v 12.676669 -10.234626 30.052320
v 10.887395 -20.132769 32.626472
v 12.676669 -10.234626 30.052320
v 9.171895 -13.991682 35.085308
v 10.887395 -20.132769 32.626472
v 6.899656 -12.317522 37.940395
v 10.887395 -20.132769 32.626472
v 9.171895 -13.991682 35.085308
v 10.150562 -40.583088 4.159844
v 9.704457 -22.167847 33.863647
v -0.267755 -51.575066 10.444195
v 10.887395 -20.132769 32.626472
v 9.704457 -22.167847 33.863647
v 10.150562 -40.583088 4.159844
v -0.267755 -51.575066 10.444195
v 9.704457 -22.167847 33.863647
v -0.272571 -51.580643 10.444532
v 6.899656 -12.317522 37.940395
v 9.704457 -22.167847 33.863647
v 10.887395 -20.132769 32.626472
v 6.899656 -12.317522 37.940395
v 6.972608 -19.451139 36.273483
v 9.704457 -22.167847 33.863647
v -18.904202 -15.726937 -25.113537
v -30.755278 -37.241863 4.723746
v -27.441601 -21.531780 11.664282
v -24.328594 -41.359123 13.097536
v -26.611946 -33.406006 16.240425
v -30.755278 -37.241863 4.723746
v 6.899656 -12.317522 37.940395
v 4.667647 -17.174221 37.173740
v 6.972608 -19.451139 36.273483
v -30.755278 -37.241863 4.723746
v -27.020044 -29.492807 17.543453
v -27.441601 -21.531780 11.664282
v -26.611946 -33.406006 16.240425
v -27.020044 -29.492807 17.543453
v -30.755278 -37.241863 4.723746
v -18.904202 -15.726937 -25.113537
v -13.151871 -5.015573 24.682684
v -2.641104 0.539962 22.261463
v -18.904202 -15.726937 -25.113537
v -13.171997 -5.028080 24.679564
v -13.151871 -5.015573 24.682684
v 6.899656 -12.317522 37.940395
v -19.343172 -18.603672 40.128349
v 4.667647 -17.174221 37.173740
v 4.667647 -17.174221 37.173740
v -19.343172 -18.603672 40.128349
v 6.972608 -19.451139 36.273483
v -26.611946 -33.406006 16.240425
v -19.343172 -18.603672 40.128349
v -27.020044 -29.492807 17.543453
v -2.641104 0.539962 22.261463
v -19.343172 -18.603672 40.128349
v 6.899656 -12.317522 37.940395
v -13.151871 -5.015573 24.682684
v -19.343172 -18.603672 40.128349
v -2.641104 0.539962 22.261463
v -27.020044 -29.492807 17.543453
v -19.343172 -18.603672 40.128349
v -27.441601 -21.531780 11.664282
v -27.441601 -21.531780 11.664282
v -19.343172 -18.603672 40.128349
v -13.171997 -5.028080 24.679564
v -13.171997 -5.028080 24.679564
v -19.343172 -18.603672 40.128349
v -13.151871 -5.015573 24.682684
v -18.904202 -15.726937 -25.113537
v -27.441601 -21.531780 11.664282
v -22.955557 -16.232079 11.705223
v -18.904202 -15.726937 -25.113537
v -22.955557 -16.232079 11.705223
v -13.171997 -5.028080 24.679564
v -27.441601 -21.531780 11.664282
v -13.171997 -5.028080 24.679564
v -22.955557 -16.232079 11.705223
v 6.972608 -19.451139 36.273483
v 1.798074 -29.658205 31.212999
v 9.704457 -22.167847 33.863647
v -24.328594 -41.359123 13.097536
v -19.175751 -31.853107 31.026995
v -26.611946 -33.406006 16.240425
v -26.611946 -33.406006 16.240425
v -19.175751 -31.853107 31.026995
v -19.343172 -18.603672 40.128349
v -24.038530 -41.926243 13.009151
v -19.175751 -31.853107 31.026995
v -24.328594 -41.359123 13.097536
v 9.704457 -22.167847 33.863647
v -2.312886 -36.935951 26.440828
v -0.272571 -51.580643 10.444532
v 1.798074 -29.658205 31.212999
v -2.312886 -36.935951 26.440828
v 9.704457 -22.167847 33.863647
v -4.411058 -49.525631 12.605523
v -13.176534 -37.379448 26.919949
v -24.038530 -41.926243 13.009151
v -24.038530 -41.926243 13.009151
v -13.176534 -37.379448 26.919949
v -19.175751 -31.853107 31.026995
v -0.272571 -51.580643 10.444532
v -13.176534 -37.379448 26.919949
v -4.411058 -49.525631 12.605523
v -2.312886 -36.935951 26.440828
v -13.176534 -37.379448 26.919949
v -0.272571 -51.580643 10.444532
v -19.343172 -18.603672 40.128349
v -16.885952 -29.478991 33.868671
v 6.972608 -19.451139 36.273483
v 6.972608 -19.451139 36.273483
v -16.885952 -29.478991 33.868671
v 1.798074 -29.658205 31.212999
v -19.175751 -31.853107 31.026995
v -16.885952 -29.478991 33.868671
v -19.343172 -18.603672 40.128349
v -13.176534 -37.379448 26.919949
v -16.885952 -29.478991 33.868671
v -19.175751 -31.853107 31.026995
v 1.798074 -29.658205 31.212999
v -16.885952 -29.478991 33.868671
v -2.312886 -36.935951 26.440828
v -2.312886 -36.935951 26.440828
v -16.885952 -29.478991 33.868671
v -13.176534 -37.379448 26.919949
vn 0.702374 0.359603 -0.614293
vn 0.709527 0.314611 -0.630549
vn 0.716827 0.325990 -0.616352
vn 0.127028 -0.428996 -0.894330
vn 0.564528 -0.662181 -0.492772
vn -0.072048 -0.568296 -0.819664
vn 0.154635 -0.828924 -0.537563
vn 0.101446 -0.797439 -0.594810
vn -0.599770 -0.478536 -0.641310
vn -0.747757 -0.360964 -0.557284
vn 0.925923 0.020971 -0.377130
vn 0.791648 -0.476045 -0.382980
vn 0.156219 -0.907532 -0.389847
vn 0.731453 -0.681587 0.020406
vn 0.754688 -0.644184 0.124392
vn 0.681224 0.612297 0.401280
vn 0.310832 0.857105 -0.410798
vn 0.434516 0.839547 0.326123
vn -0.652142 -0.751431 0.100315
vn 0.089643 0.932136 -0.350836
vn -0.511562 -0.858310 0.040106
vn -0.350755 -0.928707 0.120305
vn -0.326897 -0.934278 0.142347
vn -0.317573 -0.912118 0.259206
vn -0.650138 -0.753163 0.100324
vn -0.041509 0.758617 0.650213
vn -0.063322 0.752461 0.655586
vn 0.780648 0.140797 0.608904
vn 0.797781 0.059553 0.599999
vn -0.655436 -0.747373 0.108796
vn -0.313191 -0.833114 0.455887
vn -0.652284 -0.750238 0.108019
vn -0.797253 -0.467319 0.382099
vn 0.966322 -0.220195 0.133175
vn 0.963213 -0.110398 0.245017
vn 0.820515 0.000336 0.571625
vn 0.770400 -0.039572 0.636332
vn 0.771789 -0.535188 0.343388
vn 0.895504 -0.372111 0.244144
vn 0.697127 -0.576180 0.426652
vn 0.761897 -0.050308 0.645741
vn 0.539142 -0.186406 0.821328
vn -0.944731 0.276850 -0.175608
vn -0.811271 -0.401043 0.425445
vn 0.155294 -0.223274 0.962306
vn -0.970113 0.108803 0.216891
vn -0.890728 -0.224496 0.395228
vn -0.486532 0.863990 -0.129645
vn -0.509757 0.851302 -0.124233
vn 0.131823 -0.213391 0.968032
vn 0.132773 -0.245286 0.960316
vn -0.882791 -0.228699 0.410337
vn -0.119081 0.730994 0.671913
vn -0.277820 0.773745 0.569329
vn -0.956092 0.139650 0.257656
vn -0.808240 0.563167 0.172022
vn -0.522925 0.732924 0.435168
vn -0.760839 0.644607 -0.074875
vn -0.710754 0.700088 -0.068603
vn -0.763214 0.645902 0.017748
vn 0.214089 -0.518854 0.827621
vn -0.799053 -0.405018 0.444381
vn -0.832102 -0.321136 0.452192
vn -0.758444 -0.459892 0.461803
vn 0.399791 -0.650104 0.646167
vn 0.398347 -0.649621 0.647543
vn -0.303352 -0.810132 0.501661
vn -0.351546 -0.773525 0.527328
vn -0.061271 -0.779257 0.623702
vn 0.059812 -0.732449 0.678190
vn 0.112385 -0.476497 0.871963
vn 0.118192 -0.488526 0.864508
vn -0.394180 -0.523741 0.755193
vn -0.155883 -0.692614 0.704263
vn 0.108382 -0.587207 0.802148
vn 0.059924 -0.643233 0.763322
f 1//1 2//1 3//1
f 4//2 5//2 6//2
f 7//3 8//3 9//3
f 10//4 11//4 12//4
f 13//5 14//5 15//5
f 16//6 17//6 18//6
f 19//7 20//7 21//7
f 22//8 23//8 24//8
f 25//9 26//9 27//9
f 28//10 29//10 30//10
f 31//11 32//11 33//11
f 34//12 35//12 36//12
f 37//13 38//13 39//13
f 40//14 41//14 42//14
f 43//15 44//15 45//15
f 46//16 47//16 48//16
f 49//17 50//17 51//17
f 52//18 53//18 54//18
f 55//19 56//19 57//19
f 58//20 59//20 60//20
f 61//21 62//21 63//21
f 64//22 65//22 66//22
f 67//23 68//23 69//23
f 70//24 71//24 72//24
f 73//25 74//25 75//25
f 76//26 77//26 78//26
f 79//27 80//27 81//27
f 82//28 83//28 84//28
f 85//29 86//29 87//29
f 88//30 89//30 90//30
f 91//31 92//31 93//31
f 94//32 95//32 96//32
f 97//33 98//33 99//33
f 100//34 101//34 102//34
f 103//35 104//35 105//35
f 106//36 107//36 108//36
f 109//37 110//37 111//37
f 112//38 113//38 114//38
f 115//39 116//39 117//39
f 118//40 119//40 120//40
f 121//41 122//41 123//41
f 124//42 125//42 126//42
f 127//43 128//43 129//43
f 130//44 131//44 132//44
f 133//45 134//45 135//45
f 136//46 137//46 138//46
f 139//47 140//47 141//47
f 142//48 143//48 144//48
f 145//49 146//49 147//49
f 148//50 149//50 150//50
f 151//51 152//51 153//51
f 154//52 155//52 156//52
f 157//53 158//53 159//53
f 160//54 161//54 162//54
f 163//55 164//55 165//55
f 166//56 167//56 168//56
f 169//57 170//57 171//57
f 172//58 173//58 174//58
f 175//59 176//59 177//59
f 178//60 179//60 180//60
f 181//61 182//61 183//61
f 184//62 185//62 186//62
f 187//63 188//63 189//63
f 190//64 191//64 192//64
f 193//65 194//65 195//65
f 196//66 197//66 198//66
f 199//67 200//67 201//67
f 202//68 203//68 204//68
f 205//69 206//69 207//69
f 208//70 209//70 210//70
f 211//71 212//71 213//71
f 214//72 215//72 216//72
f 217//73 218//73 219//73
f 220//74 221//74 222//74
f 223//75 224//75 225//75
f 226//76 227//76 228//76
