o
v -34.811878 111.274719 214.967209
v -35.042889 111.014786 214.975800
v -14.037475 104.048714 199.800812
v -34.811878 111.274719 214.967209
v -42.977821 108.094673 217.286179
v -35.042889 111.014786 214.975800
v -35.042889 111.014786 214.975800
v -41.654610 102.535049 213.847855
v -14.037475 104.048714 199.800812
v -42.977821 108.094673 217.286179
v -41.654610 102.535049 213.847855
v -35.042889 111.014786 214.975800
v -76.398804 -151.664597 55.371311
v -76.116318 -151.652771 53.586926
v -14.037475 104.048714 199.800812
v -34.811878 111.274719 214.967209
v -45.565975 112.891769 215.145782
v -42.977821 108.094673 217.286179
v -34.811878 111.274719 214.967209
v -44.530033 113.712265 214.000717
v -45.565975 112.891769 215.145782
v -45.565975 112.891769 215.145782
v -48.567307 111.451340 215.279602
v -42.977821 108.094673 217.286179
v -42.977821 108.094673 217.286179
v -75.875053 -124.433182 86.464798
v -41.654610 102.535049 213.847855
v -41.654610 102.535049 213.847855
v -75.875053 -124.433182 86.464798
v -14.037475 104.048714 199.800812
v -76.398804 -151.664597 55.371311
v -14.037475 104.048714 199.800812
v -75.875053 -124.433182 86.464798
v -96.317482 -108.893600 -110.053520
v -92.143806 -97.485931 -123.704903
v -76.116318 -151.652771 53.586926
v -92.337250 -47.090130 -213.370270
v -92.143806 -97.485931 -123.704903
v -96.317482 -108.893600 -110.053520
v -92.337250 -47.090130 -213.370270
v -113.516006 -93.470451 -149.487350
v -92.479073 -47.187145 -213.203049
v -92.337250 -47.090130 -213.370270
v -96.317482 -108.893600 -110.053520
v -113.516006 -93.470451 -149.487350
v -76.116318 -151.652771 53.586926
v -55.991112 -72.717758 -32.007645
v -14.037475 104.048714 199.800812
v -92.143806 -97.485931 -123.704903
v -55.991112 -72.717758 -32.007645
v -76.116318 -151.652771 53.586926
v -92.337250 -47.090130 -213.370270
v -55.991112 -72.717758 -32.007645
v -92.143806 -97.485931 -123.704903
v -55.991112 -72.717758 -32.007645
v -29.577002 62.268715 -3.494060
v -14.037475 104.048714 199.800812
v -92.337250 -47.090130 -213.370270
v -29.577002 62.268715 -3.494060
v -55.991112 -72.717758 -32.007645
v -76.398804 -151.664597 55.371311
v -149.188080 -131.019379 60.915085
v -76.116318 -151.652771 53.586926
v -96.317482 -108.893600 -110.053520
v -76.116318 -151.652771 53.586926
v -149.188080 -131.019379 60.915085
v -96.317482 -108.893600 -110.053520
v -149.188080 -131.019379 60.915085
v -113.516006 -93.470451 -149.487350
v -92.337250 -47.090130 -213.370270
v -92.479073 -47.187145 -213.203049
v -179.274673 -54.694908 -166.655670
v -113.516006 -93.470451 -149.487350
v -179.274673 -54.694908 -166.655670
v -92.479073 -47.187145 -213.203049
v -42.977821 108.094673 217.286179
v -184.991348 -93.586937 105.200562
v -75.875053 -124.433182 86.464798
v -76.398804 -151.664597 55.371311
v -75.875053 -124.433182 86.464798
v -184.991348 -93.586937 105.200562
v -76.398804 -151.664597 55.371311
v -184.991348 -93.586937 105.200562
v -149.188080 -131.019379 60.915085
v -34.811878 111.274719 214.967209
v -14.037475 104.048714 199.800812
v -95.587311 196.658447 -2.399184
v -34.811878 111.274719 214.967209
v -95.587311 196.658447 -2.399184
v -44.530033 113.712265 214.000717
v -29.577002 62.268715 -3.494060
v -95.587311 196.658447 -2.399184
v -14.037475 104.048714 199.800812
v -44.530033 113.712265 214.000717
v -131.768219 122.340996 179.709702
v -45.565975 112.891769 215.145782
v -95.587311 196.658447 -2.399184
v -131.768219 122.340996 179.709702
v -44.530033 113.712265 214.000717
v -48.567307 111.451340 215.279602
v -135.583405 119.710861 182.518463
v -42.977821 108.094673 217.286179
v -45.565975 112.891769 215.145782
v -135.583405 119.710861 182.518463
v -48.567307 111.451340 215.279602
v -131.768219 122.340996 179.709702
v -135.583405 119.710861 182.518463
v -45.565975 112.891769 215.145782
v -149.188080 -131.019379 60.915085
v -200.083527 -75.197762 -90.686592
v -113.516006 -93.470451 -149.487350
v -113.516006 -93.470451 -149.487350
v -200.083527 -75.197762 -90.686592
v -179.274673 -54.694908 -166.655670
v -184.991348 -93.586937 105.200562
v -200.083527 -75.197762 -90.686592
v -149.188080 -131.019379 60.915085
v -29.577002 62.268715 -3.494060
v -91.553802 175.827805 -36.711857
v -95.587311 196.658447 -2.399184
v -184.991348 -93.586937 105.200562
v -231.154297 -2.897705 116.030190
v -205.436172 -60.440575 101.594284
v -200.083527 -75.197762 -90.686592
v -205.906143 -15.491183 -133.218796
v -179.274673 -54.694908 -166.655670
v -92.337250 -47.090130 -213.370270
v -101.826698 123.530792 -107.124733
v -29.577002 62.268715 -3.494060
v -29.577002 62.268715 -3.494060
v -101.826698 123.530792 -107.124733
v -91.553802 175.827805 -36.711857
v -42.977821 108.094673 217.286179
v -193.651047 -13.401115 144.940689
v -184.991348 -93.586937 105.200562
v -184.991348 -93.586937 105.200562
v -193.651047 -13.401115 144.940689
v -231.154297 -2.897705 116.030190
v -135.583405 119.710861 182.518463
v -193.651047 -13.401115 144.940689
v -42.977821 108.094673 217.286179
v -231.154297 -2.897705 116.030190
v -193.651047 -13.401115 144.940689
v -135.583405 119.710861 182.518463
v -184.991348 -93.586937 105.200562
v -253.006653 7.643010 15.067201
v -200.083527 -75.197762 -90.686592
v -184.991348 -93.586937 105.200562
v -205.436172 -60.440575 101.594284
v -253.006653 7.643010 15.067201
v -231.154297 -2.897705 116.030190
v -253.006653 7.643010 15.067201
v -205.436172 -60.440575 101.594284
v -200.083527 -75.197762 -90.686592
v -253.006653 7.643010 15.067201
v -205.906143 -15.491183 -133.218796
v -231.154297 -2.897705 116.030190
v -247.995834 15.474345 63.333939
v -253.006653 7.643010 15.067201
v -231.154297 -2.897705 116.030190
v -135.583405 119.710861 182.518463
v -232.368713 45.569290 112.281937
v -231.154297 -2.897705 116.030190
v -232.368713 45.569290 112.281937
v -247.995834 15.474345 63.333939
v -247.995834 15.474345 63.333939
v -252.677704 49.243793 45.177666
v -253.006653 7.643010 15.067201
v -232.368713 45.569290 112.281937
v -252.677704 49.243793 45.177666
v -247.995834 15.474345 63.333939
v -252.677704 49.243793 45.177666
v -252.346100 51.641029 42.459061
v -253.006653 7.643010 15.067201
v -91.553802 175.827805 -36.711857
v -189.237900 177.338150 -24.972589
v -95.587311 196.658447 -2.399184
v -101.826698 123.530792 -107.124733
v -189.237900 177.338150 -24.972589
v -91.553802 175.827805 -36.711857
v -101.826698 123.530792 -107.124733
v -189.588394 176.370804 -25.756519
v -189.237900 177.338150 -24.972589
v -189.588394 176.370804 -25.756519
v -205.325958 156.929382 36.785027
v -189.237900 177.338150 -24.972589
v -252.346100 51.641029 42.459061
v -205.325958 156.929382 36.785027
v -189.588394 176.370804 -25.756519
v -95.587311 196.658447 -2.399184
v -197.838699 160.264038 37.653461
v -131.768219 122.340996 179.709702
v -189.237900 177.338150 -24.972589
v -197.838699 160.264038 37.653461
v -95.587311 196.658447 -2.399184
v -205.325958 156.929382 36.785027
v -197.838699 160.264038 37.653461
v -189.237900 177.338150 -24.972589
v -131.768219 122.340996 179.709702
v -197.838699 160.264038 37.653461
v -135.583405 119.710861 182.518463
v -135.583405 119.710861 182.518463
v -197.838699 160.264038 37.653461
v -205.325958 156.929382 36.785027
v -252.677704 49.243793 45.177666
v -237.080978 80.993156 49.829826
v -252.346100 51.641029 42.459061
v -252.346100 51.641029 42.459061
v -237.080978 80.993156 49.829826
v -205.325958 156.929382 36.785027
v -253.006653 7.643010 15.067201
v -218.076385 38.482937 -95.067383
v -205.906143 -15.491183 -133.218796
v -252.346100 51.641029 42.459061
v -218.076385 38.482937 -95.067383
v -253.006653 7.643010 15.067201
v -252.346100 51.641029 42.459061
v -189.588394 176.370804 -25.756519
v -218.076385 38.482937 -95.067383
v -135.583405 119.710861 182.518463
v -223.257278 85.338242 86.331711
v -232.368713 45.569290 112.281937
v -135.583405 119.710861 182.518463
v -205.325958 156.929382 36.785027
v -223.257278 85.338242 86.331711
v -232.368713 45.569290 112.281937
v -223.257278 85.338242 86.331711
v -252.677704 49.243793 45.177666
v -252.677704 49.243793 45.177666
v -223.257278 85.338242 86.331711
v -237.080978 80.993156 49.829826
v -237.080978 80.993156 49.829826
v -223.257278 85.338242 86.331711
v -205.325958 156.929382 36.785027
v -92.337250 -47.090130 -213.370270
v -179.274673 -54.694908 -166.655670
v -154.002945 91.206848 -117.548050
v -205.906143 -15.491183 -133.218796
v -154.002945 91.206848 -117.548050
v -179.274673 -54.694908 -166.655670
v -218.076385 38.482937 -95.067383
v -154.002945 91.206848 -117.548050
v -205.906143 -15.491183 -133.218796
v -92.337250 -47.090130 -213.370270
v -154.002945 91.206848 -117.548050
v -101.826698 123.530792 -107.124733
v -101.826698 123.530792 -107.124733
v -154.002945 91.206848 -117.548050
v -189.588394 176.370804 -25.756519
v -189.588394 176.370804 -25.756519
v -154.002945 91.206848 -117.548050
v -218.076385 38.482937 -95.067383
vn 0.456142 -0.378773 0.805273
vn 0.365832 -0.295963 0.882368
vn 0.426543 -0.437851 0.791421
vn 0.391751 -0.414699 0.821313
vn 0.938802 -0.311724 0.146556
vn 0.081351 0.442391 0.893125
vn 0.123603 0.750294 0.649446
vn -0.125172 0.347158 0.929415
vn 0.126085 -0.499907 0.856852
vn 0.415975 -0.491960 0.764814
vn 0.855408 -0.396704 0.333021
vn 0.776158 -0.579990 -0.247367
vn 0.612088 -0.688803 -0.388457
vn -0.213343 -0.755604 -0.619312
vn 0.352893 -0.808891 -0.470279
vn 0.970803 -0.239773 0.007140
vn 0.863227 -0.455673 -0.217256
vn 0.879325 -0.414332 -0.234769
vn 0.982160 -0.184333 -0.037192
vn 0.966190 -0.143868 -0.213960
vn -0.276052 -0.959838 -0.050063
vn -0.285108 -0.935383 -0.209219
vn -0.323224 -0.920611 -0.219094
vn -0.288917 -0.701174 -0.651830
vn -0.270412 -0.734279 -0.622665
vn 0.010602 -0.491442 0.870846
vn -0.098657 -0.747787 0.656568
vn -0.191701 -0.820499 0.538546
vn 0.455621 0.864512 0.212198
vn 0.202445 0.929436 0.308488
vn 0.885873 0.436410 -0.157403
vn -0.115102 0.853825 0.507675
vn -0.052950 0.928208 0.368275
vn -0.354853 -0.032347 0.934362
vn -0.240376 0.573604 0.783069
vn -0.143478 0.812116 0.565581
vn -0.342875 -0.912998 -0.221068
vn -0.409977 -0.846097 -0.340646
vn -0.727546 -0.686008 -0.008346
vn 0.885381 0.436196 -0.160729
vn -0.805104 -0.455223 0.380236
vn -0.887562 -0.321560 -0.329898
vn 0.856260 0.306522 -0.415769
vn 0.852525 0.352347 -0.386074
vn -0.066010 -0.448803 0.891190
vn -0.627290 -0.399160 0.668714
vn -0.360995 -0.104142 0.926735
vn -0.603329 0.038318 0.796571
vn -0.835188 -0.549817 0.012732
vn -0.852488 -0.519282 0.060082
vn -0.888775 -0.434117 0.147043
vn -0.928880 -0.270678 -0.252814
vn -0.909808 -0.384269 0.156800
vn -0.609526 0.045934 0.791434
vn -0.952569 -0.000333 0.304322
vn -0.990487 -0.075455 0.115070
vn -0.956495 0.023729 0.290781
vn -0.995838 0.058473 -0.069907
vn -0.049639 0.851157 -0.522558
vn -0.058417 0.805487 -0.589728
vn -0.253973 0.662839 -0.704373
vn -0.906507 0.410018 -0.100651
vn -0.910176 0.400843 -0.104427
vn -0.195815 0.920943 0.336927
vn -0.248216 0.942705 0.222926
vn -0.417657 0.889538 0.185161
vn -0.318783 0.868291 0.380063
vn -0.410765 0.816768 0.405169
vn -0.884150 0.398631 0.243664
vn -0.887619 0.407921 0.213852
vn -0.953123 -0.001034 -0.302582
vn -0.951839 0.172213 -0.253662
vn -0.912350 0.318068 -0.257777
vn -0.725678 0.484822 0.488200
vn -0.719162 0.508127 0.473933
vn -0.876194 0.387630 0.286404
vn -0.876079 0.388531 0.285532
vn -0.867711 0.410908 0.279699
vn -0.466557 0.353678 -0.810701
vn -0.484635 0.353276 -0.800203
vn -0.570774 0.384231 -0.725661
vn -0.151545 0.516402 -0.842831
vn -0.263566 0.654075 -0.709027
vn -0.603599 0.454111 -0.655325
f 1//1 2//1 3//1
f 4//2 5//2 6//2
f 7//3 8//3 9//3
f 10//4 11//4 12//4
f 13//5 14//5 15//5
f 16//6 17//6 18//6
f 19//7 20//7 21//7
f 22//8 23//8 24//8
f 25//9 26//9 27//9
f 28//10 29//10 30//10
f 31//11 32//11 33//11
f 34//12 35//12 36//12
f 37//13 38//13 39//13
f 40//14 41//14 42//14
f 43//15 44//15 45//15
f 46//16 47//16 48//16
f 49//17 50//17 51//17
f 52//18 53//18 54//18
f 55//19 56//19 57//19
f 58//20 59//20 60//20
f 61//21 62//21 63//21
f 64//22 65//22 66//22
f 67//23 68//23 69//23
f 70//24 71//24 72//24
f 73//25 74//25 75//25
f 76//26 77//26 78//26
f 79//27 80//27 81//27
f 82//28 83//28 84//28
f 85//29 86//29 87//29
f 88//30 89//30 90//30
f 91//31 92//31 93//31
f 94//32 95//32 96//32
f 97//33 98//33 99//33
f 100//34 101//34 102//34
f 103//35 104//35 105//35
f 106//36 107//36 108//36
f 109//37 110//37 111//37
f 112//38 113//38 114//38
f 115//39 116//39 117//39
f 118//40 119//40 120//40
f 121//41 122//41 123//41
f 124//42 125//42 126//42
f 127//43 128//43 129//43
f 130//44 131//44 132//44
f 133//45 134//45 135//45
f 136//46 137//46 138//46
f 139//47 140//47 141//47
f 142//48 143//48 144//48
f 145//49 146//49 147//49
f 148//50 149//50 150//50
f 151//51 152//51 153//51
f 154//52 155//52 156//52
f 157//53 158//53 159//53
f 160//54 161//54 162//54
f 163//55 164//55 165//55
f 166//56 167//56 168//56
f 169//57 170//57 171//57
f 172//58 173//58 174//58
f 175//59 176//59 177//59
f 178//60 179//60 180//60
f 181//61 182//61 183//61
f 184//62 185//62 186//62
f 187//63 188//63 189//63
f 190//64 191//64 192//64
f 193//65 194//65 195//65
f 196//66 197//66 198//66
f 199//67 200//67 201//67
f 202//68 203//68 204//68
f 205//69 206//69 207//69
f 208//70 209//70 210//70
f 211//71 212//71 213//71
f 214//72 215//72 216//72
f 217//73 218//73 219//73
f 220//74 221//74 222//74
f 223//75 224//75 225//75
f 226//76 227//76 228//76
f 229//77 230//77 231//77
f 232//78 233//78 234//78
f 235//79 236//79 237//79
f 238//80 239//80 240//80
f 241//81 242//81 243//81
f 244//82 245//82 246//82
f 247//83 248//83 249//83
f 250//84 251//84 252//84
