o
v -49.836006 1.364024 22.013256
v -49.838718 1.366508 22.013786
v -29.520500 -10.881367 -23.479439
v -49.841228 1.371091 22.016521
v -49.838718 1.366508 22.013786
v -49.836006 1.364024 22.013256
v -49.841228 1.371091 22.016521
v -49.849281 1.379513 22.019053
v -49.838718 1.366508 22.013786
v -49.841228 1.371091 22.016521
v -49.836006 1.364024 22.013256
v -36.987507 17.049307 29.198240
v -49.841228 1.371091 22.016521
v -36.987507 17.049307 29.198240
v -49.849281 1.379513 22.019053
v -49.836006 1.364024 22.013256
v -7.951595 4.303309 8.135241
v -36.987507 17.049307 29.198240
v -36.987507 17.049307 29.198240
v -7.951595 4.303309 8.135241
v 6.538141 37.953835 12.445995
v -36.987507 17.049307 29.198240
v 6.538141 37.953835 12.445995
v -20.601067 26.501724 23.357073
v -29.520500 -10.881367 -23.479439
v -7.928446 30.773989 -19.252668
v -7.951595 4.303309 8.135241
v -7.951595 4.303309 8.135241
v -7.928446 30.773989 -19.252668
v 6.538141 37.953835 12.445995
v -49.836006 1.364024 22.013256
v -29.520500 -10.881367 -23.479439
v -30.173042 -7.645767 -5.570445
v -49.836006 1.364024 22.013256
v -30.173042 -7.645767 -5.570445
v -7.951595 4.303309 8.135241
v -29.520500 -10.881367 -23.479439
v -7.951595 4.303309 8.135241
v -30.173042 -7.645767 -5.570445
v -7.928446 30.773989 -19.252668
v -13.576097 37.927971 -15.188630
v 6.538141 37.953835 12.445995
v -29.520500 -10.881367 -23.479439
v -15.216847 31.658104 -21.880604
v -7.928446 30.773989 -19.252668
v -7.928446 30.773989 -19.252668
v -15.216847 31.658104 -21.880604
v -13.576097 37.927971 -15.188630
v -29.520500 -10.881367 -23.479439
v -38.667057 0.284918 -22.170753
v -15.216847 31.658104 -21.880604
v -49.838718 1.366508 22.013786
v -38.683723 0.264418 -22.128468
v -29.520500 -10.881367 -23.479439
v -49.849281 1.379513 22.019053
v -38.683723 0.264418 -22.128468
v -49.838718 1.366508 22.013786
v -29.520500 -10.881367 -23.479439
v -38.683723 0.264418 -22.128468
v -38.667057 0.284918 -22.170753
v 6.538141 37.953835 12.445995
v -28.826216 43.136730 -3.678795
v -20.601067 26.501724 23.357073
v -13.576097 37.927971 -15.188630
v -28.826216 43.136730 -3.678795
v 6.538141 37.953835 12.445995
v -36.987507 17.049307 29.198240
v -20.601067 26.501724 23.357073
v -28.826216 43.136730 -3.678795
v -49.849281 1.379513 22.019053
v -51.480301 16.339403 1.047782
v -38.683723 0.264418 -22.128468
v -51.332115 16.492964 2.939431
v -51.480301 16.339403 1.047782
v -49.849281 1.379513 22.019053
v -51.332115 16.492964 2.939431
v -50.522812 19.310976 2.044053
v -51.480301 16.339403 1.047782
v -51.332115 16.492964 2.939431
v -50.520695 19.303482 2.065337
v -50.522812 19.310976 2.044053
v -36.987507 17.049307 29.198240
v -48.386940 22.815903 4.593076
v -49.849281 1.379513 22.019053
v -51.332115 16.492964 2.939431
v -49.849281 1.379513 22.019053
v -48.386940 22.815903 4.593076
v -51.332115 16.492964 2.939431
v -48.386940 22.815903 4.593076
v -50.520695 19.303482 2.065337
v -38.667057 0.284918 -22.170753
v -35.369141 23.948902 -18.844067
v -15.216847 31.658104 -21.880604
v -44.678200 19.285728 -17.184864
v -35.369141 23.948902 -18.844067
v -38.667057 0.284918 -22.170753
v -15.216847 31.658104 -21.880604
v -36.494316 33.845097 -13.203346
v -13.576097 37.927971 -15.188630
v -13.576097 37.927971 -15.188630
v -36.494316 33.845097 -13.203346
v -28.826216 43.136730 -3.678795
v -36.987507 17.049307 29.198240
v -28.826216 43.136730 -3.678795
v -43.616718 34.605450 -4.357216
v -38.683723 0.264418 -22.128468
v -45.361771 17.675842 -15.676761
v -38.667057 0.284918 -22.170753
v -51.480301 16.339403 1.047782
v -45.361771 17.675842 -15.676761
v -38.683723 0.264418 -22.128468
v -44.678200 19.285728 -17.184864
v -38.667057 0.284918 -22.170753
v -45.361771 17.675842 -15.676761
v -51.480301 16.339403 1.047782
v -44.678200 19.285728 -17.184864
v -45.361771 17.675842 -15.676761
v -50.520695 19.303482 2.065337
v -48.986496 23.844807 1.086245
v -50.522812 19.310976 2.044053
v -48.386940 22.815903 4.593076
v -48.986496 23.844807 1.086245
v -50.520695 19.303482 2.065337
v -50.522812 19.310976 2.044053
v -48.986496 23.844807 1.086245
v -51.480301 16.339403 1.047782
v -28.826216 43.136730 -3.678795
v -43.176498 34.711082 -5.696837
v -43.616718 34.605450 -4.357216
v -36.987507 17.049307 29.198240
v -46.809811 28.155218 0.913222
v -48.386940 22.815903 4.593076
v -36.987507 17.049307 29.198240
v -43.616718 34.605450 -4.357216
v -46.809811 28.155218 0.913222
v -48.386940 22.815903 4.593076
v -46.809811 28.155218 0.913222
v -48.986496 23.844807 1.086245
v -36.494316 33.845097 -13.203346
v -43.964306 33.614418 -7.721746
v -28.826216 43.136730 -3.678795
v -28.826216 43.136730 -3.678795
v -43.964306 33.614418 -7.721746
v -43.176498 34.711082 -5.696837
v -43.176498 34.711082 -5.696837
v -43.964306 33.614418 -7.721746
v -44.422802 33.573917 -6.498336
v -43.176498 34.711082 -5.696837
v -45.528286 32.744671 -6.365868
v -43.616718 34.605450 -4.357216
v -43.176498 34.711082 -5.696837
v -44.422802 33.573917 -6.498336
v -45.528286 32.744671 -6.365868
v -43.964306 33.614418 -7.721746
v -45.528286 32.744671 -6.365868
v -44.422802 33.573917 -6.498336
v -43.616718 34.605450 -4.357216
v -45.528286 32.744671 -6.365868
v -45.461933 32.795925 -6.220620
v -15.216847 31.658104 -21.880604
v -37.551521 31.335941 -14.567515
v -36.494316 33.845097 -13.203346
v -43.616718 34.605450 -4.357216
v -45.461933 32.795925 -6.220620
v -45.701244 32.493404 -6.129463
v -48.986496 23.844807 1.086245
v -45.701244 32.493404 -6.129463
v -51.480301 16.339403 1.047782
v -46.809811 28.155218 0.913222
v -45.701244 32.493404 -6.129463
v -48.986496 23.844807 1.086245
v -45.528286 32.744671 -6.365868
v -45.701244 32.493404 -6.129463
v -45.461933 32.795925 -6.220620
v -43.616718 34.605450 -4.357216
v -45.447029 31.996513 -3.581439
v -46.809811 28.155218 0.913222
v -43.616718 34.605450 -4.357216
v -45.701244 32.493404 -6.129463
v -45.447029 31.996513 -3.581439
v -46.809811 28.155218 0.913222
v -45.447029 31.996513 -3.581439
v -45.701244 32.493404 -6.129463
v -45.701244 32.493404 -6.129463
v -45.458336 32.258202 -6.884012
v -44.678200 19.285728 -17.184864
v -45.528286 32.744671 -6.365868
v -45.458336 32.258202 -6.884012
v -45.701244 32.493404 -6.129463
v -35.369141 23.948902 -18.844067
v -40.522797 27.721819 -16.009871
v -15.216847 31.658104 -21.880604
v -15.216847 31.658104 -21.880604
v -40.522797 27.721819 -16.009871
v -37.551521 31.335941 -14.567515
v -44.678200 19.285728 -17.184864
v -40.522797 27.721819 -16.009871
v -35.369141 23.948902 -18.844067
v -37.551521 31.335941 -14.567515
v -40.522797 27.721819 -16.009871
v -36.494316 33.845097 -13.203346
v -43.964306 33.614418 -7.721746
v -42.037567 31.746525 -12.099140
v -45.528286 32.744671 -6.365868
v -45.528286 32.744671 -6.365868
v -42.037567 31.746525 -12.099140
v -45.458336 32.258202 -6.884012
v -36.494316 33.845097 -13.203346
v -42.037567 31.746525 -12.099140
v -43.964306 33.614418 -7.721746
v -40.522797 27.721819 -16.009871
v -42.037567 31.746525 -12.099140
v -36.494316 33.845097 -13.203346
v -51.480301 16.339403 1.047782
v -45.776554 31.308683 -6.658980
v -44.678200 19.285728 -17.184864
v -45.701244 32.493404 -6.129463
v -45.776554 31.308683 -6.658980
v -51.480301 16.339403 1.047782
v -45.701244 32.493404 -6.129463
v -44.678200 19.285728 -17.184864
v -45.776554 31.308683 -6.658980
v -45.458336 32.258202 -6.884012
v -42.755875 28.182774 -13.634676
v -44.678200 19.285728 -17.184864
v -42.037567 31.746525 -12.099140
v -42.755875 28.182774 -13.634676
v -45.458336 32.258202 -6.884012
v -44.678200 19.285728 -17.184864
v -42.755875 28.182774 -13.634676
v -40.522797 27.721819 -16.009871
v -40.522797 27.721819 -16.009871
v -42.755875 28.182774 -13.634676
v -42.037567 31.746525 -12.099140
vn -0.682954 -0.722035 -0.110632
vn -0.448874 -0.626094 0.637228
vn -0.457261 -0.626816 0.630742
vn 0.002304 -0.418017 0.908436
vn -0.082476 -0.358357 0.929934
vn 0.291714 -0.585446 0.756410
vn 0.466740 -0.307215 0.829321
vn 0.450653 -0.252034 0.856382
vn 0.836135 -0.394767 -0.380839
vn 0.882690 -0.338292 -0.326216
vn -0.207992 -0.963845 0.166558
vn 0.205035 -0.877822 0.432885
vn 0.378681 -0.908270 0.177894
vn 0.579285 0.697208 -0.422293
vn 0.330087 -0.075626 -0.940916
vn 0.326596 0.648458 -0.687631
vn -0.068620 0.060500 -0.995807
vn -0.770484 -0.611685 -0.179434
vn -0.798230 -0.572452 -0.187425
vn -0.690812 -0.505243 -0.517211
vn -0.128610 0.826679 0.547778
vn 0.212248 0.964782 -0.155390
vn -0.253958 0.787378 0.561731
vn -0.891287 -0.399045 -0.215340
vn -0.996950 0.000706 0.078041
vn -0.955447 0.290678 0.051250
vn -0.920632 0.330460 0.207924
vn -0.777897 0.427481 0.460582
vn -0.886277 0.327053 0.327947
vn -0.896649 0.345122 0.277329
vn -0.208227 0.164558 -0.964138
vn -0.254521 0.169322 -0.952129
vn -0.187726 0.739319 -0.646658
vn -0.190263 0.774899 -0.602771
vn -0.454311 0.749317 0.481795
vn -0.883076 -0.177792 -0.434244
vn -0.910483 -0.219292 -0.350616
vn -0.843474 -0.130084 -0.521181
vn -0.938006 0.083035 -0.336526
vn -0.910212 0.353880 0.215134
vn -0.896897 0.358752 0.258599
vn -0.948546 0.315319 -0.028880
vn -0.494176 0.864238 -0.094246
vn -0.717812 0.526225 0.455887
vn -0.582142 0.667518 0.464252
vn -0.853562 0.442099 0.275644
vn -0.373748 0.796186 -0.475816
vn -0.456535 0.844568 -0.279788
vn -0.589672 0.783737 -0.195045
vn -0.611513 0.778833 -0.139539
vn -0.604394 0.779246 -0.165781
vn -0.603139 0.772030 -0.200480
vn -0.752136 0.648969 0.114589
vn -0.268012 0.544888 -0.794523
vn -0.758129 0.638967 0.130237
vn -0.947533 0.315110 -0.053719
vn -0.881731 0.450836 0.138917
vn -0.760182 0.638136 0.122088
vn -0.739260 0.605977 0.293746
vn -0.774842 0.601458 0.194596
vn -0.838849 0.512459 0.183626
vn -0.901734 0.234263 -0.363314
vn -0.890546 0.265427 -0.369427
vn -0.261435 0.325489 -0.908685
vn -0.269012 0.539561 -0.797813
vn -0.300648 0.275276 -0.913145
vn -0.283954 0.547572 -0.787105
vn -0.712156 0.475575 -0.516394
vn -0.725936 0.449789 -0.520295
vn -0.391896 0.771245 -0.501596
vn -0.363700 0.575131 -0.732767
vn -0.929310 0.191535 -0.315749
vn -0.931085 0.196548 -0.307326
vn -0.920032 0.207147 -0.332613
vn -0.759415 0.375960 -0.530983
vn -0.755203 0.381798 -0.532821
vn -0.626972 0.401792 -0.667434
vn -0.622542 0.412130 -0.665275
f 1//1 2//1 3//1
f 4//2 5//2 6//2
f 7//3 8//3 9//3
f 10//4 11//4 12//4
f 13//5 14//5 15//5
f 16//6 17//6 18//6
f 19//7 20//7 21//7
f 22//8 23//8 24//8
f 25//9 26//9 27//9
f 28//10 29//10 30//10
f 31//11 32//11 33//11
f 34//12 35//12 36//12
f 37//13 38//13 39//13
f 40//14 41//14 42//14
f 43//15 44//15 45//15
f 46//16 47//16 48//16
f 49//17 50//17 51//17
f 52//18 53//18 54//18
f 55//19 56//19 57//19
f 58//20 59//20 60//20
f 61//21 62//21 63//21
f 64//22 65//22 66//22
f 67//23 68//23 69//23
f 70//24 71//24 72//24
f 73//25 74//25 75//25
f 76//26 77//26 78//26
f 79//27 80//27 81//27
f 82//28 83//28 84//28
f 85//29 86//29 87//29
f 88//30 89//30 90//30
f 91//31 92//31 93//31
f 94//32 95//32 96//32
f 97//33 98//33 99//33
f 100//34 101//34 102//34
f 103//35 104//35 105//35
f 106//36 107//36 108//36
f 109//37 110//37 111//37
f 112//38 113//38 114//38
f 115//39 116//39 117//39
f 118//40 119//40 120//40
f 121//41 122//41 123//41
f 124//42 125//42 126//42
f 127//43 128//43 129//43
f 130//44 131//44 132//44
f 133//45 134//45 135//45
f 136//46 137//46 138//46
f 139//47 140//47 141//47
f 142//48 143//48 144//48
f 145//49 146//49 147//49
f 148//50 149//50 150//50
f 151//51 152//51 153//51
f 154//52 155//52 156//52
f 157//53 158//53 159//53
f 160//54 161//54 162//54
f 163//55 164//55 165//55
f 166//56 167//56 168//56
f 169//57 170//57 171//57
f 172//58 173//58 174//58
f 175//59 176//59 177//59
f 178//60 179//60 180//60
f 181//61 182//61 183//61
f 184//62 185//62 186//62
f 187//63 188//63 189//63
f 190//64 191//64 192//64
f 193//65 194//65 195//65
f 196//66 197//66 198//66
f 199//67 200//67 201//67
f 202//68 203//68 204//68
f 205//69 206//69 207//69
f 208//70 209//70 210//70
f 211//71 212//71 213//71
f 214//72 215//72 216//72
f 217//73 218//73 219//73
f 220//74 221//74 222//74
f 223//75 224//75 225//75
f 226//76 227//76 228//76
f 229//77 230//77 231//77
f 232//78 233//78 234//78
