o
v 210.287231 -25.256800 -82.325150
v 210.771271 -25.758417 -82.317818
v 192.805725 -69.821465 -120.637741
v 210.287231 -25.256800 -82.325150
v 211.555054 -25.673866 -81.232635
v 210.771271 -25.758417 -82.317818
v 192.805725 -69.821465 -120.637741
v 198.650421 -87.039703 -119.711296
v 191.598618 -84.830002 -121.241158
v 210.771271 -25.758417 -82.317818
v 205.900330 -79.745201 -116.284218
v 192.805725 -69.821465 -120.637741
v 192.805725 -69.821465 -120.637741
v 205.900330 -79.745201 -116.284218
v 198.650421 -87.039703 -119.711296
v 129.079849 -136.466614 -41.835056
v 128.901749 -136.327957 -42.155655
v 135.686646 -164.655838 -67.078720
v 128.901749 -136.327957 -42.155655
v 128.552261 -136.197159 -43.436890
v 135.686646 -164.655838 -67.078720
v 135.892258 -164.616486 -67.048882
v 135.686646 -164.655838 -67.078720
v 145.839996 -148.186111 -83.870972
v 129.079849 -136.466614 -41.835056
v 135.686646 -164.655838 -67.078720
v 152.620590 -151.451904 -28.632328
v 152.673248 -151.471970 -28.592709
v 152.620590 -151.451904 -28.632328
v 135.686646 -164.655838 -67.078720
v 238.867813 -68.332802 -24.039707
v 237.705582 -112.002487 -22.287092
v 240.870300 -67.194847 -26.726742
v 238.867813 -68.332802 -24.039707
v 237.181305 -111.477165 -21.666384
v 237.705582 -112.002487 -22.287092
v 128.552261 -136.197159 -43.436890
v 127.592453 -132.491837 -51.520069
v 135.686646 -164.655838 -67.078720
v 198.650421 -87.039703 -119.711296
v 200.636002 -102.467278 -114.964088
v 191.598618 -84.830002 -121.241158
v 191.598618 -84.830002 -121.241158
v 200.636002 -102.467278 -114.964088
v 145.839996 -148.186111 -83.870972
v 205.900330 -79.745201 -116.284218
v 200.636002 -102.467278 -114.964088
v 198.650421 -87.039703 -119.711296
v 237.705582 -112.002487 -22.287092
v 242.105728 -73.086197 -31.557198
v 240.870300 -67.194847 -26.726742
v 152.176102 -56.773529 -10.248528
v 150.700821 -66.066185 -8.052545
v 154.721420 -60.887852 -7.410476
v 152.176102 -56.773529 -10.248528
v 146.085220 -70.675873 -9.643517
v 150.700821 -66.066185 -8.052545
v 129.079849 -136.466614 -41.835056
v 152.620590 -151.451904 -28.632328
v 149.210953 -139.479858 -22.193033
v 152.673248 -151.471970 -28.592709
v 149.210953 -139.479858 -22.193033
v 152.620590 -151.451904 -28.632328
v 129.079849 -136.466614 -41.835056
v 149.210953 -139.479858 -22.193033
v 146.085220 -70.675873 -9.643517
v 146.085220 -70.675873 -9.643517
v 149.210953 -139.479858 -22.193033
v 150.700821 -66.066185 -8.052545
v 129.079849 -136.466614 -41.835056
v 120.013733 -84.493446 -57.200314
v 128.901749 -136.327957 -42.155655
v 129.079849 -136.466614 -41.835056
v 146.085220 -70.675873 -9.643517
v 120.013733 -84.493446 -57.200314
v 128.901749 -136.327957 -42.155655
v 120.013733 -84.493446 -57.200314
v 128.552261 -136.197159 -43.436890
v 128.552261 -136.197159 -43.436890
v 120.013733 -84.493446 -57.200314
v 127.592453 -132.491837 -51.520069
v 127.592453 -132.491837 -51.520069
v 120.013733 -84.493446 -57.200314
v 135.686646 -164.655838 -67.078720
v 149.210953 -139.479858 -22.193033
v 149.888947 -138.867050 -21.997231
v 150.700821 -66.066185 -8.052545
v 149.863190 -139.100052 -22.053776
v 149.888947 -138.867050 -21.997231
v 149.210953 -139.479858 -22.193033
v 152.176102 -56.773529 -10.248528
v 154.721420 -60.887852 -7.410476
v 159.987686 -59.344490 -7.730357
v 150.700821 -66.066185 -8.052545
v 160.607147 -60.204540 -7.489878
v 154.721420 -60.887852 -7.410476
v 154.721420 -60.887852 -7.410476
v 160.607147 -60.204540 -7.489878
v 159.987686 -59.344490 -7.730357
v 120.013733 -84.493446 -57.200314
v 132.360107 -130.248566 -72.143517
v 135.686646 -164.655838 -67.078720
v 152.176102 -56.773529 -10.248528
v 143.754562 -56.088634 -21.072098
v 146.085220 -70.675873 -9.643517
v 205.900330 -79.745201 -116.284218
v 203.411316 -102.673447 -111.870430
v 200.636002 -102.467278 -114.964088
v 211.555054 -25.673866 -81.232635
v 240.870300 -67.194847 -26.726742
v 237.620773 -54.637245 -51.520657
v 146.085220 -70.675873 -9.643517
v 135.840775 -62.325890 -28.620705
v 120.013733 -84.493446 -57.200314
v 143.754562 -56.088634 -21.072098
v 135.840775 -62.325890 -28.620705
v 146.085220 -70.675873 -9.643517
v 238.867813 -68.332802 -24.039707
v 231.689316 -107.526299 -20.488520
v 237.181305 -111.477165 -21.666384
v 237.705582 -112.002487 -22.287092
v 241.079788 -86.810959 -33.292332
v 242.105728 -73.086197 -31.557198
v 135.840775 -62.325890 -28.620705
v 130.592926 -57.898964 -57.881226
v 120.013733 -84.493446 -57.200314
v 143.754562 -56.088634 -21.072098
v 130.592926 -57.898964 -57.881226
v 135.840775 -62.325890 -28.620705
v 130.592926 -57.898964 -57.881226
v 130.593842 -57.939175 -57.976955
v 120.013733 -84.493446 -57.200314
v 130.592926 -57.898964 -57.881226
v 130.672836 -57.871426 -58.012272
v 130.593842 -57.939175 -57.976955
v 152.176102 -56.773529 -10.248528
v 159.987686 -59.344490 -7.730357
v 151.826782 -49.735260 -22.004658
v 152.176102 -56.773529 -10.248528
v 151.826782 -49.735260 -22.004658
v 143.754562 -56.088634 -21.072098
v 211.555054 -25.673866 -81.232635
v 232.286057 -55.584808 -73.292564
v 210.771271 -25.758417 -82.317818
v 210.771271 -25.758417 -82.317818
v 232.286057 -55.584808 -73.292564
v 205.900330 -79.745201 -116.284218
v 211.555054 -25.673866 -81.232635
v 237.620773 -54.637245 -51.520657
v 232.286057 -55.584808 -73.292564
v 242.105728 -73.086197 -31.557198
v 240.312119 -66.325493 -58.776524
v 240.870300 -67.194847 -26.726742
v 240.870300 -67.194847 -26.726742
v 240.312119 -66.325493 -58.776524
v 237.620773 -54.637245 -51.520657
v 237.705582 -112.002487 -22.287092
v 240.312119 -66.325493 -58.776524
v 241.079788 -86.810959 -33.292332
v 237.620773 -54.637245 -51.520657
v 240.312119 -66.325493 -58.776524
v 232.286057 -55.584808 -73.292564
v 241.079788 -86.810959 -33.292332
v 240.312119 -66.325493 -58.776524
v 242.105728 -73.086197 -31.557198
v 192.805725 -69.821465 -120.637741
v 191.598618 -84.830002 -121.241158
v 163.771606 -68.513596 -105.359764
v 210.287231 -25.256800 -82.325150
v 192.805725 -69.821465 -120.637741
v 163.771606 -68.513596 -105.359764
v 143.754562 -56.088634 -21.072098
v 144.029343 -53.268661 -29.343294
v 130.592926 -57.898964 -57.881226
v 130.672836 -57.871426 -58.012272
v 136.903839 -66.453575 -82.837563
v 130.593842 -57.939175 -57.976955
v 135.686646 -164.655838 -67.078720
v 140.465286 -121.507584 -85.072754
v 145.839996 -148.186111 -83.870972
v 132.360107 -130.248566 -72.143517
v 140.465286 -121.507584 -85.072754
v 135.686646 -164.655838 -67.078720
v 191.598618 -84.830002 -121.241158
v 145.839996 -148.186111 -83.870972
v 140.465286 -121.507584 -85.072754
v 191.598618 -84.830002 -121.241158
v 140.465286 -121.507584 -85.072754
v 163.771606 -68.513596 -105.359764
v 163.771606 -68.513596 -105.359764
v 140.465286 -121.507584 -85.072754
v 136.903839 -66.453575 -82.837563
v 130.593842 -57.939175 -57.976955
v 134.028397 -67.897453 -77.142319
v 120.013733 -84.493446 -57.200314
v 136.903839 -66.453575 -82.837563
v 134.028397 -67.897453 -77.142319
v 130.593842 -57.939175 -57.976955
v 136.903839 -66.453575 -82.837563
v 120.013733 -84.493446 -57.200314
v 134.028397 -67.897453 -77.142319
v 237.705582 -112.002487 -22.287092
v 227.853394 -81.302551 -91.456917
v 240.312119 -66.325493 -58.776524
v 205.900330 -79.745201 -116.284218
v 227.853394 -81.302551 -91.456917
v 203.411316 -102.673447 -111.870430
v 232.286057 -55.584808 -73.292564
v 227.853394 -81.302551 -91.456917
v 205.900330 -79.745201 -116.284218
v 240.312119 -66.325493 -58.776524
v 227.853394 -81.302551 -91.456917
v 232.286057 -55.584808 -73.292564
v 210.287231 -25.256800 -82.325150
v 189.364136 -28.173473 -68.940887
v 189.813797 -28.038338 -68.309715
v 238.867813 -68.332802 -24.039707
v 240.870300 -67.194847 -26.726742
v 190.040314 -28.110476 -68.082504
v 211.555054 -25.673866 -81.232635
v 190.040314 -28.110476 -68.082504
v 240.870300 -67.194847 -26.726742
v 210.287231 -25.256800 -82.325150
v 190.040314 -28.110476 -68.082504
v 211.555054 -25.673866 -81.232635
v 210.287231 -25.256800 -82.325150
v 189.813797 -28.038338 -68.309715
v 190.040314 -28.110476 -68.082504
v 159.987686 -59.344490 -7.730357
v 190.040314 -28.110476 -68.082504
v 151.826782 -49.735260 -22.004658
v 151.826782 -49.735260 -22.004658
v 190.040314 -28.110476 -68.082504
v 189.813797 -28.038338 -68.309715
v 237.181305 -111.477165 -21.666384
v 209.390045 -139.138702 -25.212868
v 237.705582 -112.002487 -22.287092
v 152.673248 -151.471970 -28.592709
v 209.390045 -139.138702 -25.212868
v 149.210953 -139.479858 -22.193033
v 149.863190 -139.100052 -22.053776
v 149.210953 -139.479858 -22.193033
v 209.390045 -139.138702 -25.212868
v 149.863190 -139.100052 -22.053776
v 209.390045 -139.138702 -25.212868
v 149.888947 -138.867050 -21.997231
v 231.689316 -107.526299 -20.488520
v 209.390045 -139.138702 -25.212868
v 237.181305 -111.477165 -21.666384
v 152.673248 -151.471970 -28.592709
v 209.244431 -139.549179 -25.763479
v 209.390045 -139.138702 -25.212868
v 209.390045 -139.138702 -25.212868
v 209.244431 -139.549179 -25.763479
v 237.705582 -112.002487 -22.287092
v 151.826782 -49.735260 -22.004658
v 149.105179 -47.205029 -34.149441
v 143.754562 -56.088634 -21.072098
v 143.754562 -56.088634 -21.072098
v 149.105179 -47.205029 -34.149441
v 144.029343 -53.268661 -29.343294
v 160.607147 -60.204540 -7.489878
v 174.920776 -59.974442 -10.838313
v 159.987686 -59.344490 -7.730357
v 160.607147 -60.204540 -7.489878
v 238.867813 -68.332802 -24.039707
v 174.920776 -59.974442 -10.838313
v 238.867813 -68.332802 -24.039707
v 190.040314 -28.110476 -68.082504
v 174.920776 -59.974442 -10.838313
v 159.987686 -59.344490 -7.730357
v 174.920776 -59.974442 -10.838313
v 190.040314 -28.110476 -68.082504
v 135.892258 -164.616486 -67.048882
v 172.887054 -156.442307 -56.521286
v 135.686646 -164.655838 -67.078720
v 120.013733 -84.493446 -57.200314
v 131.803894 -86.989822 -76.212868
v 132.360107 -130.248566 -72.143517
v 132.360107 -130.248566 -72.143517
v 131.803894 -86.989822 -76.212868
v 140.465286 -121.507584 -85.072754
v 140.465286 -121.507584 -85.072754
v 131.803894 -86.989822 -76.212868
v 136.903839 -66.453575 -82.837563
v 136.903839 -66.453575 -82.837563
v 131.803894 -86.989822 -76.212868
v 120.013733 -84.493446 -57.200314
v 144.029343 -53.268661 -29.343294
v 144.560242 -46.440441 -51.996071
v 130.592926 -57.898964 -57.881226
v 149.105179 -47.205029 -34.149441
v 144.560242 -46.440441 -51.996071
v 144.029343 -53.268661 -29.343294
v 144.560242 -46.440441 -51.996071
v 144.556473 -46.437386 -52.064499
v 130.592926 -57.898964 -57.881226
v 130.592926 -57.898964 -57.881226
v 144.501083 -46.490730 -52.319260
v 130.672836 -57.871426 -58.012272
v 144.556473 -46.437386 -52.064499
v 144.501083 -46.490730 -52.319260
v 130.592926 -57.898964 -57.881226
v 189.364136 -28.173473 -68.940887
v 144.501083 -46.490730 -52.319260
v 144.556473 -46.437386 -52.064499
v 151.826782 -49.735260 -22.004658
v 150.101105 -44.939911 -40.809956
v 149.105179 -47.205029 -34.149441
v 149.105179 -47.205029 -34.149441
v 150.101105 -44.939911 -40.809956
v 144.560242 -46.440441 -51.996071
v 144.560242 -46.440441 -51.996071
v 150.101105 -44.939911 -40.809956
v 144.556473 -46.437386 -52.064499
v 210.287231 -25.256800 -82.325150
v 183.263229 -31.241953 -70.266350
v 189.364136 -28.173473 -68.940887
v 189.364136 -28.173473 -68.940887
v 183.263229 -31.241953 -70.266350
v 144.501083 -46.490730 -52.319260
v 237.705582 -112.002487 -22.287092
v 219.580643 -98.087227 -94.466972
v 227.853394 -81.302551 -91.456917
v 227.853394 -81.302551 -91.456917
v 219.580643 -98.087227 -94.466972
v 203.411316 -102.673447 -111.870430
v 152.673248 -151.471970 -28.592709
v 135.686646 -164.655838 -67.078720
v 184.289352 -151.551651 -43.767151
v 172.887054 -156.442307 -56.521286
v 184.289352 -151.551651 -43.767151
v 135.686646 -164.655838 -67.078720
v 152.673248 -151.471970 -28.592709
v 184.289352 -151.551651 -43.767151
v 209.244431 -139.549179 -25.763479
v 151.826782 -49.735260 -22.004658
v 189.813797 -28.038338 -68.309715
v 165.146957 -38.288406 -49.553211
v 151.826782 -49.735260 -22.004658
v 165.146957 -38.288406 -49.553211
v 150.101105 -44.939911 -40.809956
v 189.364136 -28.173473 -68.940887
v 165.146957 -38.288406 -49.553211
v 189.813797 -28.038338 -68.309715
v 189.364136 -28.173473 -68.940887
v 144.556473 -46.437386 -52.064499
v 165.146957 -38.288406 -49.553211
v 150.101105 -44.939911 -40.809956
v 165.146957 -38.288406 -49.553211
v 144.556473 -46.437386 -52.064499
v 210.287231 -25.256800 -82.325150
v 163.771606 -68.513596 -105.359764
v 156.681442 -50.965099 -78.480797
v 163.771606 -68.513596 -105.359764
v 136.903839 -66.453575 -82.837563
v 156.681442 -50.965099 -78.480797
v 210.287231 -25.256800 -82.325150
v 156.681442 -50.965099 -78.480797
v 183.263229 -31.241953 -70.266350
v 130.672836 -57.871426 -58.012272
v 156.681442 -50.965099 -78.480797
v 136.903839 -66.453575 -82.837563
v 144.501083 -46.490730 -52.319260
v 156.681442 -50.965099 -78.480797
v 130.672836 -57.871426 -58.012272
v 183.263229 -31.241953 -70.266350
v 156.681442 -50.965099 -78.480797
v 144.501083 -46.490730 -52.319260
v 172.887054 -156.442307 -56.521286
v 190.455261 -148.530396 -52.030079
v 184.289352 -151.551651 -43.767151
v 184.289352 -151.551651 -43.767151
v 190.455261 -148.530396 -52.030079
v 209.244431 -139.549179 -25.763479
v 238.867813 -68.332802 -24.039707
v 193.459564 -76.302704 -12.991675
v 231.689316 -107.526299 -20.488520
v 160.607147 -60.204540 -7.489878
v 231.689316 -107.526299 -20.488520
v 193.459564 -76.302704 -12.991675
v 160.607147 -60.204540 -7.489878
v 193.459564 -76.302704 -12.991675
v 238.867813 -68.332802 -24.039707
v 149.888947 -138.867050 -21.997231
v 204.086853 -117.736221 -20.809937
v 150.700821 -66.066185 -8.052545
v 209.390045 -139.138702 -25.212868
v 204.086853 -117.736221 -20.809937
v 149.888947 -138.867050 -21.997231
v 150.700821 -66.066185 -8.052545
v 204.086853 -117.736221 -20.809937
v 160.607147 -60.204540 -7.489878
v 231.689316 -107.526299 -20.488520
v 204.086853 -117.736221 -20.809937
v 209.390045 -139.138702 -25.212868
v 160.607147 -60.204540 -7.489878
v 204.086853 -117.736221 -20.809937
v 231.689316 -107.526299 -20.488520
v 135.892258 -164.616486 -67.048882
v 145.839996 -148.186111 -83.870972
v 190.357971 -141.266220 -74.491562
v 200.636002 -102.467278 -114.964088
v 190.357971 -141.266220 -74.491562
v 145.839996 -148.186111 -83.870972
v 135.892258 -164.616486 -67.048882
v 190.357971 -141.266220 -74.491562
v 172.887054 -156.442307 -56.521286
v 203.411316 -102.673447 -111.870430
v 190.357971 -141.266220 -74.491562
v 200.636002 -102.467278 -114.964088
v 219.580643 -98.087227 -94.466972
v 190.357971 -141.266220 -74.491562
v 203.411316 -102.673447 -111.870430
v 172.887054 -156.442307 -56.521286
v 190.357971 -141.266220 -74.491562
v 190.455261 -148.530396 -52.030079
v 190.455261 -148.530396 -52.030079
v 195.773163 -144.690659 -51.386902
v 209.244431 -139.549179 -25.763479
v 190.357971 -141.266220 -74.491562
v 195.773163 -144.690659 -51.386902
v 190.455261 -148.530396 -52.030079
v 237.705582 -112.002487 -22.287092
v 207.947632 -134.316620 -48.695274
v 219.580643 -98.087227 -94.466972
v 219.580643 -98.087227 -94.466972
v 207.947632 -134.316620 -48.695274
v 190.357971 -141.266220 -74.491562
v 209.244431 -139.549179 -25.763479
v 207.947632 -134.316620 -48.695274
v 237.705582 -112.002487 -22.287092
v 195.773163 -144.690659 -51.386902
v 207.947632 -134.316620 -48.695274
v 209.244431 -139.549179 -25.763479
v 190.357971 -141.266220 -74.491562
v 207.947632 -134.316620 -48.695274
v 195.773163 -144.690659 -51.386902
vn 0.482380 0.454531 -0.748807
vn 0.627051 0.597777 -0.499469
vn 0.218441 0.021656 -0.975610
vn 0.551236 0.408119 -0.727721
vn 0.364542 0.073797 -0.928258
vn -0.849576 -0.448181 0.278126
vn -0.896040 -0.394243 0.204169
vn 0.233488 -0.761032 -0.605238
vn -0.646762 -0.587317 0.486577
vn -0.604944 -0.632528 0.483685
vn 0.801280 0.002686 0.598284
vn 0.766192 0.005398 0.642590
vn -0.969452 -0.245265 0.002685
vn 0.119703 -0.277880 -0.953128
vn -0.170086 -0.406616 -0.897627
vn 0.560408 -0.176846 -0.809116
vn 0.955777 -0.038618 0.291547
vn -0.484686 0.273300 0.830895
vn -0.546293 0.273790 0.791582
vn -0.643079 -0.496667 0.582899
vn -0.634439 -0.498451 0.590790
vn -0.701580 -0.158586 0.694720
vn -0.151009 -0.184012 0.971255
vn -0.875998 -0.010249 0.482206
vn -0.875607 -0.009970 0.482920
vn -0.963031 -0.091600 0.253338
vn -0.987472 -0.150188 0.048408
vn -0.973427 -0.171639 -0.151589
vn -0.114038 -0.185671 0.975972
vn -0.074914 -0.227345 0.970928
vn -0.101411 0.521613 0.847134
vn 0.030305 -0.146132 0.988801
vn -0.016912 0.257927 0.966016
vn -0.929998 -0.139944 -0.339882
vn -0.729928 0.345462 0.589798
vn 0.721616 -0.205593 -0.661061
vn 0.500266 0.797111 0.338155
vn -0.878062 0.010082 0.478440
vn -0.772733 0.310336 0.553692
vn 0.239647 0.043983 0.969863
vn 0.990734 -0.087220 0.104108
vn -0.904986 0.365572 0.217617
vn -0.727632 0.646840 0.228363
vn -0.918534 0.361279 -0.160538
vn -0.694215 0.661208 -0.284376
vn 0.117320 0.853596 0.507553
vn -0.519559 0.726203 0.450208
vn 0.741313 0.364135 -0.563791
vn 0.712796 0.326300 -0.620846
vn 0.827749 0.513928 -0.225189
vn 0.976765 0.214018 -0.011206
vn 0.972973 0.230673 -0.010688
vn 0.954982 -0.216513 -0.202811
vn 0.904190 0.355335 -0.237017
vn 0.994617 -0.064052 -0.081449
vn -0.461874 0.072687 -0.883962
vn -0.314020 0.686764 -0.655551
vn -0.690318 0.691496 0.212825
vn -0.693970 0.608676 -0.384603
vn -0.753413 -0.180270 -0.632354
vn -0.782058 -0.164109 -0.601210
vn -0.503031 -0.139762 -0.852893
vn -0.532263 -0.088235 -0.841968
vn -0.642847 -0.010489 -0.765923
vn -0.878835 0.340378 -0.334353
vn -0.865184 0.364460 -0.344419
vn -0.879831 0.300863 -0.367938
vn 0.937563 -0.248176 -0.243690
vn 0.726796 -0.205089 -0.655520
vn 0.721303 0.312315 -0.618208
vn 0.905267 0.129708 -0.404558
vn -0.185954 0.979518 -0.077240
vn 0.219038 0.829124 0.514369
vn 0.219942 0.829408 0.513526
vn 0.067131 0.955606 0.286898
vn 0.046715 0.964567 0.259671
vn 0.124356 0.854588 0.504198
vn -0.076945 0.925606 0.370583
vn 0.402477 -0.502471 0.765203
vn 0.047108 -0.459668 0.886841
vn 0.047938 -0.415385 0.908382
vn 0.051279 -0.240876 0.969200
vn 0.069415 -0.195170 0.978310
vn 0.142615 -0.811239 0.567056
vn 0.628724 -0.693895 0.351021
vn -0.571470 0.768371 0.288146
vn -0.651813 0.724159 0.225240
vn 0.203056 0.396578 0.895262
vn 0.221346 0.179521 0.958529
vn 0.215116 0.828053 0.517738
vn 0.141895 0.848517 0.509790
vn 0.155229 -0.966400 0.204878
vn -0.851833 -0.059905 -0.520377
vn -0.825747 -0.063341 -0.560473
vn -0.757282 -0.022489 -0.652700
vn -0.846885 0.039239 -0.530327
vn -0.670403 0.714620 0.199696
vn -0.667100 0.717445 0.200625
vn -0.650082 0.756671 0.069594
vn -0.577843 0.794826 -0.185335
vn -0.627628 0.778064 -0.026463
vn -0.407991 0.907350 -0.101287
vn -0.320963 0.910255 0.261568
vn -0.582514 0.792117 0.182283
vn -0.375549 0.924728 0.061977
vn -0.353714 0.861069 -0.365304
vn -0.419411 0.896247 -0.144347
vn 0.877290 -0.379759 -0.293507
vn 0.741060 -0.253770 -0.621635
vn 0.127478 -0.954211 0.270612
vn 0.144058 -0.960175 0.239396
vn 0.174145 -0.913521 0.367631
vn -0.147502 0.936597 0.317851
vn -0.259446 0.929844 0.260918
vn -0.350794 0.935133 0.049699
vn -0.370228 0.928679 0.022057
vn -0.373729 0.925532 0.060974
vn -0.387327 0.721883 -0.573466
vn -0.424611 0.702761 -0.570817
vn -0.399341 0.754891 -0.520256
vn -0.511886 0.764081 -0.392624
vn -0.496933 0.786859 -0.365939
vn -0.481295 0.798898 -0.360717
vn 0.415324 -0.909393 -0.022590
vn 0.435742 -0.900063 -0.003943
vn 0.228481 0.046263 0.972449
vn 0.123112 -0.086629 0.988604
vn 0.216602 0.110525 0.969983
vn 0.051982 -0.188430 0.980710
vn 0.052134 -0.188817 0.980627
vn 0.054365 -0.186049 0.981035
vn 0.057892 -0.187381 0.980580
vn 0.056744 -0.184296 0.981231
vn 0.244760 -0.762010 -0.599527
vn 0.247675 -0.730035 -0.636950
vn 0.308261 -0.853166 -0.420812
vn 0.524747 -0.677136 -0.515876
vn 0.642737 -0.633962 -0.430095
vn 0.452475 -0.847932 -0.276186
vn 0.590615 -0.792610 -0.151469
vn 0.586383 -0.769983 -0.251557
vn 0.728675 -0.614912 -0.301522
vn 0.711443 -0.627683 -0.316011
vn 0.694141 -0.692295 -0.197221
vn 0.660700 -0.722875 -0.202308
vn 0.658981 -0.706121 -0.259107
f 1//1 2//1 3//1
f 4//2 5//2 6//2
f 7//3 8//3 9//3
f 10//4 11//4 12//4
f 13//5 14//5 15//5
f 16//6 17//6 18//6
f 19//7 20//7 21//7
f 22//8 23//8 24//8
f 25//9 26//9 27//9
f 28//10 29//10 30//10
f 31//11 32//11 33//11
f 34//12 35//12 36//12
f 37//13 38//13 39//13
f 40//14 41//14 42//14
f 43//15 44//15 45//15
f 46//16 47//16 48//16
f 49//17 50//17 51//17
f 52//18 53//18 54//18
f 55//19 56//19 57//19
f 58//20 59//20 60//20
f 61//21 62//21 63//21
f 64//22 65//22 66//22
f 67//23 68//23 69//23
f 70//24 71//24 72//24
f 73//25 74//25 75//25
f 76//26 77//26 78//26
f 79//27 80//27 81//27
f 82//28 83//28 84//28
f 85//29 86//29 87//29
f 88//30 89//30 90//30
f 91//31 92//31 93//31
f 94//32 95//32 96//32
f 97//33 98//33 99//33
f 100//34 101//34 102//34
f 103//35 104//35 105//35
f 106//36 107//36 108//36
f 109//37 110//37 111//37
f 112//38 113//38 114//38
f 115//39 116//39 117//39
f 118//40 119//40 120//40
f 121//41 122//41 123//41
f 124//42 125//42 126//42
f 127//43 128//43 129//43
f 130//44 131//44 132//44
f 133//45 134//45 135//45
f 136//46 137//46 138//46
f 139//47 140//47 141//47
f 142//48 143//48 144//48
f 145//49 146//49 147//49
f 148//50 149//50 150//50
f 151//51 152//51 153//51
f 154//52 155//52 156//52
f 157//53 158//53 159//53
f 160//54 161//54 162//54
f 163//55 164//55 165//55
f 166//56 167//56 168//56
f 169//57 170//57 171//57
f 172//58 173//58 174//58
f 175//59 176//59 177//59
f 178//60 179//60 180//60
f 181//61 182//61 183//61
f 184//62 185//62 186//62
f 187//63 188//63 189//63
f 190//64 191//64 192//64
f 193//65 194//65 195//65
f 196//66 197//66 198//66
f 199//67 200//67 201//67
f 202//68 203//68 204//68
f 205//69 206//69 207//69
f 208//70 209//70 210//70
f 211//71 212//71 213//71
f 214//72 215//72 216//72
f 217//73 218//73 219//73
f 220//74 221//74 222//74
f 223//75 224//75 225//75
f 226//76 227//76 228//76
f 229//77 230//77 231//77
f 232//78 233//78 234//78
f 235//79 236//79 237//79
f 238//80 239//80 240//80
f 241//81 242//81 243//81
f 244//82 245//82 246//82
f 247//83 248//83 249//83
f 250//84 251//84 252//84
f 253//85 254//85 255//85
f 256//86 257//86 258//86
f 259//87 260//87 261//87
f 262//88 263//88 264//88
f 265//89 266//89 267//89
f 268//90 269//90 270//90
f 271//91 272//91 273//91
f 274//92 275//92 276//92
f 277//93 278//93 279//93
f 280//94 281//94 282//94
f 283//95 284//95 285//95
f 286//96 287//96 288//96
f 289//97 290//97 291//97
f 292//98 293//98 294//98
f 295//99 296//99 297//99
f 298//100 299//100 300//100
f 301//101 302//101 303//101
f 304//102 305//102 306//102
f 307//103 308//103 309//103
f 310//104 311//104 312//104
f 313//105 314//105 315//105
f 316//106 317//106 318//106
f 319//107 320//107 321//107
f 322//108 323//108 324//108
f 325//109 326//109 327//109
f 328//110 329//110 330//110
f 331//111 332//111 333//111
f 334//112 335//112 336//112
f 337//113 338//113 339//113
f 340//114 341//114 342//114
f 343//115 344//115 345//115
f 346//116 347//116 348//116
f 349//117 350//117 351//117
f 352//118 353//118 354//118
f 355//119 356//119 357//119
f 358//120 359//120 360//120
f 361//121 362//121 363//121
f 364//122 365//122 366//122
f 367//123 368//123 369//123
f 370//124 371//124 372//124
f 373//125 374//125 375//125
f 376//126 377//126 378//126
f 379//127 380//127 381//127
f 382//128 383//128 384//128
f 385//129 386//129 387//129
f 388//130 389//130 390//130
f 391//131 392//131 393//131
f 394//132 395//132 396//132
f 397//133 398//133 399//133
f 400//134 401//134 402//134
f 403//135 404//135 405//135
f 406//136 407//136 408//136
f 409//137 410//137 411//137
f 412//138 413//138 414//138
f 415//139 416//139 417//139
f 418//140 419//140 420//140
f 421//141 422//141 423//141
f 424//142 425//142 426//142
f 427//143 428//143 429//143
f 430//144 431//144 432//144
f 433//145 434//145 435//145
f 436//146 437//146 438//146
