o
v 109.451408 -177.548615 -80.236450
v 109.282898 -177.645828 -80.424232
v 157.424026 -118.904770 -167.098831
v 109.451408 -177.548615 -80.236450
v 109.177452 -177.696747 -80.521278
v 109.282898 -177.645828 -80.424232
v 109.282898 -177.645828 -80.424232
v 109.177452 -177.696747 -80.521278
v 157.424026 -118.904770 -167.098831
v 109.451408 -177.548615 -80.236450
v 157.424026 -118.904770 -167.098831
v 147.874756 -129.146591 -45.809849
v 164.713608 75.592216 85.340248
v 75.907539 92.904472 161.307343
v 147.874756 -129.146591 -45.809849
v 164.713608 75.592216 85.340248
v 80.093857 124.402916 150.884094
v 75.907539 92.904472 161.307343
v 80.093857 124.402916 150.884094
v -2.625851 144.401871 151.012497
v 75.907539 92.904472 161.307343
v 75.907539 92.904472 161.307343
v -2.625851 144.401871 151.012497
v 64.907616 96.215263 160.591949
v 64.907616 96.215263 160.591949
v -2.625851 144.401871 151.012497
v -6.705705 143.774902 151.066879
v 109.451408 -177.548615 -80.236450
v 147.874756 -129.146591 -45.809849
v -19.171679 11.148864 149.989166
v 75.907539 92.904472 161.307343
v -19.171679 11.148864 149.989166
v 147.874756 -129.146591 -45.809849
v 109.451408 -177.548615 -80.236450
v -19.171679 11.148864 149.989166
v 109.177452 -177.696747 -80.521278
v 75.907539 92.904472 161.307343
v 64.907616 96.215263 160.591949
v -19.171679 11.148864 149.989166
v 64.907616 96.215263 160.591949
v -6.705705 143.774902 151.066879
v -19.171679 11.148864 149.989166
v -6.705705 143.774902 151.066879
v -19.272686 11.284092 149.917374
v -19.171679 11.148864 149.989166
v -120.121048 206.855148 -20.771683
v -119.015068 209.022644 -25.204357
v -126.686447 39.316563 -204.906647
v 109.177452 -177.696747 -80.521278
v 15.795791 -169.079422 -122.286301
v 157.424026 -118.904770 -167.098831
v 13.629580 -169.372314 -121.698029
v 15.795791 -169.079422 -122.286301
v 109.177452 -177.696747 -80.521278
v 15.795791 -169.079422 -122.286301
v 14.529484 -168.382477 -123.223122
v 157.424026 -118.904770 -167.098831
v 13.629580 -169.372314 -121.698029
v 14.529484 -168.382477 -123.223122
v 15.795791 -169.079422 -122.286301
v 13.833612 -168.571533 -122.837837
v 14.529484 -168.382477 -123.223122
v 13.629580 -169.372314 -121.698029
v -6.705705 143.774902 151.066879
v -111.682137 209.120209 -16.701969
v -120.121048 206.855148 -20.771683
v -6.705705 143.774902 151.066879
v -110.960709 209.649750 -16.822422
v -111.682137 209.120209 -16.701969
v -120.121048 206.855148 -20.771683
v -110.960709 209.649750 -16.822422
v -119.015068 209.022644 -25.204357
v -111.682137 209.120209 -16.701969
v -110.960709 209.649750 -16.822422
v -120.121048 206.855148 -20.771683
v -110.960709 209.649750 -16.822422
v -111.355392 210.297424 -20.381308
v -119.015068 209.022644 -25.204357
v 80.093857 124.402916 150.884094
v 117.143951 193.747482 60.682121
v -2.625851 144.401871 151.012497
v 164.713608 75.592216 85.340248
v 117.143951 193.747482 60.682121
v 80.093857 124.402916 150.884094
v -6.705705 143.774902 151.066879
v -66.258316 -12.573784 94.934387
v -19.272686 11.284092 149.917374
v -6.705705 143.774902 151.066879
v -120.121048 206.855148 -20.771683
v -66.258316 -12.573784 94.934387
v -19.272686 11.284092 149.917374
v -66.258316 -12.573784 94.934387
v -19.171679 11.148864 149.989166
v 157.424026 -118.904770 -167.098831
v 164.203751 -18.056784 -59.262955
v 147.874756 -129.146591 -45.809849
v 164.713608 75.592216 85.340248
v 147.874756 -129.146591 -45.809849
v 164.203751 -18.056784 -59.262955
v 157.424026 -118.904770 -167.098831
v 159.729446 1.547653 -161.834396
v 164.203751 -18.056784 -59.262955
v 164.713608 75.592216 85.340248
v 164.203751 -18.056784 -59.262955
v 159.729446 1.547653 -161.834396
v 157.424026 -118.904770 -167.098831
v 131.877853 5.395103 -212.308899
v 159.729446 1.547653 -161.834396
v 13.833612 -168.571533 -122.837837
v 13.629580 -169.372314 -121.698029
v -71.507217 -28.641581 -208.860504
v 13.629580 -169.372314 -121.698029
v -110.602684 6.117918 -192.148026
v -71.507217 -28.641581 -208.860504
v -126.686447 39.316563 -204.906647
v -71.507217 -28.641581 -208.860504
v -110.602684 6.117918 -192.148026
v 157.424026 -118.904770 -167.098831
v 83.659988 -50.229671 -218.031418
v 131.877853 5.395103 -212.308899
v -126.686447 39.316563 -204.906647
v -110.602684 6.117918 -192.148026
v -106.408875 -27.625463 -132.304077
v 13.629580 -169.372314 -121.698029
v -106.408875 -27.625463 -132.304077
v -110.602684 6.117918 -192.148026
v -2.625851 144.401871 151.012497
v 2.467587 203.442444 70.866737
v -6.705705 143.774902 151.066879
v 117.143951 193.747482 60.682121
v 2.467587 203.442444 70.866737
v -2.625851 144.401871 151.012497
v -120.121048 206.855148 -20.771683
v -126.686447 39.316563 -204.906647
v -106.416122 -27.061001 -56.263405
v -126.686447 39.316563 -204.906647
v -106.408875 -27.625463 -132.304077
v -106.416122 -27.061001 -56.263405
v -120.121048 206.855148 -20.771683
v -106.416122 -27.061001 -56.263405
v -66.258316 -12.573784 94.934387
v 13.629580 -169.372314 -121.698029
v -66.258316 -12.573784 94.934387
v -98.355591 -43.291824 -56.909618
v -106.416122 -27.061001 -56.263405
v -98.355591 -43.291824 -56.909618
v -66.258316 -12.573784 94.934387
v 13.629580 -169.372314 -121.698029
v -98.355591 -43.291824 -56.909618
v -106.408875 -27.625463 -132.304077
v -106.408875 -27.625463 -132.304077
v -98.355591 -43.291824 -56.909618
v -106.416122 -27.061001 -56.263405
v -126.686447 39.316563 -204.906647
v -71.020943 37.683998 -226.208755
v -71.507217 -28.641581 -208.860504
v -6.705705 143.774902 151.066879
v -32.980278 219.625275 26.832989
v -110.960709 209.649750 -16.822422
v 2.467587 203.442444 70.866737
v -32.980278 219.625275 26.832989
v -6.705705 143.774902 151.066879
v 2.467587 203.442444 70.866737
v -32.896816 219.626175 26.877420
v -32.980278 219.625275 26.832989
v -110.960709 209.649750 -16.822422
v -36.430450 221.414185 16.683449
v -111.355392 210.297424 -20.381308
v -32.980278 219.625275 26.832989
v -36.430450 221.414185 16.683449
v -110.960709 209.649750 -16.822422
v -32.896816 219.626175 26.877420
v -36.430450 221.414185 16.683449
v -32.980278 219.625275 26.832989
v 13.833612 -168.571533 -122.837837
v 27.269020 -57.991890 -219.545731
v 14.529484 -168.382477 -123.223122
v 13.833612 -168.571533 -122.837837
v -71.507217 -28.641581 -208.860504
v 27.269020 -57.991890 -219.545731
v 14.529484 -168.382477 -123.223122
v 27.269020 -57.991890 -219.545731
v 157.424026 -118.904770 -167.098831
v 157.424026 -118.904770 -167.098831
v 27.269020 -57.991890 -219.545731
v 83.659988 -50.229671 -218.031418
v 164.713608 75.592216 85.340248
v 159.729446 1.547653 -161.834396
v 143.817032 87.423767 -141.928055
v 131.877853 5.395103 -212.308899
v 143.817032 87.423767 -141.928055
v 159.729446 1.547653 -161.834396
v -19.171679 11.148864 149.989166
v -13.397900 -106.206963 -23.474560
v 109.177452 -177.696747 -80.521278
v -66.258316 -12.573784 94.934387
v -13.397900 -106.206963 -23.474560
v -19.171679 11.148864 149.989166
v 13.629580 -169.372314 -121.698029
v 109.177452 -177.696747 -80.521278
v -13.397900 -106.206963 -23.474560
v 13.629580 -169.372314 -121.698029
v -13.397900 -106.206963 -23.474560
v -66.258316 -12.573784 94.934387
v 83.659988 -50.229671 -218.031418
v 47.328621 -8.625542 -236.850433
v 131.877853 5.395103 -212.308899
v 27.269020 -57.991890 -219.545731
v 47.328621 -8.625542 -236.850433
v 83.659988 -50.229671 -218.031418
v -71.020943 37.683998 -226.208755
v 47.328621 -8.625542 -236.850433
v -71.507217 -28.641581 -208.860504
v -71.507217 -28.641581 -208.860504
v 47.328621 -8.625542 -236.850433
v 27.269020 -57.991890 -219.545731
v 164.713608 75.592216 85.340248
v 110.899750 201.563904 -82.033684
v 117.143951 193.747482 60.682121
v 164.713608 75.592216 85.340248
v 143.817032 87.423767 -141.928055
v 110.899750 201.563904 -82.033684
v 131.877853 5.395103 -212.308899
v 110.899750 201.563904 -82.033684
v 143.817032 87.423767 -141.928055
v 117.143951 193.747482 60.682121
v 8.701448 219.665207 26.077208
v 2.467587 203.442444 70.866737
v 2.467587 203.442444 70.866737
v 8.701448 219.665207 26.077208
v -32.896816 219.626175 26.877420
v -119.015068 209.022644 -25.204357
v -76.445808 97.997726 -186.214218
v -126.686447 39.316563 -204.906647
v -126.686447 39.316563 -204.906647
v -76.445808 97.997726 -186.214218
v -71.020943 37.683998 -226.208755
v -111.355392 210.297424 -20.381308
v 56.693325 237.739151 -59.352661
v -119.015068 209.022644 -25.204357
v -36.430450 221.414185 16.683449
v 56.693325 237.739151 -59.352661
v -111.355392 210.297424 -20.381308
v -32.896816 219.626175 26.877420
v 56.693325 237.739151 -59.352661
v -36.430450 221.414185 16.683449
v 8.701448 219.665207 26.077208
v 56.693325 237.739151 -59.352661
v -32.896816 219.626175 26.877420
v 110.899750 201.563904 -82.033684
v 56.693325 237.739151 -59.352661
v 117.143951 193.747482 60.682121
v 117.143951 193.747482 60.682121
v 56.693325 237.739151 -59.352661
v 8.701448 219.665207 26.077208
v 47.328621 -8.625542 -236.850433
v 15.099807 17.304153 -235.062393
v 131.877853 5.395103 -212.308899
v -71.020943 37.683998 -226.208755
v 15.099807 17.304153 -235.062393
v 47.328621 -8.625542 -236.850433
v 56.693325 237.739151 -59.352661
v -22.251196 199.839447 -104.167595
v -119.015068 209.022644 -25.204357
v -119.015068 209.022644 -25.204357
v -16.157518 184.332108 -139.638245
v -76.445808 97.997726 -186.214218
v -22.251196 199.839447 -104.167595
v -16.157518 184.332108 -139.638245
v -119.015068 209.022644 -25.204357
v 56.693325 237.739151 -59.352661
v -16.157518 184.332108 -139.638245
v -22.251196 199.839447 -104.167595
v -76.445808 97.997726 -186.214218
v -29.457567 128.682983 -177.637054
v -71.020943 37.683998 -226.208755
v -16.157518 184.332108 -139.638245
v -29.457567 128.682983 -177.637054
v -76.445808 97.997726 -186.214218
v -16.157518 184.332108 -139.638245
v -12.369169 176.233856 -146.822418
v -29.457567 128.682983 -177.637054
v -71.020943 37.683998 -226.208755
v -11.912794 114.558670 -190.724243
v 15.099807 17.304153 -235.062393
v -29.457567 128.682983 -177.637054
v -11.912794 114.558670 -190.724243
v -71.020943 37.683998 -226.208755
v -12.369169 176.233856 -146.822418
v -11.912794 114.558670 -190.724243
v -29.457567 128.682983 -177.637054
v 15.099807 17.304153 -235.062393
v -6.852181 112.087593 -190.932114
v 131.877853 5.395103 -212.308899
v -11.912794 114.558670 -190.724243
v -6.852181 112.087593 -190.932114
v 15.099807 17.304153 -235.062393
v 110.899750 201.563904 -82.033684
v 36.356289 185.521713 -123.455994
v 56.693325 237.739151 -59.352661
v 56.693325 237.739151 -59.352661
v 36.356289 185.521713 -123.455994
v -16.157518 184.332108 -139.638245
v -16.157518 184.332108 -139.638245
v 36.356289 185.521713 -123.455994
v -12.369169 176.233856 -146.822418
v -12.369169 176.233856 -146.822418
v 8.605330 136.597931 -171.354187
v -11.912794 114.558670 -190.724243
v -11.912794 114.558670 -190.724243
v 8.605330 136.597931 -171.354187
v -6.852181 112.087593 -190.932114
v 131.877853 5.395103 -212.308899
v 8.605330 136.597931 -171.354187
v 110.899750 201.563904 -82.033684
v 110.899750 201.563904 -82.033684
v 8.605330 136.597931 -171.354187
v 36.356289 185.521713 -123.455994
v -6.852181 112.087593 -190.932114
v 8.605330 136.597931 -171.354187
v 131.877853 5.395103 -212.308899
v 36.356289 185.521713 -123.455994
v 8.605330 136.597931 -171.354187
v -12.369169 176.233856 -146.822418
vn 0.626358 -0.761218 -0.167998
vn 0.033240 -0.899429 0.435800
vn 0.577182 -0.788188 -0.213590
vn 0.780197 -0.625474 0.008610
vn 0.507591 -0.493956 0.705945
vn 0.659464 0.155717 0.735431
vn 0.075037 0.304271 0.949626
vn -0.008843 0.183039 0.983066
vn -0.013946 0.176126 0.984269
vn 0.238583 -0.681484 0.691850
vn 0.391405 -0.556637 0.732774
vn -0.158631 -0.805226 0.571355
vn -0.078708 -0.046326 0.995821
vn -0.129179 0.004084 0.991613
vn -0.539123 0.043839 0.841086
vn -0.969457 0.197628 -0.145249
vn 0.144569 -0.854177 -0.499481
vn 0.046917 -0.952344 -0.301396
vn 0.063114 -0.757984 -0.649212
vn -0.040427 -0.827066 -0.560649
vn -0.104795 -0.804821 -0.584192
vn -0.454780 0.696004 0.555656
vn -0.432927 0.714747 0.549282
vn -0.400009 0.858785 0.320125
vn -0.446619 0.727069 0.521443
vn -0.283242 0.937527 0.202031
vn 0.180526 0.742552 0.645002
vn 0.694330 0.403849 0.595660
vn -0.772825 0.067829 0.630984
vn -0.812285 0.103304 0.574039
vn -0.711654 -0.169625 0.681745
vn 0.988320 -0.137253 0.066222
vn 0.987291 -0.134958 0.083921
vn 0.998757 -0.017069 -0.046830
vn 0.998267 0.047721 -0.034425
vn 0.875683 0.004344 -0.482867
vn -0.516439 -0.654461 -0.552242
vn -0.702058 -0.630155 -0.331693
vn -0.683753 -0.525737 -0.506046
vn 0.386927 -0.243920 -0.889264
vn -0.842626 -0.492189 -0.218474
vn -0.715562 -0.628749 -0.304378
vn -0.115645 0.803217 0.584353
vn 0.119998 0.795649 0.593753
vn -0.992014 -0.073656 0.102388
vn -0.957667 -0.287871 0.002046
vn -0.959672 -0.096300 0.264114
vn -0.641755 -0.713935 0.280085
vn -0.858107 -0.436893 0.269773
vn -0.760062 -0.647654 -0.053391
vn -0.895580 -0.444890 0.003217
vn -0.353443 -0.234290 -0.905641
vn -0.396366 0.743923 0.538027
vn -0.318423 0.777631 0.542123
vn -0.288872 0.799644 0.526424
vn -0.239661 0.950139 0.199493
vn -0.260741 0.931708 0.252853
vn -0.123799 0.969197 0.212910
vn -0.243370 -0.621598 -0.744571
vn -0.263492 -0.616712 -0.741780
vn -0.003864 -0.657205 -0.753702
vn 0.094998 -0.525160 -0.845684
vn 0.976697 0.199388 -0.079424
vn 0.853157 0.262572 -0.450753
vn -0.221112 -0.811155 0.541422
vn -0.224110 -0.810633 0.540970
vn -0.274011 -0.841443 0.465716
vn -0.624243 -0.723898 0.293754
vn 0.299892 -0.163265 -0.939899
vn 0.074092 -0.356570 -0.931326
vn -0.182426 -0.247551 -0.951546
vn -0.179768 -0.259559 -0.948848
vn 0.928916 0.369728 -0.020393
vn 0.947883 0.310612 -0.070984
vn 0.524167 0.509319 -0.682527
vn 0.109844 0.929544 0.351969
vn 0.005682 0.939958 0.341243
vn -0.523279 0.630593 -0.573177
vn -0.294435 0.509612 -0.808457
vn -0.161971 0.986789 -0.003586
vn -0.156545 0.987462 0.020282
vn -0.024590 0.983181 0.180973
vn 0.003096 0.977986 0.208647
vn 0.560981 0.827568 0.020781
vn 0.138203 0.950381 0.278705
vn 0.212782 0.327944 -0.920422
vn -0.121202 -0.082433 -0.989199
vn -0.219974 0.900828 -0.374326
vn -0.487721 0.653103 -0.579297
vn -0.263848 0.866337 -0.424080
vn -0.187578 0.887764 -0.420345
vn -0.195283 0.529745 -0.825369
vn -0.241421 0.585918 -0.773574
vn -0.225097 0.585554 -0.778754
vn 0.004945 0.415954 -0.909372
vn -0.191206 0.528736 -0.826969
vn -0.140370 0.573478 -0.807106
vn 0.214786 0.452676 -0.865420
vn 0.183598 0.449536 -0.874190
vn 0.208906 0.724716 -0.656617
vn 0.185344 0.732276 -0.655301
vn 0.195643 0.700430 -0.686383
vn 0.143453 0.574615 -0.805753
vn 0.220147 0.520259 -0.825146
vn 0.325949 0.546947 -0.771107
vn 0.299089 0.575523 -0.761130
vn 0.256475 0.499305 -0.827596
vn 0.249258 0.601609 -0.758905
f 1//1 2//1 3//1
f 4//2 5//2 6//2
f 7//3 8//3 9//3
f 10//4 11//4 12//4
f 13//5 14//5 15//5
f 16//6 17//6 18//6
f 19//7 20//7 21//7
f 22//8 23//8 24//8
f 25//9 26//9 27//9
f 28//10 29//10 30//10
f 31//11 32//11 33//11
f 34//12 35//12 36//12
f 37//13 38//13 39//13
f 40//14 41//14 42//14
f 43//15 44//15 45//15
f 46//16 47//16 48//16
f 49//17 50//17 51//17
f 52//18 53//18 54//18
f 55//19 56//19 57//19
f 58//20 59//20 60//20
f 61//21 62//21 63//21
f 64//22 65//22 66//22
f 67//23 68//23 69//23
f 70//24 71//24 72//24
f 73//25 74//25 75//25
f 76//26 77//26 78//26
f 79//27 80//27 81//27
f 82//28 83//28 84//28
f 85//29 86//29 87//29
f 88//30 89//30 90//30
f 91//31 92//31 93//31
f 94//32 95//32 96//32
f 97//33 98//33 99//33
f 100//34 101//34 102//34
f 103//35 104//35 105//35
f 106//36 107//36 108//36
f 109//37 110//37 111//37
f 112//38 113//38 114//38
f 115//39 116//39 117//39
f 118//40 119//40 120//40
f 121//41 122//41 123//41
f 124//42 125//42 126//42
f 127//43 128//43 129//43
f 130//44 131//44 132//44
f 133//45 134//45 135//45
f 136//46 137//46 138//46
f 139//47 140//47 141//47
f 142//48 143//48 144//48
f 145//49 146//49 147//49
f 148//50 149//50 150//50
f 151//51 152//51 153//51
f 154//52 155//52 156//52
f 157//53 158//53 159//53
f 160//54 161//54 162//54
f 163//55 164//55 165//55
f 166//56 167//56 168//56
f 169//57 170//57 171//57
f 172//58 173//58 174//58
f 175//59 176//59 177//59
f 178//60 179//60 180//60
f 181//61 182//61 183//61
f 184//62 185//62 186//62
f 187//63 188//63 189//63
f 190//64 191//64 192//64
f 193//65 194//65 195//65
f 196//66 197//66 198//66
f 199//67 200//67 201//67
f 202//68 203//68 204//68
f 205//69 206//69 207//69
f 208//70 209//70 210//70
f 211//71 212//71 213//71
f 214//72 215//72 216//72
f 217//73 218//73 219//73
f 220//74 221//74 222//74
f 223//75 224//75 225//75
f 226//76 227//76 228//76
f 229//77 230//77 231//77
f 232//78 233//78 234//78
f 235//79 236//79 237//79
f 238//80 239//80 240//80
f 241//81 242//81 243//81
f 244//82 245//82 246//82
f 247//83 248//83 249//83
f 250//84 251//84 252//84
f 253//85 254//85 255//85
f 256//86 257//86 258//86
f 259//87 260//87 261//87
f 262//88 263//88 264//88
f 265//89 266//89 267//89
f 268//90 269//90 270//90
f 271//91 272//91 273//91
f 274//92 275//92 276//92
f 277//93 278//93 279//93
f 280//94 281//94 282//94
f 283//95 284//95 285//95
f 286//96 287//96 288//96
f 289//97 290//97 291//97
f 292//98 293//98 294//98
f 295//99 296//99 297//99
f 298//100 299//100 300//100
f 301//101 302//101 303//101
f 304//102 305//102 306//102
f 307//103 308//103 309//103
f 310//104 311//104 312//104
f 313//105 314//105 315//105
f 316//106 317//106 318//106
f 319//107 320//107 321//107
f 322//108 323//108 324//108
