o
v -249.180023 6.820118 110.066277
v -249.193604 6.832539 110.068932
v -147.602493 -54.406834 -117.397194
v -249.206146 6.855455 110.082603
v -249.193604 6.832539 110.068932
v -249.180023 6.820118 110.066277
v -249.206146 6.855455 110.082603
v -249.246399 6.897563 110.095268
v -249.193604 6.832539 110.068932
v -249.206146 6.855455 110.082603
v -249.180023 6.820118 110.066277
v -184.937531 85.246536 145.991196
v -249.206146 6.855455 110.082603
v -184.937531 85.246536 145.991196
v -249.246399 6.897563 110.095268
v -249.180023 6.820118 110.066277
v -39.757977 21.516544 40.676205
v -184.937531 85.246536 145.991196
v -184.937531 85.246536 145.991196
v -39.757977 21.516544 40.676205
v 32.690704 189.769180 62.229977
v -184.937531 85.246536 145.991196
v 32.690704 189.769180 62.229977
v -103.005333 132.508621 116.785362
v -147.602493 -54.406834 -117.397194
v -39.642231 153.869949 -96.263344
v -39.757977 21.516544 40.676205
v -39.757977 21.516544 40.676205
v -39.642231 153.869949 -96.263344
v 32.690704 189.769180 62.229977
v -249.180023 6.820118 110.066277
v -147.602493 -54.406834 -117.397194
v -150.865204 -38.228832 -27.852222
v -249.180023 6.820118 110.066277
v -150.865204 -38.228832 -27.852222
v -39.757977 21.516544 40.676205
v -147.602493 -54.406834 -117.397194
v -39.757977 21.516544 40.676205
v -150.865204 -38.228832 -27.852222
v -39.642231 153.869949 -96.263344
v -67.880486 189.639847 -75.943153
v 32.690704 189.769180 62.229977
v -147.602493 -54.406834 -117.397194
v -76.084236 158.290527 -109.403023
v -39.642231 153.869949 -96.263344
v -39.642231 153.869949 -96.263344
v -76.084236 158.290527 -109.403023
v -67.880486 189.639847 -75.943153
v -147.602493 -54.406834 -117.397194
v -193.335281 1.424590 -110.853767
v -76.084236 158.290527 -109.403023
v -249.193604 6.832539 110.068932
v -193.418610 1.322091 -110.642342
v -147.602493 -54.406834 -117.397194
v -249.246399 6.897563 110.095268
v -193.418610 1.322091 -110.642342
v -249.193604 6.832539 110.068932
v -147.602493 -54.406834 -117.397194
v -193.418610 1.322091 -110.642342
v -193.335281 1.424590 -110.853767
v 32.690704 189.769180 62.229977
v -144.131073 215.683655 -18.393972
v -103.005333 132.508621 116.785362
v -67.880486 189.639847 -75.943153
v -144.131073 215.683655 -18.393972
v 32.690704 189.769180 62.229977
v -184.937531 85.246536 145.991196
v -103.005333 132.508621 116.785362
v -144.131073 215.683655 -18.393972
v -249.246399 6.897563 110.095268
v -257.401489 81.697014 5.238912
v -193.418610 1.322091 -110.642342
v -256.660583 82.464821 14.697157
v -257.401489 81.697014 5.238912
v -249.246399 6.897563 110.095268
v -256.660583 82.464821 14.697157
v -252.614044 96.554878 10.220264
v -257.401489 81.697014 5.238912
v -256.660583 82.464821 14.697157
v -252.603470 96.517410 10.326687
v -252.614044 96.554878 10.220264
v -184.937531 85.246536 145.991196
v -241.934692 114.079514 22.965380
v -249.246399 6.897563 110.095268
v -256.660583 82.464821 14.697157
v -249.246399 6.897563 110.095268
v -241.934692 114.079514 22.965380
v -256.660583 82.464821 14.697157
v -241.934692 114.079514 22.965380
v -252.603470 96.517410 10.326687
v -193.335281 1.424590 -110.853767
v -176.845703 119.744507 -94.220337
v -76.084236 158.290527 -109.403023
v -223.391006 96.428642 -85.924316
v -176.845703 119.744507 -94.220337
v -193.335281 1.424590 -110.853767
v -76.084236 158.290527 -109.403023
v -182.471573 169.225479 -66.016731
v -67.880486 189.639847 -75.943153
v -67.880486 189.639847 -75.943153
v -182.471573 169.225479 -66.016731
v -144.131073 215.683655 -18.393972
v -184.937531 85.246536 145.991196
v -144.131073 215.683655 -18.393972
v -218.083603 173.027252 -21.786079
v -193.418610 1.322091 -110.642342
v -226.808853 88.379211 -78.383804
v -193.335281 1.424590 -110.853767
v -257.401489 81.697014 5.238912
v -226.808853 88.379211 -78.383804
v -193.418610 1.322091 -110.642342
v -223.391006 96.428642 -85.924316
v -193.335281 1.424590 -110.853767
v -226.808853 88.379211 -78.383804
v -257.401489 81.697014 5.238912
v -223.391006 96.428642 -85.924316
v -226.808853 88.379211 -78.383804
v -252.603470 96.517410 10.326687
v -244.932480 119.224037 5.431224
v -252.614044 96.554878 10.220264
v -241.934692 114.079514 22.965380
v -244.932480 119.224037 5.431224
v -252.603470 96.517410 10.326687
v -252.614044 96.554878 10.220264
v -244.932480 119.224037 5.431224
v -257.401489 81.697014 5.238912
v -144.131073 215.683655 -18.393972
v -215.882507 173.555405 -28.484186
v -218.083603 173.027252 -21.786079
v -184.937531 85.246536 145.991196
v -234.049057 140.776093 4.566109
v -241.934692 114.079514 22.965380
v -184.937531 85.246536 145.991196
v -218.083603 173.027252 -21.786079
v -234.049057 140.776093 4.566109
v -241.934692 114.079514 22.965380
v -234.049057 140.776093 4.566109
v -244.932480 119.224037 5.431224
v -182.471573 169.225479 -66.016731
v -219.821533 168.072083 -38.608730
v -144.131073 215.683655 -18.393972
v -144.131073 215.683655 -18.393972
v -219.821533 168.072083 -38.608730
v -215.882507 173.555405 -28.484186
v -215.882507 173.555405 -28.484186
v -219.821533 168.072083 -38.608730
v -222.114014 167.869583 -32.491680
v -215.882507 173.555405 -28.484186
v -227.641434 163.723343 -31.829340
v -218.083603 173.027252 -21.786079
v -215.882507 173.555405 -28.484186
v -222.114014 167.869583 -32.491680
v -227.641434 163.723343 -31.829340
v -219.821533 168.072083 -38.608730
v -227.641434 163.723343 -31.829340
v -222.114014 167.869583 -32.491680
v -218.083603 173.027252 -21.786079
v -227.641434 163.723343 -31.829340
v -227.309662 163.979630 -31.103098
v -76.084236 158.290527 -109.403023
v -187.757599 156.679703 -72.837578
v -182.471573 169.225479 -66.016731
v -218.083603 173.027252 -21.786079
v -227.309662 163.979630 -31.103098
v -228.506226 162.467026 -30.647314
v -244.932480 119.224037 5.431224
v -228.506226 162.467026 -30.647314
v -257.401489 81.697014 5.238912
v -234.049057 140.776093 4.566109
v -228.506226 162.467026 -30.647314
v -244.932480 119.224037 5.431224
v -227.641434 163.723343 -31.829340
v -228.506226 162.467026 -30.647314
v -227.309662 163.979630 -31.103098
v -218.083603 173.027252 -21.786079
v -227.235153 159.982559 -17.907198
v -234.049057 140.776093 4.566109
v -218.083603 173.027252 -21.786079
v -228.506226 162.467026 -30.647314
v -227.235153 159.982559 -17.907198
v -234.049057 140.776093 4.566109
v -227.235153 159.982559 -17.907198
v -228.506226 162.467026 -30.647314
v -228.506226 162.467026 -30.647314
v -227.291687 161.291000 -34.420059
v -223.391006 96.428642 -85.924316
v -227.641434 163.723343 -31.829340
v -227.291687 161.291000 -34.420059
v -228.506226 162.467026 -30.647314
v -176.845703 119.744507 -94.220337
v -202.613983 138.609100 -80.049347
v -76.084236 158.290527 -109.403023
v -76.084236 158.290527 -109.403023
v -202.613983 138.609100 -80.049347
v -187.757599 156.679703 -72.837578
v -223.391006 96.428642 -85.924316
v -202.613983 138.609100 -80.049347
v -176.845703 119.744507 -94.220337
v -187.757599 156.679703 -72.837578
v -202.613983 138.609100 -80.049347
v -182.471573 169.225479 -66.016731
v -219.821533 168.072083 -38.608730
v -210.187836 158.732620 -60.495701
v -227.641434 163.723343 -31.829340
v -227.641434 163.723343 -31.829340
v -210.187836 158.732620 -60.495701
v -227.291687 161.291000 -34.420059
v -182.471573 169.225479 -66.016731
v -210.187836 158.732620 -60.495701
v -219.821533 168.072083 -38.608730
v -202.613983 138.609100 -80.049347
v -210.187836 158.732620 -60.495701
v -182.471573 169.225479 -66.016731
v -257.401489 81.697014 5.238912
v -228.882767 156.543411 -33.294903
v -223.391006 96.428642 -85.924316
v -228.506226 162.467026 -30.647314
v -228.882767 156.543411 -33.294903
v -257.401489 81.697014 5.238912
v -228.506226 162.467026 -30.647314
v -223.391006 96.428642 -85.924316
v -228.882767 156.543411 -33.294903
v -227.291687 161.291000 -34.420059
v -213.779373 140.913864 -68.173378
v -223.391006 96.428642 -85.924316
v -210.187836 158.732620 -60.495701
v -213.779373 140.913864 -68.173378
v -227.291687 161.291000 -34.420059
v -223.391006 96.428642 -85.924316
v -213.779373 140.913864 -68.173378
v -202.613983 138.609100 -80.049347
v -202.613983 138.609100 -80.049347
v -213.779373 140.913864 -68.173378
v -210.187836 158.732620 -60.495701
vn -0.682449 -0.722569 -0.110263
vn -0.447714 -0.625977 0.638503
vn -0.456962 -0.626692 0.631217
vn 0.002307 -0.418018 0.908436
vn -0.082368 -0.358436 0.929913
vn 0.291714 -0.585446 0.756410
vn 0.466740 -0.307215 0.829321
vn 0.450653 -0.252035 0.856382
vn 0.836135 -0.394767 -0.380839
vn 0.882690 -0.338292 -0.326216
vn -0.207992 -0.963845 0.166558
vn 0.205035 -0.877822 0.432885
vn 0.378681 -0.908270 0.177894
vn 0.579284 0.697208 -0.422293
vn 0.330087 -0.075626 -0.940916
vn 0.326596 0.648459 -0.687631
vn -0.068620 0.060500 -0.995807
vn -0.770484 -0.611685 -0.179434
vn -0.798343 -0.572283 -0.187458
vn -0.690813 -0.505244 -0.517209
vn -0.128610 0.826679 0.547778
vn 0.212248 0.964782 -0.155390
vn -0.253958 0.787378 0.561731
vn -0.891287 -0.399045 -0.215340
vn -0.996950 0.000703 0.078038
vn -0.955447 0.290679 0.051247
vn -0.920665 0.330437 0.207815
vn -0.777897 0.427481 0.460582
vn -0.886277 0.327053 0.327947
vn -0.896649 0.345122 0.277329
vn -0.208227 0.164558 -0.964138
vn -0.254521 0.169322 -0.952129
vn -0.187726 0.739319 -0.646658
vn -0.190263 0.774898 -0.602771
vn -0.454311 0.749317 0.481795
vn -0.883078 -0.177795 -0.434238
vn -0.910483 -0.219292 -0.350616
vn -0.843474 -0.130084 -0.521180
vn -0.938006 0.083035 -0.336526
vn -0.910242 0.353867 0.215029
vn -0.896897 0.358752 0.258599
vn -0.948546 0.315319 -0.028879
vn -0.494176 0.864238 -0.094247
vn -0.717812 0.526225 0.455887
vn -0.582143 0.667518 0.464252
vn -0.853562 0.442099 0.275644
vn -0.373748 0.796186 -0.475816
vn -0.456535 0.844568 -0.279789
vn -0.589672 0.783737 -0.195046
vn -0.611513 0.778832 -0.139541
vn -0.604395 0.779246 -0.165780
vn -0.603140 0.772030 -0.200481
vn -0.752133 0.648974 0.114580
vn -0.268012 0.544888 -0.794523
vn -0.758128 0.638969 0.130233
vn -0.947534 0.315110 -0.053720
vn -0.881731 0.450835 0.138917
vn -0.760182 0.638137 0.122082
vn -0.739260 0.605977 0.293745
vn -0.774843 0.601457 0.194597
vn -0.838848 0.512459 0.183627
vn -0.901734 0.234263 -0.363314
vn -0.890545 0.265430 -0.369427
vn -0.261435 0.325489 -0.908685
vn -0.269013 0.539561 -0.797813
vn -0.300648 0.275276 -0.913145
vn -0.283954 0.547572 -0.787106
vn -0.712156 0.475575 -0.516394
vn -0.725935 0.449790 -0.520295
vn -0.391896 0.771245 -0.501596
vn -0.363700 0.575131 -0.732767
vn -0.929310 0.191535 -0.315748
vn -0.931085 0.196547 -0.307328
vn -0.920034 0.207144 -0.332610
vn -0.759415 0.375960 -0.530983
vn -0.755203 0.381798 -0.532821
vn -0.626973 0.401792 -0.667434
vn -0.622542 0.412130 -0.665275
f 1//1 2//1 3//1
f 4//2 5//2 6//2
f 7//3 8//3 9//3
f 10//4 11//4 12//4
f 13//5 14//5 15//5
f 16//6 17//6 18//6
f 19//7 20//7 21//7
f 22//8 23//8 24//8
f 25//9 26//9 27//9
f 28//10 29//10 30//10
f 31//11 32//11 33//11
f 34//12 35//12 36//12
f 37//13 38//13 39//13
f 40//14 41//14 42//14
f 43//15 44//15 45//15
f 46//16 47//16 48//16
f 49//17 50//17 51//17
f 52//18 53//18 54//18
f 55//19 56//19 57//19
f 58//20 59//20 60//20
f 61//21 62//21 63//21
f 64//22 65//22 66//22
f 67//23 68//23 69//23
f 70//24 71//24 72//24
f 73//25 74//25 75//25
f 76//26 77//26 78//26
f 79//27 80//27 81//27
f 82//28 83//28 84//28
f 85//29 86//29 87//29
f 88//30 89//30 90//30
f 91//31 92//31 93//31
f 94//32 95//32 96//32
f 97//33 98//33 99//33
f 100//34 101//34 102//34
f 103//35 104//35 105//35
f 106//36 107//36 108//36
f 109//37 110//37 111//37
f 112//38 113//38 114//38
f 115//39 116//39 117//39
f 118//40 119//40 120//40
f 121//41 122//41 123//41
f 124//42 125//42 126//42
f 127//43 128//43 129//43
f 130//44 131//44 132//44
f 133//45 134//45 135//45
f 136//46 137//46 138//46
f 139//47 140//47 141//47
f 142//48 143//48 144//48
f 145//49 146//49 147//49
f 148//50 149//50 150//50
f 151//51 152//51 153//51
f 154//52 155//52 156//52
f 157//53 158//53 159//53
f 160//54 161//54 162//54
f 163//55 164//55 165//55
f 166//56 167//56 168//56
f 169//57 170//57 171//57
f 172//58 173//58 174//58
f 175//59 176//59 177//59
f 178//60 179//60 180//60
f 181//61 182//61 183//61
f 184//62 185//62 186//62
f 187//63 188//63 189//63
f 190//64 191//64 192//64
f 193//65 194//65 195//65
f 196//66 197//66 198//66
f 199//67 200//67 201//67
f 202//68 203//68 204//68
f 205//69 206//69 207//69
f 208//70 209//70 210//70
f 211//71 212//71 213//71
f 214//72 215//72 216//72
f 217//73 218//73 219//73
f 220//74 221//74 222//74
f 223//75 224//75 225//75
f 226//76 227//76 228//76
f 229//77 230//77 231//77
f 232//78 233//78 234//78
