o
v 6.061652 -40.549969 0.488479
v -9.358974 -46.611561 7.290968
v -2.482030 -44.293602 -6.151646
v 6.061652 -40.549969 0.488479
v 26.861580 -8.554281 32.070751
v 11.329890 -35.199223 21.989531
v 6.061652 -40.549969 0.488479
v 6.250208 -38.598598 23.355265
v -9.358974 -46.611561 7.290968
v 6.061652 -40.549969 0.488479
v 11.329890 -35.199223 21.989531
v 6.250208 -38.598598 23.355265
v 6.250208 -38.598598 23.355265
v 6.111593 -38.619038 23.503029
v -9.358974 -46.611561 7.290968
v 11.329890 -35.199223 21.989531
v 6.111593 -38.619038 23.503029
v 6.250208 -38.598598 23.355265
v 6.111593 -38.619038 23.503029
v -7.790658 -41.009819 22.081476
v -9.358974 -46.611561 7.290968
v 6.061652 -40.549969 0.488479
v -2.482030 -44.293602 -6.151646
v -2.032438 3.143441 10.061975
v 6.061652 -40.549969 0.488479
v -2.032438 3.143441 10.061975
v 26.861580 -8.554281 32.070751
v -9.358974 -46.611561 7.290968
v -27.991423 -29.763582 16.898718
v -2.482030 -44.293602 -6.151646
v -7.790658 -41.009819 22.081476
v -9.342782 -40.286114 24.417339
v -9.358974 -46.611561 7.290968
v -10.623671 -40.949696 22.773199
v -9.358974 -46.611561 7.290968
v -9.342782 -40.286114 24.417339
v 6.111593 -38.619038 23.503029
v -9.342782 -40.286114 24.417339
v -7.790658 -41.009819 22.081476
v -9.358974 -46.611561 7.290968
v -17.476141 -38.238110 22.745861
v -27.991423 -29.763582 16.898718
v -27.991423 -29.763582 16.898718
v -29.158318 -19.811760 17.255201
v -2.482030 -44.293602 -6.151646
v -10.623671 -40.949696 22.773199
v -16.592138 -38.005116 30.603455
v -9.358974 -46.611561 7.290968
v -10.623671 -40.949696 22.773199
v -9.342782 -40.286114 24.417339
v -16.592138 -38.005116 30.603455
v -9.358974 -46.611561 7.290968
v -16.592138 -38.005116 30.603455
v -17.476141 -38.238110 22.745861
v -17.476141 -38.238110 22.745861
v -16.592138 -38.005116 30.603455
v -27.991423 -29.763582 16.898718
v -29.158318 -19.811760 17.255201
v -27.991323 -19.781771 16.233231
v -2.482030 -44.293602 -6.151646
v -28.992224 -19.696459 17.126400
v -27.991323 -19.781771 16.233231
v -29.158318 -19.811760 17.255201
v -27.991323 -19.781771 16.233231
v -27.769615 -19.803102 16.065741
v -2.482030 -44.293602 -6.151646
v -2.032438 3.143441 10.061975
v -28.992224 -19.696459 17.126400
v -5.677371 4.327456 16.430634
v -28.992224 -19.696459 17.126400
v -17.205194 -13.330172 10.367464
v -27.991323 -19.781771 16.233231
v -2.032438 3.143441 10.061975
v -17.205194 -13.330172 10.367464
v -28.992224 -19.696459 17.126400
v -2.482030 -44.293602 -6.151646
v -17.205194 -13.330172 10.367464
v -2.032438 3.143441 10.061975
v -27.769615 -19.803102 16.065741
v -17.205194 -13.330172 10.367464
v -2.482030 -44.293602 -6.151646
v -27.991323 -19.781771 16.233231
v -17.205194 -13.330172 10.367464
v -27.769615 -19.803102 16.065741
v -16.592138 -38.005116 30.603455
v -18.184553 -36.536243 30.906389
v -27.991423 -29.763582 16.898718
v -16.592138 -38.005116 30.603455
v -17.492926 -36.305180 32.354431
v -18.184553 -36.536243 30.906389
v -2.032438 3.143441 10.061975
v 8.316217 4.206344 35.246460
v 26.861580 -8.554281 32.070751
v -2.032438 3.143441 10.061975
v -5.677371 4.327456 16.430634
v 6.953827 4.952882 37.408585
v -2.032438 3.143441 10.061975
v 6.953827 4.952882 37.408585
v 8.316217 4.206344 35.246460
v 4.363066 5.393547 42.052074
v 6.953827 4.952882 37.408585
v -5.677371 4.327456 16.430634
v 8.316217 4.206344 35.246460
v 6.953827 4.952882 37.408585
v 26.861580 -8.554281 32.070751
v 26.861580 -8.554281 32.070751
v 6.953827 4.952882 37.408585
v 4.363066 5.393547 42.052074
v 4.363066 5.393547 42.052074
v -3.239423 5.492746 46.120270
v -2.203300 4.923287 47.199165
v -2.203300 4.923287 47.199165
v -3.799364 5.075194 46.518612
v -2.439670 4.660694 47.323635
v -3.239423 5.492746 46.120270
v -3.799364 5.075194 46.518612
v -2.203300 4.923287 47.199165
v 26.861580 -8.554281 32.070751
v 4.363066 5.393547 42.052074
v 8.927591 -0.134136 42.219021
v 4.363066 5.393547 42.052074
v -2.203300 4.923287 47.199165
v 8.927591 -0.134136 42.219021
v -2.203300 4.923287 47.199165
v -2.169269 4.008718 47.482437
v 8.927591 -0.134136 42.219021
v -2.203300 4.923287 47.199165
v -2.439670 4.660694 47.323635
v -3.289722 3.373776 47.935966
v -2.203300 4.923287 47.199165
v -3.289722 3.373776 47.935966
v -2.169269 4.008718 47.482437
v -3.799364 5.075194 46.518612
v -3.289722 3.373776 47.935966
v -2.439670 4.660694 47.323635
v -2.420302 3.552961 47.656483
v -2.169269 4.008718 47.482437
v -3.289722 3.373776 47.935966
v -27.991423 -29.763582 16.898718
v -31.173143 -17.332302 36.682312
v -29.158318 -19.811760 17.255201
v -18.184553 -36.536243 30.906389
v -31.173143 -17.332302 36.682312
v -27.991423 -29.763582 16.898718
v -17.492926 -36.305180 32.354431
v -31.173143 -17.332302 36.682312
v -18.184553 -36.536243 30.906389
v -3.239423 5.492746 46.120270
v -8.442623 3.465242 45.385582
v -3.799364 5.075194 46.518612
v -3.239423 5.492746 46.120270
v -8.213212 3.838704 44.708916
v -8.442623 3.465242 45.385582
v -3.799364 5.075194 46.518612
v -8.442623 3.465242 45.385582
v -3.289722 3.373776 47.935966
v 4.363066 5.393547 42.052074
v -5.677371 4.327456 16.430634
v -1.098397 5.117929 34.703701
v 4.363066 5.393547 42.052074
v -1.098397 5.117929 34.703701
v -3.239423 5.492746 46.120270
v -5.677371 4.327456 16.430634
v -3.239423 5.492746 46.120270
v -1.098397 5.117929 34.703701
v 6.111593 -38.619038 23.503029
v -3.437010 -32.760319 39.002472
v -9.342782 -40.286114 24.417339
v -9.342782 -40.286114 24.417339
v -3.437010 -32.760319 39.002472
v -16.592138 -38.005116 30.603455
v -16.592138 -38.005116 30.603455
v -6.125764 -33.359779 37.968773
v -17.492926 -36.305180 32.354431
v -3.437010 -32.760319 39.002472
v -6.125764 -33.359779 37.968773
v -16.592138 -38.005116 30.603455
v -5.677371 4.327456 16.430634
v -11.350604 3.806269 38.485859
v -3.239423 5.492746 46.120270
v -3.239423 5.492746 46.120270
v -11.350604 3.806269 38.485859
v -8.213212 3.838704 44.708916
v -8.213212 3.838704 44.708916
v -11.350604 3.806269 38.485859
v -8.442623 3.465242 45.385582
v 26.861580 -8.554281 32.070751
v 6.417995 -25.123711 37.444469
v 11.329890 -35.199223 21.989531
v 11.329890 -35.199223 21.989531
v 6.417995 -25.123711 37.444469
v 6.111593 -38.619038 23.503029
v 6.111593 -38.619038 23.503029
v 6.417995 -25.123711 37.444469
v -3.437010 -32.760319 39.002472
v -3.437010 -32.760319 39.002472
v 6.417995 -25.123711 37.444469
v -2.739026 -29.800320 41.063854
v -28.992224 -19.696459 17.126400
v -17.289665 1.157067 29.510988
v -5.677371 4.327456 16.430634
v -5.677371 4.327456 16.430634
v -17.289665 1.157067 29.510988
v -11.350604 3.806269 38.485859
v -28.992224 -19.696459 17.126400
v -29.158318 -19.811760 17.255201
v -19.102917 -0.265140 30.451363
v -28.992224 -19.696459 17.126400
v -19.102917 -0.265140 30.451363
v -17.289665 1.157067 29.510988
v -31.173143 -17.332302 36.682312
v -19.102917 -0.265140 30.451363
v -29.158318 -19.811760 17.255201
v -8.442623 3.465242 45.385582
v -15.104237 -2.417141 46.144470
v -3.289722 3.373776 47.935966
v -15.103862 -2.416177 46.143887
v -15.104237 -2.417141 46.144470
v -8.442623 3.465242 45.385582
v -31.173143 -17.332302 36.682312
v -15.104237 -2.417141 46.144470
v -15.103862 -2.416177 46.143887
v -11.350604 3.806269 38.485859
v -14.456471 0.782328 40.973694
v -8.442623 3.465242 45.385582
v -15.103862 -2.416177 46.143887
v -8.442623 3.465242 45.385582
v -14.456471 0.782328 40.973694
v -17.289665 1.157067 29.510988
v -16.238325 1.244252 34.491764
v -11.350604 3.806269 38.485859
v -19.102917 -0.265140 30.451363
v -16.238325 1.244252 34.491764
v -17.289665 1.157067 29.510988
v -11.350604 3.806269 38.485859
v -16.238325 1.244252 34.491764
v -14.456471 0.782328 40.973694
v 26.861580 -8.554281 32.070751
v 4.266455 -10.417608 46.310757
v 6.417995 -25.123711 37.444469
v 6.417995 -25.123711 37.444469
v 4.266455 -10.417608 46.310757
v -2.739026 -29.800320 41.063854
v -2.169269 4.008718 47.482437
v 4.266455 -10.417608 46.310757
v 8.927591 -0.134136 42.219021
v -2.420302 3.552961 47.656483
v 4.266455 -10.417608 46.310757
v -2.169269 4.008718 47.482437
v 26.861580 -8.554281 32.070751
v 8.927591 -0.134136 42.219021
v 4.266455 -10.417608 46.310757
v -2.420302 3.552961 47.656483
v -3.289722 3.373776 47.935966
v 4.266455 -10.417608 46.310757
v -31.173143 -17.332302 36.682312
v -20.404980 -1.740302 32.668053
v -19.102917 -0.265140 30.451363
v -31.173143 -17.332302 36.682312
v -15.103862 -2.416177 46.143887
v -20.404980 -1.740302 32.668053
v -15.103862 -2.416177 46.143887
v -14.456471 0.782328 40.973694
v -20.404980 -1.740302 32.668053
v -19.102917 -0.265140 30.451363
v -20.404980 -1.740302 32.668053
v -16.238325 1.244252 34.491764
v -16.238325 1.244252 34.491764
v -20.404980 -1.740302 32.668053
v -14.456471 0.782328 40.973694
v -3.289722 3.373776 47.935966
v -0.115873 -7.617376 47.153870
v 4.266455 -10.417608 46.310757
v -3.289722 3.373776 47.935966
v -2.250722 -7.594108 47.372837
v -0.115873 -7.617376 47.153870
v -31.173143 -17.332302 36.682312
v -18.700966 -11.924861 46.480885
v -15.104237 -2.417141 46.144470
v -22.007263 -16.787354 43.188286
v -18.700966 -11.924861 46.480885
v -31.173143 -17.332302 36.682312
v -15.104237 -2.417141 46.144470
v -15.277437 -13.166927 48.025181
v -3.289722 3.373776 47.935966
v -18.700966 -11.924861 46.480885
v -15.277437 -13.166927 48.025181
v -15.104237 -2.417141 46.144470
v -22.007263 -16.787354 43.188286
v -15.277437 -13.166927 48.025181
v -18.700966 -11.924861 46.480885
v -6.125764 -33.359779 37.968773
v -14.258195 -23.759439 42.848995
v -17.492926 -36.305180 32.354431
v -3.289722 3.373776 47.935966
v -13.425226 -12.985117 48.049053
v -2.250722 -7.594108 47.372837
v -15.277437 -13.166927 48.025181
v -13.425226 -12.985117 48.049053
v -3.289722 3.373776 47.935966
v -2.250722 -7.594108 47.372837
v -13.425226 -12.985117 48.049053
v -0.115873 -7.617376 47.153870
v -17.492926 -36.305180 32.354431
v -15.937972 -19.088816 45.730377
v -31.173143 -17.332302 36.682312
v -22.007263 -16.787354 43.188286
v -31.173143 -17.332302 36.682312
v -15.937972 -19.088816 45.730377
v -14.258195 -23.759439 42.848995
v -15.937972 -19.088816 45.730377
v -17.492926 -36.305180 32.354431
v -22.007263 -16.787354 43.188286
v -15.937972 -19.088816 45.730377
v -15.277437 -13.166927 48.025181
v -3.437010 -32.760319 39.002472
v -12.438951 -22.804804 43.936756
v -6.125764 -33.359779 37.968773
v -6.125764 -33.359779 37.968773
v -12.438951 -22.804804 43.936756
v -14.258195 -23.759439 42.848995
v -3.437010 -32.760319 39.002472
v -2.739026 -29.800320 41.063854
v -12.438951 -22.804804 43.936756
v -14.258195 -23.759439 42.848995
v -12.438951 -22.804804 43.936756
v -15.937972 -19.088816 45.730377
v -2.739026 -29.800320 41.063854
v -9.435925 -20.727537 45.759903
v -12.438951 -22.804804 43.936756
v -12.438951 -22.804804 43.936756
v -9.435925 -20.727537 45.759903
v -15.937972 -19.088816 45.730377
v -0.115873 -7.617376 47.153870
v -10.961284 -13.994908 47.695766
v 4.266455 -10.417608 46.310757
v -13.425226 -12.985117 48.049053
v -10.961284 -13.994908 47.695766
v -0.115873 -7.617376 47.153870
v -15.277437 -13.166927 48.025181
v -9.426703 -19.821638 46.145214
v -13.425226 -12.985117 48.049053
v -13.425226 -12.985117 48.049053
v -9.426703 -19.821638 46.145214
v -10.961284 -13.994908 47.695766
v 4.266455 -10.417608 46.310757
v -9.426703 -19.821638 46.145214
v -2.739026 -29.800320 41.063854
v -2.739026 -29.800320 41.063854
v -9.426703 -19.821638 46.145214
v -9.435925 -20.727537 45.759903
v -15.937972 -19.088816 45.730377
v -9.426703 -19.821638 46.145214
v -15.277437 -13.166927 48.025181
v -9.435925 -20.727537 45.759903
v -9.426703 -19.821638 46.145214
v -15.937972 -19.088816 45.730377
v -10.961284 -13.994908 47.695766
v -9.426703 -19.821638 46.145214
v 4.266455 -10.417608 46.310757
vn 0.378664 -0.924901 0.034232
vn 0.875365 -0.473715 -0.096595
vn 0.393272 -0.916362 0.074956
vn 0.567056 -0.821079 0.065392
vn 0.312216 -0.935847 0.163435
vn 0.577387 -0.683145 0.447143
vn 0.125559 -0.932111 0.339713
vn 0.512771 0.273311 -0.813859
vn 0.650596 0.275574 -0.707661
vn -0.714587 -0.529717 -0.456908
vn 0.083610 -0.934804 0.345181
vn 0.041273 -0.937277 0.346134
vn 0.121190 -0.922549 0.366355
vn -0.649126 -0.757501 0.069482
vn -0.686355 -0.054500 -0.725221
vn -0.014289 -0.939449 0.342390
vn 0.016654 -0.931627 0.363034
vn -0.623441 -0.776301 0.093158
vn -0.656433 -0.748246 0.096038
vn -0.658834 0.001364 -0.752287
vn -0.656303 0.111902 -0.746153
vn -0.592020 0.112654 -0.798011
vn -0.637473 0.604835 -0.477287
vn -0.603168 0.362394 -0.710534
vn -0.618544 0.559469 -0.551723
vn -0.349992 0.305935 -0.885387
vn -0.548453 0.175391 -0.817580
vn -0.570472 0.239449 -0.785637
vn -0.663210 -0.740874 0.106108
vn -0.582422 -0.712217 0.391830
vn 0.519925 0.817376 -0.248142
vn 0.130981 0.985458 -0.108246
vn 0.276211 0.948753 -0.153541
vn 0.055905 0.996423 -0.063369
vn 0.574339 0.814638 0.080622
vn 0.588803 0.766749 0.255749
vn 0.181699 0.930908 0.316853
vn -0.265657 0.597683 0.756440
vn -0.174181 0.791915 0.585262
vn 0.592365 0.508035 0.625303
vn 0.528004 0.457609 0.715406
vn 0.493750 0.273997 0.825310
vn -0.006806 0.433307 0.901221
vn 0.209221 0.296413 0.931862
vn -0.288871 0.560207 0.776352
vn 0.257794 0.217510 0.941399
vn -0.989683 -0.112884 -0.088235
vn -0.765690 -0.592888 0.249406
vn -0.686765 -0.591542 0.422412
vn -0.382501 0.852600 0.356043
vn -0.382694 0.857611 0.343583
vn -0.369472 0.526935 0.765395
vn 0.011662 0.998867 -0.046132
vn -0.005021 0.999418 -0.033754
vn -0.023778 0.999023 -0.037258
vn 0.121819 -0.901292 0.415732
vn 0.083959 -0.898979 0.429869
vn -0.130771 -0.744105 0.655139
vn -0.035370 -0.821850 0.568605
vn -0.182147 0.982987 -0.023624
vn -0.354876 0.918555 0.174126
vn -0.531732 0.804753 0.263881
vn 0.605305 -0.564987 0.560709
vn 0.559587 -0.601592 0.570043
vn 0.557302 -0.602673 0.571139
vn 0.536234 -0.563864 0.628100
vn -0.654124 0.622368 -0.429861
vn -0.327130 0.942952 -0.061864
vn -0.704947 0.608570 -0.364270
vn -0.684949 0.615717 -0.389534
vn -0.832357 0.532338 -0.154267
vn -0.371482 0.519928 0.769205
vn -0.437903 0.584082 0.683439
vn -0.738396 0.535382 0.410045
vn -0.551056 0.789150 0.271255
vn -0.591009 0.717022 0.369577
vn -0.522177 0.847486 0.095386
vn -0.578298 0.808657 0.107912
vn -0.586301 0.780545 0.216796
vn 0.514370 -0.386335 0.765616
vn 0.503992 -0.390678 0.770301
vn 0.465747 0.136766 0.874285
vn 0.418572 0.113547 0.901058
vn 0.524745 0.098584 0.845532
vn 0.296310 0.049949 0.953785
vn -0.831179 0.541028 -0.128183
vn -0.738890 0.592781 0.320395
vn -0.702727 0.641052 0.308590
vn -0.618318 0.771445 0.150187
vn -0.630731 0.742277 0.226282
vn 0.177278 -0.018826 0.983981
vn 0.101499 -0.041419 0.993973
vn -0.664934 0.276097 0.693998
vn -0.564478 -0.163983 0.808996
vn -0.229269 0.171328 0.958166
vn -0.354552 0.166680 0.920060
vn -0.472234 -0.251060 0.844964
vn -0.230122 -0.588808 0.774822
vn 0.081210 -0.043432 0.995750
vn -0.014442 0.015859 0.999770
vn 0.100756 -0.084503 0.991316
vn -0.481936 -0.510017 0.712475
vn -0.487703 -0.482563 0.727516
vn -0.274267 -0.574429 0.771239
vn -0.458517 -0.276181 0.844681
vn -0.183452 -0.564693 0.804653
vn -0.184378 -0.565004 0.804223
vn -0.145763 -0.542006 0.827637
vn -0.185693 -0.563421 0.805031
vn -0.137598 -0.533513 0.834524
vn -0.138119 -0.532982 0.834777
vn 0.116631 -0.114512 0.986552
vn 0.103992 -0.092704 0.990248
vn 0.013187 -0.261084 0.965226
vn 0.037249 -0.247809 0.968093
vn 0.212939 -0.326272 0.920980
vn 0.112683 -0.389881 0.913945
vn -0.098737 -0.349971 0.931543
vn -0.102067 -0.388478 0.915788
vn 0.139530 -0.220164 0.965432
f 1//1 2//1 3//1
f 4//2 5//2 6//2
f 7//3 8//3 9//3
f 10//4 11//4 12//4
f 13//5 14//5 15//5
f 16//6 17//6 18//6
f 19//7 20//7 21//7
f 22//8 23//8 24//8
f 25//9 26//9 27//9
f 28//10 29//10 30//10
f 31//11 32//11 33//11
f 34//12 35//12 36//12
f 37//13 38//13 39//13
f 40//14 41//14 42//14
f 43//15 44//15 45//15
f 46//16 47//16 48//16
f 49//17 50//17 51//17
f 52//18 53//18 54//18
f 55//19 56//19 57//19
f 58//20 59//20 60//20
f 61//21 62//21 63//21
f 64//22 65//22 66//22
f 67//23 68//23 69//23
f 70//24 71//24 72//24
f 73//25 74//25 75//25
f 76//26 77//26 78//26
f 79//27 80//27 81//27
f 82//28 83//28 84//28
f 85//29 86//29 87//29
f 88//30 89//30 90//30
f 91//31 92//31 93//31
f 94//32 95//32 96//32
f 97//33 98//33 99//33
f 100//34 101//34 102//34
f 103//35 104//35 105//35
f 106//36 107//36 108//36
f 109//37 110//37 111//37
f 112//38 113//38 114//38
f 115//39 116//39 117//39
f 118//40 119//40 120//40
f 121//41 122//41 123//41
f 124//42 125//42 126//42
f 127//43 128//43 129//43
f 130//44 131//44 132//44
f 133//45 134//45 135//45
f 136//46 137//46 138//46
f 139//47 140//47 141//47
f 142//48 143//48 144//48
f 145//49 146//49 147//49
f 148//50 149//50 150//50
f 151//51 152//51 153//51
f 154//52 155//52 156//52
f 157//53 158//53 159//53
f 160//54 161//54 162//54
f 163//55 164//55 165//55
f 166//56 167//56 168//56
f 169//57 170//57 171//57
f 172//58 173//58 174//58
f 175//59 176//59 177//59
f 178//60 179//60 180//60
f 181//61 182//61 183//61
f 184//62 185//62 186//62
f 187//63 188//63 189//63
f 190//64 191//64 192//64
f 193//65 194//65 195//65
f 196//66 197//66 198//66
f 199//67 200//67 201//67
f 202//68 203//68 204//68
f 205//69 206//69 207//69
f 208//70 209//70 210//70
f 211//71 212//71 213//71
f 214//72 215//72 216//72
f 217//73 218//73 219//73
f 220//74 221//74 222//74
f 223//75 224//75 225//75
f 226//76 227//76 228//76
f 229//77 230//77 231//77
f 232//78 233//78 234//78
f 235//79 236//79 237//79
f 238//80 239//80 240//80
f 241//81 242//81 243//81
f 244//82 245//82 246//82
f 247//83 248//83 249//83
f 250//84 251//84 252//84
f 253//85 254//85 255//85
f 256//86 257//86 258//86
f 259//87 260//87 261//87
f 262//88 263//88 264//88
f 265//89 266//89 267//89
f 268//90 269//90 270//90
f 271//91 272//91 273//91
f 274//92 275//92 276//92
f 277//93 278//93 279//93
f 280//94 281//94 282//94
f 283//95 284//95 285//95
f 286//96 287//96 288//96
f 289//97 290//97 291//97
f 292//98 293//98 294//98
f 295//99 296//99 297//99
f 298//100 299//100 300//100
f 301//101 302//101 303//101
f 304//102 305//102 306//102
f 307//103 308//103 309//103
f 310//104 311//104 312//104
f 313//105 314//105 315//105
f 316//106 317//106 318//106
f 319//107 320//107 321//107
f 322//108 323//108 324//108
f 325//109 326//109 327//109
f 328//110 329//110 330//110
f 331//111 332//111 333//111
f 334//112 335//112 336//112
f 337//113 338//113 339//113
f 340//114 341//114 342//114
f 343//115 344//115 345//115
f 346//116 347//116 348//116
f 349//117 350//117 351//117
f 352//118 353//118 354//118
f 355//119 356//119 357//119
f 358//120 359//120 360//120
