o
v 169.223755 -7.996273 173.726257
v 178.171295 -57.559769 130.942657
v 191.228180 -62.770737 132.191666
v 191.228180 -62.770737 132.191666
v 178.171295 -57.559769 130.942657
v 172.361832 -62.295200 106.733978
v 160.314270 -49.315331 66.170166
v 204.873322 -61.916759 92.623756
v 172.361832 -62.295200 106.733978
v 191.228180 -62.770737 132.191666
v 172.361832 -62.295200 106.733978
v 204.873322 -61.916759 92.623756
v 169.223755 -7.996273 173.726257
v 191.228180 -62.770737 132.191666
v 199.984146 -57.117577 129.140427
v 191.228180 -62.770737 132.191666
v 204.873322 -61.916759 92.623756
v 199.984146 -57.117577 129.140427
v 178.171295 -57.559769 130.942657
v 152.319595 -49.030193 109.495590
v 172.361832 -62.295200 106.733978
v 160.314270 -49.315331 66.170166
v 221.830353 -48.775742 79.829086
v 204.873322 -61.916759 92.623756
v 204.873322 -61.916759 92.623756
v 221.830353 -48.775742 79.829086
v 199.984146 -57.117577 129.140427
v 160.314270 -49.315331 66.170166
v 172.361832 -62.295200 106.733978
v 155.783020 -50.808296 91.393051
v 152.319595 -49.030193 109.495590
v 155.783020 -50.808296 91.393051
v 172.361832 -62.295200 106.733978
v 169.223755 -7.996273 173.726257
v 161.473389 2.120415 168.717880
v 151.134644 0.532844 159.247650
v 169.223755 -7.996273 173.726257
v 157.765533 -7.806641 161.650146
v 178.171295 -57.559769 130.942657
v 178.171295 -57.559769 130.942657
v 157.765533 -7.806641 161.650146
v 152.319595 -49.030193 109.495590
v 169.223755 -7.996273 173.726257
v 151.134644 0.532844 159.247650
v 157.765533 -7.806641 161.650146
v 169.223755 -7.996273 173.726257
v 175.316971 -5.063185 169.882431
v 173.387253 -0.267664 173.264236
v 169.223755 -7.996273 173.726257
v 199.984146 -57.117577 129.140427
v 175.316971 -5.063185 169.882431
v 160.314270 -49.315331 66.170166
v 155.783020 -50.808296 91.393051
v 140.404083 -31.922325 111.677216
v 152.319595 -49.030193 109.495590
v 140.404083 -31.922325 111.677216
v 155.783020 -50.808296 91.393051
v 237.155594 -7.716043 55.984493
v 221.830353 -48.775742 79.829086
v 232.807587 -14.581492 56.932095
v 151.134644 0.532844 159.247650
v 129.953247 9.003776 120.969193
v 131.049911 -3.518748 121.250221
v 160.314270 -49.315331 66.170166
v 140.404083 -31.922325 111.677216
v 128.141693 18.665958 110.119255
v 131.049911 -3.518748 121.250221
v 128.141693 18.665958 110.119255
v 140.404083 -31.922325 111.677216
v 129.953247 9.003776 120.969193
v 128.141693 18.665958 110.119255
v 131.049911 -3.518748 121.250221
v 128.857224 26.129227 114.564476
v 128.141693 18.665958 110.119255
v 129.953247 9.003776 120.969193
v 169.223755 -7.996273 173.726257
v 164.457230 22.305241 165.635010
v 161.473389 2.120415 168.717880
v 169.223755 -7.996273 173.726257
v 173.387253 -0.267664 173.264236
v 164.457230 22.305241 165.635010
v 161.473389 2.120415 168.717880
v 164.457230 22.305241 165.635010
v 151.134644 0.532844 159.247650
v 173.387253 -0.267664 173.264236
v 182.934723 56.991089 157.108383
v 164.457230 22.305241 165.635010
v 182.934723 56.991089 157.108383
v 145.642899 38.007954 142.897644
v 164.457230 22.305241 165.635010
v 164.457230 22.305241 165.635010
v 145.642899 38.007954 142.897644
v 151.134644 0.532844 159.247650
v 182.934723 56.991089 157.108383
v 144.898926 38.393471 141.337997
v 145.642899 38.007954 142.897644
v 157.765533 -7.806641 161.650146
v 142.282654 -21.247669 127.461555
v 152.319595 -49.030193 109.495590
v 152.319595 -49.030193 109.495590
v 142.282654 -21.247669 127.461555
v 140.404083 -31.922325 111.677216
v 151.134644 0.532844 159.247650
v 142.282654 -21.247669 127.461555
v 157.765533 -7.806641 161.650146
v 151.134644 0.532844 159.247650
v 131.049911 -3.518748 121.250221
v 142.282654 -21.247669 127.461555
v 131.049911 -3.518748 121.250221
v 140.404083 -31.922325 111.677216
v 142.282654 -21.247669 127.461555
v 235.386993 60.709560 118.016541
v 230.404205 56.123875 130.220596
v 235.303513 58.813301 120.235489
v 235.386993 60.709560 118.016541
v 230.328156 56.111004 130.329346
v 230.404205 56.123875 130.220596
v 151.134644 0.532844 159.247650
v 137.002563 31.000017 129.355240
v 129.953247 9.003776 120.969193
v 145.642899 38.007954 142.897644
v 137.002563 31.000017 129.355240
v 151.134644 0.532844 159.247650
v 128.857224 26.129227 114.564476
v 129.953247 9.003776 120.969193
v 137.002563 31.000017 129.355240
v 128.857224 26.129227 114.564476
v 137.002563 31.000017 129.355240
v 144.898926 38.393471 141.337997
v 144.898926 38.393471 141.337997
v 137.002563 31.000017 129.355240
v 145.642899 38.007954 142.897644
v 235.386993 60.709560 118.016541
v 235.303513 58.813301 120.235489
v 241.049881 47.604076 104.816727
v 235.303513 58.813301 120.235489
v 236.475037 55.053886 117.867325
v 241.049881 47.604076 104.816727
v 233.444885 64.213425 97.333488
v 235.386993 60.709560 118.016541
v 241.049881 47.604076 104.816727
v 182.934723 56.991089 157.108383
v 187.425232 66.526039 146.215652
v 144.898926 38.393471 141.337997
v 230.328156 56.111004 130.329346
v 188.026962 66.087723 146.609970
v 182.934723 56.991089 157.108383
v 182.934723 56.991089 157.108383
v 188.026962 66.087723 146.609970
v 187.425232 66.526039 146.215652
v 235.386993 60.709560 118.016541
v 188.026962 66.087723 146.609970
v 230.328156 56.111004 130.329346
v 187.425232 66.526039 146.215652
v 188.026962 66.087723 146.609970
v 235.386993 60.709560 118.016541
v 234.105515 31.843681 54.284657
v 238.836502 29.510639 67.839569
v 237.155594 -7.716043 55.984493
v 237.155594 -7.716043 55.984493
v 238.836502 29.510639 67.839569
v 241.049881 47.604076 104.816727
v 233.444885 64.213425 97.333488
v 238.836502 29.510639 67.839569
v 234.105515 31.843681 54.284657
v 233.444885 64.213425 97.333488
v 241.049881 47.604076 104.816727
v 238.836502 29.510639 67.839569
v 230.404205 56.123875 130.220596
v 235.306351 45.502441 126.098061
v 235.303513 58.813301 120.235489
v 235.303513 58.813301 120.235489
v 235.306351 45.502441 126.098061
v 236.475037 55.053886 117.867325
v 230.328156 56.111004 130.329346
v 235.306351 45.502441 126.098061
v 230.404205 56.123875 130.220596
v 236.475037 55.053886 117.867325
v 235.306351 45.502441 126.098061
v 241.049881 47.604076 104.816727
v 229.092957 63.966724 116.098785
v 224.545517 63.124424 122.025040
v 235.386993 60.709560 118.016541
v 187.425232 66.526039 146.215652
v 235.386993 60.709560 118.016541
v 224.545517 63.124424 122.025040
v 237.155594 -7.716043 55.984493
v 232.807587 -14.581492 56.932095
v 220.367523 22.144688 46.556946
v 234.105515 31.843681 54.284657
v 237.155594 -7.716043 55.984493
v 220.367523 22.144688 46.556946
v 233.444885 64.213425 97.333488
v 218.241943 72.040894 100.665047
v 235.386993 60.709560 118.016541
v 229.092957 63.966724 116.098785
v 235.386993 60.709560 118.016541
v 218.241943 72.040894 100.665047
v 234.105515 31.843681 54.284657
v 220.367523 22.144688 46.556946
v 219.080963 22.751945 46.392246
v 229.092957 63.966724 116.098785
v 221.529770 67.314072 115.003700
v 224.545517 63.124424 122.025040
v 187.425232 66.526039 146.215652
v 224.545517 63.124424 122.025040
v 221.529770 67.314072 115.003700
v 229.092957 63.966724 116.098785
v 218.241943 72.040894 100.665047
v 221.529770 67.314072 115.003700
v 187.425232 66.526039 146.215652
v 221.529770 67.314072 115.003700
v 218.241943 72.040894 100.665047
v 160.314270 -49.315331 66.170166
v 159.852448 -20.802589 51.543018
v 170.046219 -16.138996 48.083157
v 232.807587 -14.581492 56.932095
v 170.046219 -16.138996 48.083157
v 220.367523 22.144688 46.556946
v 159.852448 -20.802589 51.543018
v 165.931030 13.749771 43.403721
v 170.046219 -16.138996 48.083157
v 128.857224 26.129227 114.564476
v 144.898926 38.393471 141.337997
v 137.806702 34.471764 98.105629
v 160.314270 -49.315331 66.170166
v 202.187943 -30.263725 58.574486
v 221.830353 -48.775742 79.829086
v 221.830353 -48.775742 79.829086
v 202.187943 -30.263725 58.574486
v 232.807587 -14.581492 56.932095
v 160.314270 -49.315331 66.170166
v 170.046219 -16.138996 48.083157
v 202.187943 -30.263725 58.574486
v 232.807587 -14.581492 56.932095
v 202.187943 -30.263725 58.574486
v 170.046219 -16.138996 48.083157
v 160.314270 -49.315331 66.170166
v 128.141693 18.665958 110.119255
v 137.350021 13.137810 89.472130
v 160.314270 -49.315331 66.170166
v 137.350021 13.137810 89.472130
v 159.852448 -20.802589 51.543018
v 173.387253 -0.267664 173.264236
v 196.982605 35.617622 157.874329
v 182.934723 56.991089 157.108383
v 230.328156 56.111004 130.329346
v 182.934723 56.991089 157.108383
v 196.982605 35.617622 157.874329
v 128.857224 26.129227 114.564476
v 144.166489 29.815828 74.599655
v 128.141693 18.665958 110.119255
v 128.857224 26.129227 114.564476
v 137.806702 34.471764 98.105629
v 144.166489 29.815828 74.599655
v 137.350021 13.137810 89.472130
v 144.166489 29.815828 74.599655
v 159.852448 -20.802589 51.543018
v 128.141693 18.665958 110.119255
v 144.166489 29.815828 74.599655
v 137.350021 13.137810 89.472130
v 159.852448 -20.802589 51.543018
v 157.538177 9.297456 53.665424
v 165.931030 13.749771 43.403721
v 144.166489 29.815828 74.599655
v 157.538177 9.297456 53.665424
v 159.852448 -20.802589 51.543018
v 165.931030 13.749771 43.403721
v 157.538177 9.297456 53.665424
v 144.166489 29.815828 74.599655
v 137.806702 34.471764 98.105629
v 157.533066 46.341869 66.257599
v 144.166489 29.815828 74.599655
v 165.931030 13.749771 43.403721
v 157.533066 46.341869 66.257599
v 157.739120 46.271381 66.111359
v 165.931030 13.749771 43.403721
v 144.166489 29.815828 74.599655
v 157.426270 45.349876 65.854286
v 157.533066 46.341869 66.257599
v 157.426270 45.349876 65.854286
v 144.166489 29.815828 74.599655
v 165.931030 13.749771 43.403721
v 157.426270 45.349876 65.854286
v 157.533066 46.341869 66.257599
v 233.444885 64.213425 97.333488
v 234.105515 31.843681 54.284657
v 202.282928 70.789993 84.320236
v 233.444885 64.213425 97.333488
v 202.282928 70.789993 84.320236
v 218.241943 72.040894 100.665047
v 220.367523 22.144688 46.556946
v 179.917145 11.790545 43.750481
v 219.080963 22.751945 46.392246
v 165.931030 13.749771 43.403721
v 219.080963 22.751945 46.392246
v 179.917145 11.790545 43.750481
v 165.931030 13.749771 43.403721
v 179.917145 11.790545 43.750481
v 170.046219 -16.138996 48.083157
v 187.425232 66.526039 146.215652
v 218.241943 72.040894 100.665047
v 193.385620 71.399239 116.779892
v 202.282928 70.789993 84.320236
v 193.385620 71.399239 116.779892
v 218.241943 72.040894 100.665047
v 170.046219 -16.138996 48.083157
v 184.431702 7.957075 44.667744
v 220.367523 22.144688 46.556946
v 220.367523 22.144688 46.556946
v 184.431702 7.957075 44.667744
v 179.917145 11.790545 43.750481
v 179.917145 11.790545 43.750481
v 184.431702 7.957075 44.667744
v 170.046219 -16.138996 48.083157
v 234.105515 31.843681 54.284657
v 219.080963 22.751945 46.392246
v 213.947479 51.439419 68.879494
v 234.105515 31.843681 54.284657
v 213.947479 51.439419 68.879494
v 202.282928 70.789993 84.320236
v 157.739120 46.271381 66.111359
v 213.947479 51.439419 68.879494
v 219.080963 22.751945 46.392246
v 202.282928 70.789993 84.320236
v 213.947479 51.439419 68.879494
v 157.739120 46.271381 66.111359
v 137.806702 34.471764 98.105629
v 149.330551 41.947281 84.390503
v 157.533066 46.341869 66.257599
v 221.830353 -48.775742 79.829086
v 237.280777 11.700202 108.303429
v 199.984146 -57.117577 129.140427
v 237.155594 -7.716043 55.984493
v 237.280777 11.700202 108.303429
v 221.830353 -48.775742 79.829086
v 237.155594 -7.716043 55.984493
v 241.049881 47.604076 104.816727
v 237.280777 11.700202 108.303429
v 235.306351 45.502441 126.098061
v 237.280777 11.700202 108.303429
v 241.049881 47.604076 104.816727
v 187.425232 66.526039 146.215652
v 151.063797 43.532833 118.381538
v 144.898926 38.393471 141.337997
v 144.898926 38.393471 141.337997
v 151.063797 43.532833 118.381538
v 137.806702 34.471764 98.105629
v 157.533066 46.341869 66.257599
v 190.067917 68.008636 84.230110
v 157.739120 46.271381 66.111359
v 202.282928 70.789993 84.320236
v 190.067917 68.008636 84.230110
v 193.385620 71.399239 116.779892
v 165.931030 13.749771 43.403721
v 157.739120 46.271381 66.111359
v 175.955566 25.519871 49.761444
v 165.931030 13.749771 43.403721
v 175.955566 25.519871 49.761444
v 219.080963 22.751945 46.392246
v 157.739120 46.271381 66.111359
v 219.080963 22.751945 46.392246
v 175.955566 25.519871 49.761444
v 202.282928 70.789993 84.320236
v 157.739120 46.271381 66.111359
v 192.114624 66.129120 81.318626
v 190.067917 68.008636 84.230110
v 192.114624 66.129120 81.318626
v 157.739120 46.271381 66.111359
v 202.282928 70.789993 84.320236
v 192.114624 66.129120 81.318626
v 190.067917 68.008636 84.230110
v 175.316971 -5.063185 169.882431
v 215.592194 17.395414 144.347061
v 173.387253 -0.267664 173.264236
v 199.984146 -57.117577 129.140427
v 215.592194 17.395414 144.347061
v 175.316971 -5.063185 169.882431
v 173.387253 -0.267664 173.264236
v 215.592194 17.395414 144.347061
v 196.982605 35.617622 157.874329
v 230.328156 56.111004 130.329346
v 215.592194 17.395414 144.347061
v 235.306351 45.502441 126.098061
v 230.328156 56.111004 130.329346
v 196.982605 35.617622 157.874329
v 215.592194 17.395414 144.347061
v 149.330551 41.947281 84.390503
v 158.001831 47.831799 85.766403
v 157.533066 46.341869 66.257599
v 237.280777 11.700202 108.303429
v 216.710266 -8.646895 132.374817
v 199.984146 -57.117577 129.140427
v 199.984146 -57.117577 129.140427
v 216.710266 -8.646895 132.374817
v 215.592194 17.395414 144.347061
v 235.306351 45.502441 126.098061
v 216.710266 -8.646895 132.374817
v 237.280777 11.700202 108.303429
v 215.592194 17.395414 144.347061
v 216.710266 -8.646895 132.374817
v 235.306351 45.502441 126.098061
v 187.425232 66.526039 146.215652
v 193.385620 71.399239 116.779892
v 166.222534 54.183537 101.710098
v 187.425232 66.526039 146.215652
v 166.222534 54.183537 101.710098
v 151.063797 43.532833 118.381538
v 137.806702 34.471764 98.105629
v 166.222534 54.183537 101.710098
v 149.330551 41.947281 84.390503
v 149.330551 41.947281 84.390503
v 166.222534 54.183537 101.710098
v 158.001831 47.831799 85.766403
v 157.533066 46.341869 66.257599
v 166.222534 54.183537 101.710098
v 190.067917 68.008636 84.230110
v 158.001831 47.831799 85.766403
v 166.222534 54.183537 101.710098
v 157.533066 46.341869 66.257599
v 190.067917 68.008636 84.230110
v 166.222534 54.183537 101.710098
v 193.385620 71.399239 116.779892
v 151.063797 43.532833 118.381538
v 166.222534 54.183537 101.710098
v 137.806702 34.471764 98.105629
vn -0.325371 -0.650853 0.685947
vn -0.379187 -0.886727 0.264447
vn -0.107718 -0.955728 -0.273827
vn 0.002673 -0.999783 -0.020656
vn 0.512818 -0.378344 0.770632
vn 0.577316 -0.795999 0.181910
vn -0.502569 -0.817746 0.280562
vn 0.142488 -0.778728 -0.610966
vn 0.685179 -0.704660 0.184347
vn -0.475476 -0.869018 -0.136856
vn -0.554079 -0.832110 -0.024275
vn -0.657565 -0.136999 0.740837
vn -0.593002 -0.584818 0.553477
vn -0.625126 -0.579266 0.523133
vn -0.680499 -0.356680 0.640079
vn 0.605241 -0.281539 0.744593
vn 0.606776 -0.291312 0.739568
vn -0.849044 -0.496025 -0.181890
vn -0.822346 -0.559706 -0.102357
vn 0.734127 -0.524462 -0.431275
vn -0.879197 -0.066408 0.471808
vn -0.920519 -0.232793 -0.313770
vn -0.945673 -0.236110 -0.223504
vn -0.992310 -0.084880 0.090092
vn -0.986675 -0.002303 0.162688
vn -0.344294 0.191282 0.919170
vn -0.279226 0.206482 0.937762
vn -0.677864 0.207909 0.705177
vn -0.094693 0.284926 0.953861
vn -0.509043 0.451341 0.732916
vn -0.678113 0.208153 0.704866
vn -0.534552 0.725062 0.434211
vn -0.644740 -0.565508 0.514307
vn -0.702980 -0.547507 0.453934
vn -0.739377 -0.441434 0.508387
vn -0.811886 -0.350935 0.466567
vn -0.837741 -0.400868 0.370803
vn 0.692030 0.535714 0.483844
vn 0.580022 0.655792 0.483231
vn -0.863344 0.087192 0.497027
vn -0.860433 0.092530 0.501092
vn -0.885566 0.111928 0.450826
vn -0.869149 0.327100 0.370926
vn -0.868994 0.182975 0.459750
vn 0.956642 0.202671 0.209189
vn 0.956602 0.135638 0.257906
vn 0.911834 0.410242 -0.016122
vn -0.533393 0.733153 0.421875
vn 0.407945 0.582766 0.702826
vn 0.089089 0.730964 0.676576
vn 0.366265 0.812315 0.453865
vn 0.344514 0.843563 0.411960
vn 0.945616 0.059164 -0.319859
vn 0.998525 -0.030862 -0.044669
vn 0.900012 0.354892 -0.253042
vn 0.921055 0.325196 -0.214255
vn 0.854287 0.209670 0.475639
vn 0.952978 0.122318 0.277258
vn 0.802541 0.145868 0.578490
vn 0.956112 0.115175 0.269415
vn 0.332173 0.864281 0.377730
vn 0.336946 0.853736 0.396991
vn 0.143287 -0.223808 -0.964043
vn 0.490088 0.000331 -0.871673
vn 0.473166 0.874840 0.103775
vn 0.407810 0.894860 0.181427
vn 0.272699 0.332934 -0.902657
vn 0.329058 0.866382 0.375638
vn 0.325459 0.866928 0.377509
vn 0.369381 0.904431 0.213453
vn 0.216649 0.940857 0.260482
vn -0.092028 -0.455689 -0.885369
vn 0.141510 -0.224442 -0.964158
vn -0.240188 -0.182343 -0.953447
vn -0.644681 0.763580 0.036493
vn 0.168154 -0.661110 -0.731203
vn 0.263282 -0.593696 -0.760400
vn 0.066737 -0.492618 -0.867683
vn 0.138785 -0.367298 -0.919691
vn -0.913215 -0.204234 -0.352599
vn -0.910739 -0.200087 -0.361275
vn 0.279566 0.217262 0.935222
vn 0.467926 0.336828 0.817063
vn -0.905290 0.278067 -0.321137
vn -0.887073 0.343768 -0.308099
vn -0.880800 -0.058952 -0.469804
vn -0.912449 0.008107 -0.409110
vn -0.770926 -0.014374 -0.636762
vn -0.855152 -0.029256 -0.517552
vn -0.791042 0.100213 -0.603498
vn -0.809285 0.494587 -0.316926
vn -0.408806 0.451000 -0.793396
vn -0.724536 0.258834 -0.638790
vn -0.751921 0.316151 -0.578501
vn -0.586047 0.358523 -0.726643
vn 0.386122 0.740111 -0.550587
vn 0.347263 0.846358 -0.403840
vn 0.089349 -0.079964 -0.992785
vn 0.038794 0.100985 -0.994131
vn 0.002883 -0.154289 -0.988021
vn 0.091887 0.979233 0.180722
vn -0.046120 0.998443 -0.031382
vn 0.137184 -0.218832 -0.966071
vn 0.099153 -0.119603 -0.987858
vn 0.054062 -0.171701 -0.983665
vn 0.036021 0.620508 -0.783372
vn 0.093593 0.654839 -0.749951
vn -0.017704 0.614863 -0.788435
vn -0.017980 0.616971 -0.786780
vn -0.612906 0.785361 -0.086916
vn 0.869766 -0.373858 0.322085
vn 0.950214 -0.292864 0.106412
vn 0.994271 -0.100968 0.035092
vn 0.964492 -0.076707 0.252728
vn -0.554320 0.831468 0.037284
vn -0.587980 0.808545 0.023113
vn -0.172970 0.769592 -0.614662
vn -0.220775 0.972139 -0.078762
vn -0.118585 0.548196 -0.827900
vn -0.035693 0.498318 -0.866259
vn -0.023218 0.606057 -0.795083
vn -0.167818 0.765862 -0.620719
vn -0.171226 0.768520 -0.616488
vn -0.170528 0.768882 -0.616231
vn 0.618680 -0.271060 0.737402
vn 0.620442 -0.279503 0.732755
vn 0.572001 -0.024483 0.819887
vn 0.666956 0.015858 0.744928
vn 0.618103 0.048809 0.784580
vn -0.555376 0.830092 -0.050051
vn 0.836599 -0.318436 0.445758
vn 0.682998 -0.280685 0.674336
vn 0.826269 -0.223844 0.516888
vn 0.810832 -0.215375 0.544211
vn -0.546159 0.837213 0.028013
vn -0.551259 0.833743 0.031405
vn -0.567342 0.823002 -0.028115
vn -0.556221 0.829879 -0.043820
vn -0.531530 0.845143 -0.056656
vn -0.547256 0.835431 -0.050654
vn -0.520751 0.852959 -0.035771
vn -0.570479 0.821291 0.005974
f 1//1 2//1 3//1
f 4//2 5//2 6//2
f 7//3 8//3 9//3
f 10//4 11//4 12//4
f 13//5 14//5 15//5
f 16//6 17//6 18//6
f 19//7 20//7 21//7
f 22//8 23//8 24//8
f 25//9 26//9 27//9
f 28//10 29//10 30//10
f 31//11 32//11 33//11
f 34//12 35//12 36//12
f 37//13 38//13 39//13
f 40//14 41//14 42//14
f 43//15 44//15 45//15
f 46//16 47//16 48//16
f 49//17 50//17 51//17
f 52//18 53//18 54//18
f 55//19 56//19 57//19
f 58//20 59//20 60//20
f 61//21 62//21 63//21
f 64//22 65//22 66//22
f 67//23 68//23 69//23
f 70//24 71//24 72//24
f 73//25 74//25 75//25
f 76//26 77//26 78//26
f 79//27 80//27 81//27
f 82//28 83//28 84//28
f 85//29 86//29 87//29
f 88//30 89//30 90//30
f 91//31 92//31 93//31
f 94//32 95//32 96//32
f 97//33 98//33 99//33
f 100//34 101//34 102//34
f 103//35 104//35 105//35
f 106//36 107//36 108//36
f 109//37 110//37 111//37
f 112//38 113//38 114//38
f 115//39 116//39 117//39
f 118//40 119//40 120//40
f 121//41 122//41 123//41
f 124//42 125//42 126//42
f 127//43 128//43 129//43
f 130//44 131//44 132//44
f 133//45 134//45 135//45
f 136//46 137//46 138//46
f 139//47 140//47 141//47
f 142//48 143//48 144//48
f 145//49 146//49 147//49
f 148//50 149//50 150//50
f 151//51 152//51 153//51
f 154//52 155//52 156//52
f 157//53 158//53 159//53
f 160//54 161//54 162//54
f 163//55 164//55 165//55
f 166//56 167//56 168//56
f 169//57 170//57 171//57
f 172//58 173//58 174//58
f 175//59 176//59 177//59
f 178//60 179//60 180//60
f 181//61 182//61 183//61
f 184//62 185//62 186//62
f 187//63 188//63 189//63
f 190//64 191//64 192//64
f 193//65 194//65 195//65
f 196//66 197//66 198//66
f 199//67 200//67 201//67
f 202//68 203//68 204//68
f 205//69 206//69 207//69
f 208//70 209//70 210//70
f 211//71 212//71 213//71
f 214//72 215//72 216//72
f 217//73 218//73 219//73
f 220//74 221//74 222//74
f 223//75 224//75 225//75
f 226//76 227//76 228//76
f 229//77 230//77 231//77
f 232//78 233//78 234//78
f 235//79 236//79 237//79
f 238//80 239//80 240//80
f 241//81 242//81 243//81
f 244//82 245//82 246//82
f 247//83 248//83 249//83
f 250//84 251//84 252//84
f 253//85 254//85 255//85
f 256//86 257//86 258//86
f 259//87 260//87 261//87
f 262//88 263//88 264//88
f 265//89 266//89 267//89
f 268//90 269//90 270//90
f 271//91 272//91 273//91
f 274//92 275//92 276//92
f 277//93 278//93 279//93
f 280//94 281//94 282//94
f 283//95 284//95 285//95
f 286//96 287//96 288//96
f 289//97 290//97 291//97
f 292//98 293//98 294//98
f 295//99 296//99 297//99
f 298//100 299//100 300//100
f 301//101 302//101 303//101
f 304//102 305//102 306//102
f 307//103 308//103 309//103
f 310//104 311//104 312//104
f 313//105 314//105 315//105
f 316//106 317//106 318//106
f 319//107 320//107 321//107
f 322//108 323//108 324//108
f 325//109 326//109 327//109
f 328//110 329//110 330//110
f 331//111 332//111 333//111
f 334//112 335//112 336//112
f 337//113 338//113 339//113
f 340//114 341//114 342//114
f 343//115 344//115 345//115
f 346//116 347//116 348//116
f 349//117 350//117 351//117
f 352//118 353//118 354//118
f 355//119 356//119 357//119
f 358//120 359//120 360//120
f 361//121 362//121 363//121
f 364//122 365//122 366//122
f 367//123 368//123 369//123
f 370//124 371//124 372//124
f 373//125 374//125 375//125
f 376//126 377//126 378//126
f 379//127 380//127 381//127
f 382//128 383//128 384//128
f 385//129 386//129 387//129
f 388//130 389//130 390//130
f 391//131 392//131 393//131
f 394//132 395//132 396//132
f 397//133 398//133 399//133
f 400//134 401//134 402//134
f 403//135 404//135 405//135
f 406//136 407//136 408//136
f 409//137 410//137 411//137
f 412//138 413//138 414//138
f 415//139 416//139 417//139
f 418//140 419//140 420//140
f 421//141 422//141 423//141
f 424//142 425//142 426//142
