o
v 144.673340 187.485672 24.382435
v -11.945073 226.367432 -26.730495
v 131.898605 52.003456 46.073200
v 131.898605 52.003456 46.073200
v -11.945073 226.367432 -26.730495
v -115.052490 163.648727 -53.488121
v -115.052490 163.648727 -53.488121
v -11.945073 226.367432 -26.730495
v -98.915100 184.339203 -70.740082
v -115.052490 163.648727 -53.488121
v -98.915100 184.339203 -70.740082
v -99.908264 182.866821 -72.076042
v -11.945073 226.367432 -26.730495
v -3.899829 239.522156 -48.664055
v -98.915100 184.339203 -70.740082
v 144.673340 187.485672 24.382435
v -1.247193 238.905014 -47.756142
v -11.945073 226.367432 -26.730495
v -11.945073 226.367432 -26.730495
v -1.247193 238.905014 -47.756142
v -3.899829 239.522156 -48.664055
v 144.673340 187.485672 24.382435
v 131.898605 52.003456 46.073200
v 187.933655 171.856461 -28.959053
v 144.673340 187.485672 24.382435
v 187.933655 171.856461 -28.959053
v 184.759369 178.898605 -29.827053
v 187.933655 171.856461 -28.959053
v 186.967865 174.121231 -29.854910
v 184.759369 178.898605 -29.827053
v 186.967865 174.121231 -29.854910
v 183.773285 180.601974 -32.227577
v 184.759369 178.898605 -29.827053
v 144.673340 187.485672 24.382435
v 184.759369 178.898605 -29.827053
v 181.742767 183.121246 -34.162796
v 183.773285 180.601974 -32.227577
v 181.742767 183.121246 -34.162796
v 184.759369 178.898605 -29.827053
v 144.673340 187.485672 24.382435
v 69.467598 230.312943 -64.240845
v -1.247193 238.905014 -47.756142
v 144.673340 187.485672 24.382435
v 181.742767 183.121246 -34.162796
v 69.467598 230.312943 -64.240845
v -1.247193 238.905014 -47.756142
v 69.467598 230.312943 -64.240845
v -3.899829 239.522156 -48.664055
v 131.898605 52.003456 46.073200
v -115.052490 163.648727 -53.488121
v 37.384815 -109.199463 -88.572632
v 37.638554 -109.252037 -88.785286
v 149.094177 -122.995865 -158.644470
v 37.384815 -109.199463 -88.572632
v -3.899829 239.522156 -48.664055
v 8.596230 211.527054 -141.365158
v -98.915100 184.339203 -70.740082
v 69.467598 230.312943 -64.240845
v 11.005845 212.612320 -141.561829
v -3.899829 239.522156 -48.664055
v -3.899829 239.522156 -48.664055
v 11.005845 212.612320 -141.561829
v 8.596230 211.527054 -141.365158
v 131.898605 52.003456 46.073200
v 216.709610 -13.625469 -112.878540
v 187.933655 171.856461 -28.959053
v 131.898605 52.003456 46.073200
v 181.267319 -47.296108 -83.095612
v 216.709610 -13.625469 -112.878540
v 187.933655 171.856461 -28.959053
v 216.720245 -13.623159 -112.897911
v 186.967865 174.121231 -29.854910
v 216.709610 -13.625469 -112.878540
v 216.720245 -13.623159 -112.897911
v 187.933655 171.856461 -28.959053
v 149.094177 -122.995865 -158.644470
v 216.720245 -13.623159 -112.897911
v 181.267319 -47.296108 -83.095612
v 181.267319 -47.296108 -83.095612
v 216.720245 -13.623159 -112.897911
v 216.709610 -13.625469 -112.878540
v 131.898605 52.003456 46.073200
v 37.384815 -109.199463 -88.572632
v 153.642899 -87.648643 -114.752419
v 131.898605 52.003456 46.073200
v 153.642899 -87.648643 -114.752419
v 181.267319 -47.296108 -83.095612
v 149.094177 -122.995865 -158.644470
v 153.642899 -87.648643 -114.752419
v 37.384815 -109.199463 -88.572632
v 149.094177 -122.995865 -158.644470
v 181.267319 -47.296108 -83.095612
v 153.642899 -87.648643 -114.752419
v -98.915100 184.339203 -70.740082
v 10.985318 205.619415 -154.019791
v -99.908264 182.866821 -72.076042
v 8.596230 211.527054 -141.365158
v 10.985318 205.619415 -154.019791
v -98.915100 184.339203 -70.740082
v 11.005845 212.612320 -141.561829
v 10.985318 205.619415 -154.019791
v 8.596230 211.527054 -141.365158
v 69.467598 230.312943 -64.240845
v 35.187290 211.754593 -134.944733
v 11.005845 212.612320 -141.561829
v 10.985318 205.619415 -154.019791
v 4.898361 197.984879 -155.206757
v -99.908264 182.866821 -72.076042
v 181.742767 183.121246 -34.162796
v 52.497196 208.274094 -132.539810
v 69.467598 230.312943 -64.240845
v 69.467598 230.312943 -64.240845
v 52.497196 208.274094 -132.539810
v 35.187290 211.754593 -134.944733
v 11.005845 212.612320 -141.561829
v 27.230045 203.070648 -156.866028
v 10.985318 205.619415 -154.019791
v 35.187290 211.754593 -134.944733
v 27.230045 203.070648 -156.866028
v 11.005845 212.612320 -141.561829
v 52.497196 208.274094 -132.539810
v 27.230045 203.070648 -156.866028
v 35.187290 211.754593 -134.944733
v 181.742767 183.121246 -34.162796
v 63.507721 199.918640 -135.221817
v 52.497196 208.274094 -132.539810
v 52.497196 208.274094 -132.539810
v 58.102951 193.319046 -147.555740
v 27.230045 203.070648 -156.866028
v 63.507721 199.918640 -135.221817
v 58.102951 193.319046 -147.555740
v 52.497196 208.274094 -132.539810
v 149.094177 -122.995865 -158.644470
v 168.106323 -54.638485 -173.487030
v 216.720245 -13.623159 -112.897911
v 10.985318 205.619415 -154.019791
v -31.746740 93.229340 -205.050049
v 4.898361 197.984879 -155.206757
v 4.898361 197.984879 -155.206757
v -31.746740 93.229340 -205.050049
v -99.908264 182.866821 -72.076042
v -115.052490 163.648727 -53.488121
v -99.908264 182.866821 -72.076042
v -31.731001 93.123405 -205.107727
v -31.746740 93.229340 -205.050049
v -31.731001 93.123405 -205.107727
v -99.908264 182.866821 -72.076042
v -115.052490 163.648727 -53.488121
v -31.731001 93.123405 -205.107727
v 37.384815 -109.199463 -88.572632
v 149.094177 -122.995865 -158.644470
v 154.914932 -53.699940 -186.085556
v 168.106323 -54.638485 -173.487030
v 26.899860 30.174681 -244.300110
v 16.828596 17.775663 -233.626617
v -31.731001 93.123405 -205.107727
v 37.638554 -109.252037 -88.785286
v 16.828596 17.775663 -233.626617
v 149.094177 -122.995865 -158.644470
v 37.638554 -109.252037 -88.785286
v 37.384815 -109.199463 -88.572632
v 16.828596 17.775663 -233.626617
v -31.731001 93.123405 -205.107727
v 16.828596 17.775663 -233.626617
v 37.384815 -109.199463 -88.572632
v 26.899860 30.174681 -244.300110
v 24.988123 16.427137 -235.242783
v 16.828596 17.775663 -233.626617
v 16.828596 17.775663 -233.626617
v 24.988123 16.427137 -235.242783
v 149.094177 -122.995865 -158.644470
v 26.899860 30.174681 -244.300110
v -31.731001 93.123405 -205.107727
v 49.186878 51.043995 -251.106201
v 26.899860 30.174681 -244.300110
v 49.186878 51.043995 -251.106201
v 54.505714 32.353596 -246.757004
v 149.094177 -122.995865 -158.644470
v 102.416161 -13.973158 -227.801880
v 154.914932 -53.699940 -186.085556
v 100.302010 -16.672709 -227.371307
v 102.416161 -13.973158 -227.801880
v 149.094177 -122.995865 -158.644470
v 49.186878 51.043995 -251.106201
v 102.416161 -13.973158 -227.801880
v 54.505714 32.353596 -246.757004
v 54.505714 32.353596 -246.757004
v 102.416161 -13.973158 -227.801880
v 100.302010 -16.672709 -227.371307
v 24.988123 16.427137 -235.242783
v 87.958038 -16.031181 -227.705322
v 149.094177 -122.995865 -158.644470
v 100.302010 -16.672709 -227.371307
v 149.094177 -122.995865 -158.644470
v 87.958038 -16.031181 -227.705322
v 26.899860 30.174681 -244.300110
v 87.958038 -16.031181 -227.705322
v 24.988123 16.427137 -235.242783
v 26.899860 30.174681 -244.300110
v 54.505714 32.353596 -246.757004
v 87.958038 -16.031181 -227.705322
v 54.505714 32.353596 -246.757004
v 100.302010 -16.672709 -227.371307
v 87.958038 -16.031181 -227.705322
v 58.102951 193.319046 -147.555740
v 56.475479 92.521973 -236.375946
v 27.230045 203.070648 -156.866028
v -31.746740 93.229340 -205.050049
v 56.475479 92.521973 -236.375946
v -31.731001 93.123405 -205.107727
v -31.731001 93.123405 -205.107727
v 56.475479 92.521973 -236.375946
v 49.186878 51.043995 -251.106201
v 27.230045 203.070648 -156.866028
v 56.475479 92.521973 -236.375946
v 10.985318 205.619415 -154.019791
v 10.985318 205.619415 -154.019791
v 56.475479 92.521973 -236.375946
v -31.746740 93.229340 -205.050049
v 49.186878 51.043995 -251.106201
v 101.351768 -3.266381 -229.287872
v 102.416161 -13.973158 -227.801880
v 101.351768 -3.266381 -229.287872
v 103.169441 -3.951866 -228.134293
v 102.416161 -13.973158 -227.801880
v 56.475479 92.521973 -236.375946
v 69.812706 71.823807 -242.364731
v 49.186878 51.043995 -251.106201
v 49.186878 51.043995 -251.106201
v 69.812706 71.823807 -242.364731
v 101.351768 -3.266381 -229.287872
v 186.967865 174.121231 -29.854910
v 155.627869 100.910789 -169.909195
v 183.773285 180.601974 -32.227577
v 216.720245 -13.623159 -112.897911
v 155.627869 100.910789 -169.909195
v 186.967865 174.121231 -29.854910
v 183.773285 180.601974 -32.227577
v 155.627869 100.910789 -169.909195
v 181.742767 183.121246 -34.162796
v 181.742767 183.121246 -34.162796
v 155.627869 100.910789 -169.909195
v 63.507721 199.918640 -135.221817
v 63.507721 199.918640 -135.221817
v 155.627869 100.910789 -169.909195
v 58.102951 193.319046 -147.555740
v 58.102951 193.319046 -147.555740
v 155.627869 100.910789 -169.909195
v 56.475479 92.521973 -236.375946
v 56.475479 92.521973 -236.375946
v 155.627869 100.910789 -169.909195
v 69.812706 71.823807 -242.364731
v 102.416161 -13.973158 -227.801880
v 131.464035 5.295393 -210.901947
v 154.914932 -53.699940 -186.085556
v 103.169441 -3.951866 -228.134293
v 131.464035 5.295393 -210.901947
v 102.416161 -13.973158 -227.801880
v 101.351768 -3.266381 -229.287872
v 131.464035 5.295393 -210.901947
v 103.169441 -3.951866 -228.134293
v 69.812706 71.823807 -242.364731
v 131.464035 5.295393 -210.901947
v 101.351768 -3.266381 -229.287872
v 154.914932 -53.699940 -186.085556
v 131.464035 5.295393 -210.901947
v 168.106323 -54.638485 -173.487030
v 155.627869 100.910789 -169.909195
v 131.464035 5.295393 -210.901947
v 69.812706 71.823807 -242.364731
v 168.106323 -54.638485 -173.487030
v 153.079865 59.092319 -181.293121
v 216.720245 -13.623159 -112.897911
v 131.464035 5.295393 -210.901947
v 153.079865 59.092319 -181.293121
v 168.106323 -54.638485 -173.487030
v 216.720245 -13.623159 -112.897911
v 153.079865 59.092319 -181.293121
v 155.627869 100.910789 -169.909195
v 155.627869 100.910789 -169.909195
v 153.079865 59.092319 -181.293121
v 131.464035 5.295393 -210.901947
vn -0.265429 0.176769 0.947787
vn -0.320902 0.127144 0.938539
vn -0.550775 0.744380 0.377552
vn -0.806929 0.588624 -0.048853
vn -0.530044 0.798769 0.284644
vn 0.039082 0.849363 0.526360
vn 0.020772 0.854022 0.519822
vn 0.780192 0.026494 0.624978
vn 0.764296 0.406241 0.500820
vn 0.904914 0.417854 0.080803
vn 0.905009 0.418804 -0.074582
vn 0.587550 0.744721 0.316505
vn 0.661144 0.712773 0.234187
vn 0.183174 0.937024 0.297376
vn 0.348236 0.925078 0.151532
vn 0.161369 0.968980 0.187182
vn -0.487162 -0.373669 0.789331
vn 0.115885 -0.923170 0.366508
vn -0.421296 0.850919 -0.313762
vn 0.063710 0.961248 -0.268224
vn -0.411087 0.855856 -0.313877
vn 0.862389 -0.091483 0.497912
vn 0.770639 -0.327772 0.546518
vn 0.915836 0.274690 -0.292899
vn 0.877803 -0.077677 0.472682
vn 0.770285 -0.583696 0.256829
vn 0.784248 -0.497077 0.371308
vn 0.277564 -0.706499 0.651013
vn 0.284088 -0.704605 0.650250
vn 0.273361 -0.762820 0.585986
vn 0.440127 -0.721085 0.535093
vn -0.489316 0.743561 -0.455728
vn -0.482438 0.755259 -0.443663
vn -0.397188 0.800560 -0.448716
vn 0.116932 0.945213 -0.304793
vn -0.567001 0.547718 -0.615236
vn 0.442672 0.815376 -0.373099
vn 0.231173 0.907652 -0.350323
vn 0.050973 0.870845 -0.488907
vn 0.143930 0.901030 -0.409181
vn 0.235035 0.871438 -0.430529
vn 0.476776 0.766437 -0.430416
vn 0.398719 0.719898 -0.568129
vn 0.408040 0.718501 -0.563258
vn 0.832706 -0.328401 -0.445817
vn -0.501222 0.508477 -0.700163
vn -0.579487 0.506503 -0.638474
vn -0.836094 0.147911 -0.528270
vn -0.825606 0.170235 -0.537955
vn -0.856122 -0.444389 -0.263770
vn 0.639932 -0.328790 -0.694539
vn -0.642632 -0.128256 -0.755364
vn -0.436291 -0.706643 -0.557051
vn -0.557052 -0.662409 -0.500907
vn -0.852601 -0.447082 -0.270534
vn -0.247413 -0.508832 -0.824546
vn -0.249777 -0.627498 -0.737467
vn -0.423110 0.161060 -0.891649
vn -0.066831 -0.244138 -0.967435
vn 0.392491 -0.366948 -0.843386
vn 0.334759 -0.398370 -0.853954
vn 0.226221 -0.159238 -0.960972
vn 0.131573 -0.255798 -0.957735
vn -0.227662 -0.616668 -0.753585
vn -0.005614 -0.544666 -0.838634
vn -0.171031 -0.525362 -0.833513
vn -0.050361 -0.395862 -0.916928
vn 0.006375 -0.362548 -0.931943
vn 0.398801 0.602644 -0.691215
vn -0.300469 0.421271 -0.855716
vn -0.308713 0.366023 -0.877908
vn -0.053177 0.573757 -0.817297
vn -0.289214 0.484755 -0.825450
vn 0.290494 -0.103152 -0.951301
vn 0.516462 -0.067138 -0.853674
vn 0.075717 0.321855 -0.943756
vn 0.388077 0.002499 -0.921623
vn 0.883085 0.304653 -0.356859
vn 0.886937 0.297017 -0.353729
vn 0.839918 0.377314 -0.390092
vn 0.532644 0.674632 -0.511040
vn 0.493455 0.658290 -0.568469
vn 0.410187 0.599211 -0.687527
vn 0.451160 0.503843 -0.736612
vn 0.558723 -0.122920 -0.820195
vn 0.535101 -0.068153 -0.842035
vn 0.527255 -0.030897 -0.849145
vn 0.506925 0.063206 -0.859670
vn 0.689209 -0.030553 -0.723918
vn 0.596982 0.183918 -0.780889
vn 0.759921 0.055954 -0.647603
vn 0.756082 0.055134 -0.652150
vn 0.786151 0.117285 -0.606804
vn 0.623042 0.169884 -0.763517
f 1//1 2//1 3//1
f 4//2 5//2 6//2
f 7//3 8//3 9//3
f 10//4 11//4 12//4
f 13//5 14//5 15//5
f 16//6 17//6 18//6
f 19//7 20//7 21//7
f 22//8 23//8 24//8
f 25//9 26//9 27//9
f 28//10 29//10 30//10
f 31//11 32//11 33//11
f 34//12 35//12 36//12
f 37//13 38//13 39//13
f 40//14 41//14 42//14
f 43//15 44//15 45//15
f 46//16 47//16 48//16
f 49//17 50//17 51//17
f 52//18 53//18 54//18
f 55//19 56//19 57//19
f 58//20 59//20 60//20
f 61//21 62//21 63//21
f 64//22 65//22 66//22
f 67//23 68//23 69//23
f 70//24 71//24 72//24
f 73//25 74//25 75//25
f 76//26 77//26 78//26
f 79//27 80//27 81//27
f 82//28 83//28 84//28
f 85//29 86//29 87//29
f 88//30 89//30 90//30
f 91//31 92//31 93//31
f 94//32 95//32 96//32
f 97//33 98//33 99//33
f 100//34 101//34 102//34
f 103//35 104//35 105//35
f 106//36 107//36 108//36
f 109//37 110//37 111//37
f 112//38 113//38 114//38
f 115//39 116//39 117//39
f 118//40 119//40 120//40
f 121//41 122//41 123//41
f 124//42 125//42 126//42
f 127//43 128//43 129//43
f 130//44 131//44 132//44
f 133//45 134//45 135//45
f 136//46 137//46 138//46
f 139//47 140//47 141//47
f 142//48 143//48 144//48
f 145//49 146//49 147//49
f 148//50 149//50 150//50
f 151//51 152//51 153//51
f 154//52 155//52 156//52
f 157//53 158//53 159//53
f 160//54 161//54 162//54
f 163//55 164//55 165//55
f 166//56 167//56 168//56
f 169//57 170//57 171//57
f 172//58 173//58 174//58
f 175//59 176//59 177//59
f 178//60 179//60 180//60
f 181//61 182//61 183//61
f 184//62 185//62 186//62
f 187//63 188//63 189//63
f 190//64 191//64 192//64
f 193//65 194//65 195//65
f 196//66 197//66 198//66
f 199//67 200//67 201//67
f 202//68 203//68 204//68
f 205//69 206//69 207//69
f 208//70 209//70 210//70
f 211//71 212//71 213//71
f 214//72 215//72 216//72
f 217//73 218//73 219//73
f 220//74 221//74 222//74
f 223//75 224//75 225//75
f 226//76 227//76 228//76
f 229//77 230//77 231//77
f 232//78 233//78 234//78
f 235//79 236//79 237//79
f 238//80 239//80 240//80
f 241//81 242//81 243//81
f 244//82 245//82 246//82
f 247//83 248//83 249//83
f 250//84 251//84 252//84
f 253//85 254//85 255//85
f 256//86 257//86 258//86
f 259//87 260//87 261//87
f 262//88 263//88 264//88
f 265//89 266//89 267//89
f 268//90 269//90 270//90
f 271//91 272//91 273//91
f 274//92 275//92 276//92
f 277//93 278//93 279//93
f 280//94 281//94 282//94
