o
v 176.182831 -39.495293 -119.881378
v 176.457581 -39.429127 -118.825546
v 180.533875 -42.191620 -117.004181
v 180.533875 -42.191620 -117.004181
v 176.457581 -39.429127 -118.825546
v 181.326828 -42.593315 -115.732239
v 176.182831 -39.495293 -119.881378
v 22.525620 47.084557 -129.519226
v 176.457581 -39.429127 -118.825546
v 176.182831 -39.495293 -119.881378
v 180.533875 -42.191620 -117.004181
v 0.905767 -170.572647 -172.043823
v 176.182831 -39.495293 -119.881378
v 0.905767 -170.572647 -172.043823
v 22.525620 47.084557 -129.519226
v 176.457581 -39.429127 -118.825546
v 103.001251 38.475025 49.886494
v 181.326828 -42.593315 -115.732239
v 146.451523 -13.576290 7.537051
v 181.326828 -42.593315 -115.732239
v 103.001251 38.475025 49.886494
v 22.525620 47.084557 -129.519226
v 103.001251 38.475025 49.886494
v 176.457581 -39.429127 -118.825546
v 0.905767 -170.572647 -172.043823
v -94.521011 -78.634689 -125.567688
v 22.525620 47.084557 -129.519226
v 22.525620 47.084557 -129.519226
v -94.521011 -78.634689 -125.567688
v -210.383270 -36.055763 -65.786621
v 0.905767 -170.572647 -172.043823
v -210.383270 -36.055763 -65.786621
v -94.521011 -78.634689 -125.567688
v 22.525620 47.084557 -129.519226
v -116.502640 32.491909 -23.846573
v -133.418030 81.806305 156.782242
v -210.383270 -36.055763 -65.786621
v -133.418030 81.806305 156.782242
v -116.502640 32.491909 -23.846573
v 22.525620 47.084557 -129.519226
v -210.383270 -36.055763 -65.786621
v -116.502640 32.491909 -23.846573
v 180.533875 -42.191620 -117.004181
v 181.326828 -42.593315 -115.732239
v 92.994614 -218.236603 -50.689198
v 180.533875 -42.191620 -117.004181
v 92.994614 -218.236603 -50.689198
v 0.905767 -170.572647 -172.043823
v 0.905767 -170.572647 -172.043823
v 92.994614 -218.236603 -50.689198
v 15.345525 -226.443939 -90.140472
v 22.525620 47.084557 -129.519226
v 18.416975 66.421288 99.043587
v 103.001251 38.475025 49.886494
v 22.525620 47.084557 -129.519226
v -133.418030 81.806305 156.782242
v 18.416975 66.421288 99.043587
v -133.418030 81.806305 156.782242
v -12.198351 23.303471 236.618179
v -11.016501 24.616434 235.995819
v 18.416975 66.421288 99.043587
v 35.033051 32.585190 203.250366
v 103.001251 38.475025 49.886494
v -133.418030 81.806305 156.782242
v 35.033051 32.585190 203.250366
v 18.416975 66.421288 99.043587
v -133.418030 81.806305 156.782242
v -11.016501 24.616434 235.995819
v 35.033051 32.585190 203.250366
v -133.418030 81.806305 156.782242
v -16.448610 16.868881 239.679840
v -12.198351 23.303471 236.618179
v -12.198351 23.303471 236.618179
v -16.448610 16.868881 239.679840
v -11.016501 24.616434 235.995819
v -11.016501 24.616434 235.995819
v -16.448610 16.868881 239.679840
v -10.846347 20.043587 237.412186
v -12.101512 17.764805 238.282410
v -10.846347 20.043587 237.412186
v -16.448610 16.868881 239.679840
v -210.383270 -36.055763 -65.786621
v -203.184540 -23.591400 70.464226
v -133.418030 81.806305 156.782242
v -170.065338 20.183517 166.965866
v -133.418030 81.806305 156.782242
v -203.184540 -23.591400 70.464226
v 0.905767 -170.572647 -172.043823
v -76.999527 -202.322861 -76.743790
v -210.383270 -36.055763 -65.786621
v 146.451523 -13.576290 7.537051
v 134.307892 -42.771408 160.353760
v 181.326828 -42.593315 -115.732239
v 146.451523 -13.576290 7.537051
v 103.001251 38.475025 49.886494
v 134.307892 -42.771408 160.353760
v 35.033051 32.585190 203.250366
v 134.307892 -42.771408 160.353760
v 103.001251 38.475025 49.886494
v -210.383270 -36.055763 -65.786621
v -188.302887 -165.182343 6.425949
v -203.184540 -23.591400 70.464226
v -76.999527 -202.322861 -76.743790
v -188.302887 -165.182343 6.425949
v -210.383270 -36.055763 -65.786621
v -11.016501 24.616434 235.995819
v 44.637955 -0.670679 211.095108
v 35.033051 32.585190 203.250366
v -11.016501 24.616434 235.995819
v -10.846347 20.043587 237.412186
v 44.637955 -0.670679 211.095108
v 35.033051 32.585190 203.250366
v 44.637955 -0.670679 211.095108
v 134.307892 -42.771408 160.353760
v 0.905767 -170.572647 -172.043823
v 15.345525 -226.443939 -90.140472
v -84.561317 -238.296051 -15.745397
v 0.905767 -170.572647 -172.043823
v -84.561317 -238.296051 -15.745397
v -76.999527 -202.322861 -76.743790
v 92.994614 -218.236603 -50.689198
v 4.751605 -251.198029 1.543630
v 15.345525 -226.443939 -90.140472
v -133.418030 81.806305 156.782242
v -75.521179 -12.085705 230.722351
v -16.448610 16.868881 239.679840
v -170.065338 20.183517 166.965866
v -75.521179 -12.085705 230.722351
v -133.418030 81.806305 156.782242
v 92.994614 -218.236603 -50.689198
v 10.811296 -249.976135 5.382242
v 4.751605 -251.198029 1.543630
v -76.999527 -202.322861 -76.743790
v -100.161140 -236.994629 0.688203
v -188.302887 -165.182343 6.425949
v -84.561317 -238.296051 -15.745397
v -100.161140 -236.994629 0.688203
v -76.999527 -202.322861 -76.743790
v 15.345525 -226.443939 -90.140472
v -63.749714 -244.601364 -3.742647
v -84.561317 -238.296051 -15.745397
v 4.751605 -251.198029 1.543630
v -63.749714 -244.601364 -3.742647
v 15.345525 -226.443939 -90.140472
v -100.161140 -236.994629 0.688203
v -90.917831 -251.594727 35.109554
v -188.302887 -165.182343 6.425949
v -84.561317 -238.296051 -15.745397
v -90.917831 -251.594727 35.109554
v -100.161140 -236.994629 0.688203
v 4.751605 -251.198029 1.543630
v -81.507576 -253.127106 34.284714
v -63.749714 -244.601364 -3.742647
v -63.749714 -244.601364 -3.742647
v -81.507576 -253.127106 34.284714
v -84.561317 -238.296051 -15.745397
v -84.561317 -238.296051 -15.745397
v -81.507576 -253.127106 34.284714
v -90.917831 -251.594727 35.109554
v 92.994614 -218.236603 -50.689198
v 20.694977 -248.070160 16.140495
v 10.811296 -249.976135 5.382242
v 181.326828 -42.593315 -115.732239
v 145.517776 -103.734863 96.940880
v 92.994614 -218.236603 -50.689198
v 134.307892 -42.771408 160.353760
v 145.517776 -103.734863 96.940880
v 181.326828 -42.593315 -115.732239
v -81.507576 -253.127106 34.284714
v -1.362857 -257.903198 52.222664
v -90.917831 -251.594727 35.109554
v 10.811296 -249.976135 5.382242
v -1.362857 -257.903198 52.222664
v 4.751605 -251.198029 1.543630
v 20.694977 -248.070160 16.140495
v -1.362857 -257.903198 52.222664
v 10.811296 -249.976135 5.382242
v 92.994614 -218.236603 -50.689198
v -1.362857 -257.903198 52.222664
v 20.694977 -248.070160 16.140495
v 4.751605 -251.198029 1.543630
v -1.362857 -257.903198 52.222664
v -81.507576 -253.127106 34.284714
v -90.917831 -251.594727 35.109554
v -102.969444 -238.977997 39.526634
v -188.302887 -165.182343 6.425949
v -16.448610 16.868881 239.679840
v -11.253610 -37.970539 236.864182
v -0.579364 -38.086880 235.769348
v -170.065338 20.183517 166.965866
v -93.504829 -59.624306 232.404419
v -75.521179 -12.085705 230.722351
v -75.521179 -12.085705 230.722351
v -76.387184 -65.834641 240.125900
v -16.448610 16.868881 239.679840
v -93.504829 -59.624306 232.404419
v -76.387184 -65.834641 240.125900
v -75.521179 -12.085705 230.722351
v -12.101512 17.764805 238.282410
v -16.448610 16.868881 239.679840
v 21.332275 -52.088043 231.553787
v -16.448610 16.868881 239.679840
v -0.579364 -38.086880 235.769348
v 21.332275 -52.088043 231.553787
v -12.101512 17.764805 238.282410
v 21.332275 -52.088043 231.553787
v -10.846347 20.043587 237.412186
v -10.846347 20.043587 237.412186
v 21.332275 -52.088043 231.553787
v 44.637955 -0.670679 211.095108
v 44.637955 -0.670679 211.095108
v 21.332275 -52.088043 231.553787
v 134.307892 -42.771408 160.353760
v -170.065338 20.183517 166.965866
v -203.184540 -23.591400 70.464226
v -155.865723 -86.661514 183.411560
v -170.065338 20.183517 166.965866
v -155.865723 -86.661514 183.411560
v -93.504829 -59.624306 232.404419
v -16.448610 16.868881 239.679840
v -67.126129 -64.925583 240.245270
v -11.253610 -37.970539 236.864182
v -76.387184 -65.834641 240.125900
v -67.126129 -64.925583 240.245270
v -16.448610 16.868881 239.679840
v -11.253610 -37.970539 236.864182
v -67.126129 -64.925583 240.245270
v -0.579364 -38.086880 235.769348
v -188.302887 -165.182343 6.425949
v -158.477417 -86.920685 174.723938
v -203.184540 -23.591400 70.464226
v -203.184540 -23.591400 70.464226
v -158.477417 -86.920685 174.723938
v -155.865723 -86.661514 183.411560
v -155.865723 -86.661514 183.411560
v -158.477417 -86.920685 174.723938
v -188.302887 -165.182343 6.425949
v 92.994614 -218.236603 -50.689198
v 38.457191 -234.008118 81.852661
v -1.362857 -257.903198 52.222664
v 145.517776 -103.734863 96.940880
v 105.521286 -179.140930 93.623947
v 92.994614 -218.236603 -50.689198
v 134.307892 -42.771408 160.353760
v 105.521286 -179.140930 93.623947
v 145.517776 -103.734863 96.940880
v 105.521286 -179.140930 93.623947
v 104.472061 -179.902435 94.464142
v 92.994614 -218.236603 -50.689198
v 134.307892 -42.771408 160.353760
v 104.472061 -179.902435 94.464142
v 105.521286 -179.140930 93.623947
v 92.994614 -218.236603 -50.689198
v 44.747215 -229.234680 86.973938
v 38.457191 -234.008118 81.852661
v 104.472061 -179.902435 94.464142
v 44.747215 -229.234680 86.973938
v 92.994614 -218.236603 -50.689198
v -0.579364 -38.086880 235.769348
v -54.806419 -69.974541 238.478836
v 21.332275 -52.088043 231.553787
v -67.126129 -64.925583 240.245270
v -54.806419 -69.974541 238.478836
v -0.579364 -38.086880 235.769348
v 104.472061 -179.902435 94.464142
v 48.639229 -225.070404 91.653404
v 44.747215 -229.234680 86.973938
v -93.504829 -59.624306 232.404419
v -110.036316 -83.936768 215.941437
v -76.387184 -65.834641 240.125900
v -155.865723 -86.661514 183.411560
v -110.036316 -83.936768 215.941437
v -93.504829 -59.624306 232.404419
v 38.457191 -234.008118 81.852661
v 34.959709 -225.570450 116.221710
v -1.362857 -257.903198 52.222664
v 44.747215 -229.234680 86.973938
v 34.959709 -225.570450 116.221710
v 38.457191 -234.008118 81.852661
v 48.639229 -225.070404 91.653404
v 34.959709 -225.570450 116.221710
v 44.747215 -229.234680 86.973938
v 104.472061 -179.902435 94.464142
v 54.079403 -211.877869 115.191917
v 48.639229 -225.070404 91.653404
v -110.036316 -83.936768 215.941437
v -79.689857 -95.444077 228.651886
v -76.387184 -65.834641 240.125900
v -155.865723 -86.661514 183.411560
v -79.689857 -95.444077 228.651886
v -110.036316 -83.936768 215.941437
v 48.639229 -225.070404 91.653404
v 50.865913 -210.032562 126.147392
v 34.959709 -225.570450 116.221710
v 54.079403 -211.877869 115.191917
v 50.865913 -210.032562 126.147392
v 48.639229 -225.070404 91.653404
v 134.307892 -42.771408 160.353760
v 50.865913 -210.032562 126.147392
v 104.472061 -179.902435 94.464142
v 104.472061 -179.902435 94.464142
v 50.865913 -210.032562 126.147392
v 54.079403 -211.877869 115.191917
v -76.387184 -65.834641 240.125900
v -47.133518 -99.108192 230.726074
v -67.126129 -64.925583 240.245270
v -67.126129 -64.925583 240.245270
v -47.133518 -99.108192 230.726074
v -54.806419 -69.974541 238.478836
v -54.806419 -69.974541 238.478836
v -47.133518 -99.108192 230.726074
v 21.332275 -52.088043 231.553787
v -79.689857 -95.444077 228.651886
v -47.133518 -99.108192 230.726074
v -76.387184 -65.834641 240.125900
v -79.689857 -95.444077 228.651886
v -47.179626 -103.637688 228.799515
v -47.133518 -99.108192 230.726074
v -102.969444 -238.977997 39.526634
v -141.197784 -170.307892 114.624161
v -188.302887 -165.182343 6.425949
v -155.865723 -86.661514 183.411560
v -188.302887 -165.182343 6.425949
v -141.197784 -170.307892 114.624161
v -90.917831 -251.594727 35.109554
v -141.197784 -170.307892 114.624161
v -102.969444 -238.977997 39.526634
v -79.689857 -95.444077 228.651886
v -62.194756 -114.024017 219.683777
v -47.179626 -103.637688 228.799515
v -79.689857 -95.444077 228.651886
v -71.290977 -118.797195 214.244980
v -62.194756 -114.024017 219.683777
v -1.362857 -257.903198 52.222664
v -82.960693 -190.025574 153.017273
v -90.917831 -251.594727 35.109554
v 34.959709 -225.570450 116.221710
v -82.960693 -190.025574 153.017273
v -1.362857 -257.903198 52.222664
v -90.917831 -251.594727 35.109554
v -82.960693 -190.025574 153.017273
v -141.197784 -170.307892 114.624161
v -155.865723 -86.661514 183.411560
v -87.464630 -181.525894 161.772156
v -79.689857 -95.444077 228.651886
v -155.865723 -86.661514 183.411560
v -141.197784 -170.307892 114.624161
v -87.464630 -181.525894 161.772156
v -82.960693 -190.025574 153.017273
v -87.464630 -181.525894 161.772156
v -141.197784 -170.307892 114.624161
v -79.689857 -95.444077 228.651886
v -87.464630 -181.525894 161.772156
v -71.290977 -118.797195 214.244980
v -47.133518 -99.108192 230.726074
v -13.695131 -149.001602 205.319275
v 21.332275 -52.088043 231.553787
v -47.179626 -103.637688 228.799515
v -13.695131 -149.001602 205.319275
v -47.133518 -99.108192 230.726074
v -62.194756 -114.024017 219.683777
v -13.695131 -149.001602 205.319275
v -47.179626 -103.637688 228.799515
v 50.865913 -210.032562 126.147392
v -17.185047 -163.801590 195.012360
v 34.959709 -225.570450 116.221710
v -13.695131 -149.001602 205.319275
v -17.185047 -163.801590 195.012360
v 50.865913 -210.032562 126.147392
v -62.194756 -114.024017 219.683777
v -17.185047 -163.801590 195.012360
v -13.695131 -149.001602 205.319275
v 21.332275 -52.088043 231.553787
v 36.889221 -132.630707 186.624512
v 134.307892 -42.771408 160.353760
v -13.695131 -149.001602 205.319275
v 36.889221 -132.630707 186.624512
v 21.332275 -52.088043 231.553787
v 134.307892 -42.771408 160.353760
v 36.889221 -132.630707 186.624512
v 50.865913 -210.032562 126.147392
v -13.695131 -149.001602 205.319275
v 50.865913 -210.032562 126.147392
v 36.889221 -132.630707 186.624512
v -71.290977 -118.797195 214.244980
v -30.628822 -166.798889 189.843872
v -62.194756 -114.024017 219.683777
v -62.194756 -114.024017 219.683777
v -30.628822 -166.798889 189.843872
v -17.185047 -163.801590 195.012360
v -87.464630 -181.525894 161.772156
v -30.628822 -166.798889 189.843872
v -71.290977 -118.797195 214.244980
v 34.959709 -225.570450 116.221710
v -30.628822 -166.798889 189.843872
v -82.960693 -190.025574 153.017273
v -17.185047 -163.801590 195.012360
v -30.628822 -166.798889 189.843872
v 34.959709 -225.570450 116.221710
v -82.960693 -190.025574 153.017273
v -30.628822 -166.798889 189.843872
v -87.464630 -181.525894 161.772156
vn 0.610516 0.764534 -0.206780
vn 0.592637 0.796806 -0.117821
vn 0.491371 0.851882 -0.181250
vn 0.432581 -0.231708 -0.871312
vn 0.159036 0.174069 -0.971806
vn 0.590494 0.799239 -0.111957
vn 0.797931 0.596684 0.085294
vn 0.491435 0.852206 -0.179545
vn -0.257240 0.209846 -0.943288
vn -0.349267 0.297242 -0.888628
vn -0.470483 -0.042789 -0.881371
vn -0.306356 0.910631 -0.277305
vn -0.485101 0.830981 -0.272299
vn -0.404904 0.811881 -0.420597
vn 0.635617 -0.528164 -0.563057
vn 0.568078 -0.522113 -0.636149
vn 0.366303 -0.737350 -0.567572
vn 0.272576 0.959109 -0.076242
vn 0.069225 0.994154 -0.082862
vn -0.233784 0.580246 0.780166
vn 0.418658 0.881246 0.219386
vn 0.199426 0.940909 0.273715
vn 0.145127 0.894960 0.421883
vn -0.258545 0.548975 0.794846
vn -0.006774 0.433291 0.901229
vn 0.209221 0.296414 0.931861
vn 0.257797 0.217506 0.941399
vn -0.831222 0.555897 -0.006937
vn -0.853768 0.517377 0.058320
vn -0.612808 -0.448744 -0.650458
vn 0.892029 0.425585 0.152192
vn 0.820059 0.546574 0.169587
vn 0.656539 0.684332 0.317248
vn -0.989008 -0.133087 0.064429
vn -0.624902 -0.459730 -0.630988
vn 0.507194 0.333906 0.794519
vn 0.493751 0.273999 0.825309
vn 0.579249 0.341857 0.740003
vn -0.280563 -0.815224 -0.506650
vn -0.298049 -0.805594 -0.512039
vn 0.217555 -0.948341 -0.230908
vn -0.342328 0.441892 0.829182
vn -0.421467 0.386238 0.820479
vn 0.276471 -0.951705 -0.133497
vn -0.575295 -0.668448 -0.471395
vn -0.554931 -0.684647 -0.472557
vn -0.112607 -0.946623 -0.302032
vn -0.071866 -0.960814 -0.267717
vn -0.630129 -0.761140 -0.153632
vn -0.366927 -0.887736 -0.278008
vn -0.073600 -0.965243 -0.250777
vn -0.130350 -0.952720 -0.274470
vn -0.177753 -0.946396 -0.269702
vn 0.295976 -0.949551 -0.103689
vn 0.896653 -0.442090 0.023878
vn 0.985784 0.006631 0.167889
vn -0.125979 -0.941646 0.312140
vn 0.255131 -0.962078 -0.096508
vn 0.280866 -0.955637 -0.088729
vn 0.346326 -0.937098 -0.043659
vn -0.028915 -0.990487 -0.134536
vn -0.681666 -0.711237 0.171678
vn 0.101498 -0.041419 0.993973
vn -0.493922 0.216644 0.842085
vn -0.229269 0.171328 0.958166
vn -0.354552 0.166680 0.920060
vn 0.296312 0.049950 0.953784
vn 0.177278 -0.018826 0.983981
vn 0.418571 0.113546 0.901058
vn 0.465747 0.136766 0.874285
vn 0.524745 0.098584 0.845532
vn -0.933380 -0.069861 0.352025
vn -0.627090 0.036425 0.778094
vn 0.081211 -0.043432 0.995750
vn -0.014443 0.015860 0.999770
vn 0.100756 -0.084502 0.991316
vn -0.937818 -0.220006 0.268505
vn -0.938862 -0.188852 0.287877
vn -0.922162 -0.261494 0.285023
vn 0.464620 -0.881294 0.086311
vn 0.881357 -0.469717 0.050747
vn 0.739238 -0.415418 0.530052
vn 0.654319 -0.742323 0.144305
vn 0.733027 -0.417504 0.536993
vn 0.535699 -0.835697 0.120984
vn 0.617544 -0.771147 0.154826
vn 0.116631 -0.114511 0.986552
vn 0.103992 -0.092704 0.990248
vn 0.613987 -0.769810 0.174392
vn -0.472234 -0.251060 0.844964
vn -0.564479 -0.163982 0.808996
vn 0.349612 -0.901019 0.256779
vn 0.443429 -0.858972 0.256004
vn 0.526805 -0.803595 0.276967
vn 0.594302 -0.752317 0.284294
vn -0.458517 -0.276181 0.844681
vn -0.487703 -0.482563 0.727516
vn 0.564863 -0.769164 0.298858
vn 0.571793 -0.764921 0.296561
vn 0.627548 -0.443881 0.639651
vn 0.596038 -0.744700 0.300267
vn 0.013187 -0.261084 0.965226
vn 0.037249 -0.247809 0.968093
vn 0.139530 -0.220164 0.965432
vn -0.098737 -0.349971 0.931543
vn -0.102068 -0.388479 0.915787
vn -0.687550 -0.675129 0.267349
vn -0.835509 -0.428933 0.343427
vn -0.620960 -0.709670 0.332832
vn -0.138119 -0.532982 0.834777
vn -0.185692 -0.563420 0.805032
vn -0.150401 -0.872140 0.465565
vn -0.105329 -0.862257 0.495397
vn -0.527392 -0.738003 0.420963
vn -0.481936 -0.510017 0.712475
vn -0.607561 -0.565340 0.557907
vn -0.531848 -0.727790 0.432967
vn -0.274267 -0.574429 0.771239
vn 0.212939 -0.326272 0.920980
vn 0.112682 -0.389881 0.913945
vn -0.137599 -0.533513 0.834524
vn 0.235697 -0.682950 0.691394
vn 0.340069 -0.590108 0.732206
vn -0.145763 -0.542006 0.827637
vn 0.521786 -0.336503 0.783904
vn 0.425920 -0.376630 0.822643
vn 0.583740 -0.431829 0.687584
vn 0.438125 -0.502994 0.745012
vn -0.184378 -0.565004 0.804223
vn -0.183452 -0.564693 0.804653
vn -0.230122 -0.588808 0.774822
vn -0.058343 -0.804887 0.590553
vn -0.050142 -0.801842 0.595429
vn -0.130771 -0.744105 0.655139
f 1//1 2//1 3//1
f 4//2 5//2 6//2
f 7//3 8//3 9//3
f 10//4 11//4 12//4
f 13//5 14//5 15//5
f 16//6 17//6 18//6
f 19//7 20//7 21//7
f 22//8 23//8 24//8
f 25//9 26//9 27//9
f 28//10 29//10 30//10
f 31//11 32//11 33//11
f 34//12 35//12 36//12
f 37//13 38//13 39//13
f 40//14 41//14 42//14
f 43//15 44//15 45//15
f 46//16 47//16 48//16
f 49//17 50//17 51//17
f 52//18 53//18 54//18
f 55//19 56//19 57//19
f 58//20 59//20 60//20
f 61//21 62//21 63//21
f 64//22 65//22 66//22
f 67//23 68//23 69//23
f 70//24 71//24 72//24
f 73//25 74//25 75//25
f 76//26 77//26 78//26
f 79//27 80//27 81//27
f 82//28 83//28 84//28
f 85//29 86//29 87//29
f 88//30 89//30 90//30
f 91//31 92//31 93//31
f 94//32 95//32 96//32
f 97//33 98//33 99//33
f 100//34 101//34 102//34
f 103//35 104//35 105//35
f 106//36 107//36 108//36
f 109//37 110//37 111//37
f 112//38 113//38 114//38
f 115//39 116//39 117//39
f 118//40 119//40 120//40
f 121//41 122//41 123//41
f 124//42 125//42 126//42
f 127//43 128//43 129//43
f 130//44 131//44 132//44
f 133//45 134//45 135//45
f 136//46 137//46 138//46
f 139//47 140//47 141//47
f 142//48 143//48 144//48
f 145//49 146//49 147//49
f 148//50 149//50 150//50
f 151//51 152//51 153//51
f 154//52 155//52 156//52
f 157//53 158//53 159//53
f 160//54 161//54 162//54
f 163//55 164//55 165//55
f 166//56 167//56 168//56
f 169//57 170//57 171//57
f 172//58 173//58 174//58
f 175//59 176//59 177//59
f 178//60 179//60 180//60
f 181//61 182//61 183//61
f 184//62 185//62 186//62
f 187//63 188//63 189//63
f 190//64 191//64 192//64
f 193//65 194//65 195//65
f 196//66 197//66 198//66
f 199//67 200//67 201//67
f 202//68 203//68 204//68
f 205//69 206//69 207//69
f 208//70 209//70 210//70
f 211//71 212//71 213//71
f 214//72 215//72 216//72
f 217//73 218//73 219//73
f 220//74 221//74 222//74
f 223//75 224//75 225//75
f 226//76 227//76 228//76
f 229//77 230//77 231//77
f 232//78 233//78 234//78
f 235//79 236//79 237//79
f 238//80 239//80 240//80
f 241//81 242//81 243//81
f 244//82 245//82 246//82
f 247//83 248//83 249//83
f 250//84 251//84 252//84
f 253//85 254//85 255//85
f 256//86 257//86 258//86
f 259//87 260//87 261//87
f 262//88 263//88 264//88
f 265//89 266//89 267//89
f 268//90 269//90 270//90
f 271//91 272//91 273//91
f 274//92 275//92 276//92
f 277//93 278//93 279//93
f 280//94 281//94 282//94
f 283//95 284//95 285//95
f 286//96 287//96 288//96
f 289//97 290//97 291//97
f 292//98 293//98 294//98
f 295//99 296//99 297//99
f 298//100 299//100 300//100
f 301//101 302//101 303//101
f 304//102 305//102 306//102
f 307//103 308//103 309//103
f 310//104 311//104 312//104
f 313//105 314//105 315//105
f 316//106 317//106 318//106
f 319//107 320//107 321//107
f 322//108 323//108 324//108
f 325//109 326//109 327//109
f 328//110 329//110 330//110
f 331//111 332//111 333//111
f 334//112 335//112 336//112
f 337//113 338//113 339//113
f 340//114 341//114 342//114
f 343//115 344//115 345//115
f 346//116 347//116 348//116
f 349//117 350//117 351//117
f 352//118 353//118 354//118
f 355//119 356//119 357//119
f 358//120 359//120 360//120
f 361//121 362//121 363//121
f 364//122 365//122 366//122
f 367//123 368//123 369//123
f 370//124 371//124 372//124
f 373//125 374//125 375//125
f 376//126 377//126 378//126
f 379//127 380//127 381//127
f 382//128 383//128 384//128
f 385//129 386//129 387//129
f 388//130 389//130 390//130
f 391//131 392//131 393//131
f 394//132 395//132 396//132
f 397//133 398//133 399//133
f 400//134 401//134 402//134
