o
v -71.963455 -244.158005 46.888920
v -1.991742 -168.966339 154.369659
v -10.945042 -129.123032 176.661148
v -89.911301 -42.355442 -37.719692
v -14.450159 -122.118607 -109.544357
v -71.963455 -244.158005 46.888920
v 29.478016 -248.881134 50.380547
v -71.963455 -244.158005 46.888920
v 29.726048 -221.775513 -49.000977
v -89.911301 -42.355442 -37.719692
v -71.963455 -244.158005 46.888920
v -44.406872 -15.257854 89.276398
v -14.450159 -122.118607 -109.544357
v 7.247504 -164.142700 -91.801369
v -71.963455 -244.158005 46.888920
v -71.963455 -244.158005 46.888920
v 7.247504 -164.142700 -91.801369
v 29.726048 -221.775513 -49.000977
v -71.963455 -244.158005 46.888920
v -10.945042 -129.123032 176.661148
v -30.173523 -22.613554 124.497971
v -71.963455 -244.158005 46.888920
v -30.173523 -22.613554 124.497971
v -44.406872 -15.257854 89.276398
v 54.905037 -20.690424 199.548660
v -30.173523 -22.613554 124.497971
v -10.945042 -129.123032 176.661148
v 54.905037 -20.690424 199.548660
v -10.945042 -129.123032 176.661148
v 112.171494 -29.256935 189.225235
v 54.905037 -20.690424 199.548660
v 112.171494 -29.256935 189.225235
v 112.390259 -29.196438 189.156586
v -14.450159 -122.118607 -109.544357
v 55.746250 -154.915878 -121.216415
v 7.247504 -164.142700 -91.801369
v 7.247504 -164.142700 -91.801369
v 55.746250 -154.915878 -121.216415
v 29.726048 -221.775513 -49.000977
v -71.963455 -244.158005 46.888920
v 46.560101 -202.830261 127.629623
v -1.991742 -168.966339 154.369659
v 29.478016 -248.881134 50.380547
v 46.560101 -202.830261 127.629623
v -71.963455 -244.158005 46.888920
v -1.991742 -168.966339 154.369659
v 46.560101 -202.830261 127.629623
v -10.945042 -129.123032 176.661148
v -10.945042 -129.123032 176.661148
v 46.560101 -202.830261 127.629623
v 112.171494 -29.256935 189.225235
v 112.171494 -29.256935 189.225235
v 46.560101 -202.830261 127.629623
v 112.390259 -29.196438 189.156586
v 54.905037 -20.690424 199.548660
v 112.390259 -29.196438 189.156586
v 46.264629 19.363510 166.978531
v -30.173523 -22.613554 124.497971
v 12.214216 17.235516 142.726990
v -44.406872 -15.257854 89.276398
v 54.905037 -20.690424 199.548660
v 12.214216 17.235516 142.726990
v -30.173523 -22.613554 124.497971
v 54.905037 -20.690424 199.548660
v 46.264629 19.363510 166.978531
v 12.214216 17.235516 142.726990
v -89.911301 -42.355442 -37.719692
v 9.679843 28.489645 -53.077034
v -14.450159 -122.118607 -109.544357
v 112.390259 -29.196438 189.156586
v 57.739830 33.466232 137.571213
v 46.264629 19.363510 166.978531
v 46.264629 19.363510 166.978531
v 57.739830 33.466232 137.571213
v 12.214216 17.235516 142.726990
v 112.390259 -29.196438 189.156586
v 129.176712 -40.824665 157.376099
v 128.884155 -40.158379 158.039520
v 112.390259 -29.196438 189.156586
v 128.884155 -40.158379 158.039520
v 125.204430 -33.710167 157.480301
v 29.478016 -248.881134 50.380547
v 29.726048 -221.775513 -49.000977
v 104.109711 -188.253693 -49.559769
v 55.746250 -154.915878 -121.216415
v 104.109711 -188.253693 -49.559769
v 29.726048 -221.775513 -49.000977
v 29.478016 -248.881134 50.380547
v 104.109711 -188.253693 -49.559769
v 46.560101 -202.830261 127.629623
v -89.911301 -42.355442 -37.719692
v -44.406872 -15.257854 89.276398
v -2.322493 31.675125 56.531891
v -89.911301 -42.355442 -37.719692
v -2.322493 31.675125 56.531891
v 9.679843 28.489645 -53.077034
v 12.214216 17.235516 142.726990
v -2.322493 31.675125 56.531891
v -44.406872 -15.257854 89.276398
v -2.322493 31.675125 56.531891
v 61.129246 53.239159 78.849854
v 9.679843 28.489645 -53.077034
v 57.739830 33.466232 137.571213
v 61.129246 53.239159 78.849854
v 12.214216 17.235516 142.726990
v 12.214216 17.235516 142.726990
v 61.129246 53.239159 78.849854
v -2.322493 31.675125 56.531891
v -14.450159 -122.118607 -109.544357
v 82.705467 -51.983902 -108.962944
v 55.746250 -154.915878 -121.216415
v 9.679843 28.489645 -53.077034
v 82.705467 -51.983902 -108.962944
v -14.450159 -122.118607 -109.544357
v 128.884155 -40.158379 158.039520
v 109.394989 22.976057 99.922974
v 125.204430 -33.710167 157.480301
v 112.390259 -29.196438 189.156586
v 109.394989 22.976057 99.922974
v 57.739830 33.466232 137.571213
v 57.739830 33.466232 137.571213
v 109.394989 22.976057 99.922974
v 61.129246 53.239159 78.849854
v 112.390259 -29.196438 189.156586
v 125.204430 -33.710167 157.480301
v 109.394989 22.976057 99.922974
v 55.746250 -154.915878 -121.216415
v 131.448944 -136.516846 -51.745766
v 104.109711 -188.253693 -49.559769
v 82.705467 -51.983902 -108.962944
v 98.662338 -111.751221 -89.830177
v 55.746250 -154.915878 -121.216415
v 55.746250 -154.915878 -121.216415
v 115.468613 -121.714714 -72.867897
v 131.448944 -136.516846 -51.745766
v 98.662338 -111.751221 -89.830177
v 115.468613 -121.714714 -72.867897
v 55.746250 -154.915878 -121.216415
v 82.705467 -51.983902 -108.962944
v 115.468613 -121.714714 -72.867897
v 98.662338 -111.751221 -89.830177
v 46.560101 -202.830261 127.629623
v 131.584641 -95.528862 115.332642
v 112.390259 -29.196438 189.156586
v 112.390259 -29.196438 189.156586
v 131.584641 -95.528862 115.332642
v 129.176712 -40.824665 157.376099
v 129.564545 -42.032528 154.981354
v 129.176712 -40.824665 157.376099
v 131.584641 -95.528862 115.332642
v 82.705467 -51.983902 -108.962944
v 112.352097 -66.062813 -72.038055
v 115.468613 -121.714714 -72.867897
v 104.109711 -188.253693 -49.559769
v 118.691711 -154.644241 -6.910935
v 46.560101 -202.830261 127.629623
v 46.560101 -202.830261 127.629623
v 118.691711 -154.644241 -6.910935
v 131.584641 -95.528862 115.332642
v 131.448944 -136.516846 -51.745766
v 118.691711 -154.644241 -6.910935
v 104.109711 -188.253693 -49.559769
v 115.468613 -121.714714 -72.867897
v 128.123581 -70.849197 -50.836048
v 131.448944 -136.516846 -51.745766
v 112.352097 -66.062813 -72.038055
v 128.123581 -70.849197 -50.836048
v 115.468613 -121.714714 -72.867897
v 82.705467 -51.983902 -108.962944
v 128.123581 -70.849197 -50.836048
v 112.352097 -66.062813 -72.038055
v 118.691711 -154.644241 -6.910935
v 144.685120 -96.050919 20.068243
v 131.584641 -95.528862 115.332642
v 131.448944 -136.516846 -51.745766
v 144.685120 -96.050919 20.068243
v 118.691711 -154.644241 -6.910935
v 129.564545 -42.032528 154.981354
v 131.584641 -95.528862 115.332642
v 144.685120 -96.050919 20.068243
v 82.705467 -51.983902 -108.962944
v 126.376259 -43.175674 -36.129299
v 128.123581 -70.849197 -50.836048
v 129.195847 -17.999289 -7.619156
v 126.376259 -43.175674 -36.129299
v 82.705467 -51.983902 -108.962944
v 129.195847 -17.999289 -7.619156
v 128.123581 -70.849197 -50.836048
v 126.376259 -43.175674 -36.129299
v 129.176712 -40.824665 157.376099
v 137.213196 -29.878265 13.374766
v 128.884155 -40.158379 158.039520
v 128.884155 -40.158379 158.039520
v 137.213196 -29.878265 13.374766
v 109.394989 22.976057 99.922974
v 109.394989 22.976057 99.922974
v 137.213196 -29.878265 13.374766
v 129.195847 -17.999289 -7.619156
v 129.564545 -42.032528 154.981354
v 137.213196 -29.878265 13.374766
v 129.176712 -40.824665 157.376099
v 129.564545 -42.032528 154.981354
v 144.685120 -96.050919 20.068243
v 137.213196 -29.878265 13.374766
v 144.685120 -96.050919 20.068243
v 137.328522 -31.856056 11.408716
v 137.213196 -29.878265 13.374766
v 129.195847 -17.999289 -7.619156
v 137.328522 -31.856056 11.408716
v 128.123581 -70.849197 -50.836048
v 137.213196 -29.878265 13.374766
v 137.328522 -31.856056 11.408716
v 129.195847 -17.999289 -7.619156
v 109.394989 22.976057 99.922974
v 120.937119 -10.804992 -7.744853
v 61.129246 53.239159 78.849854
v 109.394989 22.976057 99.922974
v 129.195847 -17.999289 -7.619156
v 120.937119 -10.804992 -7.744853
v 61.129246 53.239159 78.849854
v 120.937119 -10.804992 -7.744853
v 9.679843 28.489645 -53.077034
v 129.195847 -17.999289 -7.619156
v 82.705467 -51.983902 -108.962944
v 120.937119 -10.804992 -7.744853
v 128.123581 -70.849197 -50.836048
v 139.437668 -71.811722 -8.037420
v 131.448944 -136.516846 -51.745766
v 131.448944 -136.516846 -51.745766
v 139.437668 -71.811722 -8.037420
v 144.685120 -96.050919 20.068243
v 144.685120 -96.050919 20.068243
v 139.437668 -71.811722 -8.037420
v 137.328522 -31.856056 11.408716
v 137.328522 -31.856056 11.408716
v 139.437668 -71.811722 -8.037420
v 128.123581 -70.849197 -50.836048
v 9.679843 28.489645 -53.077034
v 106.506775 -13.081776 -27.816769
v 82.705467 -51.983902 -108.962944
v 120.937119 -10.804992 -7.744853
v 106.506775 -13.081776 -27.816769
v 9.679843 28.489645 -53.077034
v 82.705467 -51.983902 -108.962944
v 106.506775 -13.081776 -27.816769
v 120.937119 -10.804992 -7.744853
vn -0.519872 -0.503082 0.690392
vn -0.802624 -0.289937 -0.521278
vn -0.035835 -0.964118 -0.263046
vn -0.943608 0.053085 0.326781
vn -0.548603 -0.549358 -0.630270
vn -0.448576 -0.639005 -0.624862
vn -0.915040 0.031740 0.402113
vn -0.923430 0.040500 0.381624
vn -0.645419 0.238813 0.725536
vn 0.129678 -0.279555 0.951332
vn 0.211834 0.292239 0.932589
vn -0.369882 -0.516921 -0.771998
vn -0.304833 -0.641607 -0.703859
vn -0.172531 -0.750817 0.637579
vn -0.057581 -0.851877 0.520567
vn 0.166753 -0.452617 0.875974
vn 0.236859 -0.403210 0.883923
vn 0.376715 -0.433001 0.818899
vn 0.227350 0.643432 0.730963
vn -0.712414 0.571504 0.407246
vn -0.625306 0.344918 0.700017
vn -0.533670 0.461263 0.708825
vn -0.397384 0.377296 -0.836501
vn 0.387127 0.763348 0.517138
vn -0.285457 0.902831 0.321576
vn 0.859720 -0.117450 0.497078
vn 0.827619 0.495203 0.264237
vn 0.397299 -0.885601 -0.240550
vn 0.333102 -0.748695 -0.573148
vn 0.763728 -0.614586 0.197493
vn -0.704064 0.702724 0.102333
vn -0.586365 0.805296 -0.087611
vn -0.638922 0.733866 0.230693
vn -0.301971 0.951382 -0.060716
vn -0.292073 0.911363 0.290020
vn -0.381177 0.899175 0.214917
vn -0.097112 0.142693 -0.984991
vn -0.265739 0.375481 -0.887917
vn 0.828684 0.495475 0.260359
vn 0.471700 0.768008 0.433200
vn 0.402731 0.860179 0.312889
vn 0.826323 0.497840 0.263337
vn 0.673445 -0.382593 -0.632530
vn 0.637002 -0.075514 -0.767155
vn 0.687501 -0.237185 -0.686357
vn 0.665999 -0.127776 -0.734928
vn 0.696939 -0.043083 -0.715835
vn 0.665984 -0.460460 0.586891
vn 0.753539 -0.379434 0.536851
vn 0.967033 -0.127051 0.220694
vn 0.788482 0.053292 -0.612745
vn 0.777241 -0.595400 0.203460
vn 0.778442 -0.593355 0.204837
vn 0.883460 -0.464154 0.063714
vn 0.812801 0.049201 -0.580460
vn 0.806982 0.053961 -0.588106
vn 0.796255 0.302166 -0.524093
vn 0.884582 -0.449568 0.124109
vn 0.897103 -0.434602 0.079544
vn 0.988618 -0.063688 0.136301
vn 0.793652 0.323819 -0.515032
vn 0.726871 0.477533 -0.493580
vn 0.939703 0.204864 -0.273843
vn 0.939065 0.334806 0.077858
vn 0.929675 0.359791 0.079093
vn 0.857729 0.512738 -0.037435
vn 0.981381 0.179475 0.068412
vn 0.990930 0.118333 0.063680
vn 0.993013 0.107119 -0.049510
vn 0.945171 0.195027 -0.261949
vn 0.941379 0.263852 -0.210207
vn 0.579139 0.793519 -0.186884
vn 0.649429 0.742661 -0.163392
vn 0.430084 0.841996 -0.325684
vn 0.578516 0.655632 -0.485248
vn 0.965750 0.052425 -0.254123
vn 0.983268 0.001650 -0.182158
vn 0.990086 0.100181 -0.098454
vn 0.953471 0.171132 -0.248207
vn 0.448707 0.747416 -0.489929
vn 0.448115 0.793300 -0.412150
vn 0.570133 0.663045 -0.485097
f 1//1 2//1 3//1
f 4//2 5//2 6//2
f 7//3 8//3 9//3
f 10//4 11//4 12//4
f 13//5 14//5 15//5
f 16//6 17//6 18//6
f 19//7 20//7 21//7
f 22//8 23//8 24//8
f 25//9 26//9 27//9
f 28//10 29//10 30//10
f 31//11 32//11 33//11
f 34//12 35//12 36//12
f 37//13 38//13 39//13
f 40//14 41//14 42//14
f 43//15 44//15 45//15
f 46//16 47//16 48//16
f 49//17 50//17 51//17
f 52//18 53//18 54//18
f 55//19 56//19 57//19
f 58//20 59//20 60//20
f 61//21 62//21 63//21
f 64//22 65//22 66//22
f 67//23 68//23 69//23
f 70//24 71//24 72//24
f 73//25 74//25 75//25
f 76//26 77//26 78//26
f 79//27 80//27 81//27
f 82//28 83//28 84//28
f 85//29 86//29 87//29
f 88//30 89//30 90//30
f 91//31 92//31 93//31
f 94//32 95//32 96//32
f 97//33 98//33 99//33
f 100//34 101//34 102//34
f 103//35 104//35 105//35
f 106//36 107//36 108//36
f 109//37 110//37 111//37
f 112//38 113//38 114//38
f 115//39 116//39 117//39
f 118//40 119//40 120//40
f 121//41 122//41 123//41
f 124//42 125//42 126//42
f 127//43 128//43 129//43
f 130//44 131//44 132//44
f 133//45 134//45 135//45
f 136//46 137//46 138//46
f 139//47 140//47 141//47
f 142//48 143//48 144//48
f 145//49 146//49 147//49
f 148//50 149//50 150//50
f 151//51 152//51 153//51
f 154//52 155//52 156//52
f 157//53 158//53 159//53
f 160//54 161//54 162//54
f 163//55 164//55 165//55
f 166//56 167//56 168//56
f 169//57 170//57 171//57
f 172//58 173//58 174//58
f 175//59 176//59 177//59
f 178//60 179//60 180//60
f 181//61 182//61 183//61
f 184//62 185//62 186//62
f 187//63 188//63 189//63
f 190//64 191//64 192//64
f 193//65 194//65 195//65
f 196//66 197//66 198//66
f 199//67 200//67 201//67
f 202//68 203//68 204//68
f 205//69 206//69 207//69
f 208//70 209//70 210//70
f 211//71 212//71 213//71
f 214//72 215//72 216//72
f 217//73 218//73 219//73
f 220//74 221//74 222//74
f 223//75 224//75 225//75
f 226//76 227//76 228//76
f 229//77 230//77 231//77
f 232//78 233//78 234//78
f 235//79 236//79 237//79
f 238//80 239//80 240//80
f 241//81 242//81 243//81
f 244//82 245//82 246//82
