o
v -14.422470 22.029928 29.967636
v 8.332389 -48.931049 -6.155037
v -6.682615 1.009607 6.701148
v 8.332389 -48.931049 -6.155037
v -6.801351 1.403550 6.648182
v -6.682615 1.009607 6.701148
v -14.422470 22.029928 29.967636
v -6.682615 1.009607 6.701148
v -6.801351 1.403550 6.648182
v 8.332389 -48.931049 -6.155037
v -26.183136 11.803308 -30.397427
v -6.801351 1.403550 6.648182
v -28.849382 12.723179 -31.635302
v -28.114130 13.186049 -30.909868
v -26.183136 11.803308 -30.397427
v -28.849382 12.723179 -31.635302
v -27.463484 13.724617 -30.167572
v -28.114130 13.186049 -30.909868
v -28.114130 13.186049 -30.909868
v -27.463484 13.724617 -30.167572
v -26.183136 11.803308 -30.397427
v 8.332389 -48.931049 -6.155037
v -24.280682 -28.014271 -25.707840
v -26.183136 11.803308 -30.397427
v -28.849382 12.723179 -31.635302
v -26.183136 11.803308 -30.397427
v -24.280682 -28.014271 -25.707840
v 8.332389 -48.931049 -6.155037
v -24.364948 -28.095575 -25.671089
v -24.280682 -28.014271 -25.707840
v -14.422470 22.029928 29.967636
v -6.801351 1.403550 6.648182
v -27.001455 13.559886 -29.670033
v -14.422470 22.029928 29.967636
v -27.001455 13.559886 -29.670033
v -27.463484 13.724617 -30.167572
v -26.183136 11.803308 -30.397427
v -27.001455 13.559886 -29.670033
v -6.801351 1.403550 6.648182
v -27.463484 13.724617 -30.167572
v -27.001455 13.559886 -29.670033
v -26.183136 11.803308 -30.397427
v -28.849382 12.723179 -31.635302
v -28.948652 13.647923 -30.404055
v -27.463484 13.724617 -30.167572
v -14.422470 22.029928 29.967636
v -26.550259 -33.501270 16.184191
v 8.332389 -48.931049 -6.155037
v -14.422470 22.029928 29.967636
v -15.850298 22.329165 30.217678
v -26.550259 -33.501270 16.184191
v 8.332389 -48.931049 -6.155037
v -26.550259 -33.501270 16.184191
v -31.070759 -39.088318 -12.892543
v 8.332389 -48.931049 -6.155037
v -32.795135 -36.821770 -16.252693
v -24.364948 -28.095575 -25.671089
v 8.332389 -48.931049 -6.155037
v -31.070759 -39.088318 -12.892543
v -32.795135 -36.821770 -16.252693
v -28.849382 12.723179 -31.635302
v -24.280682 -28.014271 -25.707840
v -33.771484 -2.883612 -30.871189
v -24.364948 -28.095575 -25.671089
v -33.771484 -2.883612 -30.871189
v -24.280682 -28.014271 -25.707840
v -32.795135 -36.821770 -16.252693
v -33.771484 -2.883612 -30.871189
v -24.364948 -28.095575 -25.671089
v -28.948652 13.647923 -30.404055
v -34.015968 19.584122 -17.376825
v -27.463484 13.724617 -30.167572
v -14.422470 22.029928 29.967636
v -27.463484 13.724617 -30.167572
v -30.929602 19.437021 -15.044098
v -34.015968 19.584122 -17.376825
v -33.848301 19.928169 -16.186325
v -27.463484 13.724617 -30.167572
v -27.463484 13.724617 -30.167572
v -33.848301 19.928169 -16.186325
v -30.929602 19.437021 -15.044098
v -34.015968 19.584122 -17.376825
v -37.711475 26.268290 9.702545
v -33.848301 19.928169 -16.186325
v -15.850298 22.329165 30.217678
v -37.711475 26.268290 9.702545
v -15.900701 22.325640 30.205652
v -14.422470 22.029928 29.967636
v -37.711475 26.268290 9.702545
v -15.850298 22.329165 30.217678
v -14.422470 22.029928 29.967636
v -30.929602 19.437021 -15.044098
v -37.711475 26.268290 9.702545
v -33.848301 19.928169 -16.186325
v -37.711475 26.268290 9.702545
v -30.929602 19.437021 -15.044098
v -32.795135 -36.821770 -16.252693
v -37.907536 -23.623695 -18.771254
v -33.771484 -2.883612 -30.871189
v -37.907536 -23.623695 -18.771254
v -39.146446 -3.945429 -24.174980
v -33.771484 -2.883612 -30.871189
v -15.850298 22.329165 30.217678
v -43.548187 -1.719321 23.090914
v -26.550259 -33.501270 16.184191
v -15.850298 22.329165 30.217678
v -15.900701 22.325640 30.205652
v -43.548187 -1.719321 23.090914
v -37.711475 26.268290 9.702545
v -43.999443 -1.335758 22.569355
v -15.900701 22.325640 30.205652
v -15.900701 22.325640 30.205652
v -43.999443 -1.335758 22.569355
v -43.548187 -1.719321 23.090914
v -28.849382 12.723179 -31.635302
v -33.771484 -2.883612 -30.871189
v -43.730152 9.968400 -15.605226
v -28.849382 12.723179 -31.635302
v -47.486767 16.657175 -7.811052
v -28.948652 13.647923 -30.404055
v -28.948652 13.647923 -30.404055
v -47.486767 16.657175 -7.811052
v -34.015968 19.584122 -17.376825
v -28.849382 12.723179 -31.635302
v -43.730152 9.968400 -15.605226
v -47.486767 16.657175 -7.811052
v -34.015968 19.584122 -17.376825
v -47.486767 16.657175 -7.811052
v -37.711475 26.268290 9.702545
v -26.550259 -33.501270 16.184191
v -40.029392 -24.942368 8.747200
v -31.070759 -39.088318 -12.892543
v -43.548187 -1.719321 23.090914
v -48.455441 -9.973695 17.988739
v -26.550259 -33.501270 16.184191
v -43.999443 -1.335758 22.569355
v -48.498257 -9.918630 17.960560
v -43.548187 -1.719321 23.090914
v -43.548187 -1.719321 23.090914
v -48.498257 -9.918630 17.960560
v -48.455441 -9.973695 17.988739
v -48.455441 -9.973695 17.988739
v -48.747253 -11.841710 15.512406
v -26.550259 -33.501270 16.184191
v -48.498257 -9.918630 17.960560
v -50.083721 -11.240889 14.361667
v -48.455441 -9.973695 17.988739
v -48.455441 -9.973695 17.988739
v -50.083721 -11.240889 14.361667
v -48.747253 -11.841710 15.512406
v -26.550259 -33.501270 16.184191
v -46.363640 -17.285059 11.959175
v -40.029392 -24.942368 8.747200
v -48.747253 -11.841710 15.512406
v -46.363640 -17.285059 11.959175
v -26.550259 -33.501270 16.184191
v -40.029392 -24.942368 8.747200
v -46.363640 -17.285059 11.959175
v -31.070759 -39.088318 -12.892543
v -50.083721 -11.240889 14.361667
v -46.363640 -17.285059 11.959175
v -48.747253 -11.841710 15.512406
v -37.711475 26.268290 9.702545
v -51.359348 7.435608 9.359000
v -43.999443 -1.335758 22.569355
v -47.486767 16.657175 -7.811052
v -51.359348 7.435608 9.359000
v -37.711475 26.268290 9.702545
v -43.999443 -1.335758 22.569355
v -51.359348 7.435608 9.359000
v -48.498257 -9.918630 17.960560
v -48.498257 -9.918630 17.960560
v -52.226025 -8.975821 11.982044
v -50.083721 -11.240889 14.361667
v -51.359348 7.435608 9.359000
v -52.226025 -8.975821 11.982044
v -48.498257 -9.918630 17.960560
v -50.083721 -11.240889 14.361667
v -49.964909 -13.011571 10.533994
v -46.363640 -17.285059 11.959175
v -31.070759 -39.088318 -12.892543
v -50.390320 -13.043329 9.052696
v -32.795135 -36.821770 -16.252693
v -46.363640 -17.285059 11.959175
v -50.390320 -13.043329 9.052696
v -31.070759 -39.088318 -12.892543
v -49.964909 -13.011571 10.533994
v -50.390320 -13.043329 9.052696
v -46.363640 -17.285059 11.959175
v -52.226025 -8.975821 11.982044
v -50.390320 -13.043329 9.052696
v -50.083721 -11.240889 14.361667
v -50.083721 -11.240889 14.361667
v -50.390320 -13.043329 9.052696
v -49.964909 -13.011571 10.533994
v -39.146446 -3.945429 -24.174980
v -52.115173 -4.922487 -8.208845
v -33.771484 -2.883612 -30.871189
v -33.771484 -2.883612 -30.871189
v -52.115173 -4.922487 -8.208845
v -43.730152 9.968400 -15.605226
v -43.730152 9.968400 -15.605226
v -52.115173 -4.922487 -8.208845
v -47.486767 16.657175 -7.811052
v -37.907536 -23.623695 -18.771254
v -52.115173 -4.922487 -8.208845
v -39.146446 -3.945429 -24.174980
v -37.907536 -23.623695 -18.771254
v -52.474014 -5.456067 -7.076663
v -52.115173 -4.922487 -8.208845
v -32.795135 -36.821770 -16.252693
v -49.644291 -13.706066 -4.975100
v -37.907536 -23.623695 -18.771254
v -37.907536 -23.623695 -18.771254
v -49.644291 -13.706066 -4.975100
v -52.474014 -5.456067 -7.076663
v -50.390320 -13.043329 9.052696
v -49.644291 -13.706066 -4.975100
v -32.795135 -36.821770 -16.252693
v -52.226025 -8.975821 11.982044
v -49.644291 -13.706066 -4.975100
v -50.390320 -13.043329 9.052696
v -52.474014 -5.456067 -7.076663
v -49.644291 -13.706066 -4.975100
v -52.226025 -8.975821 11.982044
v -52.115173 -4.922487 -8.208845
v -52.959682 -0.279164 -2.982389
v -47.486767 16.657175 -7.811052
v -52.474014 -5.456067 -7.076663
v -52.959682 -0.279164 -2.982389
v -52.115173 -4.922487 -8.208845
v -47.486767 16.657175 -7.811052
v -53.509453 -0.430301 -0.754954
v -51.359348 7.435608 9.359000
v -52.959682 -0.279164 -2.982389
v -53.509453 -0.430301 -0.754954
v -47.486767 16.657175 -7.811052
v -51.359348 7.435608 9.359000
v -53.509453 -0.430301 -0.754954
v -52.226025 -8.975821 11.982044
v -52.474014 -5.456067 -7.076663
v -53.509453 -0.430301 -0.754954
v -52.959682 -0.279164 -2.982389
v -52.474014 -5.456067 -7.076663
v -52.226025 -8.975821 11.982044
v -53.498928 -0.499431 -0.714910
v -53.509453 -0.430301 -0.754954
v -53.498928 -0.499431 -0.714910
v -52.226025 -8.975821 11.982044
v -52.474014 -5.456067 -7.076663
v -53.498928 -0.499431 -0.714910
v -53.509453 -0.430301 -0.754954
vn 0.960107 0.269007 0.076353
vn 0.957522 0.288355 -0.001824
vn 0.954263 0.294523 0.051357
vn 0.866585 0.350823 -0.354900
vn 0.496636 0.410046 -0.764993
vn 0.365053 0.571702 -0.734774
vn 0.504350 0.425956 -0.751128
vn 0.473987 -0.080624 -0.876833
vn 0.394037 -0.088914 -0.914784
vn 0.154444 -0.535403 -0.830356
vn 0.784953 0.568491 -0.246305
vn 0.535826 0.812832 -0.228461
vn 0.817197 0.499660 -0.287278
vn 0.703061 0.525796 -0.478795
vn 0.053707 0.800512 -0.596905
vn 0.415015 -0.303526 0.857691
vn 0.112807 -0.262501 0.958315
vn -0.271882 -0.936330 0.222183
vn -0.039261 -0.715220 -0.697796
vn -0.125449 -0.851132 -0.509742
vn 0.218772 -0.116430 -0.968805
vn -0.165939 -0.258211 -0.951731
vn -0.511101 -0.352387 -0.783964
vn 0.017973 0.912451 -0.408791
vn 0.461750 0.859587 -0.218854
vn 0.239075 0.923330 -0.300508
vn 0.266924 0.920180 -0.286393
vn -0.145301 0.955762 -0.255746
vn -0.144616 0.931766 0.333014
vn 0.200712 0.979309 -0.025844
vn 0.317952 0.932681 -0.170330
vn 0.237349 0.951133 -0.197513
vn -0.520830 -0.350303 -0.778475
vn -0.743352 -0.220241 -0.631603
vn -0.045495 -0.235314 0.970854
vn -0.230512 -0.022797 0.972802
vn -0.566862 0.450592 0.689662
vn -0.533528 0.391651 0.749638
vn -0.734979 0.200078 -0.647900
vn -0.542769 0.649966 -0.531927
vn -0.513780 0.687541 -0.513145
vn -0.722290 0.312979 -0.616718
vn -0.383810 0.882958 -0.270324
vn -0.611268 -0.754173 0.239946
vn -0.312267 -0.358219 0.879869
vn -0.744172 0.031779 0.667232
vn -0.632576 -0.098754 0.768176
vn -0.602643 -0.601325 0.524624
vn -0.793139 -0.368597 0.484837
vn -0.672988 -0.550193 0.494342
vn -0.634617 -0.679441 0.368269
vn -0.604880 -0.603786 0.519194
vn -0.736937 -0.663595 0.128709
vn -0.662321 -0.590792 0.460756
vn -0.626121 0.442027 0.642327
vn -0.803953 0.580241 0.130306
vn -0.824017 0.136672 0.549833
vn -0.831974 -0.289920 0.473038
vn -0.832000 0.130133 0.539297
vn -0.780204 -0.576600 0.242517
vn -0.800494 -0.599305 0.006548
vn -0.755589 -0.646956 0.102633
vn -0.780425 -0.578780 0.236538
vn -0.815508 -0.532057 0.227734
vn -0.787637 -0.568157 0.238381
vn -0.771686 -0.075900 -0.631458
vn -0.776319 0.130872 -0.616605
vn -0.813925 0.184724 -0.550820
vn -0.750876 -0.218428 -0.623277
vn -0.817990 -0.375154 -0.436064
vn -0.820083 -0.396420 -0.412692
vn -0.820731 -0.388269 -0.419104
vn -0.811611 -0.583990 -0.015573
vn -0.919060 -0.392950 -0.030313
vn -0.940784 -0.335344 -0.049690
vn -0.921732 0.203776 -0.329977
vn -0.961238 0.109833 -0.252899
vn -0.947788 0.315831 -0.044142
vn -0.945319 0.243669 -0.216788
vn -0.985697 0.076088 0.150372
vn -0.968096 0.093154 -0.232622
vn -0.983873 -0.177742 -0.020023
vn -0.988412 -0.151775 -0.002233
vn -0.985575 -0.166763 -0.028852
f 1//1 2//1 3//1
f 4//2 5//2 6//2
f 7//3 8//3 9//3
f 10//4 11//4 12//4
f 13//5 14//5 15//5
f 16//6 17//6 18//6
f 19//7 20//7 21//7
f 22//8 23//8 24//8
f 25//9 26//9 27//9
f 28//10 29//10 30//10
f 31//11 32//11 33//11
f 34//12 35//12 36//12
f 37//13 38//13 39//13
f 40//14 41//14 42//14
f 43//15 44//15 45//15
f 46//16 47//16 48//16
f 49//17 50//17 51//17
f 52//18 53//18 54//18
f 55//19 56//19 57//19
f 58//20 59//20 60//20
f 61//21 62//21 63//21
f 64//22 65//22 66//22
f 67//23 68//23 69//23
f 70//24 71//24 72//24
f 73//25 74//25 75//25
f 76//26 77//26 78//26
f 79//27 80//27 81//27
f 82//28 83//28 84//28
f 85//29 86//29 87//29
f 88//30 89//30 90//30
f 91//31 92//31 93//31
f 94//32 95//32 96//32
f 97//33 98//33 99//33
f 100//34 101//34 102//34
f 103//35 104//35 105//35
f 106//36 107//36 108//36
f 109//37 110//37 111//37
f 112//38 113//38 114//38
f 115//39 116//39 117//39
f 118//40 119//40 120//40
f 121//41 122//41 123//41
f 124//42 125//42 126//42
f 127//43 128//43 129//43
f 130//44 131//44 132//44
f 133//45 134//45 135//45
f 136//46 137//46 138//46
f 139//47 140//47 141//47
f 142//48 143//48 144//48
f 145//49 146//49 147//49
f 148//50 149//50 150//50
f 151//51 152//51 153//51
f 154//52 155//52 156//52
f 157//53 158//53 159//53
f 160//54 161//54 162//54
f 163//55 164//55 165//55
f 166//56 167//56 168//56
f 169//57 170//57 171//57
f 172//58 173//58 174//58
f 175//59 176//59 177//59
f 178//60 179//60 180//60
f 181//61 182//61 183//61
f 184//62 185//62 186//62
f 187//63 188//63 189//63
f 190//64 191//64 192//64
f 193//65 194//65 195//65
f 196//66 197//66 198//66
f 199//67 200//67 201//67
f 202//68 203//68 204//68
f 205//69 206//69 207//69
f 208//70 209//70 210//70
f 211//71 212//71 213//71
f 214//72 215//72 216//72
f 217//73 218//73 219//73
f 220//74 221//74 222//74
f 223//75 224//75 225//75
f 226//76 227//76 228//76
f 229//77 230//77 231//77
f 232//78 233//78 234//78
f 235//79 236//79 237//79
f 238//80 239//80 240//80
f 241//81 242//81 243//81
f 244//82 245//82 246//82
f 247//83 248//83 249//83
f 250//84 251//84 252//84
