o
v -64.349678 133.251740 -163.170547
v -70.357201 132.868713 -163.967194
v -59.939877 219.391113 -84.263077
v -64.349678 133.251740 -163.170547
v -68.179855 131.139130 -162.649551
v -70.357201 132.868713 -163.967194
v -39.964043 179.680176 -50.786037
v -35.978226 179.033890 -56.041183
v -48.896412 190.654495 -51.252930
v -39.964043 179.680176 -50.786037
v -48.896412 190.654495 -51.252930
v -48.225994 188.723633 -50.330410
v -59.939877 219.391113 -84.263077
v -49.160145 191.310272 -51.919643
v -35.978226 179.033890 -56.041183
v -35.978226 179.033890 -56.041183
v -49.160145 191.310272 -51.919643
v -48.896412 190.654495 -51.252930
v -39.964043 179.680176 -50.786037
v -39.011730 177.112030 -52.165035
v -35.978226 179.033890 -56.041183
v -48.896412 190.654495 -51.252930
v -47.547482 182.828995 -47.610615
v -48.225994 188.723633 -50.330410
v -39.964043 179.680176 -50.786037
v -48.225994 188.723633 -50.330410
v -47.547482 182.828995 -47.610615
v -64.349678 133.251740 -163.170547
v -54.483673 117.685860 -144.589844
v -63.464790 91.665787 -131.415146
v -64.349678 133.251740 -163.170547
v -68.623962 98.740036 -140.022781
v -68.179855 131.139130 -162.649551
v -64.349678 133.251740 -163.170547
v -63.464790 91.665787 -131.415146
v -68.623962 98.740036 -140.022781
v -68.179855 131.139130 -162.649551
v -68.623962 98.740036 -140.022781
v -70.357201 132.868713 -163.967194
v -45.506088 95.414497 -114.737732
v -45.456341 99.439705 -119.407959
v -32.946350 100.772675 -98.755753
v -54.754375 93.172653 -123.862335
v -45.456341 99.439705 -119.407959
v -45.506088 95.414497 -114.737732
v -54.483673 117.685860 -144.589844
v -44.412498 106.851089 -126.231750
v -63.464790 91.665787 -131.415146
v -63.464790 91.665787 -131.415146
v -44.412498 106.851089 -126.231750
v -54.754375 93.172653 -123.862335
v -45.456341 99.439705 -119.407959
v -44.412498 106.851089 -126.231750
v -32.946350 100.772675 -98.755753
v -54.754375 93.172653 -123.862335
v -44.412498 106.851089 -126.231750
v -45.456341 99.439705 -119.407959
v -63.464790 91.665787 -131.415146
v -73.149956 89.385437 -132.335693
v -68.623962 98.740036 -140.022781
v -68.623962 98.740036 -140.022781
v -73.149956 89.385437 -132.335693
v -70.357201 132.868713 -163.967194
v -35.978226 179.033890 -56.041183
v -42.430988 96.853745 -83.754692
v -32.946350 100.772675 -98.755753
v -45.506088 95.414497 -114.737732
v -32.946350 100.772675 -98.755753
v -42.430988 96.853745 -83.754692
v -44.412498 106.851089 -126.231750
v -46.990234 118.007896 -133.968704
v -32.946350 100.772675 -98.755753
v -64.349678 133.251740 -163.170547
v -46.990234 118.007896 -133.968704
v -54.483673 117.685860 -144.589844
v -54.483673 117.685860 -144.589844
v -46.990234 118.007896 -133.968704
v -44.412498 106.851089 -126.231750
v -54.754375 93.172653 -123.862335
v -45.506088 95.414497 -114.737732
v -67.255966 88.826950 -123.448158
v -63.464790 91.665787 -131.415146
v -54.754375 93.172653 -123.862335
v -67.255966 88.826950 -123.448158
v -63.464790 91.665787 -131.415146
v -67.255966 88.826950 -123.448158
v -73.149956 89.385437 -132.335693
v -67.255966 88.826950 -123.448158
v -73.876053 87.736046 -125.527512
v -73.149956 89.385437 -132.335693
v -161.065140 140.941910 -104.221786
v -154.675079 138.127914 -112.592842
v -162.643814 136.268967 -94.950340
v -161.065140 140.941910 -104.221786
v -153.867340 141.306564 -114.428001
v -154.675079 138.127914 -112.592842
v -45.506088 95.414497 -114.737732
v -42.430988 96.853745 -83.754692
v -52.196369 92.877731 -86.910217
v -45.506088 95.414497 -114.737732
v -63.893654 89.085022 -111.972427
v -67.255966 88.826950 -123.448158
v -45.506088 95.414497 -114.737732
v -52.196369 92.877731 -86.910217
v -63.893654 89.085022 -111.972427
v -66.567223 88.157028 -89.261887
v -63.893654 89.085022 -111.972427
v -52.196369 92.877731 -86.910217
v -161.065140 140.941910 -104.221786
v -162.643814 136.268967 -94.950340
v -156.391434 153.102295 -90.336380
v -161.065140 140.941910 -104.221786
v -151.975204 150.485275 -112.073708
v -153.867340 141.306564 -114.428001
v -73.149956 89.385437 -132.335693
v -138.046860 144.738052 -133.447128
v -70.357201 132.868713 -163.967194
v -154.675079 138.127914 -112.592842
v -138.046860 144.738052 -133.447128
v -73.149956 89.385437 -132.335693
v -153.867340 141.306564 -114.428001
v -138.046860 144.738052 -133.447128
v -154.675079 138.127914 -112.592842
v -151.975204 150.485275 -112.073708
v -138.046860 144.738052 -133.447128
v -153.867340 141.306564 -114.428001
v -123.364967 134.160950 -38.568687
v -124.205078 134.923172 -39.008766
v -144.836395 114.523849 -71.652573
v -161.065140 140.941910 -104.221786
v -151.649185 155.609787 -108.319298
v -151.975204 150.485275 -112.073708
v -151.975204 150.485275 -112.073708
v -151.649185 155.609787 -108.319298
v -138.046860 144.738052 -133.447128
v -74.342484 126.843918 -35.570072
v -75.804733 125.857712 -35.588211
v -75.034637 125.601479 -35.705109
v -162.643814 136.268967 -94.950340
v -144.836395 114.523849 -71.652573
v -144.754211 119.066132 -69.663757
v -162.643814 136.268967 -94.950340
v -144.067780 114.628998 -75.420303
v -144.836395 114.523849 -71.652573
v -74.342484 126.843918 -35.570072
v -117.578682 132.695053 -37.288574
v -75.804733 125.857712 -35.588211
v -162.643814 136.268967 -94.950340
v -127.844124 135.875381 -42.744350
v -156.391434 153.102295 -90.336380
v -162.643814 136.268967 -94.950340
v -144.754211 119.066132 -69.663757
v -127.844124 135.875381 -42.744350
v -124.205078 134.923172 -39.008766
v -127.844124 135.875381 -42.744350
v -144.836395 114.523849 -71.652573
v -144.836395 114.523849 -71.652573
v -127.844124 135.875381 -42.744350
v -144.754211 119.066132 -69.663757
v -162.643814 136.268967 -94.950340
v -143.913193 114.644386 -76.137962
v -144.067780 114.628998 -75.420303
v -39.964043 179.680176 -50.786037
v -47.547482 182.828995 -47.610615
v -65.371941 132.143494 -39.294437
v -47.547482 182.828995 -47.610615
v -74.342484 126.843918 -35.570072
v -65.371941 132.143494 -39.294437
v -39.964043 179.680176 -50.786037
v -65.371941 132.143494 -39.294437
v -39.011730 177.112030 -52.165035
v -74.342484 126.843918 -35.570072
v -75.034637 125.601479 -35.705109
v -65.371941 132.143494 -39.294437
v -64.349678 133.251740 -163.170547
v -50.085976 145.295395 -132.707703
v -46.990234 118.007896 -133.968704
v -42.430988 96.853745 -83.754692
v -94.523872 82.857590 -84.020248
v -52.196369 92.877731 -86.910217
v -42.430988 96.853745 -83.754692
v -51.002178 96.386818 -79.648628
v -94.523872 82.857590 -84.020248
v -66.567223 88.157028 -89.261887
v -52.196369 92.877731 -86.910217
v -94.523872 82.857590 -84.020248
v -73.876053 87.736046 -125.527512
v -94.523872 82.857590 -84.020248
v -73.149956 89.385437 -132.335693
v -67.255966 88.826950 -123.448158
v -77.548843 85.617317 -99.104073
v -73.876053 87.736046 -125.527512
v -63.893654 89.085022 -111.972427
v -77.548843 85.617317 -99.104073
v -67.255966 88.826950 -123.448158
v -66.567223 88.157028 -89.261887
v -77.548843 85.617317 -99.104073
v -63.893654 89.085022 -111.972427
v -66.567223 88.157028 -89.261887
v -94.523872 82.857590 -84.020248
v -77.548843 85.617317 -99.104073
v -73.876053 87.736046 -125.527512
v -77.548843 85.617317 -99.104073
v -94.523872 82.857590 -84.020248
v -161.065140 140.941910 -104.221786
v -156.391434 153.102295 -90.336380
v -138.738770 183.866455 -88.543907
v -161.065140 140.941910 -104.221786
v -138.738770 183.866455 -88.543907
v -151.649185 155.609787 -108.319298
v -124.205078 134.923172 -39.008766
v -123.440285 144.147171 -42.124870
v -127.844124 135.875381 -42.744350
v -127.844124 135.875381 -42.744350
v -123.440285 144.147171 -42.124870
v -156.391434 153.102295 -90.336380
v -156.391434 153.102295 -90.336380
v -123.440285 144.147171 -42.124870
v -138.738770 183.866455 -88.543907
v -46.990234 118.007896 -133.968704
v -44.062199 137.173492 -121.306503
v -32.946350 100.772675 -98.755753
v -42.430988 96.853745 -83.754692
v -51.995014 126.312866 -54.451714
v -75.034637 125.601479 -35.705109
v -75.034637 125.601479 -35.705109
v -51.995014 126.312866 -54.451714
v -65.371941 132.143494 -39.294437
v -39.011730 177.112030 -52.165035
v -51.995014 126.312866 -54.451714
v -35.978226 179.033890 -56.041183
v -35.978226 179.033890 -56.041183
v -51.995014 126.312866 -54.451714
v -42.430988 96.853745 -83.754692
v -65.371941 132.143494 -39.294437
v -51.995014 126.312866 -54.451714
v -39.011730 177.112030 -52.165035
v -123.364967 134.160950 -38.568687
v -144.836395 114.523849 -71.652573
v -121.747208 100.164757 -65.243172
v -123.364967 134.160950 -38.568687
v -121.747208 100.164757 -65.243172
v -117.578682 132.695053 -37.288574
v -75.804733 125.857712 -35.588211
v -121.747208 100.164757 -65.243172
v -75.034637 125.601479 -35.705109
v -117.578682 132.695053 -37.288574
v -121.747208 100.164757 -65.243172
v -75.804733 125.857712 -35.588211
v -59.939877 219.391113 -84.263077
v -137.660614 183.804840 -90.849640
v -138.738770 183.866455 -88.543907
v -144.836395 114.523849 -71.652573
v -133.775269 106.997749 -72.552917
v -121.747208 100.164757 -65.243172
v -51.002178 96.386818 -79.648628
v -95.551514 86.748154 -76.298325
v -94.523872 82.857590 -84.020248
v -121.747208 100.164757 -65.243172
v -95.551514 86.748154 -76.298325
v -75.034637 125.601479 -35.705109
v -75.034637 125.601479 -35.705109
v -95.551514 86.748154 -76.298325
v -74.789635 118.684250 -42.996925
v -121.747208 100.164757 -65.243172
v -94.523872 82.857590 -84.020248
v -95.551514 86.748154 -76.298325
v -64.349678 133.251740 -163.170547
v -59.939877 219.391113 -84.263077
v -47.763939 171.632645 -116.163261
v -64.349678 133.251740 -163.170547
v -47.763939 171.632645 -116.163261
v -50.085976 145.295395 -132.707703
v -59.939877 219.391113 -84.263077
v -35.978226 179.033890 -56.041183
v -47.763939 171.632645 -116.163261
v -50.085976 145.295395 -132.707703
v -45.663639 146.108017 -122.752983
v -46.990234 118.007896 -133.968704
v -46.990234 118.007896 -133.968704
v -45.663639 146.108017 -122.752983
v -44.062199 137.173492 -121.306503
v -151.649185 155.609787 -108.319298
v -139.662369 174.954971 -106.390907
v -138.046860 144.738052 -133.447128
v -138.738770 183.866455 -88.543907
v -139.662369 174.954971 -106.390907
v -151.649185 155.609787 -108.319298
v -137.660614 183.804840 -90.849640
v -139.662369 174.954971 -106.390907
v -138.738770 183.866455 -88.543907
v -144.067780 114.628998 -75.420303
v -104.039436 87.599983 -82.666969
v -144.836395 114.523849 -71.652573
v -144.836395 114.523849 -71.652573
v -104.039436 87.599983 -82.666969
v -133.775269 106.997749 -72.552917
v -143.913193 114.644386 -76.137962
v -104.039436 87.599983 -82.666969
v -144.067780 114.628998 -75.420303
v -94.523872 82.857590 -84.020248
v -104.039436 87.599983 -82.666969
v -73.149956 89.385437 -132.335693
v -133.775269 106.997749 -72.552917
v -104.039436 87.599983 -82.666969
v -121.747208 100.164757 -65.243172
v -121.747208 100.164757 -65.243172
v -104.039436 87.599983 -82.666969
v -94.523872 82.857590 -84.020248
v -74.342484 126.843918 -35.570072
v -80.707817 147.515610 -36.911266
v -117.578682 132.695053 -37.288574
v -47.547482 182.828995 -47.610615
v -80.707817 147.515610 -36.911266
v -74.342484 126.843918 -35.570072
v -123.364967 134.160950 -38.568687
v -113.701233 151.370026 -39.840508
v -124.205078 134.923172 -39.008766
v -124.205078 134.923172 -39.008766
v -113.701233 151.370026 -39.840508
v -123.440285 144.147171 -42.124870
v -47.547482 182.828995 -47.610615
v -113.701233 151.370026 -39.840508
v -80.707817 147.515610 -36.911266
v -123.364967 134.160950 -38.568687
v -117.578682 132.695053 -37.288574
v -113.701233 151.370026 -39.840508
v -80.707817 147.515610 -36.911266
v -113.701233 151.370026 -39.840508
v -117.578682 132.695053 -37.288574
v -35.978226 179.033890 -56.041183
v -32.946350 100.772675 -98.755753
v -46.174206 158.959366 -118.453972
v -35.978226 179.033890 -56.041183
v -46.174206 158.959366 -118.453972
v -47.763939 171.632645 -116.163261
v -44.062199 137.173492 -121.306503
v -46.174206 158.959366 -118.453972
v -32.946350 100.772675 -98.755753
v -45.663639 146.108017 -122.752983
v -46.174206 158.959366 -118.453972
v -44.062199 137.173492 -121.306503
v -47.763939 171.632645 -116.163261
v -46.174206 158.959366 -118.453972
v -50.085976 145.295395 -132.707703
v -50.085976 145.295395 -132.707703
v -46.174206 158.959366 -118.453972
v -45.663639 146.108017 -122.752983
v -42.430988 96.853745 -83.754692
v -72.813881 99.819672 -63.016827
v -51.002178 96.386818 -79.648628
v -42.430988 96.853745 -83.754692
v -75.034637 125.601479 -35.705109
v -72.813881 99.819672 -63.016827
v -75.034637 125.601479 -35.705109
v -74.789635 118.684250 -42.996925
v -72.813881 99.819672 -63.016827
v -51.002178 96.386818 -79.648628
v -72.813881 99.819672 -63.016827
v -95.551514 86.748154 -76.298325
v -95.551514 86.748154 -76.298325
v -72.813881 99.819672 -63.016827
v -74.789635 118.684250 -42.996925
v -48.896412 190.654495 -51.252930
v -77.929077 173.337906 -45.867062
v -47.547482 182.828995 -47.610615
v -47.547482 182.828995 -47.610615
v -77.929077 173.337906 -45.867062
v -113.701233 151.370026 -39.840508
v -59.939877 219.391113 -84.263077
v -132.839127 181.209930 -102.658501
v -137.660614 183.804840 -90.849640
v -137.660614 183.804840 -90.849640
v -132.839127 181.209930 -102.658501
v -139.662369 174.954971 -106.390907
v -139.662369 174.954971 -106.390907
v -132.839127 181.209930 -102.658501
v -136.917068 176.911972 -105.966690
v -154.675079 138.127914 -112.592842
v -107.788368 91.227531 -84.932281
v -162.643814 136.268967 -94.950340
v -162.643814 136.268967 -94.950340
v -107.788368 91.227531 -84.932281
v -143.913193 114.644386 -76.137962
v -143.913193 114.644386 -76.137962
v -107.788368 91.227531 -84.932281
v -104.039436 87.599983 -82.666969
v -154.675079 138.127914 -112.592842
v -73.149956 89.385437 -132.335693
v -107.788368 91.227531 -84.932281
v -104.039436 87.599983 -82.666969
v -107.788368 91.227531 -84.932281
v -73.149956 89.385437 -132.335693
v -138.046860 144.738052 -133.447128
v -111.164299 152.411652 -139.872391
v -70.357201 132.868713 -163.967194
v -49.160145 191.310272 -51.919643
v -88.228004 190.765945 -61.405392
v -48.896412 190.654495 -51.252930
v -59.939877 219.391113 -84.263077
v -88.228004 190.765945 -61.405392
v -49.160145 191.310272 -51.919643
v -48.896412 190.654495 -51.252930
v -88.228004 190.765945 -61.405392
v -77.929077 173.337906 -45.867062
v -77.929077 173.337906 -45.867062
v -88.228004 190.765945 -61.405392
v -113.701233 151.370026 -39.840508
v -139.662369 174.954971 -106.390907
v -126.355865 170.248627 -120.751923
v -138.046860 144.738052 -133.447128
v -139.662369 174.954971 -106.390907
v -136.917068 176.911972 -105.966690
v -126.355865 170.248627 -120.751923
v -123.440285 144.147171 -42.124870
v -109.999962 186.879745 -65.423332
v -138.738770 183.866455 -88.543907
v -113.701233 151.370026 -39.840508
v -109.999962 186.879745 -65.423332
v -123.440285 144.147171 -42.124870
v -59.939877 219.391113 -84.263077
v -138.738770 183.866455 -88.543907
v -109.999962 186.879745 -65.423332
v -59.939877 219.391113 -84.263077
v -109.999962 186.879745 -65.423332
v -88.228004 190.765945 -61.405392
v -88.228004 190.765945 -61.405392
v -109.999962 186.879745 -65.423332
v -113.701233 151.370026 -39.840508
v -70.357201 132.868713 -163.967194
v -116.115517 163.127136 -130.447083
v -59.939877 219.391113 -84.263077
v -111.164299 152.411652 -139.872391
v -116.115517 163.127136 -130.447083
v -70.357201 132.868713 -163.967194
v -138.046860 144.738052 -133.447128
v -116.115517 163.127136 -130.447083
v -111.164299 152.411652 -139.872391
v -126.355865 170.248627 -120.751923
v -116.115517 163.127136 -130.447083
v -138.046860 144.738052 -133.447128
v -59.939877 219.391113 -84.263077
v -121.306534 174.814453 -118.490997
v -132.839127 181.209930 -102.658501
v -132.839127 181.209930 -102.658501
v -121.306534 174.814453 -118.490997
v -136.917068 176.911972 -105.966690
v -136.917068 176.911972 -105.966690
v -121.306534 174.814453 -118.490997
v -126.355865 170.248627 -120.751923
v -116.115517 163.127136 -130.447083
v -121.306534 174.814453 -118.490997
v -59.939877 219.391113 -84.263077
v -126.355865 170.248627 -120.751923
v -121.306534 174.814453 -118.490997
v -116.115517 163.127136 -130.447083
vn 0.054917 0.672926 -0.737669
vn 0.145355 -0.477258 -0.866658
vn 0.683976 0.575769 0.447959
vn 0.588360 0.505728 0.630929
vn 0.697085 0.639965 0.323292
vn 0.695161 0.630540 0.345211
vn 0.794530 -0.031006 0.606432
vn -0.064122 0.411999 0.908925
vn 0.491987 0.410798 0.767590
vn 0.489961 -0.522452 -0.697841
vn 0.201308 -0.562700 -0.801775
vn 0.455756 -0.534058 -0.712087
vn 0.040830 -0.572467 -0.818910
vn 0.753900 -0.501605 -0.424296
vn 0.635838 -0.587975 -0.499995
vn 0.583166 -0.518094 -0.625697
vn 0.598421 -0.552889 -0.579833
vn 0.755506 -0.498165 -0.425491
vn 0.634364 -0.570067 -0.522116
vn 0.226592 -0.681470 -0.695884
vn -0.180006 -0.571065 -0.800926
vn 0.848806 -0.227579 0.477217
vn 0.387721 -0.921766 0.004337
vn 0.915982 -0.063134 -0.396220
vn 0.808552 -0.162574 -0.565521
vn 0.802972 -0.203069 -0.560356
vn 0.323918 -0.941090 -0.097090
vn 0.317601 -0.930875 -0.180560
vn 0.243357 -0.944485 -0.220739
vn 0.222067 -0.952774 -0.207141
vn -0.750579 -0.529835 -0.394848
vn -0.808535 -0.126350 -0.574723
vn 0.375485 -0.926810 0.005786
vn 0.315092 -0.946399 -0.071037
vn 0.324362 -0.945897 -0.008245
vn 0.312386 -0.949953 -0.002042
vn -0.938577 0.344787 0.013964
vn -0.784391 0.300829 -0.542433
vn -0.425839 -0.514213 -0.744477
vn -0.512007 -0.612385 -0.602356
vn -0.738519 -0.186418 -0.647949
vn -0.758629 0.304170 -0.576163
vn -0.668811 -0.362364 0.649141
vn -0.800847 0.386250 -0.457662
vn -0.682370 0.459777 -0.568310
vn 0.095837 -0.160166 0.982427
vn -0.858102 -0.192841 0.475892
vn -0.674441 -0.721287 -0.157715
vn -0.035136 0.033725 0.998813
vn -0.821524 0.154718 0.548781
vn -0.831195 -0.050518 0.553681
vn -0.722270 -0.280879 0.632007
vn -0.736041 -0.260290 0.624895
vn -0.672757 -0.722266 -0.160402
vn 0.390969 0.013507 0.920305
vn 0.372669 0.021160 0.927723
vn 0.643379 -0.163062 0.747980
vn 0.537491 -0.381186 0.752198
vn 0.879742 0.121053 -0.459783
vn 0.237324 -0.890664 0.387807
vn 0.236717 -0.888505 0.393096
vn 0.238186 -0.903097 0.357327
vn -0.294046 -0.921271 -0.254553
vn 0.178822 -0.982403 -0.053917
vn 0.210599 -0.976765 -0.039738
vn 0.235491 -0.971803 -0.011987
vn 0.192935 -0.980486 0.037736
vn 0.103413 -0.992499 -0.065208
vn -0.853852 0.498645 -0.149297
vn -0.850390 0.501010 -0.160704
vn -0.646937 0.291659 0.704562
vn -0.741115 0.351737 0.571865
vn -0.727402 0.384262 0.568533
vn 0.938615 0.078529 -0.335909
vn 0.560829 -0.485216 0.670847
vn 0.567322 -0.465083 0.679591
vn 0.818538 -0.232842 0.525148
vn 0.828332 -0.236335 0.507949
vn 0.692279 -0.208038 0.690992
vn -0.520374 -0.542321 0.659620
vn -0.314395 -0.595208 0.739516
vn -0.107928 -0.662529 0.741220
vn -0.134995 -0.635779 0.759975
vn -0.392650 0.895964 -0.207545
vn -0.549942 -0.824325 0.134359
vn 0.220594 -0.858943 0.462121
vn -0.062884 -0.704922 0.706491
vn 0.011449 -0.725256 0.688384
vn -0.276881 -0.872442 0.402718
vn 0.520771 0.562002 -0.642613
vn 0.842894 0.230971 -0.485986
vn 0.898684 0.377860 -0.222685
vn 0.903392 0.121493 -0.411245
vn 0.922181 0.105031 -0.372223
vn -0.672508 0.473412 -0.568871
vn -0.818770 0.529463 -0.222003
vn -0.638281 0.701413 -0.317202
vn -0.571347 -0.808830 -0.139127
vn -0.565251 -0.820106 -0.088985
vn -0.571404 -0.808567 -0.140421
vn -0.458846 -0.830719 -0.315223
vn -0.526732 -0.846694 0.075257
vn -0.409450 -0.884909 0.222009
vn -0.032248 0.054819 0.997975
vn 0.186189 0.120597 0.975085
vn -0.282057 0.227274 0.932089
vn -0.434974 0.320355 0.841528
vn -0.045388 0.328462 0.943426
vn -0.172074 0.168359 0.970591
vn -0.070120 0.149336 0.986297
vn 0.966940 0.150009 -0.206212
vn 0.965002 0.158775 -0.208715
vn 0.955676 0.127401 -0.265430
vn 0.954822 0.127700 -0.268344
vn 0.886397 0.187679 -0.423175
vn 0.894736 0.173243 -0.411624
vn 0.313746 -0.760551 0.568441
vn 0.380244 -0.656927 0.651046
vn 0.070351 -0.722517 0.687764
vn 0.220442 -0.856903 0.465964
vn 0.016820 -0.726863 0.686577
vn -0.075911 0.409971 0.908934
vn -0.054000 0.344998 0.937049
vn -0.367482 0.865559 -0.340241
vn -0.505391 0.776218 -0.376916
vn -0.489523 0.773834 -0.401930
vn -0.561195 -0.757606 -0.333307
vn -0.569144 -0.761912 -0.309137
vn -0.569276 -0.769347 -0.289880
vn -0.541246 -0.756993 -0.366080
vn -0.529253 -0.769787 -0.356819
vn -0.318845 0.395944 -0.861142
vn -0.185359 0.662927 0.725375
vn -0.174582 0.713970 0.678062
vn -0.201555 0.582774 0.787242
vn -0.219448 0.573807 0.789043
vn -0.508849 0.558992 -0.654676
vn -0.401381 0.692902 -0.598983
vn -0.566349 0.524664 0.635592
vn -0.544026 0.527063 0.652871
vn -0.396684 0.833577 0.384437
vn -0.247428 0.742024 0.623041
vn -0.246920 0.583254 0.773851
vn -0.083196 0.680584 -0.727931
vn -0.168938 0.605802 -0.777472
vn -0.337155 0.529137 -0.778679
vn -0.348695 0.540751 -0.765507
vn -0.284633 0.798800 -0.530002
vn -0.345006 0.755761 -0.556593
vn -0.378848 0.711828 -0.591418
vn -0.100539 0.689305 -0.717461
vn -0.248615 0.636486 -0.730120
f 1//1 2//1 3//1
f 4//2 5//2 6//2
f 7//3 8//3 9//3
f 10//4 11//4 12//4
f 13//5 14//5 15//5
f 16//6 17//6 18//6
f 19//7 20//7 21//7
f 22//8 23//8 24//8
f 25//9 26//9 27//9
f 28//10 29//10 30//10
f 31//11 32//11 33//11
f 34//12 35//12 36//12
f 37//13 38//13 39//13
f 40//14 41//14 42//14
f 43//15 44//15 45//15
f 46//16 47//16 48//16
f 49//17 50//17 51//17
f 52//18 53//18 54//18
f 55//19 56//19 57//19
f 58//20 59//20 60//20
f 61//21 62//21 63//21
f 64//22 65//22 66//22
f 67//23 68//23 69//23
f 70//24 71//24 72//24
f 73//25 74//25 75//25
f 76//26 77//26 78//26
f 79//27 80//27 81//27
f 82//28 83//28 84//28
f 85//29 86//29 87//29
f 88//30 89//30 90//30
f 91//31 92//31 93//31
f 94//32 95//32 96//32
f 97//33 98//33 99//33
f 100//34 101//34 102//34
f 103//35 104//35 105//35
f 106//36 107//36 108//36
f 109//37 110//37 111//37
f 112//38 113//38 114//38
f 115//39 116//39 117//39
f 118//40 119//40 120//40
f 121//41 122//41 123//41
f 124//42 125//42 126//42
f 127//43 128//43 129//43
f 130//44 131//44 132//44
f 133//45 134//45 135//45
f 136//46 137//46 138//46
f 139//47 140//47 141//47
f 142//48 143//48 144//48
f 145//49 146//49 147//49
f 148//50 149//50 150//50
f 151//51 152//51 153//51
f 154//52 155//52 156//52
f 157//53 158//53 159//53
f 160//54 161//54 162//54
f 163//55 164//55 165//55
f 166//56 167//56 168//56
f 169//57 170//57 171//57
f 172//58 173//58 174//58
f 175//59 176//59 177//59
f 178//60 179//60 180//60
f 181//61 182//61 183//61
f 184//62 185//62 186//62
f 187//63 188//63 189//63
f 190//64 191//64 192//64
f 193//65 194//65 195//65
f 196//66 197//66 198//66
f 199//67 200//67 201//67
f 202//68 203//68 204//68
f 205//69 206//69 207//69
f 208//70 209//70 210//70
f 211//71 212//71 213//71
f 214//72 215//72 216//72
f 217//73 218//73 219//73
f 220//74 221//74 222//74
f 223//75 224//75 225//75
f 226//76 227//76 228//76
f 229//77 230//77 231//77
f 232//78 233//78 234//78
f 235//79 236//79 237//79
f 238//80 239//80 240//80
f 241//81 242//81 243//81
f 244//82 245//82 246//82
f 247//83 248//83 249//83
f 250//84 251//84 252//84
f 253//85 254//85 255//85
f 256//86 257//86 258//86
f 259//87 260//87 261//87
f 262//88 263//88 264//88
f 265//89 266//89 267//89
f 268//90 269//90 270//90
f 271//91 272//91 273//91
f 274//92 275//92 276//92
f 277//93 278//93 279//93
f 280//94 281//94 282//94
f 283//95 284//95 285//95
f 286//96 287//96 288//96
f 289//97 290//97 291//97
f 292//98 293//98 294//98
f 295//99 296//99 297//99
f 298//100 299//100 300//100
f 301//101 302//101 303//101
f 304//102 305//102 306//102
f 307//103 308//103 309//103
f 310//104 311//104 312//104
f 313//105 314//105 315//105
f 316//106 317//106 318//106
f 319//107 320//107 321//107
f 322//108 323//108 324//108
f 325//109 326//109 327//109
f 328//110 329//110 330//110
f 331//111 332//111 333//111
f 334//112 335//112 336//112
f 337//113 338//113 339//113
f 340//114 341//114 342//114
f 343//115 344//115 345//115
f 346//116 347//116 348//116
f 349//117 350//117 351//117
f 352//118 353//118 354//118
f 355//119 356//119 357//119
f 358//120 359//120 360//120
f 361//121 362//121 363//121
f 364//122 365//122 366//122
f 367//123 368//123 369//123
f 370//124 371//124 372//124
f 373//125 374//125 375//125
f 376//126 377//126 378//126
f 379//127 380//127 381//127
f 382//128 383//128 384//128
f 385//129 386//129 387//129
f 388//130 389//130 390//130
f 391//131 392//131 393//131
f 394//132 395//132 396//132
f 397//133 398//133 399//133
f 400//134 401//134 402//134
f 403//135 404//135 405//135
f 406//136 407//136 408//136
f 409//137 410//137 411//137
f 412//138 413//138 414//138
f 415//139 416//139 417//139
f 418//140 419//140 420//140
f 421//141 422//141 423//141
f 424//142 425//142 426//142
f 427//143 428//143 429//143
f 430//144 431//144 432//144
f 433//145 434//145 435//145
f 436//146 437//146 438//146
f 439//147 440//147 441//147
f 442//148 443//148 444//148
f 445//149 446//149 447//149
f 448//150 449//150 450//150
f 451//151 452//151 453//151
f 454//152 455//152 456//152
