o
v -14.392692 -48.831600 9.377784
v -0.398348 -33.793266 30.873932
v -2.189008 -25.824606 35.332230
v -17.982260 -8.471088 -7.543939
v -2.890032 -24.423721 -21.908871
v -14.392692 -48.831600 9.377784
v 5.895603 -49.776226 10.076109
v -14.392692 -48.831600 9.377784
v 5.945210 -44.355103 -9.800196
v -17.982260 -8.471088 -7.543939
v -14.392692 -48.831600 9.377784
v -8.881374 -3.051571 17.855280
v -2.890032 -24.423721 -21.908871
v 1.449501 -32.828541 -18.360273
v -14.392692 -48.831600 9.377784
v -14.392692 -48.831600 9.377784
v 1.449501 -32.828541 -18.360273
v 5.945210 -44.355103 -9.800196
v -14.392692 -48.831600 9.377784
v -2.189008 -25.824606 35.332230
v -6.034705 -4.522711 24.899593
v -14.392692 -48.831600 9.377784
v -6.034705 -4.522711 24.899593
v -8.881374 -3.051571 17.855280
v 10.981008 -4.138085 39.909733
v -6.034705 -4.522711 24.899593
v -2.189008 -25.824606 35.332230
v 10.981008 -4.138085 39.909733
v -2.189008 -25.824606 35.332230
v 22.434299 -5.851387 37.845047
v 10.981008 -4.138085 39.909733
v 22.434299 -5.851387 37.845047
v 22.478052 -5.839288 37.831318
v -2.890032 -24.423721 -21.908871
v 11.149250 -30.983175 -24.243282
v 1.449501 -32.828541 -18.360273
v 1.449501 -32.828541 -18.360273
v 11.149250 -30.983175 -24.243282
v 5.945210 -44.355103 -9.800196
v -14.392692 -48.831600 9.377784
v 9.312020 -40.566051 25.525925
v -0.398348 -33.793266 30.873932
v 5.895603 -49.776226 10.076109
v 9.312020 -40.566051 25.525925
v -14.392692 -48.831600 9.377784
v -0.398348 -33.793266 30.873932
v 9.312020 -40.566051 25.525925
v -2.189008 -25.824606 35.332230
v -2.189008 -25.824606 35.332230
v 9.312020 -40.566051 25.525925
v 22.434299 -5.851387 37.845047
v 22.434299 -5.851387 37.845047
v 9.312020 -40.566051 25.525925
v 22.478052 -5.839288 37.831318
v 10.981008 -4.138085 39.909733
v 22.478052 -5.839288 37.831318
v 9.252926 3.872702 33.395706
v -6.034705 -4.522711 24.899593
v 2.442843 3.447103 28.545399
v -8.881374 -3.051571 17.855280
v 10.981008 -4.138085 39.909733
v 2.442843 3.447103 28.545399
v -6.034705 -4.522711 24.899593
v 10.981008 -4.138085 39.909733
v 9.252926 3.872702 33.395706
v 2.442843 3.447103 28.545399
v -17.982260 -8.471088 -7.543939
v 1.935969 5.697929 -10.615407
v -2.890032 -24.423721 -21.908871
v 22.478052 -5.839288 37.831318
v 11.547966 6.693246 27.514242
v 9.252926 3.872702 33.395706
v 9.252926 3.872702 33.395706
v 11.547966 6.693246 27.514242
v 2.442843 3.447103 28.545399
v 22.478052 -5.839288 37.831318
v 25.835342 -8.164933 31.475220
v 25.776831 -8.031675 31.607903
v 22.478052 -5.839288 37.831318
v 25.776831 -8.031675 31.607903
v 25.040886 -6.742033 31.496061
v 5.895603 -49.776226 10.076109
v 5.945210 -44.355103 -9.800196
v 20.821941 -37.650738 -9.911954
v 11.149250 -30.983175 -24.243282
v 20.821941 -37.650738 -9.911954
v 5.945210 -44.355103 -9.800196
v 5.895603 -49.776226 10.076109
v 20.821941 -37.650738 -9.911954
v 9.312020 -40.566051 25.525925
v -17.982260 -8.471088 -7.543939
v -8.881374 -3.051571 17.855280
v -0.464499 6.335025 11.306378
v -17.982260 -8.471088 -7.543939
v -0.464499 6.335025 11.306378
v 1.935969 5.697929 -10.615407
v 2.442843 3.447103 28.545399
v -0.464499 6.335025 11.306378
v -8.881374 -3.051571 17.855280
v -0.464499 6.335025 11.306378
v 12.225849 10.647832 15.769971
v 1.935969 5.697929 -10.615407
v 11.547966 6.693246 27.514242
v 12.225849 10.647832 15.769971
v 2.442843 3.447103 28.545399
v 2.442843 3.447103 28.545399
v 12.225849 10.647832 15.769971
v -0.464499 6.335025 11.306378
v -2.890032 -24.423721 -21.908871
v 16.541094 -10.396780 -21.792589
v 11.149250 -30.983175 -24.243282
v 1.935969 5.697929 -10.615407
v 16.541094 -10.396780 -21.792589
v -2.890032 -24.423721 -21.908871
v 25.776831 -8.031675 31.607903
v 21.878998 4.595212 19.984594
v 25.040886 -6.742033 31.496061
v 22.478052 -5.839288 37.831318
v 21.878998 4.595212 19.984594
v 11.547966 6.693246 27.514242
v 11.547966 6.693246 27.514242
v 21.878998 4.595212 19.984594
v 12.225849 10.647832 15.769971
v 22.478052 -5.839288 37.831318
v 25.040886 -6.742033 31.496061
v 21.878998 4.595212 19.984594
v 11.149250 -30.983175 -24.243282
v 26.289787 -27.303368 -10.349154
v 20.821941 -37.650738 -9.911954
v 16.541094 -10.396780 -21.792589
v 19.732468 -22.350245 -17.966036
v 11.149250 -30.983175 -24.243282
v 11.149250 -30.983175 -24.243282
v 23.093723 -24.342943 -14.573580
v 26.289787 -27.303368 -10.349154
v 19.732468 -22.350245 -17.966036
v 23.093723 -24.342943 -14.573580
v 11.149250 -30.983175 -24.243282
v 16.541094 -10.396780 -21.792589
v 23.093723 -24.342943 -14.573580
v 19.732468 -22.350245 -17.966036
v 9.312020 -40.566051 25.525925
v 26.316927 -19.105772 23.066528
v 22.478052 -5.839288 37.831318
v 22.478052 -5.839288 37.831318
v 26.316927 -19.105772 23.066528
v 25.835342 -8.164933 31.475220
v 25.912910 -8.406506 30.996271
v 25.835342 -8.164933 31.475220
v 26.316927 -19.105772 23.066528
v 16.541094 -10.396780 -21.792589
v 22.470419 -13.212563 -14.407611
v 23.093723 -24.342943 -14.573580
v 20.821941 -37.650738 -9.911954
v 23.738342 -30.928848 -1.382187
v 9.312020 -40.566051 25.525925
v 9.312020 -40.566051 25.525925
v 23.738342 -30.928848 -1.382187
v 26.316927 -19.105772 23.066528
v 26.289787 -27.303368 -10.349154
v 23.738342 -30.928848 -1.382187
v 20.821941 -37.650738 -9.911954
v 23.093723 -24.342943 -14.573580
v 25.624716 -14.169839 -10.167210
v 26.289787 -27.303368 -10.349154
v 22.470419 -13.212563 -14.407611
v 25.624716 -14.169839 -10.167210
v 23.093723 -24.342943 -14.573580
v 16.541094 -10.396780 -21.792589
v 25.624716 -14.169839 -10.167210
v 22.470419 -13.212563 -14.407611
v 23.738342 -30.928848 -1.382187
v 28.937025 -19.210184 4.013649
v 26.316927 -19.105772 23.066528
v 26.289787 -27.303368 -10.349154
v 28.937025 -19.210184 4.013649
v 23.738342 -30.928848 -1.382187
v 25.912910 -8.406506 30.996271
v 26.316927 -19.105772 23.066528
v 28.937025 -19.210184 4.013649
v 16.541094 -10.396780 -21.792589
v 25.275251 -8.635135 -7.225860
v 25.624716 -14.169839 -10.167210
v 25.839169 -3.599858 -1.523831
v 25.275251 -8.635135 -7.225860
v 16.541094 -10.396780 -21.792589
v 25.839169 -3.599858 -1.523831
v 25.624716 -14.169839 -10.167210
v 25.275251 -8.635135 -7.225860
v 25.835342 -8.164933 31.475220
v 27.442640 -5.975653 2.674953
v 25.776831 -8.031675 31.607903
v 25.776831 -8.031675 31.607903
v 27.442640 -5.975653 2.674953
v 21.878998 4.595212 19.984594
v 21.878998 4.595212 19.984594
v 27.442640 -5.975653 2.674953
v 25.839169 -3.599858 -1.523831
v 25.912910 -8.406506 30.996271
v 27.442640 -5.975653 2.674953
v 25.835342 -8.164933 31.475220
v 25.912910 -8.406506 30.996271
v 28.937025 -19.210184 4.013649
v 27.442640 -5.975653 2.674953
v 28.937025 -19.210184 4.013649
v 27.465704 -6.371211 2.281743
v 27.442640 -5.975653 2.674953
v 25.839169 -3.599858 -1.523831
v 27.465704 -6.371211 2.281743
v 25.624716 -14.169839 -10.167210
v 27.442640 -5.975653 2.674953
v 27.465704 -6.371211 2.281743
v 25.839169 -3.599858 -1.523831
v 21.878998 4.595212 19.984594
v 24.187424 -2.160998 -1.548971
v 12.225849 10.647832 15.769971
v 21.878998 4.595212 19.984594
v 25.839169 -3.599858 -1.523831
v 24.187424 -2.160998 -1.548971
v 12.225849 10.647832 15.769971
v 24.187424 -2.160998 -1.548971
v 1.935969 5.697929 -10.615407
v 25.839169 -3.599858 -1.523831
v 16.541094 -10.396780 -21.792589
v 24.187424 -2.160998 -1.548971
v 25.624716 -14.169839 -10.167210
v 27.887533 -14.362344 -1.607484
v 26.289787 -27.303368 -10.349154
v 26.289787 -27.303368 -10.349154
v 27.887533 -14.362344 -1.607484
v 28.937025 -19.210184 4.013649
v 28.937025 -19.210184 4.013649
v 27.887533 -14.362344 -1.607484
v 27.465704 -6.371211 2.281743
v 27.465704 -6.371211 2.281743
v 27.887533 -14.362344 -1.607484
v 25.624716 -14.169839 -10.167210
v 1.935969 5.697929 -10.615407
v 21.301355 -2.616355 -5.563354
v 16.541094 -10.396780 -21.792589
v 24.187424 -2.160998 -1.548971
v 21.301355 -2.616355 -5.563354
v 1.935969 5.697929 -10.615407
v 16.541094 -10.396780 -21.792589
v 21.301355 -2.616355 -5.563354
v 24.187424 -2.160998 -1.548971
vn -0.519872 -0.503082 0.690393
vn -0.802624 -0.289937 -0.521278
vn -0.035835 -0.964118 -0.263046
vn -0.943608 0.053085 0.326781
vn -0.548603 -0.549358 -0.630270
vn -0.448576 -0.639005 -0.624862
vn -0.915040 0.031740 0.402113
vn -0.923430 0.040500 0.381624
vn -0.645419 0.238813 0.725536
vn 0.129678 -0.279555 0.951332
vn 0.211832 0.292211 0.932599
vn -0.369882 -0.516921 -0.771998
vn -0.304833 -0.641607 -0.703859
vn -0.172531 -0.750817 0.637579
vn -0.057581 -0.851877 0.520567
vn 0.166753 -0.452618 0.875974
vn 0.236859 -0.403210 0.883923
vn 0.376704 -0.432999 0.818905
vn 0.227350 0.643432 0.730963
vn -0.712414 0.571504 0.407246
vn -0.625306 0.344918 0.700017
vn -0.533669 0.461263 0.708825
vn -0.397384 0.377296 -0.836501
vn 0.387127 0.763348 0.517138
vn -0.285457 0.902831 0.321576
vn 0.859724 -0.117437 0.497075
vn 0.827619 0.495203 0.264237
vn 0.397299 -0.885601 -0.240550
vn 0.333102 -0.748695 -0.573148
vn 0.763728 -0.614586 0.197493
vn -0.704064 0.702724 0.102333
vn -0.586365 0.805296 -0.087611
vn -0.638922 0.733866 0.230693
vn -0.301971 0.951382 -0.060716
vn -0.292073 0.911363 0.290020
vn -0.381177 0.899175 0.214917
vn -0.097112 0.142693 -0.984991
vn -0.265739 0.375481 -0.887917
vn 0.828685 0.495475 0.260358
vn 0.471700 0.768008 0.433200
vn 0.402731 0.860179 0.312889
vn 0.826323 0.497840 0.263337
vn 0.673445 -0.382593 -0.632530
vn 0.637002 -0.075514 -0.767155
vn 0.687501 -0.237185 -0.686357
vn 0.665998 -0.127776 -0.734928
vn 0.696939 -0.043083 -0.715835
vn 0.665985 -0.460460 0.586891
vn 0.753539 -0.379434 0.536851
vn 0.967031 -0.127055 0.220699
vn 0.788482 0.053292 -0.612745
vn 0.777240 -0.595400 0.203460
vn 0.778442 -0.593355 0.204837
vn 0.883460 -0.464154 0.063714
vn 0.812801 0.049201 -0.580460
vn 0.806982 0.053961 -0.588106
vn 0.796255 0.302165 -0.524094
vn 0.884582 -0.449568 0.124109
vn 0.897103 -0.434602 0.079544
vn 0.988618 -0.063688 0.136301
vn 0.793652 0.323819 -0.515032
vn 0.726870 0.477533 -0.493580
vn 0.939703 0.204864 -0.273843
vn 0.939064 0.334808 0.077858
vn 0.929675 0.359791 0.079093
vn 0.857729 0.512738 -0.037435
vn 0.981380 0.179481 0.068413
vn 0.990930 0.118333 0.063680
vn 0.993013 0.107118 -0.049513
vn 0.945171 0.195027 -0.261949
vn 0.941380 0.263850 -0.210209
vn 0.579139 0.793519 -0.186884
vn 0.649429 0.742660 -0.163392
vn 0.430084 0.841996 -0.325684
vn 0.578516 0.655632 -0.485248
vn 0.965750 0.052425 -0.254123
vn 0.983268 0.001650 -0.182158
vn 0.990086 0.100181 -0.098455
vn 0.953471 0.171132 -0.248207
vn 0.448707 0.747416 -0.489929
vn 0.448115 0.793300 -0.412150
vn 0.570133 0.663045 -0.485097
f 1//1 2//1 3//1
f 4//2 5//2 6//2
f 7//3 8//3 9//3
f 10//4 11//4 12//4
f 13//5 14//5 15//5
f 16//6 17//6 18//6
f 19//7 20//7 21//7
f 22//8 23//8 24//8
f 25//9 26//9 27//9
f 28//10 29//10 30//10
f 31//11 32//11 33//11
f 34//12 35//12 36//12
f 37//13 38//13 39//13
f 40//14 41//14 42//14
f 43//15 44//15 45//15
f 46//16 47//16 48//16
f 49//17 50//17 51//17
f 52//18 53//18 54//18
f 55//19 56//19 57//19
f 58//20 59//20 60//20
f 61//21 62//21 63//21
f 64//22 65//22 66//22
f 67//23 68//23 69//23
f 70//24 71//24 72//24
f 73//25 74//25 75//25
f 76//26 77//26 78//26
f 79//27 80//27 81//27
f 82//28 83//28 84//28
f 85//29 86//29 87//29
f 88//30 89//30 90//30
f 91//31 92//31 93//31
f 94//32 95//32 96//32
f 97//33 98//33 99//33
f 100//34 101//34 102//34
f 103//35 104//35 105//35
f 106//36 107//36 108//36
f 109//37 110//37 111//37
f 112//38 113//38 114//38
f 115//39 116//39 117//39
f 118//40 119//40 120//40
f 121//41 122//41 123//41
f 124//42 125//42 126//42
f 127//43 128//43 129//43
f 130//44 131//44 132//44
f 133//45 134//45 135//45
f 136//46 137//46 138//46
f 139//47 140//47 141//47
f 142//48 143//48 144//48
f 145//49 146//49 147//49
f 148//50 149//50 150//50
f 151//51 152//51 153//51
f 154//52 155//52 156//52
f 157//53 158//53 159//53
f 160//54 161//54 162//54
f 163//55 164//55 165//55
f 166//56 167//56 168//56
f 169//57 170//57 171//57
f 172//58 173//58 174//58
f 175//59 176//59 177//59
f 178//60 179//60 180//60
f 181//61 182//61 183//61
f 184//62 185//62 186//62
f 187//63 188//63 189//63
f 190//64 191//64 192//64
f 193//65 194//65 195//65
f 196//66 197//66 198//66
f 199//67 200//67 201//67
f 202//68 203//68 204//68
f 205//69 206//69 207//69
f 208//70 209//70 210//70
f 211//71 212//71 213//71
f 214//72 215//72 216//72
f 217//73 218//73 219//73
f 220//74 221//74 222//74
f 223//75 224//75 225//75
f 226//76 227//76 228//76
f 229//77 230//77 231//77
f 232//78 233//78 234//78
f 235//79 236//79 237//79
f 238//80 239//80 240//80
f 241//81 242//81 243//81
f 244//82 245//82 246//82
