o
v 57.134624 -186.764221 -104.990662
v 57.200626 -186.840576 -105.063164
v 171.322998 -27.555407 -107.847260
v 57.200626 -186.840576 -105.063164
v 57.212669 -186.849380 -105.076981
v 171.322998 -27.555407 -107.847260
v 57.134624 -186.764221 -104.990662
v 57.018925 -186.685638 -104.980148
v 57.200626 -186.840576 -105.063164
v 191.469254 14.181100 -109.834862
v 133.810913 23.747169 -141.767639
v -34.692764 -98.053093 -94.989082
v 133.876282 23.766127 -141.849747
v 133.810913 23.747169 -141.767639
v 191.469254 14.181100 -109.834862
v 133.876282 23.766127 -141.849747
v 191.469254 14.181100 -109.834862
v 163.498749 -0.171263 -161.237183
v 133.876282 23.766127 -141.849747
v 46.882187 -0.003731 -218.884216
v 133.810913 23.747169 -141.767639
v 133.876282 23.766127 -141.849747
v 163.498749 -0.171263 -161.237183
v 46.882187 -0.003731 -218.884216
v 191.469254 14.181100 -109.834862
v -34.692764 -98.053093 -94.989082
v 36.480675 -109.616356 -89.172867
v 191.469254 14.181100 -109.834862
v 36.480675 -109.616356 -89.172867
v 171.322998 -27.555407 -107.847260
v 57.134624 -186.764221 -104.990662
v 171.322998 -27.555407 -107.847260
v 36.480675 -109.616356 -89.172867
v 57.134624 -186.764221 -104.990662
v 36.480675 -109.616356 -89.172867
v 57.018925 -186.685638 -104.980148
v 57.018925 -186.685638 -104.980148
v 36.480675 -109.616356 -89.172867
v -34.692764 -98.053093 -94.989082
v 46.882187 -0.003731 -218.884216
v 43.968731 -53.748505 -224.156555
v 34.902874 -37.572136 -221.589203
v 46.882187 -0.003731 -218.884216
v 45.830990 -54.537548 -224.309113
v 43.968731 -53.748505 -224.156555
v 45.830990 -54.537548 -224.309113
v 47.592701 -57.503807 -224.196472
v 43.968731 -53.748505 -224.156555
v 47.463932 -55.678436 -224.316086
v 47.592701 -57.503807 -224.196472
v 45.830990 -54.537548 -224.309113
v 46.882187 -0.003731 -218.884216
v 88.748283 -49.977840 -221.183197
v 45.830990 -54.537548 -224.309113
v 47.463932 -55.678436 -224.316086
v 45.830990 -54.537548 -224.309113
v 88.748283 -49.977840 -221.183197
v 47.463932 -55.678436 -224.316086
v 88.748283 -49.977840 -221.183197
v 47.592701 -57.503807 -224.196472
v 46.882187 -0.003731 -218.884216
v 58.370365 1.905965 -193.331985
v 133.810913 23.747169 -141.767639
v 88.748283 -49.977840 -221.183197
v 90.667007 -59.893471 -219.766403
v 47.592701 -57.503807 -224.196472
v 88.748283 -49.977840 -221.183197
v 97.101089 -56.023979 -217.132797
v 90.667007 -59.893471 -219.766403
v 163.498749 -0.171263 -161.237183
v 112.271759 -39.180061 -207.046265
v 46.882187 -0.003731 -218.884216
v 46.882187 -0.003731 -218.884216
v 112.271759 -39.180061 -207.046265
v 88.748283 -49.977840 -221.183197
v 88.748283 -49.977840 -221.183197
v 112.271759 -39.180061 -207.046265
v 97.101089 -56.023979 -217.132797
v 46.882187 -0.003731 -218.884216
v 34.902874 -37.572136 -221.589203
v -32.316708 -62.045364 -178.060333
v 46.882187 -0.003731 -218.884216
v 38.336670 -11.158260 -194.096680
v 58.370365 1.905965 -193.331985
v 46.882187 -0.003731 -218.884216
v -32.316708 -62.045364 -178.060333
v 38.336670 -11.158260 -194.096680
v 58.370365 1.905965 -193.331985
v 38.336670 -11.158260 -194.096680
v -32.316708 -62.045364 -178.060333
v 191.469254 14.181100 -109.834862
v 171.322998 -27.555407 -107.847260
v 157.459503 -68.747345 -160.409103
v 57.212669 -186.849380 -105.076981
v 157.459503 -68.747345 -160.409103
v 171.322998 -27.555407 -107.847260
v 191.469254 14.181100 -109.834862
v 157.459503 -68.747345 -160.409103
v 163.498749 -0.171263 -161.237183
v 163.498749 -0.171263 -161.237183
v 157.459503 -68.747345 -160.409103
v 112.271759 -39.180061 -207.046265
v 112.271759 -39.180061 -207.046265
v 157.459503 -68.747345 -160.409103
v 97.101089 -56.023979 -217.132797
v 43.968731 -53.748505 -224.156555
v -8.837426 -95.040169 -197.905792
v 34.902874 -37.572136 -221.589203
v 34.902874 -37.572136 -221.589203
v -8.837426 -95.040169 -197.905792
v -32.316708 -62.045364 -178.060333
v 57.200626 -186.840576 -105.063164
v -18.540289 -124.063553 -167.269318
v 57.212669 -186.849380 -105.076981
v 57.018925 -186.685638 -104.980148
v -18.540289 -124.063553 -167.269318
v 57.200626 -186.840576 -105.063164
v 57.018925 -186.685638 -104.980148
v -34.692764 -98.053093 -94.989082
v -18.540289 -124.063553 -167.269318
v -32.316708 -62.045364 -178.060333
v -18.540289 -124.063553 -167.269318
v -34.692764 -98.053093 -94.989082
v -8.837426 -95.040169 -197.905792
v -18.540289 -124.063553 -167.269318
v -32.316708 -62.045364 -178.060333
v 90.667007 -59.893471 -219.766403
v 42.341431 -121.183502 -209.181702
v 47.592701 -57.503807 -224.196472
v 47.592701 -57.503807 -224.196472
v 42.341431 -121.183502 -209.181702
v 43.968731 -53.748505 -224.156555
v 43.968731 -53.748505 -224.156555
v 42.341431 -121.183502 -209.181702
v -8.837426 -95.040169 -197.905792
v -8.837426 -95.040169 -197.905792
v 21.151638 -129.159500 -190.872528
v -18.540289 -124.063553 -167.269318
v 42.341431 -121.183502 -209.181702
v 21.151638 -129.159500 -190.872528
v -8.837426 -95.040169 -197.905792
v 21.151638 -129.159500 -190.872528
v 21.489117 -129.847946 -190.471725
v -18.540289 -124.063553 -167.269318
v 42.341431 -121.183502 -209.181702
v 21.489117 -129.847946 -190.471725
v 21.151638 -129.159500 -190.872528
v 133.810913 23.747169 -141.767639
v 36.540054 -32.019279 -132.759613
v -34.692764 -98.053093 -94.989082
v 58.370365 1.905965 -193.331985
v 36.540054 -32.019279 -132.759613
v 133.810913 23.747169 -141.767639
v 58.370365 1.905965 -193.331985
v -32.316708 -62.045364 -178.060333
v 36.540054 -32.019279 -132.759613
v -32.316708 -62.045364 -178.060333
v -34.692764 -98.053093 -94.989082
v 36.540054 -32.019279 -132.759613
v -18.540289 -124.063553 -167.269318
v 23.042147 -134.741959 -186.041275
v 57.212669 -186.849380 -105.076981
v 21.489117 -129.847946 -190.471725
v 23.042147 -134.741959 -186.041275
v -18.540289 -124.063553 -167.269318
v 42.341431 -121.183502 -209.181702
v 23.042147 -134.741959 -186.041275
v 21.489117 -129.847946 -190.471725
v 23.042147 -134.741959 -186.041275
v 41.822685 -145.707245 -178.052078
v 57.212669 -186.849380 -105.076981
v 42.341431 -121.183502 -209.181702
v 41.822685 -145.707245 -178.052078
v 23.042147 -134.741959 -186.041275
v 41.822685 -145.707245 -178.052078
v 42.314888 -145.478500 -178.021378
v 57.212669 -186.849380 -105.076981
v 42.341431 -121.183502 -209.181702
v 42.314888 -145.478500 -178.021378
v 41.822685 -145.707245 -178.052078
v 90.667007 -59.893471 -219.766403
v 78.750237 -101.702835 -202.875961
v 42.341431 -121.183502 -209.181702
v 57.212669 -186.849380 -105.076981
v 116.808586 -120.390656 -150.753174
v 157.459503 -68.747345 -160.409103
v 42.314888 -145.478500 -178.021378
v 116.808586 -120.390656 -150.753174
v 57.212669 -186.849380 -105.076981
v 42.341431 -121.183502 -209.181702
v 116.808586 -120.390656 -150.753174
v 42.314888 -145.478500 -178.021378
v 97.101089 -56.023979 -217.132797
v 111.884453 -87.740051 -191.133698
v 90.667007 -59.893471 -219.766403
v 90.667007 -59.893471 -219.766403
v 111.884453 -87.740051 -191.133698
v 78.750237 -101.702835 -202.875961
v 157.459503 -68.747345 -160.409103
v 111.884453 -87.740051 -191.133698
v 97.101089 -56.023979 -217.132797
v 116.808586 -120.390656 -150.753174
v 111.884453 -87.740051 -191.133698
v 157.459503 -68.747345 -160.409103
v 78.750237 -101.702835 -202.875961
v 94.131157 -111.135406 -180.646576
v 42.341431 -121.183502 -209.181702
v 42.341431 -121.183502 -209.181702
v 94.131157 -111.135406 -180.646576
v 116.808586 -120.390656 -150.753174
v 111.884453 -87.740051 -191.133698
v 94.131157 -111.135406 -180.646576
v 78.750237 -101.702835 -202.875961
v 116.808586 -120.390656 -150.753174
v 94.131157 -111.135406 -180.646576
v 111.884453 -87.740051 -191.133698
vn 0.491133 -0.337846 0.802900
vn 0.558466 -0.387300 0.733563
vn -0.498343 -0.783411 0.371378
vn -0.279492 0.655946 0.701156
vn 0.025592 0.969390 0.244189
vn 0.377298 0.818224 -0.433768
vn -0.269773 0.962894 0.007539
vn 0.274300 0.787012 -0.552605
vn -0.044236 0.218098 0.974924
vn 0.153172 -0.026893 0.987834
vn 0.218638 -0.139484 0.965786
vn -0.057656 -0.215310 0.974842
vn -0.116210 -0.229186 0.966421
vn -0.097618 0.102405 -0.989941
vn -0.039223 0.099662 -0.994248
vn -0.129011 -0.114029 -0.985065
vn -0.052450 -0.068982 -0.996238
vn 0.061976 0.097616 -0.993293
vn 0.062252 0.095173 -0.993512
vn 0.083671 -0.059280 -0.994729
vn -0.324540 0.942858 0.075445
vn 0.094789 -0.122813 -0.987893
vn 0.404964 -0.052070 -0.912849
vn 0.401583 0.425182 -0.811142
vn 0.362755 0.343747 -0.866168
vn 0.484119 0.085440 -0.870821
vn -0.588048 0.243054 -0.771443
vn -0.541948 0.820392 0.182344
vn -0.547965 0.817165 0.178818
vn -0.539709 0.815369 0.209494
vn 0.897975 -0.428732 0.099145
vn 0.792531 -0.563683 0.232715
vn 0.884912 -0.083464 -0.458219
vn 0.693960 -0.069768 -0.716625
vn 0.659409 -0.153160 -0.736017
vn -0.395368 -0.076304 -0.915348
vn -0.564555 0.091642 -0.820292
vn -0.618485 -0.784829 -0.038977
vn -0.644994 -0.764054 0.014266
vn -0.684983 -0.720762 0.106297
vn -0.962882 -0.236520 -0.130062
vn -0.814166 -0.270271 -0.513895
vn 0.086502 -0.235385 -0.968045
vn -0.224076 -0.206114 -0.952527
vn -0.306837 -0.199263 -0.930669
vn -0.475821 -0.558316 -0.679616
vn -0.431496 -0.529777 -0.730170
vn -0.463090 -0.604412 -0.648254
vn -0.383328 -0.597799 -0.704056
vn -0.361464 0.725155 0.586084
vn -0.451946 0.837793 0.306348
vn -0.525937 0.808711 0.263393
vn -0.547492 0.773387 0.319570
vn -0.386702 -0.841119 -0.378127
vn -0.440474 -0.675306 -0.591562
vn -0.302438 -0.690657 -0.656905
vn -0.322053 -0.852131 -0.412498
vn -0.190096 -0.769658 -0.609500
vn 0.387796 -0.765541 -0.513383
vn 0.375318 -0.731129 -0.569725
vn 0.375456 -0.437176 -0.817258
vn 0.789391 -0.589038 0.172907
vn 0.436298 -0.741536 -0.509674
vn 0.440477 -0.708182 -0.551778
vn 0.534583 -0.372626 -0.758532
vn 0.459340 -0.442153 -0.770394
vn 0.616632 -0.306875 -0.724978
vn 0.607588 -0.579764 -0.542873
vn 0.456596 -0.660396 -0.596152
vn 0.442037 -0.705625 -0.553801
vn 0.481666 -0.635841 -0.603079
vn 0.502579 -0.641279 -0.579807
f 1//1 2//1 3//1
f 4//2 5//2 6//2
f 7//3 8//3 9//3
f 10//4 11//4 12//4
f 13//5 14//5 15//5
f 16//6 17//6 18//6
f 19//7 20//7 21//7
f 22//8 23//8 24//8
f 25//9 26//9 27//9
f 28//10 29//10 30//10
f 31//11 32//11 33//11
f 34//12 35//12 36//12
f 37//13 38//13 39//13
f 40//14 41//14 42//14
f 43//15 44//15 45//15
f 46//16 47//16 48//16
f 49//17 50//17 51//17
f 52//18 53//18 54//18
f 55//19 56//19 57//19
f 58//20 59//20 60//20
f 61//21 62//21 63//21
f 64//22 65//22 66//22
f 67//23 68//23 69//23
f 70//24 71//24 72//24
f 73//25 74//25 75//25
f 76//26 77//26 78//26
f 79//27 80//27 81//27
f 82//28 83//28 84//28
f 85//29 86//29 87//29
f 88//30 89//30 90//30
f 91//31 92//31 93//31
f 94//32 95//32 96//32
f 97//33 98//33 99//33
f 100//34 101//34 102//34
f 103//35 104//35 105//35
f 106//36 107//36 108//36
f 109//37 110//37 111//37
f 112//38 113//38 114//38
f 115//39 116//39 117//39
f 118//40 119//40 120//40
f 121//41 122//41 123//41
f 124//42 125//42 126//42
f 127//43 128//43 129//43
f 130//44 131//44 132//44
f 133//45 134//45 135//45
f 136//46 137//46 138//46
f 139//47 140//47 141//47
f 142//48 143//48 144//48
f 145//49 146//49 147//49
f 148//50 149//50 150//50
f 151//51 152//51 153//51
f 154//52 155//52 156//52
f 157//53 158//53 159//53
f 160//54 161//54 162//54
f 163//55 164//55 165//55
f 166//56 167//56 168//56
f 169//57 170//57 171//57
f 172//58 173//58 174//58
f 175//59 176//59 177//59
f 178//60 179//60 180//60
f 181//61 182//61 183//61
f 184//62 185//62 186//62
f 187//63 188//63 189//63
f 190//64 191//64 192//64
f 193//65 194//65 195//65
f 196//66 197//66 198//66
f 199//67 200//67 201//67
f 202//68 203//68 204//68
f 205//69 206//69 207//69
f 208//70 209//70 210//70
f 211//71 212//71 213//71
f 214//72 215//72 216//72
