o
v -118.506363 -157.260742 -68.124191
v -122.953903 -81.879173 -64.075264
v -132.314774 -166.274429 -89.789841
v -118.506363 -157.260742 -68.124191
v 6.676427 -113.582863 -80.771156
v -95.234917 -112.889717 -66.256653
v -118.506363 -157.260742 -68.124191
v -95.234917 -112.889717 -66.256653
v -122.953903 -81.879173 -64.075264
v 6.676427 -113.582863 -80.771156
v -122.953903 -81.879173 -64.075264
v -95.234917 -112.889717 -66.256653
v 17.072226 65.957733 -247.223740
v 13.022055 60.834209 -253.613739
v 11.926441 70.036713 -254.284729
v 13.022055 60.834209 -253.613739
v 9.325885 61.592506 -258.813843
v 11.926441 70.036713 -254.284729
v 13.022055 60.834209 -253.613739
v 11.502466 58.076672 -253.867172
v 9.325885 61.592506 -258.813843
v -118.506363 -157.260742 -68.124191
v -132.314774 -166.274429 -89.789841
v -16.823029 -148.662231 -133.746735
v -118.506363 -157.260742 -68.124191
v -16.823029 -148.662231 -133.746735
v 6.676427 -113.582863 -80.771156
v 11.502466 58.076672 -253.867172
v -16.823029 -148.662231 -133.746735
v 9.325885 61.592506 -258.813843
v 6.676427 -113.582863 -80.771156
v 8.628583 -86.991310 -149.389130
v 17.072226 65.957733 -247.223740
v -16.823029 -148.662231 -133.746735
v 8.628583 -86.991310 -149.389130
v 6.676427 -113.582863 -80.771156
v 13.022055 60.834209 -253.613739
v 8.628583 -86.991310 -149.389130
v 11.502466 58.076672 -253.867172
v 11.502466 58.076672 -253.867172
v 8.628583 -86.991310 -149.389130
v -16.823029 -148.662231 -133.746735
v 17.072226 65.957733 -247.223740
v 8.628583 -86.991310 -149.389130
v 13.022055 60.834209 -253.613739
v 17.072226 65.957733 -247.223740
v 11.926441 70.036713 -254.284729
v -47.763939 171.632645 -116.163261
v 6.676427 -113.582863 -80.771156
v -47.763939 171.632645 -116.163261
v -122.953903 -81.879173 -64.075264
v -122.953903 -81.879173 -64.075264
v -133.500000 -54.517925 -79.830627
v -132.314774 -166.274429 -89.789841
v 6.676427 -113.582863 -80.771156
v 17.072226 65.957733 -247.223740
v 6.722567 83.582977 -219.031464
v 17.072226 65.957733 -247.223740
v -47.763939 171.632645 -116.163261
v 6.722567 83.582977 -219.031464
v 6.676427 -113.582863 -80.771156
v 6.722567 83.582977 -219.031464
v -47.763939 171.632645 -116.163261
v 11.926441 70.036713 -254.284729
v -11.848923 86.958298 -235.400024
v -47.763939 171.632645 -116.163261
v -47.763939 171.632645 -116.163261
v -138.695023 17.932613 -108.469032
v -122.953903 -81.879173 -64.075264
v -122.953903 -81.879173 -64.075264
v -138.695023 17.932613 -108.469032
v -133.500000 -54.517925 -79.830627
v -132.314774 -166.274429 -89.789841
v -103.489037 -142.540222 -143.048126
v -16.823029 -148.662231 -133.746735
v -132.314774 -166.274429 -89.789841
v -104.712341 -141.164536 -143.265274
v -103.489037 -142.540222 -143.048126
v -11.848923 86.958298 -235.400024
v -64.390945 134.640152 -170.068756
v -47.763939 171.632645 -116.163261
v -133.500000 -54.517925 -79.830627
v -143.397293 17.146172 -140.334244
v -132.314774 -166.274429 -89.789841
v -138.695023 17.932613 -108.469032
v -143.397293 17.146172 -140.334244
v -133.500000 -54.517925 -79.830627
v -11.848923 86.958298 -235.400024
v -66.166138 133.967422 -171.087997
v -64.390945 134.640152 -170.068756
v -64.390945 134.640152 -170.068756
v -66.166138 133.967422 -171.087997
v -47.763939 171.632645 -116.163261
v -11.848923 86.958298 -235.400024
v -70.009575 132.574753 -171.349930
v -66.166138 133.967422 -171.087997
v -66.166138 133.967422 -171.087997
v -70.009575 132.574753 -171.349930
v -47.763939 171.632645 -116.163261
v -70.009575 132.574753 -171.349930
v -72.517052 132.019409 -168.555130
v -47.763939 171.632645 -116.163261
v 9.325885 61.592506 -258.813843
v -48.016933 56.916683 -244.287323
v 11.926441 70.036713 -254.284729
v 11.926441 70.036713 -254.284729
v -48.016933 56.916683 -244.287323
v -11.848923 86.958298 -235.400024
v -11.848923 86.958298 -235.400024
v -48.016933 56.916683 -244.287323
v -70.009575 132.574753 -171.349930
v -132.314774 -166.274429 -89.789841
v -144.016632 -2.726029 -218.867203
v -104.712341 -141.164536 -143.265274
v -47.763939 171.632645 -116.163261
v -147.294189 21.126425 -179.465469
v -138.695023 17.932613 -108.469032
v -138.695023 17.932613 -108.469032
v -147.294189 21.126425 -179.465469
v -143.397293 17.146172 -140.334244
v -72.517052 132.019409 -168.555130
v -147.294189 21.126425 -179.465469
v -47.763939 171.632645 -116.163261
v -143.397293 17.146172 -140.334244
v -146.966248 8.315306 -177.826431
v -132.314774 -166.274429 -89.789841
v -147.294189 21.126425 -179.465469
v -146.966248 8.315306 -177.826431
v -143.397293 17.146172 -140.334244
v -132.314774 -166.274429 -89.789841
v -146.966248 8.315306 -177.826431
v -144.016632 -2.726029 -218.867203
v -16.823029 -148.662231 -133.746735
v -50.959305 -83.992691 -213.216629
v 9.325885 61.592506 -258.813843
v -103.489037 -142.540222 -143.048126
v -50.959305 -83.992691 -213.216629
v -16.823029 -148.662231 -133.746735
v -72.517052 132.019409 -168.555130
v -146.763245 15.435879 -194.046112
v -147.294189 21.126425 -179.465469
v -147.294189 21.126425 -179.465469
v -146.763245 15.435879 -194.046112
v -146.966248 8.315306 -177.826431
v -146.966248 8.315306 -177.826431
v -146.763245 15.435879 -194.046112
v -144.016632 -2.726029 -218.867203
v -50.959305 -83.992691 -213.216629
v -55.614681 -49.013386 -235.923325
v 9.325885 61.592506 -258.813843
v -55.614681 -49.013386 -235.923325
v -62.708546 -53.171043 -235.109955
v 9.325885 61.592506 -258.813843
v -50.959305 -83.992691 -213.216629
v -62.708546 -53.171043 -235.109955
v -55.614681 -49.013386 -235.923325
v -62.708546 -53.171043 -235.109955
v -62.837814 -53.313622 -235.009323
v -144.016632 -2.726029 -218.867203
v -50.959305 -83.992691 -213.216629
v -62.837814 -53.313622 -235.009323
v -62.708546 -53.171043 -235.109955
v 9.325885 61.592506 -258.813843
v -63.189854 -3.003927 -241.745514
v -48.016933 56.916683 -244.287323
v -62.708546 -53.171043 -235.109955
v -63.189854 -3.003927 -241.745514
v 9.325885 61.592506 -258.813843
v -62.708546 -53.171043 -235.109955
v -144.016632 -2.726029 -218.867203
v -63.189854 -3.003927 -241.745514
v -62.837814 -53.313622 -235.009323
v -67.327728 -56.252800 -231.481384
v -144.016632 -2.726029 -218.867203
v -50.959305 -83.992691 -213.216629
v -67.327728 -56.252800 -231.481384
v -62.837814 -53.313622 -235.009323
v -104.712341 -141.164536 -143.265274
v -83.633461 -81.554199 -204.659546
v -103.489037 -142.540222 -143.048126
v -144.016632 -2.726029 -218.867203
v -83.633461 -81.554199 -204.659546
v -104.712341 -141.164536 -143.265274
v -67.327728 -56.252800 -231.481384
v -83.633461 -81.554199 -204.659546
v -144.016632 -2.726029 -218.867203
v -103.489037 -142.540222 -143.048126
v -83.633461 -81.554199 -204.659546
v -50.959305 -83.992691 -213.216629
v -50.959305 -83.992691 -213.216629
v -83.633461 -81.554199 -204.659546
v -67.327728 -56.252800 -231.481384
v -70.009575 132.574753 -171.349930
v -121.277527 38.941330 -212.010956
v -72.517052 132.019409 -168.555130
v -72.517052 132.019409 -168.555130
v -121.277527 38.941330 -212.010956
v -146.763245 15.435879 -194.046112
v -146.763245 15.435879 -194.046112
v -121.277527 38.941330 -212.010956
v -144.016632 -2.726029 -218.867203
v -48.016933 56.916683 -244.287323
v -121.277527 38.941330 -212.010956
v -70.009575 132.574753 -171.349930
v -63.189854 -3.003927 -241.745514
v -114.756126 13.083815 -227.515564
v -48.016933 56.916683 -244.287323
v -144.016632 -2.726029 -218.867203
v -114.756126 13.083815 -227.515564
v -63.189854 -3.003927 -241.745514
v -121.277527 38.941330 -212.010956
v -116.668411 26.704433 -222.735825
v -144.016632 -2.726029 -218.867203
v -114.756126 13.083815 -227.515564
v -111.193153 25.839500 -225.979614
v -48.016933 56.916683 -244.287323
v -48.016933 56.916683 -244.287323
v -111.193153 25.839500 -225.979614
v -116.668411 26.704433 -222.735825
v -144.016632 -2.726029 -218.867203
v -111.193153 25.839500 -225.979614
v -114.756126 13.083815 -227.515564
v -116.668411 26.704433 -222.735825
v -111.193153 25.839500 -225.979614
v -144.016632 -2.726029 -218.867203
v -48.016933 56.916683 -244.287323
v -112.057915 40.137535 -216.835175
v -121.277527 38.941330 -212.010956
v -121.277527 38.941330 -212.010956
v -112.057915 40.137535 -216.835175
v -116.668411 26.704433 -222.735825
v -48.016933 56.916683 -244.287323
v -116.668411 26.704433 -222.735825
v -112.057915 40.137535 -216.835175
vn -0.825504 -0.078724 0.558879
vn 0.139310 -0.114464 0.983611
vn 0.019889 -0.052454 0.998425
vn 0.141151 0.056644 0.988366
vn 0.822143 0.056578 -0.566463
vn 0.817629 0.055560 -0.573059
vn 0.737368 -0.353434 -0.575651
vn 0.235496 -0.941378 0.241556
vn 0.337046 -0.846900 0.411290
vn 0.661480 -0.442461 -0.605535
vn 0.998748 -0.049143 0.009370
vn 0.904069 -0.406547 -0.131829
vn 0.774063 -0.380022 -0.506370
vn 0.689839 -0.432042 -0.580915
vn 0.896376 -0.272927 -0.349316
vn 0.739414 0.653655 -0.161255
vn 0.162745 0.152036 0.974884
vn -0.869905 -0.052925 0.490372
vn 0.954695 0.170707 0.243755
vn 0.816056 0.574870 -0.059815
vn 0.927099 0.215053 0.306985
vn 0.160516 0.826940 -0.538892
vn -0.443881 0.304790 0.842658
vn -0.476836 0.293340 0.828601
vn -0.019602 -0.909242 -0.415807
vn -0.566486 -0.593912 -0.571281
vn 0.032110 0.819451 -0.572250
vn -0.990546 -0.022563 0.135310
vn -0.989155 -0.013101 0.146290
vn 0.022378 0.816028 -0.577579
vn 0.015041 0.822260 -0.568913
vn -0.206463 0.698632 -0.685044
vn -0.269357 0.833947 -0.481642
vn -0.539753 0.774271 -0.330410
vn -0.249632 0.516280 -0.819231
vn -0.252221 0.541006 -0.802307
vn -0.324722 0.605813 -0.726324
vn -0.653451 -0.497220 -0.570766
vn -0.851023 0.509785 0.126010
vn -0.927195 0.351980 0.128137
vn -0.827121 0.561030 -0.033409
vn -0.994255 -0.031921 0.102164
vn -0.995124 -0.012963 0.097781
vn -0.993524 -0.105121 -0.043124
vn 0.620133 -0.456591 -0.637934
vn 0.013526 -0.772712 -0.634613
vn -0.792044 0.558368 -0.246762
vn -0.999269 -0.028797 -0.025149
vn -0.995304 -0.083435 -0.049086
vn 0.471036 -0.435339 -0.767206
vn 0.009897 -0.208220 -0.978032
vn 0.205427 -0.513491 -0.833142
vn -0.360812 -0.296884 -0.884124
vn 0.002865 -0.578369 -0.815771
vn -0.247160 0.021492 -0.968736
vn -0.114767 -0.131343 -0.984671
vn -0.270495 -0.128789 -0.954068
vn -0.403351 -0.381931 -0.831527
vn -0.195076 -0.617062 -0.762351
vn -0.483794 -0.539038 -0.689479
vn -0.516860 -0.518670 -0.681056
vn -0.462116 -0.487505 -0.740802
vn -0.237400 -0.651053 -0.720952
vn -0.240574 -0.628805 -0.739411
vn -0.663576 0.572473 -0.481602
vn -0.756055 0.556737 -0.344130
vn -0.756536 0.485038 -0.438624
vn -0.445982 0.550619 -0.705634
vn -0.258801 0.024572 -0.965618
vn -0.272357 -0.022132 -0.961942
vn -0.554293 0.420670 -0.718190
vn -0.366592 0.211495 -0.906024
vn -0.425635 0.382022 -0.820301
vn -0.381794 0.214886 -0.898920
vn -0.448809 0.306724 -0.839339
vn -0.447990 0.520082 -0.727200
vn -0.454125 0.484339 -0.747787
vn -0.448824 0.484014 -0.751190
f 1//1 2//1 3//1
f 4//2 5//2 6//2
f 7//3 8//3 9//3
f 10//4 11//4 12//4
f 13//5 14//5 15//5
f 16//6 17//6 18//6
f 19//7 20//7 21//7
f 22//8 23//8 24//8
f 25//9 26//9 27//9
f 28//10 29//10 30//10
f 31//11 32//11 33//11
f 34//12 35//12 36//12
f 37//13 38//13 39//13
f 40//14 41//14 42//14
f 43//15 44//15 45//15
f 46//16 47//16 48//16
f 49//17 50//17 51//17
f 52//18 53//18 54//18
f 55//19 56//19 57//19
f 58//20 59//20 60//20
f 61//21 62//21 63//21
f 64//22 65//22 66//22
f 67//23 68//23 69//23
f 70//24 71//24 72//24
f 73//25 74//25 75//25
f 76//26 77//26 78//26
f 79//27 80//27 81//27
f 82//28 83//28 84//28
f 85//29 86//29 87//29
f 88//30 89//30 90//30
f 91//31 92//31 93//31
f 94//32 95//32 96//32
f 97//33 98//33 99//33
f 100//34 101//34 102//34
f 103//35 104//35 105//35
f 106//36 107//36 108//36
f 109//37 110//37 111//37
f 112//38 113//38 114//38
f 115//39 116//39 117//39
f 118//40 119//40 120//40
f 121//41 122//41 123//41
f 124//42 125//42 126//42
f 127//43 128//43 129//43
f 130//44 131//44 132//44
f 133//45 134//45 135//45
f 136//46 137//46 138//46
f 139//47 140//47 141//47
f 142//48 143//48 144//48
f 145//49 146//49 147//49
f 148//50 149//50 150//50
f 151//51 152//51 153//51
f 154//52 155//52 156//52
f 157//53 158//53 159//53
f 160//54 161//54 162//54
f 163//55 164//55 165//55
f 166//56 167//56 168//56
f 169//57 170//57 171//57
f 172//58 173//58 174//58
f 175//59 176//59 177//59
f 178//60 179//60 180//60
f 181//61 182//61 183//61
f 184//62 185//62 186//62
f 187//63 188//63 189//63
f 190//64 191//64 192//64
f 193//65 194//65 195//65
f 196//66 197//66 198//66
f 199//67 200//67 201//67
f 202//68 203//68 204//68
f 205//69 206//69 207//69
f 208//70 209//70 210//70
f 211//71 212//71 213//71
f 214//72 215//72 216//72
f 217//73 218//73 219//73
f 220//74 221//74 222//74
f 223//75 224//75 225//75
f 226//76 227//76 228//76
f 229//77 230//77 231//77
f 232//78 233//78 234//78
