o
v 32.690704 189.769180 62.229977
v -14.037475 104.048714 199.800812
v -13.829240 99.880562 199.543121
v -13.829240 99.880562 199.543121
v -14.622464 99.431702 199.770813
v -14.088605 99.677498 199.577057
v 32.690704 189.769180 62.229977
v -34.811878 111.274719 214.967209
v -14.037475 104.048714 199.800812
v -14.037475 104.048714 199.800812
v -34.811878 111.274719 214.967209
v -13.829240 99.880562 199.543121
v -13.829240 99.880562 199.543121
v -34.811878 111.274719 214.967209
v -14.622464 99.431702 199.770813
v -34.811878 111.274719 214.967209
v -35.042889 111.014786 214.975800
v -14.622464 99.431702 199.770813
v -35.042889 111.014786 214.975800
v -42.977821 108.094673 217.286179
v -14.622464 99.431702 199.770813
v -34.811878 111.274719 214.967209
v -42.977821 108.094673 217.286179
v -35.042889 111.014786 214.975800
v -42.977821 108.094673 217.286179
v -41.654610 102.535049 213.847855
v -14.622464 99.431702 199.770813
v 32.690704 189.769180 62.229977
v -2.802459 22.762501 61.496574
v -90.077187 -44.405754 -220.251022
v 32.690704 189.769180 62.229977
v -13.829240 99.880562 199.543121
v -2.802459 22.762501 61.496574
v -13.829240 99.880562 199.543121
v -14.088605 99.677498 199.577057
v -2.802459 22.762501 61.496574
v -14.622464 99.431702 199.770813
v -2.802459 22.762501 61.496574
v -14.088605 99.677498 199.577057
v 32.690704 189.769180 62.229977
v -44.530033 113.712265 214.000717
v -34.811878 111.274719 214.967209
v -34.811878 111.274719 214.967209
v -45.565975 112.891769 215.145782
v -42.977821 108.094673 217.286179
v -44.530033 113.712265 214.000717
v -45.565975 112.891769 215.145782
v -34.811878 111.274719 214.967209
v -45.565975 112.891769 215.145782
v -48.567307 111.451340 215.279602
v -42.977821 108.094673 217.286179
v -2.802459 22.762501 61.496574
v -147.602493 -54.406834 -117.397194
v -90.077187 -44.405754 -220.251022
v -90.077187 -44.405754 -220.251022
v -147.602493 -54.406834 -117.397194
v -179.274673 -54.694908 -166.655670
v -179.274673 -54.694908 -166.655670
v -147.602493 -54.406834 -117.397194
v -178.928864 -54.675770 -165.723602
v 32.690704 189.769180 62.229977
v -90.077187 -44.405754 -220.251022
v -39.642231 153.869949 -96.263344
v 32.690704 189.769180 62.229977
v -39.642231 153.869949 -96.263344
v -67.880486 189.639847 -75.943153
v -2.802459 22.762501 61.496574
v -150.865204 -38.228832 -27.852222
v -147.602493 -54.406834 -117.397194
v 32.690704 189.769180 62.229977
v -67.880486 189.639847 -75.943153
v -121.700699 220.716827 10.900882
v -90.077187 -44.405754 -220.251022
v -76.084236 158.290527 -109.403023
v -39.642231 153.869949 -96.263344
v -39.642231 153.869949 -96.263344
v -76.084236 158.290527 -109.403023
v -67.880486 189.639847 -75.943153
v 32.690704 189.769180 62.229977
v -121.685661 220.667053 11.044946
v -44.530033 113.712265 214.000717
v 32.690704 189.769180 62.229977
v -121.700699 220.716827 10.900882
v -121.685661 220.667053 11.044946
v -44.530033 113.712265 214.000717
v -135.583405 119.710861 182.518463
v -45.565975 112.891769 215.145782
v -121.685661 220.667053 11.044946
v -135.583405 119.710861 182.518463
v -44.530033 113.712265 214.000717
v -45.565975 112.891769 215.145782
v -135.583405 119.710861 182.518463
v -48.567307 111.451340 215.279602
v -48.567307 111.451340 215.279602
v -135.583405 119.710861 182.518463
v -42.977821 108.094673 217.286179
v -42.977821 108.094673 217.286179
v -135.583405 119.710861 182.518463
v -231.154297 -2.897705 116.030190
v -179.274673 -54.694908 -166.655670
v -231.154297 -2.897705 116.030190
v -249.180023 6.820118 110.066277
v -231.154297 -2.897705 116.030190
v -249.193604 6.832539 110.068932
v -249.180023 6.820118 110.066277
v -135.583405 119.710861 182.518463
v -249.246399 6.897563 110.095268
v -231.154297 -2.897705 116.030190
v -231.154297 -2.897705 116.030190
v -249.246399 6.897563 110.095268
v -249.193604 6.832539 110.068932
v -179.274673 -54.694908 -166.655670
v -178.928864 -54.675770 -165.723602
v -211.403351 -11.472269 97.401398
v -179.274673 -54.694908 -166.655670
v -211.403351 -11.472269 97.401398
v -231.154297 -2.897705 116.030190
v -147.602493 -54.406834 -117.397194
v -211.403351 -11.472269 97.401398
v -178.928864 -54.675770 -165.723602
v -150.865204 -38.228832 -27.852222
v -211.403351 -11.472269 97.401398
v -147.602493 -54.406834 -117.397194
v -42.977821 108.094673 217.286179
v -180.019943 5.580767 132.913055
v -41.654610 102.535049 213.847855
v -42.977821 108.094673 217.286179
v -231.154297 -2.897705 116.030190
v -180.019943 5.580767 132.913055
v -41.654610 102.535049 213.847855
v -180.019943 5.580767 132.913055
v -14.622464 99.431702 199.770813
v -211.403351 -11.472269 97.401398
v -180.019943 5.580767 132.913055
v -231.154297 -2.897705 116.030190
v -14.622464 99.431702 199.770813
v -180.019943 5.580767 132.913055
v -2.802459 22.762501 61.496574
v -2.802459 22.762501 61.496574
v -180.019943 5.580767 132.913055
v -150.865204 -38.228832 -27.852222
v -150.865204 -38.228832 -27.852222
v -180.019943 5.580767 132.913055
v -211.403351 -11.472269 97.401398
v -67.880486 189.639847 -75.943153
v -144.131073 215.683655 -18.393972
v -121.700699 220.716827 10.900882
v -179.274673 -54.694908 -166.655670
v -249.180023 6.820118 110.066277
v -252.122849 6.036836 15.139901
v -249.193604 6.832539 110.068932
v -252.122849 6.036836 15.139901
v -249.180023 6.820118 110.066277
v -249.246399 6.897563 110.095268
v -252.122849 6.036836 15.139901
v -249.193604 6.832539 110.068932
v -135.583405 119.710861 182.518463
v -184.937531 85.246536 145.991196
v -249.246399 6.897563 110.095268
v -76.084236 158.290527 -109.403023
v -182.471573 169.225479 -66.016731
v -67.880486 189.639847 -75.943153
v -67.880486 189.639847 -75.943153
v -182.471573 169.225479 -66.016731
v -144.131073 215.683655 -18.393972
v -144.131073 215.683655 -18.393972
v -218.083603 173.027252 -21.786079
v -121.700699 220.716827 10.900882
v -215.882507 173.555405 -28.484186
v -218.083603 173.027252 -21.786079
v -144.131073 215.683655 -18.393972
v -121.700699 220.716827 10.900882
v -218.083603 173.027252 -21.786079
v -121.685661 220.667053 11.044946
v -179.274673 -54.694908 -166.655670
v -252.122849 6.036836 15.139901
v -258.415619 53.589634 -40.325596
v -249.246399 6.897563 110.095268
v -258.415619 53.589634 -40.325596
v -252.122849 6.036836 15.139901
v -182.471573 169.225479 -66.016731
v -219.821533 168.072083 -38.608730
v -144.131073 215.683655 -18.393972
v -215.882507 173.555405 -28.484186
v -144.131073 215.683655 -18.393972
v -219.821533 168.072083 -38.608730
v -215.882507 173.555405 -28.484186
v -219.821533 168.072083 -38.608730
v -222.114014 167.869583 -32.491680
v -215.882507 173.555405 -28.484186
v -227.641434 163.723343 -31.829340
v -218.083603 173.027252 -21.786079
v -215.882507 173.555405 -28.484186
v -222.114014 167.869583 -32.491680
v -227.641434 163.723343 -31.829340
v -219.821533 168.072083 -38.608730
v -227.641434 163.723343 -31.829340
v -222.114014 167.869583 -32.491680
v -227.641434 163.723343 -31.829340
v -227.309662 163.979630 -31.103098
v -218.083603 173.027252 -21.786079
v -258.415619 53.589634 -40.325596
v -228.506226 162.467026 -30.647314
v -227.641434 163.723343 -31.829340
v -227.309662 163.979630 -31.103098
v -228.506226 162.467026 -30.647314
v -218.083603 173.027252 -21.786079
v -227.641434 163.723343 -31.829340
v -228.506226 162.467026 -30.647314
v -227.309662 163.979630 -31.103098
v -258.415619 53.589634 -40.325596
v -227.641434 163.723343 -31.829340
v -227.291687 161.291000 -34.420059
v -219.821533 168.072083 -38.608730
v -210.187836 158.732620 -60.495701
v -227.641434 163.723343 -31.829340
v -227.641434 163.723343 -31.829340
v -210.187836 158.732620 -60.495701
v -227.291687 161.291000 -34.420059
v -182.471573 169.225479 -66.016731
v -210.187836 158.732620 -60.495701
v -219.821533 168.072083 -38.608730
v -76.084236 158.290527 -109.403023
v -187.757599 156.679703 -72.837578
v -182.471573 169.225479 -66.016731
v -228.506226 162.467026 -30.647314
v -227.235153 159.982559 -17.907198
v -218.083603 173.027252 -21.786079
v -121.685661 220.667053 11.044946
v -205.325958 156.929382 36.785027
v -135.583405 119.710861 182.518463
v -218.083603 173.027252 -21.786079
v -205.325958 156.929382 36.785027
v -121.685661 220.667053 11.044946
v -135.583405 119.710861 182.518463
v -205.325958 156.929382 36.785027
v -184.937531 85.246536 145.991196
v -184.937531 85.246536 145.991196
v -223.257278 85.338242 86.331711
v -249.246399 6.897563 110.095268
v -205.325958 156.929382 36.785027
v -223.257278 85.338242 86.331711
v -184.937531 85.246536 145.991196
v -249.246399 6.897563 110.095268
v -257.401489 81.697014 5.238912
v -258.415619 53.589634 -40.325596
v -256.660583 82.464821 14.697157
v -257.401489 81.697014 5.238912
v -249.246399 6.897563 110.095268
v -258.415619 53.589634 -40.325596
v -257.401489 81.697014 5.238912
v -228.506226 162.467026 -30.647314
v -90.077187 -44.405754 -220.251022
v -202.613983 138.609100 -80.049347
v -76.084236 158.290527 -109.403023
v -76.084236 158.290527 -109.403023
v -202.613983 138.609100 -80.049347
v -187.757599 156.679703 -72.837578
v -182.471573 169.225479 -66.016731
v -202.613983 138.609100 -80.049347
v -210.187836 158.732620 -60.495701
v -187.757599 156.679703 -72.837578
v -202.613983 138.609100 -80.049347
v -182.471573 169.225479 -66.016731
v -210.187836 158.732620 -60.495701
v -213.779373 140.913864 -68.173378
v -227.291687 161.291000 -34.420059
v -202.613983 138.609100 -80.049347
v -213.779373 140.913864 -68.173378
v -210.187836 158.732620 -60.495701
v -227.235153 159.982559 -17.907198
v -234.049057 140.776093 4.566109
v -218.083603 173.027252 -21.786079
v -218.083603 173.027252 -21.786079
v -234.049057 140.776093 4.566109
v -205.325958 156.929382 36.785027
v -228.506226 162.467026 -30.647314
v -234.049057 140.776093 4.566109
v -227.235153 159.982559 -17.907198
v -256.660583 82.464821 14.697157
v -252.614044 96.554878 10.220264
v -257.401489 81.697014 5.238912
v -256.660583 82.464821 14.697157
v -252.603470 96.517410 10.326687
v -252.614044 96.554878 10.220264
v -90.077187 -44.405754 -220.251022
v -179.274673 -54.694908 -166.655670
v -223.391006 96.428642 -85.924316
v -90.077187 -44.405754 -220.251022
v -223.391006 96.428642 -85.924316
v -202.613983 138.609100 -80.049347
v -213.779373 140.913864 -68.173378
v -223.391006 96.428642 -85.924316
v -227.291687 161.291000 -34.420059
v -202.613983 138.609100 -80.049347
v -223.391006 96.428642 -85.924316
v -213.779373 140.913864 -68.173378
v -258.415619 53.589634 -40.325596
v -227.291687 161.291000 -34.420059
v -223.391006 96.428642 -85.924316
v -179.274673 -54.694908 -166.655670
v -258.415619 53.589634 -40.325596
v -223.391006 96.428642 -85.924316
v -257.401489 81.697014 5.238912
v -244.932480 119.224037 5.431224
v -228.506226 162.467026 -30.647314
v -252.614044 96.554878 10.220264
v -244.932480 119.224037 5.431224
v -257.401489 81.697014 5.238912
v -252.603470 96.517410 10.326687
v -244.932480 119.224037 5.431224
v -252.614044 96.554878 10.220264
v -228.506226 162.467026 -30.647314
v -244.932480 119.224037 5.431224
v -234.049057 140.776093 4.566109
v -205.325958 156.929382 36.785027
v -241.934692 114.079514 22.965380
v -223.257278 85.338242 86.331711
v -234.049057 140.776093 4.566109
v -241.934692 114.079514 22.965380
v -205.325958 156.929382 36.785027
v -256.660583 82.464821 14.697157
v -249.246399 6.897563 110.095268
v -241.934692 114.079514 22.965380
v -256.660583 82.464821 14.697157
v -241.934692 114.079514 22.965380
v -252.603470 96.517410 10.326687
v -223.257278 85.338242 86.331711
v -241.934692 114.079514 22.965380
v -249.246399 6.897563 110.095268
v -252.603470 96.517410 10.326687
v -241.934692 114.079514 22.965380
v -244.932480 119.224037 5.431224
v -244.932480 119.224037 5.431224
v -241.934692 114.079514 22.965380
v -234.049057 140.776093 4.566109
vn 0.941448 0.026252 0.336136
vn 0.490935 -0.508877 0.707126
vn 0.605189 0.566963 0.558837
vn 0.584752 -0.020922 0.810942
vn 0.431358 -0.337975 0.836482
vn 0.424060 -0.349258 0.835579
vn 0.389223 -0.401858 0.828864
vn 0.365832 -0.295963 0.882368
vn 0.381077 -0.418995 0.824151
vn 0.948323 -0.200463 -0.245964
vn 0.959953 -0.204854 0.191117
vn 0.591014 -0.683206 0.428873
vn 0.503142 -0.736841 0.451568
vn 0.161986 0.846741 0.506746
vn 0.081351 0.442391 0.893125
vn 0.123603 0.750294 0.649446
vn -0.125172 0.347158 0.929415
vn 0.358081 -0.927174 0.110117
vn 0.085325 -0.995145 -0.049042
vn -0.053873 -0.997727 0.040474
vn 0.906426 0.032756 -0.421093
vn 0.579284 0.697208 -0.422293
vn 0.279498 -0.943016 0.180558
vn 0.251649 0.950156 -0.184056
vn 0.351920 0.430296 -0.831263
vn 0.326596 0.648459 -0.687631
vn 0.025839 0.888396 0.458349
vn 0.083742 0.944522 0.317592
vn -0.118415 0.854755 0.505344
vn -0.115190 0.860055 0.497027
vn -0.240376 0.573604 0.783069
vn -0.354853 -0.032347 0.934362
vn -0.366498 -0.206310 0.907257
vn -0.491005 -0.868419 0.069011
vn -0.533656 -0.688447 0.491174
vn -0.393891 -0.181588 0.901042
vn -0.530519 -0.650763 0.543192
vn -0.276923 -0.953076 0.122312
vn -0.299200 -0.946795 0.118573
vn -0.199526 -0.970585 0.134739
vn -0.072401 -0.981944 0.174769
vn -0.108318 -0.541410 0.833752
vn -0.218066 -0.429680 0.876255
vn 0.211799 -0.786521 0.580109
vn 0.009271 -0.904583 0.426196
vn 0.275587 -0.830509 0.484052
vn 0.208224 -0.933436 0.292129
vn 0.183220 -0.939552 0.289261
vn 0.128417 0.956313 -0.262631
vn -0.602205 -0.797942 0.025253
vn -0.671795 -0.740247 0.026935
vn -0.770195 -0.637144 0.029107
vn -0.680692 0.241910 0.691475
vn -0.187726 0.739319 -0.646658
vn -0.190263 0.774898 -0.602771
vn -0.493790 0.837450 0.234200
vn -0.494176 0.864238 -0.094247
vn -0.506001 0.797577 0.328380
vn -0.893690 -0.385685 -0.229271
vn -0.994947 -0.095499 0.031005
vn -0.373748 0.796186 -0.475816
vn -0.456535 0.844568 -0.279789
vn -0.589672 0.783737 -0.195046
vn -0.611513 0.778832 -0.139541
vn -0.604395 0.779246 -0.165780
vn -0.603140 0.772030 -0.200481
vn -0.752133 0.648974 0.114580
vn -0.891680 0.276790 -0.358183
vn -0.758128 0.638969 0.130233
vn -0.760182 0.638137 0.122082
vn -0.883490 0.276066 -0.378461
vn -0.712156 0.475575 -0.516394
vn -0.725935 0.449790 -0.520295
vn -0.391896 0.771245 -0.501596
vn -0.268012 0.544888 -0.794523
vn -0.774843 0.601457 0.194597
vn -0.464187 0.779210 0.421143
vn -0.506099 0.797127 0.329321
vn -0.712252 0.518394 0.473249
vn -0.769131 0.404681 0.494641
vn -0.725862 0.505008 0.467003
vn -0.997983 -0.041651 0.047905
vn -0.996950 0.000703 0.078038
vn -0.950221 0.274188 -0.147989
vn -0.268344 0.476404 -0.837276
vn -0.269013 0.539561 -0.797813
vn -0.363700 0.575131 -0.732767
vn -0.283954 0.547572 -0.787106
vn -0.755203 0.381798 -0.532821
vn -0.622542 0.412130 -0.665275
vn -0.739260 0.605977 0.293745
vn -0.714004 0.619699 0.325840
vn -0.838848 0.512459 0.183627
vn -0.955447 0.290679 0.051247
vn -0.920665 0.330437 0.207815
vn -0.517928 0.280511 -0.808124
vn -0.462861 0.341904 -0.817839
vn -0.759415 0.375960 -0.530983
vn -0.626973 0.401792 -0.667434
vn -0.869664 0.273840 -0.410727
vn -0.819809 0.064632 -0.568979
vn -0.947534 0.315110 -0.053720
vn -0.948546 0.315319 -0.028879
vn -0.910242 0.353867 0.215029
vn -0.881731 0.450835 0.138917
vn -0.746806 0.494677 0.444495
vn -0.753255 0.509322 0.416171
vn -0.886277 0.327053 0.327947
vn -0.896649 0.345122 0.277329
vn -0.815423 0.397617 0.420697
vn -0.896897 0.358752 0.258599
vn -0.853562 0.442099 0.275644
f 1//1 2//1 3//1
f 4//2 5//2 6//2
f 7//3 8//3 9//3
f 10//4 11//4 12//4
f 13//5 14//5 15//5
f 16//6 17//6 18//6
f 19//7 20//7 21//7
f 22//8 23//8 24//8
f 25//9 26//9 27//9
f 28//10 29//10 30//10
f 31//11 32//11 33//11
f 34//12 35//12 36//12
f 37//13 38//13 39//13
f 40//14 41//14 42//14
f 43//15 44//15 45//15
f 46//16 47//16 48//16
f 49//17 50//17 51//17
f 52//18 53//18 54//18
f 55//19 56//19 57//19
f 58//20 59//20 60//20
f 61//21 62//21 63//21
f 64//22 65//22 66//22
f 67//23 68//23 69//23
f 70//24 71//24 72//24
f 73//25 74//25 75//25
f 76//26 77//26 78//26
f 79//27 80//27 81//27
f 82//28 83//28 84//28
f 85//29 86//29 87//29
f 88//30 89//30 90//30
f 91//31 92//31 93//31
f 94//32 95//32 96//32
f 97//33 98//33 99//33
f 100//34 101//34 102//34
f 103//35 104//35 105//35
f 106//36 107//36 108//36
f 109//37 110//37 111//37
f 112//38 113//38 114//38
f 115//39 116//39 117//39
f 118//40 119//40 120//40
f 121//41 122//41 123//41
f 124//42 125//42 126//42
f 127//43 128//43 129//43
f 130//44 131//44 132//44
f 133//45 134//45 135//45
f 136//46 137//46 138//46
f 139//47 140//47 141//47
f 142//48 143//48 144//48
f 145//49 146//49 147//49
f 148//50 149//50 150//50
f 151//51 152//51 153//51
f 154//52 155//52 156//52
f 157//53 158//53 159//53
f 160//54 161//54 162//54
f 163//55 164//55 165//55
f 166//56 167//56 168//56
f 169//57 170//57 171//57
f 172//58 173//58 174//58
f 175//59 176//59 177//59
f 178//60 179//60 180//60
f 181//61 182//61 183//61
f 184//62 185//62 186//62
f 187//63 188//63 189//63
f 190//64 191//64 192//64
f 193//65 194//65 195//65
f 196//66 197//66 198//66
f 199//67 200//67 201//67
f 202//68 203//68 204//68
f 205//69 206//69 207//69
f 208//70 209//70 210//70
f 211//71 212//71 213//71
f 214//72 215//72 216//72
f 217//73 218//73 219//73
f 220//74 221//74 222//74
f 223//75 224//75 225//75
f 226//76 227//76 228//76
f 229//77 230//77 231//77
f 232//78 233//78 234//78
f 235//79 236//79 237//79
f 238//80 239//80 240//80
f 241//81 242//81 243//81
f 244//82 245//82 246//82
f 247//83 248//83 249//83
f 250//84 251//84 252//84
f 253//85 254//85 255//85
f 256//86 257//86 258//86
f 259//87 260//87 261//87
f 262//88 263//88 264//88
f 265//89 266//89 267//89
f 268//90 269//90 270//90
f 271//91 272//91 273//91
f 274//92 275//92 276//92
f 277//93 278//93 279//93
f 280//94 281//94 282//94
f 283//95 284//95 285//95
f 286//96 287//96 288//96
f 289//97 290//97 291//97
f 292//98 293//98 294//98
f 295//99 296//99 297//99
f 298//100 299//100 300//100
f 301//101 302//101 303//101
f 304//102 305//102 306//102
f 307//103 308//103 309//103
f 310//104 311//104 312//104
f 313//105 314//105 315//105
f 316//106 317//106 318//106
f 319//107 320//107 321//107
f 322//108 323//108 324//108
f 325//109 326//109 327//109
f 328//110 329//110 330//110
f 331//111 332//111 333//111
f 334//112 335//112 336//112
