o
v 33.038868 -115.884590 -112.998718
v 104.143295 -145.882538 -110.960464
v 104.450043 -146.332718 -110.916183
v 33.038868 -115.884590 -112.998718
v 109.672691 -137.486328 -111.728241
v 104.143295 -145.882538 -110.960464
v 104.143295 -145.882538 -110.960464
v 109.672691 -137.486328 -111.728241
v 104.450043 -146.332718 -110.916183
v 33.038868 -115.884590 -112.998718
v 108.478683 -131.730301 -111.979340
v 109.672691 -137.486328 -111.728241
v 109.672691 -137.486328 -111.728241
v 108.478683 -131.730301 -111.979340
v 111.087486 -134.613602 -111.353447
v 109.672691 -137.486328 -111.728241
v 114.788208 -146.436569 -106.446838
v 104.450043 -146.332718 -110.916183
v 109.672691 -137.486328 -111.728241
v 111.087486 -134.613602 -111.353447
v 114.788208 -146.436569 -106.446838
v 33.038868 -115.884590 -112.998718
v 104.450043 -146.332718 -110.916183
v 88.763504 -158.318085 -95.733917
v 33.038868 -115.884590 -112.998718
v 88.763504 -158.318085 -95.733917
v 88.546188 -158.326767 -95.629807
v 114.788208 -146.436569 -106.446838
v 109.903656 -177.299210 -79.750549
v 104.450043 -146.332718 -110.916183
v 104.450043 -146.332718 -110.916183
v 109.387856 -205.270874 -50.726562
v 88.763504 -158.318085 -95.733917
v 109.903656 -177.299210 -79.750549
v 109.387856 -205.270874 -50.726562
v 104.450043 -146.332718 -110.916183
v 33.038868 -115.884590 -112.998718
v 88.546188 -158.326767 -95.629807
v 108.877548 -205.105835 -50.792942
v 88.763504 -158.318085 -95.733917
v 108.877548 -205.105835 -50.792942
v 88.546188 -158.326767 -95.629807
v 109.387856 -205.270874 -50.726562
v 108.877548 -205.105835 -50.792942
v 88.763504 -158.318085 -95.733917
v 109.387856 -205.270874 -50.726562
v 109.058067 -205.155487 -50.507298
v 108.877548 -205.105835 -50.792942
v 33.038868 -115.884590 -112.998718
v 108.877548 -205.105835 -50.792942
v 107.942688 -204.662567 -49.394104
v 109.058067 -205.155487 -50.507298
v 107.942688 -204.662567 -49.394104
v 108.877548 -205.105835 -50.792942
v 33.038868 -115.884590 -112.998718
v 176.793076 194.101089 10.952516
v 108.478683 -131.730301 -111.979340
v 33.038868 -115.884590 -112.998718
v 176.437988 194.250244 11.167534
v 176.793076 194.101089 10.952516
v 33.038868 -115.884590 -112.998718
v 107.942688 -204.662567 -49.394104
v -48.350914 2.616271 187.345276
v 111.087486 -134.613602 -111.353447
v 237.705566 -112.002487 -22.287092
v 114.788208 -146.436569 -106.446838
v 111.087486 -134.613602 -111.353447
v 112.395401 -133.864716 -110.434715
v 237.705566 -112.002487 -22.287092
v 114.788208 -146.436569 -106.446838
v 237.705566 -112.002487 -22.287092
v 109.903656 -177.299210 -79.750549
v 109.903656 -177.299210 -79.750549
v 237.705566 -112.002487 -22.287092
v 109.387856 -205.270874 -50.726562
v 108.478683 -131.730301 -111.979340
v 200.598312 124.624397 -3.790315
v 111.087486 -134.613602 -111.353447
v 176.793076 194.101089 10.952516
v 200.598312 124.624397 -3.790315
v 108.478683 -131.730301 -111.979340
v 111.087486 -134.613602 -111.353447
v 200.598312 124.624397 -3.790315
v 112.395401 -133.864716 -110.434715
v 112.395401 -133.864716 -110.434715
v 200.598312 124.624397 -3.790315
v 237.705566 -112.002487 -22.287092
v 200.598312 124.624397 -3.790315
v 236.147903 -94.068413 48.742603
v 237.705566 -112.002487 -22.287092
v 237.705566 -112.002487 -22.287092
v 158.244690 -178.177673 51.855869
v 109.387856 -205.270874 -50.726562
v 236.147903 -94.068413 48.742603
v 158.244690 -178.177673 51.855869
v 237.705566 -112.002487 -22.287092
v 33.038868 -115.884590 -112.998718
v 43.769325 107.603722 122.602150
v 176.437988 194.250244 11.167534
v 33.038868 -115.884590 -112.998718
v -48.350914 2.616271 187.345276
v 43.769325 107.603722 122.602150
v -48.350914 2.616271 187.345276
v 94.668152 66.980911 199.097565
v 43.769325 107.603722 122.602150
v 48.007126 22.743528 221.674271
v 94.668152 66.980911 199.097565
v -48.350914 2.616271 187.345276
v 109.387856 -205.270874 -50.726562
v 126.995056 -169.812759 102.661530
v 109.058067 -205.155487 -50.507298
v 109.058067 -205.155487 -50.507298
v 126.995056 -169.812759 102.661530
v 107.942688 -204.662567 -49.394104
v 158.244690 -178.177673 51.855869
v 126.995056 -169.812759 102.661530
v 109.387856 -205.270874 -50.726562
v 107.942688 -204.662567 -49.394104
v 126.995056 -169.812759 102.661530
v -48.350914 2.616271 187.345276
v 43.769325 107.603722 122.602150
v 114.320229 73.168404 194.605026
v 176.437988 194.250244 11.167534
v 94.668152 66.980911 199.097565
v 114.320229 73.168404 194.605026
v 43.769325 107.603722 122.602150
v 48.007126 22.743528 221.674271
v 101.270462 35.365654 214.125961
v 94.668152 66.980911 199.097565
v 94.668152 66.980911 199.097565
v 101.270462 35.365654 214.125961
v 114.320229 73.168404 194.605026
v 48.007126 22.743528 221.674271
v -48.350914 2.616271 187.345276
v 70.519798 -31.410332 206.114868
v 126.995056 -169.812759 102.661530
v 70.519798 -31.410332 206.114868
v -48.350914 2.616271 187.345276
v 48.007126 22.743528 221.674271
v 70.519798 -31.410332 206.114868
v 88.216110 4.563290 212.728394
v 101.270462 35.365654 214.125961
v 121.964417 56.303467 197.922272
v 114.320229 73.168404 194.605026
v 48.007126 22.743528 221.674271
v 112.974365 26.885880 211.825775
v 101.270462 35.365654 214.125961
v 48.007126 22.743528 221.674271
v 88.216110 4.563290 212.728394
v 112.974365 26.885880 211.825775
v 176.437988 194.250244 11.167534
v 139.247223 69.779060 183.976608
v 176.793076 194.101089 10.952516
v 114.320229 73.168404 194.605026
v 139.247223 69.779060 183.976608
v 176.437988 194.250244 11.167534
v 121.964417 56.303467 197.922272
v 139.247223 69.779060 183.976608
v 114.320229 73.168404 194.605026
v 101.270462 35.365654 214.125961
v 144.011749 31.618034 197.311646
v 121.964417 56.303467 197.922272
v 112.974365 26.885880 211.825775
v 144.011749 31.618034 197.311646
v 101.270462 35.365654 214.125961
v 121.964417 56.303467 197.922272
v 144.011749 31.618034 197.311646
v 139.247223 69.779060 183.976608
v 194.415222 -90.383530 123.497505
v 183.630081 -110.598480 118.216591
v 214.699524 -88.604935 96.660339
v 236.147903 -94.068413 48.742603
v 183.630081 -110.598480 118.216591
v 158.244690 -178.177673 51.855869
v 236.147903 -94.068413 48.742603
v 214.699524 -88.604935 96.660339
v 183.630081 -110.598480 118.216591
v 158.244690 -178.177673 51.855869
v 183.630081 -110.598480 118.216591
v 126.995056 -169.812759 102.661530
v 176.793076 194.101089 10.952516
v 203.556824 -21.877045 115.557404
v 200.598312 124.624397 -3.790315
v 200.598312 124.624397 -3.790315
v 203.556824 -21.877045 115.557404
v 236.147903 -94.068413 48.742603
v 236.147903 -94.068413 48.742603
v 203.556824 -21.877045 115.557404
v 214.699524 -88.604935 96.660339
v 139.247223 69.779060 183.976608
v 173.387268 -0.267664 173.264236
v 176.793076 194.101089 10.952516
v 176.793076 194.101089 10.952516
v 173.387268 -0.267664 173.264236
v 203.556824 -21.877045 115.557404
v 144.011749 31.618034 197.311646
v 173.387268 -0.267664 173.264236
v 139.247223 69.779060 183.976608
v 70.519798 -31.410332 206.114868
v 171.193314 -49.179707 175.723175
v 88.216110 4.563290 212.728394
v 88.216110 4.563290 212.728394
v 171.193314 -49.179707 175.723175
v 112.974365 26.885880 211.825775
v 126.995056 -169.812759 102.661530
v 171.193314 -49.179707 175.723175
v 70.519798 -31.410332 206.114868
v 183.630081 -110.598480 118.216591
v 171.193314 -49.179707 175.723175
v 126.995056 -169.812759 102.661530
v 194.415222 -90.383530 123.497505
v 171.193314 -49.179707 175.723175
v 183.630081 -110.598480 118.216591
v 112.974365 26.885880 211.825775
v 171.193314 -49.179707 175.723175
v 144.011749 31.618034 197.311646
v 144.011749 31.618034 197.311646
v 171.193314 -49.179707 175.723175
v 173.387268 -0.267664 173.264236
v 194.415222 -90.383530 123.497505
v 214.699524 -88.604935 96.660339
v 171.193314 -49.179707 175.723175
v 203.556824 -21.877045 115.557404
v 175.316956 -5.063185 169.882431
v 214.699524 -88.604935 96.660339
v 173.387268 -0.267664 173.264236
v 175.316956 -5.063185 169.882431
v 203.556824 -21.877045 115.557404
v 171.193314 -49.179707 175.723175
v 175.316956 -5.063185 169.882431
v 173.387268 -0.267664 173.264236
v 214.699524 -88.604935 96.660339
v 175.316956 -5.063185 169.882431
v 171.193314 -49.179707 175.723175
vn -0.017897 -0.109946 -0.993776
vn -0.007729 -0.086012 -0.996264
vn 0.005141 -0.094419 -0.995519
vn 0.004544 -0.042641 -0.999080
vn 0.241364 0.007735 -0.970404
vn 0.375704 -0.302224 -0.876075
vn 0.552954 -0.165793 -0.816551
vn -0.243823 -0.622701 -0.743501
vn -0.299050 -0.669407 -0.680046
vn 0.295590 -0.651309 -0.698872
vn -0.121525 -0.714166 -0.689347
vn -0.110728 -0.714628 -0.690685
vn -0.368527 -0.721743 -0.585897
vn -0.273862 -0.724881 -0.632097
vn -0.143102 -0.716909 -0.682322
vn -0.311287 -0.949790 0.031627
vn -0.663943 -0.715619 -0.216954
vn -0.352435 -0.933886 0.060396
vn 0.083340 0.336427 -0.938014
vn -0.303234 0.471700 -0.827979
vn -0.776842 -0.628578 0.037490
vn 0.586517 -0.146963 -0.796492
vn 0.575584 -0.002045 -0.817740
vn 0.562073 -0.590182 -0.579447
vn 0.562388 -0.600353 -0.568591
vn 0.441146 0.209732 -0.872584
vn 0.274204 0.288611 -0.917342
vn 0.492896 0.182773 -0.850675
vn 0.551078 0.150576 -0.820755
vn 0.987556 0.156257 -0.017796
vn 0.596948 -0.798924 -0.073303
vn 0.724560 -0.664302 0.183617
vn -0.722736 0.517554 -0.458029
vn -0.797370 0.455554 -0.395817
vn -0.365230 0.699360 0.614412
vn -0.365088 0.698943 0.614971
vn -0.174049 -0.954864 0.240711
vn -0.180683 -0.953513 0.241176
vn 0.088648 -0.972655 0.214669
vn -0.615471 -0.747946 0.248540
vn -0.116749 0.846594 0.519277
vn -0.139860 0.832942 0.535394
vn 0.024952 0.433429 0.900842
vn 0.066344 0.439638 0.895721
vn -0.245299 -0.360536 0.899912
vn -0.296072 -0.646431 0.703185
vn 0.110183 -0.231884 0.966483
vn 0.350714 0.331257 0.875939
vn 0.153147 -0.056246 0.986601
vn 0.156893 -0.134449 0.978421
vn 0.584385 0.593581 0.553313
vn 0.352162 0.721861 0.595733
vn 0.407260 0.350484 0.843386
vn 0.371463 0.310118 0.875124
vn 0.372786 0.274049 0.886526
vn 0.410812 0.346044 0.843497
vn 0.703972 -0.505828 0.498559
vn 0.687912 -0.623396 0.371691
vn 0.695515 -0.609309 0.380791
vn 0.575668 -0.672703 0.464841
vn 0.922617 0.254646 0.289712
vn 0.948842 0.210724 0.235147
vn 0.913686 0.037981 0.404643
vn 0.836640 0.342382 0.427559
vn 0.889273 0.283885 0.358613
vn 0.775468 0.292372 0.559615
vn 0.230678 -0.284542 0.930496
vn 0.256745 -0.246977 0.934390
vn 0.150229 -0.551856 0.820296
vn 0.410180 -0.577696 0.705705
vn 0.591476 -0.484033 0.644878
vn 0.433426 -0.093675 0.896307
vn 0.639843 0.009931 0.768442
vn 0.774334 -0.281748 0.566591
vn 0.889542 0.019279 0.456445
vn 0.891655 0.040843 0.450869
vn 0.860438 -0.012987 0.509389
vn 0.872412 -0.016874 0.488480
f 1//1 2//1 3//1
f 4//2 5//2 6//2
f 7//3 8//3 9//3
f 10//4 11//4 12//4
f 13//5 14//5 15//5
f 16//6 17//6 18//6
f 19//7 20//7 21//7
f 22//8 23//8 24//8
f 25//9 26//9 27//9
f 28//10 29//10 30//10
f 31//11 32//11 33//11
f 34//12 35//12 36//12
f 37//13 38//13 39//13
f 40//14 41//14 42//14
f 43//15 44//15 45//15
f 46//16 47//16 48//16
f 49//17 50//17 51//17
f 52//18 53//18 54//18
f 55//19 56//19 57//19
f 58//20 59//20 60//20
f 61//21 62//21 63//21
f 64//22 65//22 66//22
f 67//23 68//23 69//23
f 70//24 71//24 72//24
f 73//25 74//25 75//25
f 76//26 77//26 78//26
f 79//27 80//27 81//27
f 82//28 83//28 84//28
f 85//29 86//29 87//29
f 88//30 89//30 90//30
f 91//31 92//31 93//31
f 94//32 95//32 96//32
f 97//33 98//33 99//33
f 100//34 101//34 102//34
f 103//35 104//35 105//35
f 106//36 107//36 108//36
f 109//37 110//37 111//37
f 112//38 113//38 114//38
f 115//39 116//39 117//39
f 118//40 119//40 120//40
f 121//41 122//41 123//41
f 124//42 125//42 126//42
f 127//43 128//43 129//43
f 130//44 131//44 132//44
f 133//45 134//45 135//45
f 136//46 137//46 138//46
f 139//47 140//47 141//47
f 142//48 143//48 144//48
f 145//49 146//49 147//49
f 148//50 149//50 150//50
f 151//51 152//51 153//51
f 154//52 155//52 156//52
f 157//53 158//53 159//53
f 160//54 161//54 162//54
f 163//55 164//55 165//55
f 166//56 167//56 168//56
f 169//57 170//57 171//57
f 172//58 173//58 174//58
f 175//59 176//59 177//59
f 178//60 179//60 180//60
f 181//61 182//61 183//61
f 184//62 185//62 186//62
f 187//63 188//63 189//63
f 190//64 191//64 192//64
f 193//65 194//65 195//65
f 196//66 197//66 198//66
f 199//67 200//67 201//67
f 202//68 203//68 204//68
f 205//69 206//69 207//69
f 208//70 209//70 210//70
f 211//71 212//71 213//71
f 214//72 215//72 216//72
f 217//73 218//73 219//73
f 220//74 221//74 222//74
f 223//75 224//75 225//75
f 226//76 227//76 228//76
f 229//77 230//77 231//77
f 232//78 233//78 234//78
