o
v 53.718430 -33.718391 -195.805679
v 53.849129 -33.540833 -195.731247
v 166.433411 -1.820096 -163.561813
v 53.718430 -33.718391 -195.805679
v 166.433411 -1.820096 -163.561813
v 100.533783 -110.588593 -128.600784
v 53.599525 -33.743561 -195.801987
v 53.718430 -33.718391 -195.805679
v 100.533783 -110.588593 -128.600784
v 166.433411 -1.820096 -163.561813
v 100.765152 -111.684914 -127.667252
v 100.533783 -110.588593 -128.600784
v 53.599525 -33.743561 -195.801987
v 100.533783 -110.588593 -128.600784
v 100.765152 -111.684914 -127.667252
v 166.410385 -1.867321 -163.479523
v 99.092484 -190.188904 -56.878716
v 166.433411 -1.820096 -163.561813
v 166.433411 -1.820096 -163.561813
v 99.092484 -190.188904 -56.878716
v 100.765152 -111.684914 -127.667252
v -171.561844 23.317261 -130.112381
v 53.599525 -33.743561 -195.801987
v 94.362549 -192.476257 -55.386475
v 53.599525 -33.743561 -195.801987
v 100.765152 -111.684914 -127.667252
v 94.362549 -192.476257 -55.386475
v 99.092484 -190.188904 -56.878716
v 94.362549 -192.476257 -55.386475
v 100.765152 -111.684914 -127.667252
v 99.092484 -190.188904 -56.878716
v 94.426186 -192.513794 -54.780376
v 94.362549 -192.476257 -55.386475
v 53.849129 -33.540833 -195.731247
v -46.187561 20.734287 -176.483322
v 166.433411 -1.820096 -163.561813
v -171.561844 23.317261 -130.112381
v -46.187561 20.734287 -176.483322
v 53.599525 -33.743561 -195.801987
v 53.718430 -33.718391 -195.805679
v -46.187561 20.734287 -176.483322
v 53.849129 -33.540833 -195.731247
v 53.599525 -33.743561 -195.801987
v -46.187561 20.734287 -176.483322
v 53.718430 -33.718391 -195.805679
v -171.561844 23.317261 -130.112381
v 94.362549 -192.476257 -55.386475
v -149.389877 -38.079426 180.035172
v 94.426186 -192.513794 -54.780376
v -149.389877 -38.079426 180.035172
v 94.362549 -192.476257 -55.386475
v -171.561844 23.317261 -130.112381
v 65.949303 252.089172 6.105904
v -46.187561 20.734287 -176.483322
v -46.187561 20.734287 -176.483322
v 65.949303 252.089172 6.105904
v 166.433411 -1.820096 -163.561813
v -171.561844 23.317261 -130.112381
v -149.389877 -38.079426 180.035172
v -128.499725 185.809509 84.527252
v -171.561844 23.317261 -130.112381
v -128.499725 185.809509 84.527252
v 65.949303 252.089172 6.105904
v 65.949303 252.089172 6.105904
v 96.841782 189.038239 64.668182
v 166.433411 -1.820096 -163.561813
v -128.499725 185.809509 84.527252
v -11.863451 230.473129 92.062248
v 65.949303 252.089172 6.105904
v 94.426186 -192.513794 -54.780376
v -18.808601 -45.820049 223.165619
v -149.389877 -38.079426 180.035172
v 99.092484 -190.188904 -56.878716
v 74.427986 -7.353916 214.810883
v 94.426186 -192.513794 -54.780376
v 94.426186 -192.513794 -54.780376
v 74.427986 -7.353916 214.810883
v -18.808601 -45.820049 223.165619
v 99.092484 -190.188904 -56.878716
v 80.670982 5.964200 214.415375
v 74.427986 -7.353916 214.810883
v 166.410385 -1.867321 -163.479523
v 166.433411 -1.820096 -163.561813
v 111.469849 55.287273 170.513474
v 166.410385 -1.867321 -163.479523
v 111.469849 55.287273 170.513474
v 99.092484 -190.188904 -56.878716
v 99.092484 -190.188904 -56.878716
v 111.469849 55.287273 170.513474
v 80.670982 5.964200 214.415375
v 96.841782 189.038239 64.668182
v 113.517517 99.158096 176.066833
v 166.433411 -1.820096 -163.561813
v 166.433411 -1.820096 -163.561813
v 113.517517 99.158096 176.066833
v 111.469849 55.287273 170.513474
v 74.427986 -7.353916 214.810883
v 37.944996 -4.777626 227.565063
v -18.808601 -45.820049 223.165619
v 80.670982 5.964200 214.415375
v 37.944996 -4.777626 227.565063
v 74.427986 -7.353916 214.810883
v 111.469849 55.287273 170.513474
v 93.221298 41.349747 207.397629
v 80.670982 5.964200 214.415375
v 113.517517 99.158096 176.066833
v 93.221298 41.349747 207.397629
v 111.469849 55.287273 170.513474
v 80.670982 5.964200 214.415375
v 93.221298 41.349747 207.397629
v 37.944996 -4.777626 227.565063
v 65.949303 252.089172 6.105904
v 94.613029 126.622734 182.974075
v 96.841782 189.038239 64.668182
v 96.841782 189.038239 64.668182
v 94.613029 126.622734 182.974075
v 113.517517 99.158096 176.066833
v 65.949303 252.089172 6.105904
v 94.403412 126.628471 183.298828
v 94.613029 126.622734 182.974075
v 113.517517 99.158096 176.066833
v 94.403412 126.628471 183.298828
v 93.221298 41.349747 207.397629
v 94.613029 126.622734 182.974075
v 94.403412 126.628471 183.298828
v 113.517517 99.158096 176.066833
v -18.808601 -45.820049 223.165619
v -29.219093 68.612175 224.762100
v -149.389877 -38.079426 180.035172
v 37.944996 -4.777626 227.565063
v -29.219093 68.612175 224.762100
v -18.808601 -45.820049 223.165619
v -149.389877 -38.079426 180.035172
v -29.219093 68.612175 224.762100
v -128.499725 185.809509 84.527252
v -29.219093 68.612175 224.762100
v -40.252544 130.034943 182.146515
v -128.499725 185.809509 84.527252
v 93.221298 41.349747 207.397629
v 52.018768 29.351233 219.261841
v 37.944996 -4.777626 227.565063
v 65.949303 252.089172 6.105904
v 63.342991 156.884445 169.089279
v 94.403412 126.628471 183.298828
v 65.949303 252.089172 6.105904
v 62.923512 157.344833 168.799225
v 63.342991 156.884445 169.089279
v 63.342991 156.884445 169.089279
v 40.257553 170.221863 169.013748
v 94.403412 126.628471 183.298828
v -11.863451 230.473129 92.062248
v 40.257553 170.221863 169.013748
v 65.949303 252.089172 6.105904
v 65.949303 252.089172 6.105904
v 40.257553 170.221863 169.013748
v 62.923512 157.344833 168.799225
v 62.923512 157.344833 168.799225
v 40.257553 170.221863 169.013748
v 63.342991 156.884445 169.089279
v -128.499725 185.809509 84.527252
v -23.506065 148.216003 182.141953
v -11.863451 230.473129 92.062248
v -40.252544 130.034943 182.146515
v -23.506065 148.216003 182.141953
v -128.499725 185.809509 84.527252
v -29.219093 68.612175 224.762100
v -23.506065 148.216003 182.141953
v -40.252544 130.034943 182.146515
v -11.863451 230.473129 92.062248
v 11.746487 146.107574 195.331909
v 40.257553 170.221863 169.013748
v -23.506065 148.216003 182.141953
v 11.746487 146.107574 195.331909
v -11.863451 230.473129 92.062248
v 11.746487 146.107574 195.331909
v 20.982620 136.179520 205.263000
v 40.257553 170.221863 169.013748
v -29.219093 68.612175 224.762100
v 20.982620 136.179520 205.263000
v -23.506065 148.216003 182.141953
v -23.506065 148.216003 182.141953
v 20.982620 136.179520 205.263000
v 11.746487 146.107574 195.331909
v 94.403412 126.628471 183.298828
v 36.846455 134.775970 201.705048
v 93.221298 41.349747 207.397629
v 40.257553 170.221863 169.013748
v 36.846455 134.775970 201.705048
v 94.403412 126.628471 183.298828
v 20.982620 136.179520 205.263000
v 36.846455 134.775970 201.705048
v 40.257553 170.221863 169.013748
v 20.982620 136.179520 205.263000
v 31.104876 132.140869 204.200394
v 36.846455 134.775970 201.705048
v 37.944996 -4.777626 227.565063
v 9.816520 84.350815 219.157242
v -29.219093 68.612175 224.762100
v -29.219093 68.612175 224.762100
v 9.816520 84.350815 219.157242
v 20.982620 136.179520 205.263000
v 36.846455 134.775970 201.705048
v 28.226667 106.370316 212.011276
v 93.221298 41.349747 207.397629
v 31.104876 132.140869 204.200394
v 28.226667 106.370316 212.011276
v 36.846455 134.775970 201.705048
v 20.982620 136.179520 205.263000
v 28.226667 106.370316 212.011276
v 31.104876 132.140869 204.200394
v 9.816520 84.350815 219.157242
v 28.226667 106.370316 212.011276
v 20.982620 136.179520 205.263000
v 52.018768 29.351233 219.261841
v 27.721289 96.301720 214.548416
v 37.944996 -4.777626 227.565063
v 37.944996 -4.777626 227.565063
v 27.721289 96.301720 214.548416
v 9.816520 84.350815 219.157242
v 9.816520 84.350815 219.157242
v 27.721289 96.301720 214.548416
v 28.226667 106.370316 212.011276
v 93.221298 41.349747 207.397629
v 27.721289 96.301720 214.548416
v 52.018768 29.351233 219.261841
v 28.226667 106.370316 212.011276
v 27.721289 96.301720 214.548416
v 93.221298 41.349747 207.397629
vn 0.200360 0.249657 -0.947379
vn 0.363910 -0.477530 -0.799709
vn 0.106378 -0.616949 -0.779781
vn 0.466881 -0.514137 -0.719504
vn 0.044008 -0.642289 -0.765198
vn 0.953821 -0.281243 0.105488
vn 0.591213 -0.547011 -0.592661
vn -0.359378 -0.668380 -0.651241
vn -0.022323 -0.665614 -0.745963
vn 0.089995 -0.668009 -0.738691
vn 0.407724 -0.907720 -0.099025
vn 0.105207 0.498972 -0.860208
vn -0.336386 -0.299555 -0.892811
vn 0.023229 0.371909 -0.927979
vn -0.074560 0.209188 -0.975029
vn -0.606897 -0.786797 -0.112368
vn -0.532675 -0.846313 0.003514
vn -0.244997 0.671030 -0.699783
vn 0.110703 0.582096 -0.805549
vn -0.986317 0.133371 0.096912
vn -0.450194 0.753076 -0.479794
vn 0.915602 0.398441 -0.054014
vn -0.351621 0.932381 -0.083836
vn -0.184941 -0.898230 0.398721
vn 0.555665 -0.665524 0.498312
vn 0.360853 -0.756058 0.546042
vn 0.855166 -0.390753 0.340593
vn 0.971088 -0.150305 0.185461
vn 0.953285 -0.229745 0.196127
vn 0.906243 -0.310980 0.286383
vn 0.961378 0.265996 0.070702
vn 0.982544 -0.067790 0.173241
vn 0.264615 -0.456942 0.849225
vn 0.319851 -0.122031 0.939576
vn 0.902044 -0.250170 0.351756
vn 0.906022 -0.094510 0.412544
vn 0.271244 0.093776 0.957931
vn 0.661417 0.658145 0.359683
vn 0.822565 0.496424 0.277398
vn 0.617173 0.685496 0.386255
vn 0.595991 0.210703 0.774854
vn 0.770644 0.407159 0.490233
vn -0.315595 -0.041937 0.947967
vn -0.063128 -0.019664 0.997812
vn -0.590372 0.362679 0.721058
vn -0.549444 0.407414 0.729469
vn 0.237315 0.136146 0.961845
vn 0.516361 0.735834 0.438086
vn 0.507850 0.740276 0.440544
vn 0.397468 0.691386 0.603328
vn 0.281698 0.838776 0.465942
vn 0.442535 0.771323 0.457410
vn 0.417192 0.725210 0.547742
vn -0.315822 0.720620 0.617222
vn -0.506675 0.466877 0.724780
vn -0.478477 0.440913 0.759378
vn -0.058031 0.766580 0.639521
vn -0.197992 0.736432 0.646890
vn 0.029864 0.720650 0.692655
vn -0.305282 0.466411 0.830219
vn -0.264150 0.548106 0.793603
vn 0.326984 0.252791 0.910593
vn 0.316468 0.626485 0.712295
vn 0.220639 0.649700 0.727467
vn 0.234376 0.348663 0.907470
vn 0.092526 0.122417 0.988156
vn 0.037599 0.251189 0.967208
vn 0.306537 0.241076 0.920824
vn 0.288077 0.248155 0.924895
vn 0.203940 0.263035 0.942985
vn 0.087926 0.240218 0.966729
vn 0.215317 0.146119 0.965551
vn 0.156977 0.141741 0.977378
vn 0.089249 0.239158 0.966870
vn 0.232373 0.151966 0.960682
vn 0.286788 0.220523 0.932267
f 1//1 2//1 3//1
f 4//2 5//2 6//2
f 7//3 8//3 9//3
f 10//4 11//4 12//4
f 13//5 14//5 15//5
f 16//6 17//6 18//6
f 19//7 20//7 21//7
f 22//8 23//8 24//8
f 25//9 26//9 27//9
f 28//10 29//10 30//10
f 31//11 32//11 33//11
f 34//12 35//12 36//12
f 37//13 38//13 39//13
f 40//14 41//14 42//14
f 43//15 44//15 45//15
f 46//16 47//16 48//16
f 49//17 50//17 51//17
f 52//18 53//18 54//18
f 55//19 56//19 57//19
f 58//20 59//20 60//20
f 61//21 62//21 63//21
f 64//22 65//22 66//22
f 67//23 68//23 69//23
f 70//24 71//24 72//24
f 73//25 74//25 75//25
f 76//26 77//26 78//26
f 79//27 80//27 81//27
f 82//28 83//28 84//28
f 85//29 86//29 87//29
f 88//30 89//30 90//30
f 91//31 92//31 93//31
f 94//32 95//32 96//32
f 97//33 98//33 99//33
f 100//34 101//34 102//34
f 103//35 104//35 105//35
f 106//36 107//36 108//36
f 109//37 110//37 111//37
f 112//38 113//38 114//38
f 115//39 116//39 117//39
f 118//40 119//40 120//40
f 121//41 122//41 123//41
f 124//42 125//42 126//42
f 127//43 128//43 129//43
f 130//44 131//44 132//44
f 133//45 134//45 135//45
f 136//46 137//46 138//46
f 139//47 140//47 141//47
f 142//48 143//48 144//48
f 145//49 146//49 147//49
f 148//50 149//50 150//50
f 151//51 152//51 153//51
f 154//52 155//52 156//52
f 157//53 158//53 159//53
f 160//54 161//54 162//54
f 163//55 164//55 165//55
f 166//56 167//56 168//56
f 169//57 170//57 171//57
f 172//58 173//58 174//58
f 175//59 176//59 177//59
f 178//60 179//60 180//60
f 181//61 182//61 183//61
f 184//62 185//62 186//62
f 187//63 188//63 189//63
f 190//64 191//64 192//64
f 193//65 194//65 195//65
f 196//66 197//66 198//66
f 199//67 200//67 201//67
f 202//68 203//68 204//68
f 205//69 206//69 207//69
f 208//70 209//70 210//70
f 211//71 212//71 213//71
f 214//72 215//72 216//72
f 217//73 218//73 219//73
f 220//74 221//74 222//74
f 223//75 224//75 225//75
f 226//76 227//76 228//76
