o
v -26.177818 34.867176 -169.652069
v -30.061895 197.141556 -105.286713
v -21.258745 199.975403 -102.440201
v -26.177818 34.867176 -169.652069
v -128.411728 -67.905914 -114.413513
v -170.267853 -40.300102 -122.287949
v -26.177818 34.867176 -169.652069
v -16.914013 -49.946896 -11.657019
v -128.411728 -67.905914 -114.413513
v -26.177818 34.867176 -169.652069
v -21.258745 199.975403 -102.440201
v 2.048709 151.424805 149.337402
v -26.177818 34.867176 -169.652069
v 2.048709 151.424805 149.337402
v -16.914013 -49.946896 -11.657019
v -128.411728 -67.905914 -114.413513
v -225.358765 13.036285 43.298294
v -170.267853 -40.300102 -122.287949
v -170.267853 -40.300102 -122.287949
v -225.358765 13.036285 43.298294
v -195.390625 32.649548 -82.341614
v -30.061895 197.141556 -105.286713
v -75.514671 223.229660 69.296234
v -21.258745 199.975403 -102.440201
v -21.258745 199.975403 -102.440201
v -75.514671 223.229660 69.296234
v 2.048709 151.424805 149.337402
v -170.267853 -40.300102 -122.287949
v -195.390625 32.649548 -82.341614
v -211.329025 92.013504 -52.740631
v -225.358765 13.036285 43.298294
v -211.329025 92.013504 -52.740631
v -195.390625 32.649548 -82.341614
v -75.514671 223.229660 69.296234
v -34.346188 151.933929 166.387009
v 2.048709 151.424805 149.337402
v -34.346188 151.933929 166.387009
v -37.094242 143.375458 175.962799
v 2.048709 151.424805 149.337402
v -75.514671 223.229660 69.296234
v -37.094242 143.375458 175.962799
v -34.346188 151.933929 166.387009
v -26.177818 34.867176 -169.652069
v -142.400711 38.494835 -109.773552
v -30.061895 197.141556 -105.286713
v -30.061895 197.141556 -105.286713
v -142.400711 38.494835 -109.773552
v -211.329025 92.013504 -52.740631
v -26.177818 34.867176 -169.652069
v -170.267853 -40.300102 -122.287949
v -142.400711 38.494835 -109.773552
v -170.267853 -40.300102 -122.287949
v -211.329025 92.013504 -52.740631
v -142.400711 38.494835 -109.773552
v -225.358765 13.036285 43.298294
v -208.528595 90.410240 37.644684
v -211.329025 92.013504 -52.740631
v -43.112152 1.215952 124.082603
v -46.870163 0.265548 125.975464
v -16.914013 -49.946896 -11.657019
v 2.048709 151.424805 149.337402
v -29.238157 21.002722 103.398811
v -16.914013 -49.946896 -11.657019
v -43.112152 1.215952 124.082603
v -29.238157 21.002722 103.398811
v 2.048709 151.424805 149.337402
v -43.112152 1.215952 124.082603
v -16.914013 -49.946896 -11.657019
v -29.238157 21.002722 103.398811
v -208.528595 90.410240 37.644684
v -185.345078 147.623932 91.622284
v -211.329025 92.013504 -52.740631
v -225.358765 13.036285 43.298294
v -185.345078 147.623932 91.622284
v -208.528595 90.410240 37.644684
v -225.358765 13.036285 43.298294
v -186.993591 136.905121 95.660484
v -185.345078 147.623932 91.622284
v -37.094242 143.375458 175.962799
v -70.759689 106.602036 186.469513
v -74.381195 93.416595 188.489258
v -37.094242 143.375458 175.962799
v -76.424858 76.789909 188.803497
v 2.048709 151.424805 149.337402
v -37.094242 143.375458 175.962799
v -74.381195 93.416595 188.489258
v -76.424858 76.789909 188.803497
v -43.112152 1.215952 124.082603
v 2.048709 151.424805 149.337402
v -76.424858 76.789909 188.803497
v -186.993591 136.905121 95.660484
v -180.752502 139.813965 103.694916
v -185.345078 147.623932 91.622284
v -37.094242 143.375458 175.962799
v -97.287903 99.988174 192.393051
v -70.759689 106.602036 186.469513
v -70.759689 106.602036 186.469513
v -97.287903 99.988174 192.393051
v -74.381195 93.416595 188.489258
v -74.381195 93.416595 188.489258
v -100.076004 82.295998 194.628540
v -76.424858 76.789909 188.803497
v -97.287903 99.988174 192.393051
v -100.076004 82.295998 194.628540
v -74.381195 93.416595 188.489258
v -37.094242 143.375458 175.962799
v -96.268387 106.739548 188.267731
v -97.287903 99.988174 192.393051
v -97.559654 100.347404 192.078735
v -97.287903 99.988174 192.393051
v -96.268387 106.739548 188.267731
v -43.112152 1.215952 124.082603
v -77.380402 8.882204 154.475876
v -46.870163 0.265548 125.975464
v -43.112152 1.215952 124.082603
v -76.424858 76.789909 188.803497
v -77.380402 8.882204 154.475876
v -100.076004 82.295998 194.628540
v -115.889633 38.598007 185.676971
v -76.424858 76.789909 188.803497
v -76.424858 76.789909 188.803497
v -115.889633 38.598007 185.676971
v -77.380402 8.882204 154.475876
v -185.345078 147.623932 91.622284
v -153.943100 153.112473 125.245468
v -75.514671 223.229660 69.296234
v -180.752502 139.813965 103.694916
v -153.975677 152.972076 125.430840
v -185.345078 147.623932 91.622284
v -185.345078 147.623932 91.622284
v -153.975677 152.972076 125.430840
v -153.943100 153.112473 125.245468
v -75.514671 223.229660 69.296234
v -153.975677 152.972076 125.430840
v -37.094242 143.375458 175.962799
v -153.943100 153.112473 125.245468
v -153.975677 152.972076 125.430840
v -75.514671 223.229660 69.296234
v -37.094242 143.375458 175.962799
v -153.975677 152.972076 125.430840
v -96.268387 106.739548 188.267731
v -97.287903 99.988174 192.393051
v -137.583191 95.181183 177.091660
v -100.076004 82.295998 194.628540
v -97.559654 100.347404 192.078735
v -137.583191 95.181183 177.091660
v -97.287903 99.988174 192.393051
v -186.993591 136.905121 95.660484
v -137.583191 95.181183 177.091660
v -180.752502 139.813965 103.694916
v -100.076004 82.295998 194.628540
v -137.583191 95.181183 177.091660
v -115.889633 38.598007 185.676971
v -180.752502 139.813965 103.694916
v -137.583191 95.181183 177.091660
v -153.975677 152.972076 125.430840
v -97.559654 100.347404 192.078735
v -96.268387 106.739548 188.267731
v -137.583191 95.181183 177.091660
v -153.975677 152.972076 125.430840
v -137.583191 95.181183 177.091660
v -96.268387 106.739548 188.267731
v -30.061895 197.141556 -105.286713
v -160.345795 152.596161 12.632140
v -75.514671 223.229660 69.296234
v -30.061895 197.141556 -105.286713
v -211.329025 92.013504 -52.740631
v -160.345795 152.596161 12.632140
v -185.345078 147.623932 91.622284
v -160.345795 152.596161 12.632140
v -211.329025 92.013504 -52.740631
v -185.345078 147.623932 91.622284
v -75.514671 223.229660 69.296234
v -160.345795 152.596161 12.632140
v -16.914013 -49.946896 -11.657019
v -94.658577 -17.852346 97.662773
v -128.411728 -67.905914 -114.413513
v -46.870163 0.265548 125.975464
v -94.658577 -17.852346 97.662773
v -16.914013 -49.946896 -11.657019
v -77.380402 8.882204 154.475876
v -94.658577 -17.852346 97.662773
v -46.870163 0.265548 125.975464
v -128.411728 -67.905914 -114.413513
v -94.658577 -17.852346 97.662773
v -225.358765 13.036285 43.298294
v -225.358765 13.036285 43.298294
v -144.643036 85.557938 167.092667
v -186.993591 136.905121 95.660484
v -186.993591 136.905121 95.660484
v -144.643036 85.557938 167.092667
v -137.583191 95.181183 177.091660
v -137.583191 95.181183 177.091660
v -144.643036 85.557938 167.092667
v -115.889633 38.598007 185.676971
v -225.358765 13.036285 43.298294
v -155.782806 32.802589 140.591614
v -144.643036 85.557938 167.092667
v -144.643036 85.557938 167.092667
v -155.782806 32.802589 140.591614
v -115.889633 38.598007 185.676971
v -115.889633 38.598007 185.676971
v -106.755173 -0.395417 131.942551
v -77.380402 8.882204 154.475876
v -77.380402 8.882204 154.475876
v -106.755173 -0.395417 131.942551
v -94.658577 -17.852346 97.662773
v -94.658577 -17.852346 97.662773
v -106.755173 -0.395417 131.942551
v -225.358765 13.036285 43.298294
v -225.358765 13.036285 43.298294
v -106.755173 -0.395417 131.942551
v -155.782806 32.802589 140.591614
v -155.782806 32.802589 140.591614
v -106.755173 -0.395417 131.942551
v -115.889633 38.598007 185.676971
vn 0.177346 0.366521 -0.913351
vn -0.091642 -0.399174 -0.912284
vn 0.514718 -0.742459 -0.428743
vn 0.995844 0.007286 -0.090782
vn 0.996552 -0.032976 -0.076133
vn -0.559232 -0.825168 0.079734
vn -0.948607 -0.186816 -0.255429
vn -0.239524 0.949174 -0.204196
vn 0.623716 0.776225 0.091942
vn -0.522807 0.263826 -0.810598
vn -0.959171 -0.133084 -0.249561
vn 0.247305 0.828038 0.503183
vn 0.327788 0.655726 0.680131
vn -0.170091 0.758490 0.629096
vn -0.425110 0.324916 -0.844814
vn -0.435044 0.331732 -0.837073
vn -0.431414 0.288343 -0.854834
vn -0.461853 0.296127 -0.836062
vn -0.976064 0.214799 0.034052
vn 0.405477 -0.826786 0.389890
vn 0.900963 -0.319526 0.293543
vn 0.899557 -0.320375 0.296912
vn 0.899492 -0.322256 0.295069
vn -0.937345 0.346621 0.035190
vn -0.958945 0.221525 0.177063
vn -0.957960 0.217721 0.186841
vn 0.201637 0.093960 0.974943
vn 0.578559 -0.188718 0.793508
vn 0.348437 -0.025119 0.936996
vn 0.646489 -0.311464 0.696450
vn -0.801411 0.314842 0.508542
vn 0.192289 0.102803 0.975939
vn 0.193993 0.096263 0.976268
vn 0.236772 -0.010742 0.971506
vn 0.193135 0.092982 0.976756
vn -0.156382 0.532075 0.832130
vn -0.236406 0.532368 0.812833
vn 0.482596 -0.548831 0.682558
vn 0.565365 -0.378440 0.732902
vn 0.174086 -0.257692 0.950415
vn 0.347059 -0.426983 0.835006
vn -0.490230 0.808376 0.325887
vn -0.684349 0.465333 0.561366
vn -0.577702 0.696344 0.425869
vn -0.212826 0.743863 0.633540
vn -0.316334 0.782163 0.536800
vn -0.255168 0.651966 0.714024
vn -0.367631 0.173381 0.913666
vn -0.364044 0.441950 0.819849
vn -0.806661 0.156841 0.569824
vn -0.431420 -0.028589 0.901698
vn -0.688276 0.365135 0.626859
vn -0.356464 0.530530 0.769071
vn -0.358919 0.563404 0.744146
vn -0.511926 0.820053 -0.255822
vn -0.542323 0.783556 -0.303193
vn -0.661088 0.732361 -0.163125
vn -0.580191 0.803541 -0.133041
vn -0.064090 -0.968931 0.238884
vn 0.133019 -0.921412 0.365111
vn 0.111593 -0.911819 0.395137
vn -0.325090 -0.907523 0.265931
vn -0.847197 0.038402 0.529889
vn -0.840438 0.056576 0.538946
vn -0.718317 -0.173159 0.673823
vn -0.793646 -0.130872 0.594137
vn -0.724919 -0.180820 0.664678
vn -0.172758 -0.810911 0.559086
vn -0.052824 -0.897277 0.438297
vn -0.343992 -0.880240 0.326874
vn -0.437154 -0.767679 0.468579
vn -0.432059 -0.763237 0.480411
f 1//1 2//1 3//1
f 4//2 5//2 6//2
f 7//3 8//3 9//3
f 10//4 11//4 12//4
f 13//5 14//5 15//5
f 16//6 17//6 18//6
f 19//7 20//7 21//7
f 22//8 23//8 24//8
f 25//9 26//9 27//9
f 28//10 29//10 30//10
f 31//11 32//11 33//11
f 34//12 35//12 36//12
f 37//13 38//13 39//13
f 40//14 41//14 42//14
f 43//15 44//15 45//15
f 46//16 47//16 48//16
f 49//17 50//17 51//17
f 52//18 53//18 54//18
f 55//19 56//19 57//19
f 58//20 59//20 60//20
f 61//21 62//21 63//21
f 64//22 65//22 66//22
f 67//23 68//23 69//23
f 70//24 71//24 72//24
f 73//25 74//25 75//25
f 76//26 77//26 78//26
f 79//27 80//27 81//27
f 82//28 83//28 84//28
f 85//29 86//29 87//29
f 88//30 89//30 90//30
f 91//31 92//31 93//31
f 94//32 95//32 96//32
f 97//33 98//33 99//33
f 100//34 101//34 102//34
f 103//35 104//35 105//35
f 106//36 107//36 108//36
f 109//37 110//37 111//37
f 112//38 113//38 114//38
f 115//39 116//39 117//39
f 118//40 119//40 120//40
f 121//41 122//41 123//41
f 124//42 125//42 126//42
f 127//43 128//43 129//43
f 130//44 131//44 132//44
f 133//45 134//45 135//45
f 136//46 137//46 138//46
f 139//47 140//47 141//47
f 142//48 143//48 144//48
f 145//49 146//49 147//49
f 148//50 149//50 150//50
f 151//51 152//51 153//51
f 154//52 155//52 156//52
f 157//53 158//53 159//53
f 160//54 161//54 162//54
f 163//55 164//55 165//55
f 166//56 167//56 168//56
f 169//57 170//57 171//57
f 172//58 173//58 174//58
f 175//59 176//59 177//59
f 178//60 179//60 180//60
f 181//61 182//61 183//61
f 184//62 185//62 186//62
f 187//63 188//63 189//63
f 190//64 191//64 192//64
f 193//65 194//65 195//65
f 196//66 197//66 198//66
f 199//67 200//67 201//67
f 202//68 203//68 204//68
f 205//69 206//69 207//69
f 208//70 209//70 210//70
f 211//71 212//71 213//71
f 214//72 215//72 216//72
