o
v 144.046249 -5.273098 212.761475
v 55.819901 -139.944275 -104.811005
v 163.334488 -140.960724 -54.522423
v 144.046249 -5.273098 212.761475
v -98.355591 -43.291824 -56.909618
v 55.819901 -139.944275 -104.811005
v 144.046249 -5.273098 212.761475
v -98.212906 -42.222309 -55.868423
v -98.355591 -43.291824 -56.909618
v 55.819901 -139.944275 -104.811005
v 144.361801 -75.498886 -177.020187
v 163.334488 -140.960724 -54.522423
v 144.361801 -75.498886 -177.020187
v 168.106323 -54.638485 -173.487030
v 163.334488 -140.960724 -54.522423
v 144.046249 -5.273098 212.761475
v 163.334488 -140.960724 -54.522423
v 216.720261 -13.623159 -112.897911
v 168.106323 -54.638485 -173.487030
v 216.720261 -13.623159 -112.897911
v 163.334488 -140.960724 -54.522423
v 144.361801 -75.498886 -177.020187
v 154.914932 -53.699944 -186.085541
v 168.106323 -54.638485 -173.487030
v -98.212906 -42.222309 -55.868423
v -115.052490 163.648712 -53.488121
v -98.355591 -43.291824 -56.909618
v -98.212906 -42.222309 -55.868423
v -98.598618 156.421524 8.423595
v -115.052490 163.648712 -53.488121
v -115.052490 163.648712 -53.488121
v -98.915100 184.339203 -70.740082
v -99.908264 182.866821 -72.076042
v 144.361801 -75.498886 -177.020187
v 112.125748 -34.978535 -213.032059
v 154.914932 -53.699944 -186.085541
v 55.819901 -139.944275 -104.811005
v 112.125748 -34.978535 -213.032059
v 144.361801 -75.498886 -177.020187
v -98.598618 156.421524 8.423595
v -43.697319 205.280441 81.301559
v -115.052490 163.648712 -53.488121
v -115.052490 163.648712 -53.488121
v -43.697319 205.280441 81.301559
v -98.915100 184.339203 -70.740082
v -98.598618 156.421524 8.423595
v -44.929649 202.359909 81.789917
v -43.697319 205.280441 81.301559
v -98.598618 156.421524 8.423595
v -45.442436 201.067871 80.919762
v -44.929649 202.359909 81.789917
v 144.046249 -5.273098 212.761475
v 216.720261 -13.623159 -112.897911
v 182.168808 53.377754 89.529449
v 112.125748 -34.978535 -213.032059
v 100.302010 -16.672709 -227.371307
v 154.914932 -53.699944 -186.085541
v -43.697319 205.280441 81.301559
v 29.347675 169.296143 145.973465
v -43.533073 205.342682 81.338425
v -44.929649 202.359909 81.789917
v 29.347675 169.296143 145.973465
v -43.697319 205.280441 81.301559
v 144.046249 -5.273098 212.761475
v 29.347675 169.296143 145.973465
v -44.929649 202.359909 81.789917
v 100.302010 -16.672709 -227.371307
v 102.416161 -13.973158 -227.801880
v 154.914932 -53.699944 -186.085541
v 55.819901 -139.944275 -104.811005
v 87.958038 -16.031181 -227.705322
v 112.125748 -34.978535 -213.032059
v 112.125748 -34.978535 -213.032059
v 87.958038 -16.031181 -227.705322
v 100.302010 -16.672709 -227.371307
v 102.416161 -13.973158 -227.801880
v 103.169441 -3.951867 -228.134293
v 154.914932 -53.699944 -186.085541
v 102.416161 -13.973158 -227.801880
v 101.351768 -3.266380 -229.287872
v 103.169441 -3.951867 -228.134293
v 144.046249 -5.273098 212.761475
v 80.093857 124.402916 150.884094
v 29.347675 169.296143 145.973465
v 202.820740 186.047287 -3.318563
v 202.658966 187.795990 2.840844
v 204.410568 179.536270 -9.072241
v -98.355591 -43.291824 -56.909618
v 15.099807 17.304152 -235.062393
v 55.819901 -139.944275 -104.811005
v 55.819901 -139.944275 -104.811005
v 15.099807 17.304152 -235.062393
v 87.958038 -16.031181 -227.705322
v 202.658966 187.795990 2.840844
v 207.648071 159.625916 -4.236300
v 204.410568 179.536270 -9.072241
v 216.720261 -13.623159 -112.897911
v 206.195541 165.452454 -14.662733
v 207.648071 159.625916 -4.236300
v 207.648071 159.625916 -4.236300
v 206.195541 165.452454 -14.662733
v 204.410568 179.536270 -9.072241
v 216.720261 -13.623159 -112.897911
v 199.087524 135.330002 31.705420
v 182.168808 53.377754 89.529449
v 216.720261 -13.623159 -112.897911
v 207.648071 159.625916 -4.236300
v 199.087524 135.330002 31.705420
v 144.046249 -5.273098 212.761475
v 182.168808 53.377754 89.529449
v 199.087524 135.330002 31.705420
v 144.046249 -5.273098 212.761475
v 199.087524 135.330002 31.705420
v 202.658966 187.795990 2.840844
v 202.658966 187.795990 2.840844
v 199.087524 135.330002 31.705420
v 207.648071 159.625916 -4.236300
v 100.302010 -16.672709 -227.371307
v 26.899860 30.174679 -244.300110
v 102.416161 -13.973158 -227.801880
v 87.958038 -16.031181 -227.705322
v 26.899860 30.174679 -244.300110
v 100.302010 -16.672709 -227.371307
v 102.416161 -13.973158 -227.801880
v 26.899860 30.174679 -244.300110
v 101.351768 -3.266380 -229.287872
v 15.099807 17.304152 -235.062393
v 26.899860 30.174679 -244.300110
v 87.958038 -16.031181 -227.705322
v -115.052490 163.648712 -53.488121
v -51.375294 60.137234 -173.820618
v -98.355591 -43.291824 -56.909618
v -98.355591 -43.291824 -56.909618
v -51.375294 60.137234 -173.820618
v 15.099807 17.304152 -235.062393
v -115.052490 163.648712 -53.488121
v -99.908264 182.866821 -72.076042
v -51.375294 60.137234 -173.820618
v 15.099807 17.304152 -235.062393
v -51.375294 60.137234 -173.820618
v 26.899860 30.174679 -244.300110
v -43.697319 205.280441 81.301559
v -20.913300 244.507538 -1.742850
v -98.915100 184.339203 -70.740082
v -98.915100 184.339203 -70.740082
v -20.913300 244.507538 -1.742850
v -58.091789 216.152939 -40.437325
v -43.697319 205.280441 81.301559
v -43.533073 205.342682 81.338425
v 1.438532 258.102631 -4.104724
v -43.697319 205.280441 81.301559
v 1.438532 258.102631 -4.104724
v -20.913300 244.507538 -1.742850
v -14.289715 213.939301 77.580650
v 1.438532 258.102631 -4.104724
v -43.533073 205.342682 81.338425
v -20.913300 244.507538 -1.742850
v 1.438532 258.102631 -4.104724
v -58.091789 216.152939 -40.437325
v 29.347675 169.296143 145.973465
v 26.320412 218.959122 81.589859
v -43.533073 205.342682 81.338425
v -14.289715 213.939301 77.580650
v -43.533073 205.342682 81.338425
v 26.320412 218.959122 81.589859
v -14.289715 213.939301 77.580650
v 26.320412 218.959122 81.589859
v 1.438532 258.102631 -4.104724
v 216.720261 -13.623159 -112.897911
v 204.352295 99.009560 -85.734779
v 206.195541 165.452454 -14.662733
v 206.195541 165.452454 -14.662733
v 204.352295 99.009560 -85.734779
v 204.410568 179.536270 -9.072241
v 29.347675 169.296143 145.973465
v 57.909695 211.166656 88.976807
v 26.320412 218.959122 81.589859
v 26.320412 218.959122 81.589859
v 57.909695 211.166656 88.976807
v 35.904102 218.130356 81.657448
v 144.046249 -5.273098 212.761475
v -36.162285 108.584122 65.708267
v -98.212906 -42.222309 -55.868423
v -45.442436 201.067871 80.919762
v -36.162285 108.584122 65.708267
v -44.929649 202.359909 81.789917
v 144.046249 -5.273098 212.761475
v -44.929649 202.359909 81.789917
v -36.162285 108.584122 65.708267
v -98.212906 -42.222309 -55.868423
v -36.162285 108.584122 65.708267
v -98.598618 156.421524 8.423595
v -98.598618 156.421524 8.423595
v -36.162285 108.584122 65.708267
v -45.442436 201.067871 80.919762
v 26.320412 218.959122 81.589859
v 35.904102 218.130356 81.657448
v 34.973446 228.642517 63.266483
v 57.909695 211.166656 88.976807
v 34.973446 228.642517 63.266483
v 35.904102 218.130356 81.657448
v 26.320412 218.959122 81.589859
v 18.605160 248.346436 19.458790
v 1.438532 258.102631 -4.104724
v 26.320412 218.959122 81.589859
v 34.973446 228.642517 63.266483
v 18.605160 248.346436 19.458790
v 101.351768 -3.266380 -229.287872
v 69.812706 71.823807 -242.364731
v 103.169441 -3.951867 -228.134293
v 26.899860 30.174679 -244.300110
v 69.812706 71.823807 -242.364731
v 101.351768 -3.266380 -229.287872
v -51.375294 60.137234 -173.820618
v 36.083992 71.859009 -236.543060
v 26.899860 30.174679 -244.300110
v 26.899860 30.174679 -244.300110
v 36.083992 71.859009 -236.543060
v 69.812706 71.823807 -242.364731
v 216.720261 -13.623159 -112.897911
v 193.066498 104.898415 -108.177383
v 204.352295 99.009560 -85.734779
v 202.820740 186.047287 -3.318563
v 204.410568 179.536270 -9.072241
v 189.508682 156.622040 -71.031097
v 204.352295 99.009560 -85.734779
v 189.508682 156.622040 -71.031097
v 204.410568 179.536270 -9.072241
v 193.066498 104.898415 -108.177383
v 189.508682 156.622040 -71.031097
v 204.352295 99.009560 -85.734779
v 168.106323 -54.638485 -173.487030
v 153.079865 59.092323 -181.293121
v 216.720261 -13.623159 -112.897911
v 154.914932 -53.699944 -186.085541
v 153.079865 59.092323 -181.293121
v 168.106323 -54.638485 -173.487030
v 103.169441 -3.951867 -228.134293
v 153.079865 59.092323 -181.293121
v 154.914932 -53.699944 -186.085541
v 69.812706 71.823807 -242.364731
v 153.079865 59.092323 -181.293121
v 103.169441 -3.951867 -228.134293
v 144.046249 -5.273098 212.761475
v 109.248009 190.723434 78.698792
v 80.093857 124.402916 150.884094
v 144.046249 -5.273098 212.761475
v 202.658966 187.795990 2.840844
v 109.248009 190.723434 78.698792
v 80.093857 124.402916 150.884094
v 109.248009 190.723434 78.698792
v 29.347675 169.296143 145.973465
v 29.347675 169.296143 145.973465
v 109.248009 190.723434 78.698792
v 57.909695 211.166656 88.976807
v 34.973446 228.642517 63.266483
v 48.334328 243.953842 30.041807
v 18.605160 248.346436 19.458790
v 202.658966 187.795990 2.840844
v 81.069595 222.826935 60.640675
v 109.248009 190.723434 78.698792
v 109.248009 190.723434 78.698792
v 81.069595 222.826935 60.640675
v 57.909695 211.166656 88.976807
v 57.909695 211.166656 88.976807
v 81.069595 222.826935 60.640675
v 34.973446 228.642517 63.266483
v 18.605160 248.346436 19.458790
v 57.902176 252.042404 11.888361
v 1.438532 258.102631 -4.104724
v 48.334328 243.953842 30.041807
v 57.902176 252.042404 11.888361
v 18.605160 248.346436 19.458790
v 34.973446 228.642517 63.266483
v 57.902176 252.042404 11.888361
v 48.334328 243.953842 30.041807
v 81.069595 222.826935 60.640675
v 57.902176 252.042404 11.888361
v 34.973446 228.642517 63.266483
v 1.438532 258.102631 -4.104724
v -3.899829 239.522156 -48.664055
v -58.091789 216.152939 -40.437325
v 57.902176 252.042404 11.888361
v 70.949036 251.758057 -2.221117
v 1.438532 258.102631 -4.104724
v 193.066498 104.898415 -108.177383
v 181.718735 124.214622 -114.090843
v 189.508682 156.622040 -71.031097
v -99.908264 182.866821 -72.076042
v -36.520435 144.408661 -149.793106
v -51.375294 60.137234 -173.820618
v -51.375294 60.137234 -173.820618
v -36.520435 144.408661 -149.793106
v 36.083992 71.859009 -236.543060
v 202.658966 187.795990 2.840844
v 96.727722 241.625366 -5.149292
v 81.069595 222.826935 60.640675
v 81.069595 222.826935 60.640675
v 96.727722 241.625366 -5.149292
v 57.902176 252.042404 11.888361
v 57.902176 252.042404 11.888361
v 96.727722 241.625366 -5.149292
v 70.949036 251.758057 -2.221117
v 202.820740 186.047287 -3.318563
v 96.727722 241.625366 -5.149292
v 202.658966 187.795990 2.840844
v 96.727722 241.625366 -5.149292
v 87.586586 245.290298 -8.105093
v 70.949036 251.758057 -2.221117
v 216.720261 -13.623159 -112.897911
v 155.627869 100.910789 -169.909195
v 193.066498 104.898415 -108.177383
v 153.079865 59.092323 -181.293121
v 155.627869 100.910789 -169.909195
v 216.720261 -13.623159 -112.897911
v 69.812706 71.823807 -242.364731
v 155.627869 100.910789 -169.909195
v 153.079865 59.092323 -181.293121
v 181.718735 124.214622 -114.090843
v 155.627869 100.910789 -169.909195
v 189.508682 156.622040 -71.031097
v 193.066498 104.898415 -108.177383
v 155.627869 100.910789 -169.909195
v 181.718735 124.214622 -114.090843
v 70.949036 251.758057 -2.221117
v 50.234150 252.071075 -36.707024
v 1.438532 258.102631 -4.104724
v 87.586586 245.290298 -8.105093
v 72.511559 247.852249 -21.655396
v 70.949036 251.758057 -2.221117
v 70.949036 251.758057 -2.221117
v 72.511559 247.852249 -21.655396
v 50.234150 252.071075 -36.707024
v -98.915100 184.339203 -70.740082
v 10.985318 205.619415 -154.019791
v -99.908264 182.866821 -72.076042
v 36.083992 71.859009 -236.543060
v 10.985318 205.619415 -154.019791
v 69.812706 71.823807 -242.364731
v -98.915100 184.339203 -70.740082
v -58.091789 216.152939 -40.437325
v 8.596230 211.527039 -141.365173
v -3.899829 239.522156 -48.664055
v 8.596230 211.527039 -141.365173
v -58.091789 216.152939 -40.437325
v -98.915100 184.339203 -70.740082
v 8.596230 211.527039 -141.365173
v 10.985318 205.619415 -154.019791
v -99.908264 182.866821 -72.076042
v 4.898360 197.984894 -155.206741
v -36.520435 144.408661 -149.793106
v 10.985318 205.619415 -154.019791
v 4.898360 197.984894 -155.206741
v -99.908264 182.866821 -72.076042
v -36.520435 144.408661 -149.793106
v 4.898360 197.984894 -155.206741
v 36.083992 71.859009 -236.543060
v 36.083992 71.859009 -236.543060
v 4.898360 197.984894 -155.206741
v 10.985318 205.619415 -154.019791
v 1.438532 258.102631 -4.104724
v 11.005845 212.612320 -141.561829
v -3.899829 239.522156 -48.664055
v -3.899829 239.522156 -48.664055
v 11.005845 212.612320 -141.561829
v 8.596230 211.527039 -141.365173
v 50.234150 252.071075 -36.707024
v 11.005845 212.612320 -141.561829
v 1.438532 258.102631 -4.104724
v 8.596230 211.527039 -141.365173
v 11.005845 212.612320 -141.561829
v 10.985318 205.619415 -154.019791
v 10.985318 205.619415 -154.019791
v 27.230045 203.070648 -156.866028
v 69.812706 71.823807 -242.364731
v 11.005845 212.612320 -141.561829
v 27.230045 203.070648 -156.866028
v 10.985318 205.619415 -154.019791
v 69.812706 71.823807 -242.364731
v 102.184723 102.194763 -200.423706
v 155.627869 100.910789 -169.909195
v 27.230045 203.070648 -156.866028
v 102.184723 102.194763 -200.423706
v 69.812706 71.823807 -242.364731
v 50.234150 252.071075 -36.707024
v 35.187294 211.754593 -134.944733
v 11.005845 212.612320 -141.561829
v 11.005845 212.612320 -141.561829
v 35.187294 211.754593 -134.944733
v 27.230045 203.070648 -156.866028
v 202.820740 186.047287 -3.318563
v 113.410881 214.885193 -56.576038
v 96.727722 241.625366 -5.149292
v 50.234150 252.071075 -36.707024
v 52.497196 208.274094 -132.539810
v 35.187294 211.754593 -134.944733
v 35.187294 211.754593 -134.944733
v 52.497196 208.274094 -132.539810
v 27.230045 203.070648 -156.866028
v 202.820740 186.047287 -3.318563
v 90.827927 220.380112 -74.732124
v 113.410881 214.885193 -56.576038
v 96.727722 241.625366 -5.149292
v 90.827927 220.380112 -74.732124
v 87.586586 245.290298 -8.105093
v 113.410881 214.885193 -56.576038
v 90.827927 220.380112 -74.732124
v 96.727722 241.625366 -5.149292
v 87.586586 245.290298 -8.105093
v 90.827927 220.380112 -74.732124
v 72.511559 247.852249 -21.655396
v 72.511559 247.852249 -21.655396
v 90.827927 220.380112 -74.732124
v 50.234150 252.071075 -36.707024
v 50.234150 252.071075 -36.707024
v 90.827927 220.380112 -74.732124
v 52.497196 208.274094 -132.539810
v 202.820740 186.047287 -3.318563
v 189.508682 156.622040 -71.031097
v 134.610931 178.645477 -104.564751
v 155.627869 100.910789 -169.909195
v 134.610931 178.645477 -104.564751
v 189.508682 156.622040 -71.031097
v 202.820740 186.047287 -3.318563
v 134.610931 178.645477 -104.564751
v 90.827927 220.380112 -74.732124
v 90.827927 220.380112 -74.732124
v 134.610931 178.645477 -104.564751
v 52.497196 208.274094 -132.539810
v 102.184723 102.194763 -200.423706
v 58.102951 193.319061 -147.555725
v 155.627869 100.910789 -169.909195
v 27.230045 203.070648 -156.866028
v 58.102951 193.319061 -147.555725
v 102.184723 102.194763 -200.423706
v 52.497196 208.274094 -132.539810
v 58.102951 193.319061 -147.555725
v 27.230045 203.070648 -156.866028
v 155.627869 100.910789 -169.909195
v 58.102951 193.319061 -147.555725
v 134.610931 178.645477 -104.564751
v 134.610931 178.645477 -104.564751
v 63.507721 199.918640 -135.221817
v 52.497196 208.274094 -132.539810
v 52.497196 208.274094 -132.539810
v 63.507721 199.918640 -135.221817
v 58.102951 193.319061 -147.555725
v 58.102951 193.319061 -147.555725
v 63.507721 199.918640 -135.221817
v 134.610931 178.645477 -104.564751
vn -0.209675 -0.877884 0.430530
vn -0.370801 -0.813514 0.447997
vn -0.599808 -0.515627 0.611849
vn 0.219344 -0.845959 -0.486046
vn 0.628745 -0.641150 -0.440007
vn 0.931864 -0.291916 0.215439
vn 0.811800 -0.487620 -0.321261
vn 0.563448 -0.534680 -0.629796
vn -0.972585 -0.082070 0.217585
vn -0.965540 -0.081835 0.247053
vn -0.806929 0.588624 -0.048853
vn 0.302701 -0.487196 -0.819153
vn -0.076307 -0.695594 -0.714372
vn -0.817054 0.506088 0.276221
vn -0.707832 0.687463 0.162381
vn -0.838682 0.413210 0.354781
vn -0.761381 -0.126100 0.635923
vn 0.961664 -0.165262 0.218842
vn 0.333924 -0.438083 -0.834612
vn -0.377622 0.559487 0.737818
vn -0.518741 0.349361 0.780291
vn -0.688236 -0.183678 0.701850
vn 0.355097 -0.411940 -0.839173
vn -0.101876 -0.687073 -0.719411
vn -0.011070 -0.621037 -0.783703
vn 0.587128 -0.070882 -0.806385
vn 0.516462 -0.067138 -0.853674
vn 0.417253 0.550727 0.722911
vn 0.957690 0.282489 -0.055047
vn -0.557490 -0.610425 -0.562660
vn -0.227156 -0.655440 -0.720277
vn 0.985487 0.167269 0.028925
vn 0.991438 0.102588 -0.080791
vn 0.987566 0.147137 -0.055356
vn 0.979448 -0.068296 0.189783
vn 0.979849 -0.066761 0.188250
vn 0.952885 0.016972 0.302858
vn 0.904528 0.156624 0.396608
vn 0.951885 0.095422 0.291222
vn 0.083480 -0.220383 -0.971835
vn 0.008514 -0.328014 -0.944634
vn 0.143203 -0.122074 -0.982136
vn -0.137808 -0.491034 -0.860171
vn -0.904299 -0.065990 -0.421769
vn -0.745293 -0.321628 -0.584032
vn -0.828506 0.124906 -0.545872
vn -0.655124 0.060083 -0.753129
vn -0.683580 0.714323 0.149873
vn -0.633810 0.772290 0.043058
vn -0.397778 0.859385 0.321294
vn -0.480898 0.836362 0.263128
vn -0.201942 0.877284 0.435422
vn -0.525029 0.843467 -0.113618
vn -0.154008 0.778847 0.608013
vn -0.156181 0.790283 0.592503
vn -0.153073 0.881330 0.447019
vn 0.975892 0.146234 -0.162019
vn 0.953372 0.207732 -0.218927
vn 0.053089 0.791897 0.608342
vn 0.066416 0.814967 0.575689
vn -0.701911 -0.249133 0.667273
vn -0.703178 -0.183542 0.686916
vn -0.688752 -0.184624 0.701095
vn -0.742886 -0.207438 0.636467
vn -0.736608 -0.181091 0.651625
vn 0.071548 0.867512 0.492244
vn 0.111175 0.865213 0.488924
vn -0.087427 0.896280 0.434787
vn -0.083426 0.896786 0.434529
vn 0.557771 0.090594 -0.825036
vn 0.149497 -0.108363 -0.982806
vn -0.584689 0.271110 -0.764616
vn -0.165868 0.215617 -0.962287
vn 0.895857 0.194697 -0.399415
vn 0.766568 0.520064 -0.376705
vn 0.890309 0.313637 -0.330123
vn 0.877972 0.317616 -0.358168
vn 0.759921 0.055954 -0.647603
vn 0.691620 0.041889 -0.721046
vn 0.654484 0.042722 -0.754868
vn 0.598863 0.114777 -0.792584
vn 0.455479 0.556283 0.695046
vn 0.541483 0.538016 0.646015
vn 0.435338 0.568457 0.698096
vn 0.387570 0.639468 0.663980
vn -0.012975 0.910097 0.414193
vn 0.459499 0.706262 0.538568
vn 0.395899 0.688984 0.607095
vn 0.136781 0.871729 0.470510
vn -0.011539 0.920876 0.389684
vn -0.008367 0.915031 0.403297
vn 0.108297 0.885590 0.451667
vn 0.136881 0.877029 0.460525
vn -0.415774 0.856035 -0.307141
vn 0.089046 0.994077 0.062306
vn 0.832342 0.359947 -0.421480
vn -0.654911 0.311726 -0.688417
vn -0.580498 0.316262 -0.750334
vn 0.405728 0.848767 0.339086
vn 0.378964 0.862058 0.336514
vn 0.377507 0.864578 0.331652
vn 0.454500 0.859947 -0.232208
vn 0.367414 0.929907 0.016734
vn 0.834520 0.187187 -0.518205
vn 0.786151 0.117285 -0.606804
vn 0.599545 0.176007 -0.780748
vn 0.644086 0.550666 -0.530961
vn 0.802036 0.316015 -0.506826
vn 0.092043 0.994680 -0.046260
vn 0.306578 0.937647 -0.163795
vn 0.290624 0.942325 -0.166018
vn -0.489316 0.743561 -0.455728
vn -0.146867 0.499262 -0.853913
vn -0.423880 0.847707 -0.318932
vn -0.415748 0.853619 -0.313830
vn -0.482438 0.755260 -0.443662
vn -0.604693 0.397753 -0.690029
vn -0.567001 0.547718 -0.615236
vn -0.552651 0.350858 -0.755960
vn -0.382635 0.432040 -0.816659
vn -0.392749 0.864575 -0.313460
vn -0.411090 0.855854 -0.313877
vn -0.096425 0.942917 -0.318762
vn -0.397190 0.800559 -0.448715
vn -0.065044 0.529776 -0.845640
vn 0.050973 0.870845 -0.488907
vn 0.425772 0.544323 -0.722794
vn 0.375708 0.588343 -0.716028
vn 0.140091 0.908279 -0.394213
vn 0.143930 0.901030 -0.409181
vn 0.447514 0.844577 -0.293975
vn 0.233743 0.886399 -0.399577
vn 0.235035 0.871438 -0.430529
vn 0.456576 0.831591 -0.316220
vn 0.436432 0.849520 -0.296382
vn 0.443720 0.845906 -0.295897
vn 0.416064 0.858206 -0.300621
vn 0.379693 0.868548 -0.318525
vn 0.312514 0.866732 -0.388729
vn 0.547544 0.722737 -0.421719
vn 0.576418 0.611495 -0.542048
vn 0.485912 0.784774 -0.384733
vn 0.434939 0.779059 -0.451546
vn 0.408280 0.597774 -0.689908
vn 0.398528 0.596824 -0.696403
vn 0.398719 0.719898 -0.568129
vn 0.466101 0.639741 -0.611131
vn 0.440025 0.742136 -0.505581
vn 0.408041 0.718501 -0.563258
vn 0.450681 0.689821 -0.566597
f 1//1 2//1 3//1
f 4//2 5//2 6//2
f 7//3 8//3 9//3
f 10//4 11//4 12//4
f 13//5 14//5 15//5
f 16//6 17//6 18//6
f 19//7 20//7 21//7
f 22//8 23//8 24//8
f 25//9 26//9 27//9
f 28//10 29//10 30//10
f 31//11 32//11 33//11
f 34//12 35//12 36//12
f 37//13 38//13 39//13
f 40//14 41//14 42//14
f 43//15 44//15 45//15
f 46//16 47//16 48//16
f 49//17 50//17 51//17
f 52//18 53//18 54//18
f 55//19 56//19 57//19
f 58//20 59//20 60//20
f 61//21 62//21 63//21
f 64//22 65//22 66//22
f 67//23 68//23 69//23
f 70//24 71//24 72//24
f 73//25 74//25 75//25
f 76//26 77//26 78//26
f 79//27 80//27 81//27
f 82//28 83//28 84//28
f 85//29 86//29 87//29
f 88//30 89//30 90//30
f 91//31 92//31 93//31
f 94//32 95//32 96//32
f 97//33 98//33 99//33
f 100//34 101//34 102//34
f 103//35 104//35 105//35
f 106//36 107//36 108//36
f 109//37 110//37 111//37
f 112//38 113//38 114//38
f 115//39 116//39 117//39
f 118//40 119//40 120//40
f 121//41 122//41 123//41
f 124//42 125//42 126//42
f 127//43 128//43 129//43
f 130//44 131//44 132//44
f 133//45 134//45 135//45
f 136//46 137//46 138//46
f 139//47 140//47 141//47
f 142//48 143//48 144//48
f 145//49 146//49 147//49
f 148//50 149//50 150//50
f 151//51 152//51 153//51
f 154//52 155//52 156//52
f 157//53 158//53 159//53
f 160//54 161//54 162//54
f 163//55 164//55 165//55
f 166//56 167//56 168//56
f 169//57 170//57 171//57
f 172//58 173//58 174//58
f 175//59 176//59 177//59
f 178//60 179//60 180//60
f 181//61 182//61 183//61
f 184//62 185//62 186//62
f 187//63 188//63 189//63
f 190//64 191//64 192//64
f 193//65 194//65 195//65
f 196//66 197//66 198//66
f 199//67 200//67 201//67
f 202//68 203//68 204//68
f 205//69 206//69 207//69
f 208//70 209//70 210//70
f 211//71 212//71 213//71
f 214//72 215//72 216//72
f 217//73 218//73 219//73
f 220//74 221//74 222//74
f 223//75 224//75 225//75
f 226//76 227//76 228//76
f 229//77 230//77 231//77
f 232//78 233//78 234//78
f 235//79 236//79 237//79
f 238//80 239//80 240//80
f 241//81 242//81 243//81
f 244//82 245//82 246//82
f 247//83 248//83 249//83
f 250//84 251//84 252//84
f 253//85 254//85 255//85
f 256//86 257//86 258//86
f 259//87 260//87 261//87
f 262//88 263//88 264//88
f 265//89 266//89 267//89
f 268//90 269//90 270//90
f 271//91 272//91 273//91
f 274//92 275//92 276//92
f 277//93 278//93 279//93
f 280//94 281//94 282//94
f 283//95 284//95 285//95
f 286//96 287//96 288//96
f 289//97 290//97 291//97
f 292//98 293//98 294//98
f 295//99 296//99 297//99
f 298//100 299//100 300//100
f 301//101 302//101 303//101
f 304//102 305//102 306//102
f 307//103 308//103 309//103
f 310//104 311//104 312//104
f 313//105 314//105 315//105
f 316//106 317//106 318//106
f 319//107 320//107 321//107
f 322//108 323//108 324//108
f 325//109 326//109 327//109
f 328//110 329//110 330//110
f 331//111 332//111 333//111
f 334//112 335//112 336//112
f 337//113 338//113 339//113
f 340//114 341//114 342//114
f 343//115 344//115 345//115
f 346//116 347//116 348//116
f 349//117 350//117 351//117
f 352//118 353//118 354//118
f 355//119 356//119 357//119
f 358//120 359//120 360//120
f 361//121 362//121 363//121
f 364//122 365//122 366//122
f 367//123 368//123 369//123
f 370//124 371//124 372//124
f 373//125 374//125 375//125
f 376//126 377//126 378//126
f 379//127 380//127 381//127
f 382//128 383//128 384//128
f 385//129 386//129 387//129
f 388//130 389//130 390//130
f 391//131 392//131 393//131
f 394//132 395//132 396//132
f 397//133 398//133 399//133
f 400//134 401//134 402//134
f 403//135 404//135 405//135
f 406//136 407//136 408//136
f 409//137 410//137 411//137
f 412//138 413//138 414//138
f 415//139 416//139 417//139
f 418//140 419//140 420//140
f 421//141 422//141 423//141
f 424//142 425//142 426//142
f 427//143 428//143 429//143
f 430//144 431//144 432//144
f 433//145 434//145 435//145
f 436//146 437//146 438//146
f 439//147 440//147 441//147
f 442//148 443//148 444//148
f 445//149 446//149 447//149
f 448//150 449//150 450//150
