o
v -72.112350 110.149643 149.838181
v 41.661945 -244.655243 -30.775185
v -33.413078 5.048036 33.505737
v 41.661945 -244.655243 -30.775185
v -34.006756 7.017750 33.240910
v -33.413078 5.048036 33.505737
v -72.112350 110.149643 149.838181
v -33.413078 5.048036 33.505737
v -34.006756 7.017750 33.240910
v 41.661945 -244.655243 -30.775185
v -130.915680 59.016541 -151.987137
v -34.006756 7.017750 33.240910
v -144.246918 63.615894 -158.176514
v -140.570648 65.930244 -154.549347
v -130.915680 59.016541 -151.987137
v -144.246918 63.615894 -158.176514
v -137.317413 68.623085 -150.837860
v -140.570648 65.930244 -154.549347
v -140.570648 65.930244 -154.549347
v -137.317413 68.623085 -150.837860
v -130.915680 59.016541 -151.987137
v 41.661945 -244.655243 -30.775185
v -121.403412 -140.071350 -128.539200
v -130.915680 59.016541 -151.987137
v -144.246918 63.615894 -158.176514
v -130.915680 59.016541 -151.987137
v -121.403412 -140.071350 -128.539200
v 41.661945 -244.655243 -30.775185
v -121.824738 -140.477875 -128.355438
v -121.403412 -140.071350 -128.539200
v -72.112350 110.149643 149.838181
v -34.006756 7.017750 33.240910
v -135.007278 67.799431 -148.350159
v -72.112350 110.149643 149.838181
v -135.007278 67.799431 -148.350159
v -137.317413 68.623085 -150.837860
v -130.915680 59.016541 -151.987137
v -135.007278 67.799431 -148.350159
v -34.006756 7.017750 33.240910
v -137.317413 68.623085 -150.837860
v -135.007278 67.799431 -148.350159
v -130.915680 59.016541 -151.987137
v -144.246918 63.615894 -158.176514
v -144.743256 68.239616 -152.020279
v -137.317413 68.623085 -150.837860
v -72.112350 110.149643 149.838181
v -132.751297 -167.506348 80.920952
v 41.661945 -244.655243 -30.775185
v -72.112350 110.149643 149.838181
v -79.251488 111.645821 151.088394
v -132.751297 -167.506348 80.920952
v 41.661945 -244.655243 -30.775185
v -132.751297 -167.506348 80.920952
v -155.353790 -195.441589 -64.462715
v 41.661945 -244.655243 -30.775185
v -163.975677 -184.108856 -81.263466
v -121.824738 -140.477875 -128.355438
v 41.661945 -244.655243 -30.775185
v -155.353790 -195.441589 -64.462715
v -163.975677 -184.108856 -81.263466
v -144.246918 63.615894 -158.176514
v -121.403412 -140.071350 -128.539200
v -168.857422 -14.418058 -154.355942
v -121.824738 -140.477875 -128.355438
v -168.857422 -14.418058 -154.355942
v -121.403412 -140.071350 -128.539200
v -163.975677 -184.108856 -81.263466
v -168.857422 -14.418058 -154.355942
v -121.824738 -140.477875 -128.355438
v -144.743256 68.239616 -152.020279
v -170.079834 97.920609 -86.884125
v -137.317413 68.623085 -150.837860
v -72.112350 110.149643 149.838181
v -137.317413 68.623085 -150.837860
v -154.648010 97.185104 -75.220490
v -170.079834 97.920609 -86.884125
v -169.241501 99.640846 -80.931625
v -137.317413 68.623085 -150.837860
v -137.317413 68.623085 -150.837860
v -169.241501 99.640846 -80.931625
v -154.648010 97.185104 -75.220490
v -170.079834 97.920609 -86.884125
v -188.557373 131.341446 48.512726
v -169.241501 99.640846 -80.931625
v -79.251488 111.645821 151.088394
v -188.557373 131.341446 48.512726
v -79.503502 111.628197 151.028259
v -72.112350 110.149643 149.838181
v -188.557373 131.341446 48.512726
v -79.251488 111.645821 151.088394
v -72.112350 110.149643 149.838181
v -154.648010 97.185104 -75.220490
v -188.557373 131.341446 48.512726
v -169.241501 99.640846 -80.931625
v -188.557373 131.341446 48.512726
v -154.648010 97.185104 -75.220490
v -163.975677 -184.108856 -81.263466
v -189.537674 -118.118477 -93.856270
v -168.857422 -14.418058 -154.355942
v -189.537674 -118.118477 -93.856270
v -195.732239 -19.727146 -120.874901
v -168.857422 -14.418058 -154.355942
v -79.251488 111.645821 151.088394
v -217.740936 -8.596605 115.454567
v -132.751297 -167.506348 80.920952
v -79.251488 111.645821 151.088394
v -79.503502 111.628197 151.028259
v -217.740936 -8.596605 115.454567
v -188.557373 131.341446 48.512726
v -219.997223 -6.678791 112.846771
v -79.503502 111.628197 151.028259
v -79.503502 111.628197 151.028259
v -219.997223 -6.678791 112.846771
v -217.740936 -8.596605 115.454567
v -144.246918 63.615894 -158.176514
v -168.857422 -14.418058 -154.355942
v -218.650757 49.841999 -78.026131
v -144.246918 63.615894 -158.176514
v -237.433838 83.285873 -39.055260
v -144.743256 68.239616 -152.020279
v -144.743256 68.239616 -152.020279
v -237.433838 83.285873 -39.055260
v -170.079834 97.920609 -86.884125
v -144.246918 63.615894 -158.176514
v -218.650757 49.841999 -78.026131
v -237.433838 83.285873 -39.055260
v -170.079834 97.920609 -86.884125
v -237.433838 83.285873 -39.055260
v -188.557373 131.341446 48.512726
v -132.751297 -167.506348 80.920952
v -200.146957 -124.711838 43.736000
v -155.353790 -195.441589 -64.462715
v -217.740936 -8.596605 115.454567
v -242.277206 -49.868473 89.943695
v -132.751297 -167.506348 80.920952
v -219.997223 -6.678791 112.846771
v -242.491287 -49.593147 89.802795
v -217.740936 -8.596605 115.454567
v -217.740936 -8.596605 115.454567
v -242.491287 -49.593147 89.802795
v -242.277206 -49.868473 89.943695
v -242.277206 -49.868473 89.943695
v -243.736267 -59.208549 77.562035
v -132.751297 -167.506348 80.920952
v -242.491287 -49.593147 89.802795
v -250.418610 -56.204445 71.808334
v -242.277206 -49.868473 89.943695
v -242.277206 -49.868473 89.943695
v -250.418610 -56.204445 71.808334
v -243.736267 -59.208549 77.562035
v -132.751297 -167.506348 80.920952
v -231.818207 -86.425293 59.795876
v -200.146957 -124.711838 43.736000
v -243.736267 -59.208549 77.562035
v -231.818207 -86.425293 59.795876
v -132.751297 -167.506348 80.920952
v -200.146957 -124.711838 43.736000
v -231.818207 -86.425293 59.795876
v -155.353790 -195.441589 -64.462715
v -250.418610 -56.204445 71.808334
v -231.818207 -86.425293 59.795876
v -243.736267 -59.208549 77.562035
v -188.557373 131.341446 48.512726
v -256.796753 37.178040 46.795002
v -219.997223 -6.678791 112.846771
v -237.433838 83.285873 -39.055260
v -256.796753 37.178040 46.795002
v -188.557373 131.341446 48.512726
v -219.997223 -6.678791 112.846771
v -256.796753 37.178040 46.795002
v -242.491287 -49.593147 89.802795
v -242.491287 -49.593147 89.802795
v -261.130127 -44.879108 59.910221
v -250.418610 -56.204445 71.808334
v -256.796753 37.178040 46.795002
v -261.130127 -44.879108 59.910221
v -242.491287 -49.593147 89.802795
v -250.418610 -56.204445 71.808334
v -249.824539 -65.057854 52.669968
v -231.818207 -86.425293 59.795876
v -155.353790 -195.441589 -64.462715
v -251.951599 -65.216644 45.263481
v -163.975677 -184.108856 -81.263466
v -231.818207 -86.425293 59.795876
v -251.951599 -65.216644 45.263481
v -155.353790 -195.441589 -64.462715
v -249.824539 -65.057854 52.669968
v -251.951599 -65.216644 45.263481
v -231.818207 -86.425293 59.795876
v -261.130127 -44.879108 59.910221
v -251.951599 -65.216644 45.263481
v -250.418610 -56.204445 71.808334
v -250.418610 -56.204445 71.808334
v -251.951599 -65.216644 45.263481
v -249.824539 -65.057854 52.669968
v -195.732239 -19.727146 -120.874901
v -260.575867 -24.612434 -41.044228
v -168.857422 -14.418058 -154.355942
v -168.857422 -14.418058 -154.355942
v -260.575867 -24.612434 -41.044228
v -218.650757 49.841999 -78.026131
v -218.650757 49.841999 -78.026131
v -260.575867 -24.612434 -41.044228
v -237.433838 83.285873 -39.055260
v -189.537674 -118.118477 -93.856270
v -260.575867 -24.612434 -41.044228
v -195.732239 -19.727146 -120.874901
v -189.537674 -118.118477 -93.856270
v -262.370056 -27.280334 -35.383316
v -260.575867 -24.612434 -41.044228
v -163.975677 -184.108856 -81.263466
v -248.221451 -68.530334 -24.875498
v -189.537674 -118.118477 -93.856270
v -189.537674 -118.118477 -93.856270
v -248.221451 -68.530334 -24.875498
v -262.370056 -27.280334 -35.383316
v -251.951599 -65.216644 45.263481
v -248.221451 -68.530334 -24.875498
v -163.975677 -184.108856 -81.263466
v -261.130127 -44.879108 59.910221
v -248.221451 -68.530334 -24.875498
v -251.951599 -65.216644 45.263481
v -262.370056 -27.280334 -35.383316
v -248.221451 -68.530334 -24.875498
v -261.130127 -44.879108 59.910221
v -260.575867 -24.612434 -41.044228
v -264.798401 -1.395819 -14.911946
v -237.433838 83.285873 -39.055260
v -262.370056 -27.280334 -35.383316
v -264.798401 -1.395819 -14.911946
v -260.575867 -24.612434 -41.044228
v -237.433838 83.285873 -39.055260
v -267.547272 -2.151506 -3.774771
v -256.796753 37.178040 46.795002
v -264.798401 -1.395819 -14.911946
v -267.547272 -2.151506 -3.774771
v -237.433838 83.285873 -39.055260
v -256.796753 37.178040 46.795002
v -267.547272 -2.151506 -3.774771
v -261.130127 -44.879108 59.910221
v -262.370056 -27.280334 -35.383316
v -267.547272 -2.151506 -3.774771
v -264.798401 -1.395819 -14.911946
v -262.370056 -27.280334 -35.383316
v -261.130127 -44.879108 59.910221
v -267.494629 -2.497155 -3.574548
v -267.547272 -2.151506 -3.774771
v -267.494629 -2.497155 -3.574548
v -261.130127 -44.879108 59.910221
v -262.370056 -27.280334 -35.383316
v -267.494629 -2.497155 -3.574548
v -267.547272 -2.151506 -3.774771
vn 0.960107 0.269007 0.076353
vn 0.957522 0.288355 -0.001823
vn 0.954263 0.294523 0.051357
vn 0.866585 0.350823 -0.354900
vn 0.496636 0.410046 -0.764993
vn 0.365050 0.571705 -0.734774
vn 0.504350 0.425956 -0.751128
vn 0.473987 -0.080624 -0.876833
vn 0.394037 -0.088914 -0.914784
vn 0.154439 -0.535408 -0.830354
vn 0.784953 0.568491 -0.246305
vn 0.535828 0.812831 -0.228461
vn 0.817197 0.499661 -0.287278
vn 0.703062 0.525796 -0.478793
vn 0.053707 0.800512 -0.596905
vn 0.415015 -0.303526 0.857691
vn 0.112808 -0.262501 0.958315
vn -0.271882 -0.936330 0.222183
vn -0.039260 -0.715220 -0.697796
vn -0.125449 -0.851132 -0.509742
vn 0.218772 -0.116430 -0.968805
vn -0.165952 -0.258215 -0.951727
vn -0.511101 -0.352387 -0.783964
vn 0.017973 0.912451 -0.408791
vn 0.461750 0.859587 -0.218854
vn 0.239075 0.923330 -0.300508
vn 0.266924 0.920180 -0.286392
vn -0.145301 0.955762 -0.255746
vn -0.144625 0.931762 0.333022
vn 0.200712 0.979309 -0.025843
vn 0.317952 0.932681 -0.170330
vn 0.237350 0.951133 -0.197512
vn -0.520830 -0.350303 -0.778475
vn -0.743352 -0.220241 -0.631603
vn -0.045495 -0.235314 0.970854
vn -0.230534 -0.022771 0.972798
vn -0.566862 0.450592 0.689662
vn -0.533528 0.391650 0.749639
vn -0.734979 0.200078 -0.647900
vn -0.542768 0.649967 -0.531926
vn -0.513780 0.687541 -0.513145
vn -0.722290 0.312979 -0.616718
vn -0.383810 0.882958 -0.270324
vn -0.611268 -0.754173 0.239946
vn -0.312267 -0.358219 0.879869
vn -0.744171 0.031778 0.667233
vn -0.632581 -0.098749 0.768173
vn -0.602643 -0.601325 0.524624
vn -0.793141 -0.368593 0.484836
vn -0.672988 -0.550193 0.494342
vn -0.634617 -0.679441 0.368269
vn -0.604880 -0.603786 0.519194
vn -0.736937 -0.663595 0.128709
vn -0.662321 -0.590792 0.460756
vn -0.626121 0.442027 0.642327
vn -0.803953 0.580241 0.130306
vn -0.824017 0.136671 0.549833
vn -0.831974 -0.289920 0.473039
vn -0.832000 0.130133 0.539297
vn -0.780204 -0.576600 0.242517
vn -0.800494 -0.599305 0.006548
vn -0.755589 -0.646956 0.102633
vn -0.780425 -0.578780 0.236538
vn -0.815508 -0.532057 0.227734
vn -0.787636 -0.568158 0.238381
vn -0.771687 -0.075897 -0.631458
vn -0.776319 0.130872 -0.616605
vn -0.813925 0.184724 -0.550820
vn -0.750876 -0.218428 -0.623277
vn -0.817991 -0.375155 -0.436062
vn -0.820083 -0.396420 -0.412692
vn -0.820731 -0.388268 -0.419104
vn -0.811611 -0.583990 -0.015573
vn -0.919060 -0.392950 -0.030313
vn -0.940785 -0.335344 -0.049690
vn -0.921733 0.203776 -0.329976
vn -0.961239 0.109831 -0.252897
vn -0.947788 0.315831 -0.044143
vn -0.945319 0.243668 -0.216790
vn -0.985697 0.076088 0.150372
vn -0.968095 0.093155 -0.232624
vn -0.983873 -0.177742 -0.020023
vn -0.988399 -0.151863 -0.002293
vn -0.985570 -0.166799 -0.028822
f 1//1 2//1 3//1
f 4//2 5//2 6//2
f 7//3 8//3 9//3
f 10//4 11//4 12//4
f 13//5 14//5 15//5
f 16//6 17//6 18//6
f 19//7 20//7 21//7
f 22//8 23//8 24//8
f 25//9 26//9 27//9
f 28//10 29//10 30//10
f 31//11 32//11 33//11
f 34//12 35//12 36//12
f 37//13 38//13 39//13
f 40//14 41//14 42//14
f 43//15 44//15 45//15
f 46//16 47//16 48//16
f 49//17 50//17 51//17
f 52//18 53//18 54//18
f 55//19 56//19 57//19
f 58//20 59//20 60//20
f 61//21 62//21 63//21
f 64//22 65//22 66//22
f 67//23 68//23 69//23
f 70//24 71//24 72//24
f 73//25 74//25 75//25
f 76//26 77//26 78//26
f 79//27 80//27 81//27
f 82//28 83//28 84//28
f 85//29 86//29 87//29
f 88//30 89//30 90//30
f 91//31 92//31 93//31
f 94//32 95//32 96//32
f 97//33 98//33 99//33
f 100//34 101//34 102//34
f 103//35 104//35 105//35
f 106//36 107//36 108//36
f 109//37 110//37 111//37
f 112//38 113//38 114//38
f 115//39 116//39 117//39
f 118//40 119//40 120//40
f 121//41 122//41 123//41
f 124//42 125//42 126//42
f 127//43 128//43 129//43
f 130//44 131//44 132//44
f 133//45 134//45 135//45
f 136//46 137//46 138//46
f 139//47 140//47 141//47
f 142//48 143//48 144//48
f 145//49 146//49 147//49
f 148//50 149//50 150//50
f 151//51 152//51 153//51
f 154//52 155//52 156//52
f 157//53 158//53 159//53
f 160//54 161//54 162//54
f 163//55 164//55 165//55
f 166//56 167//56 168//56
f 169//57 170//57 171//57
f 172//58 173//58 174//58
f 175//59 176//59 177//59
f 178//60 179//60 180//60
f 181//61 182//61 183//61
f 184//62 185//62 186//62
f 187//63 188//63 189//63
f 190//64 191//64 192//64
f 193//65 194//65 195//65
f 196//66 197//66 198//66
f 199//67 200//67 201//67
f 202//68 203//68 204//68
f 205//69 206//69 207//69
f 208//70 209//70 210//70
f 211//71 212//71 213//71
f 214//72 215//72 216//72
f 217//73 218//73 219//73
f 220//74 221//74 222//74
f 223//75 224//75 225//75
f 226//76 227//76 228//76
f 229//77 230//77 231//77
f 232//78 233//78 234//78
f 235//79 236//79 237//79
f 238//80 239//80 240//80
f 241//81 242//81 243//81
f 244//82 245//82 246//82
f 247//83 248//83 249//83
f 250//84 251//84 252//84
