o
v -137.919785 -164.879623 -78.194122
v -137.801559 -165.010681 -78.535912
v 89.545837 -206.539886 -91.356689
v -137.919785 -164.879623 -78.194122
v 89.545837 -206.539886 -91.356689
v -153.257538 -32.624657 -57.850109
v 89.545837 -206.539886 -91.356689
v 175.865845 -36.216770 -110.277817
v -153.257538 -32.624657 -57.850109
v 89.545837 -206.539886 -91.356689
v 191.598633 -84.830002 -121.241158
v 175.865845 -36.216770 -110.277817
v 175.865845 -36.216770 -110.277817
v -120.877121 88.178696 -92.475800
v -153.257538 -32.624657 -57.850109
v -137.801559 -165.010681 -78.535912
v 7.787082 -168.807037 -181.488632
v 89.545837 -206.539886 -91.356689
v -137.801559 -165.010681 -78.535912
v 5.296093 -156.197571 -198.990082
v 7.787082 -168.807037 -181.488632
v 89.545837 -206.539886 -91.356689
v 5.296093 -156.197571 -198.990082
v 191.598633 -84.830002 -121.241158
v 7.787082 -168.807037 -181.488632
v 5.296093 -156.197571 -198.990082
v 89.545837 -206.539886 -91.356689
v 191.598633 -84.830002 -121.241158
v 126.259468 13.461536 -185.184540
v 175.865845 -36.216770 -110.277817
v -68.232910 89.889290 -177.720795
v -76.287643 88.295685 -190.918762
v -120.877121 88.178696 -92.475800
v -68.232910 89.889290 -177.720795
v -61.503815 90.018967 -185.923553
v -76.287643 88.295685 -190.918762
v -68.232910 89.889290 -177.720795
v -120.877121 88.178696 -92.475800
v -44.619579 90.387390 -183.148880
v -68.232910 89.889290 -177.720795
v -44.619579 90.387390 -183.148880
v -61.503815 90.018967 -185.923553
v -76.287643 88.295685 -190.918762
v -84.950623 79.795616 -187.302063
v -120.877121 88.178696 -92.475800
v -137.919785 -164.879623 -78.194122
v -147.568787 -59.613106 -190.811798
v -137.801559 -165.010681 -78.535912
v -137.919785 -164.879623 -78.194122
v -153.257538 -32.624657 -57.850109
v -147.568787 -59.613106 -190.811798
v -120.877121 88.178696 -92.475800
v -147.568787 -59.613106 -190.811798
v -153.257538 -32.624657 -57.850109
v -84.950623 79.795616 -187.302063
v -147.568787 -59.613106 -190.811798
v -120.877121 88.178696 -92.475800
v 175.865845 -36.216770 -110.277817
v -26.148003 89.263596 -190.256119
v -120.877121 88.178696 -92.475800
v -120.877121 88.178696 -92.475800
v -26.148003 89.263596 -190.256119
v -44.619579 90.387390 -183.148880
v -76.287643 88.295685 -190.918762
v -48.497967 67.450630 -241.087189
v -84.950623 79.795616 -187.302063
v -84.950623 79.795616 -187.302063
v -48.497967 67.450630 -241.087189
v -147.568787 -59.613106 -190.811798
v -61.503815 90.018967 -185.923553
v -16.414997 88.043373 -202.340775
v -76.287643 88.295685 -190.918762
v -44.619579 90.387390 -183.148880
v -16.414997 88.043373 -202.340775
v -61.503815 90.018967 -185.923553
v -26.148003 89.263596 -190.256119
v -16.414997 88.043373 -202.340775
v -44.619579 90.387390 -183.148880
v 126.259468 13.461536 -185.184540
v -15.583113 87.967491 -200.602890
v 175.865845 -36.216770 -110.277817
v 175.865845 -36.216770 -110.277817
v -15.583113 87.967491 -200.602890
v -26.148003 89.263596 -190.256119
v -26.148003 89.263596 -190.256119
v -15.583113 87.967491 -200.602890
v -16.414997 88.043373 -202.340775
v -76.287643 88.295685 -190.918762
v -16.337646 80.107384 -221.591644
v -48.497967 67.450630 -241.087189
v -16.414997 88.043373 -202.340775
v -16.337646 80.107384 -221.591644
v -76.287643 88.295685 -190.918762
v 126.259468 13.461536 -185.184540
v -10.695980 83.254311 -210.826035
v -15.583113 87.967491 -200.602890
v -15.583113 87.967491 -200.602890
v -10.695980 83.254311 -210.826035
v -16.414997 88.043373 -202.340775
v -16.414997 88.043373 -202.340775
v -10.695980 83.254311 -210.826035
v -16.337646 80.107384 -221.591644
v 126.259468 13.461536 -185.184540
v -16.337646 80.107384 -221.591644
v -10.695980 83.254311 -210.826035
v 5.296093 -156.197571 -198.990082
v 19.218019 -112.006645 -225.698059
v 191.598633 -84.830002 -121.241158
v 191.598633 -84.830002 -121.241158
v 19.218019 -112.006645 -225.698059
v 126.259468 13.461536 -185.184540
v -16.337646 80.107384 -221.591644
v -28.439278 54.204590 -249.782730
v -48.497967 67.450630 -241.087189
v 126.259468 13.461536 -185.184540
v -28.439278 54.204590 -249.782730
v -16.337646 80.107384 -221.591644
v -28.439278 54.204590 -249.782730
v -43.282837 48.910793 -250.220505
v -48.497967 67.450630 -241.087189
v -28.439278 54.204590 -249.782730
v -31.589340 46.540794 -250.805511
v -43.282837 48.910793 -250.220505
v -31.589340 46.540794 -250.805511
v -44.369576 34.813828 -252.177963
v -43.282837 48.910793 -250.220505
v -48.497967 67.450630 -241.087189
v -48.335228 36.895939 -249.713867
v -147.568787 -59.613106 -190.811798
v -43.282837 48.910793 -250.220505
v -48.335228 36.895939 -249.713867
v -48.497967 67.450630 -241.087189
v -44.369576 34.813828 -252.177963
v -48.335228 36.895939 -249.713867
v -43.282837 48.910793 -250.220505
v -8.819821 -137.581543 -206.039108
v 1.401423 -104.248131 -228.032837
v 5.296093 -156.197571 -198.990082
v 5.296093 -156.197571 -198.990082
v 1.401423 -104.248131 -228.032837
v 19.218019 -112.006645 -225.698059
v 19.218019 -112.006645 -225.698059
v 8.494607 -89.832779 -234.539505
v 126.259468 13.461536 -185.184540
v 1.401423 -104.248131 -228.032837
v 8.494607 -89.832779 -234.539505
v 19.218019 -112.006645 -225.698059
v -137.801559 -165.010681 -78.535912
v -69.547867 -97.590149 -211.305222
v 5.296093 -156.197571 -198.990082
v -147.568787 -59.613106 -190.811798
v -69.547867 -97.590149 -211.305222
v -137.801559 -165.010681 -78.535912
v -8.819821 -137.581543 -206.039108
v 5.296093 -156.197571 -198.990082
v -69.547867 -97.590149 -211.305222
v -8.819821 -137.581543 -206.039108
v -69.547867 -97.590149 -211.305222
v 1.401423 -104.248131 -228.032837
v 126.259468 13.461536 -185.184540
v -10.107908 3.731779 -255.966354
v -28.439278 54.204590 -249.782730
v -28.439278 54.204590 -249.782730
v -10.107908 3.731779 -255.966354
v -31.589340 46.540794 -250.805511
v -31.589340 46.540794 -250.805511
v -10.107908 3.731779 -255.966354
v -44.369576 34.813828 -252.177963
v 8.494607 -89.832779 -234.539505
v -10.107908 3.731779 -255.966354
v 126.259468 13.461536 -185.184540
v -44.369576 34.813828 -252.177963
v -59.758114 9.953385 -244.931931
v -48.335228 36.895939 -249.713867
v -10.107908 3.731779 -255.966354
v -59.758114 9.953385 -244.931931
v -44.369576 34.813828 -252.177963
v -48.335228 36.895939 -249.713867
v -63.954071 6.683483 -242.599808
v -147.568787 -59.613106 -190.811798
v -59.758114 9.953385 -244.931931
v -63.954071 6.683483 -242.599808
v -48.335228 36.895939 -249.713867
v 8.494607 -89.832779 -234.539505
v -34.174694 -64.417122 -236.261383
v -10.107908 3.731779 -255.966354
v -10.107908 3.731779 -255.966354
v -34.174694 -64.417122 -236.261383
v -59.758114 9.953385 -244.931931
v -147.568787 -59.613106 -190.811798
v -34.174694 -64.417122 -236.261383
v -69.547867 -97.590149 -211.305222
v -59.758114 9.953385 -244.931931
v -34.174694 -64.417122 -236.261383
v -63.954071 6.683483 -242.599808
v 1.401423 -104.248131 -228.032837
v -34.174694 -64.417122 -236.261383
v 8.494607 -89.832779 -234.539505
v -69.547867 -97.590149 -211.305222
v -34.174694 -64.417122 -236.261383
v 1.401423 -104.248131 -228.032837
v -63.954071 6.683483 -242.599808
v -34.224339 -64.390427 -236.247925
v -147.568787 -59.613106 -190.811798
v -147.568787 -59.613106 -190.811798
v -34.224339 -64.390427 -236.247925
v -34.174694 -64.417122 -236.261383
v -34.174694 -64.417122 -236.261383
v -34.224339 -64.390427 -236.247925
v -63.954071 6.683483 -242.599808
vn -0.154262 -0.939198 0.306773
vn 0.029987 -0.148569 0.988447
vn 0.157559 0.029801 0.987060
vn 0.374229 -0.087098 0.923237
vn 0.155449 0.233457 0.959861
vn -0.187412 -0.955021 -0.229809
vn -0.377568 -0.775949 -0.505317
vn 0.492799 -0.573821 -0.654125
vn 0.297590 -0.753999 -0.585598
vn 0.870093 0.357994 -0.338790
vn -0.113790 0.992228 -0.050362
vn -0.094835 0.993555 -0.062090
vn -0.019204 0.999782 0.008203
vn -0.021513 0.999767 -0.001843
vn -0.727784 0.601775 -0.328933
vn -0.930181 -0.304549 -0.204972
vn -0.993492 -0.112180 -0.019736
vn -0.968157 0.234019 -0.088923
vn -0.849002 0.390312 -0.356164
vn 0.377434 0.846688 0.375050
vn 0.102615 0.988578 0.110382
vn -0.684694 0.455850 -0.568678
vn -0.737866 0.346017 -0.579505
vn -0.038353 0.974164 -0.222563
vn -0.001398 0.992374 -0.123259
vn 0.031756 0.996673 -0.075061
vn 0.419680 0.859410 0.292033
vn 0.409654 0.857644 0.310856
vn 0.111925 0.993664 -0.010189
vn -0.095393 0.899419 -0.426551
vn -0.068695 0.922242 -0.380462
vn 0.472683 0.864193 -0.172455
vn 0.458821 0.869763 -0.181650
vn 0.205550 0.905072 -0.372282
vn 0.469500 0.750333 -0.465371
vn 0.492502 -0.558542 -0.667438
vn 0.530474 -0.185477 -0.827161
vn 0.153325 0.693986 -0.703473
vn 0.440558 0.558824 -0.702583
vn -0.120053 0.411343 -0.903540
vn -0.020997 0.140729 -0.989826
vn -0.021334 0.139119 -0.990046
vn -0.639661 0.205697 -0.740623
vn -0.591786 0.216106 -0.776587
vn -0.460534 0.156819 -0.873680
vn -0.222759 -0.488387 -0.843716
vn -0.100536 -0.491237 -0.865205
vn 0.471595 -0.120258 -0.873577
vn -0.049595 -0.390522 -0.919257
vn -0.442904 -0.686725 -0.576407
vn -0.474598 -0.661971 -0.580130
vn -0.265584 -0.510953 -0.817553
vn -0.243697 -0.480961 -0.842193
vn 0.429812 0.261967 -0.864081
vn 0.014018 0.126607 -0.991854
vn -0.002197 0.118602 -0.992939
vn 0.464061 -0.109047 -0.879065
vn -0.503662 0.060585 -0.861774
vn -0.231282 -0.137554 -0.963113
vn -0.587370 0.115017 -0.801104
vn -0.527645 0.073504 -0.846279
vn -0.105100 -0.241799 -0.964618
vn -0.235793 -0.192174 -0.952613
vn -0.367636 -0.276064 -0.888050
vn -0.335640 -0.222184 -0.915412
vn -0.163787 -0.337769 -0.926869
vn -0.245691 -0.401696 -0.882200
vn -0.370174 -0.235159 -0.898706
vn -0.370165 -0.235329 -0.898665
vn -0.370078 -0.235123 -0.898754
f 1//1 2//1 3//1
f 4//2 5//2 6//2
f 7//3 8//3 9//3
f 10//4 11//4 12//4
f 13//5 14//5 15//5
f 16//6 17//6 18//6
f 19//7 20//7 21//7
f 22//8 23//8 24//8
f 25//9 26//9 27//9
f 28//10 29//10 30//10
f 31//11 32//11 33//11
f 34//12 35//12 36//12
f 37//13 38//13 39//13
f 40//14 41//14 42//14
f 43//15 44//15 45//15
f 46//16 47//16 48//16
f 49//17 50//17 51//17
f 52//18 53//18 54//18
f 55//19 56//19 57//19
f 58//20 59//20 60//20
f 61//21 62//21 63//21
f 64//22 65//22 66//22
f 67//23 68//23 69//23
f 70//24 71//24 72//24
f 73//25 74//25 75//25
f 76//26 77//26 78//26
f 79//27 80//27 81//27
f 82//28 83//28 84//28
f 85//29 86//29 87//29
f 88//30 89//30 90//30
f 91//31 92//31 93//31
f 94//32 95//32 96//32
f 97//33 98//33 99//33
f 100//34 101//34 102//34
f 103//35 104//35 105//35
f 106//36 107//36 108//36
f 109//37 110//37 111//37
f 112//38 113//38 114//38
f 115//39 116//39 117//39
f 118//40 119//40 120//40
f 121//41 122//41 123//41
f 124//42 125//42 126//42
f 127//43 128//43 129//43
f 130//44 131//44 132//44
f 133//45 134//45 135//45
f 136//46 137//46 138//46
f 139//47 140//47 141//47
f 142//48 143//48 144//48
f 145//49 146//49 147//49
f 148//50 149//50 150//50
f 151//51 152//51 153//51
f 154//52 155//52 156//52
f 157//53 158//53 159//53
f 160//54 161//54 162//54
f 163//55 164//55 165//55
f 166//56 167//56 168//56
f 169//57 170//57 171//57
f 172//58 173//58 174//58
f 175//59 176//59 177//59
f 178//60 179//60 180//60
f 181//61 182//61 183//61
f 184//62 185//62 186//62
f 187//63 188//63 189//63
f 190//64 191//64 192//64
f 193//65 194//65 195//65
f 196//66 197//66 198//66
f 199//67 200//67 201//67
f 202//68 203//68 204//68
f 205//69 206//69 207//69
f 208//70 209//70 210//70
