o
v 104.895134 21.173553 133.575333
v 37.254074 -19.077810 -163.067307
v 133.825012 -140.322968 -61.338478
v 133.938080 -140.336395 -62.272224
v 133.825012 -140.322968 -61.338478
v 37.254074 -19.077810 -163.067307
v 104.895134 21.173553 133.575333
v 133.825012 -140.322968 -61.338478
v 133.845184 -140.239487 -61.131207
v 133.938080 -140.336395 -62.272224
v 37.254074 -19.077810 -163.067307
v 134.664001 -138.744202 -66.069336
v 37.254074 -19.077810 -163.067307
v 134.739426 -138.579773 -66.311661
v 134.664001 -138.744202 -66.069336
v 37.254074 -19.077810 -163.067307
v 173.626633 147.236298 6.642706
v 139.315460 41.641960 -158.040024
v 104.895134 21.173553 133.575333
v 173.626633 147.236298 6.642706
v 37.254074 -19.077810 -163.067307
v 37.254074 -19.077810 -163.067307
v 139.315460 41.641960 -158.040024
v 142.694580 -61.364765 -127.093704
v 37.254074 -19.077810 -163.067307
v 142.694580 -61.364765 -127.093704
v 134.739426 -138.579773 -66.311661
v 133.938080 -140.336395 -62.272224
v 188.366852 -113.291405 104.929695
v 133.825012 -140.322968 -61.338478
v 133.825012 -140.322968 -61.338478
v 188.366852 -113.291405 104.929695
v 133.845184 -140.239487 -61.131207
v 104.895134 21.173553 133.575333
v 133.845184 -140.239487 -61.131207
v 188.366852 -113.291405 104.929695
v 104.895134 21.173553 133.575333
v 224.545517 63.124424 122.025040
v 173.626633 147.236298 6.642706
v 104.895134 21.173553 133.575333
v 230.328156 56.111008 130.329346
v 224.545517 63.124424 122.025040
v 224.545517 63.124424 122.025040
v 235.386993 60.709564 118.016541
v 173.626633 147.236298 6.642706
v 230.328156 56.111008 130.329346
v 235.386993 60.709564 118.016541
v 224.545517 63.124424 122.025040
v 230.404205 56.123878 130.220596
v 235.386993 60.709564 118.016541
v 230.328156 56.111008 130.329346
v 235.303513 58.813301 120.235489
v 235.386993 60.709564 118.016541
v 230.404205 56.123878 130.220596
v 188.366852 -113.291405 104.929695
v 235.306366 45.502438 126.098061
v 230.328156 56.111008 130.329346
v 230.404205 56.123878 130.220596
v 230.328156 56.111008 130.329346
v 235.306366 45.502438 126.098061
v 235.303513 58.813301 120.235489
v 230.404205 56.123878 130.220596
v 235.306366 45.502438 126.098061
v 235.303513 58.813301 120.235489
v 236.475037 55.053886 117.867325
v 235.386993 60.709564 118.016541
v 235.303513 58.813301 120.235489
v 235.306366 45.502438 126.098061
v 236.475037 55.053886 117.867325
v 104.895134 21.173553 133.575333
v 188.366852 -113.291405 104.929695
v 213.806168 22.987301 126.637993
v 104.895134 21.173553 133.575333
v 213.806168 22.987301 126.637993
v 230.328156 56.111008 130.329346
v 188.366852 -113.291405 104.929695
v 230.328156 56.111008 130.329346
v 213.806168 22.987301 126.637993
v 235.386993 60.709564 118.016541
v 227.046295 96.087555 47.036972
v 173.626633 147.236298 6.642706
v 134.739426 -138.579773 -66.311661
v 227.853394 -81.302551 -91.456917
v 134.664001 -138.744202 -66.069336
v 142.694580 -61.364765 -127.093704
v 227.853394 -81.302551 -91.456917
v 134.739426 -138.579773 -66.311661
v 139.315460 41.641960 -158.040024
v 227.853394 -81.302551 -91.456917
v 142.694580 -61.364765 -127.093704
v 133.938080 -140.336395 -62.272224
v 134.664001 -138.744202 -66.069336
v 227.853394 -81.302551 -91.456917
v 227.046295 96.087555 47.036972
v 229.777145 88.817871 20.532911
v 173.626633 147.236298 6.642706
v 188.366852 -113.291405 104.929695
v 221.595901 -47.151741 81.897491
v 235.306366 45.502438 126.098061
v 133.938080 -140.336395 -62.272224
v 237.218796 -79.543930 -55.802475
v 188.366852 -113.291405 104.929695
v 133.938080 -140.336395 -62.272224
v 227.853394 -81.302551 -91.456917
v 237.218796 -79.543930 -55.802475
v 235.386993 60.709564 118.016541
v 252.383453 52.400581 15.338086
v 227.046295 96.087555 47.036972
v 227.046295 96.087555 47.036972
v 252.383453 52.400581 15.338086
v 229.777145 88.817871 20.532911
v 236.475037 55.053886 117.867325
v 259.941772 36.884354 13.422402
v 235.386993 60.709564 118.016541
v 235.386993 60.709564 118.016541
v 259.941772 36.884354 13.422402
v 252.383453 52.400581 15.338086
v 173.626633 147.236298 6.642706
v 252.941666 42.136566 -12.072933
v 139.315460 41.641960 -158.040024
v 229.777145 88.817871 20.532911
v 252.941666 42.136566 -12.072933
v 173.626633 147.236298 6.642706
v 252.383453 52.400581 15.338086
v 259.584076 33.180386 -9.314262
v 229.777145 88.817871 20.532911
v 229.777145 88.817871 20.532911
v 259.584076 33.180386 -9.314262
v 252.941666 42.136566 -12.072933
v 259.941772 36.884354 13.422402
v 259.584076 33.180386 -9.314262
v 252.383453 52.400581 15.338086
v 235.306366 45.502438 126.098061
v 263.686859 24.854435 1.420384
v 236.475037 55.053886 117.867325
v 236.475037 55.053886 117.867325
v 263.686859 24.854435 1.420384
v 259.941772 36.884354 13.422402
v 259.941772 36.884354 13.422402
v 263.686859 24.854435 1.420384
v 259.584076 33.180386 -9.314262
v 139.315460 41.641960 -158.040024
v 239.083725 -30.681704 -69.466408
v 227.853394 -81.302551 -91.456917
v 188.366852 -113.291405 104.929695
v 242.429031 -19.622627 55.415958
v 221.595901 -47.151741 81.897491
v 221.595901 -47.151741 81.897491
v 242.429031 -19.622627 55.415958
v 235.306366 45.502438 126.098061
v 227.853394 -81.302551 -91.456917
v 249.539154 -34.009129 -53.336327
v 237.218796 -79.543930 -55.802475
v 239.083725 -30.681704 -69.466408
v 249.539154 -34.009129 -53.336327
v 227.853394 -81.302551 -91.456917
v 235.306366 45.502438 126.098061
v 263.616913 10.174770 -5.932042
v 263.686859 24.854435 1.420384
v 242.429031 -19.622627 55.415958
v 263.616913 10.174770 -5.932042
v 235.306366 45.502438 126.098061
v 263.686859 24.854435 1.420384
v 263.616913 10.174770 -5.932042
v 259.584076 33.180386 -9.314262
v 259.584076 33.180386 -9.314262
v 263.616913 10.174770 -5.932042
v 249.539154 -34.009129 -53.336327
v 237.218796 -79.543930 -55.802475
v 228.690369 -59.665329 34.853485
v 188.366852 -113.291405 104.929695
v 188.366852 -113.291405 104.929695
v 228.690369 -59.665329 34.853485
v 242.429031 -19.622627 55.415958
v 237.218796 -79.543930 -55.802475
v 242.429031 -19.622627 55.415958
v 228.690369 -59.665329 34.853485
v 252.941666 42.136566 -12.072933
v 235.905319 20.547306 -52.621857
v 139.315460 41.641960 -158.040024
v 259.584076 33.180386 -9.314262
v 235.905319 20.547306 -52.621857
v 252.941666 42.136566 -12.072933
v 139.315460 41.641960 -158.040024
v 235.905319 20.547306 -52.621857
v 239.083725 -30.681704 -69.466408
v 259.584076 33.180386 -9.314262
v 239.083725 -30.681704 -69.466408
v 235.905319 20.547306 -52.621857
v 239.083725 -30.681704 -69.466408
v 245.276047 -20.142405 -54.900856
v 249.539154 -34.009129 -53.336327
v 259.584076 33.180386 -9.314262
v 249.539154 -34.009129 -53.336327
v 245.276047 -20.142405 -54.900856
v 259.584076 33.180386 -9.314262
v 245.276047 -20.142405 -54.900856
v 239.083725 -30.681704 -69.466408
v 242.429031 -19.622627 55.415958
v 257.953461 -12.134771 -15.700088
v 263.616913 10.174770 -5.932042
v 249.539154 -34.009129 -53.336327
v 257.953461 -12.134771 -15.700088
v 237.218796 -79.543930 -55.802475
v 263.616913 10.174770 -5.932042
v 257.953461 -12.134771 -15.700088
v 249.539154 -34.009129 -53.336327
v 237.218796 -79.543930 -55.802475
v 255.105652 -16.347166 -7.847288
v 242.429031 -19.622627 55.415958
v 242.429031 -19.622627 55.415958
v 255.105652 -16.347166 -7.847288
v 257.953461 -12.134771 -15.700088
v 257.953461 -12.134771 -15.700088
v 255.105652 -16.347166 -7.847288
v 237.218796 -79.543930 -55.802475
vn -0.849337 -0.461461 0.256283
vn -0.745524 -0.661567 -0.080762
vn -0.832798 -0.480649 0.274636
vn -0.512622 -0.752472 -0.413526
vn -0.311616 -0.738409 -0.598036
vn -0.450394 0.791287 -0.413534
vn -0.821149 0.559759 0.111287
vn 0.209824 -0.275001 -0.938269
vn 0.019197 -0.619639 -0.784652
vn 0.312935 -0.948376 0.051531
vn -0.680862 -0.654019 0.329676
vn -0.764858 -0.547216 0.339922
vn -0.200865 0.747294 0.633408
vn -0.173815 0.689372 0.703245
vn 0.348697 0.823915 0.446739
vn 0.349536 0.821542 0.450438
vn 0.580022 0.655792 0.483231
vn 0.692031 0.535713 0.483844
vn 0.320124 -0.217546 0.922060
vn 0.802540 0.145869 0.578490
vn 0.854287 0.209671 0.475639
vn 0.964905 0.180599 0.190638
vn 0.952978 0.122318 0.277258
vn 0.065456 -0.168878 0.983461
vn 0.065284 -0.142625 0.987621
vn 0.148991 -0.182618 0.971829
vn 0.506072 0.794192 0.336377
vn 0.384340 -0.815104 -0.433460
vn 0.174883 -0.620062 -0.764813
vn 0.319392 -0.263030 -0.910387
vn 0.450664 -0.850706 -0.270559
vn 0.729526 0.675052 -0.109990
vn 0.874056 -0.308412 0.375378
vn 0.508308 -0.860776 -0.026237
vn 0.509385 -0.855650 -0.091597
vn 0.892802 0.436177 0.112490
vn 0.844333 0.532553 -0.059076
vn 0.965840 0.180914 0.185533
vn 0.898592 0.423593 0.114467
vn 0.644209 0.575809 -0.503427
vn 0.714753 0.602607 -0.354954
vn 0.824468 0.537186 -0.178001
vn 0.815479 0.543555 -0.198851
vn 0.891394 0.444899 -0.086501
vn 0.975328 0.062990 0.211583
vn 0.974187 0.102736 0.201009
vn 0.928971 0.362739 -0.073707
vn 0.712372 0.140648 -0.687564
vn 0.877059 -0.314054 0.363508
vn 0.876605 -0.306635 0.370863
vn 0.941320 -0.241948 -0.235324
vn 0.842562 0.046190 -0.536615
vn 0.962778 -0.124698 0.239809
vn 0.954197 -0.165873 0.248987
vn 0.955498 0.128455 -0.265560
vn 0.921617 0.106699 -0.373145
vn 0.884039 -0.432218 0.177940
vn 0.890655 -0.408309 0.200044
vn 0.901322 -0.397550 0.171964
vn 0.695347 0.470929 -0.542880
vn 0.752299 0.395698 -0.526753
vn 0.738137 0.251621 -0.625971
vn 0.827069 0.221222 -0.516738
vn 0.840367 0.201591 -0.503135
vn 0.841639 0.202253 -0.500737
vn 0.836545 0.208646 -0.506616
vn 0.934491 -0.312156 0.171130
vn 0.964081 -0.257276 -0.066009
vn 0.973969 -0.203762 -0.099322
vn 0.910147 -0.381023 0.162647
vn 0.934289 -0.312821 0.171016
vn 0.920634 -0.365245 0.137942
f 1//1 2//1 3//1
f 4//2 5//2 6//2
f 7//3 8//3 9//3
f 10//4 11//4 12//4
f 13//5 14//5 15//5
f 16//6 17//6 18//6
f 19//7 20//7 21//7
f 22//8 23//8 24//8
f 25//9 26//9 27//9
f 28//10 29//10 30//10
f 31//11 32//11 33//11
f 34//12 35//12 36//12
f 37//13 38//13 39//13
f 40//14 41//14 42//14
f 43//15 44//15 45//15
f 46//16 47//16 48//16
f 49//17 50//17 51//17
f 52//18 53//18 54//18
f 55//19 56//19 57//19
f 58//20 59//20 60//20
f 61//21 62//21 63//21
f 64//22 65//22 66//22
f 67//23 68//23 69//23
f 70//24 71//24 72//24
f 73//25 74//25 75//25
f 76//26 77//26 78//26
f 79//27 80//27 81//27
f 82//28 83//28 84//28
f 85//29 86//29 87//29
f 88//30 89//30 90//30
f 91//31 92//31 93//31
f 94//32 95//32 96//32
f 97//33 98//33 99//33
f 100//34 101//34 102//34
f 103//35 104//35 105//35
f 106//36 107//36 108//36
f 109//37 110//37 111//37
f 112//38 113//38 114//38
f 115//39 116//39 117//39
f 118//40 119//40 120//40
f 121//41 122//41 123//41
f 124//42 125//42 126//42
f 127//43 128//43 129//43
f 130//44 131//44 132//44
f 133//45 134//45 135//45
f 136//46 137//46 138//46
f 139//47 140//47 141//47
f 142//48 143//48 144//48
f 145//49 146//49 147//49
f 148//50 149//50 150//50
f 151//51 152//51 153//51
f 154//52 155//52 156//52
f 157//53 158//53 159//53
f 160//54 161//54 162//54
f 163//55 164//55 165//55
f 166//56 167//56 168//56
f 169//57 170//57 171//57
f 172//58 173//58 174//58
f 175//59 176//59 177//59
f 178//60 179//60 180//60
f 181//61 182//61 183//61
f 184//62 185//62 186//62
f 187//63 188//63 189//63
f 190//64 191//64 192//64
f 193//65 194//65 195//65
f 196//66 197//66 198//66
f 199//67 200//67 201//67
f 202//68 203//68 204//68
f 205//69 206//69 207//69
f 208//70 209//70 210//70
f 211//71 212//71 213//71
f 214//72 215//72 216//72
