o
v 11.679873 48.691868 89.254601
v -37.550026 38.087677 196.943451
v -36.737865 38.445591 196.425110
v -24.553406 -199.594269 -46.560936
v -29.306622 -192.862473 -51.980606
v 62.675205 -194.818039 0.139051
v -24.553406 -199.594269 -46.560936
v -73.652756 -185.344147 -21.905527
v -29.306622 -192.862473 -51.980606
v -24.553406 -199.594269 -46.560936
v -64.836182 -196.463104 -13.442850
v -73.652756 -185.344147 -21.905527
v -73.652756 -185.344147 -21.905527
v -16.161205 0.416398 29.387199
v -29.306622 -192.862473 -51.980606
v -24.553406 -199.594269 -46.560936
v 62.675205 -194.818039 0.139051
v 11.553372 -242.967896 24.017246
v -24.553406 -199.594269 -46.560936
v 11.553372 -242.967896 24.017246
v -64.836182 -196.463104 -13.442850
v 11.679873 48.691868 89.254601
v -36.737865 38.445591 196.425110
v 57.127987 -5.939130 159.321732
v -158.477417 -86.920685 174.723938
v -9.853786 -21.865028 237.081268
v -37.550026 38.087677 196.943451
v -37.550026 38.087677 196.943451
v -9.853786 -21.865028 237.081268
v -36.737865 38.445591 196.425110
v -36.737865 38.445591 196.425110
v -9.853786 -21.865028 237.081268
v 57.127987 -5.939130 159.321732
v 11.679873 48.691868 89.254601
v -78.637726 -0.405915 134.974457
v -37.550026 38.087677 196.943451
v -158.477417 -86.920685 174.723938
v -37.550026 38.087677 196.943451
v -78.637726 -0.405915 134.974457
v 11.679873 48.691868 89.254601
v -16.161205 0.416398 29.387199
v -78.637726 -0.405915 134.974457
v 11.679873 48.691868 89.254601
v 57.127987 -5.939130 159.321732
v 92.005966 -97.954453 82.825134
v 62.675205 -194.818039 0.139051
v 42.926022 -135.740402 3.617524
v 83.618103 -143.485474 44.358810
v 62.675205 -194.818039 0.139051
v 42.182278 -135.195099 3.237784
v 42.926022 -135.740402 3.617524
v -29.306622 -192.862473 -51.980606
v 41.547508 -134.766983 2.914471
v 62.675205 -194.818039 0.139051
v 62.675205 -194.818039 0.139051
v 41.547508 -134.766983 2.914471
v 42.182278 -135.195099 3.237784
v -158.477417 -86.920685 174.723938
v -78.637726 -0.405915 134.974457
v -83.927322 -7.351231 132.043121
v -16.161205 0.416398 29.387199
v -83.927322 -7.351231 132.043121
v -78.637726 -0.405915 134.974457
v -9.853786 -21.865028 237.081268
v 31.142338 -50.258759 217.779007
v 57.127987 -5.939130 159.321732
v -9.853786 -21.865028 237.081268
v 24.465729 -50.340443 221.787567
v 31.142338 -50.258759 217.779007
v 11.679873 48.691868 89.254601
v 8.423243 -81.533966 2.104116
v -16.161205 0.416398 29.387199
v 11.679873 48.691868 89.254601
v 42.926022 -135.740402 3.617524
v 8.423243 -81.533966 2.104116
v 42.182278 -135.195099 3.237784
v 8.423243 -81.533966 2.104116
v 42.926022 -135.740402 3.617524
v -16.161205 0.416398 29.387199
v 8.423243 -81.533966 2.104116
v -29.306622 -192.862473 -51.980606
v -29.306622 -192.862473 -51.980606
v 8.423243 -81.533966 2.104116
v 41.547508 -134.766983 2.914471
v 41.547508 -134.766983 2.914471
v 8.423243 -81.533966 2.104116
v 42.182278 -135.195099 3.237784
v -158.477417 -86.920685 174.723938
v -86.688187 -15.203884 125.469139
v -16.161205 0.416398 29.387199
v -158.477417 -86.920685 174.723938
v -83.927322 -7.351231 132.043121
v -86.688187 -15.203884 125.469139
v -16.161205 0.416398 29.387199
v -86.688187 -15.203884 125.469139
v -83.927322 -7.351231 132.043121
v 42.926022 -135.740402 3.617524
v 70.626465 -108.758385 51.490612
v 83.618103 -143.485474 44.358810
v 83.618103 -143.485474 44.358810
v 70.626465 -108.758385 51.490612
v 92.005966 -97.954453 82.825134
v 11.679873 48.691868 89.254601
v 92.005966 -97.954453 82.825134
v 70.626465 -108.758385 51.490612
v 11.679873 48.691868 89.254601
v 70.626465 -108.758385 51.490612
v 42.926022 -135.740402 3.617524
v 24.465729 -50.340443 221.787567
v 25.886959 -63.059578 217.154877
v 31.142338 -50.258759 217.779007
v 62.675205 -194.818039 0.139051
v 63.204300 -189.216644 78.639938
v 11.553372 -242.967896 24.017246
v 62.675205 -194.818039 0.139051
v 83.618103 -143.485474 44.358810
v 63.204300 -189.216644 78.639938
v 83.618103 -143.485474 44.358810
v 92.005966 -97.954453 82.825134
v 63.204300 -189.216644 78.639938
v 57.127987 -5.939130 159.321732
v 83.320923 -107.829277 114.567352
v 92.005966 -97.954453 82.825134
v 31.142338 -50.258759 217.779007
v 83.320923 -107.829277 114.567352
v 57.127987 -5.939130 159.321732
v 92.005966 -97.954453 82.825134
v 83.320923 -107.829277 114.567352
v 63.204300 -189.216644 78.639938
v 25.886959 -63.059578 217.154877
v 83.320923 -107.829277 114.567352
v 31.142338 -50.258759 217.779007
v -9.853786 -21.865028 237.081268
v -16.732304 -61.590771 227.559128
v 24.465729 -50.340443 221.787567
v 24.465729 -50.340443 221.787567
v -16.732304 -61.590771 227.559128
v 25.886959 -63.059578 217.154877
v -158.477417 -86.920685 174.723938
v -102.527100 -111.897629 200.148834
v -9.853786 -21.865028 237.081268
v -9.853786 -21.865028 237.081268
v -102.527100 -111.897629 200.148834
v -16.732304 -61.590771 227.559128
v 63.204300 -189.216644 78.639938
v -22.396637 -227.987686 90.032539
v 11.553372 -242.967896 24.017246
v -73.652756 -185.344147 -21.905527
v -158.477417 -86.920685 174.723938
v -86.722946 -101.477463 51.663853
v -73.652756 -185.344147 -21.905527
v -86.722946 -101.477463 51.663853
v -16.161205 0.416398 29.387199
v -158.477417 -86.920685 174.723938
v -16.161205 0.416398 29.387199
v -86.722946 -101.477463 51.663853
v -64.836182 -196.463104 -13.442850
v -71.210625 -201.767029 113.883125
v -73.652756 -185.344147 -21.905527
v -73.652756 -185.344147 -21.905527
v -71.210625 -201.767029 113.883125
v -158.477417 -86.920685 174.723938
v 11.553372 -242.967896 24.017246
v -71.210625 -201.767029 113.883125
v -64.836182 -196.463104 -13.442850
v -22.396637 -227.987686 90.032539
v -71.210625 -201.767029 113.883125
v 11.553372 -242.967896 24.017246
v -158.477417 -86.920685 174.723938
v -71.210625 -201.767029 113.883125
v -102.527100 -111.897629 200.148834
v -22.396637 -227.987686 90.032539
v -46.713909 -201.430573 122.086700
v -71.210625 -201.767029 113.883125
v 83.320923 -107.829277 114.567352
v 12.887352 -167.569977 157.901428
v 63.204300 -189.216644 78.639938
v 25.886959 -63.059578 217.154877
v 12.887352 -167.569977 157.901428
v 83.320923 -107.829277 114.567352
v 63.204300 -189.216644 78.639938
v 11.075981 -167.486176 160.092957
v -22.396637 -227.987686 90.032539
v 12.887352 -167.569977 157.901428
v 11.075981 -167.486176 160.092957
v 63.204300 -189.216644 78.639938
v 25.886959 -63.059578 217.154877
v 11.075981 -167.486176 160.092957
v 12.887352 -167.569977 157.901428
v -102.527100 -111.897629 200.148834
v -22.643982 -154.528870 181.316360
v -16.732304 -61.590771 227.559128
v -71.210625 -201.767029 113.883125
v -22.643982 -154.528870 181.316360
v -102.527100 -111.897629 200.148834
v -46.713909 -201.430573 122.086700
v -22.643982 -154.528870 181.316360
v -71.210625 -201.767029 113.883125
v -16.732304 -61.590771 227.559128
v -22.643982 -154.528870 181.316360
v 25.886959 -63.059578 217.154877
v 25.886959 -63.059578 217.154877
v -22.643982 -154.528870 181.316360
v 11.075981 -167.486176 160.092957
v -22.396637 -227.987686 90.032539
v -22.643982 -154.528870 181.316360
v -46.713909 -201.430573 122.086700
v 11.075981 -167.486176 160.092957
v -12.026583 -174.708160 155.385040
v -22.396637 -227.987686 90.032539
v -22.643982 -154.528870 181.316360
v -12.026583 -174.708160 155.385040
v 11.075981 -167.486176 160.092957
v -22.396637 -227.987686 90.032539
v -12.026583 -174.708160 155.385040
v -22.643982 -154.528870 181.316360
vn -0.466879 0.875117 -0.127260
vn 0.458535 -0.337945 -0.821912
vn -0.463671 -0.730749 -0.501013
vn -0.461054 -0.739215 -0.490907
vn -0.478296 0.368180 -0.797293
vn 0.368023 -0.696319 -0.616197
vn -0.355556 -0.866422 -0.350560
vn 0.502881 0.808932 0.304533
vn -0.482711 0.322206 0.814354
vn 0.217208 0.610345 0.761774
vn 0.524156 0.624193 0.579347
vn -0.533360 0.830217 -0.162073
vn -0.722292 0.689745 0.050454
vn -0.575153 0.746528 -0.334507
vn 0.858659 0.478399 -0.183953
vn 0.705952 0.274438 -0.652928
vn 0.574454 0.238146 -0.783128
vn 0.485372 0.209993 -0.848715
vn 0.562089 0.234417 -0.793161
vn -0.758741 0.636436 -0.138782
vn -0.651358 0.656587 -0.380298
vn 0.620269 0.467292 0.630004
vn 0.507051 0.155821 0.847714
vn 0.656469 0.408142 -0.634403
vn 0.663356 0.404657 -0.629453
vn 0.626040 0.379459 -0.681238
vn 0.216561 0.366249 -0.904966
vn 0.445801 0.264381 -0.855198
vn 0.606606 0.366723 -0.705368
vn -0.761072 0.425693 -0.489443
vn -0.770751 0.545951 -0.328450
vn -0.693698 0.589890 -0.413295
vn 0.688774 0.383965 -0.614949
vn 0.695284 0.384781 -0.607061
vn 0.685765 0.402225 -0.606581
vn 0.676391 0.401354 -0.617584
vn 0.501111 -0.246181 0.829628
vn 0.696294 -0.716254 0.046415
vn 0.918942 -0.393784 0.021905
vn 0.940118 -0.303783 0.154576
vn 0.948614 0.114244 0.295093
vn 0.900848 0.041776 0.432121
vn 0.938818 -0.303731 0.162383
vn 0.751584 -0.336233 0.567511
vn 0.203565 -0.261406 0.943519
vn 0.215055 -0.312923 0.925111
vn -0.400036 0.036102 0.915788
vn -0.191482 -0.197304 0.961460
vn 0.421682 -0.813075 0.401364
vn -0.802081 0.318286 -0.505331
vn -0.730667 0.382324 -0.565645
vn -0.761703 0.419531 -0.493764
vn -0.757239 -0.649897 -0.064983
vn -0.809077 -0.585009 -0.056203
vn -0.497062 -0.865572 -0.060941
vn -0.493963 -0.867602 -0.057156
vn -0.533094 -0.675174 0.509854
vn -0.172178 -0.818752 0.547722
vn 0.707564 -0.424330 0.565064
vn 0.705247 -0.414017 0.575514
vn 0.414982 -0.777251 0.472939
vn 0.645228 -0.526672 0.553441
vn 0.691811 -0.419334 0.587840
vn -0.025802 -0.444005 0.895653
vn -0.225062 -0.714407 0.662548
vn -0.210433 -0.722993 0.658027
vn 0.197617 -0.446731 0.872570
vn 0.322446 -0.488710 0.810673
vn -0.024499 -0.778867 0.626711
vn 0.117872 -0.778740 0.616174
vn 0.108406 -0.762546 0.637786
vn 0.050780 -0.777996 0.626214
f 1//1 2//1 3//1
f 4//2 5//2 6//2
f 7//3 8//3 9//3
f 10//4 11//4 12//4
f 13//5 14//5 15//5
f 16//6 17//6 18//6
f 19//7 20//7 21//7
f 22//8 23//8 24//8
f 25//9 26//9 27//9
f 28//10 29//10 30//10
f 31//11 32//11 33//11
f 34//12 35//12 36//12
f 37//13 38//13 39//13
f 40//14 41//14 42//14
f 43//15 44//15 45//15
f 46//16 47//16 48//16
f 49//17 50//17 51//17
f 52//18 53//18 54//18
f 55//19 56//19 57//19
f 58//20 59//20 60//20
f 61//21 62//21 63//21
f 64//22 65//22 66//22
f 67//23 68//23 69//23
f 70//24 71//24 72//24
f 73//25 74//25 75//25
f 76//26 77//26 78//26
f 79//27 80//27 81//27
f 82//28 83//28 84//28
f 85//29 86//29 87//29
f 88//30 89//30 90//30
f 91//31 92//31 93//31
f 94//32 95//32 96//32
f 97//33 98//33 99//33
f 100//34 101//34 102//34
f 103//35 104//35 105//35
f 106//36 107//36 108//36
f 109//37 110//37 111//37
f 112//38 113//38 114//38
f 115//39 116//39 117//39
f 118//40 119//40 120//40
f 121//41 122//41 123//41
f 124//42 125//42 126//42
f 127//43 128//43 129//43
f 130//44 131//44 132//44
f 133//45 134//45 135//45
f 136//46 137//46 138//46
f 139//47 140//47 141//47
f 142//48 143//48 144//48
f 145//49 146//49 147//49
f 148//50 149//50 150//50
f 151//51 152//51 153//51
f 154//52 155//52 156//52
f 157//53 158//53 159//53
f 160//54 161//54 162//54
f 163//55 164//55 165//55
f 166//56 167//56 168//56
f 169//57 170//57 171//57
f 172//58 173//58 174//58
f 175//59 176//59 177//59
f 178//60 179//60 180//60
f 181//61 182//61 183//61
f 184//62 185//62 186//62
f 187//63 188//63 189//63
f 190//64 191//64 192//64
f 193//65 194//65 195//65
f 196//66 197//66 198//66
f 199//67 200//67 201//67
f 202//68 203//68 204//68
f 205//69 206//69 207//69
f 208//70 209//70 210//70
f 211//71 212//71 213//71
f 214//72 215//72 216//72
