o
v -11.198382 -106.031830 -161.851898
v -90.866081 -68.127388 -219.527527
v 196.779510 -58.923622 -107.259766
v -11.198382 -106.031830 -161.851898
v 196.779510 -58.923622 -107.259766
v -15.563417 -112.685585 -120.796234
v 196.779510 -58.923622 -107.259766
v -53.594135 -116.306908 -93.697060
v -15.563417 -112.685585 -120.796234
v -11.198382 -106.031830 -161.851898
v -53.594135 -116.306908 -93.697060
v -90.866081 -68.127388 -219.527527
v -11.198382 -106.031830 -161.851898
v -15.563417 -112.685585 -120.796234
v -53.594135 -116.306908 -93.697060
v -53.594135 -116.306908 -93.697060
v -86.165527 -103.621819 -97.762413
v -90.866081 -68.127388 -219.527527
v -86.165527 -103.621819 -97.762413
v -119.841782 -74.275726 -121.479996
v -90.866081 -68.127388 -219.527527
v -53.594135 -116.306908 -93.697060
v -122.953888 -81.797958 -64.001984
v -86.165527 -103.621819 -97.762413
v -86.165527 -103.621819 -97.762413
v -122.953888 -81.797958 -64.001984
v -119.841782 -74.275726 -121.479996
v -123.262817 -80.506927 -62.099876
v -123.047958 -81.622955 -63.700199
v -124.002823 -58.830982 -18.366297
v -53.594135 -116.306908 -93.697060
v -102.529785 -45.058418 33.684078
v -122.953888 -81.797958 -64.001984
v -123.047958 -81.622955 -63.700199
v -122.953888 -81.797958 -64.001984
v -102.529785 -45.058418 33.684078
v -123.047958 -81.622955 -63.700199
v -102.529785 -45.058418 33.684078
v -124.002823 -58.830982 -18.366297
v -90.866081 -68.127388 -219.527527
v 26.653454 141.315445 -154.498856
v 196.779510 -58.923622 -107.259766
v -90.866081 -68.127388 -219.527527
v -112.823494 -11.016848 -219.424118
v 26.653454 141.315445 -154.498856
v 196.779510 -58.923622 -107.259766
v -4.707564 35.588272 120.435760
v -53.594135 -116.306908 -93.697060
v -53.594135 -116.306908 -93.697060
v -4.707564 35.588272 120.435760
v -102.529785 -45.058418 33.684078
v 7.539843 147.581207 192.229950
v -4.707564 35.588272 120.435760
v 196.779510 -58.923622 -107.259766
v -119.841782 -74.275726 -121.479996
v -183.840546 28.271011 -85.193901
v -90.866081 -68.127388 -219.527527
v -90.866081 -68.127388 -219.527527
v -183.840546 28.271011 -85.193901
v -112.823494 -11.016848 -219.424118
v -122.953888 -81.797958 -64.001984
v -183.840546 28.271011 -85.193901
v -119.841782 -74.275726 -121.479996
v -123.047958 -81.622955 -63.700199
v -183.840546 28.271011 -85.193901
v -122.953888 -81.797958 -64.001984
v -4.707564 35.588272 120.435760
v -124.756454 92.070686 155.597916
v -102.529785 -45.058418 33.684078
v 7.539843 147.581207 192.229950
v -124.756454 92.070686 155.597916
v -4.707564 35.588272 120.435760
v 7.539843 147.581207 192.229950
v -108.174866 125.485535 162.627716
v -124.756454 92.070686 155.597916
v -112.823494 -11.016848 -219.424118
v -76.070534 134.343719 -154.281876
v 26.653454 141.315445 -154.498856
v -112.823494 -11.016848 -219.424118
v -76.124588 134.371124 -154.218567
v -76.070534 134.343719 -154.281876
v -183.840546 28.271011 -85.193901
v -193.329407 66.255852 -89.607887
v -112.823494 -11.016848 -219.424118
v -112.823494 -11.016848 -219.424118
v -193.329407 66.255852 -89.607887
v -76.124588 134.371124 -154.218567
v 7.539843 147.581207 192.229950
v -160.200958 179.068115 105.634842
v -108.174866 125.485535 162.627716
v 7.539843 147.581207 192.229950
v -64.153641 215.669342 96.116577
v -160.200958 179.068115 105.634842
v -108.174866 125.485535 162.627716
v -152.869797 157.588318 119.361153
v -124.756454 92.070686 155.597916
v -160.200958 179.068115 105.634842
v -152.869797 157.588318 119.361153
v -108.174866 125.485535 162.627716
v 26.653454 141.315445 -154.498856
v -41.374660 233.331543 -22.196880
v 196.779510 -58.923622 -107.259766
v 7.539843 147.581207 192.229950
v 196.779510 -58.923622 -107.259766
v -41.374660 233.331543 -22.196880
v 7.539843 147.581207 192.229950
v -41.374660 233.331543 -22.196880
v -64.153641 215.669342 96.116577
v -76.070534 134.343719 -154.281876
v -53.920441 237.451645 -21.330166
v 26.653454 141.315445 -154.498856
v 26.653454 141.315445 -154.498856
v -53.920441 237.451645 -21.330166
v -41.374660 233.331543 -22.196880
v -76.124588 134.371124 -154.218567
v -53.920441 237.451645 -21.330166
v -76.070534 134.343719 -154.281876
v -41.374660 233.331543 -22.196880
v -54.281734 237.513184 -20.508032
v -64.153641 215.669342 96.116577
v -53.920441 237.451645 -21.330166
v -54.281734 237.513184 -20.508032
v -41.374660 233.331543 -22.196880
v -54.281734 237.513184 -20.508032
v -70.981773 226.763443 54.552429
v -64.153641 215.669342 96.116577
v -54.281734 237.513184 -20.508032
v -71.145241 226.812820 54.297367
v -70.981773 226.763443 54.552429
v -70.981773 226.763443 54.552429
v -83.290192 226.891113 52.930389
v -64.153641 215.669342 96.116577
v -71.145241 226.812820 54.297367
v -83.290192 226.891113 52.930389
v -70.981773 226.763443 54.552429
v -54.281734 237.513184 -20.508032
v -83.290192 226.891113 52.930389
v -71.145241 226.812820 54.297367
v -123.262817 -80.506927 -62.099876
v -181.721664 84.409241 69.162720
v -123.047958 -81.622955 -63.700199
v -123.047958 -81.622955 -63.700199
v -181.721664 84.409241 69.162720
v -183.840546 28.271011 -85.193901
v -123.262817 -80.506927 -62.099876
v -124.002823 -58.830982 -18.366297
v -181.721664 84.409241 69.162720
v -102.529785 -45.058418 33.684078
v -181.721664 84.409241 69.162720
v -124.002823 -58.830982 -18.366297
v -124.756454 92.070686 155.597916
v -181.721664 84.409241 69.162720
v -102.529785 -45.058418 33.684078
v -152.869797 157.588318 119.361153
v -181.721664 84.409241 69.162720
v -124.756454 92.070686 155.597916
v -183.840546 28.271011 -85.193901
v -181.721664 84.409241 69.162720
v -193.329407 66.255852 -89.607887
v -64.153641 215.669342 96.116577
v -114.457085 213.601807 69.139450
v -160.200958 179.068115 105.634842
v -83.290192 226.891113 52.930389
v -114.457085 213.601807 69.139450
v -64.153641 215.669342 96.116577
v -160.200958 179.068115 105.634842
v -189.155655 157.793732 59.181740
v -152.869797 157.588318 119.361153
v -152.869797 157.588318 119.361153
v -189.155655 157.793732 59.181740
v -181.721664 84.409241 69.162720
v -83.290192 226.891113 52.930389
v -113.885887 215.166794 62.069603
v -114.457085 213.601807 69.139450
v -54.281734 237.513184 -20.508032
v -108.947342 218.843521 51.040760
v -83.290192 226.891113 52.930389
v -83.290192 226.891113 52.930389
v -108.947342 218.843521 51.040760
v -113.885887 215.166794 62.069603
v -114.457085 213.601807 69.139450
v -118.086662 214.806961 55.652309
v -160.200958 179.068115 105.634842
v -113.885887 215.166794 62.069603
v -118.086662 214.806961 55.652309
v -114.457085 213.601807 69.139450
v -108.947342 218.843521 51.040760
v -118.086662 214.806961 55.652309
v -113.885887 215.166794 62.069603
v -193.329407 66.255852 -89.607887
v -191.981110 173.839050 12.372883
v -76.124588 134.371124 -154.218567
v -76.124588 134.371124 -154.218567
v -191.981110 173.839050 12.372883
v -53.920441 237.451645 -21.330166
v -53.920441 237.451645 -21.330166
v -191.981110 173.839050 12.372883
v -54.281734 237.513184 -20.508032
v -160.200958 179.068115 105.634842
v -191.981110 173.839050 12.372883
v -189.155655 157.793732 59.181740
v -118.086662 214.806961 55.652309
v -191.981110 173.839050 12.372883
v -160.200958 179.068115 105.634842
v -54.281734 237.513184 -20.508032
v -191.981110 173.839050 12.372883
v -108.947342 218.843521 51.040760
v -108.947342 218.843521 51.040760
v -191.981110 173.839050 12.372883
v -118.086662 214.806961 55.652309
v -181.721664 84.409241 69.162720
v -197.962814 142.279343 25.463989
v -193.329407 66.255852 -89.607887
v -189.155655 157.793732 59.181740
v -197.962814 142.279343 25.463989
v -181.721664 84.409241 69.162720
v -193.329407 66.255852 -89.607887
v -197.962814 142.279343 25.463989
v -191.981110 173.839050 12.372883
v -191.981110 173.839050 12.372883
v -197.962814 142.279343 25.463989
v -189.155655 157.793732 59.181740
vn 0.325084 -0.519317 -0.790335
vn 0.251104 -0.959355 -0.128782
vn 0.229127 -0.953850 0.194090
vn -0.234839 -0.928966 -0.286133
vn -0.021627 -0.986524 -0.162182
vn -0.323459 -0.911715 -0.253278
vn -0.551934 -0.806052 -0.213657
vn -0.376310 -0.909287 0.177733
vn -0.594750 -0.792341 -0.135897
vn -0.841575 -0.489488 0.228368
vn -0.271986 -0.880589 0.388054
vn -0.335206 -0.856607 0.392253
vn -0.442174 -0.805055 0.395434
vn 0.359819 0.086544 -0.929000
vn 0.308075 0.120155 -0.943744
vn 0.216483 -0.818935 0.531489
vn 0.200866 -0.820067 0.535857
vn 0.537855 -0.495878 0.681775
vn -0.855764 -0.434937 -0.280175
vn -0.870083 -0.333866 -0.362615
vn -0.860306 -0.497395 -0.111676
vn -0.875602 -0.482980 0.007140
vn -0.099843 -0.670099 0.735526
vn -0.006982 -0.539132 0.842192
vn -0.230811 -0.089299 0.968892
vn -0.030093 0.415096 -0.909280
vn -0.572609 0.451456 -0.684329
vn -0.882138 -0.265565 -0.388983
vn -0.616813 0.446435 -0.648257
vn -0.303901 0.539865 0.784978
vn -0.207926 0.718292 0.663946
vn -0.629045 0.151758 0.762412
vn -0.529514 0.321046 0.785203
vn 0.766963 0.639698 -0.050547
vn 0.783064 0.618149 0.068570
vn 0.499163 0.837805 0.221175
vn -0.055130 0.793438 -0.606149
vn 0.247209 0.850440 -0.464370
vn -0.262970 0.783126 -0.563525
vn 0.325601 0.923977 0.200623
vn 0.315518 0.946494 0.067810
vn 0.298473 0.933216 0.200056
vn 0.057552 0.986383 0.154069
vn -0.024461 0.964878 0.261559
vn -0.016199 0.979655 0.200033
vn -0.009322 0.990173 0.139535
vn -0.853066 -0.474748 0.216546
vn -0.875576 -0.450002 0.175681
vn -0.849435 -0.478384 0.222731
vn -0.708154 -0.553339 0.438558
vn -0.675161 -0.548230 0.493560
vn -0.831786 -0.051210 0.552729
vn -0.968194 -0.230572 0.097148
vn -0.277858 0.846998 0.453199
vn -0.217072 0.917061 0.334483
vn -0.855705 0.037740 0.516086
vn -0.856280 -0.016528 0.516247
vn -0.303831 0.935094 0.182446
vn -0.300515 0.953583 0.019221
vn -0.306372 0.935732 0.174760
vn -0.480009 0.852882 0.205387
vn -0.347476 0.921059 0.175813
vn -0.328647 0.930286 0.162970
vn -0.624783 0.541266 -0.562741
vn -0.460384 0.737040 -0.494791
vn -0.456047 0.849888 -0.264030
vn -0.794290 0.558401 0.239355
vn -0.540741 0.829836 0.137737
vn -0.437328 0.893617 -0.100956
vn -0.440903 0.892794 -0.092321
vn -0.974766 -0.202288 0.094394
vn -0.958817 -0.059353 0.277755
vn -0.982816 0.133326 -0.127657
vn -0.960510 0.240263 0.140336
f 1//1 2//1 3//1
f 4//2 5//2 6//2
f 7//3 8//3 9//3
f 10//4 11//4 12//4
f 13//5 14//5 15//5
f 16//6 17//6 18//6
f 19//7 20//7 21//7
f 22//8 23//8 24//8
f 25//9 26//9 27//9
f 28//10 29//10 30//10
f 31//11 32//11 33//11
f 34//12 35//12 36//12
f 37//13 38//13 39//13
f 40//14 41//14 42//14
f 43//15 44//15 45//15
f 46//16 47//16 48//16
f 49//17 50//17 51//17
f 52//18 53//18 54//18
f 55//19 56//19 57//19
f 58//20 59//20 60//20
f 61//21 62//21 63//21
f 64//22 65//22 66//22
f 67//23 68//23 69//23
f 70//24 71//24 72//24
f 73//25 74//25 75//25
f 76//26 77//26 78//26
f 79//27 80//27 81//27
f 82//28 83//28 84//28
f 85//29 86//29 87//29
f 88//30 89//30 90//30
f 91//31 92//31 93//31
f 94//32 95//32 96//32
f 97//33 98//33 99//33
f 100//34 101//34 102//34
f 103//35 104//35 105//35
f 106//36 107//36 108//36
f 109//37 110//37 111//37
f 112//38 113//38 114//38
f 115//39 116//39 117//39
f 118//40 119//40 120//40
f 121//41 122//41 123//41
f 124//42 125//42 126//42
f 127//43 128//43 129//43
f 130//44 131//44 132//44
f 133//45 134//45 135//45
f 136//46 137//46 138//46
f 139//47 140//47 141//47
f 142//48 143//48 144//48
f 145//49 146//49 147//49
f 148//50 149//50 150//50
f 151//51 152//51 153//51
f 154//52 155//52 156//52
f 157//53 158//53 159//53
f 160//54 161//54 162//54
f 163//55 164//55 165//55
f 166//56 167//56 168//56
f 169//57 170//57 171//57
f 172//58 173//58 174//58
f 175//59 176//59 177//59
f 178//60 179//60 180//60
f 181//61 182//61 183//61
f 184//62 185//62 186//62
f 187//63 188//63 189//63
f 190//64 191//64 192//64
f 193//65 194//65 195//65
f 196//66 197//66 198//66
f 199//67 200//67 201//67
f 202//68 203//68 204//68
f 205//69 206//69 207//69
f 208//70 209//70 210//70
f 211//71 212//71 213//71
f 214//72 215//72 216//72
f 217//73 218//73 219//73
f 220//74 221//74 222//74
