o
v 31.922853 -207.854919 -90.053802
v 86.247398 -121.820587 -109.686203
v 179.550339 -23.866199 -110.674713
v 31.922853 -207.854919 -90.053802
v -84.346581 78.159187 -149.041779
v 86.247398 -121.820587 -109.686203
v 86.247398 -121.820587 -109.686203
v -84.346581 78.159187 -149.041779
v 179.550339 -23.866199 -110.674713
v 179.550339 -23.866199 -110.674713
v -84.346581 78.159187 -149.041779
v 85.449997 120.613953 -130.011658
v -84.346581 78.159187 -149.041779
v -121.754807 -38.168678 -121.522224
v -172.256683 22.509701 -130.512070
v 31.922853 -207.854919 -90.053802
v -120.646278 -39.207455 -121.381943
v -84.346581 78.159187 -149.041779
v -121.754807 -38.168678 -121.522224
v -120.646278 -39.207455 -121.381943
v 31.922853 -207.854919 -90.053802
v -84.346581 78.159187 -149.041779
v -120.646278 -39.207455 -121.381943
v -121.754807 -38.168678 -121.522224
v -84.346581 78.159187 -149.041779
v -172.256683 22.509701 -130.512070
v -43.467655 137.314392 -113.800690
v -84.346581 78.159187 -149.041779
v -43.467655 137.314392 -113.800690
v 85.449997 120.613953 -130.011658
v 179.550339 -23.866199 -110.674713
v 85.449997 120.613953 -130.011658
v 70.399788 240.862793 5.105927
v -43.467655 137.314392 -113.800690
v 70.399788 240.862793 5.105927
v 85.449997 120.613953 -130.011658
v -43.467655 137.314392 -113.800690
v 66.683258 240.992722 7.542560
v 70.399788 240.862793 5.105927
v -121.754807 -38.168678 -121.522224
v 31.922853 -207.854919 -90.053802
v -112.966064 -81.136566 -48.358082
v -121.754807 -38.168678 -121.522224
v -112.966064 -81.136566 -48.358082
v -172.256683 22.509701 -130.512070
v -172.256683 22.509701 -130.512070
v -112.966064 -81.136566 -48.358082
v -224.169754 95.950195 62.313046
v -112.966064 -81.136566 -48.358082
v -142.106384 -14.207804 184.113480
v -224.169754 95.950195 62.313046
v 66.683258 240.992722 7.542560
v 66.386574 140.565491 182.631317
v 70.399788 240.862793 5.105927
v -142.106384 -14.207804 184.113480
v -100.471863 4.107393 195.064636
v 0.212881 136.672913 199.779984
v 0.212881 136.672913 199.779984
v 66.386574 140.565491 182.631317
v 5.149865 146.759247 190.966049
v 0.212881 136.672913 199.779984
v -23.925676 44.503456 207.872833
v 66.386574 140.565491 182.631317
v -100.471863 4.107393 195.064636
v -39.857513 44.200611 204.788574
v 0.212881 136.672913 199.779984
v -23.925676 44.503456 207.872833
v -39.857513 44.200611 204.788574
v -100.471863 4.107393 195.064636
v 0.212881 136.672913 199.779984
v -39.857513 44.200611 204.788574
v -23.925676 44.503456 207.872833
v 31.922853 -207.854919 -90.053802
v 179.550339 -23.866199 -110.674713
v 48.679348 -84.105453 135.197571
v -142.106384 -14.207804 184.113480
v 48.679348 -84.105453 135.197571
v -100.471863 4.107393 195.064636
v -23.925676 44.503456 207.872833
v -100.471863 4.107393 195.064636
v 48.679348 -84.105453 135.197571
v 0.212881 136.672913 199.779984
v 5.149865 146.759247 190.966049
v -12.868483 163.769501 171.865677
v 66.683258 240.992722 7.542560
v -12.868483 163.769501 171.865677
v 66.386574 140.565491 182.631317
v 66.386574 140.565491 182.631317
v -12.868483 163.769501 171.865677
v 5.149865 146.759247 190.966049
v 66.683258 240.992722 7.542560
v -63.638767 215.656204 96.757973
v -12.868483 163.769501 171.865677
v -63.669800 215.662857 96.716721
v -63.638767 215.656204 96.757973
v 66.683258 240.992722 7.542560
v -142.106384 -14.207804 184.113480
v -57.741089 174.536423 152.464767
v -224.169754 95.950195 62.313046
v -142.106384 -14.207804 184.113480
v 0.212881 136.672913 199.779984
v -57.741089 174.536423 152.464767
v 0.212881 136.672913 199.779984
v -12.868483 163.769501 171.865677
v -57.741089 174.536423 152.464767
v -63.638767 215.656204 96.757973
v -57.741089 174.536423 152.464767
v -12.868483 163.769501 171.865677
v -224.169754 95.950195 62.313046
v -57.741089 174.536423 152.464767
v -63.669800 215.662857 96.716721
v -63.669800 215.662857 96.716721
v -57.741089 174.536423 152.464767
v -63.638767 215.656204 96.757973
v -172.256683 22.509701 -130.512070
v -114.291191 165.936142 1.609546
v -43.467655 137.314392 -113.800690
v -172.256683 22.509701 -130.512070
v -224.169754 95.950195 62.313046
v -114.291191 165.936142 1.609546
v -224.169754 95.950195 62.313046
v -63.669800 215.662857 96.716721
v -114.291191 165.936142 1.609546
v -43.467655 137.314392 -113.800690
v -114.291191 165.936142 1.609546
v 66.683258 240.992722 7.542560
v -63.669800 215.662857 96.716721
v 66.683258 240.992722 7.542560
v -114.291191 165.936142 1.609546
v -23.925676 44.503456 207.872833
v 12.360106 28.108702 194.251541
v 66.386574 140.565491 182.631317
v -23.925676 44.503456 207.872833
v 48.679348 -84.105453 135.197571
v 12.360106 28.108702 194.251541
v 31.922853 -207.854919 -90.053802
v -71.332771 -108.403862 86.588593
v -112.966064 -81.136566 -48.358082
v -112.966064 -81.136566 -48.358082
v -71.332771 -108.403862 86.588593
v -142.106384 -14.207804 184.113480
v 179.550339 -23.866199 -110.674713
v 70.399788 240.862793 5.105927
v 126.018738 91.777466 44.706406
v 179.550339 -23.866199 -110.674713
v 126.018738 91.777466 44.706406
v 48.679348 -84.105453 135.197571
v 66.386574 140.565491 182.631317
v 48.679348 -84.105453 135.197571
v 126.018738 91.777466 44.706406
v 66.386574 140.565491 182.631317
v 125.611229 92.674515 45.402409
v 70.399788 240.862793 5.105927
v 70.399788 240.862793 5.105927
v 125.611229 92.674515 45.402409
v 126.018738 91.777466 44.706406
v 66.386574 140.565491 182.631317
v 126.018738 91.777466 44.706406
v 125.611229 92.674515 45.402409
v 31.922853 -207.854919 -90.053802
v 48.679348 -84.105453 135.197571
v -69.181946 -108.505142 87.027374
v 31.922853 -207.854919 -90.053802
v -69.181946 -108.505142 87.027374
v -71.332771 -108.403862 86.588593
v -142.106384 -14.207804 184.113480
v -69.181946 -108.505142 87.027374
v 48.679348 -84.105453 135.197571
v -71.332771 -108.403862 86.588593
v -69.181946 -108.505142 87.027374
v -142.106384 -14.207804 184.113480
v 12.360106 28.108702 194.251541
v 35.295979 38.093716 179.988159
v 66.386574 140.565491 182.631317
v 48.679348 -84.105453 135.197571
v 35.295979 38.093716 179.988159
v 12.360106 28.108702 194.251541
v 66.386574 140.565491 182.631317
v 35.295979 38.093716 179.988159
v 48.679348 -84.105453 135.197571
vn 0.493676 -0.477568 -0.726783
vn -0.020672 -0.210001 -0.977483
vn 0.102262 -0.107386 -0.988944
vn 0.124022 -0.051847 -0.990924
vn -0.074749 -0.206744 -0.975536
vn -0.040096 -0.217437 -0.975251
vn -0.272026 -0.407986 -0.871521
vn -0.071319 -0.207852 -0.975557
vn -0.534066 0.673509 -0.511037
vn -0.037752 0.530563 -0.846804
vn 0.808597 0.481361 -0.338324
vn 0.013372 0.747685 -0.663918
vn -0.276598 0.840061 -0.466681
vn -0.674769 -0.668932 -0.311795
vn -0.714483 -0.637399 -0.288506
vn -0.855752 -0.516285 -0.033753
vn -0.829382 -0.555861 0.056070
vn 0.336062 0.816742 0.469036
vn -0.339305 0.225219 0.913317
vn 0.167165 0.601092 0.781501
vn 0.249731 0.019602 0.968117
vn -0.261614 0.164872 0.950986
vn -0.190746 0.050613 0.980334
vn -0.190793 0.135335 0.972256
vn 0.766434 -0.585315 0.264548
vn 0.017120 -0.541493 0.840531
vn 0.089542 -0.451201 0.887919
vn -0.115645 0.685093 0.719218
vn 0.183158 0.852631 0.489361
vn 0.159030 0.807028 0.568696
vn 0.163737 0.859951 0.483400
vn -0.054265 0.978569 0.198638
vn -0.572561 0.377923 0.727563
vn -0.451359 0.340085 0.824995
vn -0.151656 0.672775 0.724137
vn -0.066348 0.799412 0.597108
vn -0.578765 0.625628 0.523088
vn -0.565596 0.633758 0.527686
vn -0.539562 0.677958 -0.499245
vn -0.640952 0.643911 -0.417803
vn -0.578005 0.807921 -0.114774
vn -0.336684 0.844694 -0.416096
vn -0.360742 0.891478 -0.274102
vn 0.327071 -0.059679 0.943114
vn 0.144124 -0.423915 0.894161
vn -0.649863 -0.758584 0.047214
vn -0.745164 -0.659853 0.096566
vn 0.931057 0.361153 0.051975
vn 0.886660 -0.168281 0.430715
vn 0.883479 -0.162403 0.439421
vn 0.885239 0.396117 0.243808
vn 0.928020 0.365435 0.072361
vn 0.925683 0.151599 0.346596
vn -0.015821 -0.875837 0.482348
vn -0.129425 -0.894488 0.427949
vn -0.109410 -0.752846 0.649040
vn -0.162912 -0.766103 0.621729
vn 0.577923 -0.195781 0.792259
vn 0.582887 -0.222599 0.781468
vn 0.622505 -0.208330 0.754378
f 1//1 2//1 3//1
f 4//2 5//2 6//2
f 7//3 8//3 9//3
f 10//4 11//4 12//4
f 13//5 14//5 15//5
f 16//6 17//6 18//6
f 19//7 20//7 21//7
f 22//8 23//8 24//8
f 25//9 26//9 27//9
f 28//10 29//10 30//10
f 31//11 32//11 33//11
f 34//12 35//12 36//12
f 37//13 38//13 39//13
f 40//14 41//14 42//14
f 43//15 44//15 45//15
f 46//16 47//16 48//16
f 49//17 50//17 51//17
f 52//18 53//18 54//18
f 55//19 56//19 57//19
f 58//20 59//20 60//20
f 61//21 62//21 63//21
f 64//22 65//22 66//22
f 67//23 68//23 69//23
f 70//24 71//24 72//24
f 73//25 74//25 75//25
f 76//26 77//26 78//26
f 79//27 80//27 81//27
f 82//28 83//28 84//28
f 85//29 86//29 87//29
f 88//30 89//30 90//30
f 91//31 92//31 93//31
f 94//32 95//32 96//32
f 97//33 98//33 99//33
f 100//34 101//34 102//34
f 103//35 104//35 105//35
f 106//36 107//36 108//36
f 109//37 110//37 111//37
f 112//38 113//38 114//38
f 115//39 116//39 117//39
f 118//40 119//40 120//40
f 121//41 122//41 123//41
f 124//42 125//42 126//42
f 127//43 128//43 129//43
f 130//44 131//44 132//44
f 133//45 134//45 135//45
f 136//46 137//46 138//46
f 139//47 140//47 141//47
f 142//48 143//48 144//48
f 145//49 146//49 147//49
f 148//50 149//50 150//50
f 151//51 152//51 153//51
f 154//52 155//52 156//52
f 157//53 158//53 159//53
f 160//54 161//54 162//54
f 163//55 164//55 165//55
f 166//56 167//56 168//56
f 169//57 170//57 171//57
f 172//58 173//58 174//58
f 175//59 176//59 177//59
f 178//60 179//60 180//60
