o
v 11.838629 -1.833107 97.474525
v -82.052902 -142.085159 158.670929
v 5.252357 -0.987164 211.080170
v -82.052902 -142.085159 158.670929
v -81.181786 -141.775482 159.492432
v 5.252357 -0.987164 211.080170
v -81.181786 -141.775482 159.492432
v -80.671875 -141.621384 159.874542
v 5.252357 -0.987164 211.080170
v 11.838629 -1.833107 97.474525
v -107.042046 -242.258224 26.552210
v -82.052902 -142.085159 158.670929
v -82.052902 -142.085159 158.670929
v -107.042046 -242.258224 26.552210
v -81.181786 -141.775482 159.492432
v -81.181786 -141.775482 159.492432
v -107.042046 -242.258224 26.552210
v -80.671875 -141.621384 159.874542
v 11.838629 -1.833107 97.474525
v 5.252357 -0.987164 211.080170
v 158.402710 -114.208839 -163.664520
v 11.838629 -1.833107 97.474525
v 158.402710 -114.208839 -163.664520
v 40.405117 -53.299126 -58.296223
v 11.838629 -1.833107 97.474525
v 0.905767 -170.572647 -172.043823
v -107.042046 -242.258224 26.552210
v 11.838629 -1.833107 97.474525
v 40.405117 -53.299126 -58.296223
v 0.905767 -170.572647 -172.043823
v 158.402710 -114.208839 -163.664520
v 0.905767 -170.572647 -172.043823
v 40.405117 -53.299126 -58.296223
v 5.252357 -0.987164 211.080170
v 108.285675 -111.636925 136.045715
v 158.402710 -114.208839 -163.664520
v 5.252357 -0.987164 211.080170
v 106.372253 -129.155640 163.940414
v 108.285675 -111.636925 136.045715
v -80.671875 -141.621384 159.874542
v 61.860291 -148.766037 174.096359
v 5.252357 -0.987164 211.080170
v 5.252357 -0.987164 211.080170
v 61.860291 -148.766037 174.096359
v 106.372253 -129.155640 163.940414
v -80.671875 -141.621384 159.874542
v 57.882324 -159.530304 166.337067
v 61.860291 -148.766037 174.096359
v 108.285675 -111.636925 136.045715
v 122.906021 -125.028198 92.264755
v 158.402710 -114.208839 -163.664520
v 106.372253 -129.155640 163.940414
v 103.916695 -163.801971 149.727203
v 106.191017 -158.416611 148.990952
v 61.860291 -148.766037 174.096359
v 100.271523 -166.432632 151.819016
v 106.372253 -129.155640 163.940414
v 106.372253 -129.155640 163.940414
v 100.271523 -166.432632 151.819016
v 103.916695 -163.801971 149.727203
v -80.671875 -141.621384 159.874542
v 58.952469 -169.616302 157.254227
v 57.882324 -159.530304 166.337067
v 61.860291 -148.766037 174.096359
v 78.389412 -174.751892 154.790421
v 100.271523 -166.432632 151.819016
v 57.882324 -159.530304 166.337067
v 76.724915 -175.206604 154.754608
v 61.860291 -148.766037 174.096359
v 61.860291 -148.766037 174.096359
v 76.724915 -175.206604 154.754608
v 78.389412 -174.751892 154.790421
v 58.952469 -169.616302 157.254227
v 76.724915 -175.206604 154.754608
v 57.882324 -159.530304 166.337067
v 103.916695 -163.801971 149.727203
v 107.812668 -166.592041 139.499313
v 106.191017 -158.416611 148.990952
v 106.372253 -129.155640 163.940414
v 132.014297 -145.145142 87.808990
v 108.285675 -111.636925 136.045715
v 108.285675 -111.636925 136.045715
v 132.014297 -145.145142 87.808990
v 122.906021 -125.028198 92.264755
v 122.906021 -125.028198 92.264755
v 132.014297 -145.145142 87.808990
v 158.402710 -114.208839 -163.664520
v 0.905767 -170.572647 -172.043823
v 26.875008 -226.591064 -65.091400
v -107.042046 -242.258224 26.552210
v 106.372253 -129.155640 163.940414
v 106.191017 -158.416611 148.990952
v 134.933304 -153.888641 77.024216
v 106.372253 -129.155640 163.940414
v 134.933304 -153.888641 77.024216
v 132.014297 -145.145142 87.808990
v 107.812668 -166.592041 139.499313
v 134.933304 -153.888641 77.024216
v 106.191017 -158.416611 148.990952
v 132.014297 -145.145142 87.808990
v 134.933304 -153.888641 77.024216
v 158.402710 -114.208839 -163.664520
v 158.402710 -114.208839 -163.664520
v 134.933304 -153.888641 77.024216
v 143.880127 -231.356033 -7.987246
v 100.271523 -166.432632 151.819016
v 135.188004 -240.947861 2.359226
v 103.916695 -163.801971 149.727203
v 103.916695 -163.801971 149.727203
v 135.188004 -240.947861 2.359226
v 107.812668 -166.592041 139.499313
v 143.880127 -231.356033 -7.987246
v 135.188004 -240.947861 2.359226
v 134.617065 -241.251221 2.270146
v -107.042046 -242.258224 26.552210
v 23.420412 -225.124893 96.951385
v -80.671875 -141.621384 159.874542
v -80.671875 -141.621384 159.874542
v 23.420412 -225.124893 96.951385
v 58.952469 -169.616302 157.254227
v 58.952469 -169.616302 157.254227
v 23.420412 -225.124893 96.951385
v 76.724915 -175.206604 154.754608
v 23.420412 -225.124893 96.951385
v 23.519741 -225.177597 96.909058
v 76.724915 -175.206604 154.754608
v -107.042046 -242.258224 26.552210
v 23.519741 -225.177597 96.909058
v 23.420412 -225.124893 96.951385
v 158.402710 -114.208839 -163.664520
v 143.880127 -231.356033 -7.987246
v 121.730125 -238.676605 -17.155731
v 143.880127 -231.356033 -7.987246
v 134.617065 -241.251221 2.270146
v 121.730125 -238.676605 -17.155731
v 134.617065 -241.251221 2.270146
v 127.704117 -243.698898 0.400373
v 121.730125 -238.676605 -17.155731
v 107.812668 -166.592041 139.499313
v 140.468109 -220.672012 14.117102
v 134.933304 -153.888641 77.024216
v 134.933304 -153.888641 77.024216
v 140.468109 -220.672012 14.117102
v 143.880127 -231.356033 -7.987246
v 135.188004 -240.947861 2.359226
v 140.468109 -220.672012 14.117102
v 107.812668 -166.592041 139.499313
v 143.880127 -231.356033 -7.987246
v 140.468109 -220.672012 14.117102
v 135.188004 -240.947861 2.359226
v 76.724915 -175.206604 154.754608
v 29.086491 -230.001404 88.270226
v 78.389412 -174.751892 154.790421
v 23.519741 -225.177597 96.909058
v 29.086491 -230.001404 88.270226
v 76.724915 -175.206604 154.754608
v -107.042046 -242.258224 26.552210
v 29.086491 -230.001404 88.270226
v 23.519741 -225.177597 96.909058
v 158.402710 -114.208839 -163.664520
v 108.623184 -230.919891 -39.666618
v 0.905767 -170.572647 -172.043823
v 158.402710 -114.208839 -163.664520
v 121.730125 -238.676605 -17.155731
v 108.623184 -230.919891 -39.666618
v 0.905767 -170.572647 -172.043823
v 108.623184 -230.919891 -39.666618
v 26.875008 -226.591064 -65.091400
v 26.875008 -226.591064 -65.091400
v 43.416130 -242.413086 -27.352598
v -107.042046 -242.258224 26.552210
v 78.389412 -174.751892 154.790421
v 105.149612 -251.942566 21.920788
v 100.271523 -166.432632 151.819016
v 100.271523 -166.432632 151.819016
v 105.149612 -251.942566 21.920788
v 135.188004 -240.947861 2.359226
v 135.188004 -240.947861 2.359226
v 105.149612 -251.942566 21.920788
v 134.617065 -241.251221 2.270146
v 29.086491 -230.001404 88.270226
v 105.149612 -251.942566 21.920788
v 78.389412 -174.751892 154.790421
v 134.617065 -241.251221 2.270146
v 105.149612 -251.942566 21.920788
v 127.704117 -243.698898 0.400373
v 121.730125 -238.676605 -17.155731
v 108.302963 -240.071732 -18.712595
v 108.623184 -230.919891 -39.666618
v 43.416130 -242.413086 -27.352598
v 52.354069 -246.712128 -17.399231
v -107.042046 -242.258224 26.552210
v -107.042046 -242.258224 26.552210
v 35.440258 -234.753143 75.559372
v 29.086491 -230.001404 88.270226
v 29.086491 -230.001404 88.270226
v 35.440258 -234.753143 75.559372
v 105.149612 -251.942566 21.920788
v 26.875008 -226.591064 -65.091400
v 60.954170 -244.689026 -23.842638
v 43.416130 -242.413086 -27.352598
v 43.416130 -242.413086 -27.352598
v 60.954170 -244.689026 -23.842638
v 52.354069 -246.712128 -17.399231
v 108.623184 -230.919891 -39.666618
v 60.954170 -244.689026 -23.842638
v 26.875008 -226.591064 -65.091400
v 108.302963 -240.071732 -18.712595
v 60.954170 -244.689026 -23.842638
v 108.623184 -230.919891 -39.666618
v 127.704117 -243.698898 0.400373
v 74.851295 -250.309601 -5.237501
v 121.730125 -238.676605 -17.155731
v 121.730125 -238.676605 -17.155731
v 74.851295 -250.309601 -5.237501
v 108.302963 -240.071732 -18.712595
v -53.226627 -245.448898 22.499315
v -107.042046 -242.258224 26.552210
v 74.851295 -250.309601 -5.237501
v 52.354069 -246.712128 -17.399231
v 74.851295 -250.309601 -5.237501
v -107.042046 -242.258224 26.552210
v 105.149612 -251.942566 21.920788
v 74.851295 -250.309601 -5.237501
v 127.704117 -243.698898 0.400373
v 60.954170 -244.689026 -23.842638
v 74.851295 -250.309601 -5.237501
v 52.354069 -246.712128 -17.399231
v 108.302963 -240.071732 -18.712595
v 74.851295 -250.309601 -5.237501
v 60.954170 -244.689026 -23.842638
v -53.226627 -245.448898 22.499315
v 68.708046 -250.738770 26.098206
v -107.042046 -242.258224 26.552210
v -107.042046 -242.258224 26.552210
v 68.708046 -250.738770 26.098206
v 35.440258 -234.753143 75.559372
v 35.440258 -234.753143 75.559372
v 68.708046 -250.738770 26.098206
v 105.149612 -251.942566 21.920788
v -53.226627 -245.448898 22.499315
v 74.851295 -250.309601 -5.237501
v 68.708046 -250.738770 26.098206
v 105.149612 -251.942566 21.920788
v 68.708046 -250.738770 26.098206
v 74.851295 -250.309601 -5.237501
vn -0.840310 0.539535 -0.052734
vn -0.708263 0.185211 0.681220
vn -0.614532 0.090105 0.783729
vn -0.852329 0.481604 -0.203943
vn -0.317561 -0.725724 0.610311
vn -0.233032 -0.753450 0.614825
vn 0.642989 0.765224 0.031579
vn 0.246683 0.932744 -0.262936
vn -0.827868 0.489923 -0.273148
vn -0.753413 0.570642 -0.326705
vn -0.221155 0.716353 -0.661761
vn 0.766457 0.630456 0.122756
vn 0.791831 0.491270 0.362847
vn -0.109212 -0.280493 0.953623
vn 0.275671 -0.132667 0.952053
vn -0.110107 -0.554099 0.825137
vn 0.863581 0.484312 0.140250
vn 0.809847 -0.270870 0.520363
vn 0.349348 -0.340968 0.872753
vn 0.637788 -0.330587 0.695657
vn -0.120880 -0.671331 0.731234
vn 0.285365 -0.447967 0.847285
vn 0.009279 -0.586982 0.809547
vn 0.128844 -0.537286 0.833501
vn -0.108149 -0.671573 0.733003
vn 0.858709 -0.306497 0.410706
vn 0.922487 0.295241 0.248698
vn 0.909444 0.369533 0.190674
vn 0.913143 0.381813 0.142791
vn -0.183929 -0.888383 -0.420648
vn 0.916343 -0.186651 0.354228
vn 0.935894 -0.103066 0.336868
vn 0.909669 -0.224928 0.349155
vn 0.977031 0.173407 0.123857
vn 0.995140 0.007151 0.098214
vn 0.677822 -0.582414 0.448722
vn 0.751313 -0.505622 0.424116
vn 0.481941 -0.806403 -0.342705
vn -0.232813 -0.753514 0.614830
vn -0.125410 -0.692022 0.710899
vn -0.118738 -0.694699 0.709432
vn -0.083439 -0.714850 0.694282
vn -0.193045 -0.809334 0.554718
vn 0.452631 -0.732279 -0.508816
vn 0.431259 -0.811805 -0.393686
vn 0.397882 -0.837329 -0.374927
vn 0.906061 -0.247918 0.342913
vn 0.972568 -0.111634 0.204083
vn 0.803695 -0.440974 0.399521
vn 0.848800 -0.412690 0.330492
vn 0.213649 -0.823470 0.525596
vn 0.159127 -0.814782 0.557503
vn -0.113208 -0.896761 0.427789
vn 0.300279 -0.751791 -0.587063
vn 0.445370 -0.734277 -0.512331
vn 0.103530 -0.870533 -0.481097
vn -0.121988 -0.933276 -0.337809
vn 0.364168 -0.771573 0.521590
vn 0.557108 -0.683878 0.471107
vn 0.439458 -0.880000 0.180214
vn 0.218242 -0.824099 0.522715
vn 0.335866 -0.941869 -0.008790
vn 0.140102 -0.908152 -0.394502
vn -0.111353 -0.944818 -0.308091
vn -0.061181 -0.944579 0.322532
vn 0.061684 -0.924399 0.376405
vn -0.046673 -0.928354 -0.368756
vn -0.049245 -0.932254 -0.358437
vn 0.098746 -0.878672 -0.467102
vn 0.131467 -0.909188 -0.395086
vn 0.151059 -0.935620 -0.319056
vn 0.137590 -0.922899 -0.359620
vn -0.069703 -0.986376 -0.149007
vn -0.071405 -0.984664 -0.159178
vn 0.144044 -0.965096 -0.218727
vn 0.005458 -0.956122 -0.292919
vn 0.130102 -0.918046 -0.374520
vn -0.047267 -0.987577 0.149856
vn -0.045559 -0.959112 0.279337
vn 0.004136 -0.950712 0.310048
vn -0.042682 -0.998845 -0.022048
vn -0.035369 -0.999162 -0.020618
f 1//1 2//1 3//1
f 4//2 5//2 6//2
f 7//3 8//3 9//3
f 10//4 11//4 12//4
f 13//5 14//5 15//5
f 16//6 17//6 18//6
f 19//7 20//7 21//7
f 22//8 23//8 24//8
f 25//9 26//9 27//9
f 28//10 29//10 30//10
f 31//11 32//11 33//11
f 34//12 35//12 36//12
f 37//13 38//13 39//13
f 40//14 41//14 42//14
f 43//15 44//15 45//15
f 46//16 47//16 48//16
f 49//17 50//17 51//17
f 52//18 53//18 54//18
f 55//19 56//19 57//19
f 58//20 59//20 60//20
f 61//21 62//21 63//21
f 64//22 65//22 66//22
f 67//23 68//23 69//23
f 70//24 71//24 72//24
f 73//25 74//25 75//25
f 76//26 77//26 78//26
f 79//27 80//27 81//27
f 82//28 83//28 84//28
f 85//29 86//29 87//29
f 88//30 89//30 90//30
f 91//31 92//31 93//31
f 94//32 95//32 96//32
f 97//33 98//33 99//33
f 100//34 101//34 102//34
f 103//35 104//35 105//35
f 106//36 107//36 108//36
f 109//37 110//37 111//37
f 112//38 113//38 114//38
f 115//39 116//39 117//39
f 118//40 119//40 120//40
f 121//41 122//41 123//41
f 124//42 125//42 126//42
f 127//43 128//43 129//43
f 130//44 131//44 132//44
f 133//45 134//45 135//45
f 136//46 137//46 138//46
f 139//47 140//47 141//47
f 142//48 143//48 144//48
f 145//49 146//49 147//49
f 148//50 149//50 150//50
f 151//51 152//51 153//51
f 154//52 155//52 156//52
f 157//53 158//53 159//53
f 160//54 161//54 162//54
f 163//55 164//55 165//55
f 166//56 167//56 168//56
f 169//57 170//57 171//57
f 172//58 173//58 174//58
f 175//59 176//59 177//59
f 178//60 179//60 180//60
f 181//61 182//61 183//61
f 184//62 185//62 186//62
f 187//63 188//63 189//63
f 190//64 191//64 192//64
f 193//65 194//65 195//65
f 196//66 197//66 198//66
f 199//67 200//67 201//67
f 202//68 203//68 204//68
f 205//69 206//69 207//69
f 208//70 209//70 210//70
f 211//71 212//71 213//71
f 214//72 215//72 216//72
f 217//73 218//73 219//73
f 220//74 221//74 222//74
f 223//75 224//75 225//75
f 226//76 227//76 228//76
f 229//77 230//77 231//77
f 232//78 233//78 234//78
f 235//79 236//79 237//79
f 238//80 239//80 240//80
f 241//81 242//81 243//81
f 244//82 245//82 246//82
